%TF.GenerationSoftware,KiCad,Pcbnew,(7.0.0)*%
%TF.CreationDate,2023-03-15T19:38:10+01:00*%
%TF.ProjectId,QuinLED-ESP32-Breakout,5175696e-4c45-4442-9d45-535033322d42,rev?*%
%TF.SameCoordinates,Original*%
%TF.FileFunction,Copper,L1,Top*%
%TF.FilePolarity,Positive*%
%FSLAX46Y46*%
G04 Gerber Fmt 4.6, Leading zero omitted, Abs format (unit mm)*
G04 Created by KiCad (PCBNEW (7.0.0)) date 2023-03-15 19:38:10*
%MOMM*%
%LPD*%
G01*
G04 APERTURE LIST*
%TA.AperFunction,ComponentPad*%
%ADD10C,1.600000*%
%TD*%
%TA.AperFunction,ComponentPad*%
%ADD11O,1.600000X1.600000*%
%TD*%
%TA.AperFunction,ComponentPad*%
%ADD12R,2.600000X2.600000*%
%TD*%
%TA.AperFunction,ComponentPad*%
%ADD13C,2.600000*%
%TD*%
%TA.AperFunction,ComponentPad*%
%ADD14R,1.500000X1.050000*%
%TD*%
%TA.AperFunction,ComponentPad*%
%ADD15O,1.500000X1.050000*%
%TD*%
%TA.AperFunction,ComponentPad*%
%ADD16C,1.700000*%
%TD*%
%TA.AperFunction,ComponentPad*%
%ADD17R,2.000000X2.000000*%
%TD*%
%TA.AperFunction,ComponentPad*%
%ADD18C,2.000000*%
%TD*%
%TA.AperFunction,Conductor*%
%ADD19C,0.250000*%
%TD*%
G04 APERTURE END LIST*
D10*
%TO.P,R8,1*%
%TO.N,+3.3V*%
X106680000Y-134620000D03*
D11*
%TO.P,R8,2*%
%TO.N,GPIO15*%
X106679999Y-119379999D03*
%TD*%
D12*
%TO.P,Reed switch 3,1,Pin_1*%
%TO.N,+3.3V*%
X111759099Y-107209999D03*
D13*
%TO.P,Reed switch 3,2,Pin_2*%
%TO.N,GND*%
X106679100Y-107210000D03*
%TD*%
D12*
%TO.P,LED 3 (GPIO13),1,Pin_1*%
%TO.N,Net-(Led3-Pin_1)*%
X121540999Y-143744999D03*
D13*
%TO.P,LED 3 (GPIO13),2,Pin_2*%
%TO.N,GPIO13*%
X121541000Y-138665000D03*
%TD*%
D12*
%TO.P,LED 2 (GPIO12),1,Pin_1*%
%TO.N,Net-(Led2-Pin_1)*%
X121540999Y-158984999D03*
D13*
%TO.P,LED 2 (GPIO12),2,Pin_2*%
%TO.N,GPIO12*%
X121541000Y-153905000D03*
%TD*%
D12*
%TO.P,PIR,1,Pin_1*%
%TO.N,+12V*%
X71119999Y-134619999D03*
D13*
%TO.P,PIR,2,Pin_2*%
%TO.N,GPIO15*%
X71120000Y-139700000D03*
%TO.P,PIR,3,Pin_3*%
%TO.N,Net-(PIR1-Pin_3)*%
X71120000Y-144780000D03*
%TO.P,PIR,4,Pin_4*%
%TO.N,GND*%
X71120000Y-149860000D03*
%TD*%
D10*
%TO.P,R2,1*%
%TO.N,GPIO35*%
X96520000Y-139700000D03*
D11*
%TO.P,R2,2*%
%TO.N,+3.3V*%
X96519999Y-154939999D03*
%TD*%
D14*
%TO.P,Q1,1,C*%
%TO.N,Net-(PIR1-Pin_3)*%
X84702999Y-149184499D03*
D15*
%TO.P,Q1,2,B*%
%TO.N,Net-(Q1-B)*%
X84702999Y-150454499D03*
%TO.P,Q1,3,E*%
%TO.N,GND*%
X84702999Y-151724499D03*
%TD*%
D10*
%TO.P,R4,1*%
%TO.N,Net-(Led1-Pin_1)*%
X106680000Y-139700000D03*
D11*
%TO.P,R4,2*%
%TO.N,GND*%
X106679999Y-154939999D03*
%TD*%
D12*
%TO.P,TEMP BME280,1,Pin_1*%
%TO.N,GPIO32*%
X71119999Y-160019999D03*
D13*
%TO.P,TEMP BME280,2,Pin_2*%
%TO.N,GPIO33*%
X71120000Y-165100000D03*
%TO.P,TEMP BME280,3,Pin_3*%
%TO.N,GND*%
X71120000Y-170180000D03*
%TO.P,TEMP BME280,4,Pin_4*%
%TO.N,+3.3V*%
X71120000Y-175260000D03*
%TD*%
D10*
%TO.P,R7,1*%
%TO.N,Net-(Led4-Pin_1)*%
X101600000Y-134620000D03*
D11*
%TO.P,R7,2*%
%TO.N,GND*%
X101599999Y-119379999D03*
%TD*%
D10*
%TO.P,R1,1*%
%TO.N,GPIO34*%
X91440000Y-139700000D03*
D11*
%TO.P,R1,2*%
%TO.N,+3.3V*%
X91439999Y-154939999D03*
%TD*%
D12*
%TO.P,LED 1 (GPIO4),1,Pin_1*%
%TO.N,Net-(Led1-Pin_1)*%
X121540999Y-174224999D03*
D13*
%TO.P,LED 1 (GPIO4),2,Pin_2*%
%TO.N,GPIO4*%
X121541000Y-169145000D03*
%TD*%
D12*
%TO.P,Reed switch 1,1,Pin_1*%
%TO.N,+3.3V*%
X85733299Y-107210999D03*
D13*
%TO.P,Reed switch 1,2,Pin_2*%
%TO.N,GND*%
X80653300Y-107211000D03*
%TD*%
D12*
%TO.P,LED 4 (GPIO14),1,Pin_1*%
%TO.N,Net-(Led4-Pin_1)*%
X121540999Y-128504999D03*
D13*
%TO.P,LED 4 (GPIO14),2,Pin_2*%
%TO.N,GPIO14*%
X121541000Y-123425000D03*
%TD*%
D16*
%TO.P,U1,1,GND*%
%TO.N,GND*%
X83820000Y-160020000D03*
%TO.P,U1,2,GND\u002A*%
%TO.N,unconnected-(U1-GND\u002A-Pad2)*%
X83820000Y-162560000D03*
%TO.P,U1,3,S_VN*%
%TO.N,unconnected-(U1-S_VN-Pad3)*%
X83820000Y-165100000D03*
%TO.P,U1,4,IO35*%
%TO.N,GPIO35*%
X83820000Y-167640000D03*
%TO.P,U1,5,IO33*%
%TO.N,GPIO33*%
X83820000Y-170180000D03*
%TO.P,U1,6,IO34*%
%TO.N,GPIO34*%
X83820000Y-172720000D03*
%TO.P,U1,7,IO14*%
%TO.N,GPIO14*%
X83820000Y-175260000D03*
%TO.P,U1,8,3v3\u002A*%
%TO.N,+3.3V*%
X83820000Y-177800000D03*
%TO.P,U1,9,5vF\u002A*%
%TO.N,unconnected-(U1-5vF\u002A-Pad9)*%
X83820000Y-180340000D03*
%TO.P,U1,10,EN*%
%TO.N,unconnected-(U1-EN-Pad10)*%
X86360000Y-160020000D03*
%TO.P,U1,11,S_VP*%
%TO.N,GPIO36*%
X86360000Y-162560000D03*
%TO.P,U1,12,IO26*%
%TO.N,unconnected-(U1-IO26-Pad12)*%
X86360000Y-165100000D03*
%TO.P,U1,13,IO18*%
%TO.N,unconnected-(U1-IO18-Pad13)*%
X86360000Y-167640000D03*
%TO.P,U1,14,IO19*%
%TO.N,unconnected-(U1-IO19-Pad14)*%
X86360000Y-170180000D03*
%TO.P,U1,15,IO23*%
%TO.N,unconnected-(U1-IO23-Pad15)*%
X86360000Y-172720000D03*
%TO.P,U1,16,IO5*%
%TO.N,unconnected-(U1-IO5-Pad16)*%
X86360000Y-175260000D03*
%TO.P,U1,17,3v3*%
%TO.N,unconnected-(U1-3v3-Pad17)*%
X86360000Y-177800000D03*
%TO.P,U1,18,IO13*%
%TO.N,GPIO13*%
X86360000Y-180340000D03*
%TO.P,U1,19,TXD*%
%TO.N,unconnected-(U1-TXD-Pad19)*%
X109220000Y-160020000D03*
%TO.P,U1,20,RXD*%
%TO.N,unconnected-(U1-RXD-Pad20)*%
X109220000Y-162560000D03*
%TO.P,U1,21,IO22*%
%TO.N,unconnected-(U1-IO22-Pad21)*%
X109220000Y-165100000D03*
%TO.P,U1,22,IO21*%
%TO.N,unconnected-(U1-IO21-Pad22)*%
X109220000Y-167640000D03*
%TO.P,U1,23,IO17*%
%TO.N,unconnected-(U1-IO17-Pad23)*%
X109220000Y-170180000D03*
%TO.P,U1,24,IO16*%
%TO.N,GPIO16*%
X109220000Y-172720000D03*
%TO.P,U1,25,GND*%
%TO.N,unconnected-(U1-GND-Pad25)*%
X109220000Y-175260000D03*
%TO.P,U1,26,5v0*%
%TO.N,unconnected-(U1-5v0-Pad26)*%
X109220000Y-177800000D03*
%TO.P,U1,27,IO15*%
%TO.N,GPIO15*%
X109220000Y-180340000D03*
%TO.P,U1,28,GND*%
%TO.N,unconnected-(U1-GND-Pad28)*%
X111760000Y-160020000D03*
%TO.P,U1,29,IO27*%
%TO.N,unconnected-(U1-IO27-Pad29)*%
X111760000Y-162560000D03*
%TO.P,U1,30,IO25*%
%TO.N,unconnected-(U1-IO25-Pad30)*%
X111760000Y-165100000D03*
%TO.P,U1,31,IO32*%
%TO.N,GPIO32*%
X111760000Y-167640000D03*
%TO.P,U1,32,IO12*%
%TO.N,GPIO12*%
X111760000Y-170180000D03*
%TO.P,U1,33,IO_4*%
%TO.N,GPIO4*%
X111760000Y-172720000D03*
%TO.P,U1,34,IO_0*%
%TO.N,unconnected-(U1-IO_0-Pad34)*%
X111760000Y-175260000D03*
%TO.P,U1,35,IO_2*%
%TO.N,GPIO2*%
X111760000Y-177800000D03*
%TO.P,U1,36,NC*%
%TO.N,unconnected-(U1-NC-Pad36)*%
X111760000Y-180340000D03*
%TD*%
D10*
%TO.P,R9,1*%
%TO.N,GPIO16*%
X111760000Y-134620000D03*
D11*
%TO.P,R9,2*%
%TO.N,Net-(Q1-B)*%
X111759999Y-119379999D03*
%TD*%
D12*
%TO.P,12V INPUT,1,Pin_1*%
%TO.N,+12V*%
X71119999Y-119379999D03*
D13*
%TO.P,12V INPUT,2,Pin_2*%
%TO.N,GND*%
X71120000Y-124460000D03*
%TD*%
D10*
%TO.P,R3,1*%
%TO.N,GPIO36*%
X101600000Y-139700000D03*
D11*
%TO.P,R3,2*%
%TO.N,+3.3V*%
X101599999Y-154939999D03*
%TD*%
D17*
%TO.P,Buzzer,1,-*%
%TO.N,GPIO2*%
X83059999Y-126921389D03*
D18*
%TO.P,Buzzer,2,+*%
%TO.N,GND*%
X89660000Y-126921390D03*
%TD*%
D10*
%TO.P,R6,1*%
%TO.N,Net-(Led3-Pin_1)*%
X96520000Y-119380000D03*
D11*
%TO.P,R6,2*%
%TO.N,GND*%
X96519999Y-134619999D03*
%TD*%
D12*
%TO.P,Reed switch 2,1,Pin_1*%
%TO.N,+3.3V*%
X99059099Y-107210499D03*
D13*
%TO.P,Reed switch 2,2,Pin_2*%
%TO.N,GND*%
X93979100Y-107210500D03*
%TD*%
D10*
%TO.P,R5,1*%
%TO.N,Net-(Led2-Pin_1)*%
X111760000Y-154940000D03*
D11*
%TO.P,R5,2*%
%TO.N,GND*%
X111759999Y-139699999D03*
%TD*%
D19*
%TO.N,+12V*%
X71120000Y-119380000D02*
X71120000Y-121005300D01*
X71120000Y-134620000D02*
X71120000Y-132994700D01*
X71120000Y-121005300D02*
X69494700Y-122630600D01*
X69494700Y-122630600D02*
X69494700Y-131369400D01*
X69494700Y-131369400D02*
X71120000Y-132994700D01*
%TO.N,Net-(Led1-Pin_1)*%
X119915700Y-170974400D02*
X119915700Y-165542200D01*
X119915700Y-165542200D02*
X106680000Y-152306500D01*
X121541000Y-172599700D02*
X119915700Y-170974400D01*
X121541000Y-174225000D02*
X121541000Y-172599700D01*
X106680000Y-152306500D02*
X106680000Y-139700000D01*
%TO.N,Net-(Led2-Pin_1)*%
X119915700Y-158985000D02*
X115870700Y-154940000D01*
X121541000Y-158985000D02*
X119915700Y-158985000D01*
X115870700Y-154940000D02*
X111760000Y-154940000D01*
%TO.N,Net-(Led3-Pin_1)*%
X121541000Y-142119700D02*
X98801300Y-119380000D01*
X121541000Y-143745000D02*
X121541000Y-142119700D01*
X98801300Y-119380000D02*
X96520000Y-119380000D01*
%TO.N,GPIO2*%
X83060000Y-133975000D02*
X83060000Y-126921400D01*
X110395400Y-176435400D02*
X110395400Y-174734400D01*
X111760000Y-177800000D02*
X110395400Y-176435400D01*
X108747400Y-173990000D02*
X100474600Y-165717200D01*
X109651000Y-173990000D02*
X108747400Y-173990000D01*
X100474600Y-151389600D02*
X83060000Y-133975000D01*
X110395400Y-174734400D02*
X109651000Y-173990000D01*
X100474600Y-165717200D02*
X100474600Y-151389600D01*
%TO.N,GPIO15*%
X98323800Y-169443800D02*
X98323800Y-155120400D01*
X82903400Y-139700000D02*
X71120000Y-139700000D01*
X98323800Y-155120400D02*
X82903400Y-139700000D01*
X109220000Y-180340000D02*
X98323800Y-169443800D01*
%TO.N,+3.3V*%
X85184600Y-172194400D02*
X85929000Y-171450000D01*
X85184600Y-176435400D02*
X85184600Y-172194400D01*
X106680000Y-134620000D02*
X95374800Y-123314800D01*
X99059100Y-107210500D02*
X100684400Y-107210500D01*
X102327000Y-108853100D02*
X108490700Y-108853100D01*
X91440000Y-166842700D02*
X91440000Y-154940000D01*
X91440000Y-154940000D02*
X96520000Y-154940000D01*
X99059100Y-107210500D02*
X99059100Y-108835800D01*
X102725300Y-152689400D02*
X102725300Y-138574700D01*
X111759100Y-107210000D02*
X110133800Y-107210000D01*
X108490700Y-108853100D02*
X110133800Y-107210000D01*
X95374800Y-123314800D02*
X95374800Y-112520100D01*
X86832700Y-171450000D02*
X91440000Y-166842700D01*
X101600000Y-154940000D02*
X101600000Y-153814700D01*
X83820000Y-177800000D02*
X85184600Y-176435400D01*
X85929000Y-171450000D02*
X86832700Y-171450000D01*
X101600000Y-153814700D02*
X102725300Y-152689400D01*
X102725300Y-138574700D02*
X106680000Y-134620000D01*
X100684400Y-107210500D02*
X102327000Y-108853100D01*
X95374800Y-112520100D02*
X99059100Y-108835800D01*
%TO.N,GPIO16*%
X105518500Y-139216900D02*
X110115400Y-134620000D01*
X105518500Y-169018500D02*
X105518500Y-139216900D01*
X109220000Y-172720000D02*
X105518500Y-169018500D01*
X110115400Y-134620000D02*
X111760000Y-134620000D01*
%TO.N,GPIO33*%
X83820000Y-170180000D02*
X78740000Y-165100000D01*
X78740000Y-165100000D02*
X71120000Y-165100000D01*
%TD*%
%TA.AperFunction,Conductor*%
%TO.N,GND*%
G36*
X106306318Y-152836521D02*
G01*
X106355681Y-152866771D01*
X106957187Y-153468277D01*
X106987868Y-153518991D01*
X106991504Y-153578152D01*
X106967265Y-153632242D01*
X106940804Y-153653069D01*
X106932983Y-153662598D01*
X106930000Y-153675395D01*
X106930000Y-154673674D01*
X106933450Y-154686549D01*
X106946326Y-154690000D01*
X107944605Y-154690000D01*
X107957401Y-154687016D01*
X107966927Y-154679198D01*
X107987751Y-154652739D01*
X108041842Y-154628496D01*
X108101005Y-154632131D01*
X108151721Y-154662811D01*
X110673409Y-157184500D01*
X111950051Y-158461142D01*
X111980952Y-158512569D01*
X111984092Y-158572483D01*
X111958736Y-158626858D01*
X111910821Y-158662965D01*
X111851564Y-158672351D01*
X111765397Y-158664813D01*
X111765395Y-158664813D01*
X111760000Y-158664341D01*
X111754605Y-158664813D01*
X111529982Y-158684465D01*
X111529977Y-158684465D01*
X111524592Y-158684937D01*
X111519371Y-158686335D01*
X111519365Y-158686337D01*
X111301569Y-158744694D01*
X111301557Y-158744698D01*
X111296337Y-158746097D01*
X111291432Y-158748383D01*
X111291427Y-158748386D01*
X111087081Y-158843675D01*
X111087077Y-158843677D01*
X111082171Y-158845965D01*
X111077738Y-158849068D01*
X111077731Y-158849073D01*
X110893034Y-158978399D01*
X110893029Y-158978402D01*
X110888599Y-158981505D01*
X110884775Y-158985328D01*
X110884769Y-158985334D01*
X110725334Y-159144769D01*
X110725328Y-159144775D01*
X110721505Y-159148599D01*
X110718402Y-159153029D01*
X110718399Y-159153034D01*
X110591575Y-159334159D01*
X110547257Y-159373025D01*
X110490000Y-159387036D01*
X110432743Y-159373025D01*
X110388425Y-159334159D01*
X110261600Y-159153034D01*
X110258495Y-159148599D01*
X110091401Y-158981505D01*
X110086970Y-158978402D01*
X110086966Y-158978399D01*
X109902259Y-158849066D01*
X109902257Y-158849064D01*
X109897830Y-158845965D01*
X109892933Y-158843681D01*
X109892927Y-158843678D01*
X109688572Y-158748386D01*
X109688570Y-158748385D01*
X109683663Y-158746097D01*
X109678438Y-158744697D01*
X109678430Y-158744694D01*
X109460634Y-158686337D01*
X109460630Y-158686336D01*
X109455408Y-158684937D01*
X109450020Y-158684465D01*
X109450017Y-158684465D01*
X109225395Y-158664813D01*
X109220000Y-158664341D01*
X109214605Y-158664813D01*
X108989982Y-158684465D01*
X108989977Y-158684465D01*
X108984592Y-158684937D01*
X108979371Y-158686335D01*
X108979365Y-158686337D01*
X108761569Y-158744694D01*
X108761557Y-158744698D01*
X108756337Y-158746097D01*
X108751432Y-158748383D01*
X108751427Y-158748386D01*
X108547081Y-158843675D01*
X108547077Y-158843677D01*
X108542171Y-158845965D01*
X108537738Y-158849068D01*
X108537731Y-158849073D01*
X108353034Y-158978399D01*
X108353029Y-158978402D01*
X108348599Y-158981505D01*
X108344775Y-158985328D01*
X108344769Y-158985334D01*
X108185334Y-159144769D01*
X108185328Y-159144775D01*
X108181505Y-159148599D01*
X108178402Y-159153029D01*
X108178399Y-159153034D01*
X108049073Y-159337731D01*
X108049068Y-159337738D01*
X108045965Y-159342171D01*
X108043677Y-159347077D01*
X108043675Y-159347081D01*
X107948386Y-159551427D01*
X107948383Y-159551432D01*
X107946097Y-159556337D01*
X107944698Y-159561557D01*
X107944694Y-159561569D01*
X107886337Y-159779365D01*
X107886335Y-159779371D01*
X107884937Y-159784592D01*
X107884465Y-159789977D01*
X107884465Y-159789982D01*
X107877536Y-159869179D01*
X107864341Y-160020000D01*
X107884937Y-160255408D01*
X107886336Y-160260630D01*
X107886337Y-160260634D01*
X107944694Y-160478430D01*
X107944697Y-160478438D01*
X107946097Y-160483663D01*
X107948385Y-160488570D01*
X107948386Y-160488572D01*
X108043678Y-160692927D01*
X108043681Y-160692933D01*
X108045965Y-160697830D01*
X108049064Y-160702257D01*
X108049066Y-160702259D01*
X108178399Y-160886966D01*
X108178402Y-160886970D01*
X108181505Y-160891401D01*
X108348599Y-161058495D01*
X108353032Y-161061599D01*
X108353038Y-161061604D01*
X108534158Y-161188425D01*
X108573024Y-161232743D01*
X108587035Y-161290000D01*
X108573024Y-161347257D01*
X108534159Y-161391575D01*
X108353041Y-161518395D01*
X108348599Y-161521505D01*
X108344775Y-161525328D01*
X108344769Y-161525334D01*
X108185334Y-161684769D01*
X108185328Y-161684775D01*
X108181505Y-161688599D01*
X108178402Y-161693029D01*
X108178399Y-161693034D01*
X108049073Y-161877731D01*
X108049068Y-161877738D01*
X108045965Y-161882171D01*
X108043677Y-161887077D01*
X108043675Y-161887081D01*
X107948386Y-162091427D01*
X107948383Y-162091432D01*
X107946097Y-162096337D01*
X107944698Y-162101557D01*
X107944694Y-162101569D01*
X107886337Y-162319365D01*
X107886335Y-162319371D01*
X107884937Y-162324592D01*
X107864341Y-162560000D01*
X107884937Y-162795408D01*
X107886336Y-162800630D01*
X107886337Y-162800634D01*
X107944694Y-163018430D01*
X107944697Y-163018438D01*
X107946097Y-163023663D01*
X107948385Y-163028570D01*
X107948386Y-163028572D01*
X108043678Y-163232927D01*
X108043681Y-163232933D01*
X108045965Y-163237830D01*
X108049064Y-163242257D01*
X108049066Y-163242259D01*
X108178399Y-163426966D01*
X108178402Y-163426970D01*
X108181505Y-163431401D01*
X108348599Y-163598495D01*
X108353032Y-163601599D01*
X108353038Y-163601604D01*
X108534158Y-163728425D01*
X108573024Y-163772743D01*
X108587035Y-163830000D01*
X108573024Y-163887257D01*
X108534160Y-163931574D01*
X108348599Y-164061505D01*
X108344775Y-164065328D01*
X108344769Y-164065334D01*
X108185334Y-164224769D01*
X108185328Y-164224775D01*
X108181505Y-164228599D01*
X108178402Y-164233029D01*
X108178399Y-164233034D01*
X108049073Y-164417731D01*
X108049068Y-164417738D01*
X108045965Y-164422171D01*
X108043677Y-164427077D01*
X108043675Y-164427081D01*
X107948386Y-164631427D01*
X107948383Y-164631432D01*
X107946097Y-164636337D01*
X107944698Y-164641557D01*
X107944694Y-164641569D01*
X107886337Y-164859365D01*
X107886335Y-164859371D01*
X107884937Y-164864592D01*
X107864341Y-165100000D01*
X107864813Y-165105395D01*
X107881122Y-165291810D01*
X107884937Y-165335408D01*
X107886336Y-165340630D01*
X107886337Y-165340634D01*
X107944694Y-165558430D01*
X107944697Y-165558438D01*
X107946097Y-165563663D01*
X107948385Y-165568570D01*
X107948386Y-165568572D01*
X108043678Y-165772927D01*
X108043681Y-165772933D01*
X108045965Y-165777830D01*
X108049064Y-165782257D01*
X108049066Y-165782259D01*
X108178399Y-165966966D01*
X108178402Y-165966970D01*
X108181505Y-165971401D01*
X108348599Y-166138495D01*
X108353032Y-166141599D01*
X108353038Y-166141604D01*
X108534158Y-166268425D01*
X108573024Y-166312743D01*
X108587035Y-166370000D01*
X108573024Y-166427257D01*
X108534159Y-166471575D01*
X108353041Y-166598395D01*
X108348599Y-166601505D01*
X108344775Y-166605328D01*
X108344769Y-166605334D01*
X108185334Y-166764769D01*
X108185328Y-166764775D01*
X108181505Y-166768599D01*
X108178402Y-166773029D01*
X108178399Y-166773034D01*
X108049073Y-166957731D01*
X108049068Y-166957738D01*
X108045965Y-166962171D01*
X108043677Y-166967077D01*
X108043675Y-166967081D01*
X107948386Y-167171427D01*
X107948383Y-167171432D01*
X107946097Y-167176337D01*
X107944698Y-167181557D01*
X107944694Y-167181569D01*
X107886337Y-167399365D01*
X107886335Y-167399371D01*
X107884937Y-167404592D01*
X107864341Y-167640000D01*
X107864813Y-167645395D01*
X107872509Y-167733365D01*
X107884937Y-167875408D01*
X107886336Y-167880630D01*
X107886337Y-167880634D01*
X107944694Y-168098430D01*
X107944697Y-168098438D01*
X107946097Y-168103663D01*
X107948385Y-168108570D01*
X107948386Y-168108572D01*
X108043678Y-168312927D01*
X108043681Y-168312933D01*
X108045965Y-168317830D01*
X108049064Y-168322257D01*
X108049066Y-168322259D01*
X108178399Y-168506966D01*
X108178402Y-168506970D01*
X108181505Y-168511401D01*
X108348599Y-168678495D01*
X108353032Y-168681599D01*
X108353038Y-168681604D01*
X108534158Y-168808425D01*
X108573024Y-168852743D01*
X108587035Y-168910000D01*
X108573024Y-168967257D01*
X108534159Y-169011575D01*
X108353041Y-169138395D01*
X108348599Y-169141505D01*
X108344775Y-169145328D01*
X108344769Y-169145334D01*
X108185334Y-169304769D01*
X108185328Y-169304775D01*
X108181505Y-169308599D01*
X108178402Y-169313029D01*
X108178399Y-169313034D01*
X108049073Y-169497731D01*
X108049068Y-169497738D01*
X108045965Y-169502171D01*
X108043677Y-169507077D01*
X108043675Y-169507081D01*
X107948386Y-169711427D01*
X107948383Y-169711432D01*
X107946097Y-169716337D01*
X107944698Y-169721557D01*
X107944694Y-169721569D01*
X107886337Y-169939365D01*
X107886335Y-169939371D01*
X107884937Y-169944592D01*
X107884465Y-169949977D01*
X107884465Y-169949982D01*
X107865907Y-170162102D01*
X107864341Y-170180000D01*
X107864522Y-170182071D01*
X107851298Y-170237155D01*
X107813698Y-170281178D01*
X107760211Y-170303333D01*
X107702495Y-170298791D01*
X107653132Y-170268541D01*
X106180319Y-168795728D01*
X106153439Y-168755500D01*
X106144000Y-168708047D01*
X106144000Y-156303839D01*
X106156788Y-156248995D01*
X106192513Y-156205463D01*
X106243808Y-156182222D01*
X106300093Y-156184064D01*
X106416219Y-156215179D01*
X106427448Y-156215547D01*
X106430000Y-156204605D01*
X106930000Y-156204605D01*
X106932551Y-156215547D01*
X106943780Y-156215179D01*
X107121092Y-156167669D01*
X107131234Y-156163977D01*
X107327580Y-156072420D01*
X107336912Y-156067032D01*
X107514381Y-155942767D01*
X107522647Y-155935830D01*
X107675830Y-155782647D01*
X107682767Y-155774381D01*
X107807032Y-155596912D01*
X107812420Y-155587580D01*
X107903977Y-155391234D01*
X107907669Y-155381092D01*
X107955179Y-155203780D01*
X107955547Y-155192551D01*
X107944605Y-155190000D01*
X106946326Y-155190000D01*
X106933450Y-155193450D01*
X106930000Y-155206326D01*
X106930000Y-156204605D01*
X106430000Y-156204605D01*
X106430000Y-153675395D01*
X106427448Y-153664452D01*
X106416219Y-153664820D01*
X106300093Y-153695936D01*
X106243808Y-153697778D01*
X106192513Y-153674537D01*
X106156788Y-153631005D01*
X106144000Y-153576161D01*
X106144000Y-152954452D01*
X106157515Y-152898157D01*
X106195115Y-152854134D01*
X106248602Y-152831979D01*
X106306318Y-152836521D01*
G37*
%TD.AperFunction*%
%TA.AperFunction,Conductor*%
G36*
X126773203Y-101732034D02*
G01*
X126818590Y-101777421D01*
X126835203Y-101839421D01*
X126835203Y-185295500D01*
X126818590Y-185357500D01*
X126773203Y-185402887D01*
X126711203Y-185419500D01*
X66164500Y-185419500D01*
X66102500Y-185402887D01*
X66057113Y-185357500D01*
X66040500Y-185295500D01*
X66040500Y-181535176D01*
X69614357Y-181535176D01*
X69614781Y-181540293D01*
X69634467Y-181777877D01*
X69634468Y-181777885D01*
X69634892Y-181782997D01*
X69636149Y-181787964D01*
X69636151Y-181787971D01*
X69645288Y-181824051D01*
X69695937Y-182024057D01*
X69697997Y-182028753D01*
X69793766Y-182247086D01*
X69793769Y-182247092D01*
X69795827Y-182251783D01*
X69798627Y-182256069D01*
X69798631Y-182256076D01*
X69920989Y-182443359D01*
X69931836Y-182459961D01*
X69935310Y-182463735D01*
X69935311Y-182463736D01*
X70096784Y-182639143D01*
X70096787Y-182639146D01*
X70100256Y-182642914D01*
X70296491Y-182795650D01*
X70515190Y-182914004D01*
X70750386Y-182994747D01*
X70995665Y-183035676D01*
X71239201Y-183035676D01*
X71244335Y-183035676D01*
X71489614Y-182994747D01*
X71724810Y-182914004D01*
X71943509Y-182795650D01*
X72139744Y-182642914D01*
X72308164Y-182459961D01*
X72444173Y-182251783D01*
X72544063Y-182024057D01*
X72605108Y-181782997D01*
X72625643Y-181535176D01*
X72605108Y-181287355D01*
X72544063Y-181046295D01*
X72444173Y-180818569D01*
X72439902Y-180812032D01*
X72372740Y-180709233D01*
X72308164Y-180610391D01*
X72139744Y-180427438D01*
X71943509Y-180274702D01*
X71872314Y-180236173D01*
X71729316Y-180158786D01*
X71729310Y-180158783D01*
X71724810Y-180156348D01*
X71719969Y-180154686D01*
X71719962Y-180154683D01*
X71494465Y-180077270D01*
X71494461Y-180077269D01*
X71489614Y-180075605D01*
X71480768Y-180074128D01*
X71249398Y-180035520D01*
X71249387Y-180035519D01*
X71244335Y-180034676D01*
X70995665Y-180034676D01*
X70990613Y-180035519D01*
X70990601Y-180035520D01*
X70755443Y-180074761D01*
X70755441Y-180074761D01*
X70750386Y-180075605D01*
X70745541Y-180077268D01*
X70745534Y-180077270D01*
X70520037Y-180154683D01*
X70520026Y-180154687D01*
X70515190Y-180156348D01*
X70510693Y-180158781D01*
X70510683Y-180158786D01*
X70301002Y-180272260D01*
X70300995Y-180272264D01*
X70296491Y-180274702D01*
X70292448Y-180277848D01*
X70292440Y-180277854D01*
X70110931Y-180419129D01*
X70100256Y-180427438D01*
X70096793Y-180431199D01*
X70096784Y-180431208D01*
X69935311Y-180606615D01*
X69935305Y-180606622D01*
X69931836Y-180610391D01*
X69929031Y-180614682D01*
X69929028Y-180614688D01*
X69798631Y-180814275D01*
X69798624Y-180814287D01*
X69795827Y-180818569D01*
X69793772Y-180823253D01*
X69793766Y-180823265D01*
X69697997Y-181041598D01*
X69695937Y-181046295D01*
X69694679Y-181051260D01*
X69694678Y-181051265D01*
X69636151Y-181282380D01*
X69636149Y-181282389D01*
X69634892Y-181287355D01*
X69634468Y-181292464D01*
X69634467Y-181292474D01*
X69616366Y-181510933D01*
X69614357Y-181535176D01*
X66040500Y-181535176D01*
X66040500Y-175260000D01*
X69314451Y-175260000D01*
X69314798Y-175264631D01*
X69332483Y-175500634D01*
X69334617Y-175529103D01*
X69335647Y-175533616D01*
X69335648Y-175533622D01*
X69388991Y-175767331D01*
X69394666Y-175792195D01*
X69396362Y-175796518D01*
X69396363Y-175796519D01*
X69463977Y-175968796D01*
X69493257Y-176043398D01*
X69628185Y-176277102D01*
X69796439Y-176488085D01*
X69841613Y-176530000D01*
X69951084Y-176631575D01*
X69994259Y-176671635D01*
X70217226Y-176823651D01*
X70460359Y-176940738D01*
X70464787Y-176942103D01*
X70464790Y-176942105D01*
X70589293Y-176980508D01*
X70718228Y-177020280D01*
X70985071Y-177060500D01*
X71250292Y-177060500D01*
X71254929Y-177060500D01*
X71521772Y-177020280D01*
X71779641Y-176940738D01*
X72022775Y-176823651D01*
X72245741Y-176671635D01*
X72443561Y-176488085D01*
X72611815Y-176277102D01*
X72746743Y-176043398D01*
X72845334Y-175792195D01*
X72905383Y-175529103D01*
X72925549Y-175260000D01*
X72905383Y-174990897D01*
X72845334Y-174727805D01*
X72746743Y-174476602D01*
X72611815Y-174242898D01*
X72443561Y-174031915D01*
X72294962Y-173894035D01*
X72249146Y-173851524D01*
X72249143Y-173851521D01*
X72245741Y-173848365D01*
X72241912Y-173845754D01*
X72241909Y-173845752D01*
X72108306Y-173754663D01*
X72022775Y-173696349D01*
X71886630Y-173630785D01*
X71783820Y-173581274D01*
X71783814Y-173581271D01*
X71779641Y-173579262D01*
X71775219Y-173577898D01*
X71775209Y-173577894D01*
X71526202Y-173501086D01*
X71526196Y-173501084D01*
X71521772Y-173499720D01*
X71517195Y-173499030D01*
X71517186Y-173499028D01*
X71259514Y-173460191D01*
X71259513Y-173460190D01*
X71254929Y-173459500D01*
X70985071Y-173459500D01*
X70980487Y-173460190D01*
X70980485Y-173460191D01*
X70722813Y-173499028D01*
X70722801Y-173499030D01*
X70718228Y-173499720D01*
X70713806Y-173501083D01*
X70713797Y-173501086D01*
X70464790Y-173577894D01*
X70464775Y-173577899D01*
X70460359Y-173579262D01*
X70456185Y-173581271D01*
X70456180Y-173581274D01*
X70221411Y-173694333D01*
X70221404Y-173694336D01*
X70217226Y-173696349D01*
X70213393Y-173698962D01*
X70213390Y-173698964D01*
X69998090Y-173845752D01*
X69998080Y-173845759D01*
X69994259Y-173848365D01*
X69990863Y-173851516D01*
X69990853Y-173851524D01*
X69799843Y-174028756D01*
X69799839Y-174028759D01*
X69796439Y-174031915D01*
X69793549Y-174035537D01*
X69793546Y-174035542D01*
X69631077Y-174239271D01*
X69628185Y-174242898D01*
X69625866Y-174246913D01*
X69625865Y-174246916D01*
X69495578Y-174472581D01*
X69495575Y-174472586D01*
X69493257Y-174476602D01*
X69491563Y-174480916D01*
X69491561Y-174480922D01*
X69396363Y-174723480D01*
X69394666Y-174727805D01*
X69393633Y-174732326D01*
X69393632Y-174732333D01*
X69335648Y-174986377D01*
X69335646Y-174986385D01*
X69334617Y-174990897D01*
X69334270Y-174995516D01*
X69334270Y-174995522D01*
X69332092Y-175024592D01*
X69314451Y-175260000D01*
X66040500Y-175260000D01*
X66040500Y-171618350D01*
X70038604Y-171618350D01*
X70046150Y-171626408D01*
X70213641Y-171740601D01*
X70221662Y-171745232D01*
X70456362Y-171858258D01*
X70464973Y-171861638D01*
X70713908Y-171938424D01*
X70722924Y-171940482D01*
X70980523Y-171979308D01*
X70989746Y-171980000D01*
X71250254Y-171980000D01*
X71259476Y-171979308D01*
X71517075Y-171940482D01*
X71526091Y-171938424D01*
X71775027Y-171861637D01*
X71783637Y-171858258D01*
X72018340Y-171745231D01*
X72026359Y-171740601D01*
X72193846Y-171626409D01*
X72201394Y-171618350D01*
X72195477Y-171609030D01*
X71131542Y-170545095D01*
X71120000Y-170538431D01*
X71108457Y-170545095D01*
X70044521Y-171609030D01*
X70038604Y-171618350D01*
X66040500Y-171618350D01*
X66040500Y-170184630D01*
X69315300Y-170184630D01*
X69334767Y-170444399D01*
X69336146Y-170453552D01*
X69394111Y-170707515D01*
X69396844Y-170716375D01*
X69492011Y-170958856D01*
X69496030Y-170967202D01*
X69626278Y-171192798D01*
X69631496Y-171200450D01*
X69671379Y-171250462D01*
X69682615Y-171258435D01*
X69694674Y-171251771D01*
X70754904Y-170191542D01*
X70761568Y-170180000D01*
X71478431Y-170180000D01*
X71485095Y-170191542D01*
X72545325Y-171251772D01*
X72557382Y-171258436D01*
X72568619Y-171250463D01*
X72608507Y-171200445D01*
X72613719Y-171192800D01*
X72743969Y-170967202D01*
X72747988Y-170958856D01*
X72843155Y-170716375D01*
X72845888Y-170707515D01*
X72903853Y-170453552D01*
X72905232Y-170444399D01*
X72924700Y-170184630D01*
X72924700Y-170175370D01*
X72905232Y-169915600D01*
X72903853Y-169906447D01*
X72845888Y-169652484D01*
X72843155Y-169643624D01*
X72747988Y-169401143D01*
X72743969Y-169392797D01*
X72613721Y-169167201D01*
X72608503Y-169159549D01*
X72568619Y-169109536D01*
X72557382Y-169101562D01*
X72545325Y-169108226D01*
X71485095Y-170168457D01*
X71478431Y-170180000D01*
X70761568Y-170180000D01*
X70754904Y-170168457D01*
X69694674Y-169108227D01*
X69682615Y-169101562D01*
X69671380Y-169109534D01*
X69631488Y-169159558D01*
X69626282Y-169167195D01*
X69496030Y-169392797D01*
X69492011Y-169401143D01*
X69396844Y-169643624D01*
X69394111Y-169652484D01*
X69336146Y-169906447D01*
X69334767Y-169915600D01*
X69315300Y-170175370D01*
X69315300Y-170184630D01*
X66040500Y-170184630D01*
X66040500Y-168741648D01*
X70038603Y-168741648D01*
X70044519Y-168750966D01*
X71108457Y-169814904D01*
X71120000Y-169821568D01*
X71131542Y-169814904D01*
X72195477Y-168750968D01*
X72201394Y-168741648D01*
X72193846Y-168733589D01*
X72026360Y-168619398D01*
X72018340Y-168614768D01*
X71783637Y-168501741D01*
X71775027Y-168498362D01*
X71526091Y-168421575D01*
X71517075Y-168419517D01*
X71259476Y-168380691D01*
X71250254Y-168380000D01*
X70989746Y-168380000D01*
X70980523Y-168380691D01*
X70722924Y-168419517D01*
X70713908Y-168421575D01*
X70464973Y-168498361D01*
X70456362Y-168501741D01*
X70221660Y-168614768D01*
X70213639Y-168619399D01*
X70046151Y-168733590D01*
X70038603Y-168741648D01*
X66040500Y-168741648D01*
X66040500Y-165100000D01*
X69314451Y-165100000D01*
X69314798Y-165104631D01*
X69332483Y-165340634D01*
X69334617Y-165369103D01*
X69335647Y-165373616D01*
X69335648Y-165373622D01*
X69389885Y-165611249D01*
X69394666Y-165632195D01*
X69396362Y-165636518D01*
X69396363Y-165636519D01*
X69491559Y-165879073D01*
X69493257Y-165883398D01*
X69628185Y-166117102D01*
X69796439Y-166328085D01*
X69799843Y-166331243D01*
X69951084Y-166471575D01*
X69994259Y-166511635D01*
X70217226Y-166663651D01*
X70460359Y-166780738D01*
X70464787Y-166782103D01*
X70464790Y-166782105D01*
X70546649Y-166807355D01*
X70718228Y-166860280D01*
X70985071Y-166900500D01*
X71250292Y-166900500D01*
X71254929Y-166900500D01*
X71521772Y-166860280D01*
X71779641Y-166780738D01*
X72022775Y-166663651D01*
X72245741Y-166511635D01*
X72443561Y-166328085D01*
X72611815Y-166117102D01*
X72746743Y-165883398D01*
X72777827Y-165804197D01*
X72804487Y-165762919D01*
X72845089Y-165735237D01*
X72893255Y-165725500D01*
X78429548Y-165725500D01*
X78477001Y-165734939D01*
X78517229Y-165761819D01*
X82479761Y-169724352D01*
X82511854Y-169779938D01*
X82511855Y-169844124D01*
X82486338Y-169939358D01*
X82486335Y-169939373D01*
X82484937Y-169944592D01*
X82464341Y-170180000D01*
X82464813Y-170185395D01*
X82480916Y-170369457D01*
X82484937Y-170415408D01*
X82486336Y-170420630D01*
X82486337Y-170420634D01*
X82544694Y-170638430D01*
X82544697Y-170638438D01*
X82546097Y-170643663D01*
X82548385Y-170648570D01*
X82548386Y-170648572D01*
X82643678Y-170852927D01*
X82643681Y-170852933D01*
X82645965Y-170857830D01*
X82649064Y-170862257D01*
X82649066Y-170862259D01*
X82778399Y-171046966D01*
X82778402Y-171046970D01*
X82781505Y-171051401D01*
X82948599Y-171218495D01*
X82953032Y-171221599D01*
X82953038Y-171221604D01*
X83134158Y-171348425D01*
X83173024Y-171392743D01*
X83187035Y-171450000D01*
X83173024Y-171507257D01*
X83134159Y-171551575D01*
X82982211Y-171657970D01*
X82948599Y-171681505D01*
X82944775Y-171685328D01*
X82944769Y-171685334D01*
X82785334Y-171844769D01*
X82785328Y-171844775D01*
X82781505Y-171848599D01*
X82778402Y-171853029D01*
X82778399Y-171853034D01*
X82649073Y-172037731D01*
X82649070Y-172037737D01*
X82645965Y-172042171D01*
X82643677Y-172047077D01*
X82643675Y-172047081D01*
X82548386Y-172251427D01*
X82548383Y-172251432D01*
X82546097Y-172256337D01*
X82544698Y-172261557D01*
X82544694Y-172261569D01*
X82486337Y-172479365D01*
X82486335Y-172479371D01*
X82484937Y-172484592D01*
X82484465Y-172489977D01*
X82484465Y-172489982D01*
X82468228Y-172675568D01*
X82464341Y-172720000D01*
X82464813Y-172725395D01*
X82477798Y-172873819D01*
X82484937Y-172955408D01*
X82486336Y-172960630D01*
X82486337Y-172960634D01*
X82544694Y-173178430D01*
X82544697Y-173178438D01*
X82546097Y-173183663D01*
X82548385Y-173188570D01*
X82548386Y-173188572D01*
X82643678Y-173392927D01*
X82643681Y-173392933D01*
X82645965Y-173397830D01*
X82649064Y-173402257D01*
X82649066Y-173402259D01*
X82778399Y-173586966D01*
X82778402Y-173586970D01*
X82781505Y-173591401D01*
X82948599Y-173758495D01*
X82953032Y-173761599D01*
X82953038Y-173761604D01*
X83134158Y-173888425D01*
X83173024Y-173932743D01*
X83187035Y-173990000D01*
X83173024Y-174047257D01*
X83134159Y-174091575D01*
X82953041Y-174218395D01*
X82948599Y-174221505D01*
X82944775Y-174225328D01*
X82944769Y-174225334D01*
X82785334Y-174384769D01*
X82785328Y-174384775D01*
X82781505Y-174388599D01*
X82778402Y-174393029D01*
X82778399Y-174393034D01*
X82649073Y-174577731D01*
X82649068Y-174577738D01*
X82645965Y-174582171D01*
X82643677Y-174587077D01*
X82643675Y-174587081D01*
X82548386Y-174791427D01*
X82548383Y-174791432D01*
X82546097Y-174796337D01*
X82544698Y-174801557D01*
X82544694Y-174801569D01*
X82486337Y-175019365D01*
X82486335Y-175019371D01*
X82484937Y-175024592D01*
X82464341Y-175260000D01*
X82484937Y-175495408D01*
X82486336Y-175500630D01*
X82486337Y-175500634D01*
X82544694Y-175718430D01*
X82544697Y-175718438D01*
X82546097Y-175723663D01*
X82548385Y-175728570D01*
X82548386Y-175728572D01*
X82643678Y-175932927D01*
X82643681Y-175932933D01*
X82645965Y-175937830D01*
X82649064Y-175942257D01*
X82649066Y-175942259D01*
X82778399Y-176126966D01*
X82778402Y-176126970D01*
X82781505Y-176131401D01*
X82948599Y-176298495D01*
X82953032Y-176301599D01*
X82953038Y-176301604D01*
X83134158Y-176428425D01*
X83173024Y-176472743D01*
X83187035Y-176530000D01*
X83173024Y-176587257D01*
X83134159Y-176631575D01*
X82953041Y-176758395D01*
X82948599Y-176761505D01*
X82944775Y-176765328D01*
X82944769Y-176765334D01*
X82785334Y-176924769D01*
X82785328Y-176924775D01*
X82781505Y-176928599D01*
X82778402Y-176933029D01*
X82778399Y-176933034D01*
X82649073Y-177117731D01*
X82649068Y-177117738D01*
X82645965Y-177122171D01*
X82643677Y-177127077D01*
X82643675Y-177127081D01*
X82548386Y-177331427D01*
X82548383Y-177331432D01*
X82546097Y-177336337D01*
X82544698Y-177341557D01*
X82544694Y-177341569D01*
X82486337Y-177559365D01*
X82486335Y-177559371D01*
X82484937Y-177564592D01*
X82464341Y-177800000D01*
X82464813Y-177805395D01*
X82475131Y-177923334D01*
X82484937Y-178035408D01*
X82486336Y-178040630D01*
X82486337Y-178040634D01*
X82544694Y-178258430D01*
X82544697Y-178258438D01*
X82546097Y-178263663D01*
X82548385Y-178268570D01*
X82548386Y-178268572D01*
X82643678Y-178472927D01*
X82643681Y-178472933D01*
X82645965Y-178477830D01*
X82649064Y-178482257D01*
X82649066Y-178482259D01*
X82778399Y-178666966D01*
X82778402Y-178666970D01*
X82781505Y-178671401D01*
X82948599Y-178838495D01*
X82953032Y-178841599D01*
X82953038Y-178841604D01*
X83134158Y-178968425D01*
X83173024Y-179012743D01*
X83187035Y-179070000D01*
X83173024Y-179127257D01*
X83134159Y-179171575D01*
X82953041Y-179298395D01*
X82948599Y-179301505D01*
X82944775Y-179305328D01*
X82944769Y-179305334D01*
X82785334Y-179464769D01*
X82785328Y-179464775D01*
X82781505Y-179468599D01*
X82778402Y-179473029D01*
X82778399Y-179473034D01*
X82649073Y-179657731D01*
X82649068Y-179657738D01*
X82645965Y-179662171D01*
X82643677Y-179667077D01*
X82643675Y-179667081D01*
X82548386Y-179871427D01*
X82548383Y-179871432D01*
X82546097Y-179876337D01*
X82544698Y-179881557D01*
X82544694Y-179881569D01*
X82486337Y-180099365D01*
X82486335Y-180099371D01*
X82484937Y-180104592D01*
X82484465Y-180109977D01*
X82484465Y-180109982D01*
X82470054Y-180274702D01*
X82464341Y-180340000D01*
X82464813Y-180345395D01*
X82470603Y-180411580D01*
X82484937Y-180575408D01*
X82486336Y-180580630D01*
X82486337Y-180580634D01*
X82544694Y-180798430D01*
X82544697Y-180798438D01*
X82546097Y-180803663D01*
X82548385Y-180808570D01*
X82548386Y-180808572D01*
X82643678Y-181012927D01*
X82643681Y-181012933D01*
X82645965Y-181017830D01*
X82649064Y-181022257D01*
X82649066Y-181022259D01*
X82778399Y-181206966D01*
X82778402Y-181206970D01*
X82781505Y-181211401D01*
X82948599Y-181378495D01*
X83142170Y-181514035D01*
X83356337Y-181613903D01*
X83584592Y-181675063D01*
X83820000Y-181695659D01*
X84055408Y-181675063D01*
X84283663Y-181613903D01*
X84497830Y-181514035D01*
X84691401Y-181378495D01*
X84858495Y-181211401D01*
X84941877Y-181092320D01*
X84988425Y-181025842D01*
X85032743Y-180986976D01*
X85090000Y-180972965D01*
X85147257Y-180986976D01*
X85191575Y-181025842D01*
X85318395Y-181206961D01*
X85318401Y-181206968D01*
X85321505Y-181211401D01*
X85488599Y-181378495D01*
X85682170Y-181514035D01*
X85896337Y-181613903D01*
X86124592Y-181675063D01*
X86360000Y-181695659D01*
X86595408Y-181675063D01*
X86823663Y-181613903D01*
X87037830Y-181514035D01*
X87231401Y-181378495D01*
X87398495Y-181211401D01*
X87534035Y-181017830D01*
X87633903Y-180803663D01*
X87695063Y-180575408D01*
X87715659Y-180340000D01*
X87695063Y-180104592D01*
X87633903Y-179876337D01*
X87534035Y-179662171D01*
X87398495Y-179468599D01*
X87231401Y-179301505D01*
X87226968Y-179298401D01*
X87226961Y-179298395D01*
X87045842Y-179171575D01*
X87006976Y-179127257D01*
X86992965Y-179070000D01*
X87006976Y-179012743D01*
X87045842Y-178968425D01*
X87226961Y-178841604D01*
X87226961Y-178841603D01*
X87231401Y-178838495D01*
X87398495Y-178671401D01*
X87534035Y-178477830D01*
X87633903Y-178263663D01*
X87695063Y-178035408D01*
X87715659Y-177800000D01*
X87695063Y-177564592D01*
X87633903Y-177336337D01*
X87534035Y-177122171D01*
X87398495Y-176928599D01*
X87231401Y-176761505D01*
X87226968Y-176758401D01*
X87226961Y-176758395D01*
X87045842Y-176631575D01*
X87006976Y-176587257D01*
X86992965Y-176530000D01*
X87006976Y-176472743D01*
X87045842Y-176428425D01*
X87226961Y-176301604D01*
X87226961Y-176301603D01*
X87231401Y-176298495D01*
X87398495Y-176131401D01*
X87534035Y-175937830D01*
X87633903Y-175723663D01*
X87695063Y-175495408D01*
X87715659Y-175260000D01*
X87695063Y-175024592D01*
X87633903Y-174796337D01*
X87534035Y-174582171D01*
X87398495Y-174388599D01*
X87231401Y-174221505D01*
X87226968Y-174218401D01*
X87226961Y-174218395D01*
X87045842Y-174091575D01*
X87006976Y-174047257D01*
X86992965Y-173990000D01*
X87006976Y-173932743D01*
X87045842Y-173888425D01*
X87226961Y-173761604D01*
X87226961Y-173761603D01*
X87231401Y-173758495D01*
X87398495Y-173591401D01*
X87534035Y-173397830D01*
X87633903Y-173183663D01*
X87695063Y-172955408D01*
X87715659Y-172720000D01*
X87695063Y-172484592D01*
X87633903Y-172256337D01*
X87534035Y-172042171D01*
X87425304Y-171886887D01*
X87404191Y-171833741D01*
X87409176Y-171776766D01*
X87439199Y-171728090D01*
X91827311Y-167339978D01*
X91835481Y-167332544D01*
X91841877Y-167328486D01*
X91887918Y-167279456D01*
X91890535Y-167276754D01*
X91910120Y-167257171D01*
X91912585Y-167253992D01*
X91920167Y-167245116D01*
X91950062Y-167213282D01*
X91959713Y-167195723D01*
X91970390Y-167179470D01*
X91982673Y-167163636D01*
X92000018Y-167123552D01*
X92005151Y-167113071D01*
X92026197Y-167074792D01*
X92031179Y-167055384D01*
X92037482Y-167036976D01*
X92045437Y-167018596D01*
X92052271Y-166975444D01*
X92054633Y-166964038D01*
X92065500Y-166921719D01*
X92065500Y-166901683D01*
X92067027Y-166882285D01*
X92068939Y-166870213D01*
X92068938Y-166870213D01*
X92070160Y-166862504D01*
X92066050Y-166819024D01*
X92065500Y-166807355D01*
X92065500Y-156154188D01*
X92079511Y-156096931D01*
X92118377Y-156052613D01*
X92148311Y-156031652D01*
X92279139Y-155940047D01*
X92440047Y-155779139D01*
X92552612Y-155618377D01*
X92596931Y-155579511D01*
X92654188Y-155565500D01*
X95305812Y-155565500D01*
X95363069Y-155579511D01*
X95407387Y-155618377D01*
X95467906Y-155704808D01*
X95519953Y-155779139D01*
X95680861Y-155940047D01*
X95867266Y-156070568D01*
X96073504Y-156166739D01*
X96078734Y-156168140D01*
X96078736Y-156168141D01*
X96254285Y-156215179D01*
X96293308Y-156225635D01*
X96520000Y-156245468D01*
X96746692Y-156225635D01*
X96966496Y-156166739D01*
X97172734Y-156070568D01*
X97359139Y-155940047D01*
X97486619Y-155812567D01*
X97535982Y-155782317D01*
X97593698Y-155777775D01*
X97647185Y-155799930D01*
X97684785Y-155843953D01*
X97698300Y-155900248D01*
X97698300Y-169366025D01*
X97697778Y-169377080D01*
X97696127Y-169384467D01*
X97696371Y-169392253D01*
X97696371Y-169392261D01*
X97698239Y-169451673D01*
X97698300Y-169455568D01*
X97698300Y-169483150D01*
X97698788Y-169487019D01*
X97698789Y-169487025D01*
X97698804Y-169487143D01*
X97699718Y-169498766D01*
X97700845Y-169534630D01*
X97700846Y-169534637D01*
X97701091Y-169542427D01*
X97703267Y-169549919D01*
X97703268Y-169549921D01*
X97706679Y-169561662D01*
X97710625Y-169580715D01*
X97713136Y-169600592D01*
X97716006Y-169607842D01*
X97716008Y-169607848D01*
X97729214Y-169641204D01*
X97732997Y-169652251D01*
X97745182Y-169694190D01*
X97749153Y-169700905D01*
X97749154Y-169700907D01*
X97755381Y-169711437D01*
X97763936Y-169728899D01*
X97768442Y-169740280D01*
X97768443Y-169740283D01*
X97771314Y-169747532D01*
X97776079Y-169754090D01*
X97796981Y-169782860D01*
X97803393Y-169792622D01*
X97821656Y-169823502D01*
X97821659Y-169823507D01*
X97825630Y-169830220D01*
X97831145Y-169835735D01*
X97839790Y-169844380D01*
X97852426Y-169859174D01*
X97859619Y-169869075D01*
X97859623Y-169869079D01*
X97864206Y-169875387D01*
X97870215Y-169880358D01*
X97870216Y-169880359D01*
X97897858Y-169903226D01*
X97906499Y-169911089D01*
X107879761Y-179884352D01*
X107911854Y-179939938D01*
X107911855Y-180004124D01*
X107886338Y-180099358D01*
X107886335Y-180099373D01*
X107884937Y-180104592D01*
X107884465Y-180109983D01*
X107884465Y-180109985D01*
X107874030Y-180229252D01*
X107864341Y-180340000D01*
X107864813Y-180345395D01*
X107870603Y-180411580D01*
X107884937Y-180575408D01*
X107886336Y-180580630D01*
X107886337Y-180580634D01*
X107944694Y-180798430D01*
X107944697Y-180798438D01*
X107946097Y-180803663D01*
X107948385Y-180808570D01*
X107948386Y-180808572D01*
X108043678Y-181012927D01*
X108043681Y-181012933D01*
X108045965Y-181017830D01*
X108049064Y-181022257D01*
X108049066Y-181022259D01*
X108178399Y-181206966D01*
X108178402Y-181206970D01*
X108181505Y-181211401D01*
X108348599Y-181378495D01*
X108542170Y-181514035D01*
X108756337Y-181613903D01*
X108984592Y-181675063D01*
X109220000Y-181695659D01*
X109455408Y-181675063D01*
X109683663Y-181613903D01*
X109897830Y-181514035D01*
X110091401Y-181378495D01*
X110258495Y-181211401D01*
X110341877Y-181092320D01*
X110388425Y-181025842D01*
X110432743Y-180986976D01*
X110490000Y-180972965D01*
X110547257Y-180986976D01*
X110591575Y-181025842D01*
X110718395Y-181206961D01*
X110718401Y-181206968D01*
X110721505Y-181211401D01*
X110888599Y-181378495D01*
X111082170Y-181514035D01*
X111296337Y-181613903D01*
X111524592Y-181675063D01*
X111760000Y-181695659D01*
X111995408Y-181675063D01*
X112223663Y-181613903D01*
X112437830Y-181514035D01*
X112631401Y-181378495D01*
X112669755Y-181340141D01*
X120414357Y-181340141D01*
X120414781Y-181345258D01*
X120434467Y-181582842D01*
X120434468Y-181582850D01*
X120434892Y-181587962D01*
X120436149Y-181592929D01*
X120436151Y-181592936D01*
X120482985Y-181777877D01*
X120495937Y-181829022D01*
X120497997Y-181833718D01*
X120593766Y-182052051D01*
X120593769Y-182052057D01*
X120595827Y-182056748D01*
X120598627Y-182061034D01*
X120598631Y-182061041D01*
X120720181Y-182247086D01*
X120731836Y-182264926D01*
X120735310Y-182268700D01*
X120735311Y-182268701D01*
X120896784Y-182444108D01*
X120896787Y-182444111D01*
X120900256Y-182447879D01*
X121096491Y-182600615D01*
X121315190Y-182718969D01*
X121550386Y-182799712D01*
X121795665Y-182840641D01*
X122039201Y-182840641D01*
X122044335Y-182840641D01*
X122289614Y-182799712D01*
X122524810Y-182718969D01*
X122743509Y-182600615D01*
X122939744Y-182447879D01*
X123108164Y-182264926D01*
X123244173Y-182056748D01*
X123344063Y-181829022D01*
X123405108Y-181587962D01*
X123425643Y-181340141D01*
X123405108Y-181092320D01*
X123344063Y-180851260D01*
X123244173Y-180623534D01*
X123238051Y-180614164D01*
X123172740Y-180514198D01*
X123108164Y-180415356D01*
X123104688Y-180411580D01*
X122943215Y-180236173D01*
X122943211Y-180236170D01*
X122939744Y-180232403D01*
X122743509Y-180079667D01*
X122738997Y-180077225D01*
X122529316Y-179963751D01*
X122529310Y-179963748D01*
X122524810Y-179961313D01*
X122519969Y-179959651D01*
X122519962Y-179959648D01*
X122294465Y-179882235D01*
X122294461Y-179882234D01*
X122289614Y-179880570D01*
X122264247Y-179876337D01*
X122049398Y-179840485D01*
X122049387Y-179840484D01*
X122044335Y-179839641D01*
X121795665Y-179839641D01*
X121790613Y-179840484D01*
X121790601Y-179840485D01*
X121555443Y-179879726D01*
X121555441Y-179879726D01*
X121550386Y-179880570D01*
X121545541Y-179882233D01*
X121545534Y-179882235D01*
X121320037Y-179959648D01*
X121320026Y-179959652D01*
X121315190Y-179961313D01*
X121310693Y-179963746D01*
X121310683Y-179963751D01*
X121101002Y-180077225D01*
X121100995Y-180077229D01*
X121096491Y-180079667D01*
X121092448Y-180082813D01*
X121092440Y-180082819D01*
X120904304Y-180229252D01*
X120900256Y-180232403D01*
X120896793Y-180236164D01*
X120896784Y-180236173D01*
X120735311Y-180411580D01*
X120735305Y-180411587D01*
X120731836Y-180415356D01*
X120729031Y-180419647D01*
X120729028Y-180419653D01*
X120598631Y-180619240D01*
X120598624Y-180619252D01*
X120595827Y-180623534D01*
X120593772Y-180628218D01*
X120593766Y-180628230D01*
X120497997Y-180846563D01*
X120495937Y-180851260D01*
X120494679Y-180856225D01*
X120494678Y-180856230D01*
X120436151Y-181087345D01*
X120436149Y-181087354D01*
X120434892Y-181092320D01*
X120434468Y-181097429D01*
X120434467Y-181097439D01*
X120424707Y-181215232D01*
X120414357Y-181340141D01*
X112669755Y-181340141D01*
X112798495Y-181211401D01*
X112934035Y-181017830D01*
X113033903Y-180803663D01*
X113095063Y-180575408D01*
X113115659Y-180340000D01*
X113095063Y-180104592D01*
X113033903Y-179876337D01*
X112934035Y-179662171D01*
X112798495Y-179468599D01*
X112631401Y-179301505D01*
X112626968Y-179298401D01*
X112626961Y-179298395D01*
X112445842Y-179171575D01*
X112406976Y-179127257D01*
X112392965Y-179070000D01*
X112406976Y-179012743D01*
X112445842Y-178968425D01*
X112626961Y-178841604D01*
X112626961Y-178841603D01*
X112631401Y-178838495D01*
X112798495Y-178671401D01*
X112934035Y-178477830D01*
X113033903Y-178263663D01*
X113095063Y-178035408D01*
X113115659Y-177800000D01*
X113095063Y-177564592D01*
X113033903Y-177336337D01*
X112934035Y-177122171D01*
X112798495Y-176928599D01*
X112631401Y-176761505D01*
X112626968Y-176758401D01*
X112626961Y-176758395D01*
X112445842Y-176631575D01*
X112406976Y-176587257D01*
X112392965Y-176530000D01*
X112406976Y-176472743D01*
X112445842Y-176428425D01*
X112626961Y-176301604D01*
X112626961Y-176301603D01*
X112631401Y-176298495D01*
X112798495Y-176131401D01*
X112934035Y-175937830D01*
X113033903Y-175723663D01*
X113095063Y-175495408D01*
X113115659Y-175260000D01*
X113095063Y-175024592D01*
X113033903Y-174796337D01*
X112934035Y-174582171D01*
X112798495Y-174388599D01*
X112631401Y-174221505D01*
X112626968Y-174218401D01*
X112626961Y-174218395D01*
X112445842Y-174091575D01*
X112406976Y-174047257D01*
X112392965Y-173990000D01*
X112406976Y-173932743D01*
X112445842Y-173888425D01*
X112626961Y-173761604D01*
X112626961Y-173761603D01*
X112631401Y-173758495D01*
X112798495Y-173591401D01*
X112934035Y-173397830D01*
X113033903Y-173183663D01*
X113095063Y-172955408D01*
X113115659Y-172720000D01*
X113095063Y-172484592D01*
X113033903Y-172256337D01*
X112934035Y-172042171D01*
X112798495Y-171848599D01*
X112631401Y-171681505D01*
X112626970Y-171678402D01*
X112626966Y-171678399D01*
X112445841Y-171551574D01*
X112406976Y-171507256D01*
X112392965Y-171449999D01*
X112406976Y-171392742D01*
X112445839Y-171348426D01*
X112631401Y-171218495D01*
X112798495Y-171051401D01*
X112934035Y-170857830D01*
X113033903Y-170643663D01*
X113095063Y-170415408D01*
X113115659Y-170180000D01*
X113095063Y-169944592D01*
X113033903Y-169716337D01*
X112934035Y-169502171D01*
X112798495Y-169308599D01*
X112631401Y-169141505D01*
X112626968Y-169138401D01*
X112626961Y-169138395D01*
X112445842Y-169011575D01*
X112406976Y-168967257D01*
X112392965Y-168910000D01*
X112406976Y-168852743D01*
X112445842Y-168808425D01*
X112626961Y-168681604D01*
X112626961Y-168681603D01*
X112631401Y-168678495D01*
X112798495Y-168511401D01*
X112934035Y-168317830D01*
X113033903Y-168103663D01*
X113095063Y-167875408D01*
X113115659Y-167640000D01*
X113095063Y-167404592D01*
X113033903Y-167176337D01*
X112934035Y-166962171D01*
X112798495Y-166768599D01*
X112631401Y-166601505D01*
X112626968Y-166598401D01*
X112626961Y-166598395D01*
X112445842Y-166471575D01*
X112406976Y-166427257D01*
X112392965Y-166370000D01*
X112406976Y-166312743D01*
X112445842Y-166268425D01*
X112626961Y-166141604D01*
X112626961Y-166141603D01*
X112631401Y-166138495D01*
X112798495Y-165971401D01*
X112934035Y-165777830D01*
X113033903Y-165563663D01*
X113095063Y-165335408D01*
X113115659Y-165100000D01*
X113095063Y-164864592D01*
X113033903Y-164636337D01*
X112934035Y-164422171D01*
X112798495Y-164228599D01*
X112631401Y-164061505D01*
X112626970Y-164058402D01*
X112626966Y-164058399D01*
X112445841Y-163931574D01*
X112406976Y-163887256D01*
X112392965Y-163829999D01*
X112406976Y-163772742D01*
X112445839Y-163728426D01*
X112631401Y-163598495D01*
X112798495Y-163431401D01*
X112934035Y-163237830D01*
X113033903Y-163023663D01*
X113095063Y-162795408D01*
X113115659Y-162560000D01*
X113095063Y-162324592D01*
X113033903Y-162096337D01*
X112934035Y-161882171D01*
X112798495Y-161688599D01*
X112631401Y-161521505D01*
X112626968Y-161518401D01*
X112626961Y-161518395D01*
X112445842Y-161391575D01*
X112406976Y-161347257D01*
X112392965Y-161290000D01*
X112406976Y-161232743D01*
X112445842Y-161188425D01*
X112626961Y-161061604D01*
X112626961Y-161061603D01*
X112631401Y-161058495D01*
X112798495Y-160891401D01*
X112934035Y-160697830D01*
X113033903Y-160483663D01*
X113095063Y-160255408D01*
X113115659Y-160020000D01*
X113107648Y-159928436D01*
X113117033Y-159869179D01*
X113153140Y-159821263D01*
X113207516Y-159795907D01*
X113267430Y-159799047D01*
X113318857Y-159829948D01*
X119253881Y-165764972D01*
X119280761Y-165805200D01*
X119290200Y-165852653D01*
X119290200Y-170896625D01*
X119289678Y-170907680D01*
X119288027Y-170915067D01*
X119288271Y-170922853D01*
X119288271Y-170922861D01*
X119290139Y-170982273D01*
X119290200Y-170986168D01*
X119290200Y-171013750D01*
X119290688Y-171017619D01*
X119290689Y-171017625D01*
X119290704Y-171017743D01*
X119291618Y-171029366D01*
X119292745Y-171065230D01*
X119292746Y-171065237D01*
X119292991Y-171073027D01*
X119295167Y-171080519D01*
X119295168Y-171080521D01*
X119298579Y-171092262D01*
X119302525Y-171111315D01*
X119305036Y-171131192D01*
X119307906Y-171138442D01*
X119307908Y-171138448D01*
X119321114Y-171171804D01*
X119324897Y-171182851D01*
X119337082Y-171224790D01*
X119341053Y-171231505D01*
X119341054Y-171231507D01*
X119347281Y-171242037D01*
X119355836Y-171259499D01*
X119360342Y-171270880D01*
X119360343Y-171270883D01*
X119363214Y-171278132D01*
X119385140Y-171308312D01*
X119388881Y-171313460D01*
X119395293Y-171323222D01*
X119413556Y-171354102D01*
X119413559Y-171354107D01*
X119417530Y-171360820D01*
X119423045Y-171366335D01*
X119431690Y-171374980D01*
X119444326Y-171389774D01*
X119451519Y-171399675D01*
X119451523Y-171399679D01*
X119456106Y-171405987D01*
X119462115Y-171410958D01*
X119462116Y-171410959D01*
X119489758Y-171433826D01*
X119498399Y-171441689D01*
X120270103Y-172213393D01*
X120299934Y-172261491D01*
X120305284Y-172317835D01*
X120285038Y-172370688D01*
X120243413Y-172409037D01*
X120193045Y-172423738D01*
X120193128Y-172424501D01*
X120141231Y-172430079D01*
X120141225Y-172430080D01*
X120133517Y-172430909D01*
X120126252Y-172433618D01*
X120126246Y-172433620D01*
X120006980Y-172478104D01*
X120006978Y-172478104D01*
X119998669Y-172481204D01*
X119991572Y-172486516D01*
X119991568Y-172486519D01*
X119890550Y-172562141D01*
X119890546Y-172562144D01*
X119883454Y-172567454D01*
X119878144Y-172574546D01*
X119878141Y-172574550D01*
X119802519Y-172675568D01*
X119802516Y-172675572D01*
X119797204Y-172682669D01*
X119794104Y-172690978D01*
X119794104Y-172690980D01*
X119749620Y-172810247D01*
X119749619Y-172810250D01*
X119746909Y-172817517D01*
X119746079Y-172825227D01*
X119746079Y-172825232D01*
X119740855Y-172873819D01*
X119740854Y-172873831D01*
X119740500Y-172877127D01*
X119740500Y-172880448D01*
X119740500Y-172880449D01*
X119740500Y-175569560D01*
X119740500Y-175569578D01*
X119740501Y-175572872D01*
X119740853Y-175576150D01*
X119740854Y-175576161D01*
X119746079Y-175624768D01*
X119746080Y-175624773D01*
X119746909Y-175632483D01*
X119749619Y-175639749D01*
X119749620Y-175639753D01*
X119778965Y-175718430D01*
X119797204Y-175767331D01*
X119883454Y-175882546D01*
X119998669Y-175968796D01*
X120133517Y-176019091D01*
X120193127Y-176025500D01*
X122888872Y-176025499D01*
X122948483Y-176019091D01*
X123083331Y-175968796D01*
X123198546Y-175882546D01*
X123284796Y-175767331D01*
X123335091Y-175632483D01*
X123341500Y-175572873D01*
X123341499Y-172877128D01*
X123335091Y-172817517D01*
X123284796Y-172682669D01*
X123198546Y-172567454D01*
X123083331Y-172481204D01*
X122948483Y-172430909D01*
X122940770Y-172430079D01*
X122940767Y-172430079D01*
X122892180Y-172424855D01*
X122892169Y-172424854D01*
X122888873Y-172424500D01*
X122885551Y-172424500D01*
X122232542Y-172424500D01*
X122185689Y-172415308D01*
X122145783Y-172389093D01*
X122120478Y-172352274D01*
X122119617Y-172349310D01*
X122115644Y-172342593D01*
X122115642Y-172342587D01*
X122109422Y-172332070D01*
X122100860Y-172314592D01*
X122096360Y-172303227D01*
X122096359Y-172303226D01*
X122093486Y-172295968D01*
X122067812Y-172260631D01*
X122061409Y-172250884D01*
X122039170Y-172213279D01*
X122025005Y-172199114D01*
X122012368Y-172184318D01*
X122005184Y-172174429D01*
X122005178Y-172174423D01*
X122000594Y-172168113D01*
X121966946Y-172140277D01*
X121958305Y-172132414D01*
X120902705Y-171076814D01*
X120870374Y-171020330D01*
X120871105Y-170955251D01*
X120904694Y-170899506D01*
X120961890Y-170868452D01*
X121026934Y-170870641D01*
X121139228Y-170905280D01*
X121406071Y-170945500D01*
X121671292Y-170945500D01*
X121675929Y-170945500D01*
X121942772Y-170905280D01*
X122200641Y-170825738D01*
X122443775Y-170708651D01*
X122666741Y-170556635D01*
X122864561Y-170373085D01*
X123032815Y-170162102D01*
X123167743Y-169928398D01*
X123266334Y-169677195D01*
X123326383Y-169414103D01*
X123346549Y-169145000D01*
X123326383Y-168875897D01*
X123266334Y-168612805D01*
X123167743Y-168361602D01*
X123032815Y-168127898D01*
X122864561Y-167916915D01*
X122694144Y-167758791D01*
X122670146Y-167736524D01*
X122670143Y-167736521D01*
X122666741Y-167733365D01*
X122662912Y-167730754D01*
X122662909Y-167730752D01*
X122447610Y-167583964D01*
X122443775Y-167581349D01*
X122388093Y-167554534D01*
X122204820Y-167466274D01*
X122204814Y-167466271D01*
X122200641Y-167464262D01*
X122196219Y-167462898D01*
X122196209Y-167462894D01*
X121947202Y-167386086D01*
X121947196Y-167386084D01*
X121942772Y-167384720D01*
X121938195Y-167384030D01*
X121938186Y-167384028D01*
X121680514Y-167345191D01*
X121680513Y-167345190D01*
X121675929Y-167344500D01*
X121406071Y-167344500D01*
X121401487Y-167345190D01*
X121401485Y-167345191D01*
X121143813Y-167384028D01*
X121143801Y-167384030D01*
X121139228Y-167384720D01*
X121134806Y-167386083D01*
X121134797Y-167386086D01*
X120885790Y-167462894D01*
X120885775Y-167462899D01*
X120881359Y-167464262D01*
X120877190Y-167466269D01*
X120877179Y-167466274D01*
X120719002Y-167542449D01*
X120658247Y-167554534D01*
X120599228Y-167535723D01*
X120556672Y-167490710D01*
X120541200Y-167430729D01*
X120541200Y-165619971D01*
X120541720Y-165608918D01*
X120543372Y-165601532D01*
X120541261Y-165534344D01*
X120541200Y-165530450D01*
X120541200Y-165506745D01*
X120541200Y-165502850D01*
X120540698Y-165498881D01*
X120539780Y-165487224D01*
X120538654Y-165451372D01*
X120538409Y-165443572D01*
X120532820Y-165424339D01*
X120528874Y-165405282D01*
X120527341Y-165393146D01*
X120526364Y-165385408D01*
X120510281Y-165344787D01*
X120506499Y-165333740D01*
X120496493Y-165299301D01*
X120494317Y-165291810D01*
X120490344Y-165285092D01*
X120484122Y-165274570D01*
X120475560Y-165257092D01*
X120471060Y-165245727D01*
X120471059Y-165245726D01*
X120468186Y-165238468D01*
X120442512Y-165203131D01*
X120436109Y-165193384D01*
X120413870Y-165155779D01*
X120399706Y-165141615D01*
X120387068Y-165126818D01*
X120379884Y-165116929D01*
X120379878Y-165116923D01*
X120375294Y-165110613D01*
X120341646Y-165082777D01*
X120333005Y-165074914D01*
X111712222Y-156454131D01*
X111678842Y-156393288D01*
X111683381Y-156324039D01*
X111724417Y-156268074D01*
X111789094Y-156242922D01*
X111986692Y-156225635D01*
X112206496Y-156166739D01*
X112412734Y-156070568D01*
X112599139Y-155940047D01*
X112760047Y-155779139D01*
X112872612Y-155618377D01*
X112916931Y-155579511D01*
X112974188Y-155565500D01*
X115560248Y-155565500D01*
X115607701Y-155574939D01*
X115647929Y-155601819D01*
X119418407Y-159372298D01*
X119425859Y-159380487D01*
X119429914Y-159386877D01*
X119478923Y-159432900D01*
X119481719Y-159435610D01*
X119501229Y-159455120D01*
X119504409Y-159457587D01*
X119513271Y-159465155D01*
X119526720Y-159477785D01*
X119539432Y-159489723D01*
X119539434Y-159489724D01*
X119545118Y-159495062D01*
X119551951Y-159498818D01*
X119551952Y-159498819D01*
X119562673Y-159504713D01*
X119578934Y-159515394D01*
X119594764Y-159527673D01*
X119634854Y-159545021D01*
X119645331Y-159550154D01*
X119676238Y-159567145D01*
X119723231Y-159612684D01*
X119740500Y-159675806D01*
X119740500Y-160329560D01*
X119740500Y-160329578D01*
X119740501Y-160332872D01*
X119740853Y-160336150D01*
X119740854Y-160336161D01*
X119746079Y-160384768D01*
X119746080Y-160384773D01*
X119746909Y-160392483D01*
X119749619Y-160399749D01*
X119749620Y-160399753D01*
X119778903Y-160478263D01*
X119797204Y-160527331D01*
X119883454Y-160642546D01*
X119998669Y-160728796D01*
X120133517Y-160779091D01*
X120193127Y-160785500D01*
X122888872Y-160785499D01*
X122948483Y-160779091D01*
X123083331Y-160728796D01*
X123198546Y-160642546D01*
X123284796Y-160527331D01*
X123335091Y-160392483D01*
X123341500Y-160332873D01*
X123341499Y-157637128D01*
X123335091Y-157577517D01*
X123284796Y-157442669D01*
X123198546Y-157327454D01*
X123083331Y-157241204D01*
X122948483Y-157190909D01*
X122940770Y-157190079D01*
X122940767Y-157190079D01*
X122892180Y-157184855D01*
X122892169Y-157184854D01*
X122888873Y-157184500D01*
X122885550Y-157184500D01*
X120196439Y-157184500D01*
X120196420Y-157184500D01*
X120193128Y-157184501D01*
X120189850Y-157184853D01*
X120189838Y-157184854D01*
X120141231Y-157190079D01*
X120141225Y-157190080D01*
X120133517Y-157190909D01*
X120126252Y-157193618D01*
X120126246Y-157193620D01*
X120006980Y-157238104D01*
X120006978Y-157238104D01*
X119998669Y-157241204D01*
X119991572Y-157246516D01*
X119991568Y-157246519D01*
X119890550Y-157322141D01*
X119890546Y-157322144D01*
X119883454Y-157327454D01*
X119878144Y-157334546D01*
X119878141Y-157334550D01*
X119802519Y-157435568D01*
X119802516Y-157435572D01*
X119797204Y-157442669D01*
X119794104Y-157450978D01*
X119794104Y-157450980D01*
X119749620Y-157570247D01*
X119749619Y-157570250D01*
X119746909Y-157577517D01*
X119746079Y-157585227D01*
X119746079Y-157585232D01*
X119740500Y-157637127D01*
X119739735Y-157637044D01*
X119725040Y-157687407D01*
X119686691Y-157729034D01*
X119633838Y-157749283D01*
X119577492Y-157743934D01*
X119529393Y-157714102D01*
X116367986Y-154552695D01*
X116360542Y-154544514D01*
X116356486Y-154538123D01*
X116307475Y-154492098D01*
X116304678Y-154489387D01*
X116287927Y-154472636D01*
X116285171Y-154469880D01*
X116281990Y-154467412D01*
X116273114Y-154459830D01*
X116246969Y-154435278D01*
X116246967Y-154435276D01*
X116241282Y-154429938D01*
X116234449Y-154426182D01*
X116234443Y-154426177D01*
X116223725Y-154420285D01*
X116207466Y-154409606D01*
X116197795Y-154402104D01*
X116197792Y-154402102D01*
X116191636Y-154397327D01*
X116184479Y-154394229D01*
X116184476Y-154394228D01*
X116151549Y-154379978D01*
X116141063Y-154374841D01*
X116109632Y-154357562D01*
X116109623Y-154357558D01*
X116102792Y-154353803D01*
X116095235Y-154351862D01*
X116095231Y-154351861D01*
X116083388Y-154348820D01*
X116064984Y-154342519D01*
X116053757Y-154337660D01*
X116053750Y-154337658D01*
X116046596Y-154334562D01*
X116038892Y-154333341D01*
X116038890Y-154333341D01*
X116003459Y-154327729D01*
X115992024Y-154325361D01*
X115957271Y-154316438D01*
X115957263Y-154316437D01*
X115949719Y-154314500D01*
X115941923Y-154314500D01*
X115929683Y-154314500D01*
X115910297Y-154312974D01*
X115890504Y-154309840D01*
X115882738Y-154310574D01*
X115882735Y-154310574D01*
X115847024Y-154313950D01*
X115835355Y-154314500D01*
X112974188Y-154314500D01*
X112916931Y-154300489D01*
X112872613Y-154261623D01*
X112763152Y-154105296D01*
X112760047Y-154100861D01*
X112599139Y-153939953D01*
X112549220Y-153905000D01*
X119735451Y-153905000D01*
X119735798Y-153909631D01*
X119750460Y-154105296D01*
X119755617Y-154174103D01*
X119756647Y-154178616D01*
X119756648Y-154178622D01*
X119814632Y-154432666D01*
X119815666Y-154437195D01*
X119817362Y-154441518D01*
X119817363Y-154441519D01*
X119892173Y-154632131D01*
X119914257Y-154688398D01*
X120049185Y-154922102D01*
X120217439Y-155133085D01*
X120415259Y-155316635D01*
X120638226Y-155468651D01*
X120881359Y-155585738D01*
X120885787Y-155587103D01*
X120885790Y-155587105D01*
X120888118Y-155587823D01*
X121139228Y-155665280D01*
X121406071Y-155705500D01*
X121671292Y-155705500D01*
X121675929Y-155705500D01*
X121942772Y-155665280D01*
X122200641Y-155585738D01*
X122443775Y-155468651D01*
X122666741Y-155316635D01*
X122864561Y-155133085D01*
X123032815Y-154922102D01*
X123167743Y-154688398D01*
X123266334Y-154437195D01*
X123326383Y-154174103D01*
X123346549Y-153905000D01*
X123326383Y-153635897D01*
X123266334Y-153372805D01*
X123167743Y-153121602D01*
X123032815Y-152887898D01*
X122864561Y-152676915D01*
X122666741Y-152493365D01*
X122662912Y-152490754D01*
X122662909Y-152490752D01*
X122447610Y-152343964D01*
X122443775Y-152341349D01*
X122360866Y-152301422D01*
X122204820Y-152226274D01*
X122204814Y-152226271D01*
X122200641Y-152224262D01*
X122196219Y-152222898D01*
X122196209Y-152222894D01*
X121947202Y-152146086D01*
X121947196Y-152146084D01*
X121942772Y-152144720D01*
X121938195Y-152144030D01*
X121938186Y-152144028D01*
X121680514Y-152105191D01*
X121680513Y-152105190D01*
X121675929Y-152104500D01*
X121406071Y-152104500D01*
X121401487Y-152105190D01*
X121401485Y-152105191D01*
X121143813Y-152144028D01*
X121143801Y-152144030D01*
X121139228Y-152144720D01*
X121134806Y-152146083D01*
X121134797Y-152146086D01*
X120885790Y-152222894D01*
X120885775Y-152222899D01*
X120881359Y-152224262D01*
X120877185Y-152226271D01*
X120877180Y-152226274D01*
X120642411Y-152339333D01*
X120642404Y-152339336D01*
X120638226Y-152341349D01*
X120634393Y-152343962D01*
X120634390Y-152343964D01*
X120419090Y-152490752D01*
X120419080Y-152490759D01*
X120415259Y-152493365D01*
X120411863Y-152496516D01*
X120411853Y-152496524D01*
X120220843Y-152673756D01*
X120220839Y-152673759D01*
X120217439Y-152676915D01*
X120214549Y-152680537D01*
X120214546Y-152680542D01*
X120052077Y-152884271D01*
X120049185Y-152887898D01*
X120046866Y-152891913D01*
X120046865Y-152891916D01*
X119916578Y-153117581D01*
X119916575Y-153117586D01*
X119914257Y-153121602D01*
X119912563Y-153125916D01*
X119912561Y-153125922D01*
X119834986Y-153323578D01*
X119815666Y-153372805D01*
X119814633Y-153377326D01*
X119814632Y-153377333D01*
X119756648Y-153631377D01*
X119756646Y-153631385D01*
X119755617Y-153635897D01*
X119755270Y-153640516D01*
X119755270Y-153640522D01*
X119742392Y-153812370D01*
X119735451Y-153905000D01*
X112549220Y-153905000D01*
X112412734Y-153809432D01*
X112206496Y-153713261D01*
X112201271Y-153711861D01*
X112201263Y-153711858D01*
X111991916Y-153655764D01*
X111991907Y-153655762D01*
X111986692Y-153654365D01*
X111981304Y-153653893D01*
X111981301Y-153653893D01*
X111765395Y-153635004D01*
X111760000Y-153634532D01*
X111754605Y-153635004D01*
X111538698Y-153653893D01*
X111538693Y-153653893D01*
X111533308Y-153654365D01*
X111528094Y-153655762D01*
X111528083Y-153655764D01*
X111318736Y-153711858D01*
X111318724Y-153711862D01*
X111313504Y-153713261D01*
X111308599Y-153715547D01*
X111308594Y-153715550D01*
X111112176Y-153807142D01*
X111112172Y-153807144D01*
X111107266Y-153809432D01*
X111102833Y-153812535D01*
X111102826Y-153812540D01*
X110925296Y-153936847D01*
X110925291Y-153936850D01*
X110920861Y-153939953D01*
X110917037Y-153943776D01*
X110917031Y-153943782D01*
X110763782Y-154097031D01*
X110763776Y-154097037D01*
X110759953Y-154100861D01*
X110756850Y-154105291D01*
X110756847Y-154105296D01*
X110632540Y-154282826D01*
X110632535Y-154282833D01*
X110629432Y-154287266D01*
X110627144Y-154292172D01*
X110627142Y-154292176D01*
X110535550Y-154488594D01*
X110535547Y-154488599D01*
X110533261Y-154493504D01*
X110531862Y-154498724D01*
X110531858Y-154498736D01*
X110475764Y-154708083D01*
X110475762Y-154708094D01*
X110474365Y-154713308D01*
X110473894Y-154718691D01*
X110473893Y-154718697D01*
X110457077Y-154910904D01*
X110431925Y-154975583D01*
X110375959Y-155016618D01*
X110306710Y-155021157D01*
X110245868Y-154987777D01*
X107341819Y-152083728D01*
X107314939Y-152043500D01*
X107305500Y-151996047D01*
X107305500Y-140914188D01*
X107319511Y-140856931D01*
X107358377Y-140812613D01*
X107388311Y-140791652D01*
X107519139Y-140700047D01*
X107680047Y-140539139D01*
X107810568Y-140352734D01*
X107906739Y-140146496D01*
X107958706Y-139952551D01*
X110484452Y-139952551D01*
X110484820Y-139963780D01*
X110532330Y-140141092D01*
X110536022Y-140151234D01*
X110627579Y-140347580D01*
X110632967Y-140356912D01*
X110757232Y-140534381D01*
X110764169Y-140542647D01*
X110917352Y-140695830D01*
X110925618Y-140702767D01*
X111103087Y-140827032D01*
X111112419Y-140832420D01*
X111308765Y-140923977D01*
X111318907Y-140927669D01*
X111496219Y-140975179D01*
X111507448Y-140975547D01*
X111510000Y-140964605D01*
X112010000Y-140964605D01*
X112012551Y-140975547D01*
X112023780Y-140975179D01*
X112201092Y-140927669D01*
X112211234Y-140923977D01*
X112407580Y-140832420D01*
X112416912Y-140827032D01*
X112594381Y-140702767D01*
X112602647Y-140695830D01*
X112755830Y-140542647D01*
X112762767Y-140534381D01*
X112887032Y-140356912D01*
X112892420Y-140347580D01*
X112983977Y-140151234D01*
X112987669Y-140141092D01*
X113035179Y-139963780D01*
X113035547Y-139952551D01*
X113024605Y-139950000D01*
X112026326Y-139950000D01*
X112013450Y-139953450D01*
X112010000Y-139966326D01*
X112010000Y-140964605D01*
X111510000Y-140964605D01*
X111510000Y-139966326D01*
X111506549Y-139953450D01*
X111493674Y-139950000D01*
X110495395Y-139950000D01*
X110484452Y-139952551D01*
X107958706Y-139952551D01*
X107965635Y-139926692D01*
X107985468Y-139700000D01*
X107965635Y-139473308D01*
X107958706Y-139447448D01*
X110484452Y-139447448D01*
X110495395Y-139450000D01*
X111493674Y-139450000D01*
X111506549Y-139446549D01*
X111510000Y-139433674D01*
X112010000Y-139433674D01*
X112013450Y-139446549D01*
X112026326Y-139450000D01*
X113024605Y-139450000D01*
X113035547Y-139447448D01*
X113035179Y-139436219D01*
X112987669Y-139258907D01*
X112983977Y-139248765D01*
X112892420Y-139052419D01*
X112887032Y-139043087D01*
X112762767Y-138865618D01*
X112755830Y-138857352D01*
X112602647Y-138704169D01*
X112594381Y-138697232D01*
X112416912Y-138572967D01*
X112407580Y-138567579D01*
X112211234Y-138476022D01*
X112201092Y-138472330D01*
X112023780Y-138424820D01*
X112012551Y-138424452D01*
X112010000Y-138435395D01*
X112010000Y-139433674D01*
X111510000Y-139433674D01*
X111510000Y-138435395D01*
X111507448Y-138424452D01*
X111496219Y-138424820D01*
X111318907Y-138472330D01*
X111308765Y-138476022D01*
X111112419Y-138567579D01*
X111103087Y-138572967D01*
X110925618Y-138697232D01*
X110917352Y-138704169D01*
X110764169Y-138857352D01*
X110757232Y-138865618D01*
X110632967Y-139043087D01*
X110627579Y-139052419D01*
X110536022Y-139248765D01*
X110532330Y-139258907D01*
X110484820Y-139436219D01*
X110484452Y-139447448D01*
X107958706Y-139447448D01*
X107920283Y-139304052D01*
X107908141Y-139258736D01*
X107908140Y-139258734D01*
X107906739Y-139253504D01*
X107810568Y-139047266D01*
X107680047Y-138860861D01*
X107519139Y-138699953D01*
X107332734Y-138569432D01*
X107327821Y-138567141D01*
X107300789Y-138554535D01*
X107254819Y-138517639D01*
X107231080Y-138463685D01*
X107234935Y-138404866D01*
X107265513Y-138354475D01*
X110338171Y-135281819D01*
X110378400Y-135254939D01*
X110425853Y-135245500D01*
X110545812Y-135245500D01*
X110603069Y-135259511D01*
X110647387Y-135298377D01*
X110759953Y-135459139D01*
X110920861Y-135620047D01*
X111107266Y-135750568D01*
X111313504Y-135846739D01*
X111318734Y-135848140D01*
X111318736Y-135848141D01*
X111464951Y-135887319D01*
X111533308Y-135905635D01*
X111760000Y-135925468D01*
X111986692Y-135905635D01*
X112206496Y-135846739D01*
X112412734Y-135750568D01*
X112599139Y-135620047D01*
X112760047Y-135459139D01*
X112890568Y-135272734D01*
X112986739Y-135066496D01*
X113045635Y-134846692D01*
X113049632Y-134801004D01*
X113074784Y-134736326D01*
X113130749Y-134695290D01*
X113199998Y-134690751D01*
X113260841Y-134724131D01*
X120270102Y-141733393D01*
X120299933Y-141781490D01*
X120305283Y-141837834D01*
X120285037Y-141890686D01*
X120243414Y-141929036D01*
X120193046Y-141943738D01*
X120193128Y-141944501D01*
X120141231Y-141950079D01*
X120141225Y-141950080D01*
X120133517Y-141950909D01*
X120126252Y-141953618D01*
X120126246Y-141953620D01*
X120006980Y-141998104D01*
X120006978Y-141998104D01*
X119998669Y-142001204D01*
X119991572Y-142006516D01*
X119991568Y-142006519D01*
X119890550Y-142082141D01*
X119890546Y-142082144D01*
X119883454Y-142087454D01*
X119878144Y-142094546D01*
X119878141Y-142094550D01*
X119802519Y-142195568D01*
X119802516Y-142195572D01*
X119797204Y-142202669D01*
X119794104Y-142210978D01*
X119794104Y-142210980D01*
X119749620Y-142330247D01*
X119749619Y-142330250D01*
X119746909Y-142337517D01*
X119746079Y-142345227D01*
X119746079Y-142345232D01*
X119740855Y-142393819D01*
X119740854Y-142393831D01*
X119740500Y-142397127D01*
X119740500Y-142400448D01*
X119740500Y-142400449D01*
X119740500Y-145089560D01*
X119740500Y-145089578D01*
X119740501Y-145092872D01*
X119740853Y-145096150D01*
X119740854Y-145096161D01*
X119746079Y-145144768D01*
X119746080Y-145144773D01*
X119746909Y-145152483D01*
X119749619Y-145159749D01*
X119749620Y-145159753D01*
X119783217Y-145249831D01*
X119797204Y-145287331D01*
X119883454Y-145402546D01*
X119998669Y-145488796D01*
X120133517Y-145539091D01*
X120193127Y-145545500D01*
X122888872Y-145545499D01*
X122948483Y-145539091D01*
X123083331Y-145488796D01*
X123198546Y-145402546D01*
X123284796Y-145287331D01*
X123335091Y-145152483D01*
X123341500Y-145092873D01*
X123341499Y-142397128D01*
X123335091Y-142337517D01*
X123284796Y-142202669D01*
X123198546Y-142087454D01*
X123083331Y-142001204D01*
X122948483Y-141950909D01*
X122940770Y-141950079D01*
X122940767Y-141950079D01*
X122892180Y-141944855D01*
X122892169Y-141944854D01*
X122888873Y-141944500D01*
X122885551Y-141944500D01*
X122232543Y-141944500D01*
X122185690Y-141935308D01*
X122145784Y-141909094D01*
X122120479Y-141872274D01*
X122119618Y-141869310D01*
X122109421Y-141852068D01*
X122100858Y-141834590D01*
X122093486Y-141815968D01*
X122088902Y-141809659D01*
X122088899Y-141809653D01*
X122067817Y-141780637D01*
X122061401Y-141770870D01*
X122043143Y-141739996D01*
X122043140Y-141739992D01*
X122039170Y-141733279D01*
X122025006Y-141719115D01*
X122012368Y-141704318D01*
X122005184Y-141694429D01*
X122005178Y-141694423D01*
X122000594Y-141688113D01*
X121966946Y-141660277D01*
X121958305Y-141652414D01*
X120902705Y-140596814D01*
X120870374Y-140540330D01*
X120871105Y-140475251D01*
X120904694Y-140419506D01*
X120961890Y-140388452D01*
X121026934Y-140390641D01*
X121139228Y-140425280D01*
X121406071Y-140465500D01*
X121671292Y-140465500D01*
X121675929Y-140465500D01*
X121942772Y-140425280D01*
X122200641Y-140345738D01*
X122443775Y-140228651D01*
X122666741Y-140076635D01*
X122864561Y-139893085D01*
X123032815Y-139682102D01*
X123167743Y-139448398D01*
X123266334Y-139197195D01*
X123326383Y-138934103D01*
X123346549Y-138665000D01*
X123326383Y-138395897D01*
X123266334Y-138132805D01*
X123167743Y-137881602D01*
X123032815Y-137647898D01*
X122864561Y-137436915D01*
X122666741Y-137253365D01*
X122662912Y-137250754D01*
X122662909Y-137250752D01*
X122447610Y-137103964D01*
X122443775Y-137101349D01*
X122439589Y-137099333D01*
X122204820Y-136986274D01*
X122204814Y-136986271D01*
X122200641Y-136984262D01*
X122196219Y-136982898D01*
X122196209Y-136982894D01*
X121947202Y-136906086D01*
X121947196Y-136906084D01*
X121942772Y-136904720D01*
X121938195Y-136904030D01*
X121938186Y-136904028D01*
X121680514Y-136865191D01*
X121680513Y-136865190D01*
X121675929Y-136864500D01*
X121406071Y-136864500D01*
X121401487Y-136865190D01*
X121401485Y-136865191D01*
X121143813Y-136904028D01*
X121143801Y-136904030D01*
X121139228Y-136904720D01*
X121134806Y-136906083D01*
X121134797Y-136906086D01*
X120885790Y-136982894D01*
X120885775Y-136982899D01*
X120881359Y-136984262D01*
X120877185Y-136986271D01*
X120877180Y-136986274D01*
X120642411Y-137099333D01*
X120642404Y-137099336D01*
X120638226Y-137101349D01*
X120634393Y-137103962D01*
X120634390Y-137103964D01*
X120419090Y-137250752D01*
X120419080Y-137250759D01*
X120415259Y-137253365D01*
X120411863Y-137256516D01*
X120411853Y-137256524D01*
X120220843Y-137433756D01*
X120220839Y-137433759D01*
X120217439Y-137436915D01*
X120214549Y-137440537D01*
X120214546Y-137440542D01*
X120052077Y-137644271D01*
X120049185Y-137647898D01*
X120046866Y-137651913D01*
X120046865Y-137651916D01*
X119916578Y-137877581D01*
X119916575Y-137877586D01*
X119914257Y-137881602D01*
X119912563Y-137885916D01*
X119912561Y-137885922D01*
X119817363Y-138128480D01*
X119815666Y-138132805D01*
X119814633Y-138137326D01*
X119814632Y-138137333D01*
X119756648Y-138391377D01*
X119756646Y-138391385D01*
X119755617Y-138395897D01*
X119755270Y-138400516D01*
X119755270Y-138400522D01*
X119742380Y-138572540D01*
X119735451Y-138665000D01*
X119735798Y-138669631D01*
X119754629Y-138920926D01*
X119755617Y-138934103D01*
X119756647Y-138938616D01*
X119756648Y-138938622D01*
X119812334Y-139182597D01*
X119810204Y-139245852D01*
X119777135Y-139299817D01*
X119721741Y-139330432D01*
X119658454Y-139329721D01*
X119603762Y-139297871D01*
X110155469Y-129849578D01*
X119740500Y-129849578D01*
X119740501Y-129852872D01*
X119740853Y-129856150D01*
X119740854Y-129856161D01*
X119746079Y-129904768D01*
X119746080Y-129904773D01*
X119746909Y-129912483D01*
X119749619Y-129919749D01*
X119749620Y-129919753D01*
X119783217Y-130009831D01*
X119797204Y-130047331D01*
X119883454Y-130162546D01*
X119998669Y-130248796D01*
X120133517Y-130299091D01*
X120193127Y-130305500D01*
X122888872Y-130305499D01*
X122948483Y-130299091D01*
X123083331Y-130248796D01*
X123198546Y-130162546D01*
X123284796Y-130047331D01*
X123335091Y-129912483D01*
X123341500Y-129852873D01*
X123341499Y-127157128D01*
X123335091Y-127097517D01*
X123284796Y-126962669D01*
X123198546Y-126847454D01*
X123083331Y-126761204D01*
X122948483Y-126710909D01*
X122940770Y-126710079D01*
X122940767Y-126710079D01*
X122892180Y-126704855D01*
X122892169Y-126704854D01*
X122888873Y-126704500D01*
X122885550Y-126704500D01*
X120196439Y-126704500D01*
X120196420Y-126704500D01*
X120193128Y-126704501D01*
X120189850Y-126704853D01*
X120189838Y-126704854D01*
X120141231Y-126710079D01*
X120141225Y-126710080D01*
X120133517Y-126710909D01*
X120126252Y-126713618D01*
X120126246Y-126713620D01*
X120006980Y-126758104D01*
X120006978Y-126758104D01*
X119998669Y-126761204D01*
X119991572Y-126766516D01*
X119991568Y-126766519D01*
X119890550Y-126842141D01*
X119890546Y-126842144D01*
X119883454Y-126847454D01*
X119878144Y-126854546D01*
X119878141Y-126854550D01*
X119802519Y-126955568D01*
X119802516Y-126955572D01*
X119797204Y-126962669D01*
X119794104Y-126970978D01*
X119794104Y-126970980D01*
X119749620Y-127090247D01*
X119749619Y-127090250D01*
X119746909Y-127097517D01*
X119746079Y-127105227D01*
X119746079Y-127105232D01*
X119740855Y-127153819D01*
X119740854Y-127153831D01*
X119740500Y-127157127D01*
X119740500Y-127160448D01*
X119740500Y-127160449D01*
X119740500Y-129849560D01*
X119740500Y-129849578D01*
X110155469Y-129849578D01*
X103730891Y-123425000D01*
X119735451Y-123425000D01*
X119735798Y-123429631D01*
X119754645Y-123681143D01*
X119755617Y-123694103D01*
X119756647Y-123698616D01*
X119756648Y-123698622D01*
X119810026Y-123932484D01*
X119815666Y-123957195D01*
X119914257Y-124208398D01*
X120049185Y-124442102D01*
X120217439Y-124653085D01*
X120415259Y-124836635D01*
X120638226Y-124988651D01*
X120881359Y-125105738D01*
X120885787Y-125107103D01*
X120885790Y-125107105D01*
X121010293Y-125145508D01*
X121139228Y-125185280D01*
X121406071Y-125225500D01*
X121671292Y-125225500D01*
X121675929Y-125225500D01*
X121942772Y-125185280D01*
X122200641Y-125105738D01*
X122443775Y-124988651D01*
X122666741Y-124836635D01*
X122864561Y-124653085D01*
X123032815Y-124442102D01*
X123167743Y-124208398D01*
X123266334Y-123957195D01*
X123326383Y-123694103D01*
X123346549Y-123425000D01*
X123326383Y-123155897D01*
X123266334Y-122892805D01*
X123167743Y-122641602D01*
X123032815Y-122407898D01*
X122864561Y-122196915D01*
X122666741Y-122013365D01*
X122662912Y-122010754D01*
X122662909Y-122010752D01*
X122447610Y-121863964D01*
X122443775Y-121861349D01*
X122439589Y-121859333D01*
X122204820Y-121746274D01*
X122204814Y-121746271D01*
X122200641Y-121744262D01*
X122196219Y-121742898D01*
X122196209Y-121742894D01*
X121947202Y-121666086D01*
X121947196Y-121666084D01*
X121942772Y-121664720D01*
X121938195Y-121664030D01*
X121938186Y-121664028D01*
X121680514Y-121625191D01*
X121680513Y-121625190D01*
X121675929Y-121624500D01*
X121406071Y-121624500D01*
X121401487Y-121625190D01*
X121401485Y-121625191D01*
X121143813Y-121664028D01*
X121143801Y-121664030D01*
X121139228Y-121664720D01*
X121134806Y-121666083D01*
X121134797Y-121666086D01*
X120885790Y-121742894D01*
X120885775Y-121742899D01*
X120881359Y-121744262D01*
X120877185Y-121746271D01*
X120877180Y-121746274D01*
X120642411Y-121859333D01*
X120642404Y-121859336D01*
X120638226Y-121861349D01*
X120634393Y-121863962D01*
X120634390Y-121863964D01*
X120419090Y-122010752D01*
X120419080Y-122010759D01*
X120415259Y-122013365D01*
X120411863Y-122016516D01*
X120411853Y-122016524D01*
X120220843Y-122193756D01*
X120220839Y-122193759D01*
X120217439Y-122196915D01*
X120214549Y-122200537D01*
X120214546Y-122200542D01*
X120062124Y-122391673D01*
X120049185Y-122407898D01*
X120046866Y-122411913D01*
X120046865Y-122411916D01*
X119916578Y-122637581D01*
X119916575Y-122637586D01*
X119914257Y-122641602D01*
X119912563Y-122645916D01*
X119912561Y-122645922D01*
X119817363Y-122888480D01*
X119815666Y-122892805D01*
X119814633Y-122897326D01*
X119814632Y-122897333D01*
X119756648Y-123151377D01*
X119756646Y-123151385D01*
X119755617Y-123155897D01*
X119755270Y-123160516D01*
X119755270Y-123160522D01*
X119736318Y-123413427D01*
X119735451Y-123425000D01*
X103730891Y-123425000D01*
X101150987Y-120845096D01*
X101118893Y-120789509D01*
X101118893Y-120725321D01*
X101150987Y-120669734D01*
X101206574Y-120637640D01*
X101270762Y-120637640D01*
X101336220Y-120655179D01*
X101347448Y-120655547D01*
X101350000Y-120644605D01*
X101850000Y-120644605D01*
X101852551Y-120655547D01*
X101863780Y-120655179D01*
X102041092Y-120607669D01*
X102051234Y-120603977D01*
X102247580Y-120512420D01*
X102256912Y-120507032D01*
X102434381Y-120382767D01*
X102442647Y-120375830D01*
X102595830Y-120222647D01*
X102602767Y-120214381D01*
X102727032Y-120036912D01*
X102732420Y-120027580D01*
X102823977Y-119831234D01*
X102827669Y-119821092D01*
X102875179Y-119643780D01*
X102875547Y-119632551D01*
X102864605Y-119630000D01*
X101866326Y-119630000D01*
X101853450Y-119633450D01*
X101850000Y-119646326D01*
X101850000Y-120644605D01*
X101350000Y-120644605D01*
X101350000Y-119646326D01*
X101346549Y-119633450D01*
X101333674Y-119630000D01*
X100335395Y-119630000D01*
X100324452Y-119632551D01*
X100324820Y-119643782D01*
X100342359Y-119709239D01*
X100342359Y-119773425D01*
X100310265Y-119829013D01*
X100254677Y-119861106D01*
X100190490Y-119861106D01*
X100134903Y-119829012D01*
X99685891Y-119380000D01*
X105374532Y-119380000D01*
X105394365Y-119606692D01*
X105395762Y-119611907D01*
X105395764Y-119611916D01*
X105451858Y-119821263D01*
X105451861Y-119821271D01*
X105453261Y-119826496D01*
X105549432Y-120032734D01*
X105679953Y-120219139D01*
X105840861Y-120380047D01*
X106027266Y-120510568D01*
X106233504Y-120606739D01*
X106238734Y-120608140D01*
X106238736Y-120608141D01*
X106396256Y-120650348D01*
X106453308Y-120665635D01*
X106680000Y-120685468D01*
X106906692Y-120665635D01*
X107126496Y-120606739D01*
X107332734Y-120510568D01*
X107519139Y-120380047D01*
X107680047Y-120219139D01*
X107810568Y-120032734D01*
X107906739Y-119826496D01*
X107965635Y-119606692D01*
X107985468Y-119380000D01*
X110454532Y-119380000D01*
X110474365Y-119606692D01*
X110475762Y-119611907D01*
X110475764Y-119611916D01*
X110531858Y-119821263D01*
X110531861Y-119821271D01*
X110533261Y-119826496D01*
X110629432Y-120032734D01*
X110759953Y-120219139D01*
X110920861Y-120380047D01*
X111107266Y-120510568D01*
X111313504Y-120606739D01*
X111318734Y-120608140D01*
X111318736Y-120608141D01*
X111476256Y-120650348D01*
X111533308Y-120665635D01*
X111760000Y-120685468D01*
X111986692Y-120665635D01*
X112206496Y-120606739D01*
X112412734Y-120510568D01*
X112599139Y-120380047D01*
X112760047Y-120219139D01*
X112890568Y-120032734D01*
X112986739Y-119826496D01*
X113045635Y-119606692D01*
X113065468Y-119380000D01*
X113045635Y-119153308D01*
X112986739Y-118933504D01*
X112890568Y-118727266D01*
X112760047Y-118540861D01*
X112599139Y-118379953D01*
X112412734Y-118249432D01*
X112348145Y-118219313D01*
X112211405Y-118155550D01*
X112211403Y-118155549D01*
X112206496Y-118153261D01*
X112201271Y-118151861D01*
X112201263Y-118151858D01*
X111991916Y-118095764D01*
X111991907Y-118095762D01*
X111986692Y-118094365D01*
X111981304Y-118093893D01*
X111981301Y-118093893D01*
X111765395Y-118075004D01*
X111760000Y-118074532D01*
X111754605Y-118075004D01*
X111538698Y-118093893D01*
X111538693Y-118093893D01*
X111533308Y-118094365D01*
X111528094Y-118095762D01*
X111528083Y-118095764D01*
X111318736Y-118151858D01*
X111318724Y-118151862D01*
X111313504Y-118153261D01*
X111308599Y-118155547D01*
X111308594Y-118155550D01*
X111112176Y-118247142D01*
X111112172Y-118247144D01*
X111107266Y-118249432D01*
X111102833Y-118252535D01*
X111102826Y-118252540D01*
X110925296Y-118376847D01*
X110925291Y-118376850D01*
X110920861Y-118379953D01*
X110917037Y-118383776D01*
X110917031Y-118383782D01*
X110763782Y-118537031D01*
X110763776Y-118537037D01*
X110759953Y-118540861D01*
X110756850Y-118545291D01*
X110756847Y-118545296D01*
X110632540Y-118722826D01*
X110632535Y-118722833D01*
X110629432Y-118727266D01*
X110627144Y-118732172D01*
X110627142Y-118732176D01*
X110535550Y-118928594D01*
X110535547Y-118928599D01*
X110533261Y-118933504D01*
X110531862Y-118938724D01*
X110531858Y-118938736D01*
X110475764Y-119148083D01*
X110475762Y-119148094D01*
X110474365Y-119153308D01*
X110454532Y-119380000D01*
X107985468Y-119380000D01*
X107965635Y-119153308D01*
X107906739Y-118933504D01*
X107810568Y-118727266D01*
X107680047Y-118540861D01*
X107519139Y-118379953D01*
X107332734Y-118249432D01*
X107268145Y-118219313D01*
X107131405Y-118155550D01*
X107131403Y-118155549D01*
X107126496Y-118153261D01*
X107121271Y-118151861D01*
X107121263Y-118151858D01*
X106911916Y-118095764D01*
X106911907Y-118095762D01*
X106906692Y-118094365D01*
X106901304Y-118093893D01*
X106901301Y-118093893D01*
X106685395Y-118075004D01*
X106680000Y-118074532D01*
X106674605Y-118075004D01*
X106458698Y-118093893D01*
X106458693Y-118093893D01*
X106453308Y-118094365D01*
X106448094Y-118095762D01*
X106448083Y-118095764D01*
X106238736Y-118151858D01*
X106238724Y-118151862D01*
X106233504Y-118153261D01*
X106228599Y-118155547D01*
X106228594Y-118155550D01*
X106032176Y-118247142D01*
X106032172Y-118247144D01*
X106027266Y-118249432D01*
X106022833Y-118252535D01*
X106022826Y-118252540D01*
X105845296Y-118376847D01*
X105845291Y-118376850D01*
X105840861Y-118379953D01*
X105837037Y-118383776D01*
X105837031Y-118383782D01*
X105683782Y-118537031D01*
X105683776Y-118537037D01*
X105679953Y-118540861D01*
X105676850Y-118545291D01*
X105676847Y-118545296D01*
X105552540Y-118722826D01*
X105552535Y-118722833D01*
X105549432Y-118727266D01*
X105547144Y-118732172D01*
X105547142Y-118732176D01*
X105455550Y-118928594D01*
X105455547Y-118928599D01*
X105453261Y-118933504D01*
X105451862Y-118938724D01*
X105451858Y-118938736D01*
X105395764Y-119148083D01*
X105395762Y-119148094D01*
X105394365Y-119153308D01*
X105374532Y-119380000D01*
X99685891Y-119380000D01*
X99433339Y-119127448D01*
X100324452Y-119127448D01*
X100335395Y-119130000D01*
X101333674Y-119130000D01*
X101346549Y-119126549D01*
X101350000Y-119113674D01*
X101850000Y-119113674D01*
X101853450Y-119126549D01*
X101866326Y-119130000D01*
X102864605Y-119130000D01*
X102875547Y-119127448D01*
X102875179Y-119116219D01*
X102827669Y-118938907D01*
X102823977Y-118928765D01*
X102732420Y-118732419D01*
X102727032Y-118723087D01*
X102602767Y-118545618D01*
X102595830Y-118537352D01*
X102442647Y-118384169D01*
X102434381Y-118377232D01*
X102256912Y-118252967D01*
X102247580Y-118247579D01*
X102051234Y-118156022D01*
X102041092Y-118152330D01*
X101863780Y-118104820D01*
X101852551Y-118104452D01*
X101850000Y-118115395D01*
X101850000Y-119113674D01*
X101350000Y-119113674D01*
X101350000Y-118115395D01*
X101347448Y-118104452D01*
X101336219Y-118104820D01*
X101158907Y-118152330D01*
X101148765Y-118156022D01*
X100952419Y-118247579D01*
X100943087Y-118252967D01*
X100765618Y-118377232D01*
X100757352Y-118384169D01*
X100604169Y-118537352D01*
X100597232Y-118545618D01*
X100472967Y-118723087D01*
X100467579Y-118732419D01*
X100376022Y-118928765D01*
X100372330Y-118938907D01*
X100324820Y-119116219D01*
X100324452Y-119127448D01*
X99433339Y-119127448D01*
X99298586Y-118992695D01*
X99291142Y-118984514D01*
X99287086Y-118978123D01*
X99238075Y-118932098D01*
X99235278Y-118929387D01*
X99218527Y-118912636D01*
X99215771Y-118909880D01*
X99212590Y-118907412D01*
X99203714Y-118899830D01*
X99177569Y-118875278D01*
X99177567Y-118875276D01*
X99171882Y-118869938D01*
X99165049Y-118866182D01*
X99165043Y-118866177D01*
X99154325Y-118860285D01*
X99138066Y-118849606D01*
X99128395Y-118842104D01*
X99128392Y-118842102D01*
X99122236Y-118837327D01*
X99115079Y-118834229D01*
X99115076Y-118834228D01*
X99082149Y-118819978D01*
X99071663Y-118814841D01*
X99040232Y-118797562D01*
X99040223Y-118797558D01*
X99033392Y-118793803D01*
X99025835Y-118791862D01*
X99025831Y-118791861D01*
X99013988Y-118788820D01*
X98995584Y-118782519D01*
X98984357Y-118777660D01*
X98984350Y-118777658D01*
X98977196Y-118774562D01*
X98969492Y-118773341D01*
X98969490Y-118773341D01*
X98934059Y-118767729D01*
X98922624Y-118765361D01*
X98887871Y-118756438D01*
X98887863Y-118756437D01*
X98880319Y-118754500D01*
X98872523Y-118754500D01*
X98860283Y-118754500D01*
X98840897Y-118752974D01*
X98821104Y-118749840D01*
X98813338Y-118750574D01*
X98813335Y-118750574D01*
X98777624Y-118753950D01*
X98765955Y-118754500D01*
X97734188Y-118754500D01*
X97676931Y-118740489D01*
X97632613Y-118701623D01*
X97589105Y-118639487D01*
X97520047Y-118540861D01*
X97359139Y-118379953D01*
X97172734Y-118249432D01*
X97108145Y-118219313D01*
X96971405Y-118155550D01*
X96971403Y-118155549D01*
X96966496Y-118153261D01*
X96961271Y-118151861D01*
X96961263Y-118151858D01*
X96751916Y-118095764D01*
X96751907Y-118095762D01*
X96746692Y-118094365D01*
X96741304Y-118093893D01*
X96741301Y-118093893D01*
X96525395Y-118075004D01*
X96520000Y-118074532D01*
X96514605Y-118075004D01*
X96298698Y-118093893D01*
X96298693Y-118093893D01*
X96293308Y-118094365D01*
X96288083Y-118095764D01*
X96288083Y-118095765D01*
X96156393Y-118131051D01*
X96100109Y-118132893D01*
X96048813Y-118109652D01*
X96013088Y-118066120D01*
X96000300Y-118011276D01*
X96000300Y-112830552D01*
X96009739Y-112783099D01*
X96036619Y-112742871D01*
X96756679Y-112022811D01*
X99446411Y-109333078D01*
X99454581Y-109325644D01*
X99460977Y-109321586D01*
X99507018Y-109272556D01*
X99509635Y-109269854D01*
X99529220Y-109250271D01*
X99531685Y-109247092D01*
X99539267Y-109238216D01*
X99569162Y-109206382D01*
X99578813Y-109188823D01*
X99589490Y-109172570D01*
X99601773Y-109156736D01*
X99619126Y-109116632D01*
X99624253Y-109106169D01*
X99632558Y-109091062D01*
X99641248Y-109075258D01*
X99686789Y-109028266D01*
X99749908Y-109010999D01*
X100403661Y-109010999D01*
X100406972Y-109010999D01*
X100466583Y-109004591D01*
X100601431Y-108954296D01*
X100716646Y-108868046D01*
X100802896Y-108752831D01*
X100853191Y-108617983D01*
X100859600Y-108558373D01*
X100860372Y-108558456D01*
X100875038Y-108508128D01*
X100913382Y-108466482D01*
X100966241Y-108446219D01*
X101022597Y-108451562D01*
X101070706Y-108481397D01*
X101829707Y-109240398D01*
X101837159Y-109248587D01*
X101841214Y-109254977D01*
X101890223Y-109301000D01*
X101893019Y-109303710D01*
X101912529Y-109323220D01*
X101915709Y-109325687D01*
X101924571Y-109333255D01*
X101937880Y-109345754D01*
X101950732Y-109357823D01*
X101950734Y-109357824D01*
X101956418Y-109363162D01*
X101963251Y-109366918D01*
X101963252Y-109366919D01*
X101973973Y-109372813D01*
X101990234Y-109383494D01*
X102006064Y-109395773D01*
X102046155Y-109413121D01*
X102056635Y-109418255D01*
X102094908Y-109439297D01*
X102114316Y-109444280D01*
X102132719Y-109450581D01*
X102143944Y-109455439D01*
X102143946Y-109455439D01*
X102151104Y-109458537D01*
X102194258Y-109465371D01*
X102205644Y-109467729D01*
X102247981Y-109478600D01*
X102268017Y-109478600D01*
X102287415Y-109480127D01*
X102299486Y-109482039D01*
X102299487Y-109482039D01*
X102307196Y-109483260D01*
X102345276Y-109479660D01*
X102350676Y-109479150D01*
X102362345Y-109478600D01*
X108412925Y-109478600D01*
X108423980Y-109479121D01*
X108431367Y-109480773D01*
X108498572Y-109478661D01*
X108502468Y-109478600D01*
X108526148Y-109478600D01*
X108530050Y-109478600D01*
X108534013Y-109478099D01*
X108545663Y-109477180D01*
X108589327Y-109475809D01*
X108608561Y-109470219D01*
X108627617Y-109466274D01*
X108647492Y-109463764D01*
X108688095Y-109447687D01*
X108699150Y-109443902D01*
X108741090Y-109431718D01*
X108758329Y-109421522D01*
X108775803Y-109412962D01*
X108787174Y-109408460D01*
X108787176Y-109408458D01*
X108794432Y-109405586D01*
X108829769Y-109379911D01*
X108839524Y-109373503D01*
X108877120Y-109351270D01*
X108891284Y-109337105D01*
X108906079Y-109324468D01*
X108922287Y-109312694D01*
X108950128Y-109279038D01*
X108957979Y-109270409D01*
X109747495Y-108480893D01*
X109795592Y-108451063D01*
X109851937Y-108445714D01*
X109904790Y-108465962D01*
X109943139Y-108507589D01*
X109957837Y-108557954D01*
X109958601Y-108557872D01*
X109964179Y-108609768D01*
X109964180Y-108609773D01*
X109965009Y-108617483D01*
X109967719Y-108624749D01*
X109967720Y-108624753D01*
X109979714Y-108656909D01*
X110015304Y-108752331D01*
X110020618Y-108759430D01*
X110020619Y-108759431D01*
X110033195Y-108776231D01*
X110101554Y-108867546D01*
X110216769Y-108953796D01*
X110351617Y-109004091D01*
X110411227Y-109010500D01*
X113106972Y-109010499D01*
X113166583Y-109004091D01*
X113301431Y-108953796D01*
X113416646Y-108867546D01*
X113502896Y-108752331D01*
X113553191Y-108617483D01*
X113559600Y-108557873D01*
X113559599Y-106680000D01*
X120414357Y-106680000D01*
X120414781Y-106685117D01*
X120434467Y-106922701D01*
X120434468Y-106922709D01*
X120434892Y-106927821D01*
X120436149Y-106932788D01*
X120436151Y-106932795D01*
X120494678Y-107163910D01*
X120495937Y-107168881D01*
X120497997Y-107173577D01*
X120593766Y-107391910D01*
X120593769Y-107391916D01*
X120595827Y-107396607D01*
X120598627Y-107400893D01*
X120598631Y-107400900D01*
X120708411Y-107568931D01*
X120731836Y-107604785D01*
X120735310Y-107608559D01*
X120735311Y-107608560D01*
X120896784Y-107783967D01*
X120896787Y-107783970D01*
X120900256Y-107787738D01*
X121096491Y-107940474D01*
X121315190Y-108058828D01*
X121550386Y-108139571D01*
X121795665Y-108180500D01*
X122039201Y-108180500D01*
X122044335Y-108180500D01*
X122289614Y-108139571D01*
X122524810Y-108058828D01*
X122743509Y-107940474D01*
X122939744Y-107787738D01*
X123108164Y-107604785D01*
X123244173Y-107396607D01*
X123344063Y-107168881D01*
X123405108Y-106927821D01*
X123425643Y-106680000D01*
X123405108Y-106432179D01*
X123344063Y-106191119D01*
X123244173Y-105963393D01*
X123108164Y-105755215D01*
X123036144Y-105676980D01*
X122943215Y-105576032D01*
X122943211Y-105576029D01*
X122939744Y-105572262D01*
X122782684Y-105450017D01*
X122747559Y-105422678D01*
X122747557Y-105422676D01*
X122743509Y-105419526D01*
X122738997Y-105417084D01*
X122529316Y-105303610D01*
X122529310Y-105303607D01*
X122524810Y-105301172D01*
X122519969Y-105299510D01*
X122519962Y-105299507D01*
X122294465Y-105222094D01*
X122294461Y-105222093D01*
X122289614Y-105220429D01*
X122280768Y-105218952D01*
X122049398Y-105180344D01*
X122049387Y-105180343D01*
X122044335Y-105179500D01*
X121795665Y-105179500D01*
X121790613Y-105180343D01*
X121790601Y-105180344D01*
X121555443Y-105219585D01*
X121555441Y-105219585D01*
X121550386Y-105220429D01*
X121545541Y-105222092D01*
X121545534Y-105222094D01*
X121320037Y-105299507D01*
X121320026Y-105299511D01*
X121315190Y-105301172D01*
X121310693Y-105303605D01*
X121310683Y-105303610D01*
X121101002Y-105417084D01*
X121100995Y-105417088D01*
X121096491Y-105419526D01*
X121092448Y-105422672D01*
X121092440Y-105422678D01*
X120904304Y-105569111D01*
X120900256Y-105572262D01*
X120896793Y-105576023D01*
X120896784Y-105576032D01*
X120735311Y-105751439D01*
X120735305Y-105751446D01*
X120731836Y-105755215D01*
X120729031Y-105759506D01*
X120729028Y-105759512D01*
X120598631Y-105959099D01*
X120598624Y-105959111D01*
X120595827Y-105963393D01*
X120593772Y-105968077D01*
X120593766Y-105968089D01*
X120497997Y-106186422D01*
X120495937Y-106191119D01*
X120494679Y-106196084D01*
X120494678Y-106196089D01*
X120436151Y-106427204D01*
X120436149Y-106427213D01*
X120434892Y-106432179D01*
X120434468Y-106437288D01*
X120434467Y-106437298D01*
X120417540Y-106641581D01*
X120414357Y-106680000D01*
X113559599Y-106680000D01*
X113559599Y-105862128D01*
X113553191Y-105802517D01*
X113502896Y-105667669D01*
X113416646Y-105552454D01*
X113301431Y-105466204D01*
X113176281Y-105419526D01*
X113173852Y-105418620D01*
X113173850Y-105418619D01*
X113166583Y-105415909D01*
X113158870Y-105415079D01*
X113158867Y-105415079D01*
X113110280Y-105409855D01*
X113110269Y-105409854D01*
X113106973Y-105409500D01*
X113103650Y-105409500D01*
X110414539Y-105409500D01*
X110414520Y-105409500D01*
X110411228Y-105409501D01*
X110407950Y-105409853D01*
X110407938Y-105409854D01*
X110359331Y-105415079D01*
X110359325Y-105415080D01*
X110351617Y-105415909D01*
X110344352Y-105418618D01*
X110344346Y-105418620D01*
X110225080Y-105463104D01*
X110225078Y-105463104D01*
X110216769Y-105466204D01*
X110209672Y-105471516D01*
X110209668Y-105471519D01*
X110108650Y-105547141D01*
X110108646Y-105547144D01*
X110101554Y-105552454D01*
X110096244Y-105559546D01*
X110096241Y-105559550D01*
X110020619Y-105660568D01*
X110020616Y-105660572D01*
X110015304Y-105667669D01*
X110012204Y-105675978D01*
X110012204Y-105675980D01*
X109967720Y-105795247D01*
X109967719Y-105795250D01*
X109965009Y-105802517D01*
X109964179Y-105810227D01*
X109964179Y-105810232D01*
X109958955Y-105858819D01*
X109958954Y-105858831D01*
X109958600Y-105862127D01*
X109958600Y-105865449D01*
X109958600Y-106518458D01*
X109949407Y-106565312D01*
X109923192Y-106605218D01*
X109886371Y-106630522D01*
X109883410Y-106631383D01*
X109876698Y-106635351D01*
X109876696Y-106635353D01*
X109866164Y-106641581D01*
X109848700Y-106650136D01*
X109837324Y-106654640D01*
X109837317Y-106654643D01*
X109830068Y-106657514D01*
X109823762Y-106662094D01*
X109823757Y-106662098D01*
X109794727Y-106683189D01*
X109784969Y-106689598D01*
X109766641Y-106700438D01*
X109747379Y-106711830D01*
X109741863Y-106717344D01*
X109741856Y-106717351D01*
X109733207Y-106726000D01*
X109718424Y-106738626D01*
X109708527Y-106745817D01*
X109708520Y-106745823D01*
X109702213Y-106750406D01*
X109697246Y-106756408D01*
X109697235Y-106756420D01*
X109674370Y-106784059D01*
X109666510Y-106792697D01*
X108615671Y-107843536D01*
X108560979Y-107875386D01*
X108497692Y-107876096D01*
X108442298Y-107845481D01*
X108409229Y-107791517D01*
X108407099Y-107728262D01*
X108462953Y-107483549D01*
X108464332Y-107474399D01*
X108483800Y-107214630D01*
X108483800Y-107205370D01*
X108464332Y-106945600D01*
X108462953Y-106936447D01*
X108404988Y-106682484D01*
X108402255Y-106673624D01*
X108307088Y-106431143D01*
X108303069Y-106422797D01*
X108172821Y-106197201D01*
X108167603Y-106189549D01*
X108127719Y-106139536D01*
X108116482Y-106131562D01*
X108104425Y-106138226D01*
X106766780Y-107475871D01*
X106711193Y-107507965D01*
X106647005Y-107507965D01*
X106591418Y-107475871D01*
X105253774Y-106138227D01*
X105241715Y-106131562D01*
X105230480Y-106139534D01*
X105190588Y-106189558D01*
X105185382Y-106197195D01*
X105055130Y-106422797D01*
X105051111Y-106431143D01*
X104955944Y-106673624D01*
X104953211Y-106682484D01*
X104895246Y-106936447D01*
X104893867Y-106945600D01*
X104874400Y-107205370D01*
X104874400Y-107214630D01*
X104893867Y-107474399D01*
X104895246Y-107483552D01*
X104953211Y-107737515D01*
X104955944Y-107746375D01*
X105051111Y-107988856D01*
X105055130Y-107997202D01*
X105080764Y-108041600D01*
X105097377Y-108103600D01*
X105080764Y-108165600D01*
X105035377Y-108210987D01*
X104973377Y-108227600D01*
X102637453Y-108227600D01*
X102590000Y-108218161D01*
X102549772Y-108191281D01*
X101181686Y-106823195D01*
X101174242Y-106815014D01*
X101170186Y-106808623D01*
X101121175Y-106762598D01*
X101118378Y-106759887D01*
X101101627Y-106743136D01*
X101101626Y-106743135D01*
X101098871Y-106740380D01*
X101095690Y-106737912D01*
X101086814Y-106730330D01*
X101060669Y-106705778D01*
X101060667Y-106705776D01*
X101054982Y-106700438D01*
X101048149Y-106696682D01*
X101048143Y-106696677D01*
X101037425Y-106690785D01*
X101021166Y-106680106D01*
X101011495Y-106672604D01*
X101011492Y-106672602D01*
X101005336Y-106667827D01*
X100998179Y-106664729D01*
X100998176Y-106664728D01*
X100965249Y-106650478D01*
X100954763Y-106645341D01*
X100923864Y-106628355D01*
X100876868Y-106582814D01*
X100859599Y-106519692D01*
X100859599Y-105865939D01*
X100859599Y-105862628D01*
X100853191Y-105803017D01*
X100841491Y-105771648D01*
X105597703Y-105771648D01*
X105603619Y-105780966D01*
X106667557Y-106844904D01*
X106679100Y-106851568D01*
X106690642Y-106844904D01*
X107754577Y-105780968D01*
X107760494Y-105771648D01*
X107752946Y-105763589D01*
X107585460Y-105649398D01*
X107577440Y-105644768D01*
X107342737Y-105531741D01*
X107334127Y-105528362D01*
X107085191Y-105451575D01*
X107076175Y-105449517D01*
X106818576Y-105410691D01*
X106809354Y-105410000D01*
X106548846Y-105410000D01*
X106539623Y-105410691D01*
X106282024Y-105449517D01*
X106273008Y-105451575D01*
X106024073Y-105528361D01*
X106015462Y-105531741D01*
X105780760Y-105644768D01*
X105772739Y-105649399D01*
X105605251Y-105763590D01*
X105597703Y-105771648D01*
X100841491Y-105771648D01*
X100802896Y-105668169D01*
X100716646Y-105552954D01*
X100683795Y-105528362D01*
X100608531Y-105472019D01*
X100608530Y-105472018D01*
X100601431Y-105466704D01*
X100531065Y-105440459D01*
X100473852Y-105419120D01*
X100473850Y-105419119D01*
X100466583Y-105416409D01*
X100458870Y-105415579D01*
X100458867Y-105415579D01*
X100410280Y-105410355D01*
X100410269Y-105410354D01*
X100406973Y-105410000D01*
X100403650Y-105410000D01*
X97714539Y-105410000D01*
X97714520Y-105410000D01*
X97711228Y-105410001D01*
X97707950Y-105410353D01*
X97707938Y-105410354D01*
X97659331Y-105415579D01*
X97659325Y-105415580D01*
X97651617Y-105416409D01*
X97644352Y-105419118D01*
X97644346Y-105419120D01*
X97525080Y-105463604D01*
X97525078Y-105463604D01*
X97516769Y-105466704D01*
X97509672Y-105472016D01*
X97509668Y-105472019D01*
X97408650Y-105547641D01*
X97408646Y-105547644D01*
X97401554Y-105552954D01*
X97396244Y-105560046D01*
X97396241Y-105560050D01*
X97320619Y-105661068D01*
X97320616Y-105661072D01*
X97315304Y-105668169D01*
X97312204Y-105676478D01*
X97312204Y-105676480D01*
X97267720Y-105795747D01*
X97267719Y-105795750D01*
X97265009Y-105803017D01*
X97264179Y-105810727D01*
X97264179Y-105810732D01*
X97258955Y-105859319D01*
X97258954Y-105859331D01*
X97258600Y-105862627D01*
X97258600Y-105865948D01*
X97258600Y-105865949D01*
X97258600Y-108555060D01*
X97258600Y-108555078D01*
X97258601Y-108558372D01*
X97258953Y-108561650D01*
X97258954Y-108561661D01*
X97264179Y-108610268D01*
X97264180Y-108610273D01*
X97265009Y-108617983D01*
X97267719Y-108625249D01*
X97267720Y-108625253D01*
X97279714Y-108657409D01*
X97315304Y-108752831D01*
X97401554Y-108868046D01*
X97516769Y-108954296D01*
X97651617Y-109004591D01*
X97711227Y-109011000D01*
X97711144Y-109011771D01*
X97761474Y-109026440D01*
X97803117Y-109064785D01*
X97823379Y-109117643D01*
X97818036Y-109173998D01*
X97788201Y-109222106D01*
X94987496Y-112022811D01*
X94979311Y-112030259D01*
X94972923Y-112034314D01*
X94967588Y-112039994D01*
X94967583Y-112039999D01*
X94926896Y-112083325D01*
X94924192Y-112086116D01*
X94907428Y-112102880D01*
X94907421Y-112102887D01*
X94904680Y-112105629D01*
X94902300Y-112108696D01*
X94902289Y-112108709D01*
X94902200Y-112108825D01*
X94894642Y-112117670D01*
X94870080Y-112143827D01*
X94870073Y-112143836D01*
X94864738Y-112149518D01*
X94860982Y-112156349D01*
X94860979Y-112156354D01*
X94855085Y-112167075D01*
X94844409Y-112183327D01*
X94836909Y-112192996D01*
X94836901Y-112193007D01*
X94832127Y-112199164D01*
X94829034Y-112206308D01*
X94829029Y-112206319D01*
X94814774Y-112239260D01*
X94809638Y-112249743D01*
X94788603Y-112288008D01*
X94786664Y-112295556D01*
X94786663Y-112295561D01*
X94783622Y-112307407D01*
X94777321Y-112325811D01*
X94772458Y-112337048D01*
X94772456Y-112337052D01*
X94769362Y-112344204D01*
X94768142Y-112351903D01*
X94768142Y-112351905D01*
X94762529Y-112387341D01*
X94760161Y-112398776D01*
X94751238Y-112433528D01*
X94751236Y-112433536D01*
X94749300Y-112441081D01*
X94749300Y-112448877D01*
X94749300Y-112461117D01*
X94747774Y-112480502D01*
X94744640Y-112500296D01*
X94745374Y-112508061D01*
X94745374Y-112508064D01*
X94748750Y-112543776D01*
X94749300Y-112555445D01*
X94749300Y-123237025D01*
X94748778Y-123248080D01*
X94747127Y-123255467D01*
X94747371Y-123263253D01*
X94747371Y-123263261D01*
X94749239Y-123322673D01*
X94749300Y-123326568D01*
X94749300Y-123354150D01*
X94749788Y-123358019D01*
X94749789Y-123358025D01*
X94749804Y-123358143D01*
X94750718Y-123369766D01*
X94751845Y-123405630D01*
X94751846Y-123405637D01*
X94752091Y-123413427D01*
X94754267Y-123420919D01*
X94754268Y-123420921D01*
X94757679Y-123432662D01*
X94761625Y-123451715D01*
X94764136Y-123471592D01*
X94767006Y-123478842D01*
X94767008Y-123478848D01*
X94780214Y-123512204D01*
X94783997Y-123523251D01*
X94796182Y-123565190D01*
X94800153Y-123571905D01*
X94800154Y-123571907D01*
X94806381Y-123582437D01*
X94814936Y-123599899D01*
X94819442Y-123611280D01*
X94819443Y-123611283D01*
X94822314Y-123618532D01*
X94844240Y-123648712D01*
X94847981Y-123653860D01*
X94854393Y-123663622D01*
X94872656Y-123694502D01*
X94872659Y-123694507D01*
X94876630Y-123701220D01*
X94882145Y-123706735D01*
X94890790Y-123715380D01*
X94903426Y-123730174D01*
X94910619Y-123740075D01*
X94910623Y-123740079D01*
X94915206Y-123746387D01*
X94921215Y-123751358D01*
X94921216Y-123751359D01*
X94948858Y-123774226D01*
X94957499Y-123782089D01*
X105380586Y-134205177D01*
X105412680Y-134260763D01*
X105412680Y-134324950D01*
X105395765Y-134388079D01*
X105395762Y-134388090D01*
X105394365Y-134393308D01*
X105393893Y-134398693D01*
X105393893Y-134398698D01*
X105383280Y-134520010D01*
X105374532Y-134620000D01*
X105394365Y-134846692D01*
X105395763Y-134851911D01*
X105395765Y-134851920D01*
X105412680Y-134915048D01*
X105412680Y-134979234D01*
X105380586Y-135034821D01*
X102337996Y-138077411D01*
X102329811Y-138084859D01*
X102323423Y-138088914D01*
X102318088Y-138094594D01*
X102318083Y-138094599D01*
X102277396Y-138137925D01*
X102274692Y-138140716D01*
X102257928Y-138157480D01*
X102257921Y-138157487D01*
X102255180Y-138160229D01*
X102252800Y-138163296D01*
X102252789Y-138163309D01*
X102252700Y-138163425D01*
X102245142Y-138172270D01*
X102220580Y-138198427D01*
X102220573Y-138198436D01*
X102215238Y-138204118D01*
X102211482Y-138210949D01*
X102211479Y-138210954D01*
X102205585Y-138221675D01*
X102194909Y-138237927D01*
X102187409Y-138247596D01*
X102187401Y-138247607D01*
X102182627Y-138253764D01*
X102179534Y-138260908D01*
X102179529Y-138260919D01*
X102165274Y-138293860D01*
X102160138Y-138304343D01*
X102139103Y-138342608D01*
X102137164Y-138350156D01*
X102137163Y-138350161D01*
X102134122Y-138362007D01*
X102127816Y-138380422D01*
X102125870Y-138384918D01*
X102090774Y-138431486D01*
X102038273Y-138456863D01*
X101979979Y-138455438D01*
X101831916Y-138415764D01*
X101831907Y-138415762D01*
X101826692Y-138414365D01*
X101821304Y-138413893D01*
X101821301Y-138413893D01*
X101605395Y-138395004D01*
X101600000Y-138394532D01*
X101594605Y-138395004D01*
X101378698Y-138413893D01*
X101378693Y-138413893D01*
X101373308Y-138414365D01*
X101368094Y-138415762D01*
X101368083Y-138415764D01*
X101158736Y-138471858D01*
X101158724Y-138471862D01*
X101153504Y-138473261D01*
X101148599Y-138475547D01*
X101148594Y-138475550D01*
X100952176Y-138567142D01*
X100952172Y-138567144D01*
X100947266Y-138569432D01*
X100942833Y-138572535D01*
X100942826Y-138572540D01*
X100765296Y-138696847D01*
X100765291Y-138696850D01*
X100760861Y-138699953D01*
X100757037Y-138703776D01*
X100757031Y-138703782D01*
X100603782Y-138857031D01*
X100603776Y-138857037D01*
X100599953Y-138860861D01*
X100596850Y-138865291D01*
X100596847Y-138865296D01*
X100472540Y-139042826D01*
X100472535Y-139042833D01*
X100469432Y-139047266D01*
X100467144Y-139052172D01*
X100467142Y-139052176D01*
X100375550Y-139248594D01*
X100375547Y-139248599D01*
X100373261Y-139253504D01*
X100371862Y-139258724D01*
X100371858Y-139258736D01*
X100315764Y-139468083D01*
X100315762Y-139468094D01*
X100314365Y-139473308D01*
X100294532Y-139700000D01*
X100295004Y-139705395D01*
X100311424Y-139893085D01*
X100314365Y-139926692D01*
X100315762Y-139931907D01*
X100315764Y-139931916D01*
X100371858Y-140141263D01*
X100371861Y-140141271D01*
X100373261Y-140146496D01*
X100469432Y-140352734D01*
X100472539Y-140357171D01*
X100472540Y-140357173D01*
X100494442Y-140388452D01*
X100599953Y-140539139D01*
X100760861Y-140700047D01*
X100947266Y-140830568D01*
X101153504Y-140926739D01*
X101158734Y-140928140D01*
X101158736Y-140928141D01*
X101334285Y-140975179D01*
X101373308Y-140985635D01*
X101600000Y-141005468D01*
X101826692Y-140985635D01*
X101943707Y-140954280D01*
X101999991Y-140952439D01*
X102051286Y-140975680D01*
X102087012Y-141019212D01*
X102099800Y-141074056D01*
X102099800Y-152378947D01*
X102090361Y-152426400D01*
X102063481Y-152466628D01*
X101311781Y-153218327D01*
X101262418Y-153248577D01*
X101204702Y-153253119D01*
X101151215Y-153230964D01*
X101113615Y-153186941D01*
X101100100Y-153130646D01*
X101100100Y-151467375D01*
X101100621Y-151456319D01*
X101102273Y-151448933D01*
X101100161Y-151381713D01*
X101100100Y-151377819D01*
X101100100Y-151354142D01*
X101100100Y-151350250D01*
X101099598Y-151346283D01*
X101098681Y-151334626D01*
X101097948Y-151311298D01*
X101097310Y-151290973D01*
X101091718Y-151271728D01*
X101087774Y-151252683D01*
X101085264Y-151232808D01*
X101069179Y-151192183D01*
X101065406Y-151181162D01*
X101053218Y-151139210D01*
X101049246Y-151132495D01*
X101049245Y-151132491D01*
X101043020Y-151121966D01*
X101034459Y-151104492D01*
X101027086Y-151085868D01*
X101001408Y-151050526D01*
X100995005Y-151040776D01*
X100976743Y-151009896D01*
X100976742Y-151009894D01*
X100972771Y-151003180D01*
X100958606Y-150989015D01*
X100945968Y-150974218D01*
X100938784Y-150964329D01*
X100938778Y-150964323D01*
X100934194Y-150958013D01*
X100900890Y-150930462D01*
X100900546Y-150930177D01*
X100891905Y-150922314D01*
X91171383Y-141201792D01*
X91140482Y-141150365D01*
X91137342Y-141090451D01*
X91162698Y-141036075D01*
X91210614Y-140999968D01*
X91269869Y-140990583D01*
X91440000Y-141005468D01*
X91666692Y-140985635D01*
X91886496Y-140926739D01*
X92092734Y-140830568D01*
X92279139Y-140700047D01*
X92440047Y-140539139D01*
X92570568Y-140352734D01*
X92666739Y-140146496D01*
X92725635Y-139926692D01*
X92745468Y-139700000D01*
X95214532Y-139700000D01*
X95215004Y-139705395D01*
X95231424Y-139893085D01*
X95234365Y-139926692D01*
X95235762Y-139931907D01*
X95235764Y-139931916D01*
X95291858Y-140141263D01*
X95291861Y-140141271D01*
X95293261Y-140146496D01*
X95389432Y-140352734D01*
X95392539Y-140357171D01*
X95392540Y-140357173D01*
X95414442Y-140388452D01*
X95519953Y-140539139D01*
X95680861Y-140700047D01*
X95867266Y-140830568D01*
X96073504Y-140926739D01*
X96078734Y-140928140D01*
X96078736Y-140928141D01*
X96254285Y-140975179D01*
X96293308Y-140985635D01*
X96520000Y-141005468D01*
X96746692Y-140985635D01*
X96966496Y-140926739D01*
X97172734Y-140830568D01*
X97359139Y-140700047D01*
X97520047Y-140539139D01*
X97650568Y-140352734D01*
X97746739Y-140146496D01*
X97805635Y-139926692D01*
X97825468Y-139700000D01*
X97805635Y-139473308D01*
X97760283Y-139304052D01*
X97748141Y-139258736D01*
X97748140Y-139258734D01*
X97746739Y-139253504D01*
X97650568Y-139047266D01*
X97520047Y-138860861D01*
X97359139Y-138699953D01*
X97172734Y-138569432D01*
X96966496Y-138473261D01*
X96961271Y-138471861D01*
X96961263Y-138471858D01*
X96751916Y-138415764D01*
X96751907Y-138415762D01*
X96746692Y-138414365D01*
X96741304Y-138413893D01*
X96741301Y-138413893D01*
X96525395Y-138395004D01*
X96520000Y-138394532D01*
X96514605Y-138395004D01*
X96298698Y-138413893D01*
X96298693Y-138413893D01*
X96293308Y-138414365D01*
X96288094Y-138415762D01*
X96288083Y-138415764D01*
X96078736Y-138471858D01*
X96078724Y-138471862D01*
X96073504Y-138473261D01*
X96068599Y-138475547D01*
X96068594Y-138475550D01*
X95872176Y-138567142D01*
X95872172Y-138567144D01*
X95867266Y-138569432D01*
X95862833Y-138572535D01*
X95862826Y-138572540D01*
X95685296Y-138696847D01*
X95685291Y-138696850D01*
X95680861Y-138699953D01*
X95677037Y-138703776D01*
X95677031Y-138703782D01*
X95523782Y-138857031D01*
X95523776Y-138857037D01*
X95519953Y-138860861D01*
X95516850Y-138865291D01*
X95516847Y-138865296D01*
X95392540Y-139042826D01*
X95392535Y-139042833D01*
X95389432Y-139047266D01*
X95387144Y-139052172D01*
X95387142Y-139052176D01*
X95295550Y-139248594D01*
X95295547Y-139248599D01*
X95293261Y-139253504D01*
X95291862Y-139258724D01*
X95291858Y-139258736D01*
X95235764Y-139468083D01*
X95235762Y-139468094D01*
X95234365Y-139473308D01*
X95214532Y-139700000D01*
X92745468Y-139700000D01*
X92725635Y-139473308D01*
X92680283Y-139304052D01*
X92668141Y-139258736D01*
X92668140Y-139258734D01*
X92666739Y-139253504D01*
X92570568Y-139047266D01*
X92440047Y-138860861D01*
X92279139Y-138699953D01*
X92092734Y-138569432D01*
X91886496Y-138473261D01*
X91881271Y-138471861D01*
X91881263Y-138471858D01*
X91671916Y-138415764D01*
X91671907Y-138415762D01*
X91666692Y-138414365D01*
X91661304Y-138413893D01*
X91661301Y-138413893D01*
X91445395Y-138395004D01*
X91440000Y-138394532D01*
X91434605Y-138395004D01*
X91218698Y-138413893D01*
X91218693Y-138413893D01*
X91213308Y-138414365D01*
X91208094Y-138415762D01*
X91208083Y-138415764D01*
X90998736Y-138471858D01*
X90998724Y-138471862D01*
X90993504Y-138473261D01*
X90988599Y-138475547D01*
X90988594Y-138475550D01*
X90792176Y-138567142D01*
X90792172Y-138567144D01*
X90787266Y-138569432D01*
X90782833Y-138572535D01*
X90782826Y-138572540D01*
X90605296Y-138696847D01*
X90605291Y-138696850D01*
X90600861Y-138699953D01*
X90597037Y-138703776D01*
X90597031Y-138703782D01*
X90443782Y-138857031D01*
X90443776Y-138857037D01*
X90439953Y-138860861D01*
X90436850Y-138865291D01*
X90436847Y-138865296D01*
X90312540Y-139042826D01*
X90312535Y-139042833D01*
X90309432Y-139047266D01*
X90307144Y-139052172D01*
X90307142Y-139052176D01*
X90215550Y-139248594D01*
X90215547Y-139248599D01*
X90213261Y-139253504D01*
X90211862Y-139258724D01*
X90211858Y-139258736D01*
X90155764Y-139468083D01*
X90155762Y-139468094D01*
X90154365Y-139473308D01*
X90134532Y-139700000D01*
X90135004Y-139705395D01*
X90149416Y-139870128D01*
X90140031Y-139929386D01*
X90103924Y-139977301D01*
X90049548Y-140002657D01*
X89989634Y-139999517D01*
X89938207Y-139968616D01*
X84842142Y-134872551D01*
X95244452Y-134872551D01*
X95244820Y-134883780D01*
X95292330Y-135061092D01*
X95296022Y-135071234D01*
X95387579Y-135267580D01*
X95392967Y-135276912D01*
X95517232Y-135454381D01*
X95524169Y-135462647D01*
X95677352Y-135615830D01*
X95685618Y-135622767D01*
X95863087Y-135747032D01*
X95872419Y-135752420D01*
X96068765Y-135843977D01*
X96078907Y-135847669D01*
X96256219Y-135895179D01*
X96267448Y-135895547D01*
X96270000Y-135884605D01*
X96770000Y-135884605D01*
X96772551Y-135895547D01*
X96783780Y-135895179D01*
X96961092Y-135847669D01*
X96971234Y-135843977D01*
X97167580Y-135752420D01*
X97176912Y-135747032D01*
X97354381Y-135622767D01*
X97362647Y-135615830D01*
X97515830Y-135462647D01*
X97522767Y-135454381D01*
X97647032Y-135276912D01*
X97652420Y-135267580D01*
X97743977Y-135071234D01*
X97747669Y-135061092D01*
X97795179Y-134883780D01*
X97795547Y-134872551D01*
X97784605Y-134870000D01*
X96786326Y-134870000D01*
X96773450Y-134873450D01*
X96770000Y-134886326D01*
X96770000Y-135884605D01*
X96270000Y-135884605D01*
X96270000Y-134886326D01*
X96266549Y-134873450D01*
X96253674Y-134870000D01*
X95255395Y-134870000D01*
X95244452Y-134872551D01*
X84842142Y-134872551D01*
X84589591Y-134620000D01*
X100294532Y-134620000D01*
X100314365Y-134846692D01*
X100315762Y-134851907D01*
X100315764Y-134851916D01*
X100371858Y-135061263D01*
X100371861Y-135061271D01*
X100373261Y-135066496D01*
X100469432Y-135272734D01*
X100599953Y-135459139D01*
X100760861Y-135620047D01*
X100947266Y-135750568D01*
X101153504Y-135846739D01*
X101158734Y-135848140D01*
X101158736Y-135848141D01*
X101304951Y-135887319D01*
X101373308Y-135905635D01*
X101600000Y-135925468D01*
X101826692Y-135905635D01*
X102046496Y-135846739D01*
X102252734Y-135750568D01*
X102439139Y-135620047D01*
X102600047Y-135459139D01*
X102730568Y-135272734D01*
X102826739Y-135066496D01*
X102885635Y-134846692D01*
X102905468Y-134620000D01*
X102885635Y-134393308D01*
X102854935Y-134278732D01*
X102828141Y-134178736D01*
X102828140Y-134178734D01*
X102826739Y-134173504D01*
X102730568Y-133967266D01*
X102600047Y-133780861D01*
X102439139Y-133619953D01*
X102252734Y-133489432D01*
X102046496Y-133393261D01*
X102041271Y-133391861D01*
X102041263Y-133391858D01*
X101831916Y-133335764D01*
X101831907Y-133335762D01*
X101826692Y-133334365D01*
X101821304Y-133333893D01*
X101821301Y-133333893D01*
X101605395Y-133315004D01*
X101600000Y-133314532D01*
X101594605Y-133315004D01*
X101378698Y-133333893D01*
X101378693Y-133333893D01*
X101373308Y-133334365D01*
X101368094Y-133335762D01*
X101368083Y-133335764D01*
X101158736Y-133391858D01*
X101158724Y-133391862D01*
X101153504Y-133393261D01*
X101148599Y-133395547D01*
X101148594Y-133395550D01*
X100952176Y-133487142D01*
X100952172Y-133487144D01*
X100947266Y-133489432D01*
X100942833Y-133492535D01*
X100942826Y-133492540D01*
X100765296Y-133616847D01*
X100765291Y-133616850D01*
X100760861Y-133619953D01*
X100757037Y-133623776D01*
X100757031Y-133623782D01*
X100603782Y-133777031D01*
X100603776Y-133777037D01*
X100599953Y-133780861D01*
X100596850Y-133785291D01*
X100596847Y-133785296D01*
X100472540Y-133962826D01*
X100472535Y-133962833D01*
X100469432Y-133967266D01*
X100467144Y-133972172D01*
X100467142Y-133972176D01*
X100375550Y-134168594D01*
X100375547Y-134168599D01*
X100373261Y-134173504D01*
X100371862Y-134178724D01*
X100371858Y-134178736D01*
X100315764Y-134388083D01*
X100315762Y-134388094D01*
X100314365Y-134393308D01*
X100313893Y-134398693D01*
X100313893Y-134398698D01*
X100303280Y-134520010D01*
X100294532Y-134620000D01*
X84589591Y-134620000D01*
X84337039Y-134367448D01*
X95244452Y-134367448D01*
X95255395Y-134370000D01*
X96253674Y-134370000D01*
X96266549Y-134366549D01*
X96270000Y-134353674D01*
X96770000Y-134353674D01*
X96773450Y-134366549D01*
X96786326Y-134370000D01*
X97784605Y-134370000D01*
X97795547Y-134367448D01*
X97795179Y-134356219D01*
X97747669Y-134178907D01*
X97743977Y-134168765D01*
X97652420Y-133972419D01*
X97647032Y-133963087D01*
X97522767Y-133785618D01*
X97515830Y-133777352D01*
X97362647Y-133624169D01*
X97354381Y-133617232D01*
X97176912Y-133492967D01*
X97167580Y-133487579D01*
X96971234Y-133396022D01*
X96961092Y-133392330D01*
X96783780Y-133344820D01*
X96772551Y-133344452D01*
X96770000Y-133355395D01*
X96770000Y-134353674D01*
X96270000Y-134353674D01*
X96270000Y-133355395D01*
X96267448Y-133344452D01*
X96256219Y-133344820D01*
X96078907Y-133392330D01*
X96068765Y-133396022D01*
X95872419Y-133487579D01*
X95863087Y-133492967D01*
X95685618Y-133617232D01*
X95677352Y-133624169D01*
X95524169Y-133777352D01*
X95517232Y-133785618D01*
X95392967Y-133963087D01*
X95387579Y-133972419D01*
X95296022Y-134168765D01*
X95292330Y-134178907D01*
X95244820Y-134356219D01*
X95244452Y-134367448D01*
X84337039Y-134367448D01*
X83721819Y-133752228D01*
X83694939Y-133712000D01*
X83685500Y-133664547D01*
X83685500Y-128545889D01*
X83702113Y-128483889D01*
X83747500Y-128438502D01*
X83809500Y-128421889D01*
X84104561Y-128421889D01*
X84107872Y-128421889D01*
X84167483Y-128415481D01*
X84302331Y-128365186D01*
X84417546Y-128278936D01*
X84503796Y-128163721D01*
X84510913Y-128144638D01*
X88795749Y-128144638D01*
X88803855Y-128155829D01*
X88832717Y-128178293D01*
X88841279Y-128183886D01*
X89050885Y-128297319D01*
X89060239Y-128301422D01*
X89285656Y-128378807D01*
X89295568Y-128381318D01*
X89530643Y-128420545D01*
X89540839Y-128421390D01*
X89779161Y-128421390D01*
X89789356Y-128420545D01*
X90024431Y-128381318D01*
X90034343Y-128378807D01*
X90259760Y-128301422D01*
X90269114Y-128297319D01*
X90478723Y-128183885D01*
X90487281Y-128178293D01*
X90516146Y-128155827D01*
X90524250Y-128144640D01*
X90517589Y-128132532D01*
X89671542Y-127286485D01*
X89660000Y-127279821D01*
X89648457Y-127286485D01*
X88802408Y-128132533D01*
X88795749Y-128144638D01*
X84510913Y-128144638D01*
X84554091Y-128028873D01*
X84560500Y-127969263D01*
X84560500Y-126926507D01*
X88155283Y-126926507D01*
X88174962Y-127164008D01*
X88176646Y-127174102D01*
X88235153Y-127405137D01*
X88238472Y-127414804D01*
X88334208Y-127633063D01*
X88339070Y-127642046D01*
X88428999Y-127779694D01*
X88436963Y-127787414D01*
X88446345Y-127781490D01*
X89294904Y-126932932D01*
X89301568Y-126921390D01*
X90018431Y-126921390D01*
X90025095Y-126932932D01*
X90873653Y-127781490D01*
X90883034Y-127787414D01*
X90891002Y-127779689D01*
X90980924Y-127642054D01*
X90985792Y-127633059D01*
X91081527Y-127414804D01*
X91084846Y-127405137D01*
X91143353Y-127174102D01*
X91145037Y-127164008D01*
X91164717Y-126926507D01*
X91164717Y-126916273D01*
X91145037Y-126678771D01*
X91143353Y-126668677D01*
X91084846Y-126437642D01*
X91081527Y-126427975D01*
X90985792Y-126209720D01*
X90980924Y-126200725D01*
X90891002Y-126063089D01*
X90883034Y-126055364D01*
X90873653Y-126061288D01*
X90025095Y-126909847D01*
X90018431Y-126921390D01*
X89301568Y-126921390D01*
X89294904Y-126909847D01*
X88446345Y-126061288D01*
X88436964Y-126055364D01*
X88428997Y-126063089D01*
X88339072Y-126200728D01*
X88334207Y-126209718D01*
X88238472Y-126427975D01*
X88235153Y-126437642D01*
X88176646Y-126668677D01*
X88174962Y-126678771D01*
X88155283Y-126916273D01*
X88155283Y-126926507D01*
X84560500Y-126926507D01*
X84560499Y-125873518D01*
X84554091Y-125813907D01*
X84510912Y-125698139D01*
X88795748Y-125698139D01*
X88802408Y-125710245D01*
X89648457Y-126556294D01*
X89660000Y-126562958D01*
X89671542Y-126556294D01*
X90517590Y-125710245D01*
X90524250Y-125698139D01*
X90516143Y-125686949D01*
X90487286Y-125664489D01*
X90478719Y-125658893D01*
X90269114Y-125545460D01*
X90259760Y-125541357D01*
X90034343Y-125463972D01*
X90024431Y-125461461D01*
X89789356Y-125422234D01*
X89779161Y-125421390D01*
X89540839Y-125421390D01*
X89530643Y-125422234D01*
X89295568Y-125461461D01*
X89285656Y-125463972D01*
X89060239Y-125541357D01*
X89050885Y-125545460D01*
X88841276Y-125658894D01*
X88832717Y-125664486D01*
X88803854Y-125686950D01*
X88795748Y-125698139D01*
X84510912Y-125698139D01*
X84503796Y-125679059D01*
X84417546Y-125563844D01*
X84383605Y-125538436D01*
X84309431Y-125482909D01*
X84309430Y-125482908D01*
X84302331Y-125477594D01*
X84167483Y-125427299D01*
X84159770Y-125426469D01*
X84159767Y-125426469D01*
X84111180Y-125421245D01*
X84111169Y-125421244D01*
X84107873Y-125420890D01*
X84104550Y-125420890D01*
X82015439Y-125420890D01*
X82015420Y-125420890D01*
X82012128Y-125420891D01*
X82008850Y-125421243D01*
X82008838Y-125421244D01*
X81960231Y-125426469D01*
X81960225Y-125426470D01*
X81952517Y-125427299D01*
X81945252Y-125430008D01*
X81945246Y-125430010D01*
X81825980Y-125474494D01*
X81825978Y-125474494D01*
X81817669Y-125477594D01*
X81810572Y-125482906D01*
X81810568Y-125482909D01*
X81709550Y-125558531D01*
X81709546Y-125558534D01*
X81702454Y-125563844D01*
X81697144Y-125570936D01*
X81697141Y-125570940D01*
X81621519Y-125671958D01*
X81621516Y-125671962D01*
X81616204Y-125679059D01*
X81613104Y-125687368D01*
X81613104Y-125687370D01*
X81568620Y-125806637D01*
X81568619Y-125806640D01*
X81565909Y-125813907D01*
X81565079Y-125821617D01*
X81565079Y-125821622D01*
X81559855Y-125870209D01*
X81559854Y-125870221D01*
X81559500Y-125873517D01*
X81559500Y-125876838D01*
X81559500Y-125876839D01*
X81559500Y-127965950D01*
X81559500Y-127965968D01*
X81559501Y-127969262D01*
X81559853Y-127972540D01*
X81559854Y-127972551D01*
X81565079Y-128021158D01*
X81565080Y-128021163D01*
X81565909Y-128028873D01*
X81568619Y-128036139D01*
X81568620Y-128036143D01*
X81602217Y-128126221D01*
X81616204Y-128163721D01*
X81621518Y-128170820D01*
X81621519Y-128170821D01*
X81631299Y-128183886D01*
X81702454Y-128278936D01*
X81817669Y-128365186D01*
X81952517Y-128415481D01*
X82012127Y-128421890D01*
X82310500Y-128421890D01*
X82372500Y-128438503D01*
X82417887Y-128483890D01*
X82434500Y-128545890D01*
X82434500Y-133897225D01*
X82433978Y-133908280D01*
X82432327Y-133915667D01*
X82432571Y-133923453D01*
X82432571Y-133923461D01*
X82434439Y-133982873D01*
X82434500Y-133986768D01*
X82434500Y-134014350D01*
X82434988Y-134018219D01*
X82434989Y-134018225D01*
X82435004Y-134018343D01*
X82435918Y-134029966D01*
X82437045Y-134065830D01*
X82437046Y-134065837D01*
X82437291Y-134073627D01*
X82439467Y-134081119D01*
X82439468Y-134081121D01*
X82442879Y-134092862D01*
X82446825Y-134111915D01*
X82448077Y-134121830D01*
X82449336Y-134131792D01*
X82452206Y-134139042D01*
X82452208Y-134139048D01*
X82465414Y-134172404D01*
X82469197Y-134183451D01*
X82481382Y-134225390D01*
X82485353Y-134232105D01*
X82485354Y-134232107D01*
X82491581Y-134242637D01*
X82500136Y-134260099D01*
X82504642Y-134271480D01*
X82504643Y-134271483D01*
X82507514Y-134278732D01*
X82529440Y-134308912D01*
X82533181Y-134314060D01*
X82539593Y-134323822D01*
X82557856Y-134354702D01*
X82557859Y-134354707D01*
X82561830Y-134361420D01*
X82567345Y-134366935D01*
X82575990Y-134375580D01*
X82588626Y-134390374D01*
X82595819Y-134400275D01*
X82595823Y-134400279D01*
X82600406Y-134406587D01*
X82606415Y-134411558D01*
X82606416Y-134411559D01*
X82634058Y-134434426D01*
X82642699Y-134442289D01*
X99812781Y-151612371D01*
X99839661Y-151652599D01*
X99849100Y-151700052D01*
X99849100Y-165639425D01*
X99848578Y-165650480D01*
X99846927Y-165657867D01*
X99847171Y-165665653D01*
X99847171Y-165665661D01*
X99849039Y-165725073D01*
X99849100Y-165728968D01*
X99849100Y-165756550D01*
X99849588Y-165760419D01*
X99849589Y-165760425D01*
X99849604Y-165760543D01*
X99850518Y-165772166D01*
X99851645Y-165808030D01*
X99851646Y-165808037D01*
X99851891Y-165815827D01*
X99854067Y-165823319D01*
X99854068Y-165823321D01*
X99857479Y-165835062D01*
X99861425Y-165854115D01*
X99863936Y-165873992D01*
X99866806Y-165881242D01*
X99866808Y-165881248D01*
X99880014Y-165914604D01*
X99883797Y-165925651D01*
X99895982Y-165967590D01*
X99899953Y-165974305D01*
X99899954Y-165974307D01*
X99906181Y-165984837D01*
X99914736Y-166002299D01*
X99919242Y-166013680D01*
X99919243Y-166013683D01*
X99922114Y-166020932D01*
X99944040Y-166051112D01*
X99947781Y-166056260D01*
X99954193Y-166066022D01*
X99972456Y-166096902D01*
X99972459Y-166096907D01*
X99976430Y-166103620D01*
X99981945Y-166109135D01*
X99990590Y-166117780D01*
X100003226Y-166132574D01*
X100010419Y-166142475D01*
X100010423Y-166142479D01*
X100015006Y-166148787D01*
X100021015Y-166153758D01*
X100021016Y-166153759D01*
X100048658Y-166176626D01*
X100057299Y-166184489D01*
X108140838Y-174268029D01*
X108170863Y-174316706D01*
X108175848Y-174373681D01*
X108154732Y-174426833D01*
X108049073Y-174577731D01*
X108049068Y-174577738D01*
X108045965Y-174582171D01*
X108043677Y-174587077D01*
X108043675Y-174587081D01*
X107948386Y-174791427D01*
X107948383Y-174791432D01*
X107946097Y-174796337D01*
X107944698Y-174801557D01*
X107944694Y-174801569D01*
X107886337Y-175019365D01*
X107886335Y-175019371D01*
X107884937Y-175024592D01*
X107864341Y-175260000D01*
X107884937Y-175495408D01*
X107886336Y-175500630D01*
X107886337Y-175500634D01*
X107944694Y-175718430D01*
X107944697Y-175718438D01*
X107946097Y-175723663D01*
X107948385Y-175728570D01*
X107948386Y-175728572D01*
X108043678Y-175932927D01*
X108043681Y-175932933D01*
X108045965Y-175937830D01*
X108049064Y-175942257D01*
X108049066Y-175942259D01*
X108178399Y-176126966D01*
X108178402Y-176126970D01*
X108181505Y-176131401D01*
X108348599Y-176298495D01*
X108353032Y-176301599D01*
X108353038Y-176301604D01*
X108534158Y-176428425D01*
X108573024Y-176472743D01*
X108587035Y-176530000D01*
X108573024Y-176587257D01*
X108534159Y-176631575D01*
X108353041Y-176758395D01*
X108348599Y-176761505D01*
X108344775Y-176765328D01*
X108344769Y-176765334D01*
X108185334Y-176924769D01*
X108185328Y-176924775D01*
X108181505Y-176928599D01*
X108178402Y-176933029D01*
X108178399Y-176933034D01*
X108049073Y-177117731D01*
X108049068Y-177117738D01*
X108045965Y-177122171D01*
X108043677Y-177127077D01*
X108043675Y-177127081D01*
X107948386Y-177331427D01*
X107948383Y-177331432D01*
X107946097Y-177336337D01*
X107944698Y-177341557D01*
X107944694Y-177341569D01*
X107886337Y-177559365D01*
X107886335Y-177559371D01*
X107884937Y-177564592D01*
X107864341Y-177800000D01*
X107864522Y-177802071D01*
X107851298Y-177857156D01*
X107813698Y-177901179D01*
X107760211Y-177923334D01*
X107702495Y-177918792D01*
X107653132Y-177888542D01*
X103416742Y-173652152D01*
X98985619Y-169221028D01*
X98958739Y-169180800D01*
X98949300Y-169133347D01*
X98949300Y-155198175D01*
X98949821Y-155187119D01*
X98951473Y-155179733D01*
X98949361Y-155112527D01*
X98949300Y-155108632D01*
X98949300Y-155084941D01*
X98949300Y-155081050D01*
X98948798Y-155077077D01*
X98947880Y-155065418D01*
X98946754Y-155029573D01*
X98946509Y-155021773D01*
X98940920Y-155002540D01*
X98936974Y-154983483D01*
X98935441Y-154971344D01*
X98934464Y-154963608D01*
X98918382Y-154922991D01*
X98914603Y-154911951D01*
X98904595Y-154877502D01*
X98904593Y-154877499D01*
X98902418Y-154870010D01*
X98892217Y-154852760D01*
X98883663Y-154835301D01*
X98876286Y-154816668D01*
X98850608Y-154781325D01*
X98844201Y-154771571D01*
X98825942Y-154740696D01*
X98825941Y-154740694D01*
X98821970Y-154733980D01*
X98807804Y-154719814D01*
X98795170Y-154705022D01*
X98783394Y-154688813D01*
X98777383Y-154683840D01*
X98777381Y-154683838D01*
X98749741Y-154660973D01*
X98741100Y-154653110D01*
X83400686Y-139312695D01*
X83393242Y-139304514D01*
X83389186Y-139298123D01*
X83340175Y-139252098D01*
X83337378Y-139249387D01*
X83320627Y-139232636D01*
X83320626Y-139232635D01*
X83317871Y-139229880D01*
X83314690Y-139227412D01*
X83305814Y-139219830D01*
X83279669Y-139195278D01*
X83279667Y-139195276D01*
X83273982Y-139189938D01*
X83267149Y-139186182D01*
X83267143Y-139186177D01*
X83256425Y-139180285D01*
X83240166Y-139169606D01*
X83230495Y-139162104D01*
X83230492Y-139162102D01*
X83224336Y-139157327D01*
X83217179Y-139154229D01*
X83217176Y-139154228D01*
X83184249Y-139139978D01*
X83173763Y-139134841D01*
X83142332Y-139117562D01*
X83142323Y-139117558D01*
X83135492Y-139113803D01*
X83127935Y-139111862D01*
X83127931Y-139111861D01*
X83116088Y-139108820D01*
X83097684Y-139102519D01*
X83086457Y-139097660D01*
X83086450Y-139097658D01*
X83079296Y-139094562D01*
X83071592Y-139093341D01*
X83071590Y-139093341D01*
X83036159Y-139087729D01*
X83024724Y-139085361D01*
X82989971Y-139076438D01*
X82989963Y-139076437D01*
X82982419Y-139074500D01*
X82974623Y-139074500D01*
X82962383Y-139074500D01*
X82942997Y-139072974D01*
X82923204Y-139069840D01*
X82915438Y-139070574D01*
X82915435Y-139070574D01*
X82879724Y-139073950D01*
X82868055Y-139074500D01*
X72893255Y-139074500D01*
X72845089Y-139064763D01*
X72804487Y-139037081D01*
X72777827Y-138995802D01*
X72746743Y-138916602D01*
X72611815Y-138682898D01*
X72443561Y-138471915D01*
X72296835Y-138335773D01*
X72249146Y-138291524D01*
X72249143Y-138291521D01*
X72245741Y-138288365D01*
X72241912Y-138285754D01*
X72241909Y-138285752D01*
X72029180Y-138140716D01*
X72022775Y-138136349D01*
X72006435Y-138128480D01*
X71783820Y-138021274D01*
X71783814Y-138021271D01*
X71779641Y-138019262D01*
X71775219Y-138017898D01*
X71775209Y-138017894D01*
X71526202Y-137941086D01*
X71526196Y-137941084D01*
X71521772Y-137939720D01*
X71517195Y-137939030D01*
X71517186Y-137939028D01*
X71259514Y-137900191D01*
X71259513Y-137900190D01*
X71254929Y-137899500D01*
X70985071Y-137899500D01*
X70980487Y-137900190D01*
X70980485Y-137900191D01*
X70722813Y-137939028D01*
X70722801Y-137939030D01*
X70718228Y-137939720D01*
X70713806Y-137941083D01*
X70713797Y-137941086D01*
X70464790Y-138017894D01*
X70464775Y-138017899D01*
X70460359Y-138019262D01*
X70456185Y-138021271D01*
X70456180Y-138021274D01*
X70221411Y-138134333D01*
X70221404Y-138134336D01*
X70217226Y-138136349D01*
X70213393Y-138138962D01*
X70213390Y-138138964D01*
X69998090Y-138285752D01*
X69998080Y-138285759D01*
X69994259Y-138288365D01*
X69990863Y-138291516D01*
X69990853Y-138291524D01*
X69799843Y-138468756D01*
X69799839Y-138468759D01*
X69796439Y-138471915D01*
X69793549Y-138475537D01*
X69793546Y-138475542D01*
X69715852Y-138572967D01*
X69628185Y-138682898D01*
X69625866Y-138686913D01*
X69625865Y-138686916D01*
X69495578Y-138912581D01*
X69495575Y-138912586D01*
X69493257Y-138916602D01*
X69491563Y-138920916D01*
X69491561Y-138920922D01*
X69396363Y-139163480D01*
X69394666Y-139167805D01*
X69393633Y-139172326D01*
X69393632Y-139172333D01*
X69335648Y-139426377D01*
X69335646Y-139426385D01*
X69334617Y-139430897D01*
X69334270Y-139435516D01*
X69334270Y-139435522D01*
X69314855Y-139694605D01*
X69314451Y-139700000D01*
X69314798Y-139704631D01*
X69333376Y-139952551D01*
X69334617Y-139969103D01*
X69335647Y-139973616D01*
X69335648Y-139973622D01*
X69376187Y-140151234D01*
X69394666Y-140232195D01*
X69396362Y-140236518D01*
X69396363Y-140236519D01*
X69491559Y-140479073D01*
X69493257Y-140483398D01*
X69628185Y-140717102D01*
X69796439Y-140928085D01*
X69994259Y-141111635D01*
X70217226Y-141263651D01*
X70460359Y-141380738D01*
X70464787Y-141382103D01*
X70464790Y-141382105D01*
X70589293Y-141420508D01*
X70718228Y-141460280D01*
X70985071Y-141500500D01*
X71250292Y-141500500D01*
X71254929Y-141500500D01*
X71521772Y-141460280D01*
X71779641Y-141380738D01*
X72022775Y-141263651D01*
X72245741Y-141111635D01*
X72443561Y-140928085D01*
X72611815Y-140717102D01*
X72746743Y-140483398D01*
X72777827Y-140404197D01*
X72804487Y-140362919D01*
X72845089Y-140335237D01*
X72893255Y-140325500D01*
X82592948Y-140325500D01*
X82640401Y-140334939D01*
X82680629Y-140361819D01*
X95920025Y-153601216D01*
X95950605Y-153651609D01*
X95954460Y-153710428D01*
X95930721Y-153764382D01*
X95884752Y-153801278D01*
X95872174Y-153807143D01*
X95872171Y-153807144D01*
X95867266Y-153809432D01*
X95862833Y-153812535D01*
X95862826Y-153812540D01*
X95685296Y-153936847D01*
X95685291Y-153936850D01*
X95680861Y-153939953D01*
X95677037Y-153943776D01*
X95677031Y-153943782D01*
X95523782Y-154097031D01*
X95523776Y-154097037D01*
X95519953Y-154100861D01*
X95516850Y-154105291D01*
X95516847Y-154105296D01*
X95407387Y-154261623D01*
X95363069Y-154300489D01*
X95305812Y-154314500D01*
X92654188Y-154314500D01*
X92596931Y-154300489D01*
X92552613Y-154261623D01*
X92443152Y-154105296D01*
X92440047Y-154100861D01*
X92279139Y-153939953D01*
X92092734Y-153809432D01*
X91886496Y-153713261D01*
X91881271Y-153711861D01*
X91881263Y-153711858D01*
X91671916Y-153655764D01*
X91671907Y-153655762D01*
X91666692Y-153654365D01*
X91661304Y-153653893D01*
X91661301Y-153653893D01*
X91445395Y-153635004D01*
X91440000Y-153634532D01*
X91434605Y-153635004D01*
X91218698Y-153653893D01*
X91218693Y-153653893D01*
X91213308Y-153654365D01*
X91208094Y-153655762D01*
X91208083Y-153655764D01*
X90998736Y-153711858D01*
X90998724Y-153711862D01*
X90993504Y-153713261D01*
X90988599Y-153715547D01*
X90988594Y-153715550D01*
X90792176Y-153807142D01*
X90792172Y-153807144D01*
X90787266Y-153809432D01*
X90782833Y-153812535D01*
X90782826Y-153812540D01*
X90605296Y-153936847D01*
X90605291Y-153936850D01*
X90600861Y-153939953D01*
X90597037Y-153943776D01*
X90597031Y-153943782D01*
X90443782Y-154097031D01*
X90443776Y-154097037D01*
X90439953Y-154100861D01*
X90436850Y-154105291D01*
X90436847Y-154105296D01*
X90312540Y-154282826D01*
X90312535Y-154282833D01*
X90309432Y-154287266D01*
X90307144Y-154292172D01*
X90307142Y-154292176D01*
X90215550Y-154488594D01*
X90215547Y-154488599D01*
X90213261Y-154493504D01*
X90211862Y-154498724D01*
X90211858Y-154498736D01*
X90155764Y-154708083D01*
X90155762Y-154708094D01*
X90154365Y-154713308D01*
X90153893Y-154718693D01*
X90153893Y-154718698D01*
X90148827Y-154776603D01*
X90134532Y-154940000D01*
X90135004Y-154945395D01*
X90151424Y-155133085D01*
X90154365Y-155166692D01*
X90155762Y-155171907D01*
X90155764Y-155171916D01*
X90211858Y-155381263D01*
X90211861Y-155381271D01*
X90213261Y-155386496D01*
X90309432Y-155592734D01*
X90439953Y-155779139D01*
X90600861Y-155940047D01*
X90699487Y-156009105D01*
X90761623Y-156052613D01*
X90800489Y-156096931D01*
X90814500Y-156154188D01*
X90814500Y-166532247D01*
X90805061Y-166579700D01*
X90778181Y-166619928D01*
X87774347Y-169623760D01*
X87723954Y-169654340D01*
X87665134Y-169658195D01*
X87611180Y-169634455D01*
X87574284Y-169588484D01*
X87536325Y-169507081D01*
X87536322Y-169507077D01*
X87534035Y-169502171D01*
X87398495Y-169308599D01*
X87231401Y-169141505D01*
X87226968Y-169138401D01*
X87226961Y-169138395D01*
X87045842Y-169011575D01*
X87006976Y-168967257D01*
X86992965Y-168910000D01*
X87006976Y-168852743D01*
X87045842Y-168808425D01*
X87226961Y-168681604D01*
X87226961Y-168681603D01*
X87231401Y-168678495D01*
X87398495Y-168511401D01*
X87534035Y-168317830D01*
X87633903Y-168103663D01*
X87695063Y-167875408D01*
X87715659Y-167640000D01*
X87695063Y-167404592D01*
X87633903Y-167176337D01*
X87534035Y-166962171D01*
X87398495Y-166768599D01*
X87231401Y-166601505D01*
X87226968Y-166598401D01*
X87226961Y-166598395D01*
X87045842Y-166471575D01*
X87006976Y-166427257D01*
X86992965Y-166370000D01*
X87006976Y-166312743D01*
X87045842Y-166268425D01*
X87226961Y-166141604D01*
X87226961Y-166141603D01*
X87231401Y-166138495D01*
X87398495Y-165971401D01*
X87534035Y-165777830D01*
X87633903Y-165563663D01*
X87695063Y-165335408D01*
X87715659Y-165100000D01*
X87695063Y-164864592D01*
X87633903Y-164636337D01*
X87534035Y-164422171D01*
X87398495Y-164228599D01*
X87231401Y-164061505D01*
X87226970Y-164058402D01*
X87226966Y-164058399D01*
X87045841Y-163931574D01*
X87006976Y-163887256D01*
X86992965Y-163829999D01*
X87006976Y-163772742D01*
X87045839Y-163728426D01*
X87231401Y-163598495D01*
X87398495Y-163431401D01*
X87534035Y-163237830D01*
X87633903Y-163023663D01*
X87695063Y-162795408D01*
X87715659Y-162560000D01*
X87695063Y-162324592D01*
X87633903Y-162096337D01*
X87534035Y-161882171D01*
X87398495Y-161688599D01*
X87231401Y-161521505D01*
X87226968Y-161518401D01*
X87226961Y-161518395D01*
X87045842Y-161391575D01*
X87006976Y-161347257D01*
X86992965Y-161290000D01*
X87006976Y-161232743D01*
X87045842Y-161188425D01*
X87226961Y-161061604D01*
X87226961Y-161061603D01*
X87231401Y-161058495D01*
X87398495Y-160891401D01*
X87534035Y-160697830D01*
X87633903Y-160483663D01*
X87695063Y-160255408D01*
X87715659Y-160020000D01*
X87695063Y-159784592D01*
X87637885Y-159571197D01*
X87635305Y-159561569D01*
X87635304Y-159561567D01*
X87633903Y-159556337D01*
X87534035Y-159342171D01*
X87398495Y-159148599D01*
X87231401Y-158981505D01*
X87226970Y-158978402D01*
X87226966Y-158978399D01*
X87042259Y-158849066D01*
X87042257Y-158849064D01*
X87037830Y-158845965D01*
X87032933Y-158843681D01*
X87032927Y-158843678D01*
X86828572Y-158748386D01*
X86828570Y-158748385D01*
X86823663Y-158746097D01*
X86818438Y-158744697D01*
X86818430Y-158744694D01*
X86600634Y-158686337D01*
X86600630Y-158686336D01*
X86595408Y-158684937D01*
X86590020Y-158684465D01*
X86590017Y-158684465D01*
X86365395Y-158664813D01*
X86360000Y-158664341D01*
X86354605Y-158664813D01*
X86129982Y-158684465D01*
X86129977Y-158684465D01*
X86124592Y-158684937D01*
X86119371Y-158686335D01*
X86119365Y-158686337D01*
X85901569Y-158744694D01*
X85901557Y-158744698D01*
X85896337Y-158746097D01*
X85891432Y-158748383D01*
X85891427Y-158748386D01*
X85687081Y-158843675D01*
X85687077Y-158843677D01*
X85682171Y-158845965D01*
X85677738Y-158849068D01*
X85677731Y-158849073D01*
X85493034Y-158978399D01*
X85493029Y-158978402D01*
X85488599Y-158981505D01*
X85484775Y-158985328D01*
X85484769Y-158985334D01*
X85325334Y-159144769D01*
X85325328Y-159144775D01*
X85321505Y-159148599D01*
X85318403Y-159153028D01*
X85318403Y-159153029D01*
X85191269Y-159334596D01*
X85146951Y-159373462D01*
X85089693Y-159387472D01*
X85032436Y-159373461D01*
X84988118Y-159334595D01*
X84942711Y-159269746D01*
X84934603Y-159262316D01*
X84925324Y-159268227D01*
X84185095Y-160008457D01*
X84178431Y-160020000D01*
X84185095Y-160031542D01*
X84925321Y-160771768D01*
X84934603Y-160777681D01*
X84942715Y-160770248D01*
X84988120Y-160705405D01*
X85032438Y-160666539D01*
X85089694Y-160652529D01*
X85146951Y-160666540D01*
X85191269Y-160705405D01*
X85318399Y-160886966D01*
X85318402Y-160886970D01*
X85321505Y-160891401D01*
X85488599Y-161058495D01*
X85493032Y-161061599D01*
X85493038Y-161061604D01*
X85674158Y-161188425D01*
X85713024Y-161232743D01*
X85727035Y-161290000D01*
X85713024Y-161347257D01*
X85674159Y-161391575D01*
X85493041Y-161518395D01*
X85488599Y-161521505D01*
X85484775Y-161525328D01*
X85484769Y-161525334D01*
X85325334Y-161684769D01*
X85325328Y-161684775D01*
X85321505Y-161688599D01*
X85318403Y-161693028D01*
X85318403Y-161693029D01*
X85191574Y-161874160D01*
X85147256Y-161913025D01*
X85089999Y-161927036D01*
X85032742Y-161913025D01*
X84988426Y-161874161D01*
X84858495Y-161688599D01*
X84691401Y-161521505D01*
X84686970Y-161518402D01*
X84686966Y-161518399D01*
X84505405Y-161391269D01*
X84466540Y-161346951D01*
X84452529Y-161289694D01*
X84466539Y-161232438D01*
X84505405Y-161188120D01*
X84570248Y-161142715D01*
X84577681Y-161134603D01*
X84571768Y-161125321D01*
X83831542Y-160385095D01*
X83820000Y-160378431D01*
X83808457Y-160385095D01*
X83068230Y-161125321D01*
X83062316Y-161134604D01*
X83069749Y-161142715D01*
X83134594Y-161188120D01*
X83173460Y-161232438D01*
X83187471Y-161289695D01*
X83173460Y-161346952D01*
X83134594Y-161391270D01*
X82953034Y-161518399D01*
X82953029Y-161518402D01*
X82948599Y-161521505D01*
X82944775Y-161525328D01*
X82944769Y-161525334D01*
X82785334Y-161684769D01*
X82785328Y-161684775D01*
X82781505Y-161688599D01*
X82778402Y-161693029D01*
X82778399Y-161693034D01*
X82649073Y-161877731D01*
X82649068Y-161877738D01*
X82645965Y-161882171D01*
X82643677Y-161887077D01*
X82643675Y-161887081D01*
X82548386Y-162091427D01*
X82548383Y-162091432D01*
X82546097Y-162096337D01*
X82544698Y-162101557D01*
X82544694Y-162101569D01*
X82486337Y-162319365D01*
X82486335Y-162319371D01*
X82484937Y-162324592D01*
X82464341Y-162560000D01*
X82484937Y-162795408D01*
X82486336Y-162800630D01*
X82486337Y-162800634D01*
X82544694Y-163018430D01*
X82544697Y-163018438D01*
X82546097Y-163023663D01*
X82548385Y-163028570D01*
X82548386Y-163028572D01*
X82643678Y-163232927D01*
X82643681Y-163232933D01*
X82645965Y-163237830D01*
X82649064Y-163242257D01*
X82649066Y-163242259D01*
X82778399Y-163426966D01*
X82778402Y-163426970D01*
X82781505Y-163431401D01*
X82948599Y-163598495D01*
X82953032Y-163601599D01*
X82953038Y-163601604D01*
X83134158Y-163728425D01*
X83173024Y-163772743D01*
X83187035Y-163830000D01*
X83173024Y-163887257D01*
X83134160Y-163931574D01*
X82948599Y-164061505D01*
X82944775Y-164065328D01*
X82944769Y-164065334D01*
X82785334Y-164224769D01*
X82785328Y-164224775D01*
X82781505Y-164228599D01*
X82778402Y-164233029D01*
X82778399Y-164233034D01*
X82649073Y-164417731D01*
X82649068Y-164417738D01*
X82645965Y-164422171D01*
X82643677Y-164427077D01*
X82643675Y-164427081D01*
X82548386Y-164631427D01*
X82548383Y-164631432D01*
X82546097Y-164636337D01*
X82544698Y-164641557D01*
X82544694Y-164641569D01*
X82486337Y-164859365D01*
X82486335Y-164859371D01*
X82484937Y-164864592D01*
X82464341Y-165100000D01*
X82464813Y-165105395D01*
X82481122Y-165291810D01*
X82484937Y-165335408D01*
X82486336Y-165340630D01*
X82486337Y-165340634D01*
X82544694Y-165558430D01*
X82544697Y-165558438D01*
X82546097Y-165563663D01*
X82548385Y-165568570D01*
X82548386Y-165568572D01*
X82643678Y-165772927D01*
X82643681Y-165772933D01*
X82645965Y-165777830D01*
X82649064Y-165782257D01*
X82649066Y-165782259D01*
X82778399Y-165966966D01*
X82778402Y-165966970D01*
X82781505Y-165971401D01*
X82948599Y-166138495D01*
X82953032Y-166141599D01*
X82953038Y-166141604D01*
X83134158Y-166268425D01*
X83173024Y-166312743D01*
X83187035Y-166370000D01*
X83173024Y-166427257D01*
X83134159Y-166471575D01*
X82953041Y-166598395D01*
X82948599Y-166601505D01*
X82944775Y-166605328D01*
X82944769Y-166605334D01*
X82785334Y-166764769D01*
X82785328Y-166764775D01*
X82781505Y-166768599D01*
X82778402Y-166773029D01*
X82778399Y-166773034D01*
X82649073Y-166957731D01*
X82649068Y-166957738D01*
X82645965Y-166962171D01*
X82643677Y-166967077D01*
X82643675Y-166967081D01*
X82548386Y-167171427D01*
X82548383Y-167171432D01*
X82546097Y-167176337D01*
X82544698Y-167181557D01*
X82544694Y-167181569D01*
X82486337Y-167399365D01*
X82486335Y-167399371D01*
X82484937Y-167404592D01*
X82464341Y-167640000D01*
X82464522Y-167642071D01*
X82451298Y-167697155D01*
X82413698Y-167741178D01*
X82360211Y-167763333D01*
X82302495Y-167758791D01*
X82253132Y-167728541D01*
X79237286Y-164712695D01*
X79229842Y-164704514D01*
X79225786Y-164698123D01*
X79176775Y-164652098D01*
X79173978Y-164649387D01*
X79157227Y-164632636D01*
X79154471Y-164629880D01*
X79151290Y-164627412D01*
X79142414Y-164619830D01*
X79116269Y-164595278D01*
X79116267Y-164595276D01*
X79110582Y-164589938D01*
X79103749Y-164586182D01*
X79103743Y-164586177D01*
X79093025Y-164580285D01*
X79076766Y-164569606D01*
X79067095Y-164562104D01*
X79067092Y-164562102D01*
X79060936Y-164557327D01*
X79053779Y-164554229D01*
X79053776Y-164554228D01*
X79020849Y-164539978D01*
X79010363Y-164534841D01*
X78978932Y-164517562D01*
X78978923Y-164517558D01*
X78972092Y-164513803D01*
X78964535Y-164511862D01*
X78964531Y-164511861D01*
X78952688Y-164508820D01*
X78934284Y-164502519D01*
X78923057Y-164497660D01*
X78923050Y-164497658D01*
X78915896Y-164494562D01*
X78908192Y-164493341D01*
X78908190Y-164493341D01*
X78872759Y-164487729D01*
X78861324Y-164485361D01*
X78826571Y-164476438D01*
X78826563Y-164476437D01*
X78819019Y-164474500D01*
X78811223Y-164474500D01*
X78798983Y-164474500D01*
X78779597Y-164472974D01*
X78759804Y-164469840D01*
X78752038Y-164470574D01*
X78752035Y-164470574D01*
X78716324Y-164473950D01*
X78704655Y-164474500D01*
X72893255Y-164474500D01*
X72845089Y-164464763D01*
X72804487Y-164437081D01*
X72777827Y-164395802D01*
X72748440Y-164320926D01*
X72748438Y-164320922D01*
X72746743Y-164316602D01*
X72611815Y-164082898D01*
X72443561Y-163871915D01*
X72294962Y-163734035D01*
X72249146Y-163691524D01*
X72249143Y-163691521D01*
X72245741Y-163688365D01*
X72241912Y-163685754D01*
X72241909Y-163685752D01*
X72026610Y-163538964D01*
X72022775Y-163536349D01*
X72018589Y-163534333D01*
X71783820Y-163421274D01*
X71783814Y-163421271D01*
X71779641Y-163419262D01*
X71775219Y-163417898D01*
X71775209Y-163417894D01*
X71526202Y-163341086D01*
X71526196Y-163341084D01*
X71521772Y-163339720D01*
X71517195Y-163339030D01*
X71517186Y-163339028D01*
X71259514Y-163300191D01*
X71259513Y-163300190D01*
X71254929Y-163299500D01*
X70985071Y-163299500D01*
X70980487Y-163300190D01*
X70980485Y-163300191D01*
X70722813Y-163339028D01*
X70722801Y-163339030D01*
X70718228Y-163339720D01*
X70713806Y-163341083D01*
X70713797Y-163341086D01*
X70464790Y-163417894D01*
X70464775Y-163417899D01*
X70460359Y-163419262D01*
X70456185Y-163421271D01*
X70456180Y-163421274D01*
X70221411Y-163534333D01*
X70221404Y-163534336D01*
X70217226Y-163536349D01*
X70213393Y-163538962D01*
X70213390Y-163538964D01*
X69998090Y-163685752D01*
X69998080Y-163685759D01*
X69994259Y-163688365D01*
X69990863Y-163691516D01*
X69990853Y-163691524D01*
X69799843Y-163868756D01*
X69799839Y-163868759D01*
X69796439Y-163871915D01*
X69793549Y-163875537D01*
X69793546Y-163875542D01*
X69642190Y-164065336D01*
X69628185Y-164082898D01*
X69625866Y-164086913D01*
X69625865Y-164086916D01*
X69495578Y-164312581D01*
X69495575Y-164312586D01*
X69493257Y-164316602D01*
X69491563Y-164320916D01*
X69491561Y-164320922D01*
X69396363Y-164563480D01*
X69394666Y-164567805D01*
X69393633Y-164572326D01*
X69393632Y-164572333D01*
X69335648Y-164826377D01*
X69335646Y-164826385D01*
X69334617Y-164830897D01*
X69334270Y-164835516D01*
X69334270Y-164835522D01*
X69332092Y-164864592D01*
X69314451Y-165100000D01*
X66040500Y-165100000D01*
X66040500Y-161364578D01*
X69319500Y-161364578D01*
X69319501Y-161367872D01*
X69319853Y-161371150D01*
X69319854Y-161371161D01*
X69325079Y-161419768D01*
X69325080Y-161419773D01*
X69325909Y-161427483D01*
X69328619Y-161434749D01*
X69328620Y-161434753D01*
X69359817Y-161518395D01*
X69376204Y-161562331D01*
X69462454Y-161677546D01*
X69577669Y-161763796D01*
X69712517Y-161814091D01*
X69772127Y-161820500D01*
X72467872Y-161820499D01*
X72527483Y-161814091D01*
X72662331Y-161763796D01*
X72777546Y-161677546D01*
X72863796Y-161562331D01*
X72914091Y-161427483D01*
X72920500Y-161367873D01*
X72920500Y-160025395D01*
X82465315Y-160025395D01*
X82484958Y-160249922D01*
X82486833Y-160260553D01*
X82545168Y-160478263D01*
X82548856Y-160488397D01*
X82644110Y-160692668D01*
X82649508Y-160702018D01*
X82697284Y-160770249D01*
X82705395Y-160777682D01*
X82714674Y-160771771D01*
X83454904Y-160031542D01*
X83461568Y-160019999D01*
X83454904Y-160008457D01*
X82714674Y-159268227D01*
X82705396Y-159262316D01*
X82697283Y-159269750D01*
X82649505Y-159337986D01*
X82644111Y-159347330D01*
X82548856Y-159551602D01*
X82545168Y-159561736D01*
X82486833Y-159779446D01*
X82484958Y-159790077D01*
X82465315Y-160014605D01*
X82465315Y-160025395D01*
X72920500Y-160025395D01*
X72920499Y-158905396D01*
X83062316Y-158905396D01*
X83068227Y-158914674D01*
X83808457Y-159654904D01*
X83820000Y-159661568D01*
X83831542Y-159654904D01*
X84571771Y-158914674D01*
X84577682Y-158905395D01*
X84570249Y-158897284D01*
X84502018Y-158849508D01*
X84492668Y-158844110D01*
X84288397Y-158748856D01*
X84278263Y-158745168D01*
X84060553Y-158686833D01*
X84049922Y-158684958D01*
X83825395Y-158665315D01*
X83814605Y-158665315D01*
X83590077Y-158684958D01*
X83579446Y-158686833D01*
X83361736Y-158745168D01*
X83351602Y-158748856D01*
X83147330Y-158844111D01*
X83137986Y-158849505D01*
X83069750Y-158897283D01*
X83062316Y-158905396D01*
X72920499Y-158905396D01*
X72920499Y-158672128D01*
X72914091Y-158612517D01*
X72863796Y-158477669D01*
X72777546Y-158362454D01*
X72662331Y-158276204D01*
X72527483Y-158225909D01*
X72519770Y-158225079D01*
X72519767Y-158225079D01*
X72471180Y-158219855D01*
X72471169Y-158219854D01*
X72467873Y-158219500D01*
X72464550Y-158219500D01*
X69775439Y-158219500D01*
X69775420Y-158219500D01*
X69772128Y-158219501D01*
X69768850Y-158219853D01*
X69768838Y-158219854D01*
X69720231Y-158225079D01*
X69720225Y-158225080D01*
X69712517Y-158225909D01*
X69705252Y-158228618D01*
X69705246Y-158228620D01*
X69585980Y-158273104D01*
X69585978Y-158273104D01*
X69577669Y-158276204D01*
X69570572Y-158281516D01*
X69570568Y-158281519D01*
X69469550Y-158357141D01*
X69469546Y-158357144D01*
X69462454Y-158362454D01*
X69457144Y-158369546D01*
X69457141Y-158369550D01*
X69381519Y-158470568D01*
X69381516Y-158470572D01*
X69376204Y-158477669D01*
X69373104Y-158485978D01*
X69373104Y-158485980D01*
X69328620Y-158605247D01*
X69328619Y-158605250D01*
X69325909Y-158612517D01*
X69325079Y-158620227D01*
X69325079Y-158620232D01*
X69319855Y-158668819D01*
X69319854Y-158668831D01*
X69319500Y-158672127D01*
X69319500Y-158675448D01*
X69319500Y-158675449D01*
X69319500Y-161364560D01*
X69319500Y-161364578D01*
X66040500Y-161364578D01*
X66040500Y-151977112D01*
X83486236Y-151977112D01*
X83486929Y-151988397D01*
X83524672Y-152112817D01*
X83529313Y-152124023D01*
X83618749Y-152291344D01*
X83625483Y-152301422D01*
X83745845Y-152448085D01*
X83754414Y-152456654D01*
X83901077Y-152577016D01*
X83911155Y-152583750D01*
X84078476Y-152673186D01*
X84089682Y-152677827D01*
X84271234Y-152732901D01*
X84283129Y-152735267D01*
X84424604Y-152749201D01*
X84430689Y-152749500D01*
X84436674Y-152749500D01*
X84449549Y-152746049D01*
X84453000Y-152733174D01*
X84953000Y-152733174D01*
X84956450Y-152746049D01*
X84969326Y-152749500D01*
X84975311Y-152749500D01*
X84981395Y-152749201D01*
X85122870Y-152735267D01*
X85134765Y-152732901D01*
X85316317Y-152677827D01*
X85327523Y-152673186D01*
X85494844Y-152583750D01*
X85504922Y-152577016D01*
X85651585Y-152456654D01*
X85660154Y-152448085D01*
X85780516Y-152301422D01*
X85787250Y-152291344D01*
X85876686Y-152124023D01*
X85881327Y-152112817D01*
X85919070Y-151988397D01*
X85919763Y-151977112D01*
X85908762Y-151974500D01*
X84969326Y-151974500D01*
X84956450Y-151977950D01*
X84953000Y-151990826D01*
X84953000Y-152733174D01*
X84453000Y-152733174D01*
X84453000Y-151990826D01*
X84449549Y-151977950D01*
X84436674Y-151974500D01*
X83497238Y-151974500D01*
X83486236Y-151977112D01*
X66040500Y-151977112D01*
X66040500Y-151298350D01*
X70038604Y-151298350D01*
X70046150Y-151306408D01*
X70213641Y-151420601D01*
X70221662Y-151425232D01*
X70456362Y-151538258D01*
X70464973Y-151541638D01*
X70713908Y-151618424D01*
X70722924Y-151620482D01*
X70980523Y-151659308D01*
X70989746Y-151660000D01*
X71250254Y-151660000D01*
X71259476Y-151659308D01*
X71517075Y-151620482D01*
X71526091Y-151618424D01*
X71775027Y-151541637D01*
X71783637Y-151538258D01*
X72018340Y-151425231D01*
X72026359Y-151420601D01*
X72193846Y-151306409D01*
X72201394Y-151298350D01*
X72195477Y-151289030D01*
X71131542Y-150225095D01*
X71119999Y-150218431D01*
X71108457Y-150225095D01*
X70044521Y-151289030D01*
X70038604Y-151298350D01*
X66040500Y-151298350D01*
X66040500Y-149864630D01*
X69315300Y-149864630D01*
X69334767Y-150124399D01*
X69336146Y-150133552D01*
X69394111Y-150387515D01*
X69396844Y-150396375D01*
X69492011Y-150638856D01*
X69496030Y-150647202D01*
X69626278Y-150872798D01*
X69631496Y-150880450D01*
X69671379Y-150930462D01*
X69682615Y-150938435D01*
X69694674Y-150931771D01*
X70754904Y-149871542D01*
X70761568Y-149860000D01*
X71478431Y-149860000D01*
X71485095Y-149871542D01*
X72545325Y-150931772D01*
X72557382Y-150938436D01*
X72568619Y-150930463D01*
X72608507Y-150880445D01*
X72613719Y-150872800D01*
X72743969Y-150647202D01*
X72747988Y-150638856D01*
X72820343Y-150454500D01*
X83447538Y-150454500D01*
X83448135Y-150460561D01*
X83466740Y-150649468D01*
X83466741Y-150649474D01*
X83467338Y-150655533D01*
X83469105Y-150661358D01*
X83469106Y-150661363D01*
X83524209Y-150843013D01*
X83525977Y-150848841D01*
X83528846Y-150854209D01*
X83528848Y-150854213D01*
X83621202Y-151026994D01*
X83620557Y-151027338D01*
X83636469Y-151065755D01*
X83636474Y-151114123D01*
X83620847Y-151151872D01*
X83621620Y-151152285D01*
X83529313Y-151324976D01*
X83524672Y-151336182D01*
X83486929Y-151460602D01*
X83486236Y-151471887D01*
X83497238Y-151474500D01*
X84365685Y-151474500D01*
X84377838Y-151475096D01*
X84427620Y-151480000D01*
X84975330Y-151480000D01*
X84978380Y-151480000D01*
X85028161Y-151475096D01*
X85040315Y-151474500D01*
X85908762Y-151474500D01*
X85919763Y-151471887D01*
X85919070Y-151460602D01*
X85881327Y-151336182D01*
X85876686Y-151324976D01*
X85784380Y-151152285D01*
X85785156Y-151151869D01*
X85769527Y-151114139D01*
X85769531Y-151065744D01*
X85785446Y-151027340D01*
X85784798Y-151026994D01*
X85805098Y-150989015D01*
X85880023Y-150848841D01*
X85938662Y-150655533D01*
X85958462Y-150454500D01*
X85938662Y-150253467D01*
X85880023Y-150060159D01*
X85881682Y-150059655D01*
X85874197Y-150015912D01*
X85889188Y-149963129D01*
X85891478Y-149958934D01*
X85896796Y-149951831D01*
X85947091Y-149816983D01*
X85953500Y-149757373D01*
X85953499Y-148611628D01*
X85947091Y-148552017D01*
X85896796Y-148417169D01*
X85810546Y-148301954D01*
X85695331Y-148215704D01*
X85624965Y-148189459D01*
X85567752Y-148168120D01*
X85567750Y-148168119D01*
X85560483Y-148165409D01*
X85552770Y-148164579D01*
X85552767Y-148164579D01*
X85504180Y-148159355D01*
X85504169Y-148159354D01*
X85500873Y-148159000D01*
X85497550Y-148159000D01*
X83908439Y-148159000D01*
X83908420Y-148159000D01*
X83905128Y-148159001D01*
X83901850Y-148159353D01*
X83901838Y-148159354D01*
X83853231Y-148164579D01*
X83853225Y-148164580D01*
X83845517Y-148165409D01*
X83838252Y-148168118D01*
X83838246Y-148168120D01*
X83718980Y-148212604D01*
X83718978Y-148212604D01*
X83710669Y-148215704D01*
X83703572Y-148221016D01*
X83703568Y-148221019D01*
X83602550Y-148296641D01*
X83602546Y-148296644D01*
X83595454Y-148301954D01*
X83590144Y-148309046D01*
X83590141Y-148309050D01*
X83514519Y-148410068D01*
X83514516Y-148410072D01*
X83509204Y-148417169D01*
X83506104Y-148425478D01*
X83506104Y-148425480D01*
X83461620Y-148544747D01*
X83461619Y-148544750D01*
X83458909Y-148552017D01*
X83458079Y-148559727D01*
X83458079Y-148559732D01*
X83452855Y-148608319D01*
X83452854Y-148608331D01*
X83452500Y-148611627D01*
X83452500Y-148614948D01*
X83452500Y-148614949D01*
X83452500Y-149754060D01*
X83452500Y-149754078D01*
X83452501Y-149757372D01*
X83452853Y-149760650D01*
X83452854Y-149760661D01*
X83458079Y-149809268D01*
X83458080Y-149809273D01*
X83458909Y-149816983D01*
X83461619Y-149824249D01*
X83461620Y-149824253D01*
X83506104Y-149943521D01*
X83506105Y-149943524D01*
X83509204Y-149951831D01*
X83514516Y-149958928D01*
X83516814Y-149963135D01*
X83531801Y-150015897D01*
X83524322Y-150059657D01*
X83525977Y-150060159D01*
X83469106Y-150247636D01*
X83469104Y-150247643D01*
X83467338Y-150253467D01*
X83466741Y-150259523D01*
X83466740Y-150259531D01*
X83454135Y-150387515D01*
X83447538Y-150454500D01*
X72820343Y-150454500D01*
X72843155Y-150396375D01*
X72845888Y-150387515D01*
X72903853Y-150133552D01*
X72905232Y-150124399D01*
X72924700Y-149864630D01*
X72924700Y-149855370D01*
X72905232Y-149595600D01*
X72903853Y-149586447D01*
X72845888Y-149332484D01*
X72843155Y-149323624D01*
X72747988Y-149081143D01*
X72743969Y-149072797D01*
X72613721Y-148847201D01*
X72608503Y-148839549D01*
X72568619Y-148789536D01*
X72557382Y-148781562D01*
X72545325Y-148788226D01*
X71485095Y-149848457D01*
X71478431Y-149860000D01*
X70761568Y-149860000D01*
X70754904Y-149848457D01*
X69694674Y-148788227D01*
X69682615Y-148781562D01*
X69671380Y-148789534D01*
X69631488Y-148839558D01*
X69626282Y-148847195D01*
X69496030Y-149072797D01*
X69492011Y-149081143D01*
X69396844Y-149323624D01*
X69394111Y-149332484D01*
X69336146Y-149586447D01*
X69334767Y-149595600D01*
X69315300Y-149855370D01*
X69315300Y-149864630D01*
X66040500Y-149864630D01*
X66040500Y-148421648D01*
X70038603Y-148421648D01*
X70044519Y-148430966D01*
X71108457Y-149494904D01*
X71120000Y-149501568D01*
X71131542Y-149494904D01*
X72195477Y-148430968D01*
X72201394Y-148421648D01*
X72193846Y-148413589D01*
X72026360Y-148299398D01*
X72018340Y-148294768D01*
X71783637Y-148181741D01*
X71775027Y-148178362D01*
X71526091Y-148101575D01*
X71517075Y-148099517D01*
X71259476Y-148060691D01*
X71250254Y-148060000D01*
X70989746Y-148060000D01*
X70980523Y-148060691D01*
X70722924Y-148099517D01*
X70713908Y-148101575D01*
X70464973Y-148178361D01*
X70456362Y-148181741D01*
X70221660Y-148294768D01*
X70213639Y-148299399D01*
X70046151Y-148413590D01*
X70038603Y-148421648D01*
X66040500Y-148421648D01*
X66040500Y-144780000D01*
X69314451Y-144780000D01*
X69334617Y-145049103D01*
X69335647Y-145053616D01*
X69335648Y-145053622D01*
X69388991Y-145287331D01*
X69394666Y-145312195D01*
X69396362Y-145316518D01*
X69396363Y-145316519D01*
X69463977Y-145488796D01*
X69493257Y-145563398D01*
X69628185Y-145797102D01*
X69796439Y-146008085D01*
X69994259Y-146191635D01*
X70217226Y-146343651D01*
X70460359Y-146460738D01*
X70464787Y-146462103D01*
X70464790Y-146462105D01*
X70589293Y-146500509D01*
X70718228Y-146540280D01*
X70985071Y-146580500D01*
X71250292Y-146580500D01*
X71254929Y-146580500D01*
X71521772Y-146540280D01*
X71779641Y-146460738D01*
X72022775Y-146343651D01*
X72245741Y-146191635D01*
X72443561Y-146008085D01*
X72611815Y-145797102D01*
X72746743Y-145563398D01*
X72845334Y-145312195D01*
X72905383Y-145049103D01*
X72925549Y-144780000D01*
X72905383Y-144510897D01*
X72845334Y-144247805D01*
X72746743Y-143996602D01*
X72611815Y-143762898D01*
X72443561Y-143551915D01*
X72245741Y-143368365D01*
X72241912Y-143365754D01*
X72241909Y-143365752D01*
X72026610Y-143218964D01*
X72022775Y-143216349D01*
X72018589Y-143214333D01*
X71783820Y-143101274D01*
X71783814Y-143101271D01*
X71779641Y-143099262D01*
X71775219Y-143097898D01*
X71775209Y-143097894D01*
X71526202Y-143021086D01*
X71526196Y-143021084D01*
X71521772Y-143019720D01*
X71517195Y-143019030D01*
X71517186Y-143019028D01*
X71259514Y-142980191D01*
X71259513Y-142980190D01*
X71254929Y-142979500D01*
X70985071Y-142979500D01*
X70980487Y-142980190D01*
X70980485Y-142980191D01*
X70722813Y-143019028D01*
X70722801Y-143019030D01*
X70718228Y-143019720D01*
X70713806Y-143021083D01*
X70713797Y-143021086D01*
X70464790Y-143097894D01*
X70464775Y-143097899D01*
X70460359Y-143099262D01*
X70456185Y-143101271D01*
X70456180Y-143101274D01*
X70221411Y-143214333D01*
X70221404Y-143214336D01*
X70217226Y-143216349D01*
X70213393Y-143218962D01*
X70213390Y-143218964D01*
X69998090Y-143365752D01*
X69998080Y-143365759D01*
X69994259Y-143368365D01*
X69990863Y-143371516D01*
X69990853Y-143371524D01*
X69799843Y-143548756D01*
X69799839Y-143548759D01*
X69796439Y-143551915D01*
X69793549Y-143555537D01*
X69793546Y-143555542D01*
X69631077Y-143759271D01*
X69628185Y-143762898D01*
X69625866Y-143766913D01*
X69625865Y-143766916D01*
X69495578Y-143992581D01*
X69495575Y-143992586D01*
X69493257Y-143996602D01*
X69491563Y-144000916D01*
X69491561Y-144000922D01*
X69396363Y-144243480D01*
X69394666Y-144247805D01*
X69393633Y-144252326D01*
X69393632Y-144252333D01*
X69335648Y-144506377D01*
X69335646Y-144506385D01*
X69334617Y-144510897D01*
X69314451Y-144780000D01*
X66040500Y-144780000D01*
X66040500Y-122610796D01*
X68864540Y-122610796D01*
X68865274Y-122618561D01*
X68865274Y-122618564D01*
X68868650Y-122654276D01*
X68869200Y-122665945D01*
X68869200Y-131291625D01*
X68868678Y-131302680D01*
X68867027Y-131310067D01*
X68867271Y-131317853D01*
X68867271Y-131317861D01*
X68869139Y-131377273D01*
X68869200Y-131381168D01*
X68869200Y-131408750D01*
X68869688Y-131412619D01*
X68869689Y-131412625D01*
X68869704Y-131412743D01*
X68870618Y-131424366D01*
X68871745Y-131460230D01*
X68871746Y-131460237D01*
X68871991Y-131468027D01*
X68874167Y-131475519D01*
X68874168Y-131475521D01*
X68877579Y-131487262D01*
X68881525Y-131506315D01*
X68884036Y-131526192D01*
X68886906Y-131533442D01*
X68886908Y-131533448D01*
X68900114Y-131566804D01*
X68903897Y-131577851D01*
X68916082Y-131619790D01*
X68920053Y-131626505D01*
X68920054Y-131626507D01*
X68926281Y-131637037D01*
X68934836Y-131654499D01*
X68939342Y-131665880D01*
X68939343Y-131665883D01*
X68942214Y-131673132D01*
X68964140Y-131703312D01*
X68967881Y-131708460D01*
X68974293Y-131718222D01*
X68992556Y-131749102D01*
X68992559Y-131749107D01*
X68996530Y-131755820D01*
X69002045Y-131761335D01*
X69010690Y-131769980D01*
X69023326Y-131784774D01*
X69030519Y-131794675D01*
X69030523Y-131794679D01*
X69035106Y-131800987D01*
X69041115Y-131805958D01*
X69041116Y-131805959D01*
X69068758Y-131828826D01*
X69077399Y-131836689D01*
X69849103Y-132608393D01*
X69878934Y-132656491D01*
X69884284Y-132712835D01*
X69864038Y-132765688D01*
X69822413Y-132804037D01*
X69772045Y-132818738D01*
X69772128Y-132819501D01*
X69720231Y-132825079D01*
X69720225Y-132825080D01*
X69712517Y-132825909D01*
X69705252Y-132828618D01*
X69705246Y-132828620D01*
X69585980Y-132873104D01*
X69585978Y-132873104D01*
X69577669Y-132876204D01*
X69570572Y-132881516D01*
X69570568Y-132881519D01*
X69469550Y-132957141D01*
X69469546Y-132957144D01*
X69462454Y-132962454D01*
X69457144Y-132969546D01*
X69457141Y-132969550D01*
X69381519Y-133070568D01*
X69381516Y-133070572D01*
X69376204Y-133077669D01*
X69373104Y-133085978D01*
X69373104Y-133085980D01*
X69328620Y-133205247D01*
X69328619Y-133205250D01*
X69325909Y-133212517D01*
X69325079Y-133220227D01*
X69325079Y-133220232D01*
X69319855Y-133268819D01*
X69319854Y-133268831D01*
X69319500Y-133272127D01*
X69319500Y-133275448D01*
X69319500Y-133275449D01*
X69319500Y-135964560D01*
X69319500Y-135964578D01*
X69319501Y-135967872D01*
X69319853Y-135971150D01*
X69319854Y-135971161D01*
X69325079Y-136019768D01*
X69325080Y-136019773D01*
X69325909Y-136027483D01*
X69328619Y-136034749D01*
X69328620Y-136034753D01*
X69362217Y-136124831D01*
X69376204Y-136162331D01*
X69462454Y-136277546D01*
X69577669Y-136363796D01*
X69712517Y-136414091D01*
X69772127Y-136420500D01*
X72467872Y-136420499D01*
X72527483Y-136414091D01*
X72662331Y-136363796D01*
X72777546Y-136277546D01*
X72863796Y-136162331D01*
X72914091Y-136027483D01*
X72920500Y-135967873D01*
X72920499Y-133272128D01*
X72914091Y-133212517D01*
X72863796Y-133077669D01*
X72777546Y-132962454D01*
X72662331Y-132876204D01*
X72527483Y-132825909D01*
X72519770Y-132825079D01*
X72519767Y-132825079D01*
X72471180Y-132819855D01*
X72471169Y-132819854D01*
X72467873Y-132819500D01*
X72464551Y-132819500D01*
X71811542Y-132819500D01*
X71764689Y-132810308D01*
X71724783Y-132784093D01*
X71699478Y-132747274D01*
X71698617Y-132744310D01*
X71694644Y-132737593D01*
X71694642Y-132737587D01*
X71688422Y-132727070D01*
X71679860Y-132709592D01*
X71675360Y-132698227D01*
X71675359Y-132698226D01*
X71672486Y-132690968D01*
X71646812Y-132655631D01*
X71640409Y-132645884D01*
X71618170Y-132608279D01*
X71604005Y-132594114D01*
X71591368Y-132579318D01*
X71584184Y-132569429D01*
X71584178Y-132569423D01*
X71579594Y-132563113D01*
X71545946Y-132535277D01*
X71537305Y-132527414D01*
X70156519Y-131146628D01*
X70129639Y-131106400D01*
X70120200Y-131058947D01*
X70120200Y-126173716D01*
X70135672Y-126113735D01*
X70178228Y-126068722D01*
X70237247Y-126049911D01*
X70298002Y-126061996D01*
X70456362Y-126138258D01*
X70464973Y-126141638D01*
X70713908Y-126218424D01*
X70722924Y-126220482D01*
X70980523Y-126259308D01*
X70989746Y-126260000D01*
X71250254Y-126260000D01*
X71259476Y-126259308D01*
X71517075Y-126220482D01*
X71526091Y-126218424D01*
X71775027Y-126141637D01*
X71783637Y-126138258D01*
X72018340Y-126025231D01*
X72026359Y-126020601D01*
X72193846Y-125906409D01*
X72201394Y-125898350D01*
X72195477Y-125889030D01*
X70854128Y-124547681D01*
X70822034Y-124492094D01*
X70822034Y-124460000D01*
X71478431Y-124460000D01*
X71485095Y-124471542D01*
X72545325Y-125531772D01*
X72557382Y-125538436D01*
X72568619Y-125530463D01*
X72608507Y-125480445D01*
X72613719Y-125472800D01*
X72743969Y-125247202D01*
X72747988Y-125238856D01*
X72843155Y-124996375D01*
X72845888Y-124987515D01*
X72903853Y-124733552D01*
X72905232Y-124724399D01*
X72924700Y-124464630D01*
X72924700Y-124455370D01*
X72905232Y-124195600D01*
X72903853Y-124186447D01*
X72845888Y-123932484D01*
X72843155Y-123923624D01*
X72747988Y-123681143D01*
X72743969Y-123672797D01*
X72613721Y-123447201D01*
X72608503Y-123439549D01*
X72568619Y-123389536D01*
X72557382Y-123381562D01*
X72545325Y-123388226D01*
X71485095Y-124448457D01*
X71478431Y-124460000D01*
X70822034Y-124460000D01*
X70822034Y-124427906D01*
X70854128Y-124372319D01*
X71120000Y-124106447D01*
X72195477Y-123030968D01*
X72201394Y-123021648D01*
X72193846Y-123013589D01*
X72026360Y-122899398D01*
X72018340Y-122894768D01*
X71783637Y-122781741D01*
X71775027Y-122778362D01*
X71526091Y-122701575D01*
X71517075Y-122699517D01*
X71259476Y-122660691D01*
X71250254Y-122660000D01*
X70989746Y-122660000D01*
X70980523Y-122660691D01*
X70722924Y-122699517D01*
X70713903Y-122701576D01*
X70605177Y-122735114D01*
X70540131Y-122737304D01*
X70482936Y-122706249D01*
X70449347Y-122650505D01*
X70448617Y-122585426D01*
X70480945Y-122528944D01*
X71507311Y-121502578D01*
X71515481Y-121495144D01*
X71521877Y-121491086D01*
X71567918Y-121442056D01*
X71570535Y-121439354D01*
X71590120Y-121419771D01*
X71592585Y-121416592D01*
X71600167Y-121407716D01*
X71630062Y-121375882D01*
X71639713Y-121358323D01*
X71650390Y-121342070D01*
X71662673Y-121326236D01*
X71680018Y-121286152D01*
X71685151Y-121275671D01*
X71702147Y-121244757D01*
X71747687Y-121197766D01*
X71810807Y-121180499D01*
X72464561Y-121180499D01*
X72467872Y-121180499D01*
X72527483Y-121174091D01*
X72662331Y-121123796D01*
X72777546Y-121037546D01*
X72863796Y-120922331D01*
X72914091Y-120787483D01*
X72920500Y-120727873D01*
X72920499Y-118032128D01*
X72914091Y-117972517D01*
X72863796Y-117837669D01*
X72777546Y-117722454D01*
X72662331Y-117636204D01*
X72527483Y-117585909D01*
X72519770Y-117585079D01*
X72519767Y-117585079D01*
X72471180Y-117579855D01*
X72471169Y-117579854D01*
X72467873Y-117579500D01*
X72464550Y-117579500D01*
X69775439Y-117579500D01*
X69775420Y-117579500D01*
X69772128Y-117579501D01*
X69768850Y-117579853D01*
X69768838Y-117579854D01*
X69720231Y-117585079D01*
X69720225Y-117585080D01*
X69712517Y-117585909D01*
X69705252Y-117588618D01*
X69705246Y-117588620D01*
X69585980Y-117633104D01*
X69585978Y-117633104D01*
X69577669Y-117636204D01*
X69570572Y-117641516D01*
X69570568Y-117641519D01*
X69469550Y-117717141D01*
X69469546Y-117717144D01*
X69462454Y-117722454D01*
X69457144Y-117729546D01*
X69457141Y-117729550D01*
X69381519Y-117830568D01*
X69381516Y-117830572D01*
X69376204Y-117837669D01*
X69373104Y-117845978D01*
X69373104Y-117845980D01*
X69328620Y-117965247D01*
X69328619Y-117965250D01*
X69325909Y-117972517D01*
X69325079Y-117980227D01*
X69325079Y-117980232D01*
X69319855Y-118028819D01*
X69319854Y-118028831D01*
X69319500Y-118032127D01*
X69319500Y-118035448D01*
X69319500Y-118035449D01*
X69319500Y-120724560D01*
X69319500Y-120724578D01*
X69319501Y-120727872D01*
X69319853Y-120731150D01*
X69319854Y-120731161D01*
X69325079Y-120779768D01*
X69325080Y-120779773D01*
X69325909Y-120787483D01*
X69328619Y-120794749D01*
X69328620Y-120794753D01*
X69347397Y-120845096D01*
X69376204Y-120922331D01*
X69462454Y-121037546D01*
X69577669Y-121123796D01*
X69712517Y-121174091D01*
X69772127Y-121180500D01*
X69772044Y-121181271D01*
X69822374Y-121195940D01*
X69864017Y-121234285D01*
X69884279Y-121287143D01*
X69878936Y-121343498D01*
X69849101Y-121391606D01*
X69107396Y-122133311D01*
X69099211Y-122140759D01*
X69092823Y-122144814D01*
X69087488Y-122150494D01*
X69087483Y-122150499D01*
X69046796Y-122193825D01*
X69044092Y-122196616D01*
X69027328Y-122213380D01*
X69027321Y-122213387D01*
X69024580Y-122216129D01*
X69022200Y-122219196D01*
X69022189Y-122219209D01*
X69022100Y-122219325D01*
X69014542Y-122228170D01*
X68989980Y-122254327D01*
X68989973Y-122254336D01*
X68984638Y-122260018D01*
X68980882Y-122266849D01*
X68980879Y-122266854D01*
X68974985Y-122277575D01*
X68964309Y-122293827D01*
X68956809Y-122303496D01*
X68956801Y-122303507D01*
X68952027Y-122309664D01*
X68948934Y-122316808D01*
X68948929Y-122316819D01*
X68934674Y-122349760D01*
X68929538Y-122360243D01*
X68908503Y-122398508D01*
X68906564Y-122406056D01*
X68906563Y-122406061D01*
X68903522Y-122417907D01*
X68897221Y-122436311D01*
X68892358Y-122447548D01*
X68892356Y-122447552D01*
X68889262Y-122454704D01*
X68888042Y-122462403D01*
X68888042Y-122462405D01*
X68882429Y-122497841D01*
X68880061Y-122509276D01*
X68871138Y-122544028D01*
X68871136Y-122544036D01*
X68869200Y-122551581D01*
X68869200Y-122559377D01*
X68869200Y-122571617D01*
X68867674Y-122591002D01*
X68864540Y-122610796D01*
X66040500Y-122610796D01*
X66040500Y-108649350D01*
X79571904Y-108649350D01*
X79579450Y-108657408D01*
X79746941Y-108771601D01*
X79754962Y-108776232D01*
X79989662Y-108889258D01*
X79998273Y-108892638D01*
X80247208Y-108969424D01*
X80256224Y-108971482D01*
X80513823Y-109010308D01*
X80523046Y-109011000D01*
X80783554Y-109011000D01*
X80792776Y-109010308D01*
X81050375Y-108971482D01*
X81059391Y-108969424D01*
X81308327Y-108892637D01*
X81316937Y-108889258D01*
X81551640Y-108776231D01*
X81559659Y-108771601D01*
X81727146Y-108657409D01*
X81734694Y-108649350D01*
X81728777Y-108640030D01*
X81644325Y-108555578D01*
X83932800Y-108555578D01*
X83932801Y-108558872D01*
X83933153Y-108562150D01*
X83933154Y-108562161D01*
X83938379Y-108610768D01*
X83938380Y-108610773D01*
X83939209Y-108618483D01*
X83941919Y-108625749D01*
X83941920Y-108625753D01*
X83953541Y-108656909D01*
X83989504Y-108753331D01*
X83994818Y-108760430D01*
X83994819Y-108760431D01*
X84069692Y-108860449D01*
X84075754Y-108868546D01*
X84190969Y-108954796D01*
X84325817Y-109005091D01*
X84385427Y-109011500D01*
X87081172Y-109011499D01*
X87140783Y-109005091D01*
X87275631Y-108954796D01*
X87390846Y-108868546D01*
X87477096Y-108753331D01*
X87516065Y-108648850D01*
X92897704Y-108648850D01*
X92905250Y-108656908D01*
X93072741Y-108771101D01*
X93080762Y-108775732D01*
X93315462Y-108888758D01*
X93324073Y-108892138D01*
X93573008Y-108968924D01*
X93582024Y-108970982D01*
X93839623Y-109009808D01*
X93848846Y-109010500D01*
X94109354Y-109010500D01*
X94118576Y-109009808D01*
X94376175Y-108970982D01*
X94385191Y-108968924D01*
X94634127Y-108892137D01*
X94642737Y-108888758D01*
X94877440Y-108775731D01*
X94885459Y-108771101D01*
X95052946Y-108656909D01*
X95060494Y-108648850D01*
X95054577Y-108639530D01*
X93990642Y-107575595D01*
X93979100Y-107568931D01*
X93967557Y-107575595D01*
X92903621Y-108639530D01*
X92897704Y-108648850D01*
X87516065Y-108648850D01*
X87527391Y-108618483D01*
X87533800Y-108558873D01*
X87533800Y-107215130D01*
X92174400Y-107215130D01*
X92193867Y-107474899D01*
X92195246Y-107484052D01*
X92253211Y-107738015D01*
X92255944Y-107746875D01*
X92351111Y-107989356D01*
X92355130Y-107997702D01*
X92485378Y-108223298D01*
X92490596Y-108230950D01*
X92530479Y-108280962D01*
X92541715Y-108288935D01*
X92553774Y-108282271D01*
X93614004Y-107222042D01*
X93620667Y-107210500D01*
X94337531Y-107210500D01*
X94344195Y-107222042D01*
X95404425Y-108282272D01*
X95416482Y-108288936D01*
X95427719Y-108280963D01*
X95467607Y-108230945D01*
X95472819Y-108223300D01*
X95603069Y-107997702D01*
X95607088Y-107989356D01*
X95702255Y-107746875D01*
X95704988Y-107738015D01*
X95762953Y-107484052D01*
X95764332Y-107474899D01*
X95783800Y-107215130D01*
X95783800Y-107205870D01*
X95764332Y-106946100D01*
X95762953Y-106936947D01*
X95704988Y-106682984D01*
X95702255Y-106674124D01*
X95607088Y-106431643D01*
X95603069Y-106423297D01*
X95472821Y-106197701D01*
X95467603Y-106190049D01*
X95427719Y-106140036D01*
X95416482Y-106132062D01*
X95404425Y-106138726D01*
X94344195Y-107198957D01*
X94337531Y-107210500D01*
X93620667Y-107210500D01*
X93620668Y-107210499D01*
X93614004Y-107198957D01*
X92553774Y-106138727D01*
X92541715Y-106132062D01*
X92530480Y-106140034D01*
X92490588Y-106190058D01*
X92485382Y-106197695D01*
X92355130Y-106423297D01*
X92351111Y-106431643D01*
X92255944Y-106674124D01*
X92253211Y-106682984D01*
X92195246Y-106936947D01*
X92193867Y-106946100D01*
X92174400Y-107205870D01*
X92174400Y-107215130D01*
X87533800Y-107215130D01*
X87533799Y-105863128D01*
X87527391Y-105803517D01*
X87515691Y-105772148D01*
X92897703Y-105772148D01*
X92903619Y-105781466D01*
X93967557Y-106845404D01*
X93979100Y-106852068D01*
X93990642Y-106845404D01*
X95054577Y-105781468D01*
X95060494Y-105772148D01*
X95052946Y-105764089D01*
X94885460Y-105649898D01*
X94877440Y-105645268D01*
X94642737Y-105532241D01*
X94634127Y-105528862D01*
X94385191Y-105452075D01*
X94376175Y-105450017D01*
X94118576Y-105411191D01*
X94109354Y-105410500D01*
X93848846Y-105410500D01*
X93839623Y-105411191D01*
X93582024Y-105450017D01*
X93573008Y-105452075D01*
X93324073Y-105528861D01*
X93315462Y-105532241D01*
X93080760Y-105645268D01*
X93072739Y-105649899D01*
X92905251Y-105764090D01*
X92897703Y-105772148D01*
X87515691Y-105772148D01*
X87477096Y-105668669D01*
X87390846Y-105553454D01*
X87357995Y-105528862D01*
X87282731Y-105472519D01*
X87282730Y-105472518D01*
X87275631Y-105467204D01*
X87140783Y-105416909D01*
X87133070Y-105416079D01*
X87133067Y-105416079D01*
X87084480Y-105410855D01*
X87084469Y-105410854D01*
X87081173Y-105410500D01*
X87077850Y-105410500D01*
X84388739Y-105410500D01*
X84388720Y-105410500D01*
X84385428Y-105410501D01*
X84382150Y-105410853D01*
X84382138Y-105410854D01*
X84333531Y-105416079D01*
X84333525Y-105416080D01*
X84325817Y-105416909D01*
X84318552Y-105419618D01*
X84318546Y-105419620D01*
X84199280Y-105464104D01*
X84199278Y-105464104D01*
X84190969Y-105467204D01*
X84183872Y-105472516D01*
X84183868Y-105472519D01*
X84082850Y-105548141D01*
X84082846Y-105548144D01*
X84075754Y-105553454D01*
X84070444Y-105560546D01*
X84070441Y-105560550D01*
X83994819Y-105661568D01*
X83994816Y-105661572D01*
X83989504Y-105668669D01*
X83986404Y-105676978D01*
X83986404Y-105676980D01*
X83941920Y-105796247D01*
X83941919Y-105796250D01*
X83939209Y-105803517D01*
X83938379Y-105811227D01*
X83938379Y-105811232D01*
X83933155Y-105859819D01*
X83933154Y-105859831D01*
X83932800Y-105863127D01*
X83932800Y-105866448D01*
X83932800Y-105866449D01*
X83932800Y-108555560D01*
X83932800Y-108555578D01*
X81644325Y-108555578D01*
X80664842Y-107576095D01*
X80653300Y-107569431D01*
X80641757Y-107576095D01*
X79577821Y-108640030D01*
X79571904Y-108649350D01*
X66040500Y-108649350D01*
X66040500Y-106680000D01*
X69614357Y-106680000D01*
X69614781Y-106685117D01*
X69634467Y-106922701D01*
X69634468Y-106922709D01*
X69634892Y-106927821D01*
X69636149Y-106932788D01*
X69636151Y-106932795D01*
X69694678Y-107163910D01*
X69695937Y-107168881D01*
X69697997Y-107173577D01*
X69793766Y-107391910D01*
X69793769Y-107391916D01*
X69795827Y-107396607D01*
X69798627Y-107400893D01*
X69798631Y-107400900D01*
X69908411Y-107568931D01*
X69931836Y-107604785D01*
X69935310Y-107608559D01*
X69935311Y-107608560D01*
X70096784Y-107783967D01*
X70096787Y-107783970D01*
X70100256Y-107787738D01*
X70296491Y-107940474D01*
X70515190Y-108058828D01*
X70750386Y-108139571D01*
X70995665Y-108180500D01*
X71239201Y-108180500D01*
X71244335Y-108180500D01*
X71489614Y-108139571D01*
X71724810Y-108058828D01*
X71943509Y-107940474D01*
X72139744Y-107787738D01*
X72308164Y-107604785D01*
X72444173Y-107396607D01*
X72523557Y-107215630D01*
X78848600Y-107215630D01*
X78868067Y-107475399D01*
X78869446Y-107484552D01*
X78927411Y-107738515D01*
X78930144Y-107747375D01*
X79025311Y-107989856D01*
X79029330Y-107998202D01*
X79159578Y-108223798D01*
X79164796Y-108231450D01*
X79204679Y-108281462D01*
X79215915Y-108289435D01*
X79227974Y-108282771D01*
X80288204Y-107222542D01*
X80294868Y-107211000D01*
X81011731Y-107211000D01*
X81018395Y-107222542D01*
X82078625Y-108282772D01*
X82090682Y-108289436D01*
X82101919Y-108281463D01*
X82141807Y-108231445D01*
X82147019Y-108223800D01*
X82277269Y-107998202D01*
X82281288Y-107989856D01*
X82376455Y-107747375D01*
X82379188Y-107738515D01*
X82437153Y-107484552D01*
X82438532Y-107475399D01*
X82458000Y-107215630D01*
X82458000Y-107206370D01*
X82438532Y-106946600D01*
X82437153Y-106937447D01*
X82379188Y-106683484D01*
X82376455Y-106674624D01*
X82281288Y-106432143D01*
X82277269Y-106423797D01*
X82147021Y-106198201D01*
X82141803Y-106190549D01*
X82101919Y-106140536D01*
X82090682Y-106132562D01*
X82078625Y-106139226D01*
X81018395Y-107199457D01*
X81011731Y-107211000D01*
X80294868Y-107211000D01*
X80288204Y-107199457D01*
X79227974Y-106139227D01*
X79215915Y-106132562D01*
X79204680Y-106140534D01*
X79164788Y-106190558D01*
X79159582Y-106198195D01*
X79029330Y-106423797D01*
X79025311Y-106432143D01*
X78930144Y-106674624D01*
X78927411Y-106683484D01*
X78869446Y-106937447D01*
X78868067Y-106946600D01*
X78848600Y-107206370D01*
X78848600Y-107215630D01*
X72523557Y-107215630D01*
X72544063Y-107168881D01*
X72605108Y-106927821D01*
X72625643Y-106680000D01*
X72605108Y-106432179D01*
X72544063Y-106191119D01*
X72444173Y-105963393D01*
X72319554Y-105772648D01*
X79571903Y-105772648D01*
X79577819Y-105781966D01*
X80641757Y-106845904D01*
X80653300Y-106852568D01*
X80664842Y-106845904D01*
X81728777Y-105781968D01*
X81734694Y-105772648D01*
X81727146Y-105764589D01*
X81559660Y-105650398D01*
X81551640Y-105645768D01*
X81316937Y-105532741D01*
X81308327Y-105529362D01*
X81059391Y-105452575D01*
X81050375Y-105450517D01*
X80792776Y-105411691D01*
X80783554Y-105411000D01*
X80523046Y-105411000D01*
X80513823Y-105411691D01*
X80256224Y-105450517D01*
X80247208Y-105452575D01*
X79998273Y-105529361D01*
X79989662Y-105532741D01*
X79754960Y-105645768D01*
X79746939Y-105650399D01*
X79579451Y-105764590D01*
X79571903Y-105772648D01*
X72319554Y-105772648D01*
X72308164Y-105755215D01*
X72236144Y-105676980D01*
X72143215Y-105576032D01*
X72143211Y-105576029D01*
X72139744Y-105572262D01*
X71982684Y-105450017D01*
X71947559Y-105422678D01*
X71947557Y-105422676D01*
X71943509Y-105419526D01*
X71938997Y-105417084D01*
X71729316Y-105303610D01*
X71729310Y-105303607D01*
X71724810Y-105301172D01*
X71719969Y-105299510D01*
X71719962Y-105299507D01*
X71494465Y-105222094D01*
X71494461Y-105222093D01*
X71489614Y-105220429D01*
X71480768Y-105218952D01*
X71249398Y-105180344D01*
X71249387Y-105180343D01*
X71244335Y-105179500D01*
X70995665Y-105179500D01*
X70990613Y-105180343D01*
X70990601Y-105180344D01*
X70755443Y-105219585D01*
X70755441Y-105219585D01*
X70750386Y-105220429D01*
X70745541Y-105222092D01*
X70745534Y-105222094D01*
X70520037Y-105299507D01*
X70520026Y-105299511D01*
X70515190Y-105301172D01*
X70510693Y-105303605D01*
X70510683Y-105303610D01*
X70301002Y-105417084D01*
X70300995Y-105417088D01*
X70296491Y-105419526D01*
X70292448Y-105422672D01*
X70292440Y-105422678D01*
X70104304Y-105569111D01*
X70100256Y-105572262D01*
X70096793Y-105576023D01*
X70096784Y-105576032D01*
X69935311Y-105751439D01*
X69935305Y-105751446D01*
X69931836Y-105755215D01*
X69929031Y-105759506D01*
X69929028Y-105759512D01*
X69798631Y-105959099D01*
X69798624Y-105959111D01*
X69795827Y-105963393D01*
X69793772Y-105968077D01*
X69793766Y-105968089D01*
X69697997Y-106186422D01*
X69695937Y-106191119D01*
X69694679Y-106196084D01*
X69694678Y-106196089D01*
X69636151Y-106427204D01*
X69636149Y-106427213D01*
X69634892Y-106432179D01*
X69634468Y-106437288D01*
X69634467Y-106437298D01*
X69617540Y-106641581D01*
X69614357Y-106680000D01*
X66040500Y-106680000D01*
X66040500Y-101839421D01*
X66057113Y-101777421D01*
X66102500Y-101732034D01*
X66164500Y-101715421D01*
X126711203Y-101715421D01*
X126773203Y-101732034D01*
G37*
%TD.AperFunction*%
%TD*%
M02*
