%TF.GenerationSoftware,KiCad,Pcbnew,(7.0.0)*%
%TF.CreationDate,2023-03-15T19:38:10+01:00*%
%TF.ProjectId,QuinLED-ESP32-Breakout,5175696e-4c45-4442-9d45-535033322d42,rev?*%
%TF.SameCoordinates,Original*%
%TF.FileFunction,Legend,Top*%
%TF.FilePolarity,Positive*%
%FSLAX46Y46*%
G04 Gerber Fmt 4.6, Leading zero omitted, Abs format (unit mm)*
G04 Created by KiCad (PCBNEW (7.0.0)) date 2023-03-15 19:38:10*
%MOMM*%
%LPD*%
G01*
G04 APERTURE LIST*
%ADD10C,0.150000*%
%ADD11C,0.120000*%
%ADD12C,0.050000*%
G04 APERTURE END LIST*
D10*
X92801846Y-179449617D02*
X102961846Y-179449617D01*
X102961846Y-179449617D02*
X102961846Y-184529617D01*
X102961846Y-184529617D02*
X92801846Y-184529617D01*
X92801846Y-184529617D02*
X92801846Y-179449617D01*
X114538095Y-139004686D02*
X114538095Y-138004686D01*
X115109523Y-139004686D02*
X114680952Y-138433258D01*
X115109523Y-138004686D02*
X114538095Y-138576115D01*
X76691231Y-174682176D02*
X77310278Y-174682176D01*
X77310278Y-174682176D02*
X76976945Y-175063129D01*
X76976945Y-175063129D02*
X77119802Y-175063129D01*
X77119802Y-175063129D02*
X77215040Y-175110748D01*
X77215040Y-175110748D02*
X77262659Y-175158367D01*
X77262659Y-175158367D02*
X77310278Y-175253605D01*
X77310278Y-175253605D02*
X77310278Y-175491700D01*
X77310278Y-175491700D02*
X77262659Y-175586938D01*
X77262659Y-175586938D02*
X77215040Y-175634557D01*
X77215040Y-175634557D02*
X77119802Y-175682176D01*
X77119802Y-175682176D02*
X76834088Y-175682176D01*
X76834088Y-175682176D02*
X76738850Y-175634557D01*
X76738850Y-175634557D02*
X76691231Y-175586938D01*
X77738850Y-175586938D02*
X77786469Y-175634557D01*
X77786469Y-175634557D02*
X77738850Y-175682176D01*
X77738850Y-175682176D02*
X77691231Y-175634557D01*
X77691231Y-175634557D02*
X77738850Y-175586938D01*
X77738850Y-175586938D02*
X77738850Y-175682176D01*
X78119802Y-174682176D02*
X78738849Y-174682176D01*
X78738849Y-174682176D02*
X78405516Y-175063129D01*
X78405516Y-175063129D02*
X78548373Y-175063129D01*
X78548373Y-175063129D02*
X78643611Y-175110748D01*
X78643611Y-175110748D02*
X78691230Y-175158367D01*
X78691230Y-175158367D02*
X78738849Y-175253605D01*
X78738849Y-175253605D02*
X78738849Y-175491700D01*
X78738849Y-175491700D02*
X78691230Y-175586938D01*
X78691230Y-175586938D02*
X78643611Y-175634557D01*
X78643611Y-175634557D02*
X78548373Y-175682176D01*
X78548373Y-175682176D02*
X78262659Y-175682176D01*
X78262659Y-175682176D02*
X78167421Y-175634557D01*
X78167421Y-175634557D02*
X78119802Y-175586938D01*
X79024564Y-174682176D02*
X79357897Y-175682176D01*
X79357897Y-175682176D02*
X79691230Y-174682176D01*
X80024564Y-175301224D02*
X80786469Y-175301224D01*
X80405516Y-175682176D02*
X80405516Y-174920272D01*
X77320232Y-124106421D02*
X77224994Y-124058801D01*
X77224994Y-124058801D02*
X77082137Y-124058801D01*
X77082137Y-124058801D02*
X76939280Y-124106421D01*
X76939280Y-124106421D02*
X76844042Y-124201659D01*
X76844042Y-124201659D02*
X76796423Y-124296897D01*
X76796423Y-124296897D02*
X76748804Y-124487373D01*
X76748804Y-124487373D02*
X76748804Y-124630230D01*
X76748804Y-124630230D02*
X76796423Y-124820706D01*
X76796423Y-124820706D02*
X76844042Y-124915944D01*
X76844042Y-124915944D02*
X76939280Y-125011182D01*
X76939280Y-125011182D02*
X77082137Y-125058801D01*
X77082137Y-125058801D02*
X77177375Y-125058801D01*
X77177375Y-125058801D02*
X77320232Y-125011182D01*
X77320232Y-125011182D02*
X77367851Y-124963563D01*
X77367851Y-124963563D02*
X77367851Y-124630230D01*
X77367851Y-124630230D02*
X77177375Y-124630230D01*
X77796423Y-125058801D02*
X77796423Y-124058801D01*
X77796423Y-124058801D02*
X78367851Y-125058801D01*
X78367851Y-125058801D02*
X78367851Y-124058801D01*
X78844042Y-125058801D02*
X78844042Y-124058801D01*
X78844042Y-124058801D02*
X79082137Y-124058801D01*
X79082137Y-124058801D02*
X79224994Y-124106421D01*
X79224994Y-124106421D02*
X79320232Y-124201659D01*
X79320232Y-124201659D02*
X79367851Y-124296897D01*
X79367851Y-124296897D02*
X79415470Y-124487373D01*
X79415470Y-124487373D02*
X79415470Y-124630230D01*
X79415470Y-124630230D02*
X79367851Y-124820706D01*
X79367851Y-124820706D02*
X79320232Y-124915944D01*
X79320232Y-124915944D02*
X79224994Y-125011182D01*
X79224994Y-125011182D02*
X79082137Y-125058801D01*
X79082137Y-125058801D02*
X78844042Y-125058801D01*
X114538095Y-123803576D02*
X114538095Y-122803576D01*
X115109523Y-123803576D02*
X114680952Y-123232148D01*
X115109523Y-122803576D02*
X114538095Y-123375005D01*
X114538095Y-169651580D02*
X114538095Y-168651580D01*
X115109523Y-169651580D02*
X114680952Y-169080152D01*
X115109523Y-168651580D02*
X114538095Y-169223009D01*
X77310278Y-169591575D02*
X77215040Y-169543955D01*
X77215040Y-169543955D02*
X77072183Y-169543955D01*
X77072183Y-169543955D02*
X76929326Y-169591575D01*
X76929326Y-169591575D02*
X76834088Y-169686813D01*
X76834088Y-169686813D02*
X76786469Y-169782051D01*
X76786469Y-169782051D02*
X76738850Y-169972527D01*
X76738850Y-169972527D02*
X76738850Y-170115384D01*
X76738850Y-170115384D02*
X76786469Y-170305860D01*
X76786469Y-170305860D02*
X76834088Y-170401098D01*
X76834088Y-170401098D02*
X76929326Y-170496336D01*
X76929326Y-170496336D02*
X77072183Y-170543955D01*
X77072183Y-170543955D02*
X77167421Y-170543955D01*
X77167421Y-170543955D02*
X77310278Y-170496336D01*
X77310278Y-170496336D02*
X77357897Y-170448717D01*
X77357897Y-170448717D02*
X77357897Y-170115384D01*
X77357897Y-170115384D02*
X77167421Y-170115384D01*
X77786469Y-170543955D02*
X77786469Y-169543955D01*
X77786469Y-169543955D02*
X78357897Y-170543955D01*
X78357897Y-170543955D02*
X78357897Y-169543955D01*
X78834088Y-170543955D02*
X78834088Y-169543955D01*
X78834088Y-169543955D02*
X79072183Y-169543955D01*
X79072183Y-169543955D02*
X79215040Y-169591575D01*
X79215040Y-169591575D02*
X79310278Y-169686813D01*
X79310278Y-169686813D02*
X79357897Y-169782051D01*
X79357897Y-169782051D02*
X79405516Y-169972527D01*
X79405516Y-169972527D02*
X79405516Y-170115384D01*
X79405516Y-170115384D02*
X79357897Y-170305860D01*
X79357897Y-170305860D02*
X79310278Y-170401098D01*
X79310278Y-170401098D02*
X79215040Y-170496336D01*
X79215040Y-170496336D02*
X79072183Y-170543955D01*
X79072183Y-170543955D02*
X78834088Y-170543955D01*
X83756786Y-120649644D02*
X83709167Y-120602025D01*
X83709167Y-120602025D02*
X83613929Y-120459168D01*
X83613929Y-120459168D02*
X83566310Y-120363930D01*
X83566310Y-120363930D02*
X83518691Y-120221072D01*
X83518691Y-120221072D02*
X83471072Y-119982977D01*
X83471072Y-119982977D02*
X83471072Y-119792501D01*
X83471072Y-119792501D02*
X83518691Y-119554406D01*
X83518691Y-119554406D02*
X83566310Y-119411549D01*
X83566310Y-119411549D02*
X83613929Y-119316311D01*
X83613929Y-119316311D02*
X83709167Y-119173453D01*
X83709167Y-119173453D02*
X83756786Y-119125834D01*
X84661548Y-119316311D02*
X84566310Y-119268691D01*
X84566310Y-119268691D02*
X84423453Y-119268691D01*
X84423453Y-119268691D02*
X84280596Y-119316311D01*
X84280596Y-119316311D02*
X84185358Y-119411549D01*
X84185358Y-119411549D02*
X84137739Y-119506787D01*
X84137739Y-119506787D02*
X84090120Y-119697263D01*
X84090120Y-119697263D02*
X84090120Y-119840120D01*
X84090120Y-119840120D02*
X84137739Y-120030596D01*
X84137739Y-120030596D02*
X84185358Y-120125834D01*
X84185358Y-120125834D02*
X84280596Y-120221072D01*
X84280596Y-120221072D02*
X84423453Y-120268691D01*
X84423453Y-120268691D02*
X84518691Y-120268691D01*
X84518691Y-120268691D02*
X84661548Y-120221072D01*
X84661548Y-120221072D02*
X84709167Y-120173453D01*
X84709167Y-120173453D02*
X84709167Y-119840120D01*
X84709167Y-119840120D02*
X84518691Y-119840120D01*
X85137739Y-120268691D02*
X85137739Y-119268691D01*
X85137739Y-119268691D02*
X85518691Y-119268691D01*
X85518691Y-119268691D02*
X85613929Y-119316311D01*
X85613929Y-119316311D02*
X85661548Y-119363930D01*
X85661548Y-119363930D02*
X85709167Y-119459168D01*
X85709167Y-119459168D02*
X85709167Y-119602025D01*
X85709167Y-119602025D02*
X85661548Y-119697263D01*
X85661548Y-119697263D02*
X85613929Y-119744882D01*
X85613929Y-119744882D02*
X85518691Y-119792501D01*
X85518691Y-119792501D02*
X85137739Y-119792501D01*
X86137739Y-120268691D02*
X86137739Y-119268691D01*
X86804405Y-119268691D02*
X86994881Y-119268691D01*
X86994881Y-119268691D02*
X87090119Y-119316311D01*
X87090119Y-119316311D02*
X87185357Y-119411549D01*
X87185357Y-119411549D02*
X87232976Y-119602025D01*
X87232976Y-119602025D02*
X87232976Y-119935358D01*
X87232976Y-119935358D02*
X87185357Y-120125834D01*
X87185357Y-120125834D02*
X87090119Y-120221072D01*
X87090119Y-120221072D02*
X86994881Y-120268691D01*
X86994881Y-120268691D02*
X86804405Y-120268691D01*
X86804405Y-120268691D02*
X86709167Y-120221072D01*
X86709167Y-120221072D02*
X86613929Y-120125834D01*
X86613929Y-120125834D02*
X86566310Y-119935358D01*
X86566310Y-119935358D02*
X86566310Y-119602025D01*
X86566310Y-119602025D02*
X86613929Y-119411549D01*
X86613929Y-119411549D02*
X86709167Y-119316311D01*
X86709167Y-119316311D02*
X86804405Y-119268691D01*
X87613929Y-119363930D02*
X87661548Y-119316311D01*
X87661548Y-119316311D02*
X87756786Y-119268691D01*
X87756786Y-119268691D02*
X87994881Y-119268691D01*
X87994881Y-119268691D02*
X88090119Y-119316311D01*
X88090119Y-119316311D02*
X88137738Y-119363930D01*
X88137738Y-119363930D02*
X88185357Y-119459168D01*
X88185357Y-119459168D02*
X88185357Y-119554406D01*
X88185357Y-119554406D02*
X88137738Y-119697263D01*
X88137738Y-119697263D02*
X87566310Y-120268691D01*
X87566310Y-120268691D02*
X88185357Y-120268691D01*
X88518691Y-120649644D02*
X88566310Y-120602025D01*
X88566310Y-120602025D02*
X88661548Y-120459168D01*
X88661548Y-120459168D02*
X88709167Y-120363930D01*
X88709167Y-120363930D02*
X88756786Y-120221072D01*
X88756786Y-120221072D02*
X88804405Y-119982977D01*
X88804405Y-119982977D02*
X88804405Y-119792501D01*
X88804405Y-119792501D02*
X88756786Y-119554406D01*
X88756786Y-119554406D02*
X88709167Y-119411549D01*
X88709167Y-119411549D02*
X88661548Y-119316311D01*
X88661548Y-119316311D02*
X88566310Y-119173453D01*
X88566310Y-119173453D02*
X88518691Y-119125834D01*
X77163779Y-138910129D02*
X77639969Y-138910129D01*
X77068541Y-139195843D02*
X77401874Y-138195843D01*
X77401874Y-138195843D02*
X77735207Y-139195843D01*
X78068541Y-139195843D02*
X78068541Y-138195843D01*
X78068541Y-138195843D02*
X78639969Y-139195843D01*
X78639969Y-139195843D02*
X78639969Y-138195843D01*
X79068541Y-138910129D02*
X79544731Y-138910129D01*
X78973303Y-139195843D02*
X79306636Y-138195843D01*
X79306636Y-138195843D02*
X79639969Y-139195843D01*
X80449493Y-139195843D02*
X79973303Y-139195843D01*
X79973303Y-139195843D02*
X79973303Y-138195843D01*
X80973303Y-138195843D02*
X81163779Y-138195843D01*
X81163779Y-138195843D02*
X81259017Y-138243463D01*
X81259017Y-138243463D02*
X81354255Y-138338701D01*
X81354255Y-138338701D02*
X81401874Y-138529177D01*
X81401874Y-138529177D02*
X81401874Y-138862510D01*
X81401874Y-138862510D02*
X81354255Y-139052986D01*
X81354255Y-139052986D02*
X81259017Y-139148224D01*
X81259017Y-139148224D02*
X81163779Y-139195843D01*
X81163779Y-139195843D02*
X80973303Y-139195843D01*
X80973303Y-139195843D02*
X80878065Y-139148224D01*
X80878065Y-139148224D02*
X80782827Y-139052986D01*
X80782827Y-139052986D02*
X80735208Y-138862510D01*
X80735208Y-138862510D02*
X80735208Y-138529177D01*
X80735208Y-138529177D02*
X80782827Y-138338701D01*
X80782827Y-138338701D02*
X80878065Y-138243463D01*
X80878065Y-138243463D02*
X80973303Y-138195843D01*
X82354255Y-138243463D02*
X82259017Y-138195843D01*
X82259017Y-138195843D02*
X82116160Y-138195843D01*
X82116160Y-138195843D02*
X81973303Y-138243463D01*
X81973303Y-138243463D02*
X81878065Y-138338701D01*
X81878065Y-138338701D02*
X81830446Y-138433939D01*
X81830446Y-138433939D02*
X81782827Y-138624415D01*
X81782827Y-138624415D02*
X81782827Y-138767272D01*
X81782827Y-138767272D02*
X81830446Y-138957748D01*
X81830446Y-138957748D02*
X81878065Y-139052986D01*
X81878065Y-139052986D02*
X81973303Y-139148224D01*
X81973303Y-139148224D02*
X82116160Y-139195843D01*
X82116160Y-139195843D02*
X82211398Y-139195843D01*
X82211398Y-139195843D02*
X82354255Y-139148224D01*
X82354255Y-139148224D02*
X82401874Y-139100605D01*
X82401874Y-139100605D02*
X82401874Y-138767272D01*
X82401874Y-138767272D02*
X82211398Y-138767272D01*
X83430446Y-139195843D02*
X83430446Y-138195843D01*
X83906636Y-139195843D02*
X83906636Y-138195843D01*
X83906636Y-138195843D02*
X84478064Y-139195843D01*
X84478064Y-139195843D02*
X84478064Y-138195843D01*
X84954255Y-139195843D02*
X84954255Y-138195843D01*
X84954255Y-138195843D02*
X85335207Y-138195843D01*
X85335207Y-138195843D02*
X85430445Y-138243463D01*
X85430445Y-138243463D02*
X85478064Y-138291082D01*
X85478064Y-138291082D02*
X85525683Y-138386320D01*
X85525683Y-138386320D02*
X85525683Y-138529177D01*
X85525683Y-138529177D02*
X85478064Y-138624415D01*
X85478064Y-138624415D02*
X85430445Y-138672034D01*
X85430445Y-138672034D02*
X85335207Y-138719653D01*
X85335207Y-138719653D02*
X84954255Y-138719653D01*
X85954255Y-138195843D02*
X85954255Y-139005367D01*
X85954255Y-139005367D02*
X86001874Y-139100605D01*
X86001874Y-139100605D02*
X86049493Y-139148224D01*
X86049493Y-139148224D02*
X86144731Y-139195843D01*
X86144731Y-139195843D02*
X86335207Y-139195843D01*
X86335207Y-139195843D02*
X86430445Y-139148224D01*
X86430445Y-139148224D02*
X86478064Y-139100605D01*
X86478064Y-139100605D02*
X86525683Y-139005367D01*
X86525683Y-139005367D02*
X86525683Y-138195843D01*
X86859017Y-138195843D02*
X87430445Y-138195843D01*
X87144731Y-139195843D02*
X87144731Y-138195843D01*
X77497112Y-141196796D02*
X77449493Y-141149177D01*
X77449493Y-141149177D02*
X77354255Y-141006320D01*
X77354255Y-141006320D02*
X77306636Y-140911082D01*
X77306636Y-140911082D02*
X77259017Y-140768224D01*
X77259017Y-140768224D02*
X77211398Y-140530129D01*
X77211398Y-140530129D02*
X77211398Y-140339653D01*
X77211398Y-140339653D02*
X77259017Y-140101558D01*
X77259017Y-140101558D02*
X77306636Y-139958701D01*
X77306636Y-139958701D02*
X77354255Y-139863463D01*
X77354255Y-139863463D02*
X77449493Y-139720605D01*
X77449493Y-139720605D02*
X77497112Y-139672986D01*
X78401874Y-139863463D02*
X78306636Y-139815843D01*
X78306636Y-139815843D02*
X78163779Y-139815843D01*
X78163779Y-139815843D02*
X78020922Y-139863463D01*
X78020922Y-139863463D02*
X77925684Y-139958701D01*
X77925684Y-139958701D02*
X77878065Y-140053939D01*
X77878065Y-140053939D02*
X77830446Y-140244415D01*
X77830446Y-140244415D02*
X77830446Y-140387272D01*
X77830446Y-140387272D02*
X77878065Y-140577748D01*
X77878065Y-140577748D02*
X77925684Y-140672986D01*
X77925684Y-140672986D02*
X78020922Y-140768224D01*
X78020922Y-140768224D02*
X78163779Y-140815843D01*
X78163779Y-140815843D02*
X78259017Y-140815843D01*
X78259017Y-140815843D02*
X78401874Y-140768224D01*
X78401874Y-140768224D02*
X78449493Y-140720605D01*
X78449493Y-140720605D02*
X78449493Y-140387272D01*
X78449493Y-140387272D02*
X78259017Y-140387272D01*
X78878065Y-140815843D02*
X78878065Y-139815843D01*
X78878065Y-139815843D02*
X79259017Y-139815843D01*
X79259017Y-139815843D02*
X79354255Y-139863463D01*
X79354255Y-139863463D02*
X79401874Y-139911082D01*
X79401874Y-139911082D02*
X79449493Y-140006320D01*
X79449493Y-140006320D02*
X79449493Y-140149177D01*
X79449493Y-140149177D02*
X79401874Y-140244415D01*
X79401874Y-140244415D02*
X79354255Y-140292034D01*
X79354255Y-140292034D02*
X79259017Y-140339653D01*
X79259017Y-140339653D02*
X78878065Y-140339653D01*
X79878065Y-140815843D02*
X79878065Y-139815843D01*
X80544731Y-139815843D02*
X80735207Y-139815843D01*
X80735207Y-139815843D02*
X80830445Y-139863463D01*
X80830445Y-139863463D02*
X80925683Y-139958701D01*
X80925683Y-139958701D02*
X80973302Y-140149177D01*
X80973302Y-140149177D02*
X80973302Y-140482510D01*
X80973302Y-140482510D02*
X80925683Y-140672986D01*
X80925683Y-140672986D02*
X80830445Y-140768224D01*
X80830445Y-140768224D02*
X80735207Y-140815843D01*
X80735207Y-140815843D02*
X80544731Y-140815843D01*
X80544731Y-140815843D02*
X80449493Y-140768224D01*
X80449493Y-140768224D02*
X80354255Y-140672986D01*
X80354255Y-140672986D02*
X80306636Y-140482510D01*
X80306636Y-140482510D02*
X80306636Y-140149177D01*
X80306636Y-140149177D02*
X80354255Y-139958701D01*
X80354255Y-139958701D02*
X80449493Y-139863463D01*
X80449493Y-139863463D02*
X80544731Y-139815843D01*
X81925683Y-140815843D02*
X81354255Y-140815843D01*
X81639969Y-140815843D02*
X81639969Y-139815843D01*
X81639969Y-139815843D02*
X81544731Y-139958701D01*
X81544731Y-139958701D02*
X81449493Y-140053939D01*
X81449493Y-140053939D02*
X81354255Y-140101558D01*
X82830445Y-139815843D02*
X82354255Y-139815843D01*
X82354255Y-139815843D02*
X82306636Y-140292034D01*
X82306636Y-140292034D02*
X82354255Y-140244415D01*
X82354255Y-140244415D02*
X82449493Y-140196796D01*
X82449493Y-140196796D02*
X82687588Y-140196796D01*
X82687588Y-140196796D02*
X82782826Y-140244415D01*
X82782826Y-140244415D02*
X82830445Y-140292034D01*
X82830445Y-140292034D02*
X82878064Y-140387272D01*
X82878064Y-140387272D02*
X82878064Y-140625367D01*
X82878064Y-140625367D02*
X82830445Y-140720605D01*
X82830445Y-140720605D02*
X82782826Y-140768224D01*
X82782826Y-140768224D02*
X82687588Y-140815843D01*
X82687588Y-140815843D02*
X82449493Y-140815843D01*
X82449493Y-140815843D02*
X82354255Y-140768224D01*
X82354255Y-140768224D02*
X82306636Y-140720605D01*
X83211398Y-141196796D02*
X83259017Y-141149177D01*
X83259017Y-141149177D02*
X83354255Y-141006320D01*
X83354255Y-141006320D02*
X83401874Y-140911082D01*
X83401874Y-140911082D02*
X83449493Y-140768224D01*
X83449493Y-140768224D02*
X83497112Y-140530129D01*
X83497112Y-140530129D02*
X83497112Y-140339653D01*
X83497112Y-140339653D02*
X83449493Y-140101558D01*
X83449493Y-140101558D02*
X83401874Y-139958701D01*
X83401874Y-139958701D02*
X83354255Y-139863463D01*
X83354255Y-139863463D02*
X83259017Y-139720605D01*
X83259017Y-139720605D02*
X83211398Y-139672986D01*
X94218095Y-181662380D02*
X94218095Y-182471904D01*
X94218095Y-182471904D02*
X94265714Y-182567142D01*
X94265714Y-182567142D02*
X94313333Y-182614761D01*
X94313333Y-182614761D02*
X94408571Y-182662380D01*
X94408571Y-182662380D02*
X94599047Y-182662380D01*
X94599047Y-182662380D02*
X94694285Y-182614761D01*
X94694285Y-182614761D02*
X94741904Y-182567142D01*
X94741904Y-182567142D02*
X94789523Y-182471904D01*
X94789523Y-182471904D02*
X94789523Y-181662380D01*
X95218095Y-182614761D02*
X95360952Y-182662380D01*
X95360952Y-182662380D02*
X95599047Y-182662380D01*
X95599047Y-182662380D02*
X95694285Y-182614761D01*
X95694285Y-182614761D02*
X95741904Y-182567142D01*
X95741904Y-182567142D02*
X95789523Y-182471904D01*
X95789523Y-182471904D02*
X95789523Y-182376666D01*
X95789523Y-182376666D02*
X95741904Y-182281428D01*
X95741904Y-182281428D02*
X95694285Y-182233809D01*
X95694285Y-182233809D02*
X95599047Y-182186190D01*
X95599047Y-182186190D02*
X95408571Y-182138571D01*
X95408571Y-182138571D02*
X95313333Y-182090952D01*
X95313333Y-182090952D02*
X95265714Y-182043333D01*
X95265714Y-182043333D02*
X95218095Y-181948095D01*
X95218095Y-181948095D02*
X95218095Y-181852857D01*
X95218095Y-181852857D02*
X95265714Y-181757619D01*
X95265714Y-181757619D02*
X95313333Y-181710000D01*
X95313333Y-181710000D02*
X95408571Y-181662380D01*
X95408571Y-181662380D02*
X95646666Y-181662380D01*
X95646666Y-181662380D02*
X95789523Y-181710000D01*
X96551428Y-182138571D02*
X96694285Y-182186190D01*
X96694285Y-182186190D02*
X96741904Y-182233809D01*
X96741904Y-182233809D02*
X96789523Y-182329047D01*
X96789523Y-182329047D02*
X96789523Y-182471904D01*
X96789523Y-182471904D02*
X96741904Y-182567142D01*
X96741904Y-182567142D02*
X96694285Y-182614761D01*
X96694285Y-182614761D02*
X96599047Y-182662380D01*
X96599047Y-182662380D02*
X96218095Y-182662380D01*
X96218095Y-182662380D02*
X96218095Y-181662380D01*
X96218095Y-181662380D02*
X96551428Y-181662380D01*
X96551428Y-181662380D02*
X96646666Y-181710000D01*
X96646666Y-181710000D02*
X96694285Y-181757619D01*
X96694285Y-181757619D02*
X96741904Y-181852857D01*
X96741904Y-181852857D02*
X96741904Y-181948095D01*
X96741904Y-181948095D02*
X96694285Y-182043333D01*
X96694285Y-182043333D02*
X96646666Y-182090952D01*
X96646666Y-182090952D02*
X96551428Y-182138571D01*
X96551428Y-182138571D02*
X96218095Y-182138571D01*
X98532380Y-181614761D02*
X97675238Y-182900476D01*
X99465714Y-182138571D02*
X99799047Y-182138571D01*
X99941904Y-182662380D02*
X99465714Y-182662380D01*
X99465714Y-182662380D02*
X99465714Y-181662380D01*
X99465714Y-181662380D02*
X99941904Y-181662380D01*
X100227619Y-181662380D02*
X100799047Y-181662380D01*
X100513333Y-182662380D02*
X100513333Y-181662380D01*
X101132381Y-182662380D02*
X101132381Y-181662380D01*
X101132381Y-182138571D02*
X101703809Y-182138571D01*
X101703809Y-182662380D02*
X101703809Y-181662380D01*
X76738850Y-164387188D02*
X76881707Y-164434807D01*
X76881707Y-164434807D02*
X77119802Y-164434807D01*
X77119802Y-164434807D02*
X77215040Y-164387188D01*
X77215040Y-164387188D02*
X77262659Y-164339569D01*
X77262659Y-164339569D02*
X77310278Y-164244331D01*
X77310278Y-164244331D02*
X77310278Y-164149093D01*
X77310278Y-164149093D02*
X77262659Y-164053855D01*
X77262659Y-164053855D02*
X77215040Y-164006236D01*
X77215040Y-164006236D02*
X77119802Y-163958617D01*
X77119802Y-163958617D02*
X76929326Y-163910998D01*
X76929326Y-163910998D02*
X76834088Y-163863379D01*
X76834088Y-163863379D02*
X76786469Y-163815760D01*
X76786469Y-163815760D02*
X76738850Y-163720522D01*
X76738850Y-163720522D02*
X76738850Y-163625284D01*
X76738850Y-163625284D02*
X76786469Y-163530046D01*
X76786469Y-163530046D02*
X76834088Y-163482427D01*
X76834088Y-163482427D02*
X76929326Y-163434807D01*
X76929326Y-163434807D02*
X77167421Y-163434807D01*
X77167421Y-163434807D02*
X77310278Y-163482427D01*
X78310278Y-164339569D02*
X78262659Y-164387188D01*
X78262659Y-164387188D02*
X78119802Y-164434807D01*
X78119802Y-164434807D02*
X78024564Y-164434807D01*
X78024564Y-164434807D02*
X77881707Y-164387188D01*
X77881707Y-164387188D02*
X77786469Y-164291950D01*
X77786469Y-164291950D02*
X77738850Y-164196712D01*
X77738850Y-164196712D02*
X77691231Y-164006236D01*
X77691231Y-164006236D02*
X77691231Y-163863379D01*
X77691231Y-163863379D02*
X77738850Y-163672903D01*
X77738850Y-163672903D02*
X77786469Y-163577665D01*
X77786469Y-163577665D02*
X77881707Y-163482427D01*
X77881707Y-163482427D02*
X78024564Y-163434807D01*
X78024564Y-163434807D02*
X78119802Y-163434807D01*
X78119802Y-163434807D02*
X78262659Y-163482427D01*
X78262659Y-163482427D02*
X78310278Y-163530046D01*
X79215040Y-164434807D02*
X78738850Y-164434807D01*
X78738850Y-164434807D02*
X78738850Y-163434807D01*
X77072183Y-166435760D02*
X77024564Y-166388141D01*
X77024564Y-166388141D02*
X76929326Y-166245284D01*
X76929326Y-166245284D02*
X76881707Y-166150046D01*
X76881707Y-166150046D02*
X76834088Y-166007188D01*
X76834088Y-166007188D02*
X76786469Y-165769093D01*
X76786469Y-165769093D02*
X76786469Y-165578617D01*
X76786469Y-165578617D02*
X76834088Y-165340522D01*
X76834088Y-165340522D02*
X76881707Y-165197665D01*
X76881707Y-165197665D02*
X76929326Y-165102427D01*
X76929326Y-165102427D02*
X77024564Y-164959569D01*
X77024564Y-164959569D02*
X77072183Y-164911950D01*
X77453136Y-166054807D02*
X77453136Y-165054807D01*
X78119802Y-165054807D02*
X78310278Y-165054807D01*
X78310278Y-165054807D02*
X78405516Y-165102427D01*
X78405516Y-165102427D02*
X78500754Y-165197665D01*
X78500754Y-165197665D02*
X78548373Y-165388141D01*
X78548373Y-165388141D02*
X78548373Y-165721474D01*
X78548373Y-165721474D02*
X78500754Y-165911950D01*
X78500754Y-165911950D02*
X78405516Y-166007188D01*
X78405516Y-166007188D02*
X78310278Y-166054807D01*
X78310278Y-166054807D02*
X78119802Y-166054807D01*
X78119802Y-166054807D02*
X78024564Y-166007188D01*
X78024564Y-166007188D02*
X77929326Y-165911950D01*
X77929326Y-165911950D02*
X77881707Y-165721474D01*
X77881707Y-165721474D02*
X77881707Y-165388141D01*
X77881707Y-165388141D02*
X77929326Y-165197665D01*
X77929326Y-165197665D02*
X78024564Y-165102427D01*
X78024564Y-165102427D02*
X78119802Y-165054807D01*
X78881707Y-165054807D02*
X79500754Y-165054807D01*
X79500754Y-165054807D02*
X79167421Y-165435760D01*
X79167421Y-165435760D02*
X79310278Y-165435760D01*
X79310278Y-165435760D02*
X79405516Y-165483379D01*
X79405516Y-165483379D02*
X79453135Y-165530998D01*
X79453135Y-165530998D02*
X79500754Y-165626236D01*
X79500754Y-165626236D02*
X79500754Y-165864331D01*
X79500754Y-165864331D02*
X79453135Y-165959569D01*
X79453135Y-165959569D02*
X79405516Y-166007188D01*
X79405516Y-166007188D02*
X79310278Y-166054807D01*
X79310278Y-166054807D02*
X79024564Y-166054807D01*
X79024564Y-166054807D02*
X78929326Y-166007188D01*
X78929326Y-166007188D02*
X78881707Y-165959569D01*
X79834088Y-165054807D02*
X80453135Y-165054807D01*
X80453135Y-165054807D02*
X80119802Y-165435760D01*
X80119802Y-165435760D02*
X80262659Y-165435760D01*
X80262659Y-165435760D02*
X80357897Y-165483379D01*
X80357897Y-165483379D02*
X80405516Y-165530998D01*
X80405516Y-165530998D02*
X80453135Y-165626236D01*
X80453135Y-165626236D02*
X80453135Y-165864331D01*
X80453135Y-165864331D02*
X80405516Y-165959569D01*
X80405516Y-165959569D02*
X80357897Y-166007188D01*
X80357897Y-166007188D02*
X80262659Y-166054807D01*
X80262659Y-166054807D02*
X79976945Y-166054807D01*
X79976945Y-166054807D02*
X79881707Y-166007188D01*
X79881707Y-166007188D02*
X79834088Y-165959569D01*
X80786469Y-166435760D02*
X80834088Y-166388141D01*
X80834088Y-166388141D02*
X80929326Y-166245284D01*
X80929326Y-166245284D02*
X80976945Y-166150046D01*
X80976945Y-166150046D02*
X81024564Y-166007188D01*
X81024564Y-166007188D02*
X81072183Y-165769093D01*
X81072183Y-165769093D02*
X81072183Y-165578617D01*
X81072183Y-165578617D02*
X81024564Y-165340522D01*
X81024564Y-165340522D02*
X80976945Y-165197665D01*
X80976945Y-165197665D02*
X80929326Y-165102427D01*
X80929326Y-165102427D02*
X80834088Y-164959569D01*
X80834088Y-164959569D02*
X80786469Y-164911950D01*
X114490476Y-174495320D02*
X114966666Y-174495320D01*
X114395238Y-174781034D02*
X114728571Y-173781034D01*
X114728571Y-173781034D02*
X115061904Y-174781034D01*
X77735207Y-149506527D02*
X77639969Y-149458907D01*
X77639969Y-149458907D02*
X77497112Y-149458907D01*
X77497112Y-149458907D02*
X77354255Y-149506527D01*
X77354255Y-149506527D02*
X77259017Y-149601765D01*
X77259017Y-149601765D02*
X77211398Y-149697003D01*
X77211398Y-149697003D02*
X77163779Y-149887479D01*
X77163779Y-149887479D02*
X77163779Y-150030336D01*
X77163779Y-150030336D02*
X77211398Y-150220812D01*
X77211398Y-150220812D02*
X77259017Y-150316050D01*
X77259017Y-150316050D02*
X77354255Y-150411288D01*
X77354255Y-150411288D02*
X77497112Y-150458907D01*
X77497112Y-150458907D02*
X77592350Y-150458907D01*
X77592350Y-150458907D02*
X77735207Y-150411288D01*
X77735207Y-150411288D02*
X77782826Y-150363669D01*
X77782826Y-150363669D02*
X77782826Y-150030336D01*
X77782826Y-150030336D02*
X77592350Y-150030336D01*
X78211398Y-150458907D02*
X78211398Y-149458907D01*
X78211398Y-149458907D02*
X78782826Y-150458907D01*
X78782826Y-150458907D02*
X78782826Y-149458907D01*
X79259017Y-150458907D02*
X79259017Y-149458907D01*
X79259017Y-149458907D02*
X79497112Y-149458907D01*
X79497112Y-149458907D02*
X79639969Y-149506527D01*
X79639969Y-149506527D02*
X79735207Y-149601765D01*
X79735207Y-149601765D02*
X79782826Y-149697003D01*
X79782826Y-149697003D02*
X79830445Y-149887479D01*
X79830445Y-149887479D02*
X79830445Y-150030336D01*
X79830445Y-150030336D02*
X79782826Y-150220812D01*
X79782826Y-150220812D02*
X79735207Y-150316050D01*
X79735207Y-150316050D02*
X79639969Y-150411288D01*
X79639969Y-150411288D02*
X79497112Y-150458907D01*
X79497112Y-150458907D02*
X79259017Y-150458907D01*
X76738850Y-159463733D02*
X76881707Y-159511352D01*
X76881707Y-159511352D02*
X77119802Y-159511352D01*
X77119802Y-159511352D02*
X77215040Y-159463733D01*
X77215040Y-159463733D02*
X77262659Y-159416114D01*
X77262659Y-159416114D02*
X77310278Y-159320876D01*
X77310278Y-159320876D02*
X77310278Y-159225638D01*
X77310278Y-159225638D02*
X77262659Y-159130400D01*
X77262659Y-159130400D02*
X77215040Y-159082781D01*
X77215040Y-159082781D02*
X77119802Y-159035162D01*
X77119802Y-159035162D02*
X76929326Y-158987543D01*
X76929326Y-158987543D02*
X76834088Y-158939924D01*
X76834088Y-158939924D02*
X76786469Y-158892305D01*
X76786469Y-158892305D02*
X76738850Y-158797067D01*
X76738850Y-158797067D02*
X76738850Y-158701829D01*
X76738850Y-158701829D02*
X76786469Y-158606591D01*
X76786469Y-158606591D02*
X76834088Y-158558972D01*
X76834088Y-158558972D02*
X76929326Y-158511352D01*
X76929326Y-158511352D02*
X77167421Y-158511352D01*
X77167421Y-158511352D02*
X77310278Y-158558972D01*
X77738850Y-159511352D02*
X77738850Y-158511352D01*
X77738850Y-158511352D02*
X77976945Y-158511352D01*
X77976945Y-158511352D02*
X78119802Y-158558972D01*
X78119802Y-158558972D02*
X78215040Y-158654210D01*
X78215040Y-158654210D02*
X78262659Y-158749448D01*
X78262659Y-158749448D02*
X78310278Y-158939924D01*
X78310278Y-158939924D02*
X78310278Y-159082781D01*
X78310278Y-159082781D02*
X78262659Y-159273257D01*
X78262659Y-159273257D02*
X78215040Y-159368495D01*
X78215040Y-159368495D02*
X78119802Y-159463733D01*
X78119802Y-159463733D02*
X77976945Y-159511352D01*
X77976945Y-159511352D02*
X77738850Y-159511352D01*
X78691231Y-159225638D02*
X79167421Y-159225638D01*
X78595993Y-159511352D02*
X78929326Y-158511352D01*
X78929326Y-158511352D02*
X79262659Y-159511352D01*
X77072183Y-161512305D02*
X77024564Y-161464686D01*
X77024564Y-161464686D02*
X76929326Y-161321829D01*
X76929326Y-161321829D02*
X76881707Y-161226591D01*
X76881707Y-161226591D02*
X76834088Y-161083733D01*
X76834088Y-161083733D02*
X76786469Y-160845638D01*
X76786469Y-160845638D02*
X76786469Y-160655162D01*
X76786469Y-160655162D02*
X76834088Y-160417067D01*
X76834088Y-160417067D02*
X76881707Y-160274210D01*
X76881707Y-160274210D02*
X76929326Y-160178972D01*
X76929326Y-160178972D02*
X77024564Y-160036114D01*
X77024564Y-160036114D02*
X77072183Y-159988495D01*
X77453136Y-161131352D02*
X77453136Y-160131352D01*
X78119802Y-160131352D02*
X78310278Y-160131352D01*
X78310278Y-160131352D02*
X78405516Y-160178972D01*
X78405516Y-160178972D02*
X78500754Y-160274210D01*
X78500754Y-160274210D02*
X78548373Y-160464686D01*
X78548373Y-160464686D02*
X78548373Y-160798019D01*
X78548373Y-160798019D02*
X78500754Y-160988495D01*
X78500754Y-160988495D02*
X78405516Y-161083733D01*
X78405516Y-161083733D02*
X78310278Y-161131352D01*
X78310278Y-161131352D02*
X78119802Y-161131352D01*
X78119802Y-161131352D02*
X78024564Y-161083733D01*
X78024564Y-161083733D02*
X77929326Y-160988495D01*
X77929326Y-160988495D02*
X77881707Y-160798019D01*
X77881707Y-160798019D02*
X77881707Y-160464686D01*
X77881707Y-160464686D02*
X77929326Y-160274210D01*
X77929326Y-160274210D02*
X78024564Y-160178972D01*
X78024564Y-160178972D02*
X78119802Y-160131352D01*
X78881707Y-160131352D02*
X79500754Y-160131352D01*
X79500754Y-160131352D02*
X79167421Y-160512305D01*
X79167421Y-160512305D02*
X79310278Y-160512305D01*
X79310278Y-160512305D02*
X79405516Y-160559924D01*
X79405516Y-160559924D02*
X79453135Y-160607543D01*
X79453135Y-160607543D02*
X79500754Y-160702781D01*
X79500754Y-160702781D02*
X79500754Y-160940876D01*
X79500754Y-160940876D02*
X79453135Y-161036114D01*
X79453135Y-161036114D02*
X79405516Y-161083733D01*
X79405516Y-161083733D02*
X79310278Y-161131352D01*
X79310278Y-161131352D02*
X79024564Y-161131352D01*
X79024564Y-161131352D02*
X78929326Y-161083733D01*
X78929326Y-161083733D02*
X78881707Y-161036114D01*
X79881707Y-160226591D02*
X79929326Y-160178972D01*
X79929326Y-160178972D02*
X80024564Y-160131352D01*
X80024564Y-160131352D02*
X80262659Y-160131352D01*
X80262659Y-160131352D02*
X80357897Y-160178972D01*
X80357897Y-160178972D02*
X80405516Y-160226591D01*
X80405516Y-160226591D02*
X80453135Y-160321829D01*
X80453135Y-160321829D02*
X80453135Y-160417067D01*
X80453135Y-160417067D02*
X80405516Y-160559924D01*
X80405516Y-160559924D02*
X79834088Y-161131352D01*
X79834088Y-161131352D02*
X80453135Y-161131352D01*
X80786469Y-161512305D02*
X80834088Y-161464686D01*
X80834088Y-161464686D02*
X80929326Y-161321829D01*
X80929326Y-161321829D02*
X80976945Y-161226591D01*
X80976945Y-161226591D02*
X81024564Y-161083733D01*
X81024564Y-161083733D02*
X81072183Y-160845638D01*
X81072183Y-160845638D02*
X81072183Y-160655162D01*
X81072183Y-160655162D02*
X81024564Y-160417067D01*
X81024564Y-160417067D02*
X80976945Y-160274210D01*
X80976945Y-160274210D02*
X80929326Y-160178972D01*
X80929326Y-160178972D02*
X80834088Y-160036114D01*
X80834088Y-160036114D02*
X80786469Y-159988495D01*
X114490476Y-128769155D02*
X114966666Y-128769155D01*
X114395238Y-129054869D02*
X114728571Y-128054869D01*
X114728571Y-128054869D02*
X115061904Y-129054869D01*
X77417750Y-119792834D02*
X76846322Y-119792834D01*
X77132036Y-119792834D02*
X77132036Y-118792834D01*
X77132036Y-118792834D02*
X77036798Y-118935692D01*
X77036798Y-118935692D02*
X76941560Y-119030930D01*
X76941560Y-119030930D02*
X76846322Y-119078549D01*
X77798703Y-118888073D02*
X77846322Y-118840454D01*
X77846322Y-118840454D02*
X77941560Y-118792834D01*
X77941560Y-118792834D02*
X78179655Y-118792834D01*
X78179655Y-118792834D02*
X78274893Y-118840454D01*
X78274893Y-118840454D02*
X78322512Y-118888073D01*
X78322512Y-118888073D02*
X78370131Y-118983311D01*
X78370131Y-118983311D02*
X78370131Y-119078549D01*
X78370131Y-119078549D02*
X78322512Y-119221406D01*
X78322512Y-119221406D02*
X77751084Y-119792834D01*
X77751084Y-119792834D02*
X78370131Y-119792834D01*
X78655846Y-118792834D02*
X78989179Y-119792834D01*
X78989179Y-119792834D02*
X79322512Y-118792834D01*
X79655846Y-119411882D02*
X80417751Y-119411882D01*
X80036798Y-119792834D02*
X80036798Y-119030930D01*
X117238571Y-116601904D02*
X117238571Y-116268571D01*
X117762380Y-116125714D02*
X117762380Y-116601904D01*
X117762380Y-116601904D02*
X116762380Y-116601904D01*
X116762380Y-116601904D02*
X116762380Y-116125714D01*
X117714761Y-115744761D02*
X117762380Y-115601904D01*
X117762380Y-115601904D02*
X117762380Y-115363809D01*
X117762380Y-115363809D02*
X117714761Y-115268571D01*
X117714761Y-115268571D02*
X117667142Y-115220952D01*
X117667142Y-115220952D02*
X117571904Y-115173333D01*
X117571904Y-115173333D02*
X117476666Y-115173333D01*
X117476666Y-115173333D02*
X117381428Y-115220952D01*
X117381428Y-115220952D02*
X117333809Y-115268571D01*
X117333809Y-115268571D02*
X117286190Y-115363809D01*
X117286190Y-115363809D02*
X117238571Y-115554285D01*
X117238571Y-115554285D02*
X117190952Y-115649523D01*
X117190952Y-115649523D02*
X117143333Y-115697142D01*
X117143333Y-115697142D02*
X117048095Y-115744761D01*
X117048095Y-115744761D02*
X116952857Y-115744761D01*
X116952857Y-115744761D02*
X116857619Y-115697142D01*
X116857619Y-115697142D02*
X116810000Y-115649523D01*
X116810000Y-115649523D02*
X116762380Y-115554285D01*
X116762380Y-115554285D02*
X116762380Y-115316190D01*
X116762380Y-115316190D02*
X116810000Y-115173333D01*
X117762380Y-114744761D02*
X116762380Y-114744761D01*
X116762380Y-114744761D02*
X116762380Y-114363809D01*
X116762380Y-114363809D02*
X116810000Y-114268571D01*
X116810000Y-114268571D02*
X116857619Y-114220952D01*
X116857619Y-114220952D02*
X116952857Y-114173333D01*
X116952857Y-114173333D02*
X117095714Y-114173333D01*
X117095714Y-114173333D02*
X117190952Y-114220952D01*
X117190952Y-114220952D02*
X117238571Y-114268571D01*
X117238571Y-114268571D02*
X117286190Y-114363809D01*
X117286190Y-114363809D02*
X117286190Y-114744761D01*
X116762380Y-113839999D02*
X116762380Y-113220952D01*
X116762380Y-113220952D02*
X117143333Y-113554285D01*
X117143333Y-113554285D02*
X117143333Y-113411428D01*
X117143333Y-113411428D02*
X117190952Y-113316190D01*
X117190952Y-113316190D02*
X117238571Y-113268571D01*
X117238571Y-113268571D02*
X117333809Y-113220952D01*
X117333809Y-113220952D02*
X117571904Y-113220952D01*
X117571904Y-113220952D02*
X117667142Y-113268571D01*
X117667142Y-113268571D02*
X117714761Y-113316190D01*
X117714761Y-113316190D02*
X117762380Y-113411428D01*
X117762380Y-113411428D02*
X117762380Y-113697142D01*
X117762380Y-113697142D02*
X117714761Y-113792380D01*
X117714761Y-113792380D02*
X117667142Y-113839999D01*
X116857619Y-112839999D02*
X116810000Y-112792380D01*
X116810000Y-112792380D02*
X116762380Y-112697142D01*
X116762380Y-112697142D02*
X116762380Y-112459047D01*
X116762380Y-112459047D02*
X116810000Y-112363809D01*
X116810000Y-112363809D02*
X116857619Y-112316190D01*
X116857619Y-112316190D02*
X116952857Y-112268571D01*
X116952857Y-112268571D02*
X117048095Y-112268571D01*
X117048095Y-112268571D02*
X117190952Y-112316190D01*
X117190952Y-112316190D02*
X117762380Y-112887618D01*
X117762380Y-112887618D02*
X117762380Y-112268571D01*
X117381428Y-111839999D02*
X117381428Y-111078095D01*
X117476666Y-110649523D02*
X117476666Y-110173333D01*
X117762380Y-110744761D02*
X116762380Y-110411428D01*
X116762380Y-110411428D02*
X117762380Y-110078095D01*
X117238571Y-109411428D02*
X117286190Y-109268571D01*
X117286190Y-109268571D02*
X117333809Y-109220952D01*
X117333809Y-109220952D02*
X117429047Y-109173333D01*
X117429047Y-109173333D02*
X117571904Y-109173333D01*
X117571904Y-109173333D02*
X117667142Y-109220952D01*
X117667142Y-109220952D02*
X117714761Y-109268571D01*
X117714761Y-109268571D02*
X117762380Y-109363809D01*
X117762380Y-109363809D02*
X117762380Y-109744761D01*
X117762380Y-109744761D02*
X116762380Y-109744761D01*
X116762380Y-109744761D02*
X116762380Y-109411428D01*
X116762380Y-109411428D02*
X116810000Y-109316190D01*
X116810000Y-109316190D02*
X116857619Y-109268571D01*
X116857619Y-109268571D02*
X116952857Y-109220952D01*
X116952857Y-109220952D02*
X117048095Y-109220952D01*
X117048095Y-109220952D02*
X117143333Y-109268571D01*
X117143333Y-109268571D02*
X117190952Y-109316190D01*
X117190952Y-109316190D02*
X117238571Y-109411428D01*
X117238571Y-109411428D02*
X117238571Y-109744761D01*
X117238571Y-108744761D02*
X117238571Y-108411428D01*
X117762380Y-108268571D02*
X117762380Y-108744761D01*
X117762380Y-108744761D02*
X116762380Y-108744761D01*
X116762380Y-108744761D02*
X116762380Y-108268571D01*
X118858571Y-116268571D02*
X118906190Y-116125714D01*
X118906190Y-116125714D02*
X118953809Y-116078095D01*
X118953809Y-116078095D02*
X119049047Y-116030476D01*
X119049047Y-116030476D02*
X119191904Y-116030476D01*
X119191904Y-116030476D02*
X119287142Y-116078095D01*
X119287142Y-116078095D02*
X119334761Y-116125714D01*
X119334761Y-116125714D02*
X119382380Y-116220952D01*
X119382380Y-116220952D02*
X119382380Y-116601904D01*
X119382380Y-116601904D02*
X118382380Y-116601904D01*
X118382380Y-116601904D02*
X118382380Y-116268571D01*
X118382380Y-116268571D02*
X118430000Y-116173333D01*
X118430000Y-116173333D02*
X118477619Y-116125714D01*
X118477619Y-116125714D02*
X118572857Y-116078095D01*
X118572857Y-116078095D02*
X118668095Y-116078095D01*
X118668095Y-116078095D02*
X118763333Y-116125714D01*
X118763333Y-116125714D02*
X118810952Y-116173333D01*
X118810952Y-116173333D02*
X118858571Y-116268571D01*
X118858571Y-116268571D02*
X118858571Y-116601904D01*
X119382380Y-115030476D02*
X118906190Y-115363809D01*
X119382380Y-115601904D02*
X118382380Y-115601904D01*
X118382380Y-115601904D02*
X118382380Y-115220952D01*
X118382380Y-115220952D02*
X118430000Y-115125714D01*
X118430000Y-115125714D02*
X118477619Y-115078095D01*
X118477619Y-115078095D02*
X118572857Y-115030476D01*
X118572857Y-115030476D02*
X118715714Y-115030476D01*
X118715714Y-115030476D02*
X118810952Y-115078095D01*
X118810952Y-115078095D02*
X118858571Y-115125714D01*
X118858571Y-115125714D02*
X118906190Y-115220952D01*
X118906190Y-115220952D02*
X118906190Y-115601904D01*
X118858571Y-114601904D02*
X118858571Y-114268571D01*
X119382380Y-114125714D02*
X119382380Y-114601904D01*
X119382380Y-114601904D02*
X118382380Y-114601904D01*
X118382380Y-114601904D02*
X118382380Y-114125714D01*
X119096666Y-113744761D02*
X119096666Y-113268571D01*
X119382380Y-113839999D02*
X118382380Y-113506666D01*
X118382380Y-113506666D02*
X119382380Y-113173333D01*
X119382380Y-112839999D02*
X118382380Y-112839999D01*
X119382380Y-112268571D02*
X118810952Y-112697142D01*
X118382380Y-112268571D02*
X118953809Y-112839999D01*
X118382380Y-111649523D02*
X118382380Y-111459047D01*
X118382380Y-111459047D02*
X118430000Y-111363809D01*
X118430000Y-111363809D02*
X118525238Y-111268571D01*
X118525238Y-111268571D02*
X118715714Y-111220952D01*
X118715714Y-111220952D02*
X119049047Y-111220952D01*
X119049047Y-111220952D02*
X119239523Y-111268571D01*
X119239523Y-111268571D02*
X119334761Y-111363809D01*
X119334761Y-111363809D02*
X119382380Y-111459047D01*
X119382380Y-111459047D02*
X119382380Y-111649523D01*
X119382380Y-111649523D02*
X119334761Y-111744761D01*
X119334761Y-111744761D02*
X119239523Y-111839999D01*
X119239523Y-111839999D02*
X119049047Y-111887618D01*
X119049047Y-111887618D02*
X118715714Y-111887618D01*
X118715714Y-111887618D02*
X118525238Y-111839999D01*
X118525238Y-111839999D02*
X118430000Y-111744761D01*
X118430000Y-111744761D02*
X118382380Y-111649523D01*
X118382380Y-110792380D02*
X119191904Y-110792380D01*
X119191904Y-110792380D02*
X119287142Y-110744761D01*
X119287142Y-110744761D02*
X119334761Y-110697142D01*
X119334761Y-110697142D02*
X119382380Y-110601904D01*
X119382380Y-110601904D02*
X119382380Y-110411428D01*
X119382380Y-110411428D02*
X119334761Y-110316190D01*
X119334761Y-110316190D02*
X119287142Y-110268571D01*
X119287142Y-110268571D02*
X119191904Y-110220952D01*
X119191904Y-110220952D02*
X118382380Y-110220952D01*
X118382380Y-109887618D02*
X118382380Y-109316190D01*
X119382380Y-109601904D02*
X118382380Y-109601904D01*
X121002380Y-116601904D02*
X120002380Y-116601904D01*
X120002380Y-116601904D02*
X120716666Y-116268571D01*
X120716666Y-116268571D02*
X120002380Y-115935238D01*
X120002380Y-115935238D02*
X121002380Y-115935238D01*
X120002380Y-115268571D02*
X120002380Y-115078095D01*
X120002380Y-115078095D02*
X120050000Y-114982857D01*
X120050000Y-114982857D02*
X120145238Y-114887619D01*
X120145238Y-114887619D02*
X120335714Y-114840000D01*
X120335714Y-114840000D02*
X120669047Y-114840000D01*
X120669047Y-114840000D02*
X120859523Y-114887619D01*
X120859523Y-114887619D02*
X120954761Y-114982857D01*
X120954761Y-114982857D02*
X121002380Y-115078095D01*
X121002380Y-115078095D02*
X121002380Y-115268571D01*
X121002380Y-115268571D02*
X120954761Y-115363809D01*
X120954761Y-115363809D02*
X120859523Y-115459047D01*
X120859523Y-115459047D02*
X120669047Y-115506666D01*
X120669047Y-115506666D02*
X120335714Y-115506666D01*
X120335714Y-115506666D02*
X120145238Y-115459047D01*
X120145238Y-115459047D02*
X120050000Y-115363809D01*
X120050000Y-115363809D02*
X120002380Y-115268571D01*
X121002380Y-114411428D02*
X120002380Y-114411428D01*
X120002380Y-114411428D02*
X120002380Y-114173333D01*
X120002380Y-114173333D02*
X120050000Y-114030476D01*
X120050000Y-114030476D02*
X120145238Y-113935238D01*
X120145238Y-113935238D02*
X120240476Y-113887619D01*
X120240476Y-113887619D02*
X120430952Y-113840000D01*
X120430952Y-113840000D02*
X120573809Y-113840000D01*
X120573809Y-113840000D02*
X120764285Y-113887619D01*
X120764285Y-113887619D02*
X120859523Y-113935238D01*
X120859523Y-113935238D02*
X120954761Y-114030476D01*
X120954761Y-114030476D02*
X121002380Y-114173333D01*
X121002380Y-114173333D02*
X121002380Y-114411428D01*
X120002380Y-113411428D02*
X120811904Y-113411428D01*
X120811904Y-113411428D02*
X120907142Y-113363809D01*
X120907142Y-113363809D02*
X120954761Y-113316190D01*
X120954761Y-113316190D02*
X121002380Y-113220952D01*
X121002380Y-113220952D02*
X121002380Y-113030476D01*
X121002380Y-113030476D02*
X120954761Y-112935238D01*
X120954761Y-112935238D02*
X120907142Y-112887619D01*
X120907142Y-112887619D02*
X120811904Y-112840000D01*
X120811904Y-112840000D02*
X120002380Y-112840000D01*
X121002380Y-111887619D02*
X121002380Y-112363809D01*
X121002380Y-112363809D02*
X120002380Y-112363809D01*
X120478571Y-111554285D02*
X120478571Y-111220952D01*
X121002380Y-111078095D02*
X121002380Y-111554285D01*
X121002380Y-111554285D02*
X120002380Y-111554285D01*
X120002380Y-111554285D02*
X120002380Y-111078095D01*
X121622380Y-116744761D02*
X121622380Y-116173333D01*
X122622380Y-116459047D02*
X121622380Y-116459047D01*
X122146190Y-115649523D02*
X122622380Y-115649523D01*
X121622380Y-115982856D02*
X122146190Y-115649523D01*
X122146190Y-115649523D02*
X121622380Y-115316190D01*
X122622380Y-114982856D02*
X121622380Y-114982856D01*
X121622380Y-114982856D02*
X121622380Y-114601904D01*
X121622380Y-114601904D02*
X121670000Y-114506666D01*
X121670000Y-114506666D02*
X121717619Y-114459047D01*
X121717619Y-114459047D02*
X121812857Y-114411428D01*
X121812857Y-114411428D02*
X121955714Y-114411428D01*
X121955714Y-114411428D02*
X122050952Y-114459047D01*
X122050952Y-114459047D02*
X122098571Y-114506666D01*
X122098571Y-114506666D02*
X122146190Y-114601904D01*
X122146190Y-114601904D02*
X122146190Y-114982856D01*
X122098571Y-113982856D02*
X122098571Y-113649523D01*
X122622380Y-113506666D02*
X122622380Y-113982856D01*
X122622380Y-113982856D02*
X121622380Y-113982856D01*
X121622380Y-113982856D02*
X121622380Y-113506666D01*
X122527142Y-113078094D02*
X122574761Y-113030475D01*
X122574761Y-113030475D02*
X122622380Y-113078094D01*
X122622380Y-113078094D02*
X122574761Y-113125713D01*
X122574761Y-113125713D02*
X122527142Y-113078094D01*
X122527142Y-113078094D02*
X122622380Y-113078094D01*
X122003333Y-113078094D02*
X122050952Y-113030475D01*
X122050952Y-113030475D02*
X122098571Y-113078094D01*
X122098571Y-113078094D02*
X122050952Y-113125713D01*
X122050952Y-113125713D02*
X122003333Y-113078094D01*
X122003333Y-113078094D02*
X122098571Y-113078094D01*
X122336666Y-112049523D02*
X122336666Y-111573333D01*
X122622380Y-112144761D02*
X121622380Y-111811428D01*
X121622380Y-111811428D02*
X122622380Y-111478095D01*
X124242380Y-116030476D02*
X123766190Y-116363809D01*
X124242380Y-116601904D02*
X123242380Y-116601904D01*
X123242380Y-116601904D02*
X123242380Y-116220952D01*
X123242380Y-116220952D02*
X123290000Y-116125714D01*
X123290000Y-116125714D02*
X123337619Y-116078095D01*
X123337619Y-116078095D02*
X123432857Y-116030476D01*
X123432857Y-116030476D02*
X123575714Y-116030476D01*
X123575714Y-116030476D02*
X123670952Y-116078095D01*
X123670952Y-116078095D02*
X123718571Y-116125714D01*
X123718571Y-116125714D02*
X123766190Y-116220952D01*
X123766190Y-116220952D02*
X123766190Y-116601904D01*
X123718571Y-115601904D02*
X123718571Y-115268571D01*
X124242380Y-115125714D02*
X124242380Y-115601904D01*
X124242380Y-115601904D02*
X123242380Y-115601904D01*
X123242380Y-115601904D02*
X123242380Y-115125714D01*
X123242380Y-114839999D02*
X124242380Y-114506666D01*
X124242380Y-114506666D02*
X123242380Y-114173333D01*
X124147142Y-113839999D02*
X124194761Y-113792380D01*
X124194761Y-113792380D02*
X124242380Y-113839999D01*
X124242380Y-113839999D02*
X124194761Y-113887618D01*
X124194761Y-113887618D02*
X124147142Y-113839999D01*
X124147142Y-113839999D02*
X124242380Y-113839999D01*
X123623333Y-113839999D02*
X123670952Y-113792380D01*
X123670952Y-113792380D02*
X123718571Y-113839999D01*
X123718571Y-113839999D02*
X123670952Y-113887618D01*
X123670952Y-113887618D02*
X123623333Y-113839999D01*
X123623333Y-113839999D02*
X123718571Y-113839999D01*
X123242380Y-112573333D02*
X123242380Y-112478095D01*
X123242380Y-112478095D02*
X123290000Y-112382857D01*
X123290000Y-112382857D02*
X123337619Y-112335238D01*
X123337619Y-112335238D02*
X123432857Y-112287619D01*
X123432857Y-112287619D02*
X123623333Y-112240000D01*
X123623333Y-112240000D02*
X123861428Y-112240000D01*
X123861428Y-112240000D02*
X124051904Y-112287619D01*
X124051904Y-112287619D02*
X124147142Y-112335238D01*
X124147142Y-112335238D02*
X124194761Y-112382857D01*
X124194761Y-112382857D02*
X124242380Y-112478095D01*
X124242380Y-112478095D02*
X124242380Y-112573333D01*
X124242380Y-112573333D02*
X124194761Y-112668571D01*
X124194761Y-112668571D02*
X124147142Y-112716190D01*
X124147142Y-112716190D02*
X124051904Y-112763809D01*
X124051904Y-112763809D02*
X123861428Y-112811428D01*
X123861428Y-112811428D02*
X123623333Y-112811428D01*
X123623333Y-112811428D02*
X123432857Y-112763809D01*
X123432857Y-112763809D02*
X123337619Y-112716190D01*
X123337619Y-112716190D02*
X123290000Y-112668571D01*
X123290000Y-112668571D02*
X123242380Y-112573333D01*
X124147142Y-111811428D02*
X124194761Y-111763809D01*
X124194761Y-111763809D02*
X124242380Y-111811428D01*
X124242380Y-111811428D02*
X124194761Y-111859047D01*
X124194761Y-111859047D02*
X124147142Y-111811428D01*
X124147142Y-111811428D02*
X124242380Y-111811428D01*
X124242380Y-110811429D02*
X124242380Y-111382857D01*
X124242380Y-111097143D02*
X123242380Y-111097143D01*
X123242380Y-111097143D02*
X123385238Y-111192381D01*
X123385238Y-111192381D02*
X123480476Y-111287619D01*
X123480476Y-111287619D02*
X123528095Y-111382857D01*
X114490476Y-143847427D02*
X114966666Y-143847427D01*
X114395238Y-144133141D02*
X114728571Y-143133141D01*
X114728571Y-143133141D02*
X115061904Y-144133141D01*
X77735207Y-135218907D02*
X77163779Y-135218907D01*
X77449493Y-135218907D02*
X77449493Y-134218907D01*
X77449493Y-134218907D02*
X77354255Y-134361765D01*
X77354255Y-134361765D02*
X77259017Y-134457003D01*
X77259017Y-134457003D02*
X77163779Y-134504622D01*
X78116160Y-134314146D02*
X78163779Y-134266527D01*
X78163779Y-134266527D02*
X78259017Y-134218907D01*
X78259017Y-134218907D02*
X78497112Y-134218907D01*
X78497112Y-134218907D02*
X78592350Y-134266527D01*
X78592350Y-134266527D02*
X78639969Y-134314146D01*
X78639969Y-134314146D02*
X78687588Y-134409384D01*
X78687588Y-134409384D02*
X78687588Y-134504622D01*
X78687588Y-134504622D02*
X78639969Y-134647479D01*
X78639969Y-134647479D02*
X78068541Y-135218907D01*
X78068541Y-135218907D02*
X78687588Y-135218907D01*
X78973303Y-134218907D02*
X79306636Y-135218907D01*
X79306636Y-135218907D02*
X79639969Y-134218907D01*
X79973303Y-134837955D02*
X80735208Y-134837955D01*
X80354255Y-135218907D02*
X80354255Y-134457003D01*
X94017242Y-116340504D02*
X93969623Y-116292885D01*
X93969623Y-116292885D02*
X93874385Y-116150028D01*
X93874385Y-116150028D02*
X93826766Y-116054790D01*
X93826766Y-116054790D02*
X93779147Y-115911932D01*
X93779147Y-115911932D02*
X93731528Y-115673837D01*
X93731528Y-115673837D02*
X93731528Y-115483361D01*
X93731528Y-115483361D02*
X93779147Y-115245266D01*
X93779147Y-115245266D02*
X93826766Y-115102409D01*
X93826766Y-115102409D02*
X93874385Y-115007171D01*
X93874385Y-115007171D02*
X93969623Y-114864313D01*
X93969623Y-114864313D02*
X94017242Y-114816694D01*
X94922004Y-115007171D02*
X94826766Y-114959551D01*
X94826766Y-114959551D02*
X94683909Y-114959551D01*
X94683909Y-114959551D02*
X94541052Y-115007171D01*
X94541052Y-115007171D02*
X94445814Y-115102409D01*
X94445814Y-115102409D02*
X94398195Y-115197647D01*
X94398195Y-115197647D02*
X94350576Y-115388123D01*
X94350576Y-115388123D02*
X94350576Y-115530980D01*
X94350576Y-115530980D02*
X94398195Y-115721456D01*
X94398195Y-115721456D02*
X94445814Y-115816694D01*
X94445814Y-115816694D02*
X94541052Y-115911932D01*
X94541052Y-115911932D02*
X94683909Y-115959551D01*
X94683909Y-115959551D02*
X94779147Y-115959551D01*
X94779147Y-115959551D02*
X94922004Y-115911932D01*
X94922004Y-115911932D02*
X94969623Y-115864313D01*
X94969623Y-115864313D02*
X94969623Y-115530980D01*
X94969623Y-115530980D02*
X94779147Y-115530980D01*
X95398195Y-115959551D02*
X95398195Y-114959551D01*
X95398195Y-114959551D02*
X95779147Y-114959551D01*
X95779147Y-114959551D02*
X95874385Y-115007171D01*
X95874385Y-115007171D02*
X95922004Y-115054790D01*
X95922004Y-115054790D02*
X95969623Y-115150028D01*
X95969623Y-115150028D02*
X95969623Y-115292885D01*
X95969623Y-115292885D02*
X95922004Y-115388123D01*
X95922004Y-115388123D02*
X95874385Y-115435742D01*
X95874385Y-115435742D02*
X95779147Y-115483361D01*
X95779147Y-115483361D02*
X95398195Y-115483361D01*
X96398195Y-115959551D02*
X96398195Y-114959551D01*
X97064861Y-114959551D02*
X97255337Y-114959551D01*
X97255337Y-114959551D02*
X97350575Y-115007171D01*
X97350575Y-115007171D02*
X97445813Y-115102409D01*
X97445813Y-115102409D02*
X97493432Y-115292885D01*
X97493432Y-115292885D02*
X97493432Y-115626218D01*
X97493432Y-115626218D02*
X97445813Y-115816694D01*
X97445813Y-115816694D02*
X97350575Y-115911932D01*
X97350575Y-115911932D02*
X97255337Y-115959551D01*
X97255337Y-115959551D02*
X97064861Y-115959551D01*
X97064861Y-115959551D02*
X96969623Y-115911932D01*
X96969623Y-115911932D02*
X96874385Y-115816694D01*
X96874385Y-115816694D02*
X96826766Y-115626218D01*
X96826766Y-115626218D02*
X96826766Y-115292885D01*
X96826766Y-115292885D02*
X96874385Y-115102409D01*
X96874385Y-115102409D02*
X96969623Y-115007171D01*
X96969623Y-115007171D02*
X97064861Y-114959551D01*
X97826766Y-114959551D02*
X98445813Y-114959551D01*
X98445813Y-114959551D02*
X98112480Y-115340504D01*
X98112480Y-115340504D02*
X98255337Y-115340504D01*
X98255337Y-115340504D02*
X98350575Y-115388123D01*
X98350575Y-115388123D02*
X98398194Y-115435742D01*
X98398194Y-115435742D02*
X98445813Y-115530980D01*
X98445813Y-115530980D02*
X98445813Y-115769075D01*
X98445813Y-115769075D02*
X98398194Y-115864313D01*
X98398194Y-115864313D02*
X98350575Y-115911932D01*
X98350575Y-115911932D02*
X98255337Y-115959551D01*
X98255337Y-115959551D02*
X97969623Y-115959551D01*
X97969623Y-115959551D02*
X97874385Y-115911932D01*
X97874385Y-115911932D02*
X97826766Y-115864313D01*
X99350575Y-114959551D02*
X98874385Y-114959551D01*
X98874385Y-114959551D02*
X98826766Y-115435742D01*
X98826766Y-115435742D02*
X98874385Y-115388123D01*
X98874385Y-115388123D02*
X98969623Y-115340504D01*
X98969623Y-115340504D02*
X99207718Y-115340504D01*
X99207718Y-115340504D02*
X99302956Y-115388123D01*
X99302956Y-115388123D02*
X99350575Y-115435742D01*
X99350575Y-115435742D02*
X99398194Y-115530980D01*
X99398194Y-115530980D02*
X99398194Y-115769075D01*
X99398194Y-115769075D02*
X99350575Y-115864313D01*
X99350575Y-115864313D02*
X99302956Y-115911932D01*
X99302956Y-115911932D02*
X99207718Y-115959551D01*
X99207718Y-115959551D02*
X98969623Y-115959551D01*
X98969623Y-115959551D02*
X98874385Y-115911932D01*
X98874385Y-115911932D02*
X98826766Y-115864313D01*
X99731528Y-116340504D02*
X99779147Y-116292885D01*
X99779147Y-116292885D02*
X99874385Y-116150028D01*
X99874385Y-116150028D02*
X99922004Y-116054790D01*
X99922004Y-116054790D02*
X99969623Y-115911932D01*
X99969623Y-115911932D02*
X100017242Y-115673837D01*
X100017242Y-115673837D02*
X100017242Y-115483361D01*
X100017242Y-115483361D02*
X99969623Y-115245266D01*
X99969623Y-115245266D02*
X99922004Y-115102409D01*
X99922004Y-115102409D02*
X99874385Y-115007171D01*
X99874385Y-115007171D02*
X99779147Y-114864313D01*
X99779147Y-114864313D02*
X99731528Y-114816694D01*
X77687588Y-144170752D02*
X77211398Y-144170752D01*
X77211398Y-144170752D02*
X77211398Y-143170752D01*
X78020922Y-143646943D02*
X78354255Y-143646943D01*
X78497112Y-144170752D02*
X78020922Y-144170752D01*
X78020922Y-144170752D02*
X78020922Y-143170752D01*
X78020922Y-143170752D02*
X78497112Y-143170752D01*
X78925684Y-144170752D02*
X78925684Y-143170752D01*
X78925684Y-143170752D02*
X79163779Y-143170752D01*
X79163779Y-143170752D02*
X79306636Y-143218372D01*
X79306636Y-143218372D02*
X79401874Y-143313610D01*
X79401874Y-143313610D02*
X79449493Y-143408848D01*
X79449493Y-143408848D02*
X79497112Y-143599324D01*
X79497112Y-143599324D02*
X79497112Y-143742181D01*
X79497112Y-143742181D02*
X79449493Y-143932657D01*
X79449493Y-143932657D02*
X79401874Y-144027895D01*
X79401874Y-144027895D02*
X79306636Y-144123133D01*
X79306636Y-144123133D02*
X79163779Y-144170752D01*
X79163779Y-144170752D02*
X78925684Y-144170752D01*
X80716160Y-143170752D02*
X80906636Y-143170752D01*
X80906636Y-143170752D02*
X81001874Y-143218372D01*
X81001874Y-143218372D02*
X81097112Y-143313610D01*
X81097112Y-143313610D02*
X81144731Y-143504086D01*
X81144731Y-143504086D02*
X81144731Y-143837419D01*
X81144731Y-143837419D02*
X81097112Y-144027895D01*
X81097112Y-144027895D02*
X81001874Y-144123133D01*
X81001874Y-144123133D02*
X80906636Y-144170752D01*
X80906636Y-144170752D02*
X80716160Y-144170752D01*
X80716160Y-144170752D02*
X80620922Y-144123133D01*
X80620922Y-144123133D02*
X80525684Y-144027895D01*
X80525684Y-144027895D02*
X80478065Y-143837419D01*
X80478065Y-143837419D02*
X80478065Y-143504086D01*
X80478065Y-143504086D02*
X80525684Y-143313610D01*
X80525684Y-143313610D02*
X80620922Y-143218372D01*
X80620922Y-143218372D02*
X80716160Y-143170752D01*
X81573303Y-143170752D02*
X81573303Y-143980276D01*
X81573303Y-143980276D02*
X81620922Y-144075514D01*
X81620922Y-144075514D02*
X81668541Y-144123133D01*
X81668541Y-144123133D02*
X81763779Y-144170752D01*
X81763779Y-144170752D02*
X81954255Y-144170752D01*
X81954255Y-144170752D02*
X82049493Y-144123133D01*
X82049493Y-144123133D02*
X82097112Y-144075514D01*
X82097112Y-144075514D02*
X82144731Y-143980276D01*
X82144731Y-143980276D02*
X82144731Y-143170752D01*
X82478065Y-143170752D02*
X83049493Y-143170752D01*
X82763779Y-144170752D02*
X82763779Y-143170752D01*
X83382827Y-144170752D02*
X83382827Y-143170752D01*
X83382827Y-143170752D02*
X83763779Y-143170752D01*
X83763779Y-143170752D02*
X83859017Y-143218372D01*
X83859017Y-143218372D02*
X83906636Y-143265991D01*
X83906636Y-143265991D02*
X83954255Y-143361229D01*
X83954255Y-143361229D02*
X83954255Y-143504086D01*
X83954255Y-143504086D02*
X83906636Y-143599324D01*
X83906636Y-143599324D02*
X83859017Y-143646943D01*
X83859017Y-143646943D02*
X83763779Y-143694562D01*
X83763779Y-143694562D02*
X83382827Y-143694562D01*
X84382827Y-143170752D02*
X84382827Y-143980276D01*
X84382827Y-143980276D02*
X84430446Y-144075514D01*
X84430446Y-144075514D02*
X84478065Y-144123133D01*
X84478065Y-144123133D02*
X84573303Y-144170752D01*
X84573303Y-144170752D02*
X84763779Y-144170752D01*
X84763779Y-144170752D02*
X84859017Y-144123133D01*
X84859017Y-144123133D02*
X84906636Y-144075514D01*
X84906636Y-144075514D02*
X84954255Y-143980276D01*
X84954255Y-143980276D02*
X84954255Y-143170752D01*
X85287589Y-143170752D02*
X85859017Y-143170752D01*
X85573303Y-144170752D02*
X85573303Y-143170752D01*
X77497112Y-146171705D02*
X77449493Y-146124086D01*
X77449493Y-146124086D02*
X77354255Y-145981229D01*
X77354255Y-145981229D02*
X77306636Y-145885991D01*
X77306636Y-145885991D02*
X77259017Y-145743133D01*
X77259017Y-145743133D02*
X77211398Y-145505038D01*
X77211398Y-145505038D02*
X77211398Y-145314562D01*
X77211398Y-145314562D02*
X77259017Y-145076467D01*
X77259017Y-145076467D02*
X77306636Y-144933610D01*
X77306636Y-144933610D02*
X77354255Y-144838372D01*
X77354255Y-144838372D02*
X77449493Y-144695514D01*
X77449493Y-144695514D02*
X77497112Y-144647895D01*
X78401874Y-144838372D02*
X78306636Y-144790752D01*
X78306636Y-144790752D02*
X78163779Y-144790752D01*
X78163779Y-144790752D02*
X78020922Y-144838372D01*
X78020922Y-144838372D02*
X77925684Y-144933610D01*
X77925684Y-144933610D02*
X77878065Y-145028848D01*
X77878065Y-145028848D02*
X77830446Y-145219324D01*
X77830446Y-145219324D02*
X77830446Y-145362181D01*
X77830446Y-145362181D02*
X77878065Y-145552657D01*
X77878065Y-145552657D02*
X77925684Y-145647895D01*
X77925684Y-145647895D02*
X78020922Y-145743133D01*
X78020922Y-145743133D02*
X78163779Y-145790752D01*
X78163779Y-145790752D02*
X78259017Y-145790752D01*
X78259017Y-145790752D02*
X78401874Y-145743133D01*
X78401874Y-145743133D02*
X78449493Y-145695514D01*
X78449493Y-145695514D02*
X78449493Y-145362181D01*
X78449493Y-145362181D02*
X78259017Y-145362181D01*
X78878065Y-145790752D02*
X78878065Y-144790752D01*
X78878065Y-144790752D02*
X79259017Y-144790752D01*
X79259017Y-144790752D02*
X79354255Y-144838372D01*
X79354255Y-144838372D02*
X79401874Y-144885991D01*
X79401874Y-144885991D02*
X79449493Y-144981229D01*
X79449493Y-144981229D02*
X79449493Y-145124086D01*
X79449493Y-145124086D02*
X79401874Y-145219324D01*
X79401874Y-145219324D02*
X79354255Y-145266943D01*
X79354255Y-145266943D02*
X79259017Y-145314562D01*
X79259017Y-145314562D02*
X78878065Y-145314562D01*
X79878065Y-145790752D02*
X79878065Y-144790752D01*
X80544731Y-144790752D02*
X80735207Y-144790752D01*
X80735207Y-144790752D02*
X80830445Y-144838372D01*
X80830445Y-144838372D02*
X80925683Y-144933610D01*
X80925683Y-144933610D02*
X80973302Y-145124086D01*
X80973302Y-145124086D02*
X80973302Y-145457419D01*
X80973302Y-145457419D02*
X80925683Y-145647895D01*
X80925683Y-145647895D02*
X80830445Y-145743133D01*
X80830445Y-145743133D02*
X80735207Y-145790752D01*
X80735207Y-145790752D02*
X80544731Y-145790752D01*
X80544731Y-145790752D02*
X80449493Y-145743133D01*
X80449493Y-145743133D02*
X80354255Y-145647895D01*
X80354255Y-145647895D02*
X80306636Y-145457419D01*
X80306636Y-145457419D02*
X80306636Y-145124086D01*
X80306636Y-145124086D02*
X80354255Y-144933610D01*
X80354255Y-144933610D02*
X80449493Y-144838372D01*
X80449493Y-144838372D02*
X80544731Y-144790752D01*
X81925683Y-145790752D02*
X81354255Y-145790752D01*
X81639969Y-145790752D02*
X81639969Y-144790752D01*
X81639969Y-144790752D02*
X81544731Y-144933610D01*
X81544731Y-144933610D02*
X81449493Y-145028848D01*
X81449493Y-145028848D02*
X81354255Y-145076467D01*
X82782826Y-144790752D02*
X82592350Y-144790752D01*
X82592350Y-144790752D02*
X82497112Y-144838372D01*
X82497112Y-144838372D02*
X82449493Y-144885991D01*
X82449493Y-144885991D02*
X82354255Y-145028848D01*
X82354255Y-145028848D02*
X82306636Y-145219324D01*
X82306636Y-145219324D02*
X82306636Y-145600276D01*
X82306636Y-145600276D02*
X82354255Y-145695514D01*
X82354255Y-145695514D02*
X82401874Y-145743133D01*
X82401874Y-145743133D02*
X82497112Y-145790752D01*
X82497112Y-145790752D02*
X82687588Y-145790752D01*
X82687588Y-145790752D02*
X82782826Y-145743133D01*
X82782826Y-145743133D02*
X82830445Y-145695514D01*
X82830445Y-145695514D02*
X82878064Y-145600276D01*
X82878064Y-145600276D02*
X82878064Y-145362181D01*
X82878064Y-145362181D02*
X82830445Y-145266943D01*
X82830445Y-145266943D02*
X82782826Y-145219324D01*
X82782826Y-145219324D02*
X82687588Y-145171705D01*
X82687588Y-145171705D02*
X82497112Y-145171705D01*
X82497112Y-145171705D02*
X82401874Y-145219324D01*
X82401874Y-145219324D02*
X82354255Y-145266943D01*
X82354255Y-145266943D02*
X82306636Y-145362181D01*
X83211398Y-146171705D02*
X83259017Y-146124086D01*
X83259017Y-146124086D02*
X83354255Y-145981229D01*
X83354255Y-145981229D02*
X83401874Y-145885991D01*
X83401874Y-145885991D02*
X83449493Y-145743133D01*
X83449493Y-145743133D02*
X83497112Y-145505038D01*
X83497112Y-145505038D02*
X83497112Y-145314562D01*
X83497112Y-145314562D02*
X83449493Y-145076467D01*
X83449493Y-145076467D02*
X83401874Y-144933610D01*
X83401874Y-144933610D02*
X83354255Y-144838372D01*
X83354255Y-144838372D02*
X83259017Y-144695514D01*
X83259017Y-144695514D02*
X83211398Y-144647895D01*
X114538095Y-154359341D02*
X114538095Y-153359341D01*
X115109523Y-154359341D02*
X114680952Y-153787913D01*
X115109523Y-153359341D02*
X114538095Y-153930770D01*
X96798095Y-165897619D02*
X96702857Y-165850000D01*
X96702857Y-165850000D02*
X96607619Y-165754761D01*
X96607619Y-165754761D02*
X96464762Y-165611904D01*
X96464762Y-165611904D02*
X96369524Y-165564285D01*
X96369524Y-165564285D02*
X96274286Y-165564285D01*
X96321905Y-165802380D02*
X96226667Y-165754761D01*
X96226667Y-165754761D02*
X96131429Y-165659523D01*
X96131429Y-165659523D02*
X96083810Y-165469047D01*
X96083810Y-165469047D02*
X96083810Y-165135714D01*
X96083810Y-165135714D02*
X96131429Y-164945238D01*
X96131429Y-164945238D02*
X96226667Y-164850000D01*
X96226667Y-164850000D02*
X96321905Y-164802380D01*
X96321905Y-164802380D02*
X96512381Y-164802380D01*
X96512381Y-164802380D02*
X96607619Y-164850000D01*
X96607619Y-164850000D02*
X96702857Y-164945238D01*
X96702857Y-164945238D02*
X96750476Y-165135714D01*
X96750476Y-165135714D02*
X96750476Y-165469047D01*
X96750476Y-165469047D02*
X96702857Y-165659523D01*
X96702857Y-165659523D02*
X96607619Y-165754761D01*
X96607619Y-165754761D02*
X96512381Y-165802380D01*
X96512381Y-165802380D02*
X96321905Y-165802380D01*
X97179048Y-164802380D02*
X97179048Y-165611904D01*
X97179048Y-165611904D02*
X97226667Y-165707142D01*
X97226667Y-165707142D02*
X97274286Y-165754761D01*
X97274286Y-165754761D02*
X97369524Y-165802380D01*
X97369524Y-165802380D02*
X97560000Y-165802380D01*
X97560000Y-165802380D02*
X97655238Y-165754761D01*
X97655238Y-165754761D02*
X97702857Y-165707142D01*
X97702857Y-165707142D02*
X97750476Y-165611904D01*
X97750476Y-165611904D02*
X97750476Y-164802380D01*
X98226667Y-165802380D02*
X98226667Y-164802380D01*
X98702857Y-165802380D02*
X98702857Y-164802380D01*
X98702857Y-164802380D02*
X99274285Y-165802380D01*
X99274285Y-165802380D02*
X99274285Y-164802380D01*
X100226666Y-165802380D02*
X99750476Y-165802380D01*
X99750476Y-165802380D02*
X99750476Y-164802380D01*
X100560000Y-165278571D02*
X100893333Y-165278571D01*
X101036190Y-165802380D02*
X100560000Y-165802380D01*
X100560000Y-165802380D02*
X100560000Y-164802380D01*
X100560000Y-164802380D02*
X101036190Y-164802380D01*
X101464762Y-165802380D02*
X101464762Y-164802380D01*
X101464762Y-164802380D02*
X101702857Y-164802380D01*
X101702857Y-164802380D02*
X101845714Y-164850000D01*
X101845714Y-164850000D02*
X101940952Y-164945238D01*
X101940952Y-164945238D02*
X101988571Y-165040476D01*
X101988571Y-165040476D02*
X102036190Y-165230952D01*
X102036190Y-165230952D02*
X102036190Y-165373809D01*
X102036190Y-165373809D02*
X101988571Y-165564285D01*
X101988571Y-165564285D02*
X101940952Y-165659523D01*
X101940952Y-165659523D02*
X101845714Y-165754761D01*
X101845714Y-165754761D02*
X101702857Y-165802380D01*
X101702857Y-165802380D02*
X101464762Y-165802380D01*
X94917143Y-166898571D02*
X95250476Y-166898571D01*
X95393333Y-167422380D02*
X94917143Y-167422380D01*
X94917143Y-167422380D02*
X94917143Y-166422380D01*
X94917143Y-166422380D02*
X95393333Y-166422380D01*
X95774286Y-167374761D02*
X95917143Y-167422380D01*
X95917143Y-167422380D02*
X96155238Y-167422380D01*
X96155238Y-167422380D02*
X96250476Y-167374761D01*
X96250476Y-167374761D02*
X96298095Y-167327142D01*
X96298095Y-167327142D02*
X96345714Y-167231904D01*
X96345714Y-167231904D02*
X96345714Y-167136666D01*
X96345714Y-167136666D02*
X96298095Y-167041428D01*
X96298095Y-167041428D02*
X96250476Y-166993809D01*
X96250476Y-166993809D02*
X96155238Y-166946190D01*
X96155238Y-166946190D02*
X95964762Y-166898571D01*
X95964762Y-166898571D02*
X95869524Y-166850952D01*
X95869524Y-166850952D02*
X95821905Y-166803333D01*
X95821905Y-166803333D02*
X95774286Y-166708095D01*
X95774286Y-166708095D02*
X95774286Y-166612857D01*
X95774286Y-166612857D02*
X95821905Y-166517619D01*
X95821905Y-166517619D02*
X95869524Y-166470000D01*
X95869524Y-166470000D02*
X95964762Y-166422380D01*
X95964762Y-166422380D02*
X96202857Y-166422380D01*
X96202857Y-166422380D02*
X96345714Y-166470000D01*
X96774286Y-167422380D02*
X96774286Y-166422380D01*
X96774286Y-166422380D02*
X97155238Y-166422380D01*
X97155238Y-166422380D02*
X97250476Y-166470000D01*
X97250476Y-166470000D02*
X97298095Y-166517619D01*
X97298095Y-166517619D02*
X97345714Y-166612857D01*
X97345714Y-166612857D02*
X97345714Y-166755714D01*
X97345714Y-166755714D02*
X97298095Y-166850952D01*
X97298095Y-166850952D02*
X97250476Y-166898571D01*
X97250476Y-166898571D02*
X97155238Y-166946190D01*
X97155238Y-166946190D02*
X96774286Y-166946190D01*
X97679048Y-166422380D02*
X98298095Y-166422380D01*
X98298095Y-166422380D02*
X97964762Y-166803333D01*
X97964762Y-166803333D02*
X98107619Y-166803333D01*
X98107619Y-166803333D02*
X98202857Y-166850952D01*
X98202857Y-166850952D02*
X98250476Y-166898571D01*
X98250476Y-166898571D02*
X98298095Y-166993809D01*
X98298095Y-166993809D02*
X98298095Y-167231904D01*
X98298095Y-167231904D02*
X98250476Y-167327142D01*
X98250476Y-167327142D02*
X98202857Y-167374761D01*
X98202857Y-167374761D02*
X98107619Y-167422380D01*
X98107619Y-167422380D02*
X97821905Y-167422380D01*
X97821905Y-167422380D02*
X97726667Y-167374761D01*
X97726667Y-167374761D02*
X97679048Y-167327142D01*
X98679048Y-166517619D02*
X98726667Y-166470000D01*
X98726667Y-166470000D02*
X98821905Y-166422380D01*
X98821905Y-166422380D02*
X99060000Y-166422380D01*
X99060000Y-166422380D02*
X99155238Y-166470000D01*
X99155238Y-166470000D02*
X99202857Y-166517619D01*
X99202857Y-166517619D02*
X99250476Y-166612857D01*
X99250476Y-166612857D02*
X99250476Y-166708095D01*
X99250476Y-166708095D02*
X99202857Y-166850952D01*
X99202857Y-166850952D02*
X98631429Y-167422380D01*
X98631429Y-167422380D02*
X99250476Y-167422380D01*
X99679048Y-167041428D02*
X100440953Y-167041428D01*
X100869524Y-167136666D02*
X101345714Y-167136666D01*
X100774286Y-167422380D02*
X101107619Y-166422380D01*
X101107619Y-166422380D02*
X101440952Y-167422380D01*
X102107619Y-166898571D02*
X102250476Y-166946190D01*
X102250476Y-166946190D02*
X102298095Y-166993809D01*
X102298095Y-166993809D02*
X102345714Y-167089047D01*
X102345714Y-167089047D02*
X102345714Y-167231904D01*
X102345714Y-167231904D02*
X102298095Y-167327142D01*
X102298095Y-167327142D02*
X102250476Y-167374761D01*
X102250476Y-167374761D02*
X102155238Y-167422380D01*
X102155238Y-167422380D02*
X101774286Y-167422380D01*
X101774286Y-167422380D02*
X101774286Y-166422380D01*
X101774286Y-166422380D02*
X102107619Y-166422380D01*
X102107619Y-166422380D02*
X102202857Y-166470000D01*
X102202857Y-166470000D02*
X102250476Y-166517619D01*
X102250476Y-166517619D02*
X102298095Y-166612857D01*
X102298095Y-166612857D02*
X102298095Y-166708095D01*
X102298095Y-166708095D02*
X102250476Y-166803333D01*
X102250476Y-166803333D02*
X102202857Y-166850952D01*
X102202857Y-166850952D02*
X102107619Y-166898571D01*
X102107619Y-166898571D02*
X101774286Y-166898571D01*
X102774286Y-166898571D02*
X103107619Y-166898571D01*
X103250476Y-167422380D02*
X102774286Y-167422380D01*
X102774286Y-167422380D02*
X102774286Y-166422380D01*
X102774286Y-166422380D02*
X103250476Y-166422380D01*
X107007281Y-116340504D02*
X106959662Y-116292885D01*
X106959662Y-116292885D02*
X106864424Y-116150028D01*
X106864424Y-116150028D02*
X106816805Y-116054790D01*
X106816805Y-116054790D02*
X106769186Y-115911932D01*
X106769186Y-115911932D02*
X106721567Y-115673837D01*
X106721567Y-115673837D02*
X106721567Y-115483361D01*
X106721567Y-115483361D02*
X106769186Y-115245266D01*
X106769186Y-115245266D02*
X106816805Y-115102409D01*
X106816805Y-115102409D02*
X106864424Y-115007171D01*
X106864424Y-115007171D02*
X106959662Y-114864313D01*
X106959662Y-114864313D02*
X107007281Y-114816694D01*
X107912043Y-115007171D02*
X107816805Y-114959551D01*
X107816805Y-114959551D02*
X107673948Y-114959551D01*
X107673948Y-114959551D02*
X107531091Y-115007171D01*
X107531091Y-115007171D02*
X107435853Y-115102409D01*
X107435853Y-115102409D02*
X107388234Y-115197647D01*
X107388234Y-115197647D02*
X107340615Y-115388123D01*
X107340615Y-115388123D02*
X107340615Y-115530980D01*
X107340615Y-115530980D02*
X107388234Y-115721456D01*
X107388234Y-115721456D02*
X107435853Y-115816694D01*
X107435853Y-115816694D02*
X107531091Y-115911932D01*
X107531091Y-115911932D02*
X107673948Y-115959551D01*
X107673948Y-115959551D02*
X107769186Y-115959551D01*
X107769186Y-115959551D02*
X107912043Y-115911932D01*
X107912043Y-115911932D02*
X107959662Y-115864313D01*
X107959662Y-115864313D02*
X107959662Y-115530980D01*
X107959662Y-115530980D02*
X107769186Y-115530980D01*
X108388234Y-115959551D02*
X108388234Y-114959551D01*
X108388234Y-114959551D02*
X108769186Y-114959551D01*
X108769186Y-114959551D02*
X108864424Y-115007171D01*
X108864424Y-115007171D02*
X108912043Y-115054790D01*
X108912043Y-115054790D02*
X108959662Y-115150028D01*
X108959662Y-115150028D02*
X108959662Y-115292885D01*
X108959662Y-115292885D02*
X108912043Y-115388123D01*
X108912043Y-115388123D02*
X108864424Y-115435742D01*
X108864424Y-115435742D02*
X108769186Y-115483361D01*
X108769186Y-115483361D02*
X108388234Y-115483361D01*
X109388234Y-115959551D02*
X109388234Y-114959551D01*
X110054900Y-114959551D02*
X110245376Y-114959551D01*
X110245376Y-114959551D02*
X110340614Y-115007171D01*
X110340614Y-115007171D02*
X110435852Y-115102409D01*
X110435852Y-115102409D02*
X110483471Y-115292885D01*
X110483471Y-115292885D02*
X110483471Y-115626218D01*
X110483471Y-115626218D02*
X110435852Y-115816694D01*
X110435852Y-115816694D02*
X110340614Y-115911932D01*
X110340614Y-115911932D02*
X110245376Y-115959551D01*
X110245376Y-115959551D02*
X110054900Y-115959551D01*
X110054900Y-115959551D02*
X109959662Y-115911932D01*
X109959662Y-115911932D02*
X109864424Y-115816694D01*
X109864424Y-115816694D02*
X109816805Y-115626218D01*
X109816805Y-115626218D02*
X109816805Y-115292885D01*
X109816805Y-115292885D02*
X109864424Y-115102409D01*
X109864424Y-115102409D02*
X109959662Y-115007171D01*
X109959662Y-115007171D02*
X110054900Y-114959551D01*
X110816805Y-114959551D02*
X111435852Y-114959551D01*
X111435852Y-114959551D02*
X111102519Y-115340504D01*
X111102519Y-115340504D02*
X111245376Y-115340504D01*
X111245376Y-115340504D02*
X111340614Y-115388123D01*
X111340614Y-115388123D02*
X111388233Y-115435742D01*
X111388233Y-115435742D02*
X111435852Y-115530980D01*
X111435852Y-115530980D02*
X111435852Y-115769075D01*
X111435852Y-115769075D02*
X111388233Y-115864313D01*
X111388233Y-115864313D02*
X111340614Y-115911932D01*
X111340614Y-115911932D02*
X111245376Y-115959551D01*
X111245376Y-115959551D02*
X110959662Y-115959551D01*
X110959662Y-115959551D02*
X110864424Y-115911932D01*
X110864424Y-115911932D02*
X110816805Y-115864313D01*
X112292995Y-114959551D02*
X112102519Y-114959551D01*
X112102519Y-114959551D02*
X112007281Y-115007171D01*
X112007281Y-115007171D02*
X111959662Y-115054790D01*
X111959662Y-115054790D02*
X111864424Y-115197647D01*
X111864424Y-115197647D02*
X111816805Y-115388123D01*
X111816805Y-115388123D02*
X111816805Y-115769075D01*
X111816805Y-115769075D02*
X111864424Y-115864313D01*
X111864424Y-115864313D02*
X111912043Y-115911932D01*
X111912043Y-115911932D02*
X112007281Y-115959551D01*
X112007281Y-115959551D02*
X112197757Y-115959551D01*
X112197757Y-115959551D02*
X112292995Y-115911932D01*
X112292995Y-115911932D02*
X112340614Y-115864313D01*
X112340614Y-115864313D02*
X112388233Y-115769075D01*
X112388233Y-115769075D02*
X112388233Y-115530980D01*
X112388233Y-115530980D02*
X112340614Y-115435742D01*
X112340614Y-115435742D02*
X112292995Y-115388123D01*
X112292995Y-115388123D02*
X112197757Y-115340504D01*
X112197757Y-115340504D02*
X112007281Y-115340504D01*
X112007281Y-115340504D02*
X111912043Y-115388123D01*
X111912043Y-115388123D02*
X111864424Y-115435742D01*
X111864424Y-115435742D02*
X111816805Y-115530980D01*
X112721567Y-116340504D02*
X112769186Y-116292885D01*
X112769186Y-116292885D02*
X112864424Y-116150028D01*
X112864424Y-116150028D02*
X112912043Y-116054790D01*
X112912043Y-116054790D02*
X112959662Y-115911932D01*
X112959662Y-115911932D02*
X113007281Y-115673837D01*
X113007281Y-115673837D02*
X113007281Y-115483361D01*
X113007281Y-115483361D02*
X112959662Y-115245266D01*
X112959662Y-115245266D02*
X112912043Y-115102409D01*
X112912043Y-115102409D02*
X112864424Y-115007171D01*
X112864424Y-115007171D02*
X112769186Y-114864313D01*
X112769186Y-114864313D02*
X112721567Y-114816694D01*
X80750819Y-116340504D02*
X80703200Y-116292885D01*
X80703200Y-116292885D02*
X80607962Y-116150028D01*
X80607962Y-116150028D02*
X80560343Y-116054790D01*
X80560343Y-116054790D02*
X80512724Y-115911932D01*
X80512724Y-115911932D02*
X80465105Y-115673837D01*
X80465105Y-115673837D02*
X80465105Y-115483361D01*
X80465105Y-115483361D02*
X80512724Y-115245266D01*
X80512724Y-115245266D02*
X80560343Y-115102409D01*
X80560343Y-115102409D02*
X80607962Y-115007171D01*
X80607962Y-115007171D02*
X80703200Y-114864313D01*
X80703200Y-114864313D02*
X80750819Y-114816694D01*
X81655581Y-115007171D02*
X81560343Y-114959551D01*
X81560343Y-114959551D02*
X81417486Y-114959551D01*
X81417486Y-114959551D02*
X81274629Y-115007171D01*
X81274629Y-115007171D02*
X81179391Y-115102409D01*
X81179391Y-115102409D02*
X81131772Y-115197647D01*
X81131772Y-115197647D02*
X81084153Y-115388123D01*
X81084153Y-115388123D02*
X81084153Y-115530980D01*
X81084153Y-115530980D02*
X81131772Y-115721456D01*
X81131772Y-115721456D02*
X81179391Y-115816694D01*
X81179391Y-115816694D02*
X81274629Y-115911932D01*
X81274629Y-115911932D02*
X81417486Y-115959551D01*
X81417486Y-115959551D02*
X81512724Y-115959551D01*
X81512724Y-115959551D02*
X81655581Y-115911932D01*
X81655581Y-115911932D02*
X81703200Y-115864313D01*
X81703200Y-115864313D02*
X81703200Y-115530980D01*
X81703200Y-115530980D02*
X81512724Y-115530980D01*
X82131772Y-115959551D02*
X82131772Y-114959551D01*
X82131772Y-114959551D02*
X82512724Y-114959551D01*
X82512724Y-114959551D02*
X82607962Y-115007171D01*
X82607962Y-115007171D02*
X82655581Y-115054790D01*
X82655581Y-115054790D02*
X82703200Y-115150028D01*
X82703200Y-115150028D02*
X82703200Y-115292885D01*
X82703200Y-115292885D02*
X82655581Y-115388123D01*
X82655581Y-115388123D02*
X82607962Y-115435742D01*
X82607962Y-115435742D02*
X82512724Y-115483361D01*
X82512724Y-115483361D02*
X82131772Y-115483361D01*
X83131772Y-115959551D02*
X83131772Y-114959551D01*
X83798438Y-114959551D02*
X83988914Y-114959551D01*
X83988914Y-114959551D02*
X84084152Y-115007171D01*
X84084152Y-115007171D02*
X84179390Y-115102409D01*
X84179390Y-115102409D02*
X84227009Y-115292885D01*
X84227009Y-115292885D02*
X84227009Y-115626218D01*
X84227009Y-115626218D02*
X84179390Y-115816694D01*
X84179390Y-115816694D02*
X84084152Y-115911932D01*
X84084152Y-115911932D02*
X83988914Y-115959551D01*
X83988914Y-115959551D02*
X83798438Y-115959551D01*
X83798438Y-115959551D02*
X83703200Y-115911932D01*
X83703200Y-115911932D02*
X83607962Y-115816694D01*
X83607962Y-115816694D02*
X83560343Y-115626218D01*
X83560343Y-115626218D02*
X83560343Y-115292885D01*
X83560343Y-115292885D02*
X83607962Y-115102409D01*
X83607962Y-115102409D02*
X83703200Y-115007171D01*
X83703200Y-115007171D02*
X83798438Y-114959551D01*
X84560343Y-114959551D02*
X85179390Y-114959551D01*
X85179390Y-114959551D02*
X84846057Y-115340504D01*
X84846057Y-115340504D02*
X84988914Y-115340504D01*
X84988914Y-115340504D02*
X85084152Y-115388123D01*
X85084152Y-115388123D02*
X85131771Y-115435742D01*
X85131771Y-115435742D02*
X85179390Y-115530980D01*
X85179390Y-115530980D02*
X85179390Y-115769075D01*
X85179390Y-115769075D02*
X85131771Y-115864313D01*
X85131771Y-115864313D02*
X85084152Y-115911932D01*
X85084152Y-115911932D02*
X84988914Y-115959551D01*
X84988914Y-115959551D02*
X84703200Y-115959551D01*
X84703200Y-115959551D02*
X84607962Y-115911932D01*
X84607962Y-115911932D02*
X84560343Y-115864313D01*
X86036533Y-115292885D02*
X86036533Y-115959551D01*
X85798438Y-114911932D02*
X85560343Y-115626218D01*
X85560343Y-115626218D02*
X86179390Y-115626218D01*
X86465105Y-116340504D02*
X86512724Y-116292885D01*
X86512724Y-116292885D02*
X86607962Y-116150028D01*
X86607962Y-116150028D02*
X86655581Y-116054790D01*
X86655581Y-116054790D02*
X86703200Y-115911932D01*
X86703200Y-115911932D02*
X86750819Y-115673837D01*
X86750819Y-115673837D02*
X86750819Y-115483361D01*
X86750819Y-115483361D02*
X86703200Y-115245266D01*
X86703200Y-115245266D02*
X86655581Y-115102409D01*
X86655581Y-115102409D02*
X86607962Y-115007171D01*
X86607962Y-115007171D02*
X86512724Y-114864313D01*
X86512724Y-114864313D02*
X86465105Y-114816694D01*
X114490476Y-159109955D02*
X114966666Y-159109955D01*
X114395238Y-159395669D02*
X114728571Y-158395669D01*
X114728571Y-158395669D02*
X115061904Y-159395669D01*
%TO.C,R8*%
X104507380Y-127166666D02*
X104031190Y-127499999D01*
X104507380Y-127738094D02*
X103507380Y-127738094D01*
X103507380Y-127738094D02*
X103507380Y-127357142D01*
X103507380Y-127357142D02*
X103555000Y-127261904D01*
X103555000Y-127261904D02*
X103602619Y-127214285D01*
X103602619Y-127214285D02*
X103697857Y-127166666D01*
X103697857Y-127166666D02*
X103840714Y-127166666D01*
X103840714Y-127166666D02*
X103935952Y-127214285D01*
X103935952Y-127214285D02*
X103983571Y-127261904D01*
X103983571Y-127261904D02*
X104031190Y-127357142D01*
X104031190Y-127357142D02*
X104031190Y-127738094D01*
X103935952Y-126595237D02*
X103888333Y-126690475D01*
X103888333Y-126690475D02*
X103840714Y-126738094D01*
X103840714Y-126738094D02*
X103745476Y-126785713D01*
X103745476Y-126785713D02*
X103697857Y-126785713D01*
X103697857Y-126785713D02*
X103602619Y-126738094D01*
X103602619Y-126738094D02*
X103555000Y-126690475D01*
X103555000Y-126690475D02*
X103507380Y-126595237D01*
X103507380Y-126595237D02*
X103507380Y-126404761D01*
X103507380Y-126404761D02*
X103555000Y-126309523D01*
X103555000Y-126309523D02*
X103602619Y-126261904D01*
X103602619Y-126261904D02*
X103697857Y-126214285D01*
X103697857Y-126214285D02*
X103745476Y-126214285D01*
X103745476Y-126214285D02*
X103840714Y-126261904D01*
X103840714Y-126261904D02*
X103888333Y-126309523D01*
X103888333Y-126309523D02*
X103935952Y-126404761D01*
X103935952Y-126404761D02*
X103935952Y-126595237D01*
X103935952Y-126595237D02*
X103983571Y-126690475D01*
X103983571Y-126690475D02*
X104031190Y-126738094D01*
X104031190Y-126738094D02*
X104126428Y-126785713D01*
X104126428Y-126785713D02*
X104316904Y-126785713D01*
X104316904Y-126785713D02*
X104412142Y-126738094D01*
X104412142Y-126738094D02*
X104459761Y-126690475D01*
X104459761Y-126690475D02*
X104507380Y-126595237D01*
X104507380Y-126595237D02*
X104507380Y-126404761D01*
X104507380Y-126404761D02*
X104459761Y-126309523D01*
X104459761Y-126309523D02*
X104412142Y-126261904D01*
X104412142Y-126261904D02*
X104316904Y-126214285D01*
X104316904Y-126214285D02*
X104126428Y-126214285D01*
X104126428Y-126214285D02*
X104031190Y-126261904D01*
X104031190Y-126261904D02*
X103983571Y-126309523D01*
X103983571Y-126309523D02*
X103935952Y-126404761D01*
X106380714Y-128023809D02*
X107047380Y-128023809D01*
X105999761Y-128261904D02*
X106714047Y-128499999D01*
X106714047Y-128499999D02*
X106714047Y-127880952D01*
X106952142Y-127499999D02*
X106999761Y-127452380D01*
X106999761Y-127452380D02*
X107047380Y-127499999D01*
X107047380Y-127499999D02*
X106999761Y-127547618D01*
X106999761Y-127547618D02*
X106952142Y-127499999D01*
X106952142Y-127499999D02*
X107047380Y-127499999D01*
X106047380Y-127119047D02*
X106047380Y-126452381D01*
X106047380Y-126452381D02*
X107047380Y-126880952D01*
X107047380Y-126071428D02*
X106047380Y-126071428D01*
X107047380Y-125500000D02*
X106475952Y-125928571D01*
X106047380Y-125500000D02*
X106618809Y-126071428D01*
%TO.C,Reed switch 3*%
X104809575Y-113837380D02*
X104476242Y-113361190D01*
X104238147Y-113837380D02*
X104238147Y-112837380D01*
X104238147Y-112837380D02*
X104619099Y-112837380D01*
X104619099Y-112837380D02*
X104714337Y-112885000D01*
X104714337Y-112885000D02*
X104761956Y-112932619D01*
X104761956Y-112932619D02*
X104809575Y-113027857D01*
X104809575Y-113027857D02*
X104809575Y-113170714D01*
X104809575Y-113170714D02*
X104761956Y-113265952D01*
X104761956Y-113265952D02*
X104714337Y-113313571D01*
X104714337Y-113313571D02*
X104619099Y-113361190D01*
X104619099Y-113361190D02*
X104238147Y-113361190D01*
X105619099Y-113789761D02*
X105523861Y-113837380D01*
X105523861Y-113837380D02*
X105333385Y-113837380D01*
X105333385Y-113837380D02*
X105238147Y-113789761D01*
X105238147Y-113789761D02*
X105190528Y-113694523D01*
X105190528Y-113694523D02*
X105190528Y-113313571D01*
X105190528Y-113313571D02*
X105238147Y-113218333D01*
X105238147Y-113218333D02*
X105333385Y-113170714D01*
X105333385Y-113170714D02*
X105523861Y-113170714D01*
X105523861Y-113170714D02*
X105619099Y-113218333D01*
X105619099Y-113218333D02*
X105666718Y-113313571D01*
X105666718Y-113313571D02*
X105666718Y-113408809D01*
X105666718Y-113408809D02*
X105190528Y-113504047D01*
X106476242Y-113789761D02*
X106381004Y-113837380D01*
X106381004Y-113837380D02*
X106190528Y-113837380D01*
X106190528Y-113837380D02*
X106095290Y-113789761D01*
X106095290Y-113789761D02*
X106047671Y-113694523D01*
X106047671Y-113694523D02*
X106047671Y-113313571D01*
X106047671Y-113313571D02*
X106095290Y-113218333D01*
X106095290Y-113218333D02*
X106190528Y-113170714D01*
X106190528Y-113170714D02*
X106381004Y-113170714D01*
X106381004Y-113170714D02*
X106476242Y-113218333D01*
X106476242Y-113218333D02*
X106523861Y-113313571D01*
X106523861Y-113313571D02*
X106523861Y-113408809D01*
X106523861Y-113408809D02*
X106047671Y-113504047D01*
X107381004Y-113837380D02*
X107381004Y-112837380D01*
X107381004Y-113789761D02*
X107285766Y-113837380D01*
X107285766Y-113837380D02*
X107095290Y-113837380D01*
X107095290Y-113837380D02*
X107000052Y-113789761D01*
X107000052Y-113789761D02*
X106952433Y-113742142D01*
X106952433Y-113742142D02*
X106904814Y-113646904D01*
X106904814Y-113646904D02*
X106904814Y-113361190D01*
X106904814Y-113361190D02*
X106952433Y-113265952D01*
X106952433Y-113265952D02*
X107000052Y-113218333D01*
X107000052Y-113218333D02*
X107095290Y-113170714D01*
X107095290Y-113170714D02*
X107285766Y-113170714D01*
X107285766Y-113170714D02*
X107381004Y-113218333D01*
X108409576Y-113789761D02*
X108504814Y-113837380D01*
X108504814Y-113837380D02*
X108695290Y-113837380D01*
X108695290Y-113837380D02*
X108790528Y-113789761D01*
X108790528Y-113789761D02*
X108838147Y-113694523D01*
X108838147Y-113694523D02*
X108838147Y-113646904D01*
X108838147Y-113646904D02*
X108790528Y-113551666D01*
X108790528Y-113551666D02*
X108695290Y-113504047D01*
X108695290Y-113504047D02*
X108552433Y-113504047D01*
X108552433Y-113504047D02*
X108457195Y-113456428D01*
X108457195Y-113456428D02*
X108409576Y-113361190D01*
X108409576Y-113361190D02*
X108409576Y-113313571D01*
X108409576Y-113313571D02*
X108457195Y-113218333D01*
X108457195Y-113218333D02*
X108552433Y-113170714D01*
X108552433Y-113170714D02*
X108695290Y-113170714D01*
X108695290Y-113170714D02*
X108790528Y-113218333D01*
X109171481Y-113170714D02*
X109361957Y-113837380D01*
X109361957Y-113837380D02*
X109552433Y-113361190D01*
X109552433Y-113361190D02*
X109742909Y-113837380D01*
X109742909Y-113837380D02*
X109933385Y-113170714D01*
X110314338Y-113837380D02*
X110314338Y-113170714D01*
X110314338Y-112837380D02*
X110266719Y-112885000D01*
X110266719Y-112885000D02*
X110314338Y-112932619D01*
X110314338Y-112932619D02*
X110361957Y-112885000D01*
X110361957Y-112885000D02*
X110314338Y-112837380D01*
X110314338Y-112837380D02*
X110314338Y-112932619D01*
X110647671Y-113170714D02*
X111028623Y-113170714D01*
X110790528Y-112837380D02*
X110790528Y-113694523D01*
X110790528Y-113694523D02*
X110838147Y-113789761D01*
X110838147Y-113789761D02*
X110933385Y-113837380D01*
X110933385Y-113837380D02*
X111028623Y-113837380D01*
X111790528Y-113789761D02*
X111695290Y-113837380D01*
X111695290Y-113837380D02*
X111504814Y-113837380D01*
X111504814Y-113837380D02*
X111409576Y-113789761D01*
X111409576Y-113789761D02*
X111361957Y-113742142D01*
X111361957Y-113742142D02*
X111314338Y-113646904D01*
X111314338Y-113646904D02*
X111314338Y-113361190D01*
X111314338Y-113361190D02*
X111361957Y-113265952D01*
X111361957Y-113265952D02*
X111409576Y-113218333D01*
X111409576Y-113218333D02*
X111504814Y-113170714D01*
X111504814Y-113170714D02*
X111695290Y-113170714D01*
X111695290Y-113170714D02*
X111790528Y-113218333D01*
X112219100Y-113837380D02*
X112219100Y-112837380D01*
X112647671Y-113837380D02*
X112647671Y-113313571D01*
X112647671Y-113313571D02*
X112600052Y-113218333D01*
X112600052Y-113218333D02*
X112504814Y-113170714D01*
X112504814Y-113170714D02*
X112361957Y-113170714D01*
X112361957Y-113170714D02*
X112266719Y-113218333D01*
X112266719Y-113218333D02*
X112219100Y-113265952D01*
X113628624Y-112837380D02*
X114247671Y-112837380D01*
X114247671Y-112837380D02*
X113914338Y-113218333D01*
X113914338Y-113218333D02*
X114057195Y-113218333D01*
X114057195Y-113218333D02*
X114152433Y-113265952D01*
X114152433Y-113265952D02*
X114200052Y-113313571D01*
X114200052Y-113313571D02*
X114247671Y-113408809D01*
X114247671Y-113408809D02*
X114247671Y-113646904D01*
X114247671Y-113646904D02*
X114200052Y-113742142D01*
X114200052Y-113742142D02*
X114152433Y-113789761D01*
X114152433Y-113789761D02*
X114057195Y-113837380D01*
X114057195Y-113837380D02*
X113771481Y-113837380D01*
X113771481Y-113837380D02*
X113676243Y-113789761D01*
X113676243Y-113789761D02*
X113628624Y-113742142D01*
%TO.C,LED 3 (GPIO13)*%
X115742767Y-134225375D02*
X115266577Y-134225375D01*
X115266577Y-134225375D02*
X115266577Y-133225375D01*
X116076101Y-133701566D02*
X116409434Y-133701566D01*
X116552291Y-134225375D02*
X116076101Y-134225375D01*
X116076101Y-134225375D02*
X116076101Y-133225375D01*
X116076101Y-133225375D02*
X116552291Y-133225375D01*
X116980863Y-134225375D02*
X116980863Y-133225375D01*
X116980863Y-133225375D02*
X117218958Y-133225375D01*
X117218958Y-133225375D02*
X117361815Y-133272995D01*
X117361815Y-133272995D02*
X117457053Y-133368233D01*
X117457053Y-133368233D02*
X117504672Y-133463471D01*
X117504672Y-133463471D02*
X117552291Y-133653947D01*
X117552291Y-133653947D02*
X117552291Y-133796804D01*
X117552291Y-133796804D02*
X117504672Y-133987280D01*
X117504672Y-133987280D02*
X117457053Y-134082518D01*
X117457053Y-134082518D02*
X117361815Y-134177756D01*
X117361815Y-134177756D02*
X117218958Y-134225375D01*
X117218958Y-134225375D02*
X116980863Y-134225375D01*
X118485625Y-133225375D02*
X119104672Y-133225375D01*
X119104672Y-133225375D02*
X118771339Y-133606328D01*
X118771339Y-133606328D02*
X118914196Y-133606328D01*
X118914196Y-133606328D02*
X119009434Y-133653947D01*
X119009434Y-133653947D02*
X119057053Y-133701566D01*
X119057053Y-133701566D02*
X119104672Y-133796804D01*
X119104672Y-133796804D02*
X119104672Y-134034899D01*
X119104672Y-134034899D02*
X119057053Y-134130137D01*
X119057053Y-134130137D02*
X119009434Y-134177756D01*
X119009434Y-134177756D02*
X118914196Y-134225375D01*
X118914196Y-134225375D02*
X118628482Y-134225375D01*
X118628482Y-134225375D02*
X118533244Y-134177756D01*
X118533244Y-134177756D02*
X118485625Y-134130137D01*
X120418958Y-134606328D02*
X120371339Y-134558709D01*
X120371339Y-134558709D02*
X120276101Y-134415852D01*
X120276101Y-134415852D02*
X120228482Y-134320614D01*
X120228482Y-134320614D02*
X120180863Y-134177756D01*
X120180863Y-134177756D02*
X120133244Y-133939661D01*
X120133244Y-133939661D02*
X120133244Y-133749185D01*
X120133244Y-133749185D02*
X120180863Y-133511090D01*
X120180863Y-133511090D02*
X120228482Y-133368233D01*
X120228482Y-133368233D02*
X120276101Y-133272995D01*
X120276101Y-133272995D02*
X120371339Y-133130137D01*
X120371339Y-133130137D02*
X120418958Y-133082518D01*
X121323720Y-133272995D02*
X121228482Y-133225375D01*
X121228482Y-133225375D02*
X121085625Y-133225375D01*
X121085625Y-133225375D02*
X120942768Y-133272995D01*
X120942768Y-133272995D02*
X120847530Y-133368233D01*
X120847530Y-133368233D02*
X120799911Y-133463471D01*
X120799911Y-133463471D02*
X120752292Y-133653947D01*
X120752292Y-133653947D02*
X120752292Y-133796804D01*
X120752292Y-133796804D02*
X120799911Y-133987280D01*
X120799911Y-133987280D02*
X120847530Y-134082518D01*
X120847530Y-134082518D02*
X120942768Y-134177756D01*
X120942768Y-134177756D02*
X121085625Y-134225375D01*
X121085625Y-134225375D02*
X121180863Y-134225375D01*
X121180863Y-134225375D02*
X121323720Y-134177756D01*
X121323720Y-134177756D02*
X121371339Y-134130137D01*
X121371339Y-134130137D02*
X121371339Y-133796804D01*
X121371339Y-133796804D02*
X121180863Y-133796804D01*
X121799911Y-134225375D02*
X121799911Y-133225375D01*
X121799911Y-133225375D02*
X122180863Y-133225375D01*
X122180863Y-133225375D02*
X122276101Y-133272995D01*
X122276101Y-133272995D02*
X122323720Y-133320614D01*
X122323720Y-133320614D02*
X122371339Y-133415852D01*
X122371339Y-133415852D02*
X122371339Y-133558709D01*
X122371339Y-133558709D02*
X122323720Y-133653947D01*
X122323720Y-133653947D02*
X122276101Y-133701566D01*
X122276101Y-133701566D02*
X122180863Y-133749185D01*
X122180863Y-133749185D02*
X121799911Y-133749185D01*
X122799911Y-134225375D02*
X122799911Y-133225375D01*
X123466577Y-133225375D02*
X123657053Y-133225375D01*
X123657053Y-133225375D02*
X123752291Y-133272995D01*
X123752291Y-133272995D02*
X123847529Y-133368233D01*
X123847529Y-133368233D02*
X123895148Y-133558709D01*
X123895148Y-133558709D02*
X123895148Y-133892042D01*
X123895148Y-133892042D02*
X123847529Y-134082518D01*
X123847529Y-134082518D02*
X123752291Y-134177756D01*
X123752291Y-134177756D02*
X123657053Y-134225375D01*
X123657053Y-134225375D02*
X123466577Y-134225375D01*
X123466577Y-134225375D02*
X123371339Y-134177756D01*
X123371339Y-134177756D02*
X123276101Y-134082518D01*
X123276101Y-134082518D02*
X123228482Y-133892042D01*
X123228482Y-133892042D02*
X123228482Y-133558709D01*
X123228482Y-133558709D02*
X123276101Y-133368233D01*
X123276101Y-133368233D02*
X123371339Y-133272995D01*
X123371339Y-133272995D02*
X123466577Y-133225375D01*
X124847529Y-134225375D02*
X124276101Y-134225375D01*
X124561815Y-134225375D02*
X124561815Y-133225375D01*
X124561815Y-133225375D02*
X124466577Y-133368233D01*
X124466577Y-133368233D02*
X124371339Y-133463471D01*
X124371339Y-133463471D02*
X124276101Y-133511090D01*
X125180863Y-133225375D02*
X125799910Y-133225375D01*
X125799910Y-133225375D02*
X125466577Y-133606328D01*
X125466577Y-133606328D02*
X125609434Y-133606328D01*
X125609434Y-133606328D02*
X125704672Y-133653947D01*
X125704672Y-133653947D02*
X125752291Y-133701566D01*
X125752291Y-133701566D02*
X125799910Y-133796804D01*
X125799910Y-133796804D02*
X125799910Y-134034899D01*
X125799910Y-134034899D02*
X125752291Y-134130137D01*
X125752291Y-134130137D02*
X125704672Y-134177756D01*
X125704672Y-134177756D02*
X125609434Y-134225375D01*
X125609434Y-134225375D02*
X125323720Y-134225375D01*
X125323720Y-134225375D02*
X125228482Y-134177756D01*
X125228482Y-134177756D02*
X125180863Y-134130137D01*
X126133244Y-134606328D02*
X126180863Y-134558709D01*
X126180863Y-134558709D02*
X126276101Y-134415852D01*
X126276101Y-134415852D02*
X126323720Y-134320614D01*
X126323720Y-134320614D02*
X126371339Y-134177756D01*
X126371339Y-134177756D02*
X126418958Y-133939661D01*
X126418958Y-133939661D02*
X126418958Y-133749185D01*
X126418958Y-133749185D02*
X126371339Y-133511090D01*
X126371339Y-133511090D02*
X126323720Y-133368233D01*
X126323720Y-133368233D02*
X126276101Y-133272995D01*
X126276101Y-133272995D02*
X126180863Y-133130137D01*
X126180863Y-133130137D02*
X126133244Y-133082518D01*
%TO.C,LED 2 (GPIO12)*%
X115742767Y-149828238D02*
X115266577Y-149828238D01*
X115266577Y-149828238D02*
X115266577Y-148828238D01*
X116076101Y-149304429D02*
X116409434Y-149304429D01*
X116552291Y-149828238D02*
X116076101Y-149828238D01*
X116076101Y-149828238D02*
X116076101Y-148828238D01*
X116076101Y-148828238D02*
X116552291Y-148828238D01*
X116980863Y-149828238D02*
X116980863Y-148828238D01*
X116980863Y-148828238D02*
X117218958Y-148828238D01*
X117218958Y-148828238D02*
X117361815Y-148875858D01*
X117361815Y-148875858D02*
X117457053Y-148971096D01*
X117457053Y-148971096D02*
X117504672Y-149066334D01*
X117504672Y-149066334D02*
X117552291Y-149256810D01*
X117552291Y-149256810D02*
X117552291Y-149399667D01*
X117552291Y-149399667D02*
X117504672Y-149590143D01*
X117504672Y-149590143D02*
X117457053Y-149685381D01*
X117457053Y-149685381D02*
X117361815Y-149780619D01*
X117361815Y-149780619D02*
X117218958Y-149828238D01*
X117218958Y-149828238D02*
X116980863Y-149828238D01*
X118533244Y-148923477D02*
X118580863Y-148875858D01*
X118580863Y-148875858D02*
X118676101Y-148828238D01*
X118676101Y-148828238D02*
X118914196Y-148828238D01*
X118914196Y-148828238D02*
X119009434Y-148875858D01*
X119009434Y-148875858D02*
X119057053Y-148923477D01*
X119057053Y-148923477D02*
X119104672Y-149018715D01*
X119104672Y-149018715D02*
X119104672Y-149113953D01*
X119104672Y-149113953D02*
X119057053Y-149256810D01*
X119057053Y-149256810D02*
X118485625Y-149828238D01*
X118485625Y-149828238D02*
X119104672Y-149828238D01*
X120418958Y-150209191D02*
X120371339Y-150161572D01*
X120371339Y-150161572D02*
X120276101Y-150018715D01*
X120276101Y-150018715D02*
X120228482Y-149923477D01*
X120228482Y-149923477D02*
X120180863Y-149780619D01*
X120180863Y-149780619D02*
X120133244Y-149542524D01*
X120133244Y-149542524D02*
X120133244Y-149352048D01*
X120133244Y-149352048D02*
X120180863Y-149113953D01*
X120180863Y-149113953D02*
X120228482Y-148971096D01*
X120228482Y-148971096D02*
X120276101Y-148875858D01*
X120276101Y-148875858D02*
X120371339Y-148733000D01*
X120371339Y-148733000D02*
X120418958Y-148685381D01*
X121323720Y-148875858D02*
X121228482Y-148828238D01*
X121228482Y-148828238D02*
X121085625Y-148828238D01*
X121085625Y-148828238D02*
X120942768Y-148875858D01*
X120942768Y-148875858D02*
X120847530Y-148971096D01*
X120847530Y-148971096D02*
X120799911Y-149066334D01*
X120799911Y-149066334D02*
X120752292Y-149256810D01*
X120752292Y-149256810D02*
X120752292Y-149399667D01*
X120752292Y-149399667D02*
X120799911Y-149590143D01*
X120799911Y-149590143D02*
X120847530Y-149685381D01*
X120847530Y-149685381D02*
X120942768Y-149780619D01*
X120942768Y-149780619D02*
X121085625Y-149828238D01*
X121085625Y-149828238D02*
X121180863Y-149828238D01*
X121180863Y-149828238D02*
X121323720Y-149780619D01*
X121323720Y-149780619D02*
X121371339Y-149733000D01*
X121371339Y-149733000D02*
X121371339Y-149399667D01*
X121371339Y-149399667D02*
X121180863Y-149399667D01*
X121799911Y-149828238D02*
X121799911Y-148828238D01*
X121799911Y-148828238D02*
X122180863Y-148828238D01*
X122180863Y-148828238D02*
X122276101Y-148875858D01*
X122276101Y-148875858D02*
X122323720Y-148923477D01*
X122323720Y-148923477D02*
X122371339Y-149018715D01*
X122371339Y-149018715D02*
X122371339Y-149161572D01*
X122371339Y-149161572D02*
X122323720Y-149256810D01*
X122323720Y-149256810D02*
X122276101Y-149304429D01*
X122276101Y-149304429D02*
X122180863Y-149352048D01*
X122180863Y-149352048D02*
X121799911Y-149352048D01*
X122799911Y-149828238D02*
X122799911Y-148828238D01*
X123466577Y-148828238D02*
X123657053Y-148828238D01*
X123657053Y-148828238D02*
X123752291Y-148875858D01*
X123752291Y-148875858D02*
X123847529Y-148971096D01*
X123847529Y-148971096D02*
X123895148Y-149161572D01*
X123895148Y-149161572D02*
X123895148Y-149494905D01*
X123895148Y-149494905D02*
X123847529Y-149685381D01*
X123847529Y-149685381D02*
X123752291Y-149780619D01*
X123752291Y-149780619D02*
X123657053Y-149828238D01*
X123657053Y-149828238D02*
X123466577Y-149828238D01*
X123466577Y-149828238D02*
X123371339Y-149780619D01*
X123371339Y-149780619D02*
X123276101Y-149685381D01*
X123276101Y-149685381D02*
X123228482Y-149494905D01*
X123228482Y-149494905D02*
X123228482Y-149161572D01*
X123228482Y-149161572D02*
X123276101Y-148971096D01*
X123276101Y-148971096D02*
X123371339Y-148875858D01*
X123371339Y-148875858D02*
X123466577Y-148828238D01*
X124847529Y-149828238D02*
X124276101Y-149828238D01*
X124561815Y-149828238D02*
X124561815Y-148828238D01*
X124561815Y-148828238D02*
X124466577Y-148971096D01*
X124466577Y-148971096D02*
X124371339Y-149066334D01*
X124371339Y-149066334D02*
X124276101Y-149113953D01*
X125228482Y-148923477D02*
X125276101Y-148875858D01*
X125276101Y-148875858D02*
X125371339Y-148828238D01*
X125371339Y-148828238D02*
X125609434Y-148828238D01*
X125609434Y-148828238D02*
X125704672Y-148875858D01*
X125704672Y-148875858D02*
X125752291Y-148923477D01*
X125752291Y-148923477D02*
X125799910Y-149018715D01*
X125799910Y-149018715D02*
X125799910Y-149113953D01*
X125799910Y-149113953D02*
X125752291Y-149256810D01*
X125752291Y-149256810D02*
X125180863Y-149828238D01*
X125180863Y-149828238D02*
X125799910Y-149828238D01*
X126133244Y-150209191D02*
X126180863Y-150161572D01*
X126180863Y-150161572D02*
X126276101Y-150018715D01*
X126276101Y-150018715D02*
X126323720Y-149923477D01*
X126323720Y-149923477D02*
X126371339Y-149780619D01*
X126371339Y-149780619D02*
X126418958Y-149542524D01*
X126418958Y-149542524D02*
X126418958Y-149352048D01*
X126418958Y-149352048D02*
X126371339Y-149113953D01*
X126371339Y-149113953D02*
X126323720Y-148971096D01*
X126323720Y-148971096D02*
X126276101Y-148875858D01*
X126276101Y-148875858D02*
X126180863Y-148733000D01*
X126180863Y-148733000D02*
X126133244Y-148685381D01*
%TO.C,PIR*%
X66797375Y-130280290D02*
X66797375Y-129280290D01*
X66797375Y-129280290D02*
X67178327Y-129280290D01*
X67178327Y-129280290D02*
X67273565Y-129327910D01*
X67273565Y-129327910D02*
X67321184Y-129375529D01*
X67321184Y-129375529D02*
X67368803Y-129470767D01*
X67368803Y-129470767D02*
X67368803Y-129613624D01*
X67368803Y-129613624D02*
X67321184Y-129708862D01*
X67321184Y-129708862D02*
X67273565Y-129756481D01*
X67273565Y-129756481D02*
X67178327Y-129804100D01*
X67178327Y-129804100D02*
X66797375Y-129804100D01*
X67797375Y-130280290D02*
X67797375Y-129280290D01*
X68844993Y-130280290D02*
X68511660Y-129804100D01*
X68273565Y-130280290D02*
X68273565Y-129280290D01*
X68273565Y-129280290D02*
X68654517Y-129280290D01*
X68654517Y-129280290D02*
X68749755Y-129327910D01*
X68749755Y-129327910D02*
X68797374Y-129375529D01*
X68797374Y-129375529D02*
X68844993Y-129470767D01*
X68844993Y-129470767D02*
X68844993Y-129613624D01*
X68844993Y-129613624D02*
X68797374Y-129708862D01*
X68797374Y-129708862D02*
X68749755Y-129756481D01*
X68749755Y-129756481D02*
X68654517Y-129804100D01*
X68654517Y-129804100D02*
X68273565Y-129804100D01*
%TO.C,R2*%
X94347380Y-147486666D02*
X93871190Y-147819999D01*
X94347380Y-148058094D02*
X93347380Y-148058094D01*
X93347380Y-148058094D02*
X93347380Y-147677142D01*
X93347380Y-147677142D02*
X93395000Y-147581904D01*
X93395000Y-147581904D02*
X93442619Y-147534285D01*
X93442619Y-147534285D02*
X93537857Y-147486666D01*
X93537857Y-147486666D02*
X93680714Y-147486666D01*
X93680714Y-147486666D02*
X93775952Y-147534285D01*
X93775952Y-147534285D02*
X93823571Y-147581904D01*
X93823571Y-147581904D02*
X93871190Y-147677142D01*
X93871190Y-147677142D02*
X93871190Y-148058094D01*
X93442619Y-147105713D02*
X93395000Y-147058094D01*
X93395000Y-147058094D02*
X93347380Y-146962856D01*
X93347380Y-146962856D02*
X93347380Y-146724761D01*
X93347380Y-146724761D02*
X93395000Y-146629523D01*
X93395000Y-146629523D02*
X93442619Y-146581904D01*
X93442619Y-146581904D02*
X93537857Y-146534285D01*
X93537857Y-146534285D02*
X93633095Y-146534285D01*
X93633095Y-146534285D02*
X93775952Y-146581904D01*
X93775952Y-146581904D02*
X94347380Y-147153332D01*
X94347380Y-147153332D02*
X94347380Y-146534285D01*
X96887380Y-148010476D02*
X96887380Y-148581904D01*
X96887380Y-148296190D02*
X95887380Y-148296190D01*
X95887380Y-148296190D02*
X96030238Y-148391428D01*
X96030238Y-148391428D02*
X96125476Y-148486666D01*
X96125476Y-148486666D02*
X96173095Y-148581904D01*
X95887380Y-147391428D02*
X95887380Y-147296190D01*
X95887380Y-147296190D02*
X95935000Y-147200952D01*
X95935000Y-147200952D02*
X95982619Y-147153333D01*
X95982619Y-147153333D02*
X96077857Y-147105714D01*
X96077857Y-147105714D02*
X96268333Y-147058095D01*
X96268333Y-147058095D02*
X96506428Y-147058095D01*
X96506428Y-147058095D02*
X96696904Y-147105714D01*
X96696904Y-147105714D02*
X96792142Y-147153333D01*
X96792142Y-147153333D02*
X96839761Y-147200952D01*
X96839761Y-147200952D02*
X96887380Y-147296190D01*
X96887380Y-147296190D02*
X96887380Y-147391428D01*
X96887380Y-147391428D02*
X96839761Y-147486666D01*
X96839761Y-147486666D02*
X96792142Y-147534285D01*
X96792142Y-147534285D02*
X96696904Y-147581904D01*
X96696904Y-147581904D02*
X96506428Y-147629523D01*
X96506428Y-147629523D02*
X96268333Y-147629523D01*
X96268333Y-147629523D02*
X96077857Y-147581904D01*
X96077857Y-147581904D02*
X95982619Y-147534285D01*
X95982619Y-147534285D02*
X95935000Y-147486666D01*
X95935000Y-147486666D02*
X95887380Y-147391428D01*
X96887380Y-146629523D02*
X95887380Y-146629523D01*
X96887380Y-146058095D02*
X96315952Y-146486666D01*
X95887380Y-146058095D02*
X96458809Y-146629523D01*
%TO.C,Q1*%
X85295803Y-154458285D02*
X85248184Y-154553523D01*
X85248184Y-154553523D02*
X85152945Y-154648761D01*
X85152945Y-154648761D02*
X85010088Y-154791618D01*
X85010088Y-154791618D02*
X84962469Y-154886856D01*
X84962469Y-154886856D02*
X84962469Y-154982094D01*
X85200564Y-154934475D02*
X85152945Y-155029713D01*
X85152945Y-155029713D02*
X85057707Y-155124951D01*
X85057707Y-155124951D02*
X84867231Y-155172570D01*
X84867231Y-155172570D02*
X84533898Y-155172570D01*
X84533898Y-155172570D02*
X84343422Y-155124951D01*
X84343422Y-155124951D02*
X84248184Y-155029713D01*
X84248184Y-155029713D02*
X84200564Y-154934475D01*
X84200564Y-154934475D02*
X84200564Y-154743999D01*
X84200564Y-154743999D02*
X84248184Y-154648761D01*
X84248184Y-154648761D02*
X84343422Y-154553523D01*
X84343422Y-154553523D02*
X84533898Y-154505904D01*
X84533898Y-154505904D02*
X84867231Y-154505904D01*
X84867231Y-154505904D02*
X85057707Y-154553523D01*
X85057707Y-154553523D02*
X85152945Y-154648761D01*
X85152945Y-154648761D02*
X85200564Y-154743999D01*
X85200564Y-154743999D02*
X85200564Y-154934475D01*
X85200564Y-153553523D02*
X85200564Y-154124951D01*
X85200564Y-153839237D02*
X84200564Y-153839237D01*
X84200564Y-153839237D02*
X84343422Y-153934475D01*
X84343422Y-153934475D02*
X84438660Y-154029713D01*
X84438660Y-154029713D02*
X84486279Y-154124951D01*
%TO.C,R4*%
X104507380Y-147486666D02*
X104031190Y-147819999D01*
X104507380Y-148058094D02*
X103507380Y-148058094D01*
X103507380Y-148058094D02*
X103507380Y-147677142D01*
X103507380Y-147677142D02*
X103555000Y-147581904D01*
X103555000Y-147581904D02*
X103602619Y-147534285D01*
X103602619Y-147534285D02*
X103697857Y-147486666D01*
X103697857Y-147486666D02*
X103840714Y-147486666D01*
X103840714Y-147486666D02*
X103935952Y-147534285D01*
X103935952Y-147534285D02*
X103983571Y-147581904D01*
X103983571Y-147581904D02*
X104031190Y-147677142D01*
X104031190Y-147677142D02*
X104031190Y-148058094D01*
X103840714Y-146629523D02*
X104507380Y-146629523D01*
X103459761Y-146867618D02*
X104174047Y-147105713D01*
X104174047Y-147105713D02*
X104174047Y-146486666D01*
%TO.C,TEMP BME280*%
X66654518Y-154869813D02*
X67225946Y-154869813D01*
X66940232Y-155869813D02*
X66940232Y-154869813D01*
X67559280Y-155346004D02*
X67892613Y-155346004D01*
X68035470Y-155869813D02*
X67559280Y-155869813D01*
X67559280Y-155869813D02*
X67559280Y-154869813D01*
X67559280Y-154869813D02*
X68035470Y-154869813D01*
X68464042Y-155869813D02*
X68464042Y-154869813D01*
X68464042Y-154869813D02*
X68797375Y-155584099D01*
X68797375Y-155584099D02*
X69130708Y-154869813D01*
X69130708Y-154869813D02*
X69130708Y-155869813D01*
X69606899Y-155869813D02*
X69606899Y-154869813D01*
X69606899Y-154869813D02*
X69987851Y-154869813D01*
X69987851Y-154869813D02*
X70083089Y-154917433D01*
X70083089Y-154917433D02*
X70130708Y-154965052D01*
X70130708Y-154965052D02*
X70178327Y-155060290D01*
X70178327Y-155060290D02*
X70178327Y-155203147D01*
X70178327Y-155203147D02*
X70130708Y-155298385D01*
X70130708Y-155298385D02*
X70083089Y-155346004D01*
X70083089Y-155346004D02*
X69987851Y-155393623D01*
X69987851Y-155393623D02*
X69606899Y-155393623D01*
X71540232Y-155346004D02*
X71683089Y-155393623D01*
X71683089Y-155393623D02*
X71730708Y-155441242D01*
X71730708Y-155441242D02*
X71778327Y-155536480D01*
X71778327Y-155536480D02*
X71778327Y-155679337D01*
X71778327Y-155679337D02*
X71730708Y-155774575D01*
X71730708Y-155774575D02*
X71683089Y-155822194D01*
X71683089Y-155822194D02*
X71587851Y-155869813D01*
X71587851Y-155869813D02*
X71206899Y-155869813D01*
X71206899Y-155869813D02*
X71206899Y-154869813D01*
X71206899Y-154869813D02*
X71540232Y-154869813D01*
X71540232Y-154869813D02*
X71635470Y-154917433D01*
X71635470Y-154917433D02*
X71683089Y-154965052D01*
X71683089Y-154965052D02*
X71730708Y-155060290D01*
X71730708Y-155060290D02*
X71730708Y-155155528D01*
X71730708Y-155155528D02*
X71683089Y-155250766D01*
X71683089Y-155250766D02*
X71635470Y-155298385D01*
X71635470Y-155298385D02*
X71540232Y-155346004D01*
X71540232Y-155346004D02*
X71206899Y-155346004D01*
X72206899Y-155869813D02*
X72206899Y-154869813D01*
X72206899Y-154869813D02*
X72540232Y-155584099D01*
X72540232Y-155584099D02*
X72873565Y-154869813D01*
X72873565Y-154869813D02*
X72873565Y-155869813D01*
X73349756Y-155346004D02*
X73683089Y-155346004D01*
X73825946Y-155869813D02*
X73349756Y-155869813D01*
X73349756Y-155869813D02*
X73349756Y-154869813D01*
X73349756Y-154869813D02*
X73825946Y-154869813D01*
X74206899Y-154965052D02*
X74254518Y-154917433D01*
X74254518Y-154917433D02*
X74349756Y-154869813D01*
X74349756Y-154869813D02*
X74587851Y-154869813D01*
X74587851Y-154869813D02*
X74683089Y-154917433D01*
X74683089Y-154917433D02*
X74730708Y-154965052D01*
X74730708Y-154965052D02*
X74778327Y-155060290D01*
X74778327Y-155060290D02*
X74778327Y-155155528D01*
X74778327Y-155155528D02*
X74730708Y-155298385D01*
X74730708Y-155298385D02*
X74159280Y-155869813D01*
X74159280Y-155869813D02*
X74778327Y-155869813D01*
X75349756Y-155298385D02*
X75254518Y-155250766D01*
X75254518Y-155250766D02*
X75206899Y-155203147D01*
X75206899Y-155203147D02*
X75159280Y-155107909D01*
X75159280Y-155107909D02*
X75159280Y-155060290D01*
X75159280Y-155060290D02*
X75206899Y-154965052D01*
X75206899Y-154965052D02*
X75254518Y-154917433D01*
X75254518Y-154917433D02*
X75349756Y-154869813D01*
X75349756Y-154869813D02*
X75540232Y-154869813D01*
X75540232Y-154869813D02*
X75635470Y-154917433D01*
X75635470Y-154917433D02*
X75683089Y-154965052D01*
X75683089Y-154965052D02*
X75730708Y-155060290D01*
X75730708Y-155060290D02*
X75730708Y-155107909D01*
X75730708Y-155107909D02*
X75683089Y-155203147D01*
X75683089Y-155203147D02*
X75635470Y-155250766D01*
X75635470Y-155250766D02*
X75540232Y-155298385D01*
X75540232Y-155298385D02*
X75349756Y-155298385D01*
X75349756Y-155298385D02*
X75254518Y-155346004D01*
X75254518Y-155346004D02*
X75206899Y-155393623D01*
X75206899Y-155393623D02*
X75159280Y-155488861D01*
X75159280Y-155488861D02*
X75159280Y-155679337D01*
X75159280Y-155679337D02*
X75206899Y-155774575D01*
X75206899Y-155774575D02*
X75254518Y-155822194D01*
X75254518Y-155822194D02*
X75349756Y-155869813D01*
X75349756Y-155869813D02*
X75540232Y-155869813D01*
X75540232Y-155869813D02*
X75635470Y-155822194D01*
X75635470Y-155822194D02*
X75683089Y-155774575D01*
X75683089Y-155774575D02*
X75730708Y-155679337D01*
X75730708Y-155679337D02*
X75730708Y-155488861D01*
X75730708Y-155488861D02*
X75683089Y-155393623D01*
X75683089Y-155393623D02*
X75635470Y-155346004D01*
X75635470Y-155346004D02*
X75540232Y-155298385D01*
X76349756Y-154869813D02*
X76444994Y-154869813D01*
X76444994Y-154869813D02*
X76540232Y-154917433D01*
X76540232Y-154917433D02*
X76587851Y-154965052D01*
X76587851Y-154965052D02*
X76635470Y-155060290D01*
X76635470Y-155060290D02*
X76683089Y-155250766D01*
X76683089Y-155250766D02*
X76683089Y-155488861D01*
X76683089Y-155488861D02*
X76635470Y-155679337D01*
X76635470Y-155679337D02*
X76587851Y-155774575D01*
X76587851Y-155774575D02*
X76540232Y-155822194D01*
X76540232Y-155822194D02*
X76444994Y-155869813D01*
X76444994Y-155869813D02*
X76349756Y-155869813D01*
X76349756Y-155869813D02*
X76254518Y-155822194D01*
X76254518Y-155822194D02*
X76206899Y-155774575D01*
X76206899Y-155774575D02*
X76159280Y-155679337D01*
X76159280Y-155679337D02*
X76111661Y-155488861D01*
X76111661Y-155488861D02*
X76111661Y-155250766D01*
X76111661Y-155250766D02*
X76159280Y-155060290D01*
X76159280Y-155060290D02*
X76206899Y-154965052D01*
X76206899Y-154965052D02*
X76254518Y-154917433D01*
X76254518Y-154917433D02*
X76349756Y-154869813D01*
%TO.C,R7*%
X99427380Y-127166666D02*
X98951190Y-127499999D01*
X99427380Y-127738094D02*
X98427380Y-127738094D01*
X98427380Y-127738094D02*
X98427380Y-127357142D01*
X98427380Y-127357142D02*
X98475000Y-127261904D01*
X98475000Y-127261904D02*
X98522619Y-127214285D01*
X98522619Y-127214285D02*
X98617857Y-127166666D01*
X98617857Y-127166666D02*
X98760714Y-127166666D01*
X98760714Y-127166666D02*
X98855952Y-127214285D01*
X98855952Y-127214285D02*
X98903571Y-127261904D01*
X98903571Y-127261904D02*
X98951190Y-127357142D01*
X98951190Y-127357142D02*
X98951190Y-127738094D01*
X98427380Y-126833332D02*
X98427380Y-126166666D01*
X98427380Y-126166666D02*
X99427380Y-126595237D01*
%TO.C,R1*%
X89267380Y-147486666D02*
X88791190Y-147819999D01*
X89267380Y-148058094D02*
X88267380Y-148058094D01*
X88267380Y-148058094D02*
X88267380Y-147677142D01*
X88267380Y-147677142D02*
X88315000Y-147581904D01*
X88315000Y-147581904D02*
X88362619Y-147534285D01*
X88362619Y-147534285D02*
X88457857Y-147486666D01*
X88457857Y-147486666D02*
X88600714Y-147486666D01*
X88600714Y-147486666D02*
X88695952Y-147534285D01*
X88695952Y-147534285D02*
X88743571Y-147581904D01*
X88743571Y-147581904D02*
X88791190Y-147677142D01*
X88791190Y-147677142D02*
X88791190Y-148058094D01*
X89267380Y-146534285D02*
X89267380Y-147105713D01*
X89267380Y-146819999D02*
X88267380Y-146819999D01*
X88267380Y-146819999D02*
X88410238Y-146915237D01*
X88410238Y-146915237D02*
X88505476Y-147010475D01*
X88505476Y-147010475D02*
X88553095Y-147105713D01*
X91807380Y-148010476D02*
X91807380Y-148581904D01*
X91807380Y-148296190D02*
X90807380Y-148296190D01*
X90807380Y-148296190D02*
X90950238Y-148391428D01*
X90950238Y-148391428D02*
X91045476Y-148486666D01*
X91045476Y-148486666D02*
X91093095Y-148581904D01*
X90807380Y-147391428D02*
X90807380Y-147296190D01*
X90807380Y-147296190D02*
X90855000Y-147200952D01*
X90855000Y-147200952D02*
X90902619Y-147153333D01*
X90902619Y-147153333D02*
X90997857Y-147105714D01*
X90997857Y-147105714D02*
X91188333Y-147058095D01*
X91188333Y-147058095D02*
X91426428Y-147058095D01*
X91426428Y-147058095D02*
X91616904Y-147105714D01*
X91616904Y-147105714D02*
X91712142Y-147153333D01*
X91712142Y-147153333D02*
X91759761Y-147200952D01*
X91759761Y-147200952D02*
X91807380Y-147296190D01*
X91807380Y-147296190D02*
X91807380Y-147391428D01*
X91807380Y-147391428D02*
X91759761Y-147486666D01*
X91759761Y-147486666D02*
X91712142Y-147534285D01*
X91712142Y-147534285D02*
X91616904Y-147581904D01*
X91616904Y-147581904D02*
X91426428Y-147629523D01*
X91426428Y-147629523D02*
X91188333Y-147629523D01*
X91188333Y-147629523D02*
X90997857Y-147581904D01*
X90997857Y-147581904D02*
X90902619Y-147534285D01*
X90902619Y-147534285D02*
X90855000Y-147486666D01*
X90855000Y-147486666D02*
X90807380Y-147391428D01*
X91807380Y-146629523D02*
X90807380Y-146629523D01*
X91807380Y-146058095D02*
X91235952Y-146486666D01*
X90807380Y-146058095D02*
X91378809Y-146629523D01*
%TO.C,LED 1 (GPIO4)*%
X116218958Y-164943512D02*
X115742768Y-164943512D01*
X115742768Y-164943512D02*
X115742768Y-163943512D01*
X116552292Y-164419703D02*
X116885625Y-164419703D01*
X117028482Y-164943512D02*
X116552292Y-164943512D01*
X116552292Y-164943512D02*
X116552292Y-163943512D01*
X116552292Y-163943512D02*
X117028482Y-163943512D01*
X117457054Y-164943512D02*
X117457054Y-163943512D01*
X117457054Y-163943512D02*
X117695149Y-163943512D01*
X117695149Y-163943512D02*
X117838006Y-163991132D01*
X117838006Y-163991132D02*
X117933244Y-164086370D01*
X117933244Y-164086370D02*
X117980863Y-164181608D01*
X117980863Y-164181608D02*
X118028482Y-164372084D01*
X118028482Y-164372084D02*
X118028482Y-164514941D01*
X118028482Y-164514941D02*
X117980863Y-164705417D01*
X117980863Y-164705417D02*
X117933244Y-164800655D01*
X117933244Y-164800655D02*
X117838006Y-164895893D01*
X117838006Y-164895893D02*
X117695149Y-164943512D01*
X117695149Y-164943512D02*
X117457054Y-164943512D01*
X119580863Y-164943512D02*
X119009435Y-164943512D01*
X119295149Y-164943512D02*
X119295149Y-163943512D01*
X119295149Y-163943512D02*
X119199911Y-164086370D01*
X119199911Y-164086370D02*
X119104673Y-164181608D01*
X119104673Y-164181608D02*
X119009435Y-164229227D01*
X120895149Y-165324465D02*
X120847530Y-165276846D01*
X120847530Y-165276846D02*
X120752292Y-165133989D01*
X120752292Y-165133989D02*
X120704673Y-165038751D01*
X120704673Y-165038751D02*
X120657054Y-164895893D01*
X120657054Y-164895893D02*
X120609435Y-164657798D01*
X120609435Y-164657798D02*
X120609435Y-164467322D01*
X120609435Y-164467322D02*
X120657054Y-164229227D01*
X120657054Y-164229227D02*
X120704673Y-164086370D01*
X120704673Y-164086370D02*
X120752292Y-163991132D01*
X120752292Y-163991132D02*
X120847530Y-163848274D01*
X120847530Y-163848274D02*
X120895149Y-163800655D01*
X121799911Y-163991132D02*
X121704673Y-163943512D01*
X121704673Y-163943512D02*
X121561816Y-163943512D01*
X121561816Y-163943512D02*
X121418959Y-163991132D01*
X121418959Y-163991132D02*
X121323721Y-164086370D01*
X121323721Y-164086370D02*
X121276102Y-164181608D01*
X121276102Y-164181608D02*
X121228483Y-164372084D01*
X121228483Y-164372084D02*
X121228483Y-164514941D01*
X121228483Y-164514941D02*
X121276102Y-164705417D01*
X121276102Y-164705417D02*
X121323721Y-164800655D01*
X121323721Y-164800655D02*
X121418959Y-164895893D01*
X121418959Y-164895893D02*
X121561816Y-164943512D01*
X121561816Y-164943512D02*
X121657054Y-164943512D01*
X121657054Y-164943512D02*
X121799911Y-164895893D01*
X121799911Y-164895893D02*
X121847530Y-164848274D01*
X121847530Y-164848274D02*
X121847530Y-164514941D01*
X121847530Y-164514941D02*
X121657054Y-164514941D01*
X122276102Y-164943512D02*
X122276102Y-163943512D01*
X122276102Y-163943512D02*
X122657054Y-163943512D01*
X122657054Y-163943512D02*
X122752292Y-163991132D01*
X122752292Y-163991132D02*
X122799911Y-164038751D01*
X122799911Y-164038751D02*
X122847530Y-164133989D01*
X122847530Y-164133989D02*
X122847530Y-164276846D01*
X122847530Y-164276846D02*
X122799911Y-164372084D01*
X122799911Y-164372084D02*
X122752292Y-164419703D01*
X122752292Y-164419703D02*
X122657054Y-164467322D01*
X122657054Y-164467322D02*
X122276102Y-164467322D01*
X123276102Y-164943512D02*
X123276102Y-163943512D01*
X123942768Y-163943512D02*
X124133244Y-163943512D01*
X124133244Y-163943512D02*
X124228482Y-163991132D01*
X124228482Y-163991132D02*
X124323720Y-164086370D01*
X124323720Y-164086370D02*
X124371339Y-164276846D01*
X124371339Y-164276846D02*
X124371339Y-164610179D01*
X124371339Y-164610179D02*
X124323720Y-164800655D01*
X124323720Y-164800655D02*
X124228482Y-164895893D01*
X124228482Y-164895893D02*
X124133244Y-164943512D01*
X124133244Y-164943512D02*
X123942768Y-164943512D01*
X123942768Y-164943512D02*
X123847530Y-164895893D01*
X123847530Y-164895893D02*
X123752292Y-164800655D01*
X123752292Y-164800655D02*
X123704673Y-164610179D01*
X123704673Y-164610179D02*
X123704673Y-164276846D01*
X123704673Y-164276846D02*
X123752292Y-164086370D01*
X123752292Y-164086370D02*
X123847530Y-163991132D01*
X123847530Y-163991132D02*
X123942768Y-163943512D01*
X125228482Y-164276846D02*
X125228482Y-164943512D01*
X124990387Y-163895893D02*
X124752292Y-164610179D01*
X124752292Y-164610179D02*
X125371339Y-164610179D01*
X125657054Y-165324465D02*
X125704673Y-165276846D01*
X125704673Y-165276846D02*
X125799911Y-165133989D01*
X125799911Y-165133989D02*
X125847530Y-165038751D01*
X125847530Y-165038751D02*
X125895149Y-164895893D01*
X125895149Y-164895893D02*
X125942768Y-164657798D01*
X125942768Y-164657798D02*
X125942768Y-164467322D01*
X125942768Y-164467322D02*
X125895149Y-164229227D01*
X125895149Y-164229227D02*
X125847530Y-164086370D01*
X125847530Y-164086370D02*
X125799911Y-163991132D01*
X125799911Y-163991132D02*
X125704673Y-163848274D01*
X125704673Y-163848274D02*
X125657054Y-163800655D01*
%TO.C,Reed switch 1*%
X78783775Y-113838380D02*
X78450442Y-113362190D01*
X78212347Y-113838380D02*
X78212347Y-112838380D01*
X78212347Y-112838380D02*
X78593299Y-112838380D01*
X78593299Y-112838380D02*
X78688537Y-112886000D01*
X78688537Y-112886000D02*
X78736156Y-112933619D01*
X78736156Y-112933619D02*
X78783775Y-113028857D01*
X78783775Y-113028857D02*
X78783775Y-113171714D01*
X78783775Y-113171714D02*
X78736156Y-113266952D01*
X78736156Y-113266952D02*
X78688537Y-113314571D01*
X78688537Y-113314571D02*
X78593299Y-113362190D01*
X78593299Y-113362190D02*
X78212347Y-113362190D01*
X79593299Y-113790761D02*
X79498061Y-113838380D01*
X79498061Y-113838380D02*
X79307585Y-113838380D01*
X79307585Y-113838380D02*
X79212347Y-113790761D01*
X79212347Y-113790761D02*
X79164728Y-113695523D01*
X79164728Y-113695523D02*
X79164728Y-113314571D01*
X79164728Y-113314571D02*
X79212347Y-113219333D01*
X79212347Y-113219333D02*
X79307585Y-113171714D01*
X79307585Y-113171714D02*
X79498061Y-113171714D01*
X79498061Y-113171714D02*
X79593299Y-113219333D01*
X79593299Y-113219333D02*
X79640918Y-113314571D01*
X79640918Y-113314571D02*
X79640918Y-113409809D01*
X79640918Y-113409809D02*
X79164728Y-113505047D01*
X80450442Y-113790761D02*
X80355204Y-113838380D01*
X80355204Y-113838380D02*
X80164728Y-113838380D01*
X80164728Y-113838380D02*
X80069490Y-113790761D01*
X80069490Y-113790761D02*
X80021871Y-113695523D01*
X80021871Y-113695523D02*
X80021871Y-113314571D01*
X80021871Y-113314571D02*
X80069490Y-113219333D01*
X80069490Y-113219333D02*
X80164728Y-113171714D01*
X80164728Y-113171714D02*
X80355204Y-113171714D01*
X80355204Y-113171714D02*
X80450442Y-113219333D01*
X80450442Y-113219333D02*
X80498061Y-113314571D01*
X80498061Y-113314571D02*
X80498061Y-113409809D01*
X80498061Y-113409809D02*
X80021871Y-113505047D01*
X81355204Y-113838380D02*
X81355204Y-112838380D01*
X81355204Y-113790761D02*
X81259966Y-113838380D01*
X81259966Y-113838380D02*
X81069490Y-113838380D01*
X81069490Y-113838380D02*
X80974252Y-113790761D01*
X80974252Y-113790761D02*
X80926633Y-113743142D01*
X80926633Y-113743142D02*
X80879014Y-113647904D01*
X80879014Y-113647904D02*
X80879014Y-113362190D01*
X80879014Y-113362190D02*
X80926633Y-113266952D01*
X80926633Y-113266952D02*
X80974252Y-113219333D01*
X80974252Y-113219333D02*
X81069490Y-113171714D01*
X81069490Y-113171714D02*
X81259966Y-113171714D01*
X81259966Y-113171714D02*
X81355204Y-113219333D01*
X82383776Y-113790761D02*
X82479014Y-113838380D01*
X82479014Y-113838380D02*
X82669490Y-113838380D01*
X82669490Y-113838380D02*
X82764728Y-113790761D01*
X82764728Y-113790761D02*
X82812347Y-113695523D01*
X82812347Y-113695523D02*
X82812347Y-113647904D01*
X82812347Y-113647904D02*
X82764728Y-113552666D01*
X82764728Y-113552666D02*
X82669490Y-113505047D01*
X82669490Y-113505047D02*
X82526633Y-113505047D01*
X82526633Y-113505047D02*
X82431395Y-113457428D01*
X82431395Y-113457428D02*
X82383776Y-113362190D01*
X82383776Y-113362190D02*
X82383776Y-113314571D01*
X82383776Y-113314571D02*
X82431395Y-113219333D01*
X82431395Y-113219333D02*
X82526633Y-113171714D01*
X82526633Y-113171714D02*
X82669490Y-113171714D01*
X82669490Y-113171714D02*
X82764728Y-113219333D01*
X83145681Y-113171714D02*
X83336157Y-113838380D01*
X83336157Y-113838380D02*
X83526633Y-113362190D01*
X83526633Y-113362190D02*
X83717109Y-113838380D01*
X83717109Y-113838380D02*
X83907585Y-113171714D01*
X84288538Y-113838380D02*
X84288538Y-113171714D01*
X84288538Y-112838380D02*
X84240919Y-112886000D01*
X84240919Y-112886000D02*
X84288538Y-112933619D01*
X84288538Y-112933619D02*
X84336157Y-112886000D01*
X84336157Y-112886000D02*
X84288538Y-112838380D01*
X84288538Y-112838380D02*
X84288538Y-112933619D01*
X84621871Y-113171714D02*
X85002823Y-113171714D01*
X84764728Y-112838380D02*
X84764728Y-113695523D01*
X84764728Y-113695523D02*
X84812347Y-113790761D01*
X84812347Y-113790761D02*
X84907585Y-113838380D01*
X84907585Y-113838380D02*
X85002823Y-113838380D01*
X85764728Y-113790761D02*
X85669490Y-113838380D01*
X85669490Y-113838380D02*
X85479014Y-113838380D01*
X85479014Y-113838380D02*
X85383776Y-113790761D01*
X85383776Y-113790761D02*
X85336157Y-113743142D01*
X85336157Y-113743142D02*
X85288538Y-113647904D01*
X85288538Y-113647904D02*
X85288538Y-113362190D01*
X85288538Y-113362190D02*
X85336157Y-113266952D01*
X85336157Y-113266952D02*
X85383776Y-113219333D01*
X85383776Y-113219333D02*
X85479014Y-113171714D01*
X85479014Y-113171714D02*
X85669490Y-113171714D01*
X85669490Y-113171714D02*
X85764728Y-113219333D01*
X86193300Y-113838380D02*
X86193300Y-112838380D01*
X86621871Y-113838380D02*
X86621871Y-113314571D01*
X86621871Y-113314571D02*
X86574252Y-113219333D01*
X86574252Y-113219333D02*
X86479014Y-113171714D01*
X86479014Y-113171714D02*
X86336157Y-113171714D01*
X86336157Y-113171714D02*
X86240919Y-113219333D01*
X86240919Y-113219333D02*
X86193300Y-113266952D01*
X88221871Y-113838380D02*
X87650443Y-113838380D01*
X87936157Y-113838380D02*
X87936157Y-112838380D01*
X87936157Y-112838380D02*
X87840919Y-112981238D01*
X87840919Y-112981238D02*
X87745681Y-113076476D01*
X87745681Y-113076476D02*
X87650443Y-113124095D01*
%TO.C,LED 4 (GPIO14)*%
X115742767Y-119110102D02*
X115266577Y-119110102D01*
X115266577Y-119110102D02*
X115266577Y-118110102D01*
X116076101Y-118586293D02*
X116409434Y-118586293D01*
X116552291Y-119110102D02*
X116076101Y-119110102D01*
X116076101Y-119110102D02*
X116076101Y-118110102D01*
X116076101Y-118110102D02*
X116552291Y-118110102D01*
X116980863Y-119110102D02*
X116980863Y-118110102D01*
X116980863Y-118110102D02*
X117218958Y-118110102D01*
X117218958Y-118110102D02*
X117361815Y-118157722D01*
X117361815Y-118157722D02*
X117457053Y-118252960D01*
X117457053Y-118252960D02*
X117504672Y-118348198D01*
X117504672Y-118348198D02*
X117552291Y-118538674D01*
X117552291Y-118538674D02*
X117552291Y-118681531D01*
X117552291Y-118681531D02*
X117504672Y-118872007D01*
X117504672Y-118872007D02*
X117457053Y-118967245D01*
X117457053Y-118967245D02*
X117361815Y-119062483D01*
X117361815Y-119062483D02*
X117218958Y-119110102D01*
X117218958Y-119110102D02*
X116980863Y-119110102D01*
X119009434Y-118443436D02*
X119009434Y-119110102D01*
X118771339Y-118062483D02*
X118533244Y-118776769D01*
X118533244Y-118776769D02*
X119152291Y-118776769D01*
X120418958Y-119491055D02*
X120371339Y-119443436D01*
X120371339Y-119443436D02*
X120276101Y-119300579D01*
X120276101Y-119300579D02*
X120228482Y-119205341D01*
X120228482Y-119205341D02*
X120180863Y-119062483D01*
X120180863Y-119062483D02*
X120133244Y-118824388D01*
X120133244Y-118824388D02*
X120133244Y-118633912D01*
X120133244Y-118633912D02*
X120180863Y-118395817D01*
X120180863Y-118395817D02*
X120228482Y-118252960D01*
X120228482Y-118252960D02*
X120276101Y-118157722D01*
X120276101Y-118157722D02*
X120371339Y-118014864D01*
X120371339Y-118014864D02*
X120418958Y-117967245D01*
X121323720Y-118157722D02*
X121228482Y-118110102D01*
X121228482Y-118110102D02*
X121085625Y-118110102D01*
X121085625Y-118110102D02*
X120942768Y-118157722D01*
X120942768Y-118157722D02*
X120847530Y-118252960D01*
X120847530Y-118252960D02*
X120799911Y-118348198D01*
X120799911Y-118348198D02*
X120752292Y-118538674D01*
X120752292Y-118538674D02*
X120752292Y-118681531D01*
X120752292Y-118681531D02*
X120799911Y-118872007D01*
X120799911Y-118872007D02*
X120847530Y-118967245D01*
X120847530Y-118967245D02*
X120942768Y-119062483D01*
X120942768Y-119062483D02*
X121085625Y-119110102D01*
X121085625Y-119110102D02*
X121180863Y-119110102D01*
X121180863Y-119110102D02*
X121323720Y-119062483D01*
X121323720Y-119062483D02*
X121371339Y-119014864D01*
X121371339Y-119014864D02*
X121371339Y-118681531D01*
X121371339Y-118681531D02*
X121180863Y-118681531D01*
X121799911Y-119110102D02*
X121799911Y-118110102D01*
X121799911Y-118110102D02*
X122180863Y-118110102D01*
X122180863Y-118110102D02*
X122276101Y-118157722D01*
X122276101Y-118157722D02*
X122323720Y-118205341D01*
X122323720Y-118205341D02*
X122371339Y-118300579D01*
X122371339Y-118300579D02*
X122371339Y-118443436D01*
X122371339Y-118443436D02*
X122323720Y-118538674D01*
X122323720Y-118538674D02*
X122276101Y-118586293D01*
X122276101Y-118586293D02*
X122180863Y-118633912D01*
X122180863Y-118633912D02*
X121799911Y-118633912D01*
X122799911Y-119110102D02*
X122799911Y-118110102D01*
X123466577Y-118110102D02*
X123657053Y-118110102D01*
X123657053Y-118110102D02*
X123752291Y-118157722D01*
X123752291Y-118157722D02*
X123847529Y-118252960D01*
X123847529Y-118252960D02*
X123895148Y-118443436D01*
X123895148Y-118443436D02*
X123895148Y-118776769D01*
X123895148Y-118776769D02*
X123847529Y-118967245D01*
X123847529Y-118967245D02*
X123752291Y-119062483D01*
X123752291Y-119062483D02*
X123657053Y-119110102D01*
X123657053Y-119110102D02*
X123466577Y-119110102D01*
X123466577Y-119110102D02*
X123371339Y-119062483D01*
X123371339Y-119062483D02*
X123276101Y-118967245D01*
X123276101Y-118967245D02*
X123228482Y-118776769D01*
X123228482Y-118776769D02*
X123228482Y-118443436D01*
X123228482Y-118443436D02*
X123276101Y-118252960D01*
X123276101Y-118252960D02*
X123371339Y-118157722D01*
X123371339Y-118157722D02*
X123466577Y-118110102D01*
X124847529Y-119110102D02*
X124276101Y-119110102D01*
X124561815Y-119110102D02*
X124561815Y-118110102D01*
X124561815Y-118110102D02*
X124466577Y-118252960D01*
X124466577Y-118252960D02*
X124371339Y-118348198D01*
X124371339Y-118348198D02*
X124276101Y-118395817D01*
X125704672Y-118443436D02*
X125704672Y-119110102D01*
X125466577Y-118062483D02*
X125228482Y-118776769D01*
X125228482Y-118776769D02*
X125847529Y-118776769D01*
X126133244Y-119491055D02*
X126180863Y-119443436D01*
X126180863Y-119443436D02*
X126276101Y-119300579D01*
X126276101Y-119300579D02*
X126323720Y-119205341D01*
X126323720Y-119205341D02*
X126371339Y-119062483D01*
X126371339Y-119062483D02*
X126418958Y-118824388D01*
X126418958Y-118824388D02*
X126418958Y-118633912D01*
X126418958Y-118633912D02*
X126371339Y-118395817D01*
X126371339Y-118395817D02*
X126323720Y-118252960D01*
X126323720Y-118252960D02*
X126276101Y-118157722D01*
X126276101Y-118157722D02*
X126180863Y-118014864D01*
X126180863Y-118014864D02*
X126133244Y-117967245D01*
%TO.C,U1*%
X96957806Y-158083369D02*
X96957806Y-158892893D01*
X96957806Y-158892893D02*
X97005425Y-158988131D01*
X97005425Y-158988131D02*
X97053044Y-159035750D01*
X97053044Y-159035750D02*
X97148282Y-159083369D01*
X97148282Y-159083369D02*
X97338758Y-159083369D01*
X97338758Y-159083369D02*
X97433996Y-159035750D01*
X97433996Y-159035750D02*
X97481615Y-158988131D01*
X97481615Y-158988131D02*
X97529234Y-158892893D01*
X97529234Y-158892893D02*
X97529234Y-158083369D01*
X98529234Y-159083369D02*
X97957806Y-159083369D01*
X98243520Y-159083369D02*
X98243520Y-158083369D01*
X98243520Y-158083369D02*
X98148282Y-158226227D01*
X98148282Y-158226227D02*
X98053044Y-158321465D01*
X98053044Y-158321465D02*
X97957806Y-158369084D01*
%TO.C,R9*%
X109587380Y-127166666D02*
X109111190Y-127499999D01*
X109587380Y-127738094D02*
X108587380Y-127738094D01*
X108587380Y-127738094D02*
X108587380Y-127357142D01*
X108587380Y-127357142D02*
X108635000Y-127261904D01*
X108635000Y-127261904D02*
X108682619Y-127214285D01*
X108682619Y-127214285D02*
X108777857Y-127166666D01*
X108777857Y-127166666D02*
X108920714Y-127166666D01*
X108920714Y-127166666D02*
X109015952Y-127214285D01*
X109015952Y-127214285D02*
X109063571Y-127261904D01*
X109063571Y-127261904D02*
X109111190Y-127357142D01*
X109111190Y-127357142D02*
X109111190Y-127738094D01*
X109587380Y-126690475D02*
X109587380Y-126499999D01*
X109587380Y-126499999D02*
X109539761Y-126404761D01*
X109539761Y-126404761D02*
X109492142Y-126357142D01*
X109492142Y-126357142D02*
X109349285Y-126261904D01*
X109349285Y-126261904D02*
X109158809Y-126214285D01*
X109158809Y-126214285D02*
X108777857Y-126214285D01*
X108777857Y-126214285D02*
X108682619Y-126261904D01*
X108682619Y-126261904D02*
X108635000Y-126309523D01*
X108635000Y-126309523D02*
X108587380Y-126404761D01*
X108587380Y-126404761D02*
X108587380Y-126595237D01*
X108587380Y-126595237D02*
X108635000Y-126690475D01*
X108635000Y-126690475D02*
X108682619Y-126738094D01*
X108682619Y-126738094D02*
X108777857Y-126785713D01*
X108777857Y-126785713D02*
X109015952Y-126785713D01*
X109015952Y-126785713D02*
X109111190Y-126738094D01*
X109111190Y-126738094D02*
X109158809Y-126690475D01*
X109158809Y-126690475D02*
X109206428Y-126595237D01*
X109206428Y-126595237D02*
X109206428Y-126404761D01*
X109206428Y-126404761D02*
X109158809Y-126309523D01*
X109158809Y-126309523D02*
X109111190Y-126261904D01*
X109111190Y-126261904D02*
X109015952Y-126214285D01*
X112127380Y-127214285D02*
X112127380Y-127785713D01*
X112127380Y-127499999D02*
X111127380Y-127499999D01*
X111127380Y-127499999D02*
X111270238Y-127595237D01*
X111270238Y-127595237D02*
X111365476Y-127690475D01*
X111365476Y-127690475D02*
X111413095Y-127785713D01*
X112127380Y-126785713D02*
X111127380Y-126785713D01*
X112127380Y-126214285D02*
X111555952Y-126642856D01*
X111127380Y-126214285D02*
X111698809Y-126785713D01*
%TO.C,12V INPUT*%
X67321184Y-115188045D02*
X66749756Y-115188045D01*
X67035470Y-115188045D02*
X67035470Y-114188045D01*
X67035470Y-114188045D02*
X66940232Y-114330903D01*
X66940232Y-114330903D02*
X66844994Y-114426141D01*
X66844994Y-114426141D02*
X66749756Y-114473760D01*
X67702137Y-114283284D02*
X67749756Y-114235665D01*
X67749756Y-114235665D02*
X67844994Y-114188045D01*
X67844994Y-114188045D02*
X68083089Y-114188045D01*
X68083089Y-114188045D02*
X68178327Y-114235665D01*
X68178327Y-114235665D02*
X68225946Y-114283284D01*
X68225946Y-114283284D02*
X68273565Y-114378522D01*
X68273565Y-114378522D02*
X68273565Y-114473760D01*
X68273565Y-114473760D02*
X68225946Y-114616617D01*
X68225946Y-114616617D02*
X67654518Y-115188045D01*
X67654518Y-115188045D02*
X68273565Y-115188045D01*
X68559280Y-114188045D02*
X68892613Y-115188045D01*
X68892613Y-115188045D02*
X69225946Y-114188045D01*
X70159280Y-115188045D02*
X70159280Y-114188045D01*
X70635470Y-115188045D02*
X70635470Y-114188045D01*
X70635470Y-114188045D02*
X71206898Y-115188045D01*
X71206898Y-115188045D02*
X71206898Y-114188045D01*
X71683089Y-115188045D02*
X71683089Y-114188045D01*
X71683089Y-114188045D02*
X72064041Y-114188045D01*
X72064041Y-114188045D02*
X72159279Y-114235665D01*
X72159279Y-114235665D02*
X72206898Y-114283284D01*
X72206898Y-114283284D02*
X72254517Y-114378522D01*
X72254517Y-114378522D02*
X72254517Y-114521379D01*
X72254517Y-114521379D02*
X72206898Y-114616617D01*
X72206898Y-114616617D02*
X72159279Y-114664236D01*
X72159279Y-114664236D02*
X72064041Y-114711855D01*
X72064041Y-114711855D02*
X71683089Y-114711855D01*
X72683089Y-114188045D02*
X72683089Y-114997569D01*
X72683089Y-114997569D02*
X72730708Y-115092807D01*
X72730708Y-115092807D02*
X72778327Y-115140426D01*
X72778327Y-115140426D02*
X72873565Y-115188045D01*
X72873565Y-115188045D02*
X73064041Y-115188045D01*
X73064041Y-115188045D02*
X73159279Y-115140426D01*
X73159279Y-115140426D02*
X73206898Y-115092807D01*
X73206898Y-115092807D02*
X73254517Y-114997569D01*
X73254517Y-114997569D02*
X73254517Y-114188045D01*
X73587851Y-114188045D02*
X74159279Y-114188045D01*
X73873565Y-115188045D02*
X73873565Y-114188045D01*
%TO.C,R3*%
X99427380Y-147486666D02*
X98951190Y-147819999D01*
X99427380Y-148058094D02*
X98427380Y-148058094D01*
X98427380Y-148058094D02*
X98427380Y-147677142D01*
X98427380Y-147677142D02*
X98475000Y-147581904D01*
X98475000Y-147581904D02*
X98522619Y-147534285D01*
X98522619Y-147534285D02*
X98617857Y-147486666D01*
X98617857Y-147486666D02*
X98760714Y-147486666D01*
X98760714Y-147486666D02*
X98855952Y-147534285D01*
X98855952Y-147534285D02*
X98903571Y-147581904D01*
X98903571Y-147581904D02*
X98951190Y-147677142D01*
X98951190Y-147677142D02*
X98951190Y-148058094D01*
X98427380Y-147153332D02*
X98427380Y-146534285D01*
X98427380Y-146534285D02*
X98808333Y-146867618D01*
X98808333Y-146867618D02*
X98808333Y-146724761D01*
X98808333Y-146724761D02*
X98855952Y-146629523D01*
X98855952Y-146629523D02*
X98903571Y-146581904D01*
X98903571Y-146581904D02*
X98998809Y-146534285D01*
X98998809Y-146534285D02*
X99236904Y-146534285D01*
X99236904Y-146534285D02*
X99332142Y-146581904D01*
X99332142Y-146581904D02*
X99379761Y-146629523D01*
X99379761Y-146629523D02*
X99427380Y-146724761D01*
X99427380Y-146724761D02*
X99427380Y-147010475D01*
X99427380Y-147010475D02*
X99379761Y-147105713D01*
X99379761Y-147105713D02*
X99332142Y-147153332D01*
X101967380Y-148010476D02*
X101967380Y-148581904D01*
X101967380Y-148296190D02*
X100967380Y-148296190D01*
X100967380Y-148296190D02*
X101110238Y-148391428D01*
X101110238Y-148391428D02*
X101205476Y-148486666D01*
X101205476Y-148486666D02*
X101253095Y-148581904D01*
X100967380Y-147391428D02*
X100967380Y-147296190D01*
X100967380Y-147296190D02*
X101015000Y-147200952D01*
X101015000Y-147200952D02*
X101062619Y-147153333D01*
X101062619Y-147153333D02*
X101157857Y-147105714D01*
X101157857Y-147105714D02*
X101348333Y-147058095D01*
X101348333Y-147058095D02*
X101586428Y-147058095D01*
X101586428Y-147058095D02*
X101776904Y-147105714D01*
X101776904Y-147105714D02*
X101872142Y-147153333D01*
X101872142Y-147153333D02*
X101919761Y-147200952D01*
X101919761Y-147200952D02*
X101967380Y-147296190D01*
X101967380Y-147296190D02*
X101967380Y-147391428D01*
X101967380Y-147391428D02*
X101919761Y-147486666D01*
X101919761Y-147486666D02*
X101872142Y-147534285D01*
X101872142Y-147534285D02*
X101776904Y-147581904D01*
X101776904Y-147581904D02*
X101586428Y-147629523D01*
X101586428Y-147629523D02*
X101348333Y-147629523D01*
X101348333Y-147629523D02*
X101157857Y-147581904D01*
X101157857Y-147581904D02*
X101062619Y-147534285D01*
X101062619Y-147534285D02*
X101015000Y-147486666D01*
X101015000Y-147486666D02*
X100967380Y-147391428D01*
X101967380Y-146629523D02*
X100967380Y-146629523D01*
X101967380Y-146058095D02*
X101395952Y-146486666D01*
X100967380Y-146058095D02*
X101538809Y-146629523D01*
%TO.C,Buzzer*%
X84058894Y-118162415D02*
X84201751Y-118210034D01*
X84201751Y-118210034D02*
X84249370Y-118257653D01*
X84249370Y-118257653D02*
X84296989Y-118352891D01*
X84296989Y-118352891D02*
X84296989Y-118495748D01*
X84296989Y-118495748D02*
X84249370Y-118590986D01*
X84249370Y-118590986D02*
X84201751Y-118638605D01*
X84201751Y-118638605D02*
X84106513Y-118686224D01*
X84106513Y-118686224D02*
X83725561Y-118686224D01*
X83725561Y-118686224D02*
X83725561Y-117686224D01*
X83725561Y-117686224D02*
X84058894Y-117686224D01*
X84058894Y-117686224D02*
X84154132Y-117733844D01*
X84154132Y-117733844D02*
X84201751Y-117781463D01*
X84201751Y-117781463D02*
X84249370Y-117876701D01*
X84249370Y-117876701D02*
X84249370Y-117971939D01*
X84249370Y-117971939D02*
X84201751Y-118067177D01*
X84201751Y-118067177D02*
X84154132Y-118114796D01*
X84154132Y-118114796D02*
X84058894Y-118162415D01*
X84058894Y-118162415D02*
X83725561Y-118162415D01*
X85154132Y-118019558D02*
X85154132Y-118686224D01*
X84725561Y-118019558D02*
X84725561Y-118543367D01*
X84725561Y-118543367D02*
X84773180Y-118638605D01*
X84773180Y-118638605D02*
X84868418Y-118686224D01*
X84868418Y-118686224D02*
X85011275Y-118686224D01*
X85011275Y-118686224D02*
X85106513Y-118638605D01*
X85106513Y-118638605D02*
X85154132Y-118590986D01*
X85535085Y-118019558D02*
X86058894Y-118019558D01*
X86058894Y-118019558D02*
X85535085Y-118686224D01*
X85535085Y-118686224D02*
X86058894Y-118686224D01*
X86344609Y-118019558D02*
X86868418Y-118019558D01*
X86868418Y-118019558D02*
X86344609Y-118686224D01*
X86344609Y-118686224D02*
X86868418Y-118686224D01*
X87630323Y-118638605D02*
X87535085Y-118686224D01*
X87535085Y-118686224D02*
X87344609Y-118686224D01*
X87344609Y-118686224D02*
X87249371Y-118638605D01*
X87249371Y-118638605D02*
X87201752Y-118543367D01*
X87201752Y-118543367D02*
X87201752Y-118162415D01*
X87201752Y-118162415D02*
X87249371Y-118067177D01*
X87249371Y-118067177D02*
X87344609Y-118019558D01*
X87344609Y-118019558D02*
X87535085Y-118019558D01*
X87535085Y-118019558D02*
X87630323Y-118067177D01*
X87630323Y-118067177D02*
X87677942Y-118162415D01*
X87677942Y-118162415D02*
X87677942Y-118257653D01*
X87677942Y-118257653D02*
X87201752Y-118352891D01*
X88106514Y-118686224D02*
X88106514Y-118019558D01*
X88106514Y-118210034D02*
X88154133Y-118114796D01*
X88154133Y-118114796D02*
X88201752Y-118067177D01*
X88201752Y-118067177D02*
X88296990Y-118019558D01*
X88296990Y-118019558D02*
X88392228Y-118019558D01*
X82169048Y-124367818D02*
X82930953Y-124367818D01*
X82550000Y-124748770D02*
X82550000Y-123986866D01*
%TO.C,R6*%
X94347380Y-127166666D02*
X93871190Y-127499999D01*
X94347380Y-127738094D02*
X93347380Y-127738094D01*
X93347380Y-127738094D02*
X93347380Y-127357142D01*
X93347380Y-127357142D02*
X93395000Y-127261904D01*
X93395000Y-127261904D02*
X93442619Y-127214285D01*
X93442619Y-127214285D02*
X93537857Y-127166666D01*
X93537857Y-127166666D02*
X93680714Y-127166666D01*
X93680714Y-127166666D02*
X93775952Y-127214285D01*
X93775952Y-127214285D02*
X93823571Y-127261904D01*
X93823571Y-127261904D02*
X93871190Y-127357142D01*
X93871190Y-127357142D02*
X93871190Y-127738094D01*
X93347380Y-126309523D02*
X93347380Y-126499999D01*
X93347380Y-126499999D02*
X93395000Y-126595237D01*
X93395000Y-126595237D02*
X93442619Y-126642856D01*
X93442619Y-126642856D02*
X93585476Y-126738094D01*
X93585476Y-126738094D02*
X93775952Y-126785713D01*
X93775952Y-126785713D02*
X94156904Y-126785713D01*
X94156904Y-126785713D02*
X94252142Y-126738094D01*
X94252142Y-126738094D02*
X94299761Y-126690475D01*
X94299761Y-126690475D02*
X94347380Y-126595237D01*
X94347380Y-126595237D02*
X94347380Y-126404761D01*
X94347380Y-126404761D02*
X94299761Y-126309523D01*
X94299761Y-126309523D02*
X94252142Y-126261904D01*
X94252142Y-126261904D02*
X94156904Y-126214285D01*
X94156904Y-126214285D02*
X93918809Y-126214285D01*
X93918809Y-126214285D02*
X93823571Y-126261904D01*
X93823571Y-126261904D02*
X93775952Y-126309523D01*
X93775952Y-126309523D02*
X93728333Y-126404761D01*
X93728333Y-126404761D02*
X93728333Y-126595237D01*
X93728333Y-126595237D02*
X93775952Y-126690475D01*
X93775952Y-126690475D02*
X93823571Y-126738094D01*
X93823571Y-126738094D02*
X93918809Y-126785713D01*
%TO.C,Reed switch 2*%
X92109575Y-113837880D02*
X91776242Y-113361690D01*
X91538147Y-113837880D02*
X91538147Y-112837880D01*
X91538147Y-112837880D02*
X91919099Y-112837880D01*
X91919099Y-112837880D02*
X92014337Y-112885500D01*
X92014337Y-112885500D02*
X92061956Y-112933119D01*
X92061956Y-112933119D02*
X92109575Y-113028357D01*
X92109575Y-113028357D02*
X92109575Y-113171214D01*
X92109575Y-113171214D02*
X92061956Y-113266452D01*
X92061956Y-113266452D02*
X92014337Y-113314071D01*
X92014337Y-113314071D02*
X91919099Y-113361690D01*
X91919099Y-113361690D02*
X91538147Y-113361690D01*
X92919099Y-113790261D02*
X92823861Y-113837880D01*
X92823861Y-113837880D02*
X92633385Y-113837880D01*
X92633385Y-113837880D02*
X92538147Y-113790261D01*
X92538147Y-113790261D02*
X92490528Y-113695023D01*
X92490528Y-113695023D02*
X92490528Y-113314071D01*
X92490528Y-113314071D02*
X92538147Y-113218833D01*
X92538147Y-113218833D02*
X92633385Y-113171214D01*
X92633385Y-113171214D02*
X92823861Y-113171214D01*
X92823861Y-113171214D02*
X92919099Y-113218833D01*
X92919099Y-113218833D02*
X92966718Y-113314071D01*
X92966718Y-113314071D02*
X92966718Y-113409309D01*
X92966718Y-113409309D02*
X92490528Y-113504547D01*
X93776242Y-113790261D02*
X93681004Y-113837880D01*
X93681004Y-113837880D02*
X93490528Y-113837880D01*
X93490528Y-113837880D02*
X93395290Y-113790261D01*
X93395290Y-113790261D02*
X93347671Y-113695023D01*
X93347671Y-113695023D02*
X93347671Y-113314071D01*
X93347671Y-113314071D02*
X93395290Y-113218833D01*
X93395290Y-113218833D02*
X93490528Y-113171214D01*
X93490528Y-113171214D02*
X93681004Y-113171214D01*
X93681004Y-113171214D02*
X93776242Y-113218833D01*
X93776242Y-113218833D02*
X93823861Y-113314071D01*
X93823861Y-113314071D02*
X93823861Y-113409309D01*
X93823861Y-113409309D02*
X93347671Y-113504547D01*
X94681004Y-113837880D02*
X94681004Y-112837880D01*
X94681004Y-113790261D02*
X94585766Y-113837880D01*
X94585766Y-113837880D02*
X94395290Y-113837880D01*
X94395290Y-113837880D02*
X94300052Y-113790261D01*
X94300052Y-113790261D02*
X94252433Y-113742642D01*
X94252433Y-113742642D02*
X94204814Y-113647404D01*
X94204814Y-113647404D02*
X94204814Y-113361690D01*
X94204814Y-113361690D02*
X94252433Y-113266452D01*
X94252433Y-113266452D02*
X94300052Y-113218833D01*
X94300052Y-113218833D02*
X94395290Y-113171214D01*
X94395290Y-113171214D02*
X94585766Y-113171214D01*
X94585766Y-113171214D02*
X94681004Y-113218833D01*
X95709576Y-113790261D02*
X95804814Y-113837880D01*
X95804814Y-113837880D02*
X95995290Y-113837880D01*
X95995290Y-113837880D02*
X96090528Y-113790261D01*
X96090528Y-113790261D02*
X96138147Y-113695023D01*
X96138147Y-113695023D02*
X96138147Y-113647404D01*
X96138147Y-113647404D02*
X96090528Y-113552166D01*
X96090528Y-113552166D02*
X95995290Y-113504547D01*
X95995290Y-113504547D02*
X95852433Y-113504547D01*
X95852433Y-113504547D02*
X95757195Y-113456928D01*
X95757195Y-113456928D02*
X95709576Y-113361690D01*
X95709576Y-113361690D02*
X95709576Y-113314071D01*
X95709576Y-113314071D02*
X95757195Y-113218833D01*
X95757195Y-113218833D02*
X95852433Y-113171214D01*
X95852433Y-113171214D02*
X95995290Y-113171214D01*
X95995290Y-113171214D02*
X96090528Y-113218833D01*
X96471481Y-113171214D02*
X96661957Y-113837880D01*
X96661957Y-113837880D02*
X96852433Y-113361690D01*
X96852433Y-113361690D02*
X97042909Y-113837880D01*
X97042909Y-113837880D02*
X97233385Y-113171214D01*
X97614338Y-113837880D02*
X97614338Y-113171214D01*
X97614338Y-112837880D02*
X97566719Y-112885500D01*
X97566719Y-112885500D02*
X97614338Y-112933119D01*
X97614338Y-112933119D02*
X97661957Y-112885500D01*
X97661957Y-112885500D02*
X97614338Y-112837880D01*
X97614338Y-112837880D02*
X97614338Y-112933119D01*
X97947671Y-113171214D02*
X98328623Y-113171214D01*
X98090528Y-112837880D02*
X98090528Y-113695023D01*
X98090528Y-113695023D02*
X98138147Y-113790261D01*
X98138147Y-113790261D02*
X98233385Y-113837880D01*
X98233385Y-113837880D02*
X98328623Y-113837880D01*
X99090528Y-113790261D02*
X98995290Y-113837880D01*
X98995290Y-113837880D02*
X98804814Y-113837880D01*
X98804814Y-113837880D02*
X98709576Y-113790261D01*
X98709576Y-113790261D02*
X98661957Y-113742642D01*
X98661957Y-113742642D02*
X98614338Y-113647404D01*
X98614338Y-113647404D02*
X98614338Y-113361690D01*
X98614338Y-113361690D02*
X98661957Y-113266452D01*
X98661957Y-113266452D02*
X98709576Y-113218833D01*
X98709576Y-113218833D02*
X98804814Y-113171214D01*
X98804814Y-113171214D02*
X98995290Y-113171214D01*
X98995290Y-113171214D02*
X99090528Y-113218833D01*
X99519100Y-113837880D02*
X99519100Y-112837880D01*
X99947671Y-113837880D02*
X99947671Y-113314071D01*
X99947671Y-113314071D02*
X99900052Y-113218833D01*
X99900052Y-113218833D02*
X99804814Y-113171214D01*
X99804814Y-113171214D02*
X99661957Y-113171214D01*
X99661957Y-113171214D02*
X99566719Y-113218833D01*
X99566719Y-113218833D02*
X99519100Y-113266452D01*
X100976243Y-112933119D02*
X101023862Y-112885500D01*
X101023862Y-112885500D02*
X101119100Y-112837880D01*
X101119100Y-112837880D02*
X101357195Y-112837880D01*
X101357195Y-112837880D02*
X101452433Y-112885500D01*
X101452433Y-112885500D02*
X101500052Y-112933119D01*
X101500052Y-112933119D02*
X101547671Y-113028357D01*
X101547671Y-113028357D02*
X101547671Y-113123595D01*
X101547671Y-113123595D02*
X101500052Y-113266452D01*
X101500052Y-113266452D02*
X100928624Y-113837880D01*
X100928624Y-113837880D02*
X101547671Y-113837880D01*
%TO.C,R5*%
X109587380Y-147486666D02*
X109111190Y-147819999D01*
X109587380Y-148058094D02*
X108587380Y-148058094D01*
X108587380Y-148058094D02*
X108587380Y-147677142D01*
X108587380Y-147677142D02*
X108635000Y-147581904D01*
X108635000Y-147581904D02*
X108682619Y-147534285D01*
X108682619Y-147534285D02*
X108777857Y-147486666D01*
X108777857Y-147486666D02*
X108920714Y-147486666D01*
X108920714Y-147486666D02*
X109015952Y-147534285D01*
X109015952Y-147534285D02*
X109063571Y-147581904D01*
X109063571Y-147581904D02*
X109111190Y-147677142D01*
X109111190Y-147677142D02*
X109111190Y-148058094D01*
X108587380Y-146581904D02*
X108587380Y-147058094D01*
X108587380Y-147058094D02*
X109063571Y-147105713D01*
X109063571Y-147105713D02*
X109015952Y-147058094D01*
X109015952Y-147058094D02*
X108968333Y-146962856D01*
X108968333Y-146962856D02*
X108968333Y-146724761D01*
X108968333Y-146724761D02*
X109015952Y-146629523D01*
X109015952Y-146629523D02*
X109063571Y-146581904D01*
X109063571Y-146581904D02*
X109158809Y-146534285D01*
X109158809Y-146534285D02*
X109396904Y-146534285D01*
X109396904Y-146534285D02*
X109492142Y-146581904D01*
X109492142Y-146581904D02*
X109539761Y-146629523D01*
X109539761Y-146629523D02*
X109587380Y-146724761D01*
X109587380Y-146724761D02*
X109587380Y-146962856D01*
X109587380Y-146962856D02*
X109539761Y-147058094D01*
X109539761Y-147058094D02*
X109492142Y-147105713D01*
D11*
%TO.C,R8*%
X106680000Y-133580000D02*
X106680000Y-130270000D01*
X105310000Y-130270000D02*
X108050000Y-130270000D01*
X108050000Y-130270000D02*
X108050000Y-123730000D01*
X105310000Y-123730000D02*
X105310000Y-130270000D01*
X108050000Y-123730000D02*
X105310000Y-123730000D01*
X106680000Y-120420000D02*
X106680000Y-123730000D01*
%TO.C,Reed switch 3*%
X114599100Y-103050000D02*
X114599100Y-102310000D01*
X114599100Y-102310000D02*
X114099100Y-102310000D01*
X114359100Y-112471000D02*
X114359100Y-102550000D01*
X114359100Y-112471000D02*
X104079100Y-112471000D01*
X114359100Y-109511000D02*
X104079100Y-109511000D01*
X114359100Y-104610000D02*
X104079100Y-104610000D01*
X114359100Y-103110000D02*
X104079100Y-103110000D01*
X114359100Y-102550000D02*
X104079100Y-102550000D01*
X107906100Y-106187000D02*
X107953100Y-106141000D01*
X107713100Y-105971000D02*
X107748100Y-105936000D01*
X105609100Y-108485000D02*
X105644100Y-108449000D01*
X105404100Y-108279000D02*
X105451100Y-108233000D01*
X104079100Y-112471000D02*
X104079100Y-102550000D01*
X113294099Y-107893999D02*
G75*
G03*
X113294526Y-106526958I-1534992J684000D01*
G01*
X111075101Y-108744999D02*
G75*
G03*
X112442142Y-108745426I684000J1534992D01*
G01*
X112443100Y-105675001D02*
G75*
G03*
X111730295Y-105529748I-683999J-1535000D01*
G01*
X111759100Y-105530001D02*
G75*
G03*
X111075782Y-105675245I0J-1679999D01*
G01*
X110224100Y-106526000D02*
G75*
G03*
X110223674Y-107893042I1535000J-684000D01*
G01*
X108359100Y-107210000D02*
G75*
G03*
X108359100Y-107210000I-1680000J0D01*
G01*
%TO.C,LED 3 (GPIO13)*%
X125701000Y-146585000D02*
X126441000Y-146585000D01*
X126441000Y-146585000D02*
X126441000Y-146085000D01*
X116280000Y-146345000D02*
X126201000Y-146345000D01*
X116280000Y-146345000D02*
X116280000Y-136065000D01*
X119240000Y-146345000D02*
X119240000Y-136065000D01*
X124141000Y-146345000D02*
X124141000Y-136065000D01*
X125641000Y-146345000D02*
X125641000Y-136065000D01*
X126201000Y-146345000D02*
X126201000Y-136065000D01*
X122564000Y-139892000D02*
X122610000Y-139939000D01*
X122780000Y-139699000D02*
X122815000Y-139734000D01*
X120266000Y-137595000D02*
X120302000Y-137630000D01*
X120472000Y-137390000D02*
X120518000Y-137437000D01*
X116280000Y-136065000D02*
X126201000Y-136065000D01*
X120857001Y-145279999D02*
G75*
G03*
X122224042Y-145280426I684000J1534992D01*
G01*
X120006001Y-143061001D02*
G75*
G03*
X120005574Y-144428042I1534992J-684000D01*
G01*
X123075999Y-144429000D02*
G75*
G03*
X123221252Y-143716195I-1535000J683999D01*
G01*
X123220999Y-143745000D02*
G75*
G03*
X123075755Y-143061682I-1679999J0D01*
G01*
X122225000Y-142210000D02*
G75*
G03*
X120857958Y-142209574I-684000J-1535000D01*
G01*
X123221000Y-138665000D02*
G75*
G03*
X123221000Y-138665000I-1680000J0D01*
G01*
%TO.C,LED 2 (GPIO12)*%
X125701000Y-161825000D02*
X126441000Y-161825000D01*
X126441000Y-161825000D02*
X126441000Y-161325000D01*
X116280000Y-161585000D02*
X126201000Y-161585000D01*
X116280000Y-161585000D02*
X116280000Y-151305000D01*
X119240000Y-161585000D02*
X119240000Y-151305000D01*
X124141000Y-161585000D02*
X124141000Y-151305000D01*
X125641000Y-161585000D02*
X125641000Y-151305000D01*
X126201000Y-161585000D02*
X126201000Y-151305000D01*
X122564000Y-155132000D02*
X122610000Y-155179000D01*
X122780000Y-154939000D02*
X122815000Y-154974000D01*
X120266000Y-152835000D02*
X120302000Y-152870000D01*
X120472000Y-152630000D02*
X120518000Y-152677000D01*
X116280000Y-151305000D02*
X126201000Y-151305000D01*
X120857001Y-160519999D02*
G75*
G03*
X122224042Y-160520426I684000J1534992D01*
G01*
X120006001Y-158301001D02*
G75*
G03*
X120005574Y-159668042I1534992J-684000D01*
G01*
X123075999Y-159669000D02*
G75*
G03*
X123221252Y-158956195I-1535000J683999D01*
G01*
X123220999Y-158985000D02*
G75*
G03*
X123075755Y-158301682I-1679999J0D01*
G01*
X122225000Y-157450000D02*
G75*
G03*
X120857958Y-157449574I-684000J-1535000D01*
G01*
X123221000Y-153905000D02*
G75*
G03*
X123221000Y-153905000I-1680000J0D01*
G01*
%TO.C,PIR*%
X66960000Y-131780000D02*
X66220000Y-131780000D01*
X66220000Y-131780000D02*
X66220000Y-132280000D01*
X76381000Y-132020000D02*
X66460000Y-132020000D01*
X76381000Y-132020000D02*
X76381000Y-152460000D01*
X73421000Y-132020000D02*
X73421000Y-152460000D01*
X68520000Y-132020000D02*
X68520000Y-152460000D01*
X67020000Y-132020000D02*
X67020000Y-152460000D01*
X66460000Y-132020000D02*
X66460000Y-152460000D01*
X70097000Y-138473000D02*
X70051000Y-138426000D01*
X69881000Y-138666000D02*
X69846000Y-138631000D01*
X72395000Y-140770000D02*
X72359000Y-140735000D01*
X72189000Y-140975000D02*
X72143000Y-140928000D01*
X70097000Y-143553000D02*
X70051000Y-143506000D01*
X69881000Y-143746000D02*
X69846000Y-143711000D01*
X72395000Y-145850000D02*
X72359000Y-145815000D01*
X72189000Y-146055000D02*
X72143000Y-146008000D01*
X70097000Y-148633000D02*
X70051000Y-148586000D01*
X69881000Y-148826000D02*
X69846000Y-148791000D01*
X72395000Y-150930000D02*
X72359000Y-150895000D01*
X72189000Y-151135000D02*
X72143000Y-151088000D01*
X76381000Y-152460000D02*
X66460000Y-152460000D01*
X71803999Y-133085001D02*
G75*
G03*
X70436958Y-133084574I-684000J-1534992D01*
G01*
X72654999Y-135303999D02*
G75*
G03*
X72655426Y-133936958I-1534992J684000D01*
G01*
X69585001Y-133936000D02*
G75*
G03*
X69439748Y-134648805I1535000J-683999D01*
G01*
X69440001Y-134620000D02*
G75*
G03*
X69585245Y-135303318I1679999J0D01*
G01*
X70436000Y-136155000D02*
G75*
G03*
X71803042Y-136155426I684000J1535000D01*
G01*
X72800000Y-139700000D02*
G75*
G03*
X72800000Y-139700000I-1680000J0D01*
G01*
X72800000Y-144780000D02*
G75*
G03*
X72800000Y-144780000I-1680000J0D01*
G01*
X72800000Y-149860000D02*
G75*
G03*
X72800000Y-149860000I-1680000J0D01*
G01*
%TO.C,R2*%
X96520000Y-140740000D02*
X96520000Y-144050000D01*
X97890000Y-144050000D02*
X95150000Y-144050000D01*
X95150000Y-144050000D02*
X95150000Y-150590000D01*
X97890000Y-150590000D02*
X97890000Y-144050000D01*
X95150000Y-150590000D02*
X97890000Y-150590000D01*
X96520000Y-153900000D02*
X96520000Y-150590000D01*
%TO.C,Q1*%
X82853000Y-148654500D02*
X82853000Y-152254500D01*
X87303000Y-150454500D02*
G75*
G03*
X82864522Y-148616022I-2600000J0D01*
G01*
X82864522Y-152292978D02*
G75*
G03*
X87303000Y-150454500I1838478J1838478D01*
G01*
%TO.C,R4*%
X106680000Y-140740000D02*
X106680000Y-144050000D01*
X108050000Y-144050000D02*
X105310000Y-144050000D01*
X105310000Y-144050000D02*
X105310000Y-150590000D01*
X108050000Y-150590000D02*
X108050000Y-144050000D01*
X105310000Y-150590000D02*
X108050000Y-150590000D01*
X106680000Y-153900000D02*
X106680000Y-150590000D01*
%TO.C,TEMP BME280*%
X66960000Y-157180000D02*
X66220000Y-157180000D01*
X66220000Y-157180000D02*
X66220000Y-157680000D01*
X76381000Y-157420000D02*
X66460000Y-157420000D01*
X76381000Y-157420000D02*
X76381000Y-177860000D01*
X73421000Y-157420000D02*
X73421000Y-177860000D01*
X68520000Y-157420000D02*
X68520000Y-177860000D01*
X67020000Y-157420000D02*
X67020000Y-177860000D01*
X66460000Y-157420000D02*
X66460000Y-177860000D01*
X70097000Y-163873000D02*
X70051000Y-163826000D01*
X69881000Y-164066000D02*
X69846000Y-164031000D01*
X72395000Y-166170000D02*
X72359000Y-166135000D01*
X72189000Y-166375000D02*
X72143000Y-166328000D01*
X70097000Y-168953000D02*
X70051000Y-168906000D01*
X69881000Y-169146000D02*
X69846000Y-169111000D01*
X72395000Y-171250000D02*
X72359000Y-171215000D01*
X72189000Y-171455000D02*
X72143000Y-171408000D01*
X70097000Y-174033000D02*
X70051000Y-173986000D01*
X69881000Y-174226000D02*
X69846000Y-174191000D01*
X72395000Y-176330000D02*
X72359000Y-176295000D01*
X72189000Y-176535000D02*
X72143000Y-176488000D01*
X76381000Y-177860000D02*
X66460000Y-177860000D01*
X71803999Y-158485001D02*
G75*
G03*
X70436958Y-158484574I-684000J-1534992D01*
G01*
X72654999Y-160703999D02*
G75*
G03*
X72655426Y-159336958I-1534992J684000D01*
G01*
X69585001Y-159336000D02*
G75*
G03*
X69439748Y-160048805I1535000J-683999D01*
G01*
X69440001Y-160020000D02*
G75*
G03*
X69585245Y-160703318I1679999J0D01*
G01*
X70436000Y-161555000D02*
G75*
G03*
X71803042Y-161555426I684000J1535000D01*
G01*
X72800000Y-165100000D02*
G75*
G03*
X72800000Y-165100000I-1680000J0D01*
G01*
X72800000Y-170180000D02*
G75*
G03*
X72800000Y-170180000I-1680000J0D01*
G01*
X72800000Y-175260000D02*
G75*
G03*
X72800000Y-175260000I-1680000J0D01*
G01*
%TO.C,R7*%
X101600000Y-133580000D02*
X101600000Y-130270000D01*
X100230000Y-130270000D02*
X102970000Y-130270000D01*
X102970000Y-130270000D02*
X102970000Y-123730000D01*
X100230000Y-123730000D02*
X100230000Y-130270000D01*
X102970000Y-123730000D02*
X100230000Y-123730000D01*
X101600000Y-120420000D02*
X101600000Y-123730000D01*
%TO.C,R1*%
X91440000Y-140740000D02*
X91440000Y-144050000D01*
X92810000Y-144050000D02*
X90070000Y-144050000D01*
X90070000Y-144050000D02*
X90070000Y-150590000D01*
X92810000Y-150590000D02*
X92810000Y-144050000D01*
X90070000Y-150590000D02*
X92810000Y-150590000D01*
X91440000Y-153900000D02*
X91440000Y-150590000D01*
%TO.C,LED 1 (GPIO4)*%
X125701000Y-177065000D02*
X126441000Y-177065000D01*
X126441000Y-177065000D02*
X126441000Y-176565000D01*
X116280000Y-176825000D02*
X126201000Y-176825000D01*
X116280000Y-176825000D02*
X116280000Y-166545000D01*
X119240000Y-176825000D02*
X119240000Y-166545000D01*
X124141000Y-176825000D02*
X124141000Y-166545000D01*
X125641000Y-176825000D02*
X125641000Y-166545000D01*
X126201000Y-176825000D02*
X126201000Y-166545000D01*
X122564000Y-170372000D02*
X122610000Y-170419000D01*
X122780000Y-170179000D02*
X122815000Y-170214000D01*
X120266000Y-168075000D02*
X120302000Y-168110000D01*
X120472000Y-167870000D02*
X120518000Y-167917000D01*
X116280000Y-166545000D02*
X126201000Y-166545000D01*
X120857001Y-175759999D02*
G75*
G03*
X122224042Y-175760426I684000J1534992D01*
G01*
X120006001Y-173541001D02*
G75*
G03*
X120005574Y-174908042I1534992J-684000D01*
G01*
X123075999Y-174909000D02*
G75*
G03*
X123221252Y-174196195I-1535000J683999D01*
G01*
X123220999Y-174225000D02*
G75*
G03*
X123075755Y-173541682I-1679999J0D01*
G01*
X122225000Y-172690000D02*
G75*
G03*
X120857958Y-172689574I-684000J-1535000D01*
G01*
X123221000Y-169145000D02*
G75*
G03*
X123221000Y-169145000I-1680000J0D01*
G01*
%TO.C,Reed switch 1*%
X88573300Y-103051000D02*
X88573300Y-102311000D01*
X88573300Y-102311000D02*
X88073300Y-102311000D01*
X88333300Y-112472000D02*
X88333300Y-102551000D01*
X88333300Y-112472000D02*
X78053300Y-112472000D01*
X88333300Y-109512000D02*
X78053300Y-109512000D01*
X88333300Y-104611000D02*
X78053300Y-104611000D01*
X88333300Y-103111000D02*
X78053300Y-103111000D01*
X88333300Y-102551000D02*
X78053300Y-102551000D01*
X81880300Y-106188000D02*
X81927300Y-106142000D01*
X81687300Y-105972000D02*
X81722300Y-105937000D01*
X79583300Y-108486000D02*
X79618300Y-108450000D01*
X79378300Y-108280000D02*
X79425300Y-108234000D01*
X78053300Y-112472000D02*
X78053300Y-102551000D01*
X87268299Y-107894999D02*
G75*
G03*
X87268726Y-106527958I-1534992J684000D01*
G01*
X85049301Y-108745999D02*
G75*
G03*
X86416342Y-108746426I684000J1534992D01*
G01*
X86417300Y-105676001D02*
G75*
G03*
X85704495Y-105530748I-683999J-1535000D01*
G01*
X85733300Y-105531001D02*
G75*
G03*
X85049982Y-105676245I0J-1679999D01*
G01*
X84198300Y-106527000D02*
G75*
G03*
X84197874Y-107894042I1535000J-684000D01*
G01*
X82333300Y-107211000D02*
G75*
G03*
X82333300Y-107211000I-1680000J0D01*
G01*
%TO.C,LED 4 (GPIO14)*%
X125701000Y-131345000D02*
X126441000Y-131345000D01*
X126441000Y-131345000D02*
X126441000Y-130845000D01*
X116280000Y-131105000D02*
X126201000Y-131105000D01*
X116280000Y-131105000D02*
X116280000Y-120825000D01*
X119240000Y-131105000D02*
X119240000Y-120825000D01*
X124141000Y-131105000D02*
X124141000Y-120825000D01*
X125641000Y-131105000D02*
X125641000Y-120825000D01*
X126201000Y-131105000D02*
X126201000Y-120825000D01*
X122564000Y-124652000D02*
X122610000Y-124699000D01*
X122780000Y-124459000D02*
X122815000Y-124494000D01*
X120266000Y-122355000D02*
X120302000Y-122390000D01*
X120472000Y-122150000D02*
X120518000Y-122197000D01*
X116280000Y-120825000D02*
X126201000Y-120825000D01*
X120857001Y-130039999D02*
G75*
G03*
X122224042Y-130040426I684000J1534992D01*
G01*
X120006001Y-127821001D02*
G75*
G03*
X120005574Y-129188042I1534992J-684000D01*
G01*
X123075999Y-129189000D02*
G75*
G03*
X123221252Y-128476195I-1535000J683999D01*
G01*
X123220999Y-128505000D02*
G75*
G03*
X123075755Y-127821682I-1679999J0D01*
G01*
X122225000Y-126970000D02*
G75*
G03*
X120857958Y-126969574I-684000J-1535000D01*
G01*
X123221000Y-123425000D02*
G75*
G03*
X123221000Y-123425000I-1680000J0D01*
G01*
D12*
%TO.C,U1*%
X82296000Y-158953200D02*
X82296000Y-190860680D01*
X82778600Y-158470600D02*
X88138000Y-158470600D01*
X82778600Y-191343280D02*
X91655900Y-191363600D01*
X88138000Y-158470600D02*
X89687400Y-160121600D01*
X89687400Y-160121600D02*
X105778300Y-160121600D01*
X92570300Y-192278000D02*
X91655900Y-191363600D01*
X92570300Y-192278000D02*
X101625400Y-192278000D01*
X101625400Y-192278000D02*
X102539800Y-191363600D01*
X102539800Y-191363600D02*
X112826800Y-191363600D01*
X105778300Y-160121600D02*
X107454700Y-158470600D01*
X107454700Y-158470600D02*
X112826800Y-158470600D01*
X113309400Y-158953200D02*
X113309400Y-190881000D01*
X82778600Y-158470600D02*
G75*
G03*
X82296000Y-158953200I-1J-482599D01*
G01*
X82296000Y-190860680D02*
G75*
G03*
X82778600Y-191343280I482599J-1D01*
G01*
X113309400Y-158953200D02*
G75*
G03*
X112826800Y-158470600I-482600J0D01*
G01*
X112826800Y-191363600D02*
G75*
G03*
X113309400Y-190881000I0J482600D01*
G01*
D11*
%TO.C,R9*%
X111760000Y-133580000D02*
X111760000Y-130270000D01*
X110390000Y-130270000D02*
X113130000Y-130270000D01*
X113130000Y-130270000D02*
X113130000Y-123730000D01*
X110390000Y-123730000D02*
X110390000Y-130270000D01*
X113130000Y-123730000D02*
X110390000Y-123730000D01*
X111760000Y-120420000D02*
X111760000Y-123730000D01*
%TO.C,12V INPUT*%
X66960000Y-116540000D02*
X66220000Y-116540000D01*
X66220000Y-116540000D02*
X66220000Y-117040000D01*
X76381000Y-116780000D02*
X66460000Y-116780000D01*
X76381000Y-116780000D02*
X76381000Y-127060000D01*
X73421000Y-116780000D02*
X73421000Y-127060000D01*
X68520000Y-116780000D02*
X68520000Y-127060000D01*
X67020000Y-116780000D02*
X67020000Y-127060000D01*
X66460000Y-116780000D02*
X66460000Y-127060000D01*
X70097000Y-123233000D02*
X70051000Y-123186000D01*
X69881000Y-123426000D02*
X69846000Y-123391000D01*
X72395000Y-125530000D02*
X72359000Y-125495000D01*
X72189000Y-125735000D02*
X72143000Y-125688000D01*
X76381000Y-127060000D02*
X66460000Y-127060000D01*
X71803999Y-117845001D02*
G75*
G03*
X70436958Y-117844574I-684000J-1534992D01*
G01*
X72654999Y-120063999D02*
G75*
G03*
X72655426Y-118696958I-1534992J684000D01*
G01*
X69585001Y-118696000D02*
G75*
G03*
X69439748Y-119408805I1535000J-683999D01*
G01*
X69440001Y-119380000D02*
G75*
G03*
X69585245Y-120063318I1679999J0D01*
G01*
X70436000Y-120915000D02*
G75*
G03*
X71803042Y-120915426I684000J1535000D01*
G01*
X72800000Y-124460000D02*
G75*
G03*
X72800000Y-124460000I-1680000J0D01*
G01*
%TO.C,R3*%
X101600000Y-140740000D02*
X101600000Y-144050000D01*
X102970000Y-144050000D02*
X100230000Y-144050000D01*
X100230000Y-144050000D02*
X100230000Y-150590000D01*
X102970000Y-150590000D02*
X102970000Y-144050000D01*
X100230000Y-150590000D02*
X102970000Y-150590000D01*
X101600000Y-153900000D02*
X101600000Y-150590000D01*
%TO.C,Buzzer*%
X92460000Y-126921390D02*
G75*
G03*
X92460000Y-126921390I-6100000J0D01*
G01*
%TO.C,R6*%
X96520000Y-120420000D02*
X96520000Y-123730000D01*
X97890000Y-123730000D02*
X95150000Y-123730000D01*
X95150000Y-123730000D02*
X95150000Y-130270000D01*
X97890000Y-130270000D02*
X97890000Y-123730000D01*
X95150000Y-130270000D02*
X97890000Y-130270000D01*
X96520000Y-133580000D02*
X96520000Y-130270000D01*
%TO.C,Reed switch 2*%
X101899100Y-103050500D02*
X101899100Y-102310500D01*
X101899100Y-102310500D02*
X101399100Y-102310500D01*
X101659100Y-112471500D02*
X101659100Y-102550500D01*
X101659100Y-112471500D02*
X91379100Y-112471500D01*
X101659100Y-109511500D02*
X91379100Y-109511500D01*
X101659100Y-104610500D02*
X91379100Y-104610500D01*
X101659100Y-103110500D02*
X91379100Y-103110500D01*
X101659100Y-102550500D02*
X91379100Y-102550500D01*
X95206100Y-106187500D02*
X95253100Y-106141500D01*
X95013100Y-105971500D02*
X95048100Y-105936500D01*
X92909100Y-108485500D02*
X92944100Y-108449500D01*
X92704100Y-108279500D02*
X92751100Y-108233500D01*
X91379100Y-112471500D02*
X91379100Y-102550500D01*
X100594099Y-107894499D02*
G75*
G03*
X100594526Y-106527458I-1534992J684000D01*
G01*
X98375101Y-108745499D02*
G75*
G03*
X99742142Y-108745926I684000J1534992D01*
G01*
X99743100Y-105675501D02*
G75*
G03*
X99030295Y-105530248I-683999J-1535000D01*
G01*
X99059100Y-105530501D02*
G75*
G03*
X98375782Y-105675745I0J-1679999D01*
G01*
X97524100Y-106526500D02*
G75*
G03*
X97523674Y-107893542I1535000J-684000D01*
G01*
X95659100Y-107210500D02*
G75*
G03*
X95659100Y-107210500I-1680000J0D01*
G01*
%TO.C,R5*%
X111760000Y-153900000D02*
X111760000Y-150590000D01*
X110390000Y-150590000D02*
X113130000Y-150590000D01*
X113130000Y-150590000D02*
X113130000Y-144050000D01*
X110390000Y-144050000D02*
X110390000Y-150590000D01*
X113130000Y-144050000D02*
X110390000Y-144050000D01*
X111760000Y-140740000D02*
X111760000Y-144050000D01*
%TD*%
M02*
