%TF.GenerationSoftware,KiCad,Pcbnew,(7.0.0)*%
%TF.CreationDate,2023-03-15T19:38:10+01:00*%
%TF.ProjectId,QuinLED-ESP32-Breakout,5175696e-4c45-4442-9d45-535033322d42,rev?*%
%TF.SameCoordinates,Original*%
%TF.FileFunction,Copper,L2,Bot*%
%TF.FilePolarity,Positive*%
%FSLAX46Y46*%
G04 Gerber Fmt 4.6, Leading zero omitted, Abs format (unit mm)*
G04 Created by KiCad (PCBNEW (7.0.0)) date 2023-03-15 19:38:10*
%MOMM*%
%LPD*%
G01*
G04 APERTURE LIST*
%TA.AperFunction,ComponentPad*%
%ADD10C,1.600000*%
%TD*%
%TA.AperFunction,ComponentPad*%
%ADD11O,1.600000X1.600000*%
%TD*%
%TA.AperFunction,ComponentPad*%
%ADD12R,2.600000X2.600000*%
%TD*%
%TA.AperFunction,ComponentPad*%
%ADD13C,2.600000*%
%TD*%
%TA.AperFunction,ComponentPad*%
%ADD14R,1.500000X1.050000*%
%TD*%
%TA.AperFunction,ComponentPad*%
%ADD15O,1.500000X1.050000*%
%TD*%
%TA.AperFunction,ComponentPad*%
%ADD16C,1.700000*%
%TD*%
%TA.AperFunction,ComponentPad*%
%ADD17R,2.000000X2.000000*%
%TD*%
%TA.AperFunction,ComponentPad*%
%ADD18C,2.000000*%
%TD*%
%TA.AperFunction,Conductor*%
%ADD19C,0.250000*%
%TD*%
G04 APERTURE END LIST*
D10*
%TO.P,R8,1*%
%TO.N,+3.3V*%
X106680000Y-134620000D03*
D11*
%TO.P,R8,2*%
%TO.N,GPIO15*%
X106679999Y-119379999D03*
%TD*%
D12*
%TO.P,Reed switch 3,1,Pin_1*%
%TO.N,+3.3V*%
X111759099Y-107209999D03*
D13*
%TO.P,Reed switch 3,2,Pin_2*%
%TO.N,GND*%
X106679100Y-107210000D03*
%TD*%
D12*
%TO.P,LED 3 (GPIO13),1,Pin_1*%
%TO.N,Net-(Led3-Pin_1)*%
X121540999Y-143744999D03*
D13*
%TO.P,LED 3 (GPIO13),2,Pin_2*%
%TO.N,GPIO13*%
X121541000Y-138665000D03*
%TD*%
D12*
%TO.P,LED 2 (GPIO12),1,Pin_1*%
%TO.N,Net-(Led2-Pin_1)*%
X121540999Y-158984999D03*
D13*
%TO.P,LED 2 (GPIO12),2,Pin_2*%
%TO.N,GPIO12*%
X121541000Y-153905000D03*
%TD*%
D12*
%TO.P,PIR,1,Pin_1*%
%TO.N,+12V*%
X71119999Y-134619999D03*
D13*
%TO.P,PIR,2,Pin_2*%
%TO.N,GPIO15*%
X71120000Y-139700000D03*
%TO.P,PIR,3,Pin_3*%
%TO.N,Net-(PIR1-Pin_3)*%
X71120000Y-144780000D03*
%TO.P,PIR,4,Pin_4*%
%TO.N,GND*%
X71120000Y-149860000D03*
%TD*%
D10*
%TO.P,R2,1*%
%TO.N,GPIO35*%
X96520000Y-139700000D03*
D11*
%TO.P,R2,2*%
%TO.N,+3.3V*%
X96519999Y-154939999D03*
%TD*%
D14*
%TO.P,Q1,1,C*%
%TO.N,Net-(PIR1-Pin_3)*%
X84702999Y-149184499D03*
D15*
%TO.P,Q1,2,B*%
%TO.N,Net-(Q1-B)*%
X84702999Y-150454499D03*
%TO.P,Q1,3,E*%
%TO.N,GND*%
X84702999Y-151724499D03*
%TD*%
D10*
%TO.P,R4,1*%
%TO.N,Net-(Led1-Pin_1)*%
X106680000Y-139700000D03*
D11*
%TO.P,R4,2*%
%TO.N,GND*%
X106679999Y-154939999D03*
%TD*%
D12*
%TO.P,TEMP BME280,1,Pin_1*%
%TO.N,GPIO32*%
X71119999Y-160019999D03*
D13*
%TO.P,TEMP BME280,2,Pin_2*%
%TO.N,GPIO33*%
X71120000Y-165100000D03*
%TO.P,TEMP BME280,3,Pin_3*%
%TO.N,GND*%
X71120000Y-170180000D03*
%TO.P,TEMP BME280,4,Pin_4*%
%TO.N,+3.3V*%
X71120000Y-175260000D03*
%TD*%
D10*
%TO.P,R7,1*%
%TO.N,Net-(Led4-Pin_1)*%
X101600000Y-134620000D03*
D11*
%TO.P,R7,2*%
%TO.N,GND*%
X101599999Y-119379999D03*
%TD*%
D10*
%TO.P,R1,1*%
%TO.N,GPIO34*%
X91440000Y-139700000D03*
D11*
%TO.P,R1,2*%
%TO.N,+3.3V*%
X91439999Y-154939999D03*
%TD*%
D12*
%TO.P,LED 1 (GPIO4),1,Pin_1*%
%TO.N,Net-(Led1-Pin_1)*%
X121540999Y-174224999D03*
D13*
%TO.P,LED 1 (GPIO4),2,Pin_2*%
%TO.N,GPIO4*%
X121541000Y-169145000D03*
%TD*%
D12*
%TO.P,Reed switch 1,1,Pin_1*%
%TO.N,+3.3V*%
X85733299Y-107210999D03*
D13*
%TO.P,Reed switch 1,2,Pin_2*%
%TO.N,GND*%
X80653300Y-107211000D03*
%TD*%
D12*
%TO.P,LED 4 (GPIO14),1,Pin_1*%
%TO.N,Net-(Led4-Pin_1)*%
X121540999Y-128504999D03*
D13*
%TO.P,LED 4 (GPIO14),2,Pin_2*%
%TO.N,GPIO14*%
X121541000Y-123425000D03*
%TD*%
D16*
%TO.P,U1,1,GND*%
%TO.N,GND*%
X83820000Y-160020000D03*
%TO.P,U1,2,GND\u002A*%
%TO.N,unconnected-(U1-GND\u002A-Pad2)*%
X83820000Y-162560000D03*
%TO.P,U1,3,S_VN*%
%TO.N,unconnected-(U1-S_VN-Pad3)*%
X83820000Y-165100000D03*
%TO.P,U1,4,IO35*%
%TO.N,GPIO35*%
X83820000Y-167640000D03*
%TO.P,U1,5,IO33*%
%TO.N,GPIO33*%
X83820000Y-170180000D03*
%TO.P,U1,6,IO34*%
%TO.N,GPIO34*%
X83820000Y-172720000D03*
%TO.P,U1,7,IO14*%
%TO.N,GPIO14*%
X83820000Y-175260000D03*
%TO.P,U1,8,3v3\u002A*%
%TO.N,+3.3V*%
X83820000Y-177800000D03*
%TO.P,U1,9,5vF\u002A*%
%TO.N,unconnected-(U1-5vF\u002A-Pad9)*%
X83820000Y-180340000D03*
%TO.P,U1,10,EN*%
%TO.N,unconnected-(U1-EN-Pad10)*%
X86360000Y-160020000D03*
%TO.P,U1,11,S_VP*%
%TO.N,GPIO36*%
X86360000Y-162560000D03*
%TO.P,U1,12,IO26*%
%TO.N,unconnected-(U1-IO26-Pad12)*%
X86360000Y-165100000D03*
%TO.P,U1,13,IO18*%
%TO.N,unconnected-(U1-IO18-Pad13)*%
X86360000Y-167640000D03*
%TO.P,U1,14,IO19*%
%TO.N,unconnected-(U1-IO19-Pad14)*%
X86360000Y-170180000D03*
%TO.P,U1,15,IO23*%
%TO.N,unconnected-(U1-IO23-Pad15)*%
X86360000Y-172720000D03*
%TO.P,U1,16,IO5*%
%TO.N,unconnected-(U1-IO5-Pad16)*%
X86360000Y-175260000D03*
%TO.P,U1,17,3v3*%
%TO.N,unconnected-(U1-3v3-Pad17)*%
X86360000Y-177800000D03*
%TO.P,U1,18,IO13*%
%TO.N,GPIO13*%
X86360000Y-180340000D03*
%TO.P,U1,19,TXD*%
%TO.N,unconnected-(U1-TXD-Pad19)*%
X109220000Y-160020000D03*
%TO.P,U1,20,RXD*%
%TO.N,unconnected-(U1-RXD-Pad20)*%
X109220000Y-162560000D03*
%TO.P,U1,21,IO22*%
%TO.N,unconnected-(U1-IO22-Pad21)*%
X109220000Y-165100000D03*
%TO.P,U1,22,IO21*%
%TO.N,unconnected-(U1-IO21-Pad22)*%
X109220000Y-167640000D03*
%TO.P,U1,23,IO17*%
%TO.N,unconnected-(U1-IO17-Pad23)*%
X109220000Y-170180000D03*
%TO.P,U1,24,IO16*%
%TO.N,GPIO16*%
X109220000Y-172720000D03*
%TO.P,U1,25,GND*%
%TO.N,unconnected-(U1-GND-Pad25)*%
X109220000Y-175260000D03*
%TO.P,U1,26,5v0*%
%TO.N,unconnected-(U1-5v0-Pad26)*%
X109220000Y-177800000D03*
%TO.P,U1,27,IO15*%
%TO.N,GPIO15*%
X109220000Y-180340000D03*
%TO.P,U1,28,GND*%
%TO.N,unconnected-(U1-GND-Pad28)*%
X111760000Y-160020000D03*
%TO.P,U1,29,IO27*%
%TO.N,unconnected-(U1-IO27-Pad29)*%
X111760000Y-162560000D03*
%TO.P,U1,30,IO25*%
%TO.N,unconnected-(U1-IO25-Pad30)*%
X111760000Y-165100000D03*
%TO.P,U1,31,IO32*%
%TO.N,GPIO32*%
X111760000Y-167640000D03*
%TO.P,U1,32,IO12*%
%TO.N,GPIO12*%
X111760000Y-170180000D03*
%TO.P,U1,33,IO_4*%
%TO.N,GPIO4*%
X111760000Y-172720000D03*
%TO.P,U1,34,IO_0*%
%TO.N,unconnected-(U1-IO_0-Pad34)*%
X111760000Y-175260000D03*
%TO.P,U1,35,IO_2*%
%TO.N,GPIO2*%
X111760000Y-177800000D03*
%TO.P,U1,36,NC*%
%TO.N,unconnected-(U1-NC-Pad36)*%
X111760000Y-180340000D03*
%TD*%
D10*
%TO.P,R9,1*%
%TO.N,GPIO16*%
X111760000Y-134620000D03*
D11*
%TO.P,R9,2*%
%TO.N,Net-(Q1-B)*%
X111759999Y-119379999D03*
%TD*%
D12*
%TO.P,12V INPUT,1,Pin_1*%
%TO.N,+12V*%
X71119999Y-119379999D03*
D13*
%TO.P,12V INPUT,2,Pin_2*%
%TO.N,GND*%
X71120000Y-124460000D03*
%TD*%
D10*
%TO.P,R3,1*%
%TO.N,GPIO36*%
X101600000Y-139700000D03*
D11*
%TO.P,R3,2*%
%TO.N,+3.3V*%
X101599999Y-154939999D03*
%TD*%
D17*
%TO.P,Buzzer,1,-*%
%TO.N,GPIO2*%
X83059999Y-126921389D03*
D18*
%TO.P,Buzzer,2,+*%
%TO.N,GND*%
X89660000Y-126921390D03*
%TD*%
D10*
%TO.P,R6,1*%
%TO.N,Net-(Led3-Pin_1)*%
X96520000Y-119380000D03*
D11*
%TO.P,R6,2*%
%TO.N,GND*%
X96519999Y-134619999D03*
%TD*%
D12*
%TO.P,Reed switch 2,1,Pin_1*%
%TO.N,+3.3V*%
X99059099Y-107210499D03*
D13*
%TO.P,Reed switch 2,2,Pin_2*%
%TO.N,GND*%
X93979100Y-107210500D03*
%TD*%
D10*
%TO.P,R5,1*%
%TO.N,Net-(Led2-Pin_1)*%
X111760000Y-154940000D03*
D11*
%TO.P,R5,2*%
%TO.N,GND*%
X111759999Y-139699999D03*
%TD*%
D19*
%TO.N,GPIO4*%
X115335000Y-169145000D02*
X121541000Y-169145000D01*
X111760000Y-172720000D02*
X115335000Y-169145000D01*
%TO.N,GPIO12*%
X111760000Y-170180000D02*
X118086400Y-163853600D01*
X118086400Y-163853600D02*
X118086400Y-157359600D01*
X118086400Y-157359600D02*
X121541000Y-153905000D01*
%TO.N,GPIO13*%
X109220100Y-150985900D02*
X121541000Y-138665000D01*
X109220100Y-157479900D02*
X109220100Y-150985900D01*
X86360000Y-180340000D02*
X109220100Y-157479900D01*
%TO.N,Net-(Led4-Pin_1)*%
X107715000Y-128505000D02*
X101600000Y-134620000D01*
X121541000Y-128505000D02*
X107715000Y-128505000D01*
%TO.N,GPIO14*%
X86798900Y-173990000D02*
X102725400Y-158063500D01*
X102725400Y-158063500D02*
X102725400Y-152503700D01*
X123166400Y-132062700D02*
X123166400Y-125050400D01*
X102725400Y-152503700D02*
X123166400Y-132062700D01*
X85090000Y-173990000D02*
X86798900Y-173990000D01*
X123166400Y-125050400D02*
X121541000Y-123425000D01*
X83820000Y-175260000D02*
X85090000Y-173990000D01*
%TO.N,GPIO15*%
X106680000Y-119380000D02*
X105554700Y-119380000D01*
X71120000Y-139700000D02*
X85234700Y-139700000D01*
X85234700Y-139700000D02*
X105554700Y-119380000D01*
%TO.N,Net-(PIR1-Pin_3)*%
X84703000Y-149184500D02*
X75524500Y-149184500D01*
X75524500Y-149184500D02*
X71120000Y-144780000D01*
%TO.N,Net-(Q1-B)*%
X85778300Y-143708200D02*
X110106500Y-119380000D01*
X84703000Y-150454500D02*
X85778300Y-150454500D01*
X110106500Y-119380000D02*
X111760000Y-119380000D01*
X85778300Y-150454500D02*
X85778300Y-143708200D01*
%TO.N,GPIO34*%
X82626000Y-156652700D02*
X82626000Y-171526000D01*
X91440000Y-139700000D02*
X91440000Y-147838700D01*
X82626000Y-171526000D02*
X83820000Y-172720000D01*
X91440000Y-147838700D02*
X82626000Y-156652700D01*
%TO.N,+3.3V*%
X85733300Y-107211000D02*
X87358600Y-107211000D01*
X101600000Y-154940000D02*
X96520000Y-154940000D01*
X83820000Y-177800000D02*
X73660000Y-177800000D01*
X87358600Y-107211000D02*
X88984400Y-105585200D01*
X99059100Y-107210500D02*
X97433800Y-107210500D01*
X95808500Y-105585200D02*
X97433800Y-107210500D01*
X88984400Y-105585200D02*
X95808500Y-105585200D01*
X73660000Y-177800000D02*
X71120000Y-175260000D01*
%TO.N,GPIO35*%
X84995400Y-155893100D02*
X96520000Y-144368500D01*
X83820000Y-167640000D02*
X84995400Y-166464600D01*
X84995400Y-166464600D02*
X84995400Y-155893100D01*
X96520000Y-144368500D02*
X96520000Y-139700000D01*
%TO.N,GPIO36*%
X101600000Y-147320000D02*
X101600000Y-139700000D01*
X86360000Y-162560000D02*
X101600000Y-147320000D01*
%TO.N,GPIO32*%
X72745300Y-163270600D02*
X71120000Y-161645300D01*
X83347300Y-176530000D02*
X72745300Y-165928000D01*
X84251000Y-176530000D02*
X83347300Y-176530000D01*
X87488100Y-181537900D02*
X85872700Y-181537900D01*
X84995400Y-180660600D02*
X84995400Y-177274400D01*
X71120000Y-160020000D02*
X71120000Y-161645300D01*
X111760000Y-167640000D02*
X110490000Y-168910000D01*
X100116000Y-168910000D02*
X87488100Y-181537900D01*
X84995400Y-177274400D02*
X84251000Y-176530000D01*
X72745300Y-165928000D02*
X72745300Y-163270600D01*
X85872700Y-181537900D02*
X84995400Y-180660600D01*
X110490000Y-168910000D02*
X100116000Y-168910000D01*
%TD*%
%TA.AperFunction,Conductor*%
%TO.N,GND*%
G36*
X126773203Y-101732034D02*
G01*
X126818590Y-101777421D01*
X126835203Y-101839421D01*
X126835203Y-185295500D01*
X126818590Y-185357500D01*
X126773203Y-185402887D01*
X126711203Y-185419500D01*
X66164500Y-185419500D01*
X66102500Y-185402887D01*
X66057113Y-185357500D01*
X66040500Y-185295500D01*
X66040500Y-181535176D01*
X69614357Y-181535176D01*
X69614781Y-181540293D01*
X69634467Y-181777877D01*
X69634468Y-181777885D01*
X69634892Y-181782997D01*
X69636149Y-181787964D01*
X69636151Y-181787971D01*
X69691876Y-182008020D01*
X69695937Y-182024057D01*
X69702949Y-182040042D01*
X69793766Y-182247086D01*
X69793769Y-182247092D01*
X69795827Y-182251783D01*
X69798627Y-182256069D01*
X69798631Y-182256076D01*
X69920989Y-182443359D01*
X69931836Y-182459961D01*
X69935310Y-182463735D01*
X69935311Y-182463736D01*
X70096784Y-182639143D01*
X70096787Y-182639146D01*
X70100256Y-182642914D01*
X70296491Y-182795650D01*
X70515190Y-182914004D01*
X70750386Y-182994747D01*
X70995665Y-183035676D01*
X71239201Y-183035676D01*
X71244335Y-183035676D01*
X71489614Y-182994747D01*
X71724810Y-182914004D01*
X71943509Y-182795650D01*
X72139744Y-182642914D01*
X72308164Y-182459961D01*
X72444173Y-182251783D01*
X72544063Y-182024057D01*
X72605108Y-181782997D01*
X72625643Y-181535176D01*
X72605108Y-181287355D01*
X72544063Y-181046295D01*
X72444173Y-180818569D01*
X72439902Y-180812032D01*
X72372740Y-180709233D01*
X72308164Y-180610391D01*
X72270997Y-180570017D01*
X72143215Y-180431208D01*
X72143211Y-180431205D01*
X72139744Y-180427438D01*
X71943509Y-180274702D01*
X71938997Y-180272260D01*
X71729316Y-180158786D01*
X71729310Y-180158783D01*
X71724810Y-180156348D01*
X71719969Y-180154686D01*
X71719962Y-180154683D01*
X71494465Y-180077270D01*
X71494461Y-180077269D01*
X71489614Y-180075605D01*
X71480768Y-180074128D01*
X71249398Y-180035520D01*
X71249387Y-180035519D01*
X71244335Y-180034676D01*
X70995665Y-180034676D01*
X70990613Y-180035519D01*
X70990601Y-180035520D01*
X70755443Y-180074761D01*
X70755441Y-180074761D01*
X70750386Y-180075605D01*
X70745541Y-180077268D01*
X70745534Y-180077270D01*
X70520037Y-180154683D01*
X70520026Y-180154687D01*
X70515190Y-180156348D01*
X70510693Y-180158781D01*
X70510683Y-180158786D01*
X70301002Y-180272260D01*
X70300995Y-180272264D01*
X70296491Y-180274702D01*
X70292448Y-180277848D01*
X70292440Y-180277854D01*
X70110931Y-180419129D01*
X70100256Y-180427438D01*
X70096793Y-180431199D01*
X70096784Y-180431208D01*
X69935311Y-180606615D01*
X69935305Y-180606622D01*
X69931836Y-180610391D01*
X69929031Y-180614682D01*
X69929028Y-180614688D01*
X69798631Y-180814275D01*
X69798624Y-180814287D01*
X69795827Y-180818569D01*
X69793772Y-180823253D01*
X69793766Y-180823265D01*
X69697997Y-181041598D01*
X69695937Y-181046295D01*
X69694679Y-181051260D01*
X69694678Y-181051265D01*
X69636151Y-181282380D01*
X69636149Y-181282389D01*
X69634892Y-181287355D01*
X69634468Y-181292464D01*
X69634467Y-181292474D01*
X69627080Y-181381628D01*
X69614357Y-181535176D01*
X66040500Y-181535176D01*
X66040500Y-175260000D01*
X69314451Y-175260000D01*
X69314798Y-175264631D01*
X69332483Y-175500634D01*
X69334617Y-175529103D01*
X69335647Y-175533616D01*
X69335648Y-175533622D01*
X69388991Y-175767331D01*
X69394666Y-175792195D01*
X69396361Y-175796514D01*
X69396363Y-175796519D01*
X69463977Y-175968796D01*
X69493257Y-176043398D01*
X69628185Y-176277102D01*
X69796439Y-176488085D01*
X69799843Y-176491243D01*
X69951084Y-176631575D01*
X69994259Y-176671635D01*
X70217226Y-176823651D01*
X70460359Y-176940738D01*
X70464787Y-176942103D01*
X70464790Y-176942105D01*
X70518201Y-176958580D01*
X70718228Y-177020280D01*
X70985071Y-177060500D01*
X71250292Y-177060500D01*
X71254929Y-177060500D01*
X71521772Y-177020280D01*
X71779641Y-176940738D01*
X71792505Y-176934542D01*
X71841667Y-176922348D01*
X71891609Y-176930832D01*
X71933989Y-176958579D01*
X72770014Y-177794605D01*
X73162707Y-178187298D01*
X73170159Y-178195487D01*
X73174214Y-178201877D01*
X73223223Y-178247900D01*
X73226020Y-178250611D01*
X73245529Y-178270120D01*
X73248709Y-178272587D01*
X73257571Y-178280155D01*
X73271020Y-178292785D01*
X73283732Y-178304723D01*
X73283734Y-178304724D01*
X73289418Y-178310062D01*
X73296251Y-178313818D01*
X73296252Y-178313819D01*
X73306973Y-178319713D01*
X73323234Y-178330394D01*
X73339064Y-178342673D01*
X73379155Y-178360021D01*
X73389635Y-178365155D01*
X73427908Y-178386197D01*
X73447316Y-178391180D01*
X73465719Y-178397481D01*
X73476944Y-178402339D01*
X73476946Y-178402339D01*
X73484104Y-178405437D01*
X73527258Y-178412271D01*
X73538644Y-178414629D01*
X73580981Y-178425500D01*
X73601017Y-178425500D01*
X73620415Y-178427027D01*
X73632486Y-178428939D01*
X73632487Y-178428939D01*
X73640196Y-178430160D01*
X73678276Y-178426560D01*
X73683676Y-178426050D01*
X73695345Y-178425500D01*
X82544772Y-178425500D01*
X82602029Y-178439511D01*
X82646347Y-178478376D01*
X82778399Y-178666966D01*
X82778402Y-178666970D01*
X82781505Y-178671401D01*
X82948599Y-178838495D01*
X82953032Y-178841599D01*
X82953038Y-178841604D01*
X83134158Y-178968425D01*
X83173024Y-179012743D01*
X83187035Y-179070000D01*
X83173024Y-179127257D01*
X83134159Y-179171575D01*
X82953041Y-179298395D01*
X82948599Y-179301505D01*
X82944775Y-179305328D01*
X82944769Y-179305334D01*
X82785334Y-179464769D01*
X82785328Y-179464775D01*
X82781505Y-179468599D01*
X82778402Y-179473029D01*
X82778399Y-179473034D01*
X82649073Y-179657731D01*
X82649068Y-179657738D01*
X82645965Y-179662171D01*
X82643677Y-179667077D01*
X82643675Y-179667081D01*
X82548386Y-179871427D01*
X82548383Y-179871432D01*
X82546097Y-179876337D01*
X82544698Y-179881557D01*
X82544694Y-179881569D01*
X82486337Y-180099365D01*
X82486336Y-180099369D01*
X82484937Y-180104592D01*
X82484465Y-180109977D01*
X82484465Y-180109982D01*
X82470054Y-180274702D01*
X82464341Y-180340000D01*
X82464813Y-180345395D01*
X82472562Y-180433971D01*
X82484937Y-180575408D01*
X82486336Y-180580630D01*
X82486337Y-180580634D01*
X82544694Y-180798430D01*
X82544697Y-180798438D01*
X82546097Y-180803663D01*
X82548385Y-180808570D01*
X82548386Y-180808572D01*
X82643678Y-181012927D01*
X82643681Y-181012933D01*
X82645965Y-181017830D01*
X82649064Y-181022257D01*
X82649066Y-181022259D01*
X82778399Y-181206966D01*
X82778402Y-181206970D01*
X82781505Y-181211401D01*
X82948599Y-181378495D01*
X82953031Y-181381598D01*
X82953033Y-181381600D01*
X83097260Y-181482589D01*
X83142170Y-181514035D01*
X83356337Y-181613903D01*
X83584592Y-181675063D01*
X83820000Y-181695659D01*
X84055408Y-181675063D01*
X84283663Y-181613903D01*
X84497830Y-181514035D01*
X84686927Y-181381627D01*
X84740078Y-181360511D01*
X84797053Y-181365496D01*
X84845731Y-181395521D01*
X85375407Y-181925197D01*
X85382856Y-181933383D01*
X85386914Y-181939777D01*
X85392599Y-181945115D01*
X85392601Y-181945118D01*
X85435939Y-181985815D01*
X85438736Y-181988526D01*
X85458230Y-182008020D01*
X85461315Y-182010413D01*
X85461401Y-182010480D01*
X85470273Y-182018058D01*
X85483580Y-182030554D01*
X85502118Y-182047962D01*
X85508948Y-182051717D01*
X85508951Y-182051719D01*
X85519671Y-182057612D01*
X85535922Y-182068286D01*
X85551764Y-182080574D01*
X85558921Y-182083671D01*
X85558923Y-182083672D01*
X85591855Y-182097922D01*
X85602350Y-182103064D01*
X85640608Y-182124097D01*
X85660012Y-182129079D01*
X85678414Y-182135380D01*
X85689641Y-182140238D01*
X85696805Y-182143338D01*
X85734397Y-182149291D01*
X85739939Y-182150169D01*
X85751382Y-182152539D01*
X85786125Y-182161460D01*
X85786126Y-182161460D01*
X85793681Y-182163400D01*
X85813717Y-182163400D01*
X85833102Y-182164925D01*
X85852896Y-182168060D01*
X85890976Y-182164460D01*
X85896376Y-182163950D01*
X85908045Y-182163400D01*
X87410325Y-182163400D01*
X87421380Y-182163921D01*
X87428767Y-182165573D01*
X87495972Y-182163461D01*
X87499868Y-182163400D01*
X87523548Y-182163400D01*
X87527450Y-182163400D01*
X87531413Y-182162899D01*
X87543063Y-182161980D01*
X87586727Y-182160609D01*
X87605961Y-182155019D01*
X87625017Y-182151074D01*
X87644892Y-182148564D01*
X87685495Y-182132487D01*
X87696550Y-182128702D01*
X87738490Y-182116518D01*
X87755729Y-182106322D01*
X87773203Y-182097762D01*
X87784574Y-182093260D01*
X87784576Y-182093258D01*
X87791832Y-182090386D01*
X87827169Y-182064711D01*
X87836924Y-182058303D01*
X87874520Y-182036070D01*
X87888684Y-182021905D01*
X87903479Y-182009268D01*
X87919687Y-181997494D01*
X87947528Y-181963838D01*
X87955379Y-181955209D01*
X100338771Y-169571819D01*
X100379000Y-169544939D01*
X100426453Y-169535500D01*
X107835782Y-169535500D01*
X107895426Y-169550787D01*
X107940365Y-169592878D01*
X107959517Y-169651396D01*
X107949271Y-169705991D01*
X107950237Y-169706343D01*
X107948384Y-169711430D01*
X107946097Y-169716337D01*
X107944698Y-169721557D01*
X107944694Y-169721569D01*
X107886337Y-169939365D01*
X107886336Y-169939369D01*
X107884937Y-169944592D01*
X107884465Y-169949977D01*
X107884465Y-169949982D01*
X107865907Y-170162102D01*
X107864341Y-170180000D01*
X107864813Y-170185395D01*
X107880916Y-170369457D01*
X107884937Y-170415408D01*
X107886336Y-170420630D01*
X107886337Y-170420634D01*
X107944694Y-170638430D01*
X107944697Y-170638438D01*
X107946097Y-170643663D01*
X107948385Y-170648570D01*
X107948386Y-170648572D01*
X108043678Y-170852927D01*
X108043681Y-170852933D01*
X108045965Y-170857830D01*
X108049064Y-170862257D01*
X108049066Y-170862259D01*
X108178399Y-171046966D01*
X108178402Y-171046970D01*
X108181505Y-171051401D01*
X108348599Y-171218495D01*
X108353032Y-171221599D01*
X108353038Y-171221604D01*
X108534158Y-171348425D01*
X108573024Y-171392743D01*
X108587035Y-171450000D01*
X108573024Y-171507257D01*
X108534159Y-171551575D01*
X108427285Y-171626409D01*
X108348599Y-171681505D01*
X108344775Y-171685328D01*
X108344769Y-171685334D01*
X108185334Y-171844769D01*
X108185328Y-171844775D01*
X108181505Y-171848599D01*
X108178402Y-171853029D01*
X108178399Y-171853034D01*
X108049073Y-172037731D01*
X108049068Y-172037738D01*
X108045965Y-172042171D01*
X108043677Y-172047077D01*
X108043675Y-172047081D01*
X107948386Y-172251427D01*
X107948383Y-172251432D01*
X107946097Y-172256337D01*
X107944698Y-172261557D01*
X107944694Y-172261569D01*
X107886337Y-172479365D01*
X107886336Y-172479369D01*
X107884937Y-172484592D01*
X107884465Y-172489977D01*
X107884465Y-172489982D01*
X107868228Y-172675568D01*
X107864341Y-172720000D01*
X107864813Y-172725395D01*
X107877798Y-172873819D01*
X107884937Y-172955408D01*
X107886336Y-172960630D01*
X107886337Y-172960634D01*
X107944694Y-173178430D01*
X107944697Y-173178438D01*
X107946097Y-173183663D01*
X107948385Y-173188570D01*
X107948386Y-173188572D01*
X108043678Y-173392927D01*
X108043681Y-173392933D01*
X108045965Y-173397830D01*
X108049064Y-173402257D01*
X108049066Y-173402259D01*
X108178399Y-173586966D01*
X108178402Y-173586970D01*
X108181505Y-173591401D01*
X108348599Y-173758495D01*
X108353032Y-173761599D01*
X108353038Y-173761604D01*
X108534158Y-173888425D01*
X108573024Y-173932743D01*
X108587035Y-173990000D01*
X108573024Y-174047257D01*
X108534159Y-174091575D01*
X108353041Y-174218395D01*
X108348599Y-174221505D01*
X108344775Y-174225328D01*
X108344769Y-174225334D01*
X108185334Y-174384769D01*
X108185328Y-174384775D01*
X108181505Y-174388599D01*
X108178402Y-174393029D01*
X108178399Y-174393034D01*
X108049073Y-174577731D01*
X108049070Y-174577737D01*
X108045965Y-174582171D01*
X108043677Y-174587077D01*
X108043675Y-174587081D01*
X107948386Y-174791427D01*
X107948383Y-174791432D01*
X107946097Y-174796337D01*
X107944698Y-174801557D01*
X107944694Y-174801569D01*
X107886337Y-175019365D01*
X107886335Y-175019371D01*
X107884937Y-175024592D01*
X107864341Y-175260000D01*
X107884937Y-175495408D01*
X107886336Y-175500630D01*
X107886337Y-175500634D01*
X107944694Y-175718430D01*
X107944697Y-175718438D01*
X107946097Y-175723663D01*
X107948385Y-175728570D01*
X107948386Y-175728572D01*
X108043678Y-175932927D01*
X108043681Y-175932933D01*
X108045965Y-175937830D01*
X108049064Y-175942257D01*
X108049066Y-175942259D01*
X108178399Y-176126966D01*
X108178402Y-176126970D01*
X108181505Y-176131401D01*
X108348599Y-176298495D01*
X108353032Y-176301599D01*
X108353038Y-176301604D01*
X108534158Y-176428425D01*
X108573024Y-176472743D01*
X108587035Y-176530000D01*
X108573024Y-176587257D01*
X108534159Y-176631575D01*
X108353041Y-176758395D01*
X108348599Y-176761505D01*
X108344775Y-176765328D01*
X108344769Y-176765334D01*
X108185334Y-176924769D01*
X108185328Y-176924775D01*
X108181505Y-176928599D01*
X108178402Y-176933029D01*
X108178399Y-176933034D01*
X108049073Y-177117731D01*
X108049068Y-177117738D01*
X108045965Y-177122171D01*
X108043677Y-177127077D01*
X108043675Y-177127081D01*
X107948386Y-177331427D01*
X107948383Y-177331432D01*
X107946097Y-177336337D01*
X107944698Y-177341557D01*
X107944694Y-177341569D01*
X107886337Y-177559365D01*
X107886335Y-177559371D01*
X107884937Y-177564592D01*
X107864341Y-177800000D01*
X107884937Y-178035408D01*
X107886336Y-178040630D01*
X107886337Y-178040634D01*
X107944694Y-178258430D01*
X107944697Y-178258438D01*
X107946097Y-178263663D01*
X107948385Y-178268570D01*
X107948386Y-178268572D01*
X108043678Y-178472927D01*
X108043681Y-178472933D01*
X108045965Y-178477830D01*
X108049064Y-178482257D01*
X108049066Y-178482259D01*
X108178399Y-178666966D01*
X108178402Y-178666970D01*
X108181505Y-178671401D01*
X108348599Y-178838495D01*
X108353032Y-178841599D01*
X108353038Y-178841604D01*
X108534158Y-178968425D01*
X108573024Y-179012743D01*
X108587035Y-179070000D01*
X108573024Y-179127257D01*
X108534159Y-179171575D01*
X108353041Y-179298395D01*
X108348599Y-179301505D01*
X108344775Y-179305328D01*
X108344769Y-179305334D01*
X108185334Y-179464769D01*
X108185328Y-179464775D01*
X108181505Y-179468599D01*
X108178402Y-179473029D01*
X108178399Y-179473034D01*
X108049073Y-179657731D01*
X108049068Y-179657738D01*
X108045965Y-179662171D01*
X108043677Y-179667077D01*
X108043675Y-179667081D01*
X107948386Y-179871427D01*
X107948383Y-179871432D01*
X107946097Y-179876337D01*
X107944698Y-179881557D01*
X107944694Y-179881569D01*
X107886337Y-180099365D01*
X107886336Y-180099369D01*
X107884937Y-180104592D01*
X107884465Y-180109977D01*
X107884465Y-180109982D01*
X107870054Y-180274702D01*
X107864341Y-180340000D01*
X107864813Y-180345395D01*
X107872562Y-180433971D01*
X107884937Y-180575408D01*
X107886336Y-180580630D01*
X107886337Y-180580634D01*
X107944694Y-180798430D01*
X107944697Y-180798438D01*
X107946097Y-180803663D01*
X107948385Y-180808570D01*
X107948386Y-180808572D01*
X108043678Y-181012927D01*
X108043681Y-181012933D01*
X108045965Y-181017830D01*
X108049064Y-181022257D01*
X108049066Y-181022259D01*
X108178399Y-181206966D01*
X108178402Y-181206970D01*
X108181505Y-181211401D01*
X108348599Y-181378495D01*
X108353031Y-181381598D01*
X108353033Y-181381600D01*
X108497260Y-181482589D01*
X108542170Y-181514035D01*
X108756337Y-181613903D01*
X108984592Y-181675063D01*
X109220000Y-181695659D01*
X109455408Y-181675063D01*
X109683663Y-181613903D01*
X109897830Y-181514035D01*
X110091401Y-181378495D01*
X110258495Y-181211401D01*
X110341877Y-181092320D01*
X110388425Y-181025842D01*
X110432743Y-180986976D01*
X110490000Y-180972965D01*
X110547257Y-180986976D01*
X110591575Y-181025842D01*
X110718395Y-181206961D01*
X110718401Y-181206968D01*
X110721505Y-181211401D01*
X110888599Y-181378495D01*
X110893031Y-181381598D01*
X110893033Y-181381600D01*
X111037260Y-181482589D01*
X111082170Y-181514035D01*
X111296337Y-181613903D01*
X111524592Y-181675063D01*
X111760000Y-181695659D01*
X111995408Y-181675063D01*
X112223663Y-181613903D01*
X112437830Y-181514035D01*
X112631401Y-181378495D01*
X112669755Y-181340141D01*
X120414357Y-181340141D01*
X120414781Y-181345258D01*
X120434467Y-181582842D01*
X120434468Y-181582850D01*
X120434892Y-181587962D01*
X120436149Y-181592929D01*
X120436151Y-181592936D01*
X120482985Y-181777877D01*
X120495937Y-181829022D01*
X120497997Y-181833718D01*
X120593766Y-182052051D01*
X120593769Y-182052057D01*
X120595827Y-182056748D01*
X120598627Y-182061034D01*
X120598631Y-182061041D01*
X120720181Y-182247086D01*
X120731836Y-182264926D01*
X120735310Y-182268700D01*
X120735311Y-182268701D01*
X120896784Y-182444108D01*
X120896787Y-182444111D01*
X120900256Y-182447879D01*
X121096491Y-182600615D01*
X121315190Y-182718969D01*
X121550386Y-182799712D01*
X121795665Y-182840641D01*
X122039201Y-182840641D01*
X122044335Y-182840641D01*
X122289614Y-182799712D01*
X122524810Y-182718969D01*
X122743509Y-182600615D01*
X122939744Y-182447879D01*
X123108164Y-182264926D01*
X123244173Y-182056748D01*
X123344063Y-181829022D01*
X123405108Y-181587962D01*
X123425643Y-181340141D01*
X123405108Y-181092320D01*
X123344063Y-180851260D01*
X123244173Y-180623534D01*
X123238051Y-180614164D01*
X123172740Y-180514198D01*
X123108164Y-180415356D01*
X123104688Y-180411580D01*
X122943215Y-180236173D01*
X122943211Y-180236170D01*
X122939744Y-180232403D01*
X122743509Y-180079667D01*
X122738997Y-180077225D01*
X122529316Y-179963751D01*
X122529310Y-179963748D01*
X122524810Y-179961313D01*
X122519969Y-179959651D01*
X122519962Y-179959648D01*
X122294465Y-179882235D01*
X122294461Y-179882234D01*
X122289614Y-179880570D01*
X122264247Y-179876337D01*
X122049398Y-179840485D01*
X122049387Y-179840484D01*
X122044335Y-179839641D01*
X121795665Y-179839641D01*
X121790613Y-179840484D01*
X121790601Y-179840485D01*
X121555443Y-179879726D01*
X121555441Y-179879726D01*
X121550386Y-179880570D01*
X121545541Y-179882233D01*
X121545534Y-179882235D01*
X121320037Y-179959648D01*
X121320026Y-179959652D01*
X121315190Y-179961313D01*
X121310693Y-179963746D01*
X121310683Y-179963751D01*
X121101002Y-180077225D01*
X121100995Y-180077229D01*
X121096491Y-180079667D01*
X121092448Y-180082813D01*
X121092440Y-180082819D01*
X120904304Y-180229252D01*
X120900256Y-180232403D01*
X120896793Y-180236164D01*
X120896784Y-180236173D01*
X120735311Y-180411580D01*
X120735305Y-180411587D01*
X120731836Y-180415356D01*
X120729031Y-180419647D01*
X120729028Y-180419653D01*
X120598631Y-180619240D01*
X120598624Y-180619252D01*
X120595827Y-180623534D01*
X120593772Y-180628218D01*
X120593766Y-180628230D01*
X120497997Y-180846563D01*
X120495937Y-180851260D01*
X120494679Y-180856225D01*
X120494678Y-180856230D01*
X120436151Y-181087345D01*
X120436149Y-181087354D01*
X120434892Y-181092320D01*
X120434468Y-181097429D01*
X120434467Y-181097439D01*
X120414781Y-181335024D01*
X120414357Y-181340141D01*
X112669755Y-181340141D01*
X112798495Y-181211401D01*
X112934035Y-181017830D01*
X113033903Y-180803663D01*
X113095063Y-180575408D01*
X113115659Y-180340000D01*
X113095063Y-180104592D01*
X113033903Y-179876337D01*
X112934035Y-179662171D01*
X112798495Y-179468599D01*
X112631401Y-179301505D01*
X112626968Y-179298401D01*
X112626961Y-179298395D01*
X112445842Y-179171575D01*
X112406976Y-179127257D01*
X112392965Y-179070000D01*
X112406976Y-179012743D01*
X112445842Y-178968425D01*
X112626961Y-178841604D01*
X112626961Y-178841603D01*
X112631401Y-178838495D01*
X112798495Y-178671401D01*
X112934035Y-178477830D01*
X113033903Y-178263663D01*
X113095063Y-178035408D01*
X113115659Y-177800000D01*
X113095063Y-177564592D01*
X113033903Y-177336337D01*
X112934035Y-177122171D01*
X112798495Y-176928599D01*
X112631401Y-176761505D01*
X112626968Y-176758401D01*
X112626961Y-176758395D01*
X112445842Y-176631575D01*
X112406976Y-176587257D01*
X112392965Y-176530000D01*
X112406976Y-176472743D01*
X112445842Y-176428425D01*
X112626961Y-176301604D01*
X112626961Y-176301603D01*
X112631401Y-176298495D01*
X112798495Y-176131401D01*
X112934035Y-175937830D01*
X113033903Y-175723663D01*
X113075189Y-175569578D01*
X119740500Y-175569578D01*
X119740501Y-175572872D01*
X119740853Y-175576150D01*
X119740854Y-175576161D01*
X119746079Y-175624768D01*
X119746080Y-175624773D01*
X119746909Y-175632483D01*
X119749619Y-175639749D01*
X119749620Y-175639753D01*
X119778965Y-175718430D01*
X119797204Y-175767331D01*
X119883454Y-175882546D01*
X119998669Y-175968796D01*
X120133517Y-176019091D01*
X120193127Y-176025500D01*
X122888872Y-176025499D01*
X122948483Y-176019091D01*
X123083331Y-175968796D01*
X123198546Y-175882546D01*
X123284796Y-175767331D01*
X123335091Y-175632483D01*
X123341500Y-175572873D01*
X123341499Y-172877128D01*
X123335091Y-172817517D01*
X123284796Y-172682669D01*
X123198546Y-172567454D01*
X123083331Y-172481204D01*
X122948483Y-172430909D01*
X122940770Y-172430079D01*
X122940767Y-172430079D01*
X122892180Y-172424855D01*
X122892169Y-172424854D01*
X122888873Y-172424500D01*
X122885550Y-172424500D01*
X120196439Y-172424500D01*
X120196420Y-172424500D01*
X120193128Y-172424501D01*
X120189850Y-172424853D01*
X120189838Y-172424854D01*
X120141231Y-172430079D01*
X120141225Y-172430080D01*
X120133517Y-172430909D01*
X120126252Y-172433618D01*
X120126246Y-172433620D01*
X120006980Y-172478104D01*
X120006978Y-172478104D01*
X119998669Y-172481204D01*
X119991572Y-172486516D01*
X119991568Y-172486519D01*
X119890550Y-172562141D01*
X119890546Y-172562144D01*
X119883454Y-172567454D01*
X119878144Y-172574546D01*
X119878141Y-172574550D01*
X119802519Y-172675568D01*
X119802516Y-172675572D01*
X119797204Y-172682669D01*
X119794104Y-172690978D01*
X119794104Y-172690980D01*
X119749620Y-172810247D01*
X119749619Y-172810250D01*
X119746909Y-172817517D01*
X119746079Y-172825227D01*
X119746079Y-172825232D01*
X119740855Y-172873819D01*
X119740854Y-172873831D01*
X119740500Y-172877127D01*
X119740500Y-172880448D01*
X119740500Y-172880449D01*
X119740500Y-175569560D01*
X119740500Y-175569578D01*
X113075189Y-175569578D01*
X113095063Y-175495408D01*
X113115659Y-175260000D01*
X113095063Y-175024592D01*
X113033903Y-174796337D01*
X112934035Y-174582171D01*
X112798495Y-174388599D01*
X112631401Y-174221505D01*
X112626968Y-174218401D01*
X112626961Y-174218395D01*
X112445842Y-174091575D01*
X112406976Y-174047257D01*
X112392965Y-173990000D01*
X112406976Y-173932743D01*
X112445842Y-173888425D01*
X112626961Y-173761604D01*
X112626961Y-173761603D01*
X112631401Y-173758495D01*
X112798495Y-173591401D01*
X112934035Y-173397830D01*
X113033903Y-173183663D01*
X113095063Y-172955408D01*
X113115659Y-172720000D01*
X113095063Y-172484592D01*
X113068143Y-172384126D01*
X113068143Y-172319939D01*
X113100235Y-172264353D01*
X115557771Y-169806819D01*
X115598000Y-169779939D01*
X115645453Y-169770500D01*
X119767745Y-169770500D01*
X119815911Y-169780237D01*
X119856513Y-169807919D01*
X119883173Y-169849198D01*
X119912559Y-169924073D01*
X119912561Y-169924077D01*
X119914257Y-169928398D01*
X120049185Y-170162102D01*
X120217439Y-170373085D01*
X120268685Y-170420634D01*
X120395639Y-170538431D01*
X120415259Y-170556635D01*
X120638226Y-170708651D01*
X120881359Y-170825738D01*
X120885787Y-170827103D01*
X120885790Y-170827105D01*
X120985399Y-170857830D01*
X121139228Y-170905280D01*
X121406071Y-170945500D01*
X121671292Y-170945500D01*
X121675929Y-170945500D01*
X121942772Y-170905280D01*
X122200641Y-170825738D01*
X122443775Y-170708651D01*
X122666741Y-170556635D01*
X122864561Y-170373085D01*
X123032815Y-170162102D01*
X123167743Y-169928398D01*
X123266334Y-169677195D01*
X123326383Y-169414103D01*
X123346549Y-169145000D01*
X123326383Y-168875897D01*
X123266334Y-168612805D01*
X123167743Y-168361602D01*
X123032815Y-168127898D01*
X122864561Y-167916915D01*
X122694143Y-167758790D01*
X122670146Y-167736524D01*
X122670143Y-167736521D01*
X122666741Y-167733365D01*
X122662912Y-167730754D01*
X122662909Y-167730752D01*
X122447610Y-167583964D01*
X122443775Y-167581349D01*
X122439589Y-167579333D01*
X122204820Y-167466274D01*
X122204814Y-167466271D01*
X122200641Y-167464262D01*
X122196219Y-167462898D01*
X122196209Y-167462894D01*
X121947202Y-167386086D01*
X121947196Y-167386084D01*
X121942772Y-167384720D01*
X121938195Y-167384030D01*
X121938186Y-167384028D01*
X121680514Y-167345191D01*
X121680513Y-167345190D01*
X121675929Y-167344500D01*
X121406071Y-167344500D01*
X121401487Y-167345190D01*
X121401485Y-167345191D01*
X121143813Y-167384028D01*
X121143801Y-167384030D01*
X121139228Y-167384720D01*
X121134806Y-167386083D01*
X121134797Y-167386086D01*
X120885790Y-167462894D01*
X120885775Y-167462899D01*
X120881359Y-167464262D01*
X120877185Y-167466271D01*
X120877180Y-167466274D01*
X120642411Y-167579333D01*
X120642404Y-167579336D01*
X120638226Y-167581349D01*
X120634393Y-167583962D01*
X120634390Y-167583964D01*
X120419090Y-167730752D01*
X120419080Y-167730759D01*
X120415259Y-167733365D01*
X120411863Y-167736516D01*
X120411853Y-167736524D01*
X120220843Y-167913756D01*
X120220839Y-167913759D01*
X120217439Y-167916915D01*
X120214549Y-167920537D01*
X120214546Y-167920542D01*
X120052077Y-168124271D01*
X120049185Y-168127898D01*
X120046866Y-168131913D01*
X120046865Y-168131916D01*
X119916578Y-168357581D01*
X119916575Y-168357586D01*
X119914257Y-168361602D01*
X119912564Y-168365915D01*
X119912559Y-168365926D01*
X119883173Y-168440802D01*
X119856513Y-168482081D01*
X119815911Y-168509763D01*
X119767745Y-168519500D01*
X115412771Y-168519500D01*
X115401718Y-168518979D01*
X115394332Y-168517328D01*
X115386534Y-168517573D01*
X115327144Y-168519439D01*
X115323250Y-168519500D01*
X115295650Y-168519500D01*
X115291799Y-168519986D01*
X115291768Y-168519988D01*
X115291640Y-168520005D01*
X115280029Y-168520918D01*
X115244171Y-168522045D01*
X115244164Y-168522046D01*
X115236372Y-168522291D01*
X115228888Y-168524465D01*
X115228877Y-168524467D01*
X115217128Y-168527881D01*
X115198083Y-168531825D01*
X115185947Y-168533358D01*
X115185944Y-168533358D01*
X115178208Y-168534336D01*
X115170960Y-168537205D01*
X115170950Y-168537208D01*
X115137592Y-168550415D01*
X115126550Y-168554196D01*
X115092097Y-168564207D01*
X115092092Y-168564208D01*
X115084610Y-168566383D01*
X115077902Y-168570349D01*
X115077897Y-168570352D01*
X115067364Y-168576581D01*
X115049900Y-168585136D01*
X115038524Y-168589640D01*
X115038517Y-168589643D01*
X115031268Y-168592514D01*
X115024962Y-168597094D01*
X115024957Y-168597098D01*
X114995927Y-168618189D01*
X114986169Y-168624598D01*
X114955298Y-168642856D01*
X114948579Y-168646830D01*
X114943063Y-168652344D01*
X114943056Y-168652351D01*
X114934407Y-168661000D01*
X114919624Y-168673626D01*
X114909727Y-168680817D01*
X114909720Y-168680823D01*
X114903413Y-168685406D01*
X114898446Y-168691408D01*
X114898435Y-168691420D01*
X114875570Y-168719059D01*
X114867710Y-168727697D01*
X113326868Y-170268540D01*
X113277505Y-170298790D01*
X113219789Y-170303332D01*
X113166302Y-170281177D01*
X113128702Y-170237154D01*
X113115477Y-170182070D01*
X113115659Y-170180000D01*
X113095063Y-169944592D01*
X113068143Y-169844126D01*
X113068143Y-169779939D01*
X113100235Y-169724353D01*
X118473706Y-164350882D01*
X118481882Y-164343443D01*
X118488277Y-164339386D01*
X118534333Y-164290340D01*
X118536950Y-164287638D01*
X118556520Y-164268070D01*
X118558965Y-164264916D01*
X118566555Y-164256028D01*
X118596462Y-164224182D01*
X118606109Y-164206632D01*
X118616793Y-164190366D01*
X118629074Y-164174536D01*
X118646418Y-164134451D01*
X118651560Y-164123956D01*
X118672597Y-164085692D01*
X118677579Y-164066289D01*
X118683880Y-164047883D01*
X118691838Y-164029495D01*
X118698669Y-163986356D01*
X118701039Y-163974915D01*
X118709960Y-163940174D01*
X118709959Y-163940174D01*
X118711900Y-163932619D01*
X118711900Y-163912583D01*
X118713425Y-163893197D01*
X118716560Y-163873404D01*
X118712450Y-163829924D01*
X118711900Y-163818255D01*
X118711900Y-160329578D01*
X119740500Y-160329578D01*
X119740501Y-160332872D01*
X119740853Y-160336150D01*
X119740854Y-160336161D01*
X119746079Y-160384768D01*
X119746080Y-160384773D01*
X119746909Y-160392483D01*
X119749619Y-160399749D01*
X119749620Y-160399753D01*
X119778965Y-160478430D01*
X119797204Y-160527331D01*
X119883454Y-160642546D01*
X119998669Y-160728796D01*
X120133517Y-160779091D01*
X120193127Y-160785500D01*
X122888872Y-160785499D01*
X122948483Y-160779091D01*
X123083331Y-160728796D01*
X123198546Y-160642546D01*
X123284796Y-160527331D01*
X123335091Y-160392483D01*
X123341500Y-160332873D01*
X123341499Y-157637128D01*
X123335091Y-157577517D01*
X123284796Y-157442669D01*
X123198546Y-157327454D01*
X123188607Y-157320014D01*
X123090431Y-157246519D01*
X123090430Y-157246518D01*
X123083331Y-157241204D01*
X122948483Y-157190909D01*
X122940770Y-157190079D01*
X122940767Y-157190079D01*
X122892180Y-157184855D01*
X122892169Y-157184854D01*
X122888873Y-157184500D01*
X122885550Y-157184500D01*
X120196439Y-157184500D01*
X120196420Y-157184500D01*
X120193128Y-157184501D01*
X120189850Y-157184853D01*
X120189838Y-157184854D01*
X120141231Y-157190079D01*
X120141225Y-157190080D01*
X120133517Y-157190909D01*
X120126252Y-157193618D01*
X120126246Y-157193620D01*
X120006980Y-157238104D01*
X120006978Y-157238104D01*
X119998669Y-157241204D01*
X119991572Y-157246516D01*
X119991568Y-157246519D01*
X119890550Y-157322141D01*
X119890546Y-157322144D01*
X119883454Y-157327454D01*
X119878144Y-157334546D01*
X119878141Y-157334550D01*
X119802519Y-157435568D01*
X119802516Y-157435572D01*
X119797204Y-157442669D01*
X119794104Y-157450978D01*
X119794104Y-157450980D01*
X119749620Y-157570247D01*
X119749619Y-157570250D01*
X119746909Y-157577517D01*
X119746079Y-157585227D01*
X119746079Y-157585232D01*
X119740855Y-157633819D01*
X119740854Y-157633831D01*
X119740500Y-157637127D01*
X119740500Y-157640448D01*
X119740500Y-157640449D01*
X119740500Y-160329560D01*
X119740500Y-160329578D01*
X118711900Y-160329578D01*
X118711900Y-157670052D01*
X118721339Y-157622599D01*
X118748219Y-157582371D01*
X119736873Y-156593717D01*
X120727011Y-155603578D01*
X120769389Y-155575832D01*
X120819330Y-155567348D01*
X120868494Y-155579542D01*
X120881359Y-155585738D01*
X120885787Y-155587103D01*
X120885790Y-155587105D01*
X120888118Y-155587823D01*
X121139228Y-155665280D01*
X121406071Y-155705500D01*
X121671292Y-155705500D01*
X121675929Y-155705500D01*
X121942772Y-155665280D01*
X122200641Y-155585738D01*
X122443775Y-155468651D01*
X122666741Y-155316635D01*
X122864561Y-155133085D01*
X123032815Y-154922102D01*
X123167743Y-154688398D01*
X123266334Y-154437195D01*
X123326383Y-154174103D01*
X123346549Y-153905000D01*
X123326383Y-153635897D01*
X123266334Y-153372805D01*
X123167743Y-153121602D01*
X123032815Y-152887898D01*
X122864561Y-152676915D01*
X122756895Y-152577016D01*
X122670146Y-152496524D01*
X122670143Y-152496521D01*
X122666741Y-152493365D01*
X122662912Y-152490754D01*
X122662909Y-152490752D01*
X122497614Y-152378056D01*
X122443775Y-152341349D01*
X122431640Y-152335505D01*
X122204820Y-152226274D01*
X122204814Y-152226271D01*
X122200641Y-152224262D01*
X122196219Y-152222898D01*
X122196209Y-152222894D01*
X121947202Y-152146086D01*
X121947196Y-152146084D01*
X121942772Y-152144720D01*
X121938195Y-152144030D01*
X121938186Y-152144028D01*
X121680514Y-152105191D01*
X121680513Y-152105190D01*
X121675929Y-152104500D01*
X121406071Y-152104500D01*
X121401487Y-152105190D01*
X121401485Y-152105191D01*
X121143813Y-152144028D01*
X121143801Y-152144030D01*
X121139228Y-152144720D01*
X121134806Y-152146083D01*
X121134797Y-152146086D01*
X120885790Y-152222894D01*
X120885775Y-152222899D01*
X120881359Y-152224262D01*
X120877185Y-152226271D01*
X120877180Y-152226274D01*
X120642411Y-152339333D01*
X120642404Y-152339336D01*
X120638226Y-152341349D01*
X120634393Y-152343962D01*
X120634390Y-152343964D01*
X120419090Y-152490752D01*
X120419080Y-152490759D01*
X120415259Y-152493365D01*
X120411863Y-152496516D01*
X120411853Y-152496524D01*
X120220843Y-152673756D01*
X120220839Y-152673759D01*
X120217439Y-152676915D01*
X120214549Y-152680537D01*
X120214546Y-152680542D01*
X120052077Y-152884271D01*
X120049185Y-152887898D01*
X120046866Y-152891913D01*
X120046865Y-152891916D01*
X119916578Y-153117581D01*
X119916575Y-153117586D01*
X119914257Y-153121602D01*
X119912563Y-153125916D01*
X119912561Y-153125922D01*
X119817363Y-153368480D01*
X119815666Y-153372805D01*
X119814633Y-153377326D01*
X119814632Y-153377333D01*
X119756648Y-153631377D01*
X119756646Y-153631385D01*
X119755617Y-153635897D01*
X119755270Y-153640516D01*
X119755270Y-153640522D01*
X119742380Y-153812540D01*
X119735451Y-153905000D01*
X119735798Y-153909631D01*
X119750460Y-154105296D01*
X119755617Y-154174103D01*
X119756647Y-154178616D01*
X119756648Y-154178622D01*
X119814632Y-154432666D01*
X119815666Y-154437195D01*
X119817360Y-154441511D01*
X119817364Y-154441524D01*
X119872969Y-154583202D01*
X119881531Y-154630050D01*
X119871804Y-154676670D01*
X119845222Y-154716185D01*
X117699096Y-156862311D01*
X117690911Y-156869759D01*
X117684523Y-156873814D01*
X117679188Y-156879494D01*
X117679183Y-156879499D01*
X117638496Y-156922825D01*
X117635792Y-156925616D01*
X117619028Y-156942380D01*
X117619021Y-156942387D01*
X117616280Y-156945129D01*
X117613900Y-156948196D01*
X117613889Y-156948209D01*
X117613800Y-156948325D01*
X117606242Y-156957170D01*
X117581680Y-156983327D01*
X117581673Y-156983336D01*
X117576338Y-156989018D01*
X117572582Y-156995849D01*
X117572579Y-156995854D01*
X117566685Y-157006575D01*
X117556009Y-157022827D01*
X117548509Y-157032496D01*
X117548501Y-157032507D01*
X117543727Y-157038664D01*
X117540634Y-157045808D01*
X117540629Y-157045819D01*
X117526374Y-157078760D01*
X117521238Y-157089243D01*
X117500203Y-157127508D01*
X117498264Y-157135056D01*
X117498263Y-157135061D01*
X117495222Y-157146907D01*
X117488921Y-157165311D01*
X117484058Y-157176548D01*
X117484056Y-157176552D01*
X117480962Y-157183704D01*
X117479742Y-157191403D01*
X117479742Y-157191405D01*
X117474129Y-157226841D01*
X117471761Y-157238276D01*
X117462838Y-157273028D01*
X117462836Y-157273036D01*
X117460900Y-157280581D01*
X117460900Y-157288377D01*
X117460900Y-157300617D01*
X117459374Y-157320002D01*
X117456240Y-157339796D01*
X117456974Y-157347561D01*
X117456974Y-157347564D01*
X117460350Y-157383276D01*
X117460900Y-157394945D01*
X117460900Y-163543148D01*
X117451461Y-163590601D01*
X117424581Y-163630829D01*
X113326868Y-167728540D01*
X113277505Y-167758790D01*
X113219789Y-167763332D01*
X113166302Y-167741177D01*
X113128702Y-167697154D01*
X113115477Y-167642070D01*
X113115659Y-167640000D01*
X113095063Y-167404592D01*
X113033903Y-167176337D01*
X112934035Y-166962171D01*
X112798495Y-166768599D01*
X112631401Y-166601505D01*
X112626968Y-166598401D01*
X112626961Y-166598395D01*
X112445842Y-166471575D01*
X112406976Y-166427257D01*
X112392965Y-166370000D01*
X112406976Y-166312743D01*
X112445842Y-166268425D01*
X112626961Y-166141604D01*
X112626961Y-166141603D01*
X112631401Y-166138495D01*
X112798495Y-165971401D01*
X112934035Y-165777830D01*
X113033903Y-165563663D01*
X113095063Y-165335408D01*
X113115659Y-165100000D01*
X113095063Y-164864592D01*
X113033903Y-164636337D01*
X112934035Y-164422171D01*
X112798495Y-164228599D01*
X112631401Y-164061505D01*
X112626970Y-164058402D01*
X112626966Y-164058399D01*
X112445841Y-163931574D01*
X112406976Y-163887256D01*
X112392965Y-163829999D01*
X112406976Y-163772742D01*
X112445839Y-163728426D01*
X112631401Y-163598495D01*
X112798495Y-163431401D01*
X112934035Y-163237830D01*
X113033903Y-163023663D01*
X113095063Y-162795408D01*
X113115659Y-162560000D01*
X113095063Y-162324592D01*
X113033903Y-162096337D01*
X112934035Y-161882171D01*
X112798495Y-161688599D01*
X112631401Y-161521505D01*
X112626968Y-161518401D01*
X112626961Y-161518395D01*
X112445842Y-161391575D01*
X112406976Y-161347257D01*
X112392965Y-161290000D01*
X112406976Y-161232743D01*
X112445842Y-161188425D01*
X112626961Y-161061604D01*
X112626961Y-161061603D01*
X112631401Y-161058495D01*
X112798495Y-160891401D01*
X112934035Y-160697830D01*
X113033903Y-160483663D01*
X113095063Y-160255408D01*
X113115659Y-160020000D01*
X113095063Y-159784592D01*
X113033903Y-159556337D01*
X112934035Y-159342171D01*
X112798495Y-159148599D01*
X112631401Y-158981505D01*
X112626970Y-158978402D01*
X112626966Y-158978399D01*
X112442259Y-158849066D01*
X112442257Y-158849064D01*
X112437830Y-158845965D01*
X112432933Y-158843681D01*
X112432927Y-158843678D01*
X112228572Y-158748386D01*
X112228570Y-158748385D01*
X112223663Y-158746097D01*
X112218438Y-158744697D01*
X112218430Y-158744694D01*
X112000634Y-158686337D01*
X112000630Y-158686336D01*
X111995408Y-158684937D01*
X111990020Y-158684465D01*
X111990017Y-158684465D01*
X111765395Y-158664813D01*
X111760000Y-158664341D01*
X111754605Y-158664813D01*
X111529982Y-158684465D01*
X111529977Y-158684465D01*
X111524592Y-158684937D01*
X111519371Y-158686335D01*
X111519365Y-158686337D01*
X111301569Y-158744694D01*
X111301557Y-158744698D01*
X111296337Y-158746097D01*
X111291432Y-158748383D01*
X111291427Y-158748386D01*
X111087081Y-158843675D01*
X111087077Y-158843677D01*
X111082171Y-158845965D01*
X111077738Y-158849068D01*
X111077731Y-158849073D01*
X110893034Y-158978399D01*
X110893029Y-158978402D01*
X110888599Y-158981505D01*
X110884775Y-158985328D01*
X110884769Y-158985334D01*
X110725334Y-159144769D01*
X110725328Y-159144775D01*
X110721505Y-159148599D01*
X110718402Y-159153029D01*
X110718399Y-159153034D01*
X110591575Y-159334159D01*
X110547257Y-159373025D01*
X110490000Y-159387036D01*
X110432743Y-159373025D01*
X110388425Y-159334159D01*
X110261600Y-159153034D01*
X110258495Y-159148599D01*
X110091401Y-158981505D01*
X110086970Y-158978402D01*
X110086966Y-158978399D01*
X109902259Y-158849066D01*
X109902257Y-158849064D01*
X109897830Y-158845965D01*
X109892933Y-158843681D01*
X109892927Y-158843678D01*
X109688572Y-158748386D01*
X109688570Y-158748385D01*
X109683663Y-158746097D01*
X109678438Y-158744697D01*
X109678430Y-158744694D01*
X109460634Y-158686337D01*
X109460630Y-158686336D01*
X109455408Y-158684937D01*
X109450020Y-158684465D01*
X109450017Y-158684465D01*
X109225395Y-158664813D01*
X109220000Y-158664341D01*
X109217928Y-158664522D01*
X109162844Y-158651298D01*
X109118821Y-158613698D01*
X109096666Y-158560211D01*
X109101208Y-158502495D01*
X109131458Y-158453132D01*
X109365090Y-158219500D01*
X109607411Y-157977178D01*
X109615581Y-157969744D01*
X109621977Y-157965686D01*
X109668018Y-157916656D01*
X109670635Y-157913954D01*
X109690220Y-157894371D01*
X109692685Y-157891192D01*
X109700267Y-157882316D01*
X109730162Y-157850482D01*
X109739813Y-157832923D01*
X109750490Y-157816670D01*
X109762773Y-157800836D01*
X109780118Y-157760752D01*
X109785251Y-157750271D01*
X109806297Y-157711992D01*
X109811279Y-157692584D01*
X109817582Y-157674176D01*
X109825537Y-157655796D01*
X109832371Y-157612644D01*
X109834733Y-157601238D01*
X109845600Y-157558919D01*
X109845600Y-157538883D01*
X109847127Y-157519485D01*
X109849039Y-157507413D01*
X109849038Y-157507413D01*
X109850260Y-157499704D01*
X109846150Y-157456224D01*
X109845600Y-157444555D01*
X109845600Y-154940000D01*
X110454532Y-154940000D01*
X110455004Y-154945392D01*
X110455004Y-154945395D01*
X110471424Y-155133085D01*
X110474365Y-155166692D01*
X110475762Y-155171907D01*
X110475764Y-155171916D01*
X110531858Y-155381263D01*
X110531861Y-155381271D01*
X110533261Y-155386496D01*
X110629432Y-155592734D01*
X110759953Y-155779139D01*
X110920861Y-155940047D01*
X111107266Y-156070568D01*
X111313504Y-156166739D01*
X111318734Y-156168140D01*
X111318736Y-156168141D01*
X111502332Y-156217335D01*
X111533308Y-156225635D01*
X111760000Y-156245468D01*
X111986692Y-156225635D01*
X112206496Y-156166739D01*
X112412734Y-156070568D01*
X112599139Y-155940047D01*
X112760047Y-155779139D01*
X112890568Y-155592734D01*
X112986739Y-155386496D01*
X113045635Y-155166692D01*
X113065468Y-154940000D01*
X113045635Y-154713308D01*
X112986739Y-154493504D01*
X112890568Y-154287266D01*
X112760047Y-154100861D01*
X112599139Y-153939953D01*
X112412734Y-153809432D01*
X112206496Y-153713261D01*
X112201271Y-153711861D01*
X112201263Y-153711858D01*
X111991916Y-153655764D01*
X111991907Y-153655762D01*
X111986692Y-153654365D01*
X111981304Y-153653893D01*
X111981301Y-153653893D01*
X111765395Y-153635004D01*
X111760000Y-153634532D01*
X111754605Y-153635004D01*
X111538698Y-153653893D01*
X111538693Y-153653893D01*
X111533308Y-153654365D01*
X111528094Y-153655762D01*
X111528083Y-153655764D01*
X111318736Y-153711858D01*
X111318724Y-153711862D01*
X111313504Y-153713261D01*
X111308599Y-153715547D01*
X111308594Y-153715550D01*
X111112176Y-153807142D01*
X111112172Y-153807144D01*
X111107266Y-153809432D01*
X111102833Y-153812535D01*
X111102826Y-153812540D01*
X110925296Y-153936847D01*
X110925291Y-153936850D01*
X110920861Y-153939953D01*
X110917037Y-153943776D01*
X110917031Y-153943782D01*
X110763782Y-154097031D01*
X110763776Y-154097037D01*
X110759953Y-154100861D01*
X110756850Y-154105291D01*
X110756847Y-154105296D01*
X110632540Y-154282826D01*
X110632535Y-154282833D01*
X110629432Y-154287266D01*
X110627144Y-154292172D01*
X110627142Y-154292176D01*
X110535550Y-154488594D01*
X110535547Y-154488599D01*
X110533261Y-154493504D01*
X110531862Y-154498724D01*
X110531858Y-154498736D01*
X110475764Y-154708083D01*
X110475762Y-154708094D01*
X110474365Y-154713308D01*
X110473893Y-154718693D01*
X110473893Y-154718698D01*
X110467767Y-154788721D01*
X110454532Y-154940000D01*
X109845600Y-154940000D01*
X109845600Y-151296352D01*
X109855039Y-151248899D01*
X109881919Y-151208671D01*
X115297507Y-145793083D01*
X116001012Y-145089578D01*
X119740500Y-145089578D01*
X119740501Y-145092872D01*
X119740853Y-145096150D01*
X119740854Y-145096161D01*
X119746079Y-145144768D01*
X119746080Y-145144773D01*
X119746909Y-145152483D01*
X119749619Y-145159749D01*
X119749620Y-145159753D01*
X119783217Y-145249831D01*
X119797204Y-145287331D01*
X119883454Y-145402546D01*
X119998669Y-145488796D01*
X120133517Y-145539091D01*
X120193127Y-145545500D01*
X122888872Y-145545499D01*
X122948483Y-145539091D01*
X123083331Y-145488796D01*
X123198546Y-145402546D01*
X123284796Y-145287331D01*
X123335091Y-145152483D01*
X123341500Y-145092873D01*
X123341499Y-142397128D01*
X123335091Y-142337517D01*
X123284796Y-142202669D01*
X123198546Y-142087454D01*
X123083331Y-142001204D01*
X122948483Y-141950909D01*
X122940770Y-141950079D01*
X122940767Y-141950079D01*
X122892180Y-141944855D01*
X122892169Y-141944854D01*
X122888873Y-141944500D01*
X122885550Y-141944500D01*
X120196439Y-141944500D01*
X120196420Y-141944500D01*
X120193128Y-141944501D01*
X120189850Y-141944853D01*
X120189838Y-141944854D01*
X120141231Y-141950079D01*
X120141225Y-141950080D01*
X120133517Y-141950909D01*
X120126252Y-141953618D01*
X120126246Y-141953620D01*
X120006980Y-141998104D01*
X120006978Y-141998104D01*
X119998669Y-142001204D01*
X119991572Y-142006516D01*
X119991568Y-142006519D01*
X119890550Y-142082141D01*
X119890546Y-142082144D01*
X119883454Y-142087454D01*
X119878144Y-142094546D01*
X119878141Y-142094550D01*
X119802519Y-142195568D01*
X119802516Y-142195572D01*
X119797204Y-142202669D01*
X119794104Y-142210978D01*
X119794104Y-142210980D01*
X119749620Y-142330247D01*
X119749619Y-142330250D01*
X119746909Y-142337517D01*
X119746079Y-142345227D01*
X119746079Y-142345232D01*
X119740855Y-142393819D01*
X119740854Y-142393831D01*
X119740500Y-142397127D01*
X119740500Y-142400448D01*
X119740500Y-142400449D01*
X119740500Y-145089560D01*
X119740500Y-145089578D01*
X116001012Y-145089578D01*
X120727011Y-140363578D01*
X120769389Y-140335832D01*
X120819330Y-140327348D01*
X120868494Y-140339542D01*
X120881359Y-140345738D01*
X120885787Y-140347103D01*
X120885790Y-140347105D01*
X120888118Y-140347823D01*
X121139228Y-140425280D01*
X121406071Y-140465500D01*
X121671292Y-140465500D01*
X121675929Y-140465500D01*
X121942772Y-140425280D01*
X122200641Y-140345738D01*
X122443775Y-140228651D01*
X122666741Y-140076635D01*
X122864561Y-139893085D01*
X123032815Y-139682102D01*
X123167743Y-139448398D01*
X123266334Y-139197195D01*
X123326383Y-138934103D01*
X123346549Y-138665000D01*
X123326383Y-138395897D01*
X123266334Y-138132805D01*
X123167743Y-137881602D01*
X123032815Y-137647898D01*
X122864561Y-137436915D01*
X122666741Y-137253365D01*
X122662912Y-137250754D01*
X122662909Y-137250752D01*
X122447610Y-137103964D01*
X122443775Y-137101349D01*
X122439589Y-137099333D01*
X122204820Y-136986274D01*
X122204814Y-136986271D01*
X122200641Y-136984262D01*
X122196219Y-136982898D01*
X122196209Y-136982894D01*
X121947202Y-136906086D01*
X121947196Y-136906084D01*
X121942772Y-136904720D01*
X121938195Y-136904030D01*
X121938186Y-136904028D01*
X121680514Y-136865191D01*
X121680513Y-136865190D01*
X121675929Y-136864500D01*
X121406071Y-136864500D01*
X121401487Y-136865190D01*
X121401485Y-136865191D01*
X121143813Y-136904028D01*
X121143801Y-136904030D01*
X121139228Y-136904720D01*
X121134806Y-136906083D01*
X121134797Y-136906086D01*
X120885790Y-136982894D01*
X120885775Y-136982899D01*
X120881359Y-136984262D01*
X120877185Y-136986271D01*
X120877180Y-136986274D01*
X120642411Y-137099333D01*
X120642404Y-137099336D01*
X120638226Y-137101349D01*
X120634393Y-137103962D01*
X120634390Y-137103964D01*
X120419090Y-137250752D01*
X120419080Y-137250759D01*
X120415259Y-137253365D01*
X120411863Y-137256516D01*
X120411853Y-137256524D01*
X120220843Y-137433756D01*
X120220839Y-137433759D01*
X120217439Y-137436915D01*
X120214549Y-137440537D01*
X120214546Y-137440542D01*
X120052077Y-137644271D01*
X120049185Y-137647898D01*
X120046866Y-137651913D01*
X120046865Y-137651916D01*
X119916578Y-137877581D01*
X119916575Y-137877586D01*
X119914257Y-137881602D01*
X119912563Y-137885916D01*
X119912561Y-137885922D01*
X119859439Y-138021274D01*
X119815666Y-138132805D01*
X119814633Y-138137326D01*
X119814632Y-138137333D01*
X119756648Y-138391377D01*
X119756646Y-138391385D01*
X119755617Y-138395897D01*
X119755270Y-138400516D01*
X119755270Y-138400522D01*
X119742380Y-138572540D01*
X119735451Y-138665000D01*
X119735798Y-138669631D01*
X119754629Y-138920926D01*
X119755617Y-138934103D01*
X119756647Y-138938616D01*
X119756648Y-138938622D01*
X119807971Y-139163480D01*
X119815666Y-139197195D01*
X119817358Y-139201506D01*
X119872970Y-139343203D01*
X119881531Y-139390051D01*
X119871804Y-139436671D01*
X119845222Y-139476186D01*
X108832796Y-150488611D01*
X108824611Y-150496059D01*
X108818223Y-150500114D01*
X108812888Y-150505794D01*
X108812883Y-150505799D01*
X108772196Y-150549125D01*
X108769492Y-150551916D01*
X108752728Y-150568680D01*
X108752721Y-150568687D01*
X108749980Y-150571429D01*
X108747600Y-150574496D01*
X108747589Y-150574509D01*
X108747500Y-150574625D01*
X108739942Y-150583470D01*
X108715380Y-150609627D01*
X108715373Y-150609636D01*
X108710038Y-150615318D01*
X108706282Y-150622149D01*
X108706279Y-150622154D01*
X108700385Y-150632875D01*
X108689709Y-150649127D01*
X108682209Y-150658796D01*
X108682201Y-150658807D01*
X108677427Y-150664964D01*
X108674334Y-150672108D01*
X108674329Y-150672119D01*
X108660074Y-150705060D01*
X108654938Y-150715543D01*
X108640318Y-150742138D01*
X108633903Y-150753808D01*
X108631964Y-150761356D01*
X108631963Y-150761361D01*
X108628922Y-150773207D01*
X108622621Y-150791611D01*
X108617758Y-150802848D01*
X108617756Y-150802852D01*
X108614662Y-150810004D01*
X108613442Y-150817703D01*
X108613442Y-150817705D01*
X108607829Y-150853141D01*
X108605461Y-150864576D01*
X108596538Y-150899328D01*
X108596536Y-150899336D01*
X108594600Y-150906881D01*
X108594600Y-150914677D01*
X108594600Y-150926917D01*
X108593074Y-150946302D01*
X108589940Y-150966096D01*
X108590674Y-150973861D01*
X108590674Y-150973864D01*
X108594050Y-151009576D01*
X108594600Y-151021245D01*
X108594600Y-157169447D01*
X108585161Y-157216900D01*
X108558281Y-157257128D01*
X87926868Y-177888540D01*
X87877505Y-177918790D01*
X87819789Y-177923332D01*
X87766302Y-177901177D01*
X87728702Y-177857154D01*
X87715477Y-177802070D01*
X87715659Y-177800000D01*
X87695063Y-177564592D01*
X87633903Y-177336337D01*
X87534035Y-177122171D01*
X87398495Y-176928599D01*
X87231401Y-176761505D01*
X87226968Y-176758401D01*
X87226961Y-176758395D01*
X87045842Y-176631575D01*
X87006976Y-176587257D01*
X86992965Y-176530000D01*
X87006976Y-176472743D01*
X87045842Y-176428425D01*
X87226961Y-176301604D01*
X87226961Y-176301603D01*
X87231401Y-176298495D01*
X87398495Y-176131401D01*
X87534035Y-175937830D01*
X87633903Y-175723663D01*
X87695063Y-175495408D01*
X87715659Y-175260000D01*
X87695063Y-175024592D01*
X87633903Y-174796337D01*
X87534035Y-174582171D01*
X87411384Y-174407007D01*
X87390271Y-174353861D01*
X87395256Y-174296886D01*
X87425279Y-174248210D01*
X103112711Y-158560778D01*
X103120881Y-158553344D01*
X103127277Y-158549286D01*
X103173318Y-158500256D01*
X103175935Y-158497554D01*
X103195520Y-158477971D01*
X103197985Y-158474792D01*
X103205567Y-158465916D01*
X103217572Y-158453132D01*
X103235462Y-158434082D01*
X103245113Y-158416523D01*
X103255790Y-158400270D01*
X103268073Y-158384436D01*
X103285418Y-158344352D01*
X103290551Y-158333871D01*
X103311597Y-158295592D01*
X103316579Y-158276184D01*
X103322882Y-158257776D01*
X103330837Y-158239396D01*
X103337671Y-158196244D01*
X103340033Y-158184838D01*
X103350900Y-158142519D01*
X103350900Y-158122483D01*
X103352427Y-158103085D01*
X103354339Y-158091013D01*
X103354338Y-158091013D01*
X103355560Y-158083304D01*
X103351450Y-158039824D01*
X103350900Y-158028155D01*
X103350900Y-155192551D01*
X105404452Y-155192551D01*
X105404820Y-155203780D01*
X105452330Y-155381092D01*
X105456022Y-155391234D01*
X105547579Y-155587580D01*
X105552967Y-155596912D01*
X105677232Y-155774381D01*
X105684169Y-155782647D01*
X105837352Y-155935830D01*
X105845618Y-155942767D01*
X106023087Y-156067032D01*
X106032419Y-156072420D01*
X106228765Y-156163977D01*
X106238907Y-156167669D01*
X106416219Y-156215179D01*
X106427448Y-156215547D01*
X106430000Y-156204605D01*
X106930000Y-156204605D01*
X106932551Y-156215547D01*
X106943780Y-156215179D01*
X107121092Y-156167669D01*
X107131234Y-156163977D01*
X107327580Y-156072420D01*
X107336912Y-156067032D01*
X107514381Y-155942767D01*
X107522647Y-155935830D01*
X107675830Y-155782647D01*
X107682767Y-155774381D01*
X107807032Y-155596912D01*
X107812420Y-155587580D01*
X107903977Y-155391234D01*
X107907669Y-155381092D01*
X107955179Y-155203780D01*
X107955547Y-155192551D01*
X107944605Y-155190000D01*
X106946326Y-155190000D01*
X106933450Y-155193450D01*
X106930000Y-155206326D01*
X106930000Y-156204605D01*
X106430000Y-156204605D01*
X106430000Y-155206326D01*
X106426549Y-155193450D01*
X106413674Y-155190000D01*
X105415395Y-155190000D01*
X105404452Y-155192551D01*
X103350900Y-155192551D01*
X103350900Y-154687448D01*
X105404452Y-154687448D01*
X105415395Y-154690000D01*
X106413674Y-154690000D01*
X106426549Y-154686549D01*
X106430000Y-154673674D01*
X106930000Y-154673674D01*
X106933450Y-154686549D01*
X106946326Y-154690000D01*
X107944605Y-154690000D01*
X107955547Y-154687448D01*
X107955179Y-154676219D01*
X107907669Y-154498907D01*
X107903977Y-154488765D01*
X107812420Y-154292419D01*
X107807032Y-154283087D01*
X107682767Y-154105618D01*
X107675830Y-154097352D01*
X107522647Y-153944169D01*
X107514381Y-153937232D01*
X107336912Y-153812967D01*
X107327580Y-153807579D01*
X107131234Y-153716022D01*
X107121092Y-153712330D01*
X106943780Y-153664820D01*
X106932551Y-153664452D01*
X106930000Y-153675395D01*
X106930000Y-154673674D01*
X106430000Y-154673674D01*
X106430000Y-153675395D01*
X106427448Y-153664452D01*
X106416219Y-153664820D01*
X106238907Y-153712330D01*
X106228765Y-153716022D01*
X106032419Y-153807579D01*
X106023087Y-153812967D01*
X105845618Y-153937232D01*
X105837352Y-153944169D01*
X105684169Y-154097352D01*
X105677232Y-154105618D01*
X105552967Y-154283087D01*
X105547579Y-154292419D01*
X105456022Y-154488765D01*
X105452330Y-154498907D01*
X105404820Y-154676219D01*
X105404452Y-154687448D01*
X103350900Y-154687448D01*
X103350900Y-152814152D01*
X103360339Y-152766699D01*
X103387219Y-152726471D01*
X113134190Y-142979500D01*
X123553711Y-132559978D01*
X123561881Y-132552544D01*
X123568277Y-132548486D01*
X123614318Y-132499456D01*
X123616935Y-132496754D01*
X123636520Y-132477171D01*
X123638985Y-132473992D01*
X123646567Y-132465116D01*
X123676462Y-132433282D01*
X123686113Y-132415723D01*
X123696790Y-132399470D01*
X123709073Y-132383636D01*
X123726418Y-132343552D01*
X123731551Y-132333071D01*
X123752597Y-132294792D01*
X123757579Y-132275384D01*
X123763882Y-132256976D01*
X123771837Y-132238596D01*
X123778671Y-132195444D01*
X123781033Y-132184038D01*
X123791900Y-132141719D01*
X123791900Y-132121683D01*
X123793427Y-132102285D01*
X123795339Y-132090213D01*
X123795338Y-132090213D01*
X123796560Y-132082504D01*
X123792450Y-132039024D01*
X123791900Y-132027355D01*
X123791900Y-125128175D01*
X123792421Y-125117119D01*
X123794073Y-125109733D01*
X123791961Y-125042513D01*
X123791900Y-125038619D01*
X123791900Y-125014942D01*
X123791900Y-125011050D01*
X123791398Y-125007083D01*
X123790481Y-124995426D01*
X123789110Y-124951773D01*
X123783518Y-124932528D01*
X123779574Y-124913483D01*
X123777064Y-124893608D01*
X123760979Y-124852983D01*
X123757206Y-124841962D01*
X123745018Y-124800010D01*
X123734817Y-124782760D01*
X123726263Y-124765301D01*
X123718886Y-124746668D01*
X123693208Y-124711325D01*
X123686801Y-124701571D01*
X123668542Y-124670696D01*
X123668541Y-124670694D01*
X123664570Y-124663980D01*
X123650405Y-124649815D01*
X123637770Y-124635022D01*
X123625994Y-124618813D01*
X123619983Y-124613840D01*
X123619981Y-124613838D01*
X123592341Y-124590973D01*
X123583700Y-124583110D01*
X123236776Y-124236185D01*
X123210194Y-124196669D01*
X123200467Y-124150049D01*
X123209027Y-124103206D01*
X123266334Y-123957195D01*
X123326383Y-123694103D01*
X123346549Y-123425000D01*
X123326383Y-123155897D01*
X123266334Y-122892805D01*
X123167743Y-122641602D01*
X123032815Y-122407898D01*
X122864561Y-122196915D01*
X122666741Y-122013365D01*
X122662912Y-122010754D01*
X122662909Y-122010752D01*
X122447610Y-121863964D01*
X122443775Y-121861349D01*
X122439589Y-121859333D01*
X122204820Y-121746274D01*
X122204814Y-121746271D01*
X122200641Y-121744262D01*
X122196219Y-121742898D01*
X122196209Y-121742894D01*
X121947202Y-121666086D01*
X121947196Y-121666084D01*
X121942772Y-121664720D01*
X121938195Y-121664030D01*
X121938186Y-121664028D01*
X121680514Y-121625191D01*
X121680513Y-121625190D01*
X121675929Y-121624500D01*
X121406071Y-121624500D01*
X121401487Y-121625190D01*
X121401485Y-121625191D01*
X121143813Y-121664028D01*
X121143801Y-121664030D01*
X121139228Y-121664720D01*
X121134806Y-121666083D01*
X121134797Y-121666086D01*
X120885790Y-121742894D01*
X120885775Y-121742899D01*
X120881359Y-121744262D01*
X120877185Y-121746271D01*
X120877180Y-121746274D01*
X120642411Y-121859333D01*
X120642404Y-121859336D01*
X120638226Y-121861349D01*
X120634393Y-121863962D01*
X120634390Y-121863964D01*
X120419090Y-122010752D01*
X120419080Y-122010759D01*
X120415259Y-122013365D01*
X120411863Y-122016516D01*
X120411853Y-122016524D01*
X120220843Y-122193756D01*
X120220839Y-122193759D01*
X120217439Y-122196915D01*
X120214549Y-122200537D01*
X120214546Y-122200542D01*
X120052077Y-122404271D01*
X120049185Y-122407898D01*
X120046866Y-122411913D01*
X120046865Y-122411916D01*
X119916578Y-122637581D01*
X119916575Y-122637586D01*
X119914257Y-122641602D01*
X119912563Y-122645916D01*
X119912561Y-122645922D01*
X119817363Y-122888480D01*
X119815666Y-122892805D01*
X119814633Y-122897326D01*
X119814632Y-122897333D01*
X119756648Y-123151377D01*
X119756646Y-123151385D01*
X119755617Y-123155897D01*
X119735451Y-123425000D01*
X119735798Y-123429631D01*
X119754645Y-123681143D01*
X119755617Y-123694103D01*
X119756647Y-123698616D01*
X119756648Y-123698622D01*
X119810026Y-123932484D01*
X119815666Y-123957195D01*
X119914257Y-124208398D01*
X120049185Y-124442102D01*
X120217439Y-124653085D01*
X120269695Y-124701571D01*
X120395639Y-124818431D01*
X120415259Y-124836635D01*
X120638226Y-124988651D01*
X120881359Y-125105738D01*
X120885787Y-125107103D01*
X120885790Y-125107105D01*
X120894310Y-125109733D01*
X121139228Y-125185280D01*
X121406071Y-125225500D01*
X121671292Y-125225500D01*
X121675929Y-125225500D01*
X121942772Y-125185280D01*
X122200641Y-125105738D01*
X122213505Y-125099542D01*
X122262667Y-125087348D01*
X122312609Y-125095832D01*
X122354990Y-125123580D01*
X122504581Y-125273171D01*
X122531461Y-125313399D01*
X122540900Y-125360852D01*
X122540900Y-126580500D01*
X122524287Y-126642500D01*
X122478900Y-126687887D01*
X122416900Y-126704500D01*
X120196439Y-126704500D01*
X120196420Y-126704500D01*
X120193128Y-126704501D01*
X120189850Y-126704853D01*
X120189838Y-126704854D01*
X120141231Y-126710079D01*
X120141225Y-126710080D01*
X120133517Y-126710909D01*
X120126252Y-126713618D01*
X120126246Y-126713620D01*
X120006980Y-126758104D01*
X120006978Y-126758104D01*
X119998669Y-126761204D01*
X119991572Y-126766516D01*
X119991568Y-126766519D01*
X119890550Y-126842141D01*
X119890546Y-126842144D01*
X119883454Y-126847454D01*
X119878144Y-126854546D01*
X119878141Y-126854550D01*
X119802519Y-126955568D01*
X119802516Y-126955572D01*
X119797204Y-126962669D01*
X119794104Y-126970978D01*
X119794104Y-126970980D01*
X119749620Y-127090247D01*
X119749619Y-127090250D01*
X119746909Y-127097517D01*
X119746079Y-127105227D01*
X119746079Y-127105232D01*
X119740855Y-127153819D01*
X119740854Y-127153831D01*
X119740500Y-127157127D01*
X119740500Y-127160449D01*
X119740500Y-127755500D01*
X119723887Y-127817500D01*
X119678500Y-127862887D01*
X119616500Y-127879500D01*
X107792775Y-127879500D01*
X107781719Y-127878978D01*
X107774333Y-127877327D01*
X107766545Y-127877571D01*
X107766538Y-127877571D01*
X107707127Y-127879439D01*
X107703232Y-127879500D01*
X107675650Y-127879500D01*
X107671805Y-127879985D01*
X107671780Y-127879987D01*
X107671653Y-127880004D01*
X107660034Y-127880918D01*
X107624172Y-127882045D01*
X107624165Y-127882046D01*
X107616373Y-127882291D01*
X107608888Y-127884465D01*
X107608872Y-127884468D01*
X107597126Y-127887881D01*
X107578083Y-127891825D01*
X107565949Y-127893358D01*
X107565948Y-127893358D01*
X107558208Y-127894336D01*
X107550958Y-127897205D01*
X107550951Y-127897208D01*
X107517598Y-127910413D01*
X107506554Y-127914194D01*
X107472101Y-127924204D01*
X107472090Y-127924208D01*
X107464610Y-127926382D01*
X107457898Y-127930351D01*
X107457896Y-127930352D01*
X107447364Y-127936580D01*
X107429904Y-127945134D01*
X107418519Y-127949642D01*
X107418513Y-127949644D01*
X107411268Y-127952514D01*
X107404963Y-127957094D01*
X107404955Y-127957099D01*
X107375932Y-127978185D01*
X107366174Y-127984595D01*
X107335296Y-128002857D01*
X107335290Y-128002861D01*
X107328580Y-128006830D01*
X107323067Y-128012341D01*
X107323060Y-128012348D01*
X107314410Y-128020998D01*
X107299627Y-128033624D01*
X107289726Y-128040817D01*
X107289716Y-128040826D01*
X107283413Y-128045406D01*
X107278444Y-128051411D01*
X107278441Y-128051415D01*
X107255572Y-128079059D01*
X107247711Y-128087697D01*
X102014821Y-133320586D01*
X101959234Y-133352680D01*
X101895048Y-133352680D01*
X101831920Y-133335765D01*
X101831911Y-133335763D01*
X101826692Y-133334365D01*
X101821304Y-133333893D01*
X101821301Y-133333893D01*
X101605395Y-133315004D01*
X101600000Y-133314532D01*
X101594605Y-133315004D01*
X101378698Y-133333893D01*
X101378693Y-133333893D01*
X101373308Y-133334365D01*
X101368094Y-133335762D01*
X101368083Y-133335764D01*
X101158736Y-133391858D01*
X101158724Y-133391862D01*
X101153504Y-133393261D01*
X101148599Y-133395547D01*
X101148594Y-133395550D01*
X100952176Y-133487142D01*
X100952172Y-133487144D01*
X100947266Y-133489432D01*
X100942833Y-133492535D01*
X100942826Y-133492540D01*
X100765296Y-133616847D01*
X100765291Y-133616850D01*
X100760861Y-133619953D01*
X100757037Y-133623776D01*
X100757031Y-133623782D01*
X100603782Y-133777031D01*
X100603776Y-133777037D01*
X100599953Y-133780861D01*
X100596850Y-133785291D01*
X100596847Y-133785296D01*
X100472540Y-133962826D01*
X100472535Y-133962833D01*
X100469432Y-133967266D01*
X100467144Y-133972172D01*
X100467142Y-133972176D01*
X100375550Y-134168594D01*
X100375547Y-134168599D01*
X100373261Y-134173504D01*
X100371862Y-134178724D01*
X100371858Y-134178736D01*
X100315764Y-134388083D01*
X100315762Y-134388094D01*
X100314365Y-134393308D01*
X100313893Y-134398693D01*
X100313893Y-134398698D01*
X100295004Y-134614605D01*
X100294532Y-134620000D01*
X100314365Y-134846692D01*
X100315762Y-134851907D01*
X100315764Y-134851916D01*
X100371858Y-135061263D01*
X100371861Y-135061271D01*
X100373261Y-135066496D01*
X100469432Y-135272734D01*
X100599953Y-135459139D01*
X100760861Y-135620047D01*
X100947266Y-135750568D01*
X101153504Y-135846739D01*
X101158734Y-135848140D01*
X101158736Y-135848141D01*
X101334285Y-135895179D01*
X101373308Y-135905635D01*
X101600000Y-135925468D01*
X101826692Y-135905635D01*
X102046496Y-135846739D01*
X102252734Y-135750568D01*
X102439139Y-135620047D01*
X102600047Y-135459139D01*
X102730568Y-135272734D01*
X102826739Y-135066496D01*
X102885635Y-134846692D01*
X102905468Y-134620000D01*
X105374532Y-134620000D01*
X105394365Y-134846692D01*
X105395762Y-134851907D01*
X105395764Y-134851916D01*
X105451858Y-135061263D01*
X105451861Y-135061271D01*
X105453261Y-135066496D01*
X105549432Y-135272734D01*
X105679953Y-135459139D01*
X105840861Y-135620047D01*
X106027266Y-135750568D01*
X106233504Y-135846739D01*
X106238734Y-135848140D01*
X106238736Y-135848141D01*
X106414285Y-135895179D01*
X106453308Y-135905635D01*
X106680000Y-135925468D01*
X106906692Y-135905635D01*
X107126496Y-135846739D01*
X107332734Y-135750568D01*
X107519139Y-135620047D01*
X107680047Y-135459139D01*
X107810568Y-135272734D01*
X107906739Y-135066496D01*
X107965635Y-134846692D01*
X107985468Y-134620000D01*
X110454532Y-134620000D01*
X110474365Y-134846692D01*
X110475762Y-134851907D01*
X110475764Y-134851916D01*
X110531858Y-135061263D01*
X110531861Y-135061271D01*
X110533261Y-135066496D01*
X110629432Y-135272734D01*
X110759953Y-135459139D01*
X110920861Y-135620047D01*
X111107266Y-135750568D01*
X111313504Y-135846739D01*
X111318734Y-135848140D01*
X111318736Y-135848141D01*
X111494285Y-135895179D01*
X111533308Y-135905635D01*
X111760000Y-135925468D01*
X111986692Y-135905635D01*
X112206496Y-135846739D01*
X112412734Y-135750568D01*
X112599139Y-135620047D01*
X112760047Y-135459139D01*
X112890568Y-135272734D01*
X112986739Y-135066496D01*
X113045635Y-134846692D01*
X113065468Y-134620000D01*
X113045635Y-134393308D01*
X112986739Y-134173504D01*
X112890568Y-133967266D01*
X112760047Y-133780861D01*
X112599139Y-133619953D01*
X112412734Y-133489432D01*
X112206496Y-133393261D01*
X112201271Y-133391861D01*
X112201263Y-133391858D01*
X111991916Y-133335764D01*
X111991907Y-133335762D01*
X111986692Y-133334365D01*
X111981304Y-133333893D01*
X111981301Y-133333893D01*
X111765395Y-133315004D01*
X111760000Y-133314532D01*
X111754605Y-133315004D01*
X111538698Y-133333893D01*
X111538693Y-133333893D01*
X111533308Y-133334365D01*
X111528094Y-133335762D01*
X111528083Y-133335764D01*
X111318736Y-133391858D01*
X111318724Y-133391862D01*
X111313504Y-133393261D01*
X111308599Y-133395547D01*
X111308594Y-133395550D01*
X111112176Y-133487142D01*
X111112172Y-133487144D01*
X111107266Y-133489432D01*
X111102833Y-133492535D01*
X111102826Y-133492540D01*
X110925296Y-133616847D01*
X110925291Y-133616850D01*
X110920861Y-133619953D01*
X110917037Y-133623776D01*
X110917031Y-133623782D01*
X110763782Y-133777031D01*
X110763776Y-133777037D01*
X110759953Y-133780861D01*
X110756850Y-133785291D01*
X110756847Y-133785296D01*
X110632540Y-133962826D01*
X110632535Y-133962833D01*
X110629432Y-133967266D01*
X110627144Y-133972172D01*
X110627142Y-133972176D01*
X110535550Y-134168594D01*
X110535547Y-134168599D01*
X110533261Y-134173504D01*
X110531862Y-134178724D01*
X110531858Y-134178736D01*
X110475764Y-134388083D01*
X110475762Y-134388094D01*
X110474365Y-134393308D01*
X110473893Y-134398693D01*
X110473893Y-134398698D01*
X110455004Y-134614605D01*
X110454532Y-134620000D01*
X107985468Y-134620000D01*
X107965635Y-134393308D01*
X107906739Y-134173504D01*
X107810568Y-133967266D01*
X107680047Y-133780861D01*
X107519139Y-133619953D01*
X107332734Y-133489432D01*
X107126496Y-133393261D01*
X107121271Y-133391861D01*
X107121263Y-133391858D01*
X106911916Y-133335764D01*
X106911907Y-133335762D01*
X106906692Y-133334365D01*
X106901304Y-133333893D01*
X106901301Y-133333893D01*
X106685395Y-133315004D01*
X106680000Y-133314532D01*
X106674605Y-133315004D01*
X106458698Y-133333893D01*
X106458693Y-133333893D01*
X106453308Y-133334365D01*
X106448094Y-133335762D01*
X106448083Y-133335764D01*
X106238736Y-133391858D01*
X106238724Y-133391862D01*
X106233504Y-133393261D01*
X106228599Y-133395547D01*
X106228594Y-133395550D01*
X106032176Y-133487142D01*
X106032172Y-133487144D01*
X106027266Y-133489432D01*
X106022833Y-133492535D01*
X106022826Y-133492540D01*
X105845296Y-133616847D01*
X105845291Y-133616850D01*
X105840861Y-133619953D01*
X105837037Y-133623776D01*
X105837031Y-133623782D01*
X105683782Y-133777031D01*
X105683776Y-133777037D01*
X105679953Y-133780861D01*
X105676850Y-133785291D01*
X105676847Y-133785296D01*
X105552540Y-133962826D01*
X105552535Y-133962833D01*
X105549432Y-133967266D01*
X105547144Y-133972172D01*
X105547142Y-133972176D01*
X105455550Y-134168594D01*
X105455547Y-134168599D01*
X105453261Y-134173504D01*
X105451862Y-134178724D01*
X105451858Y-134178736D01*
X105395764Y-134388083D01*
X105395762Y-134388094D01*
X105394365Y-134393308D01*
X105393893Y-134398693D01*
X105393893Y-134398698D01*
X105375004Y-134614605D01*
X105374532Y-134620000D01*
X102905468Y-134620000D01*
X102885635Y-134393308D01*
X102867318Y-134324951D01*
X102867318Y-134260765D01*
X102899410Y-134205179D01*
X107937771Y-129166819D01*
X107978000Y-129139939D01*
X108025453Y-129130500D01*
X119616501Y-129130500D01*
X119678501Y-129147113D01*
X119723888Y-129192500D01*
X119740501Y-129254500D01*
X119740501Y-129852872D01*
X119740853Y-129856150D01*
X119740854Y-129856161D01*
X119746079Y-129904768D01*
X119746080Y-129904773D01*
X119746909Y-129912483D01*
X119749619Y-129919749D01*
X119749620Y-129919753D01*
X119783217Y-130009831D01*
X119797204Y-130047331D01*
X119883454Y-130162546D01*
X119998669Y-130248796D01*
X120133517Y-130299091D01*
X120193127Y-130305500D01*
X122416900Y-130305499D01*
X122478900Y-130322112D01*
X122524287Y-130367499D01*
X122540900Y-130429499D01*
X122540900Y-131752247D01*
X122531461Y-131799700D01*
X122504581Y-131839928D01*
X102338096Y-152006411D01*
X102329911Y-152013859D01*
X102323523Y-152017914D01*
X102318188Y-152023594D01*
X102318183Y-152023599D01*
X102277496Y-152066925D01*
X102274792Y-152069716D01*
X102258028Y-152086480D01*
X102258021Y-152086487D01*
X102255280Y-152089229D01*
X102252900Y-152092296D01*
X102252889Y-152092309D01*
X102252800Y-152092425D01*
X102245242Y-152101270D01*
X102220680Y-152127427D01*
X102220673Y-152127436D01*
X102215338Y-152133118D01*
X102211582Y-152139949D01*
X102211579Y-152139954D01*
X102205685Y-152150675D01*
X102195009Y-152166927D01*
X102187509Y-152176596D01*
X102187501Y-152176607D01*
X102182727Y-152182764D01*
X102179634Y-152189908D01*
X102179629Y-152189919D01*
X102165374Y-152222860D01*
X102160238Y-152233343D01*
X102139203Y-152271608D01*
X102137264Y-152279156D01*
X102137263Y-152279161D01*
X102134222Y-152291007D01*
X102127921Y-152309411D01*
X102123058Y-152320648D01*
X102123056Y-152320652D01*
X102119962Y-152327804D01*
X102118742Y-152335503D01*
X102118742Y-152335505D01*
X102113129Y-152370941D01*
X102110761Y-152382376D01*
X102101838Y-152417128D01*
X102101836Y-152417136D01*
X102099900Y-152424681D01*
X102099900Y-152432477D01*
X102099900Y-152444717D01*
X102098374Y-152464102D01*
X102095240Y-152483896D01*
X102095974Y-152491661D01*
X102095974Y-152491664D01*
X102099350Y-152527376D01*
X102099900Y-152539045D01*
X102099900Y-153565971D01*
X102087112Y-153620815D01*
X102051386Y-153664347D01*
X102000091Y-153687588D01*
X101943808Y-153685746D01*
X101826692Y-153654365D01*
X101821304Y-153653893D01*
X101821301Y-153653893D01*
X101605395Y-153635004D01*
X101600000Y-153634532D01*
X101594605Y-153635004D01*
X101378698Y-153653893D01*
X101378693Y-153653893D01*
X101373308Y-153654365D01*
X101368094Y-153655762D01*
X101368083Y-153655764D01*
X101158736Y-153711858D01*
X101158724Y-153711862D01*
X101153504Y-153713261D01*
X101148599Y-153715547D01*
X101148594Y-153715550D01*
X100952176Y-153807142D01*
X100952172Y-153807144D01*
X100947266Y-153809432D01*
X100942833Y-153812535D01*
X100942826Y-153812540D01*
X100765296Y-153936847D01*
X100765291Y-153936850D01*
X100760861Y-153939953D01*
X100757037Y-153943776D01*
X100757031Y-153943782D01*
X100603782Y-154097031D01*
X100603776Y-154097037D01*
X100599953Y-154100861D01*
X100596850Y-154105291D01*
X100596847Y-154105296D01*
X100487387Y-154261623D01*
X100443069Y-154300489D01*
X100385812Y-154314500D01*
X97734188Y-154314500D01*
X97676931Y-154300489D01*
X97632613Y-154261623D01*
X97568092Y-154169477D01*
X97520047Y-154100861D01*
X97359139Y-153939953D01*
X97172734Y-153809432D01*
X96966496Y-153713261D01*
X96961271Y-153711861D01*
X96961263Y-153711858D01*
X96751916Y-153655764D01*
X96751907Y-153655762D01*
X96746692Y-153654365D01*
X96741304Y-153653893D01*
X96741301Y-153653893D01*
X96525395Y-153635004D01*
X96520000Y-153634532D01*
X96514605Y-153635004D01*
X96514602Y-153635004D01*
X96475893Y-153638390D01*
X96416636Y-153629004D01*
X96368721Y-153592897D01*
X96343366Y-153538522D01*
X96346506Y-153478608D01*
X96377405Y-153427183D01*
X101987306Y-147817282D01*
X101995482Y-147809843D01*
X102001877Y-147805786D01*
X102047933Y-147756740D01*
X102050550Y-147754038D01*
X102070120Y-147734470D01*
X102072565Y-147731316D01*
X102080155Y-147722428D01*
X102110062Y-147690582D01*
X102119709Y-147673032D01*
X102130393Y-147656766D01*
X102142674Y-147640936D01*
X102160018Y-147600851D01*
X102165160Y-147590356D01*
X102186197Y-147552092D01*
X102191179Y-147532689D01*
X102197480Y-147514283D01*
X102205438Y-147495895D01*
X102212269Y-147452756D01*
X102214639Y-147441315D01*
X102223560Y-147406574D01*
X102223559Y-147406574D01*
X102225500Y-147399019D01*
X102225500Y-147378983D01*
X102227025Y-147359597D01*
X102230160Y-147339804D01*
X102226050Y-147296324D01*
X102225500Y-147284655D01*
X102225500Y-140914188D01*
X102239511Y-140856931D01*
X102278377Y-140812613D01*
X102308311Y-140791652D01*
X102439139Y-140700047D01*
X102600047Y-140539139D01*
X102730568Y-140352734D01*
X102826739Y-140146496D01*
X102885635Y-139926692D01*
X102905468Y-139700000D01*
X105374532Y-139700000D01*
X105375004Y-139705395D01*
X105391424Y-139893085D01*
X105394365Y-139926692D01*
X105395762Y-139931907D01*
X105395764Y-139931916D01*
X105451858Y-140141263D01*
X105451861Y-140141271D01*
X105453261Y-140146496D01*
X105455549Y-140151403D01*
X105455550Y-140151405D01*
X105474785Y-140192654D01*
X105549432Y-140352734D01*
X105552539Y-140357171D01*
X105552540Y-140357173D01*
X105557026Y-140363580D01*
X105679953Y-140539139D01*
X105840861Y-140700047D01*
X106027266Y-140830568D01*
X106233504Y-140926739D01*
X106238734Y-140928140D01*
X106238736Y-140928141D01*
X106414285Y-140975179D01*
X106453308Y-140985635D01*
X106680000Y-141005468D01*
X106906692Y-140985635D01*
X107126496Y-140926739D01*
X107332734Y-140830568D01*
X107519139Y-140700047D01*
X107680047Y-140539139D01*
X107810568Y-140352734D01*
X107906739Y-140146496D01*
X107958706Y-139952551D01*
X110484452Y-139952551D01*
X110484820Y-139963780D01*
X110532330Y-140141092D01*
X110536022Y-140151234D01*
X110627579Y-140347580D01*
X110632967Y-140356912D01*
X110757232Y-140534381D01*
X110764169Y-140542647D01*
X110917352Y-140695830D01*
X110925618Y-140702767D01*
X111103087Y-140827032D01*
X111112419Y-140832420D01*
X111308765Y-140923977D01*
X111318907Y-140927669D01*
X111496219Y-140975179D01*
X111507448Y-140975547D01*
X111510000Y-140964605D01*
X112010000Y-140964605D01*
X112012551Y-140975547D01*
X112023780Y-140975179D01*
X112201092Y-140927669D01*
X112211234Y-140923977D01*
X112407580Y-140832420D01*
X112416912Y-140827032D01*
X112594381Y-140702767D01*
X112602647Y-140695830D01*
X112755830Y-140542647D01*
X112762767Y-140534381D01*
X112887032Y-140356912D01*
X112892420Y-140347580D01*
X112983977Y-140151234D01*
X112987669Y-140141092D01*
X113035179Y-139963780D01*
X113035547Y-139952551D01*
X113024605Y-139950000D01*
X112026326Y-139950000D01*
X112013450Y-139953450D01*
X112010000Y-139966326D01*
X112010000Y-140964605D01*
X111510000Y-140964605D01*
X111510000Y-139966326D01*
X111506549Y-139953450D01*
X111493674Y-139950000D01*
X110495395Y-139950000D01*
X110484452Y-139952551D01*
X107958706Y-139952551D01*
X107965635Y-139926692D01*
X107985468Y-139700000D01*
X107965635Y-139473308D01*
X107958706Y-139447448D01*
X110484452Y-139447448D01*
X110495395Y-139450000D01*
X111493674Y-139450000D01*
X111506549Y-139446549D01*
X111510000Y-139433674D01*
X112010000Y-139433674D01*
X112013450Y-139446549D01*
X112026326Y-139450000D01*
X113024605Y-139450000D01*
X113035547Y-139447448D01*
X113035179Y-139436219D01*
X112987669Y-139258907D01*
X112983977Y-139248765D01*
X112892420Y-139052419D01*
X112887032Y-139043087D01*
X112762767Y-138865618D01*
X112755830Y-138857352D01*
X112602647Y-138704169D01*
X112594381Y-138697232D01*
X112416912Y-138572967D01*
X112407580Y-138567579D01*
X112211234Y-138476022D01*
X112201092Y-138472330D01*
X112023780Y-138424820D01*
X112012551Y-138424452D01*
X112010000Y-138435395D01*
X112010000Y-139433674D01*
X111510000Y-139433674D01*
X111510000Y-138435395D01*
X111507448Y-138424452D01*
X111496219Y-138424820D01*
X111318907Y-138472330D01*
X111308765Y-138476022D01*
X111112419Y-138567579D01*
X111103087Y-138572967D01*
X110925618Y-138697232D01*
X110917352Y-138704169D01*
X110764169Y-138857352D01*
X110757232Y-138865618D01*
X110632967Y-139043087D01*
X110627579Y-139052419D01*
X110536022Y-139248765D01*
X110532330Y-139258907D01*
X110484820Y-139436219D01*
X110484452Y-139447448D01*
X107958706Y-139447448D01*
X107951024Y-139418778D01*
X107908141Y-139258736D01*
X107908140Y-139258734D01*
X107906739Y-139253504D01*
X107810568Y-139047266D01*
X107680047Y-138860861D01*
X107519139Y-138699953D01*
X107332734Y-138569432D01*
X107126496Y-138473261D01*
X107121271Y-138471861D01*
X107121263Y-138471858D01*
X106911916Y-138415764D01*
X106911907Y-138415762D01*
X106906692Y-138414365D01*
X106901304Y-138413893D01*
X106901301Y-138413893D01*
X106685395Y-138395004D01*
X106680000Y-138394532D01*
X106674605Y-138395004D01*
X106458698Y-138413893D01*
X106458693Y-138413893D01*
X106453308Y-138414365D01*
X106448094Y-138415762D01*
X106448083Y-138415764D01*
X106238736Y-138471858D01*
X106238724Y-138471862D01*
X106233504Y-138473261D01*
X106228599Y-138475547D01*
X106228594Y-138475550D01*
X106032176Y-138567142D01*
X106032172Y-138567144D01*
X106027266Y-138569432D01*
X106022833Y-138572535D01*
X106022826Y-138572540D01*
X105845296Y-138696847D01*
X105845291Y-138696850D01*
X105840861Y-138699953D01*
X105837037Y-138703776D01*
X105837031Y-138703782D01*
X105683782Y-138857031D01*
X105683776Y-138857037D01*
X105679953Y-138860861D01*
X105676850Y-138865291D01*
X105676847Y-138865296D01*
X105552540Y-139042826D01*
X105552535Y-139042833D01*
X105549432Y-139047266D01*
X105547144Y-139052172D01*
X105547142Y-139052176D01*
X105455550Y-139248594D01*
X105455547Y-139248599D01*
X105453261Y-139253504D01*
X105451862Y-139258724D01*
X105451858Y-139258736D01*
X105395764Y-139468083D01*
X105395762Y-139468094D01*
X105394365Y-139473308D01*
X105374532Y-139700000D01*
X102905468Y-139700000D01*
X102885635Y-139473308D01*
X102871024Y-139418778D01*
X102828141Y-139258736D01*
X102828140Y-139258734D01*
X102826739Y-139253504D01*
X102730568Y-139047266D01*
X102600047Y-138860861D01*
X102439139Y-138699953D01*
X102252734Y-138569432D01*
X102046496Y-138473261D01*
X102041271Y-138471861D01*
X102041263Y-138471858D01*
X101831916Y-138415764D01*
X101831907Y-138415762D01*
X101826692Y-138414365D01*
X101821304Y-138413893D01*
X101821301Y-138413893D01*
X101605395Y-138395004D01*
X101600000Y-138394532D01*
X101594605Y-138395004D01*
X101378698Y-138413893D01*
X101378693Y-138413893D01*
X101373308Y-138414365D01*
X101368094Y-138415762D01*
X101368083Y-138415764D01*
X101158736Y-138471858D01*
X101158724Y-138471862D01*
X101153504Y-138473261D01*
X101148599Y-138475547D01*
X101148594Y-138475550D01*
X100952176Y-138567142D01*
X100952172Y-138567144D01*
X100947266Y-138569432D01*
X100942833Y-138572535D01*
X100942826Y-138572540D01*
X100765296Y-138696847D01*
X100765291Y-138696850D01*
X100760861Y-138699953D01*
X100757037Y-138703776D01*
X100757031Y-138703782D01*
X100603782Y-138857031D01*
X100603776Y-138857037D01*
X100599953Y-138860861D01*
X100596850Y-138865291D01*
X100596847Y-138865296D01*
X100472540Y-139042826D01*
X100472535Y-139042833D01*
X100469432Y-139047266D01*
X100467144Y-139052172D01*
X100467142Y-139052176D01*
X100375550Y-139248594D01*
X100375547Y-139248599D01*
X100373261Y-139253504D01*
X100371862Y-139258724D01*
X100371858Y-139258736D01*
X100315764Y-139468083D01*
X100315762Y-139468094D01*
X100314365Y-139473308D01*
X100294532Y-139700000D01*
X100295004Y-139705395D01*
X100311424Y-139893085D01*
X100314365Y-139926692D01*
X100315762Y-139931907D01*
X100315764Y-139931916D01*
X100371858Y-140141263D01*
X100371861Y-140141271D01*
X100373261Y-140146496D01*
X100375549Y-140151403D01*
X100375550Y-140151405D01*
X100394785Y-140192654D01*
X100469432Y-140352734D01*
X100472539Y-140357171D01*
X100472540Y-140357173D01*
X100477026Y-140363580D01*
X100599953Y-140539139D01*
X100760861Y-140700047D01*
X100790397Y-140720728D01*
X100921623Y-140812613D01*
X100960489Y-140856931D01*
X100974500Y-140914188D01*
X100974500Y-147009548D01*
X100965061Y-147057001D01*
X100938181Y-147097229D01*
X92952818Y-155082589D01*
X92901391Y-155113490D01*
X92841476Y-155116630D01*
X92787100Y-155091273D01*
X92750994Y-155043357D01*
X92741609Y-154984102D01*
X92745468Y-154940000D01*
X92725635Y-154713308D01*
X92666739Y-154493504D01*
X92570568Y-154287266D01*
X92440047Y-154100861D01*
X92279139Y-153939953D01*
X92092734Y-153809432D01*
X91886496Y-153713261D01*
X91881271Y-153711861D01*
X91881263Y-153711858D01*
X91671916Y-153655764D01*
X91671907Y-153655762D01*
X91666692Y-153654365D01*
X91661304Y-153653893D01*
X91661301Y-153653893D01*
X91445395Y-153635004D01*
X91440000Y-153634532D01*
X91434605Y-153635004D01*
X91218698Y-153653893D01*
X91218693Y-153653893D01*
X91213308Y-153654365D01*
X91208094Y-153655762D01*
X91208083Y-153655764D01*
X90998736Y-153711858D01*
X90998724Y-153711862D01*
X90993504Y-153713261D01*
X90988599Y-153715547D01*
X90988594Y-153715550D01*
X90792176Y-153807142D01*
X90792172Y-153807144D01*
X90787266Y-153809432D01*
X90782833Y-153812535D01*
X90782826Y-153812540D01*
X90605296Y-153936847D01*
X90605291Y-153936850D01*
X90600861Y-153939953D01*
X90597037Y-153943776D01*
X90597031Y-153943782D01*
X90443782Y-154097031D01*
X90443776Y-154097037D01*
X90439953Y-154100861D01*
X90436850Y-154105291D01*
X90436847Y-154105296D01*
X90312540Y-154282826D01*
X90312535Y-154282833D01*
X90309432Y-154287266D01*
X90307144Y-154292172D01*
X90307142Y-154292176D01*
X90215550Y-154488594D01*
X90215547Y-154488599D01*
X90213261Y-154493504D01*
X90211862Y-154498724D01*
X90211858Y-154498736D01*
X90155764Y-154708083D01*
X90155762Y-154708094D01*
X90154365Y-154713308D01*
X90153893Y-154718693D01*
X90153893Y-154718698D01*
X90147767Y-154788721D01*
X90134532Y-154940000D01*
X90135004Y-154945392D01*
X90135004Y-154945395D01*
X90151424Y-155133085D01*
X90154365Y-155166692D01*
X90155762Y-155171907D01*
X90155764Y-155171916D01*
X90211858Y-155381263D01*
X90211861Y-155381271D01*
X90213261Y-155386496D01*
X90309432Y-155592734D01*
X90439953Y-155779139D01*
X90600861Y-155940047D01*
X90787266Y-156070568D01*
X90993504Y-156166739D01*
X90998734Y-156168140D01*
X90998736Y-156168141D01*
X91182332Y-156217335D01*
X91213308Y-156225635D01*
X91440000Y-156245468D01*
X91484102Y-156241609D01*
X91543357Y-156250994D01*
X91591273Y-156287100D01*
X91616630Y-156341476D01*
X91613490Y-156401391D01*
X91582589Y-156452818D01*
X87926868Y-160108541D01*
X87877505Y-160138791D01*
X87819789Y-160143333D01*
X87766302Y-160121178D01*
X87728702Y-160077155D01*
X87715477Y-160022071D01*
X87715659Y-160020000D01*
X87695063Y-159784592D01*
X87633903Y-159556337D01*
X87534035Y-159342171D01*
X87398495Y-159148599D01*
X87231401Y-158981505D01*
X87226970Y-158978402D01*
X87226966Y-158978399D01*
X87042259Y-158849066D01*
X87042257Y-158849064D01*
X87037830Y-158845965D01*
X87032933Y-158843681D01*
X87032927Y-158843678D01*
X86828572Y-158748386D01*
X86828570Y-158748385D01*
X86823663Y-158746097D01*
X86818438Y-158744697D01*
X86818430Y-158744694D01*
X86600634Y-158686337D01*
X86600630Y-158686336D01*
X86595408Y-158684937D01*
X86590020Y-158684465D01*
X86590017Y-158684465D01*
X86365395Y-158664813D01*
X86360000Y-158664341D01*
X86354605Y-158664813D01*
X86129982Y-158684465D01*
X86129977Y-158684465D01*
X86124592Y-158684937D01*
X86119371Y-158686335D01*
X86119365Y-158686337D01*
X85901569Y-158744694D01*
X85901557Y-158744698D01*
X85896337Y-158746097D01*
X85891432Y-158748383D01*
X85891427Y-158748386D01*
X85827025Y-158778417D01*
X85797304Y-158792277D01*
X85736790Y-158803630D01*
X85678275Y-158784476D01*
X85636186Y-158739538D01*
X85620900Y-158679895D01*
X85620900Y-156203552D01*
X85630339Y-156156099D01*
X85657219Y-156115871D01*
X88404610Y-153368480D01*
X96907306Y-144865782D01*
X96915482Y-144858343D01*
X96921877Y-144854286D01*
X96967933Y-144805240D01*
X96970550Y-144802538D01*
X96990120Y-144782970D01*
X96992565Y-144779816D01*
X97000155Y-144770928D01*
X97030062Y-144739082D01*
X97039709Y-144721532D01*
X97050393Y-144705266D01*
X97062674Y-144689436D01*
X97080018Y-144649351D01*
X97085160Y-144638856D01*
X97106197Y-144600592D01*
X97111179Y-144581189D01*
X97117480Y-144562783D01*
X97125438Y-144544395D01*
X97132269Y-144501256D01*
X97134639Y-144489815D01*
X97143560Y-144455074D01*
X97143559Y-144455074D01*
X97145500Y-144447519D01*
X97145500Y-144427483D01*
X97147025Y-144408097D01*
X97150160Y-144388304D01*
X97146050Y-144344824D01*
X97145500Y-144333155D01*
X97145500Y-140914188D01*
X97159511Y-140856931D01*
X97198377Y-140812613D01*
X97228311Y-140791652D01*
X97359139Y-140700047D01*
X97520047Y-140539139D01*
X97650568Y-140352734D01*
X97746739Y-140146496D01*
X97805635Y-139926692D01*
X97825468Y-139700000D01*
X97805635Y-139473308D01*
X97791024Y-139418778D01*
X97748141Y-139258736D01*
X97748140Y-139258734D01*
X97746739Y-139253504D01*
X97650568Y-139047266D01*
X97520047Y-138860861D01*
X97359139Y-138699953D01*
X97172734Y-138569432D01*
X96966496Y-138473261D01*
X96961271Y-138471861D01*
X96961263Y-138471858D01*
X96751916Y-138415764D01*
X96751907Y-138415762D01*
X96746692Y-138414365D01*
X96741304Y-138413893D01*
X96741301Y-138413893D01*
X96525395Y-138395004D01*
X96520000Y-138394532D01*
X96514605Y-138395004D01*
X96298698Y-138413893D01*
X96298693Y-138413893D01*
X96293308Y-138414365D01*
X96288094Y-138415762D01*
X96288083Y-138415764D01*
X96078736Y-138471858D01*
X96078724Y-138471862D01*
X96073504Y-138473261D01*
X96068599Y-138475547D01*
X96068594Y-138475550D01*
X95872176Y-138567142D01*
X95872172Y-138567144D01*
X95867266Y-138569432D01*
X95862833Y-138572535D01*
X95862826Y-138572540D01*
X95685296Y-138696847D01*
X95685291Y-138696850D01*
X95680861Y-138699953D01*
X95677037Y-138703776D01*
X95677031Y-138703782D01*
X95523782Y-138857031D01*
X95523776Y-138857037D01*
X95519953Y-138860861D01*
X95516850Y-138865291D01*
X95516847Y-138865296D01*
X95392540Y-139042826D01*
X95392535Y-139042833D01*
X95389432Y-139047266D01*
X95387144Y-139052172D01*
X95387142Y-139052176D01*
X95295550Y-139248594D01*
X95295547Y-139248599D01*
X95293261Y-139253504D01*
X95291862Y-139258724D01*
X95291858Y-139258736D01*
X95235764Y-139468083D01*
X95235762Y-139468094D01*
X95234365Y-139473308D01*
X95214532Y-139700000D01*
X95215004Y-139705395D01*
X95231424Y-139893085D01*
X95234365Y-139926692D01*
X95235762Y-139931907D01*
X95235764Y-139931916D01*
X95291858Y-140141263D01*
X95291861Y-140141271D01*
X95293261Y-140146496D01*
X95295549Y-140151403D01*
X95295550Y-140151405D01*
X95314785Y-140192654D01*
X95389432Y-140352734D01*
X95392539Y-140357171D01*
X95392540Y-140357173D01*
X95397026Y-140363580D01*
X95519953Y-140539139D01*
X95680861Y-140700047D01*
X95710397Y-140720728D01*
X95841623Y-140812613D01*
X95880489Y-140856931D01*
X95894500Y-140914188D01*
X95894500Y-144058048D01*
X95885061Y-144105501D01*
X95858181Y-144145729D01*
X92277181Y-147726728D01*
X92227818Y-147756978D01*
X92170102Y-147761520D01*
X92116615Y-147739365D01*
X92079015Y-147695342D01*
X92065500Y-147639047D01*
X92065500Y-140914188D01*
X92079511Y-140856931D01*
X92118377Y-140812613D01*
X92148311Y-140791652D01*
X92279139Y-140700047D01*
X92440047Y-140539139D01*
X92570568Y-140352734D01*
X92666739Y-140146496D01*
X92725635Y-139926692D01*
X92745468Y-139700000D01*
X92725635Y-139473308D01*
X92711024Y-139418778D01*
X92668141Y-139258736D01*
X92668140Y-139258734D01*
X92666739Y-139253504D01*
X92570568Y-139047266D01*
X92440047Y-138860861D01*
X92279139Y-138699953D01*
X92092734Y-138569432D01*
X92087827Y-138567143D01*
X92087817Y-138567138D01*
X92054721Y-138551705D01*
X92008750Y-138514809D01*
X91985011Y-138460855D01*
X91988866Y-138402036D01*
X92019444Y-138351645D01*
X95172024Y-135199065D01*
X95222412Y-135168489D01*
X95281232Y-135164634D01*
X95335186Y-135188374D01*
X95372082Y-135234345D01*
X95387579Y-135267580D01*
X95392967Y-135276912D01*
X95517232Y-135454381D01*
X95524169Y-135462647D01*
X95677352Y-135615830D01*
X95685618Y-135622767D01*
X95863087Y-135747032D01*
X95872419Y-135752420D01*
X96068765Y-135843977D01*
X96078907Y-135847669D01*
X96256219Y-135895179D01*
X96267448Y-135895547D01*
X96270000Y-135884605D01*
X96770000Y-135884605D01*
X96772551Y-135895547D01*
X96783780Y-135895179D01*
X96961092Y-135847669D01*
X96971234Y-135843977D01*
X97167580Y-135752420D01*
X97176912Y-135747032D01*
X97354381Y-135622767D01*
X97362647Y-135615830D01*
X97515830Y-135462647D01*
X97522767Y-135454381D01*
X97647032Y-135276912D01*
X97652420Y-135267580D01*
X97743977Y-135071234D01*
X97747669Y-135061092D01*
X97795179Y-134883780D01*
X97795547Y-134872551D01*
X97784605Y-134870000D01*
X96786326Y-134870000D01*
X96773450Y-134873450D01*
X96770000Y-134886326D01*
X96770000Y-135884605D01*
X96270000Y-135884605D01*
X96270000Y-134494000D01*
X96286613Y-134432000D01*
X96332000Y-134386613D01*
X96394000Y-134370000D01*
X97784605Y-134370000D01*
X97795547Y-134367448D01*
X97795179Y-134356219D01*
X97747669Y-134178907D01*
X97743977Y-134168765D01*
X97652420Y-133972419D01*
X97647032Y-133963087D01*
X97522767Y-133785618D01*
X97515830Y-133777352D01*
X97362647Y-133624169D01*
X97354381Y-133617232D01*
X97176912Y-133492967D01*
X97167580Y-133487579D01*
X97134345Y-133472082D01*
X97088374Y-133435186D01*
X97064634Y-133381232D01*
X97068489Y-133322412D01*
X97099065Y-133272024D01*
X110329271Y-120041819D01*
X110369500Y-120014939D01*
X110416953Y-120005500D01*
X110545812Y-120005500D01*
X110603069Y-120019511D01*
X110647387Y-120058377D01*
X110759953Y-120219139D01*
X110920861Y-120380047D01*
X111107266Y-120510568D01*
X111313504Y-120606739D01*
X111318734Y-120608140D01*
X111318736Y-120608141D01*
X111494285Y-120655179D01*
X111533308Y-120665635D01*
X111760000Y-120685468D01*
X111986692Y-120665635D01*
X112206496Y-120606739D01*
X112412734Y-120510568D01*
X112599139Y-120380047D01*
X112760047Y-120219139D01*
X112890568Y-120032734D01*
X112986739Y-119826496D01*
X113045635Y-119606692D01*
X113065468Y-119380000D01*
X113045635Y-119153308D01*
X112986739Y-118933504D01*
X112890568Y-118727266D01*
X112760047Y-118540861D01*
X112599139Y-118379953D01*
X112412734Y-118249432D01*
X112206496Y-118153261D01*
X112201271Y-118151861D01*
X112201263Y-118151858D01*
X111991916Y-118095764D01*
X111991907Y-118095762D01*
X111986692Y-118094365D01*
X111981304Y-118093893D01*
X111981301Y-118093893D01*
X111765395Y-118075004D01*
X111760000Y-118074532D01*
X111754605Y-118075004D01*
X111538698Y-118093893D01*
X111538693Y-118093893D01*
X111533308Y-118094365D01*
X111528094Y-118095762D01*
X111528083Y-118095764D01*
X111318736Y-118151858D01*
X111318724Y-118151862D01*
X111313504Y-118153261D01*
X111308599Y-118155547D01*
X111308594Y-118155550D01*
X111112176Y-118247142D01*
X111112172Y-118247144D01*
X111107266Y-118249432D01*
X111102833Y-118252535D01*
X111102826Y-118252540D01*
X110925296Y-118376847D01*
X110925291Y-118376850D01*
X110920861Y-118379953D01*
X110917037Y-118383776D01*
X110917031Y-118383782D01*
X110763782Y-118537031D01*
X110763776Y-118537037D01*
X110759953Y-118540861D01*
X110756850Y-118545291D01*
X110756847Y-118545296D01*
X110647387Y-118701623D01*
X110603069Y-118740489D01*
X110545812Y-118754500D01*
X110184271Y-118754500D01*
X110173218Y-118753979D01*
X110165832Y-118752328D01*
X110158034Y-118752573D01*
X110098644Y-118754439D01*
X110094750Y-118754500D01*
X110067150Y-118754500D01*
X110063299Y-118754986D01*
X110063268Y-118754988D01*
X110063140Y-118755005D01*
X110051529Y-118755918D01*
X110015671Y-118757045D01*
X110015664Y-118757046D01*
X110007872Y-118757291D01*
X110000388Y-118759465D01*
X110000377Y-118759467D01*
X109988628Y-118762881D01*
X109969583Y-118766825D01*
X109957447Y-118768358D01*
X109957444Y-118768358D01*
X109949708Y-118769336D01*
X109942460Y-118772205D01*
X109942450Y-118772208D01*
X109909092Y-118785415D01*
X109898050Y-118789196D01*
X109863597Y-118799207D01*
X109863592Y-118799208D01*
X109856110Y-118801383D01*
X109849402Y-118805349D01*
X109849397Y-118805352D01*
X109838864Y-118811581D01*
X109821400Y-118820136D01*
X109810024Y-118824640D01*
X109810017Y-118824643D01*
X109802768Y-118827514D01*
X109796462Y-118832094D01*
X109796457Y-118832098D01*
X109767427Y-118853189D01*
X109757669Y-118859598D01*
X109726798Y-118877856D01*
X109720079Y-118881830D01*
X109714563Y-118887344D01*
X109714556Y-118887351D01*
X109705907Y-118896000D01*
X109691124Y-118908626D01*
X109681227Y-118915817D01*
X109681220Y-118915823D01*
X109674913Y-118920406D01*
X109669946Y-118926408D01*
X109669935Y-118926420D01*
X109647070Y-118954059D01*
X109639210Y-118962697D01*
X85390996Y-143210911D01*
X85382811Y-143218359D01*
X85376423Y-143222414D01*
X85371088Y-143228094D01*
X85371083Y-143228099D01*
X85330396Y-143271425D01*
X85327692Y-143274216D01*
X85310928Y-143290980D01*
X85310921Y-143290987D01*
X85308180Y-143293729D01*
X85305800Y-143296796D01*
X85305789Y-143296809D01*
X85305700Y-143296925D01*
X85298142Y-143305770D01*
X85273580Y-143331927D01*
X85273573Y-143331936D01*
X85268238Y-143337618D01*
X85264482Y-143344449D01*
X85264479Y-143344454D01*
X85258585Y-143355175D01*
X85247909Y-143371427D01*
X85240409Y-143381096D01*
X85240401Y-143381107D01*
X85235627Y-143387264D01*
X85232534Y-143394408D01*
X85232529Y-143394419D01*
X85218274Y-143427360D01*
X85213138Y-143437843D01*
X85192103Y-143476108D01*
X85190164Y-143483656D01*
X85190163Y-143483661D01*
X85187122Y-143495507D01*
X85180821Y-143513911D01*
X85175958Y-143525148D01*
X85175956Y-143525152D01*
X85172862Y-143532304D01*
X85171642Y-143540003D01*
X85171642Y-143540005D01*
X85166029Y-143575441D01*
X85163661Y-143586876D01*
X85154738Y-143621628D01*
X85154736Y-143621636D01*
X85152800Y-143629181D01*
X85152800Y-143636977D01*
X85152800Y-143649217D01*
X85151274Y-143668602D01*
X85148140Y-143688396D01*
X85148874Y-143696161D01*
X85148874Y-143696164D01*
X85152250Y-143731876D01*
X85152800Y-143743545D01*
X85152800Y-148035000D01*
X85136187Y-148097000D01*
X85090800Y-148142387D01*
X85028800Y-148159000D01*
X83908439Y-148159000D01*
X83908420Y-148159000D01*
X83905128Y-148159001D01*
X83901850Y-148159353D01*
X83901838Y-148159354D01*
X83853231Y-148164579D01*
X83853225Y-148164580D01*
X83845517Y-148165409D01*
X83838252Y-148168118D01*
X83838246Y-148168120D01*
X83718980Y-148212604D01*
X83718978Y-148212604D01*
X83710669Y-148215704D01*
X83703572Y-148221016D01*
X83703568Y-148221019D01*
X83602550Y-148296641D01*
X83602546Y-148296644D01*
X83595454Y-148301954D01*
X83590144Y-148309046D01*
X83590141Y-148309050D01*
X83514519Y-148410068D01*
X83514516Y-148410072D01*
X83509204Y-148417169D01*
X83506104Y-148425478D01*
X83506105Y-148425478D01*
X83486391Y-148478334D01*
X83459952Y-148520570D01*
X83419022Y-148548988D01*
X83370209Y-148559000D01*
X75834952Y-148559000D01*
X75787499Y-148549561D01*
X75747271Y-148522681D01*
X72815776Y-145591185D01*
X72789194Y-145551669D01*
X72779467Y-145505049D01*
X72788027Y-145458206D01*
X72845334Y-145312195D01*
X72905383Y-145049103D01*
X72925549Y-144780000D01*
X72905383Y-144510897D01*
X72845334Y-144247805D01*
X72746743Y-143996602D01*
X72611815Y-143762898D01*
X72443561Y-143551915D01*
X72273821Y-143394419D01*
X72249146Y-143371524D01*
X72249143Y-143371521D01*
X72245741Y-143368365D01*
X72241912Y-143365754D01*
X72241909Y-143365752D01*
X72107650Y-143274216D01*
X72022775Y-143216349D01*
X72011483Y-143210911D01*
X71783820Y-143101274D01*
X71783814Y-143101271D01*
X71779641Y-143099262D01*
X71775219Y-143097898D01*
X71775209Y-143097894D01*
X71526202Y-143021086D01*
X71526196Y-143021084D01*
X71521772Y-143019720D01*
X71517195Y-143019030D01*
X71517186Y-143019028D01*
X71259514Y-142980191D01*
X71259513Y-142980190D01*
X71254929Y-142979500D01*
X70985071Y-142979500D01*
X70980487Y-142980190D01*
X70980485Y-142980191D01*
X70722813Y-143019028D01*
X70722801Y-143019030D01*
X70718228Y-143019720D01*
X70713806Y-143021083D01*
X70713797Y-143021086D01*
X70464790Y-143097894D01*
X70464775Y-143097899D01*
X70460359Y-143099262D01*
X70456185Y-143101271D01*
X70456180Y-143101274D01*
X70221411Y-143214333D01*
X70221404Y-143214336D01*
X70217226Y-143216349D01*
X70213393Y-143218962D01*
X70213390Y-143218964D01*
X69998090Y-143365752D01*
X69998080Y-143365759D01*
X69994259Y-143368365D01*
X69990863Y-143371516D01*
X69990853Y-143371524D01*
X69799843Y-143548756D01*
X69799839Y-143548759D01*
X69796439Y-143551915D01*
X69793549Y-143555537D01*
X69793546Y-143555542D01*
X69631077Y-143759271D01*
X69628185Y-143762898D01*
X69625866Y-143766913D01*
X69625865Y-143766916D01*
X69495578Y-143992581D01*
X69495575Y-143992586D01*
X69493257Y-143996602D01*
X69491563Y-144000916D01*
X69491561Y-144000922D01*
X69434728Y-144145729D01*
X69394666Y-144247805D01*
X69393633Y-144252326D01*
X69393632Y-144252333D01*
X69335648Y-144506377D01*
X69335646Y-144506385D01*
X69334617Y-144510897D01*
X69334270Y-144515516D01*
X69334270Y-144515522D01*
X69318832Y-144721532D01*
X69314451Y-144780000D01*
X69334617Y-145049103D01*
X69335647Y-145053616D01*
X69335648Y-145053622D01*
X69388991Y-145287331D01*
X69394666Y-145312195D01*
X69396361Y-145316514D01*
X69396363Y-145316519D01*
X69463977Y-145488796D01*
X69493257Y-145563398D01*
X69628185Y-145797102D01*
X69796439Y-146008085D01*
X69994259Y-146191635D01*
X70217226Y-146343651D01*
X70460359Y-146460738D01*
X70464787Y-146462103D01*
X70464790Y-146462105D01*
X70518201Y-146478580D01*
X70718228Y-146540280D01*
X70985071Y-146580500D01*
X71250292Y-146580500D01*
X71254929Y-146580500D01*
X71521772Y-146540280D01*
X71779641Y-146460738D01*
X71792505Y-146454542D01*
X71841667Y-146442348D01*
X71891609Y-146450832D01*
X71933990Y-146478580D01*
X75027207Y-149571797D01*
X75034656Y-149579983D01*
X75038714Y-149586377D01*
X75044399Y-149591715D01*
X75044401Y-149591718D01*
X75087739Y-149632415D01*
X75090535Y-149635125D01*
X75110030Y-149654620D01*
X75113115Y-149657013D01*
X75113201Y-149657080D01*
X75122073Y-149664658D01*
X75153918Y-149694562D01*
X75160748Y-149698317D01*
X75160751Y-149698319D01*
X75171471Y-149704212D01*
X75187722Y-149714886D01*
X75203564Y-149727174D01*
X75210721Y-149730271D01*
X75210723Y-149730272D01*
X75243655Y-149744522D01*
X75254150Y-149749664D01*
X75292408Y-149770697D01*
X75311812Y-149775679D01*
X75330214Y-149781980D01*
X75341441Y-149786838D01*
X75348605Y-149789938D01*
X75386197Y-149795891D01*
X75391739Y-149796769D01*
X75403182Y-149799139D01*
X75437925Y-149808060D01*
X75437926Y-149808060D01*
X75445481Y-149810000D01*
X75465517Y-149810000D01*
X75484902Y-149811525D01*
X75504696Y-149814660D01*
X75542776Y-149811060D01*
X75548176Y-149810550D01*
X75559845Y-149810000D01*
X83370209Y-149810000D01*
X83419022Y-149820012D01*
X83459952Y-149848430D01*
X83486390Y-149890665D01*
X83509204Y-149951831D01*
X83514516Y-149958927D01*
X83516814Y-149963135D01*
X83531801Y-150015897D01*
X83524322Y-150059657D01*
X83525977Y-150060159D01*
X83469106Y-150247636D01*
X83469104Y-150247643D01*
X83467338Y-150253467D01*
X83466741Y-150259523D01*
X83466740Y-150259531D01*
X83454135Y-150387515D01*
X83447538Y-150454500D01*
X83448135Y-150460561D01*
X83466740Y-150649468D01*
X83466741Y-150649474D01*
X83467338Y-150655533D01*
X83469105Y-150661358D01*
X83469106Y-150661363D01*
X83510655Y-150798331D01*
X83525977Y-150848841D01*
X83528846Y-150854209D01*
X83528848Y-150854213D01*
X83621202Y-151026994D01*
X83620557Y-151027338D01*
X83636469Y-151065755D01*
X83636474Y-151114123D01*
X83620847Y-151151872D01*
X83621620Y-151152285D01*
X83529313Y-151324976D01*
X83524672Y-151336182D01*
X83486929Y-151460602D01*
X83486236Y-151471887D01*
X83497238Y-151474500D01*
X84365685Y-151474500D01*
X84377838Y-151475096D01*
X84427620Y-151480000D01*
X84975330Y-151480000D01*
X84978380Y-151480000D01*
X85028161Y-151475096D01*
X85040315Y-151474500D01*
X85908762Y-151474500D01*
X85919763Y-151471887D01*
X85919070Y-151460602D01*
X85881327Y-151336182D01*
X85876686Y-151324976D01*
X85835223Y-151247405D01*
X85820584Y-151189802D01*
X85834431Y-151132004D01*
X85873583Y-151087288D01*
X85920122Y-151069364D01*
X85919793Y-151068083D01*
X85927354Y-151066141D01*
X85935092Y-151065164D01*
X85942346Y-151062291D01*
X85942349Y-151062291D01*
X85986677Y-151044740D01*
X85994000Y-151042103D01*
X86046741Y-151024967D01*
X86053629Y-151020594D01*
X86074433Y-151009994D01*
X86082032Y-151006986D01*
X86126931Y-150974364D01*
X86133326Y-150970017D01*
X86180177Y-150940286D01*
X86185758Y-150934341D01*
X86203283Y-150918891D01*
X86209887Y-150914094D01*
X86245241Y-150871357D01*
X86250378Y-150865529D01*
X86288362Y-150825082D01*
X86292296Y-150817926D01*
X86305422Y-150798609D01*
X86310624Y-150792323D01*
X86334248Y-150742118D01*
X86337760Y-150735224D01*
X86364497Y-150686592D01*
X86366526Y-150678685D01*
X86374439Y-150656709D01*
X86377914Y-150649326D01*
X86388310Y-150594825D01*
X86389998Y-150587268D01*
X86403800Y-150533519D01*
X86403800Y-150525349D01*
X86405996Y-150502114D01*
X86406066Y-150501746D01*
X86407527Y-150494088D01*
X86404045Y-150438741D01*
X86403800Y-150430955D01*
X86403800Y-144018652D01*
X86413239Y-143971199D01*
X86440119Y-143930971D01*
X88175522Y-142195568D01*
X90091645Y-140279444D01*
X90142036Y-140248866D01*
X90200855Y-140245011D01*
X90254809Y-140268750D01*
X90291705Y-140314721D01*
X90307138Y-140347817D01*
X90307143Y-140347827D01*
X90309432Y-140352734D01*
X90312539Y-140357171D01*
X90312540Y-140357173D01*
X90317026Y-140363580D01*
X90439953Y-140539139D01*
X90600861Y-140700047D01*
X90630397Y-140720728D01*
X90761623Y-140812613D01*
X90800489Y-140856931D01*
X90814500Y-140914188D01*
X90814500Y-147528247D01*
X90805061Y-147575700D01*
X90778181Y-147615928D01*
X86016052Y-152378056D01*
X85954945Y-152411494D01*
X85885452Y-152406711D01*
X85829503Y-152365216D01*
X85804753Y-152300103D01*
X85819013Y-152231921D01*
X85876686Y-152124023D01*
X85881327Y-152112817D01*
X85919070Y-151988397D01*
X85919763Y-151977112D01*
X85908762Y-151974500D01*
X84969326Y-151974500D01*
X84956450Y-151977950D01*
X84953000Y-151990826D01*
X84953000Y-152733174D01*
X84956450Y-152746049D01*
X84969326Y-152749500D01*
X84975311Y-152749500D01*
X84981395Y-152749201D01*
X85122870Y-152735267D01*
X85134765Y-152732901D01*
X85316317Y-152677827D01*
X85327523Y-152673186D01*
X85435421Y-152615513D01*
X85503603Y-152601253D01*
X85568716Y-152626003D01*
X85610211Y-152681952D01*
X85614994Y-152751445D01*
X85581556Y-152812552D01*
X82238696Y-156155411D01*
X82230511Y-156162859D01*
X82224123Y-156166914D01*
X82218788Y-156172594D01*
X82218783Y-156172599D01*
X82178096Y-156215925D01*
X82175392Y-156218716D01*
X82158628Y-156235480D01*
X82158621Y-156235487D01*
X82155880Y-156238229D01*
X82153500Y-156241296D01*
X82153489Y-156241309D01*
X82153400Y-156241425D01*
X82145842Y-156250270D01*
X82121280Y-156276427D01*
X82121273Y-156276436D01*
X82115938Y-156282118D01*
X82112182Y-156288949D01*
X82112179Y-156288954D01*
X82106285Y-156299675D01*
X82095609Y-156315927D01*
X82088109Y-156325596D01*
X82088101Y-156325607D01*
X82083327Y-156331764D01*
X82080234Y-156338908D01*
X82080229Y-156338919D01*
X82065974Y-156371860D01*
X82060838Y-156382343D01*
X82039803Y-156420608D01*
X82037864Y-156428156D01*
X82037863Y-156428161D01*
X82034822Y-156440007D01*
X82028521Y-156458411D01*
X82023658Y-156469648D01*
X82023656Y-156469652D01*
X82020562Y-156476804D01*
X82019342Y-156484503D01*
X82019342Y-156484505D01*
X82013729Y-156519941D01*
X82011361Y-156531376D01*
X82002438Y-156566128D01*
X82002436Y-156566136D01*
X82000500Y-156573681D01*
X82000500Y-156581477D01*
X82000500Y-156593717D01*
X81998974Y-156613102D01*
X81995840Y-156632896D01*
X81996574Y-156640661D01*
X81996574Y-156640664D01*
X81999950Y-156676376D01*
X82000500Y-156688045D01*
X82000500Y-171448225D01*
X81999978Y-171459280D01*
X81998327Y-171466667D01*
X81998571Y-171474453D01*
X81998571Y-171474461D01*
X82000439Y-171533873D01*
X82000500Y-171537768D01*
X82000500Y-171565350D01*
X82000988Y-171569219D01*
X82000989Y-171569225D01*
X82001004Y-171569343D01*
X82001918Y-171580966D01*
X82003045Y-171616830D01*
X82003046Y-171616837D01*
X82003291Y-171624627D01*
X82005467Y-171632119D01*
X82005468Y-171632121D01*
X82008879Y-171643862D01*
X82012825Y-171662915D01*
X82015336Y-171682792D01*
X82018206Y-171690042D01*
X82018208Y-171690048D01*
X82031414Y-171723404D01*
X82035197Y-171734451D01*
X82047382Y-171776390D01*
X82051353Y-171783105D01*
X82051354Y-171783107D01*
X82057581Y-171793637D01*
X82066136Y-171811099D01*
X82070642Y-171822480D01*
X82070643Y-171822483D01*
X82073514Y-171829732D01*
X82084439Y-171844769D01*
X82099181Y-171865060D01*
X82105593Y-171874822D01*
X82123856Y-171905702D01*
X82123859Y-171905707D01*
X82127830Y-171912420D01*
X82133345Y-171917935D01*
X82141990Y-171926580D01*
X82154626Y-171941374D01*
X82161819Y-171951275D01*
X82161823Y-171951279D01*
X82166406Y-171957587D01*
X82172415Y-171962558D01*
X82172416Y-171962559D01*
X82200058Y-171985426D01*
X82208699Y-171993289D01*
X82479762Y-172264352D01*
X82511856Y-172319939D01*
X82511856Y-172384126D01*
X82486337Y-172479365D01*
X82486336Y-172479369D01*
X82484937Y-172484592D01*
X82484465Y-172489977D01*
X82484465Y-172489982D01*
X82468228Y-172675568D01*
X82464341Y-172720000D01*
X82464813Y-172725395D01*
X82477798Y-172873819D01*
X82484937Y-172955408D01*
X82486336Y-172960630D01*
X82486337Y-172960634D01*
X82544694Y-173178430D01*
X82544697Y-173178438D01*
X82546097Y-173183663D01*
X82548385Y-173188570D01*
X82548386Y-173188572D01*
X82643678Y-173392927D01*
X82643681Y-173392933D01*
X82645965Y-173397830D01*
X82649064Y-173402257D01*
X82649066Y-173402259D01*
X82778399Y-173586966D01*
X82778402Y-173586970D01*
X82781505Y-173591401D01*
X82948599Y-173758495D01*
X82953032Y-173761599D01*
X82953038Y-173761604D01*
X83134158Y-173888425D01*
X83173024Y-173932743D01*
X83187035Y-173990000D01*
X83173024Y-174047257D01*
X83134159Y-174091575D01*
X82953041Y-174218395D01*
X82948599Y-174221505D01*
X82944775Y-174225328D01*
X82944769Y-174225334D01*
X82785334Y-174384769D01*
X82785328Y-174384775D01*
X82781505Y-174388599D01*
X82778402Y-174393029D01*
X82778399Y-174393034D01*
X82649073Y-174577731D01*
X82649070Y-174577737D01*
X82645965Y-174582171D01*
X82631577Y-174613025D01*
X82605715Y-174668486D01*
X82568819Y-174714456D01*
X82514865Y-174738196D01*
X82456045Y-174734341D01*
X82405652Y-174703761D01*
X73407119Y-165705228D01*
X73380239Y-165665000D01*
X73370800Y-165617547D01*
X73370800Y-163348371D01*
X73371320Y-163337318D01*
X73372972Y-163329932D01*
X73370861Y-163262744D01*
X73370800Y-163258850D01*
X73370800Y-163235145D01*
X73370800Y-163231250D01*
X73370298Y-163227281D01*
X73369380Y-163215624D01*
X73368009Y-163171973D01*
X73362419Y-163152735D01*
X73358475Y-163133691D01*
X73355964Y-163113808D01*
X73339882Y-163073191D01*
X73336098Y-163062139D01*
X73323917Y-163020210D01*
X73319945Y-163013494D01*
X73319943Y-163013489D01*
X73313722Y-163002970D01*
X73305160Y-162985492D01*
X73300660Y-162974127D01*
X73300659Y-162974126D01*
X73297786Y-162966868D01*
X73272112Y-162931531D01*
X73265709Y-162921784D01*
X73243470Y-162884179D01*
X73229305Y-162870014D01*
X73216668Y-162855218D01*
X73209484Y-162845329D01*
X73209478Y-162845323D01*
X73204894Y-162839013D01*
X73171246Y-162811177D01*
X73162605Y-162803314D01*
X72390897Y-162031606D01*
X72361063Y-161983499D01*
X72355719Y-161927145D01*
X72375979Y-161874287D01*
X72417621Y-161835943D01*
X72467954Y-161821270D01*
X72467872Y-161820499D01*
X72527483Y-161814091D01*
X72662331Y-161763796D01*
X72777546Y-161677546D01*
X72863796Y-161562331D01*
X72914091Y-161427483D01*
X72920500Y-161367873D01*
X72920499Y-158672128D01*
X72914091Y-158612517D01*
X72863796Y-158477669D01*
X72777546Y-158362454D01*
X72678136Y-158288036D01*
X72669431Y-158281519D01*
X72669430Y-158281518D01*
X72662331Y-158276204D01*
X72563644Y-158239396D01*
X72534752Y-158228620D01*
X72534750Y-158228619D01*
X72527483Y-158225909D01*
X72519770Y-158225079D01*
X72519767Y-158225079D01*
X72471180Y-158219855D01*
X72471169Y-158219854D01*
X72467873Y-158219500D01*
X72464550Y-158219500D01*
X69775439Y-158219500D01*
X69775420Y-158219500D01*
X69772128Y-158219501D01*
X69768850Y-158219853D01*
X69768838Y-158219854D01*
X69720231Y-158225079D01*
X69720225Y-158225080D01*
X69712517Y-158225909D01*
X69705252Y-158228618D01*
X69705246Y-158228620D01*
X69585980Y-158273104D01*
X69585978Y-158273104D01*
X69577669Y-158276204D01*
X69570572Y-158281516D01*
X69570568Y-158281519D01*
X69469550Y-158357141D01*
X69469546Y-158357144D01*
X69462454Y-158362454D01*
X69457144Y-158369546D01*
X69457141Y-158369550D01*
X69381519Y-158470568D01*
X69381516Y-158470572D01*
X69376204Y-158477669D01*
X69373104Y-158485978D01*
X69373104Y-158485980D01*
X69328620Y-158605247D01*
X69328619Y-158605250D01*
X69325909Y-158612517D01*
X69325079Y-158620227D01*
X69325079Y-158620232D01*
X69319855Y-158668819D01*
X69319854Y-158668831D01*
X69319500Y-158672127D01*
X69319500Y-158675448D01*
X69319500Y-158675449D01*
X69319500Y-161364560D01*
X69319500Y-161364578D01*
X69319501Y-161367872D01*
X69319853Y-161371150D01*
X69319854Y-161371161D01*
X69325079Y-161419768D01*
X69325080Y-161419773D01*
X69325909Y-161427483D01*
X69328619Y-161434749D01*
X69328620Y-161434753D01*
X69359817Y-161518395D01*
X69376204Y-161562331D01*
X69462454Y-161677546D01*
X69577669Y-161763796D01*
X69712517Y-161814091D01*
X69772127Y-161820500D01*
X70428456Y-161820499D01*
X70475307Y-161829691D01*
X70515212Y-161855903D01*
X70540520Y-161892723D01*
X70541382Y-161895690D01*
X70545350Y-161902400D01*
X70545352Y-161902404D01*
X70551581Y-161912937D01*
X70560136Y-161930399D01*
X70564642Y-161941780D01*
X70564643Y-161941783D01*
X70567514Y-161949032D01*
X70589440Y-161979212D01*
X70593181Y-161984360D01*
X70599593Y-161994122D01*
X70617856Y-162025002D01*
X70617859Y-162025007D01*
X70621830Y-162031720D01*
X70627345Y-162037235D01*
X70635990Y-162045880D01*
X70648626Y-162060674D01*
X70655819Y-162070575D01*
X70655823Y-162070579D01*
X70660406Y-162076887D01*
X70666415Y-162081858D01*
X70666416Y-162081859D01*
X70694058Y-162104726D01*
X70702699Y-162112589D01*
X71758294Y-163168185D01*
X71790625Y-163224669D01*
X71789894Y-163289748D01*
X71756305Y-163345493D01*
X71699109Y-163376547D01*
X71634064Y-163374357D01*
X71526206Y-163341087D01*
X71526197Y-163341084D01*
X71521772Y-163339720D01*
X71517195Y-163339030D01*
X71517186Y-163339028D01*
X71259514Y-163300191D01*
X71259513Y-163300190D01*
X71254929Y-163299500D01*
X70985071Y-163299500D01*
X70980487Y-163300190D01*
X70980485Y-163300191D01*
X70722813Y-163339028D01*
X70722801Y-163339030D01*
X70718228Y-163339720D01*
X70713806Y-163341083D01*
X70713797Y-163341086D01*
X70464790Y-163417894D01*
X70464775Y-163417899D01*
X70460359Y-163419262D01*
X70456185Y-163421271D01*
X70456180Y-163421274D01*
X70221411Y-163534333D01*
X70221404Y-163534336D01*
X70217226Y-163536349D01*
X70213393Y-163538962D01*
X70213390Y-163538964D01*
X69998090Y-163685752D01*
X69998080Y-163685759D01*
X69994259Y-163688365D01*
X69990863Y-163691516D01*
X69990853Y-163691524D01*
X69799843Y-163868756D01*
X69799839Y-163868759D01*
X69796439Y-163871915D01*
X69793549Y-163875537D01*
X69793546Y-163875542D01*
X69642190Y-164065336D01*
X69628185Y-164082898D01*
X69625866Y-164086913D01*
X69625865Y-164086916D01*
X69495578Y-164312581D01*
X69495575Y-164312586D01*
X69493257Y-164316602D01*
X69491563Y-164320916D01*
X69491561Y-164320922D01*
X69439714Y-164453025D01*
X69394666Y-164567805D01*
X69393633Y-164572326D01*
X69393632Y-164572333D01*
X69335648Y-164826377D01*
X69335646Y-164826385D01*
X69334617Y-164830897D01*
X69334270Y-164835516D01*
X69334270Y-164835522D01*
X69332092Y-164864592D01*
X69314451Y-165100000D01*
X69314798Y-165104631D01*
X69332483Y-165340634D01*
X69334617Y-165369103D01*
X69335647Y-165373616D01*
X69335648Y-165373622D01*
X69393632Y-165627666D01*
X69394666Y-165632195D01*
X69493257Y-165883398D01*
X69628185Y-166117102D01*
X69796439Y-166328085D01*
X69799843Y-166331243D01*
X69990608Y-166508248D01*
X69994259Y-166511635D01*
X70217226Y-166663651D01*
X70460359Y-166780738D01*
X70464787Y-166782103D01*
X70464790Y-166782105D01*
X70589293Y-166820509D01*
X70718228Y-166860280D01*
X70985071Y-166900500D01*
X71250292Y-166900500D01*
X71254929Y-166900500D01*
X71521772Y-166860280D01*
X71779641Y-166780738D01*
X72022775Y-166663651D01*
X72245741Y-166511635D01*
X72261196Y-166497294D01*
X72316439Y-166467654D01*
X72379122Y-166468825D01*
X72433219Y-166500509D01*
X77595624Y-171662915D01*
X82740797Y-176808088D01*
X82770822Y-176856765D01*
X82775807Y-176913740D01*
X82754691Y-176966892D01*
X82646349Y-177121623D01*
X82602031Y-177160489D01*
X82544774Y-177174500D01*
X73970453Y-177174500D01*
X73923000Y-177165061D01*
X73882772Y-177138181D01*
X72815776Y-176071185D01*
X72789194Y-176031669D01*
X72779467Y-175985049D01*
X72788027Y-175938206D01*
X72845334Y-175792195D01*
X72905383Y-175529103D01*
X72925549Y-175260000D01*
X72905383Y-174990897D01*
X72845334Y-174727805D01*
X72746743Y-174476602D01*
X72611815Y-174242898D01*
X72443561Y-174031915D01*
X72294962Y-173894035D01*
X72249146Y-173851524D01*
X72249143Y-173851521D01*
X72245741Y-173848365D01*
X72241912Y-173845754D01*
X72241909Y-173845752D01*
X72026610Y-173698964D01*
X72022775Y-173696349D01*
X72018589Y-173694333D01*
X71783820Y-173581274D01*
X71783814Y-173581271D01*
X71779641Y-173579262D01*
X71775219Y-173577898D01*
X71775209Y-173577894D01*
X71526202Y-173501086D01*
X71526196Y-173501084D01*
X71521772Y-173499720D01*
X71517195Y-173499030D01*
X71517186Y-173499028D01*
X71259514Y-173460191D01*
X71259513Y-173460190D01*
X71254929Y-173459500D01*
X70985071Y-173459500D01*
X70980487Y-173460190D01*
X70980485Y-173460191D01*
X70722813Y-173499028D01*
X70722801Y-173499030D01*
X70718228Y-173499720D01*
X70713806Y-173501083D01*
X70713797Y-173501086D01*
X70464790Y-173577894D01*
X70464775Y-173577899D01*
X70460359Y-173579262D01*
X70456185Y-173581271D01*
X70456180Y-173581274D01*
X70221411Y-173694333D01*
X70221404Y-173694336D01*
X70217226Y-173696349D01*
X70213393Y-173698962D01*
X70213390Y-173698964D01*
X69998090Y-173845752D01*
X69998080Y-173845759D01*
X69994259Y-173848365D01*
X69990863Y-173851516D01*
X69990853Y-173851524D01*
X69799843Y-174028756D01*
X69799839Y-174028759D01*
X69796439Y-174031915D01*
X69793549Y-174035537D01*
X69793546Y-174035542D01*
X69642190Y-174225336D01*
X69628185Y-174242898D01*
X69625866Y-174246913D01*
X69625865Y-174246916D01*
X69495578Y-174472581D01*
X69495575Y-174472586D01*
X69493257Y-174476602D01*
X69491563Y-174480916D01*
X69491561Y-174480922D01*
X69399905Y-174714456D01*
X69394666Y-174727805D01*
X69393633Y-174732326D01*
X69393632Y-174732333D01*
X69335648Y-174986377D01*
X69335646Y-174986385D01*
X69334617Y-174990897D01*
X69334270Y-174995516D01*
X69334270Y-174995522D01*
X69332092Y-175024592D01*
X69314451Y-175260000D01*
X66040500Y-175260000D01*
X66040500Y-171618350D01*
X70038604Y-171618350D01*
X70046150Y-171626408D01*
X70213641Y-171740601D01*
X70221662Y-171745232D01*
X70456362Y-171858258D01*
X70464973Y-171861638D01*
X70713908Y-171938424D01*
X70722924Y-171940482D01*
X70980523Y-171979308D01*
X70989746Y-171980000D01*
X71250254Y-171980000D01*
X71259476Y-171979308D01*
X71517075Y-171940482D01*
X71526091Y-171938424D01*
X71775027Y-171861637D01*
X71783637Y-171858258D01*
X72018340Y-171745231D01*
X72026359Y-171740601D01*
X72193846Y-171626409D01*
X72201394Y-171618350D01*
X72195477Y-171609030D01*
X71131542Y-170545095D01*
X71120000Y-170538431D01*
X71108457Y-170545095D01*
X70044521Y-171609030D01*
X70038604Y-171618350D01*
X66040500Y-171618350D01*
X66040500Y-170184630D01*
X69315300Y-170184630D01*
X69334767Y-170444399D01*
X69336146Y-170453552D01*
X69394111Y-170707515D01*
X69396844Y-170716375D01*
X69492011Y-170958856D01*
X69496030Y-170967202D01*
X69626278Y-171192798D01*
X69631496Y-171200450D01*
X69671379Y-171250462D01*
X69682615Y-171258435D01*
X69694674Y-171251771D01*
X70754904Y-170191542D01*
X70761568Y-170180000D01*
X71478431Y-170180000D01*
X71485095Y-170191542D01*
X72545325Y-171251772D01*
X72557382Y-171258436D01*
X72568619Y-171250463D01*
X72608507Y-171200445D01*
X72613719Y-171192800D01*
X72743969Y-170967202D01*
X72747988Y-170958856D01*
X72843155Y-170716375D01*
X72845888Y-170707515D01*
X72903853Y-170453552D01*
X72905232Y-170444399D01*
X72924700Y-170184630D01*
X72924700Y-170175370D01*
X72905232Y-169915600D01*
X72903853Y-169906447D01*
X72845888Y-169652484D01*
X72843155Y-169643624D01*
X72747988Y-169401143D01*
X72743969Y-169392797D01*
X72613721Y-169167201D01*
X72608503Y-169159549D01*
X72568619Y-169109536D01*
X72557382Y-169101562D01*
X72545325Y-169108226D01*
X71485095Y-170168457D01*
X71478431Y-170180000D01*
X70761568Y-170180000D01*
X70754904Y-170168457D01*
X69694674Y-169108227D01*
X69682615Y-169101562D01*
X69671380Y-169109534D01*
X69631488Y-169159558D01*
X69626282Y-169167195D01*
X69496030Y-169392797D01*
X69492011Y-169401143D01*
X69396844Y-169643624D01*
X69394111Y-169652484D01*
X69336146Y-169906447D01*
X69334767Y-169915600D01*
X69315300Y-170175370D01*
X69315300Y-170184630D01*
X66040500Y-170184630D01*
X66040500Y-168741648D01*
X70038603Y-168741648D01*
X70044519Y-168750966D01*
X71108457Y-169814904D01*
X71120000Y-169821568D01*
X71131542Y-169814904D01*
X72195477Y-168750968D01*
X72201394Y-168741648D01*
X72193846Y-168733589D01*
X72026360Y-168619398D01*
X72018340Y-168614768D01*
X71783637Y-168501741D01*
X71775027Y-168498362D01*
X71526091Y-168421575D01*
X71517075Y-168419517D01*
X71259476Y-168380691D01*
X71250254Y-168380000D01*
X70989746Y-168380000D01*
X70980523Y-168380691D01*
X70722924Y-168419517D01*
X70713908Y-168421575D01*
X70464973Y-168498361D01*
X70456362Y-168501741D01*
X70221660Y-168614768D01*
X70213639Y-168619399D01*
X70046151Y-168733590D01*
X70038603Y-168741648D01*
X66040500Y-168741648D01*
X66040500Y-151977112D01*
X83486236Y-151977112D01*
X83486929Y-151988397D01*
X83524672Y-152112817D01*
X83529313Y-152124023D01*
X83618749Y-152291344D01*
X83625483Y-152301422D01*
X83745845Y-152448085D01*
X83754414Y-152456654D01*
X83901077Y-152577016D01*
X83911155Y-152583750D01*
X84078476Y-152673186D01*
X84089682Y-152677827D01*
X84271234Y-152732901D01*
X84283129Y-152735267D01*
X84424604Y-152749201D01*
X84430689Y-152749500D01*
X84436674Y-152749500D01*
X84449549Y-152746049D01*
X84453000Y-152733174D01*
X84453000Y-151990826D01*
X84449549Y-151977950D01*
X84436674Y-151974500D01*
X83497238Y-151974500D01*
X83486236Y-151977112D01*
X66040500Y-151977112D01*
X66040500Y-151298350D01*
X70038604Y-151298350D01*
X70046150Y-151306408D01*
X70213641Y-151420601D01*
X70221662Y-151425232D01*
X70456362Y-151538258D01*
X70464973Y-151541638D01*
X70713908Y-151618424D01*
X70722924Y-151620482D01*
X70980523Y-151659308D01*
X70989746Y-151660000D01*
X71250254Y-151660000D01*
X71259476Y-151659308D01*
X71517075Y-151620482D01*
X71526091Y-151618424D01*
X71775027Y-151541637D01*
X71783637Y-151538258D01*
X72018340Y-151425231D01*
X72026359Y-151420601D01*
X72193846Y-151306409D01*
X72201394Y-151298350D01*
X72195477Y-151289030D01*
X71131542Y-150225095D01*
X71119999Y-150218431D01*
X71108457Y-150225095D01*
X70044521Y-151289030D01*
X70038604Y-151298350D01*
X66040500Y-151298350D01*
X66040500Y-149864630D01*
X69315300Y-149864630D01*
X69334767Y-150124399D01*
X69336146Y-150133552D01*
X69394111Y-150387515D01*
X69396844Y-150396375D01*
X69492011Y-150638856D01*
X69496030Y-150647202D01*
X69626278Y-150872798D01*
X69631496Y-150880450D01*
X69671379Y-150930462D01*
X69682615Y-150938435D01*
X69694674Y-150931771D01*
X70754904Y-149871542D01*
X70761568Y-149860000D01*
X71478431Y-149860000D01*
X71485095Y-149871542D01*
X72545325Y-150931772D01*
X72557382Y-150938436D01*
X72568619Y-150930463D01*
X72608507Y-150880445D01*
X72613719Y-150872800D01*
X72743969Y-150647202D01*
X72747988Y-150638856D01*
X72843155Y-150396375D01*
X72845888Y-150387515D01*
X72903853Y-150133552D01*
X72905232Y-150124399D01*
X72924700Y-149864630D01*
X72924700Y-149855370D01*
X72905232Y-149595600D01*
X72903853Y-149586447D01*
X72845888Y-149332484D01*
X72843155Y-149323624D01*
X72747988Y-149081143D01*
X72743969Y-149072797D01*
X72613721Y-148847201D01*
X72608503Y-148839549D01*
X72568619Y-148789536D01*
X72557382Y-148781562D01*
X72545325Y-148788226D01*
X71485095Y-149848457D01*
X71478431Y-149860000D01*
X70761568Y-149860000D01*
X70754904Y-149848457D01*
X69694674Y-148788227D01*
X69682615Y-148781562D01*
X69671380Y-148789534D01*
X69631488Y-148839558D01*
X69626282Y-148847195D01*
X69496030Y-149072797D01*
X69492011Y-149081143D01*
X69396844Y-149323624D01*
X69394111Y-149332484D01*
X69336146Y-149586447D01*
X69334767Y-149595600D01*
X69315300Y-149855370D01*
X69315300Y-149864630D01*
X66040500Y-149864630D01*
X66040500Y-148421648D01*
X70038603Y-148421648D01*
X70044519Y-148430966D01*
X71108457Y-149494904D01*
X71120000Y-149501568D01*
X71131542Y-149494904D01*
X72195477Y-148430968D01*
X72201394Y-148421648D01*
X72193846Y-148413589D01*
X72026360Y-148299398D01*
X72018340Y-148294768D01*
X71783637Y-148181741D01*
X71775027Y-148178362D01*
X71526091Y-148101575D01*
X71517075Y-148099517D01*
X71259476Y-148060691D01*
X71250254Y-148060000D01*
X70989746Y-148060000D01*
X70980523Y-148060691D01*
X70722924Y-148099517D01*
X70713908Y-148101575D01*
X70464973Y-148178361D01*
X70456362Y-148181741D01*
X70221660Y-148294768D01*
X70213639Y-148299399D01*
X70046151Y-148413590D01*
X70038603Y-148421648D01*
X66040500Y-148421648D01*
X66040500Y-139700000D01*
X69314451Y-139700000D01*
X69314798Y-139704631D01*
X69333376Y-139952551D01*
X69334617Y-139969103D01*
X69335647Y-139973616D01*
X69335648Y-139973622D01*
X69393632Y-140227666D01*
X69394666Y-140232195D01*
X69396362Y-140236518D01*
X69396363Y-140236519D01*
X69491559Y-140479073D01*
X69493257Y-140483398D01*
X69628185Y-140717102D01*
X69796439Y-140928085D01*
X69994259Y-141111635D01*
X70217226Y-141263651D01*
X70460359Y-141380738D01*
X70464787Y-141382103D01*
X70464790Y-141382105D01*
X70589293Y-141420508D01*
X70718228Y-141460280D01*
X70985071Y-141500500D01*
X71250292Y-141500500D01*
X71254929Y-141500500D01*
X71521772Y-141460280D01*
X71779641Y-141380738D01*
X72022775Y-141263651D01*
X72245741Y-141111635D01*
X72443561Y-140928085D01*
X72611815Y-140717102D01*
X72746743Y-140483398D01*
X72777827Y-140404197D01*
X72804487Y-140362919D01*
X72845089Y-140335237D01*
X72893255Y-140325500D01*
X85156925Y-140325500D01*
X85167980Y-140326021D01*
X85175367Y-140327673D01*
X85242572Y-140325561D01*
X85246468Y-140325500D01*
X85270148Y-140325500D01*
X85274050Y-140325500D01*
X85278013Y-140324999D01*
X85289663Y-140324080D01*
X85333327Y-140322709D01*
X85352561Y-140317119D01*
X85371617Y-140313174D01*
X85391492Y-140310664D01*
X85432095Y-140294587D01*
X85443150Y-140290802D01*
X85485090Y-140278618D01*
X85502329Y-140268422D01*
X85519803Y-140259862D01*
X85531174Y-140255360D01*
X85531176Y-140255358D01*
X85538432Y-140252486D01*
X85573769Y-140226811D01*
X85583524Y-140220403D01*
X85621120Y-140198170D01*
X85635284Y-140184005D01*
X85650079Y-140171368D01*
X85666287Y-140159594D01*
X85694128Y-140125938D01*
X85701979Y-140117309D01*
X105552372Y-120266916D01*
X105607957Y-120234824D01*
X105672145Y-120234824D01*
X105727732Y-120266918D01*
X105840861Y-120380047D01*
X106027266Y-120510568D01*
X106233504Y-120606739D01*
X106238734Y-120608140D01*
X106238736Y-120608141D01*
X106414285Y-120655179D01*
X106453308Y-120665635D01*
X106680000Y-120685468D01*
X106906692Y-120665635D01*
X107126496Y-120606739D01*
X107332734Y-120510568D01*
X107519139Y-120380047D01*
X107680047Y-120219139D01*
X107810568Y-120032734D01*
X107906739Y-119826496D01*
X107965635Y-119606692D01*
X107985468Y-119380000D01*
X107965635Y-119153308D01*
X107906739Y-118933504D01*
X107810568Y-118727266D01*
X107680047Y-118540861D01*
X107519139Y-118379953D01*
X107332734Y-118249432D01*
X107126496Y-118153261D01*
X107121271Y-118151861D01*
X107121263Y-118151858D01*
X106911916Y-118095764D01*
X106911907Y-118095762D01*
X106906692Y-118094365D01*
X106901304Y-118093893D01*
X106901301Y-118093893D01*
X106685395Y-118075004D01*
X106680000Y-118074532D01*
X106674605Y-118075004D01*
X106458698Y-118093893D01*
X106458693Y-118093893D01*
X106453308Y-118094365D01*
X106448094Y-118095762D01*
X106448083Y-118095764D01*
X106238736Y-118151858D01*
X106238724Y-118151862D01*
X106233504Y-118153261D01*
X106228599Y-118155547D01*
X106228594Y-118155550D01*
X106032176Y-118247142D01*
X106032172Y-118247144D01*
X106027266Y-118249432D01*
X106022833Y-118252535D01*
X106022826Y-118252540D01*
X105845296Y-118376847D01*
X105845291Y-118376850D01*
X105840861Y-118379953D01*
X105837037Y-118383776D01*
X105837031Y-118383782D01*
X105683782Y-118537031D01*
X105683776Y-118537037D01*
X105679953Y-118540861D01*
X105676851Y-118545290D01*
X105676851Y-118545291D01*
X105565652Y-118704100D01*
X105523059Y-118742050D01*
X105467983Y-118756914D01*
X105463875Y-118757043D01*
X105463861Y-118757045D01*
X105456073Y-118757290D01*
X105448588Y-118759464D01*
X105448584Y-118759465D01*
X105436825Y-118762881D01*
X105417787Y-118766823D01*
X105405649Y-118768357D01*
X105405641Y-118768358D01*
X105397908Y-118769336D01*
X105390660Y-118772205D01*
X105390654Y-118772207D01*
X105357297Y-118785413D01*
X105346254Y-118789194D01*
X105311800Y-118799205D01*
X105311794Y-118799207D01*
X105304310Y-118801382D01*
X105297598Y-118805351D01*
X105297596Y-118805352D01*
X105287064Y-118811580D01*
X105269604Y-118820134D01*
X105258219Y-118824642D01*
X105258213Y-118824644D01*
X105250968Y-118827514D01*
X105244663Y-118832094D01*
X105244655Y-118832099D01*
X105215632Y-118853185D01*
X105205874Y-118859595D01*
X105174996Y-118877857D01*
X105174990Y-118877861D01*
X105168280Y-118881830D01*
X105162767Y-118887341D01*
X105162760Y-118887348D01*
X105154110Y-118895998D01*
X105139327Y-118908624D01*
X105129426Y-118915817D01*
X105129416Y-118915826D01*
X105123113Y-118920406D01*
X105118144Y-118926411D01*
X105118141Y-118926415D01*
X105095272Y-118954059D01*
X105087411Y-118962697D01*
X85011928Y-139038181D01*
X84971700Y-139065061D01*
X84924247Y-139074500D01*
X72893255Y-139074500D01*
X72845089Y-139064763D01*
X72804487Y-139037081D01*
X72777827Y-138995802D01*
X72748440Y-138920926D01*
X72748438Y-138920922D01*
X72746743Y-138916602D01*
X72611815Y-138682898D01*
X72443561Y-138471915D01*
X72245741Y-138288365D01*
X72241912Y-138285754D01*
X72241909Y-138285752D01*
X72026610Y-138138964D01*
X72022775Y-138136349D01*
X72006435Y-138128480D01*
X71783820Y-138021274D01*
X71783814Y-138021271D01*
X71779641Y-138019262D01*
X71775219Y-138017898D01*
X71775209Y-138017894D01*
X71526202Y-137941086D01*
X71526196Y-137941084D01*
X71521772Y-137939720D01*
X71517195Y-137939030D01*
X71517186Y-137939028D01*
X71259514Y-137900191D01*
X71259513Y-137900190D01*
X71254929Y-137899500D01*
X70985071Y-137899500D01*
X70980487Y-137900190D01*
X70980485Y-137900191D01*
X70722813Y-137939028D01*
X70722801Y-137939030D01*
X70718228Y-137939720D01*
X70713806Y-137941083D01*
X70713797Y-137941086D01*
X70464790Y-138017894D01*
X70464775Y-138017899D01*
X70460359Y-138019262D01*
X70456185Y-138021271D01*
X70456180Y-138021274D01*
X70221411Y-138134333D01*
X70221404Y-138134336D01*
X70217226Y-138136349D01*
X70213393Y-138138962D01*
X70213390Y-138138964D01*
X69998090Y-138285752D01*
X69998080Y-138285759D01*
X69994259Y-138288365D01*
X69990863Y-138291516D01*
X69990853Y-138291524D01*
X69799843Y-138468756D01*
X69799839Y-138468759D01*
X69796439Y-138471915D01*
X69793549Y-138475537D01*
X69793546Y-138475542D01*
X69715852Y-138572967D01*
X69628185Y-138682898D01*
X69625866Y-138686913D01*
X69625865Y-138686916D01*
X69495578Y-138912581D01*
X69495575Y-138912586D01*
X69493257Y-138916602D01*
X69491563Y-138920916D01*
X69491561Y-138920922D01*
X69396363Y-139163480D01*
X69394666Y-139167805D01*
X69393633Y-139172326D01*
X69393632Y-139172333D01*
X69335648Y-139426377D01*
X69335646Y-139426385D01*
X69334617Y-139430897D01*
X69334270Y-139435516D01*
X69334270Y-139435522D01*
X69314855Y-139694605D01*
X69314451Y-139700000D01*
X66040500Y-139700000D01*
X66040500Y-135964578D01*
X69319500Y-135964578D01*
X69319501Y-135967872D01*
X69319853Y-135971150D01*
X69319854Y-135971161D01*
X69325079Y-136019768D01*
X69325080Y-136019773D01*
X69325909Y-136027483D01*
X69328619Y-136034749D01*
X69328620Y-136034753D01*
X69362217Y-136124831D01*
X69376204Y-136162331D01*
X69462454Y-136277546D01*
X69577669Y-136363796D01*
X69712517Y-136414091D01*
X69772127Y-136420500D01*
X72467872Y-136420499D01*
X72527483Y-136414091D01*
X72662331Y-136363796D01*
X72777546Y-136277546D01*
X72863796Y-136162331D01*
X72914091Y-136027483D01*
X72920500Y-135967873D01*
X72920499Y-133272128D01*
X72914091Y-133212517D01*
X72863796Y-133077669D01*
X72777546Y-132962454D01*
X72662331Y-132876204D01*
X72527483Y-132825909D01*
X72519770Y-132825079D01*
X72519767Y-132825079D01*
X72471180Y-132819855D01*
X72471169Y-132819854D01*
X72467873Y-132819500D01*
X72464550Y-132819500D01*
X69775439Y-132819500D01*
X69775420Y-132819500D01*
X69772128Y-132819501D01*
X69768850Y-132819853D01*
X69768838Y-132819854D01*
X69720231Y-132825079D01*
X69720225Y-132825080D01*
X69712517Y-132825909D01*
X69705252Y-132828618D01*
X69705246Y-132828620D01*
X69585980Y-132873104D01*
X69585978Y-132873104D01*
X69577669Y-132876204D01*
X69570572Y-132881516D01*
X69570568Y-132881519D01*
X69469550Y-132957141D01*
X69469546Y-132957144D01*
X69462454Y-132962454D01*
X69457144Y-132969546D01*
X69457141Y-132969550D01*
X69381519Y-133070568D01*
X69381516Y-133070572D01*
X69376204Y-133077669D01*
X69373104Y-133085978D01*
X69373104Y-133085980D01*
X69328620Y-133205247D01*
X69328619Y-133205250D01*
X69325909Y-133212517D01*
X69325079Y-133220227D01*
X69325079Y-133220232D01*
X69319855Y-133268819D01*
X69319854Y-133268831D01*
X69319500Y-133272127D01*
X69319500Y-133275448D01*
X69319500Y-133275449D01*
X69319500Y-135964560D01*
X69319500Y-135964578D01*
X66040500Y-135964578D01*
X66040500Y-127965968D01*
X81559500Y-127965968D01*
X81559501Y-127969262D01*
X81559853Y-127972540D01*
X81559854Y-127972551D01*
X81565079Y-128021158D01*
X81565080Y-128021163D01*
X81565909Y-128028873D01*
X81568619Y-128036139D01*
X81568620Y-128036143D01*
X81587849Y-128087697D01*
X81616204Y-128163721D01*
X81621518Y-128170820D01*
X81621519Y-128170821D01*
X81631299Y-128183886D01*
X81702454Y-128278936D01*
X81817669Y-128365186D01*
X81952517Y-128415481D01*
X82012127Y-128421890D01*
X84107872Y-128421889D01*
X84167483Y-128415481D01*
X84302331Y-128365186D01*
X84417546Y-128278936D01*
X84503796Y-128163721D01*
X84510913Y-128144638D01*
X88795749Y-128144638D01*
X88803855Y-128155829D01*
X88832717Y-128178293D01*
X88841279Y-128183886D01*
X89050885Y-128297319D01*
X89060239Y-128301422D01*
X89285656Y-128378807D01*
X89295568Y-128381318D01*
X89530643Y-128420545D01*
X89540839Y-128421390D01*
X89779161Y-128421390D01*
X89789356Y-128420545D01*
X90024431Y-128381318D01*
X90034343Y-128378807D01*
X90259760Y-128301422D01*
X90269114Y-128297319D01*
X90478723Y-128183885D01*
X90487281Y-128178293D01*
X90516146Y-128155827D01*
X90524250Y-128144640D01*
X90517589Y-128132532D01*
X89671542Y-127286485D01*
X89660000Y-127279821D01*
X89648457Y-127286485D01*
X88802408Y-128132533D01*
X88795749Y-128144638D01*
X84510913Y-128144638D01*
X84554091Y-128028873D01*
X84560500Y-127969263D01*
X84560500Y-126926507D01*
X88155283Y-126926507D01*
X88174962Y-127164008D01*
X88176646Y-127174102D01*
X88235153Y-127405137D01*
X88238472Y-127414804D01*
X88334208Y-127633063D01*
X88339070Y-127642046D01*
X88428999Y-127779694D01*
X88436963Y-127787414D01*
X88446345Y-127781490D01*
X89294904Y-126932932D01*
X89301568Y-126921390D01*
X90018431Y-126921390D01*
X90025095Y-126932932D01*
X90873653Y-127781490D01*
X90883034Y-127787414D01*
X90891002Y-127779689D01*
X90980924Y-127642054D01*
X90985792Y-127633059D01*
X91081527Y-127414804D01*
X91084846Y-127405137D01*
X91143353Y-127174102D01*
X91145037Y-127164008D01*
X91164717Y-126926507D01*
X91164717Y-126916273D01*
X91145037Y-126678771D01*
X91143353Y-126668677D01*
X91084846Y-126437642D01*
X91081527Y-126427975D01*
X90985792Y-126209720D01*
X90980924Y-126200725D01*
X90891002Y-126063089D01*
X90883034Y-126055364D01*
X90873653Y-126061288D01*
X90025095Y-126909847D01*
X90018431Y-126921390D01*
X89301568Y-126921390D01*
X89294904Y-126909847D01*
X88446345Y-126061288D01*
X88436964Y-126055364D01*
X88428997Y-126063089D01*
X88339072Y-126200728D01*
X88334207Y-126209718D01*
X88238472Y-126427975D01*
X88235153Y-126437642D01*
X88176646Y-126668677D01*
X88174962Y-126678771D01*
X88155283Y-126916273D01*
X88155283Y-126926507D01*
X84560500Y-126926507D01*
X84560499Y-125873518D01*
X84554091Y-125813907D01*
X84510912Y-125698139D01*
X88795748Y-125698139D01*
X88802408Y-125710245D01*
X89648457Y-126556294D01*
X89660000Y-126562958D01*
X89671542Y-126556294D01*
X90517590Y-125710245D01*
X90524250Y-125698139D01*
X90516143Y-125686949D01*
X90487286Y-125664489D01*
X90478719Y-125658893D01*
X90269114Y-125545460D01*
X90259760Y-125541357D01*
X90034343Y-125463972D01*
X90024431Y-125461461D01*
X89789356Y-125422234D01*
X89779161Y-125421390D01*
X89540839Y-125421390D01*
X89530643Y-125422234D01*
X89295568Y-125461461D01*
X89285656Y-125463972D01*
X89060239Y-125541357D01*
X89050885Y-125545460D01*
X88841276Y-125658894D01*
X88832717Y-125664486D01*
X88803854Y-125686950D01*
X88795748Y-125698139D01*
X84510912Y-125698139D01*
X84503796Y-125679059D01*
X84417546Y-125563844D01*
X84383605Y-125538436D01*
X84309431Y-125482909D01*
X84309430Y-125482908D01*
X84302331Y-125477594D01*
X84167483Y-125427299D01*
X84159770Y-125426469D01*
X84159767Y-125426469D01*
X84111180Y-125421245D01*
X84111169Y-125421244D01*
X84107873Y-125420890D01*
X84104550Y-125420890D01*
X82015439Y-125420890D01*
X82015420Y-125420890D01*
X82012128Y-125420891D01*
X82008850Y-125421243D01*
X82008838Y-125421244D01*
X81960231Y-125426469D01*
X81960225Y-125426470D01*
X81952517Y-125427299D01*
X81945252Y-125430008D01*
X81945246Y-125430010D01*
X81825980Y-125474494D01*
X81825978Y-125474494D01*
X81817669Y-125477594D01*
X81810572Y-125482906D01*
X81810568Y-125482909D01*
X81709550Y-125558531D01*
X81709546Y-125558534D01*
X81702454Y-125563844D01*
X81697144Y-125570936D01*
X81697141Y-125570940D01*
X81621519Y-125671958D01*
X81621516Y-125671962D01*
X81616204Y-125679059D01*
X81613104Y-125687368D01*
X81613104Y-125687370D01*
X81568620Y-125806637D01*
X81568619Y-125806640D01*
X81565909Y-125813907D01*
X81565079Y-125821617D01*
X81565079Y-125821622D01*
X81559855Y-125870209D01*
X81559854Y-125870221D01*
X81559500Y-125873517D01*
X81559500Y-125876838D01*
X81559500Y-125876839D01*
X81559500Y-127965950D01*
X81559500Y-127965968D01*
X66040500Y-127965968D01*
X66040500Y-125898350D01*
X70038604Y-125898350D01*
X70046150Y-125906408D01*
X70213641Y-126020601D01*
X70221662Y-126025232D01*
X70456362Y-126138258D01*
X70464973Y-126141638D01*
X70713908Y-126218424D01*
X70722924Y-126220482D01*
X70980523Y-126259308D01*
X70989746Y-126260000D01*
X71250254Y-126260000D01*
X71259476Y-126259308D01*
X71517075Y-126220482D01*
X71526091Y-126218424D01*
X71775027Y-126141637D01*
X71783637Y-126138258D01*
X72018340Y-126025231D01*
X72026359Y-126020601D01*
X72193846Y-125906409D01*
X72201394Y-125898350D01*
X72195477Y-125889030D01*
X71131542Y-124825095D01*
X71120000Y-124818431D01*
X71108457Y-124825095D01*
X70044521Y-125889030D01*
X70038604Y-125898350D01*
X66040500Y-125898350D01*
X66040500Y-124464630D01*
X69315300Y-124464630D01*
X69334767Y-124724399D01*
X69336146Y-124733552D01*
X69394111Y-124987515D01*
X69396844Y-124996375D01*
X69492011Y-125238856D01*
X69496030Y-125247202D01*
X69626278Y-125472798D01*
X69631496Y-125480450D01*
X69671379Y-125530462D01*
X69682615Y-125538435D01*
X69694674Y-125531771D01*
X70754904Y-124471542D01*
X70761568Y-124460000D01*
X71478431Y-124460000D01*
X71485095Y-124471542D01*
X72545325Y-125531772D01*
X72557382Y-125538436D01*
X72568619Y-125530463D01*
X72608507Y-125480445D01*
X72613719Y-125472800D01*
X72743969Y-125247202D01*
X72747988Y-125238856D01*
X72843155Y-124996375D01*
X72845888Y-124987515D01*
X72903853Y-124733552D01*
X72905232Y-124724399D01*
X72924700Y-124464630D01*
X72924700Y-124455370D01*
X72905232Y-124195600D01*
X72903853Y-124186447D01*
X72845888Y-123932484D01*
X72843155Y-123923624D01*
X72747988Y-123681143D01*
X72743969Y-123672797D01*
X72613721Y-123447201D01*
X72608503Y-123439549D01*
X72568619Y-123389536D01*
X72557382Y-123381562D01*
X72545325Y-123388226D01*
X71485095Y-124448457D01*
X71478431Y-124460000D01*
X70761568Y-124460000D01*
X70754904Y-124448457D01*
X69694674Y-123388227D01*
X69682615Y-123381562D01*
X69671380Y-123389534D01*
X69631488Y-123439558D01*
X69626282Y-123447195D01*
X69496030Y-123672797D01*
X69492011Y-123681143D01*
X69396844Y-123923624D01*
X69394111Y-123932484D01*
X69336146Y-124186447D01*
X69334767Y-124195600D01*
X69315300Y-124455370D01*
X69315300Y-124464630D01*
X66040500Y-124464630D01*
X66040500Y-123021648D01*
X70038603Y-123021648D01*
X70044519Y-123030966D01*
X71108457Y-124094904D01*
X71120000Y-124101568D01*
X71131542Y-124094904D01*
X72195477Y-123030968D01*
X72201394Y-123021648D01*
X72193846Y-123013589D01*
X72026360Y-122899398D01*
X72018340Y-122894768D01*
X71783637Y-122781741D01*
X71775027Y-122778362D01*
X71526091Y-122701575D01*
X71517075Y-122699517D01*
X71259476Y-122660691D01*
X71250254Y-122660000D01*
X70989746Y-122660000D01*
X70980523Y-122660691D01*
X70722924Y-122699517D01*
X70713908Y-122701575D01*
X70464973Y-122778361D01*
X70456362Y-122781741D01*
X70221660Y-122894768D01*
X70213639Y-122899399D01*
X70046151Y-123013590D01*
X70038603Y-123021648D01*
X66040500Y-123021648D01*
X66040500Y-120724578D01*
X69319500Y-120724578D01*
X69319501Y-120727872D01*
X69319853Y-120731150D01*
X69319854Y-120731161D01*
X69325079Y-120779768D01*
X69325080Y-120779773D01*
X69325909Y-120787483D01*
X69328619Y-120794749D01*
X69328620Y-120794753D01*
X69362217Y-120884831D01*
X69376204Y-120922331D01*
X69462454Y-121037546D01*
X69577669Y-121123796D01*
X69712517Y-121174091D01*
X69772127Y-121180500D01*
X72467872Y-121180499D01*
X72527483Y-121174091D01*
X72662331Y-121123796D01*
X72777546Y-121037546D01*
X72863796Y-120922331D01*
X72914091Y-120787483D01*
X72920500Y-120727873D01*
X72920499Y-119380000D01*
X95214532Y-119380000D01*
X95234365Y-119606692D01*
X95235762Y-119611907D01*
X95235764Y-119611916D01*
X95291858Y-119821263D01*
X95291861Y-119821271D01*
X95293261Y-119826496D01*
X95389432Y-120032734D01*
X95519953Y-120219139D01*
X95680861Y-120380047D01*
X95867266Y-120510568D01*
X96073504Y-120606739D01*
X96078734Y-120608140D01*
X96078736Y-120608141D01*
X96254285Y-120655179D01*
X96293308Y-120665635D01*
X96520000Y-120685468D01*
X96746692Y-120665635D01*
X96966496Y-120606739D01*
X97172734Y-120510568D01*
X97359139Y-120380047D01*
X97520047Y-120219139D01*
X97650568Y-120032734D01*
X97746739Y-119826496D01*
X97798706Y-119632551D01*
X100324452Y-119632551D01*
X100324820Y-119643780D01*
X100372330Y-119821092D01*
X100376022Y-119831234D01*
X100467579Y-120027580D01*
X100472967Y-120036912D01*
X100597232Y-120214381D01*
X100604169Y-120222647D01*
X100757352Y-120375830D01*
X100765618Y-120382767D01*
X100943087Y-120507032D01*
X100952419Y-120512420D01*
X101148765Y-120603977D01*
X101158907Y-120607669D01*
X101336219Y-120655179D01*
X101347448Y-120655547D01*
X101350000Y-120644605D01*
X101850000Y-120644605D01*
X101852551Y-120655547D01*
X101863780Y-120655179D01*
X102041092Y-120607669D01*
X102051234Y-120603977D01*
X102247580Y-120512420D01*
X102256912Y-120507032D01*
X102434381Y-120382767D01*
X102442647Y-120375830D01*
X102595830Y-120222647D01*
X102602767Y-120214381D01*
X102727032Y-120036912D01*
X102732420Y-120027580D01*
X102823977Y-119831234D01*
X102827669Y-119821092D01*
X102875179Y-119643780D01*
X102875547Y-119632551D01*
X102864605Y-119630000D01*
X101866326Y-119630000D01*
X101853450Y-119633450D01*
X101850000Y-119646326D01*
X101850000Y-120644605D01*
X101350000Y-120644605D01*
X101350000Y-119646326D01*
X101346549Y-119633450D01*
X101333674Y-119630000D01*
X100335395Y-119630000D01*
X100324452Y-119632551D01*
X97798706Y-119632551D01*
X97805635Y-119606692D01*
X97825468Y-119380000D01*
X97805635Y-119153308D01*
X97798706Y-119127448D01*
X100324452Y-119127448D01*
X100335395Y-119130000D01*
X101333674Y-119130000D01*
X101346549Y-119126549D01*
X101350000Y-119113674D01*
X101850000Y-119113674D01*
X101853450Y-119126549D01*
X101866326Y-119130000D01*
X102864605Y-119130000D01*
X102875547Y-119127448D01*
X102875179Y-119116219D01*
X102827669Y-118938907D01*
X102823977Y-118928765D01*
X102732420Y-118732419D01*
X102727032Y-118723087D01*
X102602767Y-118545618D01*
X102595830Y-118537352D01*
X102442647Y-118384169D01*
X102434381Y-118377232D01*
X102256912Y-118252967D01*
X102247580Y-118247579D01*
X102051234Y-118156022D01*
X102041092Y-118152330D01*
X101863780Y-118104820D01*
X101852551Y-118104452D01*
X101850000Y-118115395D01*
X101850000Y-119113674D01*
X101350000Y-119113674D01*
X101350000Y-118115395D01*
X101347448Y-118104452D01*
X101336219Y-118104820D01*
X101158907Y-118152330D01*
X101148765Y-118156022D01*
X100952419Y-118247579D01*
X100943087Y-118252967D01*
X100765618Y-118377232D01*
X100757352Y-118384169D01*
X100604169Y-118537352D01*
X100597232Y-118545618D01*
X100472967Y-118723087D01*
X100467579Y-118732419D01*
X100376022Y-118928765D01*
X100372330Y-118938907D01*
X100324820Y-119116219D01*
X100324452Y-119127448D01*
X97798706Y-119127448D01*
X97746739Y-118933504D01*
X97650568Y-118727266D01*
X97520047Y-118540861D01*
X97359139Y-118379953D01*
X97172734Y-118249432D01*
X96966496Y-118153261D01*
X96961271Y-118151861D01*
X96961263Y-118151858D01*
X96751916Y-118095764D01*
X96751907Y-118095762D01*
X96746692Y-118094365D01*
X96741304Y-118093893D01*
X96741301Y-118093893D01*
X96525395Y-118075004D01*
X96520000Y-118074532D01*
X96514605Y-118075004D01*
X96298698Y-118093893D01*
X96298693Y-118093893D01*
X96293308Y-118094365D01*
X96288094Y-118095762D01*
X96288083Y-118095764D01*
X96078736Y-118151858D01*
X96078724Y-118151862D01*
X96073504Y-118153261D01*
X96068599Y-118155547D01*
X96068594Y-118155550D01*
X95872176Y-118247142D01*
X95872172Y-118247144D01*
X95867266Y-118249432D01*
X95862833Y-118252535D01*
X95862826Y-118252540D01*
X95685296Y-118376847D01*
X95685291Y-118376850D01*
X95680861Y-118379953D01*
X95677037Y-118383776D01*
X95677031Y-118383782D01*
X95523782Y-118537031D01*
X95523776Y-118537037D01*
X95519953Y-118540861D01*
X95516850Y-118545291D01*
X95516847Y-118545296D01*
X95392540Y-118722826D01*
X95392535Y-118722833D01*
X95389432Y-118727266D01*
X95387144Y-118732172D01*
X95387142Y-118732176D01*
X95295550Y-118928594D01*
X95295547Y-118928599D01*
X95293261Y-118933504D01*
X95291862Y-118938724D01*
X95291858Y-118938736D01*
X95235764Y-119148083D01*
X95235762Y-119148094D01*
X95234365Y-119153308D01*
X95214532Y-119380000D01*
X72920499Y-119380000D01*
X72920499Y-118032128D01*
X72914091Y-117972517D01*
X72863796Y-117837669D01*
X72777546Y-117722454D01*
X72662331Y-117636204D01*
X72527483Y-117585909D01*
X72519770Y-117585079D01*
X72519767Y-117585079D01*
X72471180Y-117579855D01*
X72471169Y-117579854D01*
X72467873Y-117579500D01*
X72464550Y-117579500D01*
X69775439Y-117579500D01*
X69775420Y-117579500D01*
X69772128Y-117579501D01*
X69768850Y-117579853D01*
X69768838Y-117579854D01*
X69720231Y-117585079D01*
X69720225Y-117585080D01*
X69712517Y-117585909D01*
X69705252Y-117588618D01*
X69705246Y-117588620D01*
X69585980Y-117633104D01*
X69585978Y-117633104D01*
X69577669Y-117636204D01*
X69570572Y-117641516D01*
X69570568Y-117641519D01*
X69469550Y-117717141D01*
X69469546Y-117717144D01*
X69462454Y-117722454D01*
X69457144Y-117729546D01*
X69457141Y-117729550D01*
X69381519Y-117830568D01*
X69381516Y-117830572D01*
X69376204Y-117837669D01*
X69373104Y-117845978D01*
X69373104Y-117845980D01*
X69328620Y-117965247D01*
X69328619Y-117965250D01*
X69325909Y-117972517D01*
X69325079Y-117980227D01*
X69325079Y-117980232D01*
X69319855Y-118028819D01*
X69319854Y-118028831D01*
X69319500Y-118032127D01*
X69319500Y-118035448D01*
X69319500Y-118035449D01*
X69319500Y-120724560D01*
X69319500Y-120724578D01*
X66040500Y-120724578D01*
X66040500Y-108649350D01*
X79571904Y-108649350D01*
X79579450Y-108657408D01*
X79746941Y-108771601D01*
X79754962Y-108776232D01*
X79989662Y-108889258D01*
X79998273Y-108892638D01*
X80247208Y-108969424D01*
X80256224Y-108971482D01*
X80513823Y-109010308D01*
X80523046Y-109011000D01*
X80783554Y-109011000D01*
X80792776Y-109010308D01*
X81050375Y-108971482D01*
X81059391Y-108969424D01*
X81308327Y-108892637D01*
X81316937Y-108889258D01*
X81551640Y-108776231D01*
X81559659Y-108771601D01*
X81727146Y-108657409D01*
X81734694Y-108649350D01*
X81728777Y-108640030D01*
X81644325Y-108555578D01*
X83932800Y-108555578D01*
X83932801Y-108558872D01*
X83933153Y-108562150D01*
X83933154Y-108562161D01*
X83938379Y-108610768D01*
X83938380Y-108610773D01*
X83939209Y-108618483D01*
X83941919Y-108625749D01*
X83941920Y-108625753D01*
X83953541Y-108656909D01*
X83989504Y-108753331D01*
X83994818Y-108760430D01*
X83994819Y-108760431D01*
X84069692Y-108860449D01*
X84075754Y-108868546D01*
X84190969Y-108954796D01*
X84325817Y-109005091D01*
X84385427Y-109011500D01*
X87081172Y-109011499D01*
X87140783Y-109005091D01*
X87275631Y-108954796D01*
X87390846Y-108868546D01*
X87477096Y-108753331D01*
X87516065Y-108648850D01*
X92897704Y-108648850D01*
X92905250Y-108656908D01*
X93072741Y-108771101D01*
X93080762Y-108775732D01*
X93315462Y-108888758D01*
X93324073Y-108892138D01*
X93573008Y-108968924D01*
X93582024Y-108970982D01*
X93839623Y-109009808D01*
X93848846Y-109010500D01*
X94109354Y-109010500D01*
X94118576Y-109009808D01*
X94376175Y-108970982D01*
X94385191Y-108968924D01*
X94634127Y-108892137D01*
X94642737Y-108888758D01*
X94877440Y-108775731D01*
X94885459Y-108771101D01*
X95052946Y-108656909D01*
X95060494Y-108648850D01*
X95054577Y-108639530D01*
X93990642Y-107575595D01*
X93979100Y-107568931D01*
X93967557Y-107575595D01*
X92903621Y-108639530D01*
X92897704Y-108648850D01*
X87516065Y-108648850D01*
X87527391Y-108618483D01*
X87533800Y-108558873D01*
X87533799Y-107902542D01*
X87542991Y-107855691D01*
X87569204Y-107815786D01*
X87606021Y-107790480D01*
X87608990Y-107789618D01*
X87626229Y-107779422D01*
X87643703Y-107770862D01*
X87655074Y-107766360D01*
X87655076Y-107766358D01*
X87662332Y-107763486D01*
X87697669Y-107737811D01*
X87707424Y-107731403D01*
X87745020Y-107709170D01*
X87759184Y-107695005D01*
X87773979Y-107682368D01*
X87790187Y-107670594D01*
X87818028Y-107636938D01*
X87825879Y-107628309D01*
X89207171Y-106247019D01*
X89247400Y-106220139D01*
X89294853Y-106210700D01*
X92263100Y-106210700D01*
X92325100Y-106227313D01*
X92370487Y-106272700D01*
X92387100Y-106334700D01*
X92370487Y-106396700D01*
X92355130Y-106423297D01*
X92351111Y-106431643D01*
X92255944Y-106674124D01*
X92253211Y-106682984D01*
X92195246Y-106936947D01*
X92193867Y-106946100D01*
X92174400Y-107205870D01*
X92174400Y-107215130D01*
X92193867Y-107474899D01*
X92195246Y-107484052D01*
X92253211Y-107738015D01*
X92255944Y-107746875D01*
X92351111Y-107989356D01*
X92355130Y-107997702D01*
X92485378Y-108223298D01*
X92490596Y-108230950D01*
X92530479Y-108280962D01*
X92541715Y-108288935D01*
X92553774Y-108282271D01*
X93891418Y-106944627D01*
X93947005Y-106912533D01*
X94011193Y-106912533D01*
X94066780Y-106944627D01*
X95404425Y-108282272D01*
X95416482Y-108288936D01*
X95427719Y-108280963D01*
X95467607Y-108230945D01*
X95472819Y-108223300D01*
X95603069Y-107997702D01*
X95607088Y-107989356D01*
X95702255Y-107746875D01*
X95704988Y-107738015D01*
X95762953Y-107484052D01*
X95764332Y-107474899D01*
X95783800Y-107215130D01*
X95783800Y-107205870D01*
X95764332Y-106946100D01*
X95762953Y-106936950D01*
X95707099Y-106692235D01*
X95709229Y-106628980D01*
X95742298Y-106575015D01*
X95797692Y-106544400D01*
X95860979Y-106545111D01*
X95915670Y-106576960D01*
X96502619Y-107163910D01*
X96936507Y-107597798D01*
X96943959Y-107605987D01*
X96948014Y-107612377D01*
X96974173Y-107636942D01*
X96997023Y-107658400D01*
X96999820Y-107661111D01*
X97019329Y-107680620D01*
X97022509Y-107683087D01*
X97031371Y-107690655D01*
X97036011Y-107695013D01*
X97057532Y-107715223D01*
X97057534Y-107715224D01*
X97063218Y-107720562D01*
X97070051Y-107724318D01*
X97070052Y-107724319D01*
X97080773Y-107730213D01*
X97097034Y-107740894D01*
X97112864Y-107753173D01*
X97152955Y-107770521D01*
X97163426Y-107775651D01*
X97188832Y-107789618D01*
X97194338Y-107792645D01*
X97241332Y-107838186D01*
X97258600Y-107901307D01*
X97258600Y-108555060D01*
X97258600Y-108555078D01*
X97258601Y-108558372D01*
X97258953Y-108561650D01*
X97258954Y-108561661D01*
X97264179Y-108610268D01*
X97264180Y-108610273D01*
X97265009Y-108617983D01*
X97267719Y-108625249D01*
X97267720Y-108625253D01*
X97279714Y-108657409D01*
X97315304Y-108752831D01*
X97401554Y-108868046D01*
X97516769Y-108954296D01*
X97651617Y-109004591D01*
X97711227Y-109011000D01*
X100406972Y-109010999D01*
X100466583Y-109004591D01*
X100601431Y-108954296D01*
X100716646Y-108868046D01*
X100802896Y-108752831D01*
X100841865Y-108648350D01*
X105597704Y-108648350D01*
X105605250Y-108656408D01*
X105772741Y-108770601D01*
X105780762Y-108775232D01*
X106015462Y-108888258D01*
X106024073Y-108891638D01*
X106273008Y-108968424D01*
X106282024Y-108970482D01*
X106539623Y-109009308D01*
X106548846Y-109010000D01*
X106809354Y-109010000D01*
X106818576Y-109009308D01*
X107076175Y-108970482D01*
X107085191Y-108968424D01*
X107334127Y-108891637D01*
X107342737Y-108888258D01*
X107577440Y-108775231D01*
X107585459Y-108770601D01*
X107752946Y-108656409D01*
X107760494Y-108648350D01*
X107754577Y-108639030D01*
X107670125Y-108554578D01*
X109958600Y-108554578D01*
X109958601Y-108557872D01*
X109958953Y-108561150D01*
X109958954Y-108561161D01*
X109964179Y-108609768D01*
X109964180Y-108609773D01*
X109965009Y-108617483D01*
X109967719Y-108624749D01*
X109967720Y-108624753D01*
X109979714Y-108656909D01*
X110015304Y-108752331D01*
X110020618Y-108759430D01*
X110020619Y-108759431D01*
X110033195Y-108776231D01*
X110101554Y-108867546D01*
X110216769Y-108953796D01*
X110351617Y-109004091D01*
X110411227Y-109010500D01*
X113106972Y-109010499D01*
X113166583Y-109004091D01*
X113301431Y-108953796D01*
X113416646Y-108867546D01*
X113502896Y-108752331D01*
X113553191Y-108617483D01*
X113559600Y-108557873D01*
X113559599Y-106680000D01*
X120414357Y-106680000D01*
X120414781Y-106685117D01*
X120434467Y-106922701D01*
X120434468Y-106922709D01*
X120434892Y-106927821D01*
X120436149Y-106932788D01*
X120436151Y-106932795D01*
X120494678Y-107163910D01*
X120495937Y-107168881D01*
X120497997Y-107173577D01*
X120593766Y-107391910D01*
X120593769Y-107391916D01*
X120595827Y-107396607D01*
X120598627Y-107400893D01*
X120598631Y-107400900D01*
X120652957Y-107484052D01*
X120731836Y-107604785D01*
X120735310Y-107608559D01*
X120735311Y-107608560D01*
X120896784Y-107783967D01*
X120896787Y-107783970D01*
X120900256Y-107787738D01*
X121096491Y-107940474D01*
X121315190Y-108058828D01*
X121550386Y-108139571D01*
X121795665Y-108180500D01*
X122039201Y-108180500D01*
X122044335Y-108180500D01*
X122289614Y-108139571D01*
X122524810Y-108058828D01*
X122743509Y-107940474D01*
X122939744Y-107787738D01*
X123108164Y-107604785D01*
X123244173Y-107396607D01*
X123344063Y-107168881D01*
X123405108Y-106927821D01*
X123425643Y-106680000D01*
X123405108Y-106432179D01*
X123344063Y-106191119D01*
X123244173Y-105963393D01*
X123238703Y-105955021D01*
X123172740Y-105854057D01*
X123108164Y-105755215D01*
X123036144Y-105676980D01*
X122943215Y-105576032D01*
X122943211Y-105576029D01*
X122939744Y-105572262D01*
X122783326Y-105450517D01*
X122747559Y-105422678D01*
X122747557Y-105422676D01*
X122743509Y-105419526D01*
X122738997Y-105417084D01*
X122529316Y-105303610D01*
X122529310Y-105303607D01*
X122524810Y-105301172D01*
X122519969Y-105299510D01*
X122519962Y-105299507D01*
X122294465Y-105222094D01*
X122294461Y-105222093D01*
X122289614Y-105220429D01*
X122280768Y-105218952D01*
X122049398Y-105180344D01*
X122049387Y-105180343D01*
X122044335Y-105179500D01*
X121795665Y-105179500D01*
X121790613Y-105180343D01*
X121790601Y-105180344D01*
X121555443Y-105219585D01*
X121555441Y-105219585D01*
X121550386Y-105220429D01*
X121545541Y-105222092D01*
X121545534Y-105222094D01*
X121320037Y-105299507D01*
X121320026Y-105299511D01*
X121315190Y-105301172D01*
X121310693Y-105303605D01*
X121310683Y-105303610D01*
X121101002Y-105417084D01*
X121100995Y-105417088D01*
X121096491Y-105419526D01*
X121092448Y-105422672D01*
X121092440Y-105422678D01*
X120904304Y-105569111D01*
X120900256Y-105572262D01*
X120896793Y-105576023D01*
X120896784Y-105576032D01*
X120735311Y-105751439D01*
X120735305Y-105751446D01*
X120731836Y-105755215D01*
X120729031Y-105759506D01*
X120729028Y-105759512D01*
X120598631Y-105959099D01*
X120598624Y-105959111D01*
X120595827Y-105963393D01*
X120593772Y-105968077D01*
X120593766Y-105968089D01*
X120513662Y-106150709D01*
X120495937Y-106191119D01*
X120494679Y-106196084D01*
X120494678Y-106196089D01*
X120436151Y-106427204D01*
X120436149Y-106427213D01*
X120434892Y-106432179D01*
X120434468Y-106437288D01*
X120434467Y-106437298D01*
X120414885Y-106673624D01*
X120414357Y-106680000D01*
X113559599Y-106680000D01*
X113559599Y-105862128D01*
X113553191Y-105802517D01*
X113502896Y-105667669D01*
X113416646Y-105552454D01*
X113301431Y-105466204D01*
X113176281Y-105419526D01*
X113173852Y-105418620D01*
X113173850Y-105418619D01*
X113166583Y-105415909D01*
X113158870Y-105415079D01*
X113158867Y-105415079D01*
X113110280Y-105409855D01*
X113110269Y-105409854D01*
X113106973Y-105409500D01*
X113103650Y-105409500D01*
X110414539Y-105409500D01*
X110414520Y-105409500D01*
X110411228Y-105409501D01*
X110407950Y-105409853D01*
X110407938Y-105409854D01*
X110359331Y-105415079D01*
X110359325Y-105415080D01*
X110351617Y-105415909D01*
X110344352Y-105418618D01*
X110344346Y-105418620D01*
X110225080Y-105463104D01*
X110225078Y-105463104D01*
X110216769Y-105466204D01*
X110209672Y-105471516D01*
X110209668Y-105471519D01*
X110108650Y-105547141D01*
X110108646Y-105547144D01*
X110101554Y-105552454D01*
X110096244Y-105559546D01*
X110096241Y-105559550D01*
X110020619Y-105660568D01*
X110020616Y-105660572D01*
X110015304Y-105667669D01*
X110012204Y-105675978D01*
X110012204Y-105675980D01*
X109967720Y-105795247D01*
X109967719Y-105795250D01*
X109965009Y-105802517D01*
X109964179Y-105810227D01*
X109964179Y-105810232D01*
X109958955Y-105858819D01*
X109958954Y-105858831D01*
X109958600Y-105862127D01*
X109958600Y-105865448D01*
X109958600Y-105865449D01*
X109958600Y-108554560D01*
X109958600Y-108554578D01*
X107670125Y-108554578D01*
X106690642Y-107575095D01*
X106679100Y-107568431D01*
X106667557Y-107575095D01*
X105603621Y-108639030D01*
X105597704Y-108648350D01*
X100841865Y-108648350D01*
X100853191Y-108617983D01*
X100859600Y-108558373D01*
X100859600Y-107214630D01*
X104874400Y-107214630D01*
X104893867Y-107474399D01*
X104895246Y-107483552D01*
X104953211Y-107737515D01*
X104955944Y-107746375D01*
X105051111Y-107988856D01*
X105055130Y-107997202D01*
X105185378Y-108222798D01*
X105190596Y-108230450D01*
X105230479Y-108280462D01*
X105241715Y-108288435D01*
X105253774Y-108281771D01*
X106314004Y-107221542D01*
X106320668Y-107210000D01*
X107037531Y-107210000D01*
X107044195Y-107221542D01*
X108104425Y-108281772D01*
X108116482Y-108288436D01*
X108127719Y-108280463D01*
X108167607Y-108230445D01*
X108172819Y-108222800D01*
X108303069Y-107997202D01*
X108307088Y-107988856D01*
X108402255Y-107746375D01*
X108404988Y-107737515D01*
X108462953Y-107483552D01*
X108464332Y-107474399D01*
X108483800Y-107214630D01*
X108483800Y-107205370D01*
X108464332Y-106945600D01*
X108462953Y-106936447D01*
X108404988Y-106682484D01*
X108402255Y-106673624D01*
X108307088Y-106431143D01*
X108303069Y-106422797D01*
X108172821Y-106197201D01*
X108167603Y-106189549D01*
X108127719Y-106139536D01*
X108116482Y-106131562D01*
X108104425Y-106138226D01*
X107044195Y-107198457D01*
X107037531Y-107210000D01*
X106320668Y-107210000D01*
X106314004Y-107198457D01*
X105253774Y-106138227D01*
X105241715Y-106131562D01*
X105230480Y-106139534D01*
X105190588Y-106189558D01*
X105185382Y-106197195D01*
X105055130Y-106422797D01*
X105051111Y-106431143D01*
X104955944Y-106673624D01*
X104953211Y-106682484D01*
X104895246Y-106936447D01*
X104893867Y-106945600D01*
X104874400Y-107205370D01*
X104874400Y-107214630D01*
X100859600Y-107214630D01*
X100859599Y-105862628D01*
X100853191Y-105803017D01*
X100841491Y-105771648D01*
X105597703Y-105771648D01*
X105603619Y-105780966D01*
X106667557Y-106844904D01*
X106679100Y-106851568D01*
X106690642Y-106844904D01*
X107754577Y-105780968D01*
X107760494Y-105771648D01*
X107752946Y-105763589D01*
X107585460Y-105649398D01*
X107577440Y-105644768D01*
X107342737Y-105531741D01*
X107334127Y-105528362D01*
X107085191Y-105451575D01*
X107076175Y-105449517D01*
X106818576Y-105410691D01*
X106809354Y-105410000D01*
X106548846Y-105410000D01*
X106539623Y-105410691D01*
X106282024Y-105449517D01*
X106273008Y-105451575D01*
X106024073Y-105528361D01*
X106015462Y-105531741D01*
X105780760Y-105644768D01*
X105772739Y-105649399D01*
X105605251Y-105763590D01*
X105597703Y-105771648D01*
X100841491Y-105771648D01*
X100802896Y-105668169D01*
X100716646Y-105552954D01*
X100683795Y-105528362D01*
X100608531Y-105472019D01*
X100608530Y-105472018D01*
X100601431Y-105466704D01*
X100531065Y-105440459D01*
X100473852Y-105419120D01*
X100473850Y-105419119D01*
X100466583Y-105416409D01*
X100458870Y-105415579D01*
X100458867Y-105415579D01*
X100410280Y-105410355D01*
X100410269Y-105410354D01*
X100406973Y-105410000D01*
X100403650Y-105410000D01*
X97714539Y-105410000D01*
X97714520Y-105410000D01*
X97711228Y-105410001D01*
X97707950Y-105410353D01*
X97707938Y-105410354D01*
X97659331Y-105415579D01*
X97659325Y-105415580D01*
X97651617Y-105416409D01*
X97644352Y-105419118D01*
X97644346Y-105419120D01*
X97525080Y-105463604D01*
X97525078Y-105463604D01*
X97516769Y-105466704D01*
X97509672Y-105472016D01*
X97509668Y-105472019D01*
X97408650Y-105547641D01*
X97408646Y-105547644D01*
X97401554Y-105552954D01*
X97396244Y-105560046D01*
X97396241Y-105560050D01*
X97320619Y-105661068D01*
X97320616Y-105661072D01*
X97315304Y-105668169D01*
X97312204Y-105676478D01*
X97312204Y-105676480D01*
X97267720Y-105795747D01*
X97267719Y-105795750D01*
X97265009Y-105803017D01*
X97264179Y-105810727D01*
X97264179Y-105810732D01*
X97258600Y-105862627D01*
X97257835Y-105862544D01*
X97243140Y-105912907D01*
X97204791Y-105954534D01*
X97151938Y-105974783D01*
X97095592Y-105969434D01*
X97047493Y-105939602D01*
X96305786Y-105197895D01*
X96298342Y-105189714D01*
X96294286Y-105183323D01*
X96245275Y-105137298D01*
X96242478Y-105134587D01*
X96225727Y-105117836D01*
X96222971Y-105115080D01*
X96219790Y-105112612D01*
X96210914Y-105105030D01*
X96184769Y-105080478D01*
X96184767Y-105080476D01*
X96179082Y-105075138D01*
X96172249Y-105071382D01*
X96172243Y-105071377D01*
X96161525Y-105065485D01*
X96145266Y-105054806D01*
X96135595Y-105047304D01*
X96135592Y-105047302D01*
X96129436Y-105042527D01*
X96122279Y-105039429D01*
X96122276Y-105039428D01*
X96089349Y-105025178D01*
X96078863Y-105020041D01*
X96047432Y-105002762D01*
X96047423Y-105002758D01*
X96040592Y-104999003D01*
X96033035Y-104997062D01*
X96033031Y-104997061D01*
X96021188Y-104994020D01*
X96002784Y-104987719D01*
X95991557Y-104982860D01*
X95991550Y-104982858D01*
X95984396Y-104979762D01*
X95976692Y-104978541D01*
X95976690Y-104978541D01*
X95941259Y-104972929D01*
X95929824Y-104970561D01*
X95895071Y-104961638D01*
X95895063Y-104961637D01*
X95887519Y-104959700D01*
X95879723Y-104959700D01*
X95867483Y-104959700D01*
X95848097Y-104958174D01*
X95828304Y-104955040D01*
X95820538Y-104955774D01*
X95820535Y-104955774D01*
X95784824Y-104959150D01*
X95773155Y-104959700D01*
X89062171Y-104959700D01*
X89051118Y-104959179D01*
X89043732Y-104957528D01*
X89035934Y-104957773D01*
X88976544Y-104959639D01*
X88972650Y-104959700D01*
X88945050Y-104959700D01*
X88941199Y-104960186D01*
X88941168Y-104960188D01*
X88941040Y-104960205D01*
X88929429Y-104961118D01*
X88893571Y-104962245D01*
X88893564Y-104962246D01*
X88885772Y-104962491D01*
X88878288Y-104964665D01*
X88878277Y-104964667D01*
X88866528Y-104968081D01*
X88847483Y-104972025D01*
X88835347Y-104973558D01*
X88835344Y-104973558D01*
X88827608Y-104974536D01*
X88820360Y-104977405D01*
X88820350Y-104977408D01*
X88786992Y-104990615D01*
X88775950Y-104994396D01*
X88741497Y-105004407D01*
X88741492Y-105004408D01*
X88734010Y-105006583D01*
X88727302Y-105010549D01*
X88727297Y-105010552D01*
X88716764Y-105016781D01*
X88699300Y-105025336D01*
X88687924Y-105029840D01*
X88687917Y-105029843D01*
X88680668Y-105032714D01*
X88674362Y-105037294D01*
X88674357Y-105037298D01*
X88645327Y-105058389D01*
X88635569Y-105064798D01*
X88604698Y-105083056D01*
X88597979Y-105087030D01*
X88592463Y-105092544D01*
X88592456Y-105092551D01*
X88583807Y-105101200D01*
X88569024Y-105113826D01*
X88559127Y-105121017D01*
X88559120Y-105121023D01*
X88552813Y-105125606D01*
X88547846Y-105131608D01*
X88547835Y-105131620D01*
X88524970Y-105159259D01*
X88517110Y-105167897D01*
X87744906Y-105940101D01*
X87696800Y-105969935D01*
X87640447Y-105975280D01*
X87587590Y-105955021D01*
X87549245Y-105913381D01*
X87534570Y-105863045D01*
X87533799Y-105863128D01*
X87527391Y-105803517D01*
X87477096Y-105668669D01*
X87390846Y-105553454D01*
X87357327Y-105528362D01*
X87282731Y-105472519D01*
X87282730Y-105472518D01*
X87275631Y-105467204D01*
X87140783Y-105416909D01*
X87133070Y-105416079D01*
X87133067Y-105416079D01*
X87084480Y-105410855D01*
X87084469Y-105410854D01*
X87081173Y-105410500D01*
X87077850Y-105410500D01*
X84388739Y-105410500D01*
X84388720Y-105410500D01*
X84385428Y-105410501D01*
X84382150Y-105410853D01*
X84382138Y-105410854D01*
X84333531Y-105416079D01*
X84333525Y-105416080D01*
X84325817Y-105416909D01*
X84318552Y-105419618D01*
X84318546Y-105419620D01*
X84199280Y-105464104D01*
X84199278Y-105464104D01*
X84190969Y-105467204D01*
X84183872Y-105472516D01*
X84183868Y-105472519D01*
X84082850Y-105548141D01*
X84082846Y-105548144D01*
X84075754Y-105553454D01*
X84070444Y-105560546D01*
X84070441Y-105560550D01*
X83994819Y-105661568D01*
X83994816Y-105661572D01*
X83989504Y-105668669D01*
X83986404Y-105676978D01*
X83986404Y-105676980D01*
X83941920Y-105796247D01*
X83941919Y-105796250D01*
X83939209Y-105803517D01*
X83938379Y-105811227D01*
X83938379Y-105811232D01*
X83933155Y-105859819D01*
X83933154Y-105859831D01*
X83932800Y-105863127D01*
X83932800Y-105866448D01*
X83932800Y-105866449D01*
X83932800Y-108555560D01*
X83932800Y-108555578D01*
X81644325Y-108555578D01*
X80664842Y-107576095D01*
X80653300Y-107569431D01*
X80641757Y-107576095D01*
X79577821Y-108640030D01*
X79571904Y-108649350D01*
X66040500Y-108649350D01*
X66040500Y-106680000D01*
X69614357Y-106680000D01*
X69614781Y-106685117D01*
X69634467Y-106922701D01*
X69634468Y-106922709D01*
X69634892Y-106927821D01*
X69636149Y-106932788D01*
X69636151Y-106932795D01*
X69694678Y-107163910D01*
X69695937Y-107168881D01*
X69697997Y-107173577D01*
X69793766Y-107391910D01*
X69793769Y-107391916D01*
X69795827Y-107396607D01*
X69798627Y-107400893D01*
X69798631Y-107400900D01*
X69852957Y-107484052D01*
X69931836Y-107604785D01*
X69935310Y-107608559D01*
X69935311Y-107608560D01*
X70096784Y-107783967D01*
X70096787Y-107783970D01*
X70100256Y-107787738D01*
X70296491Y-107940474D01*
X70515190Y-108058828D01*
X70750386Y-108139571D01*
X70995665Y-108180500D01*
X71239201Y-108180500D01*
X71244335Y-108180500D01*
X71489614Y-108139571D01*
X71724810Y-108058828D01*
X71943509Y-107940474D01*
X72139744Y-107787738D01*
X72308164Y-107604785D01*
X72444173Y-107396607D01*
X72523557Y-107215630D01*
X78848600Y-107215630D01*
X78868067Y-107475399D01*
X78869446Y-107484552D01*
X78927411Y-107738515D01*
X78930144Y-107747375D01*
X79025311Y-107989856D01*
X79029330Y-107998202D01*
X79159578Y-108223798D01*
X79164796Y-108231450D01*
X79204679Y-108281462D01*
X79215915Y-108289435D01*
X79227974Y-108282771D01*
X80288204Y-107222542D01*
X80294868Y-107211000D01*
X81011731Y-107211000D01*
X81018395Y-107222542D01*
X82078625Y-108282772D01*
X82090682Y-108289436D01*
X82101919Y-108281463D01*
X82141807Y-108231445D01*
X82147019Y-108223800D01*
X82277269Y-107998202D01*
X82281288Y-107989856D01*
X82376455Y-107747375D01*
X82379188Y-107738515D01*
X82437153Y-107484552D01*
X82438532Y-107475399D01*
X82458000Y-107215630D01*
X82458000Y-107206370D01*
X82438532Y-106946600D01*
X82437153Y-106937447D01*
X82379188Y-106683484D01*
X82376455Y-106674624D01*
X82281288Y-106432143D01*
X82277269Y-106423797D01*
X82147021Y-106198201D01*
X82141803Y-106190549D01*
X82101919Y-106140536D01*
X82090682Y-106132562D01*
X82078625Y-106139226D01*
X81018395Y-107199457D01*
X81011731Y-107211000D01*
X80294868Y-107211000D01*
X80288204Y-107199457D01*
X79227974Y-106139227D01*
X79215915Y-106132562D01*
X79204680Y-106140534D01*
X79164788Y-106190558D01*
X79159582Y-106198195D01*
X79029330Y-106423797D01*
X79025311Y-106432143D01*
X78930144Y-106674624D01*
X78927411Y-106683484D01*
X78869446Y-106937447D01*
X78868067Y-106946600D01*
X78848600Y-107206370D01*
X78848600Y-107215630D01*
X72523557Y-107215630D01*
X72544063Y-107168881D01*
X72605108Y-106927821D01*
X72625643Y-106680000D01*
X72605108Y-106432179D01*
X72544063Y-106191119D01*
X72444173Y-105963393D01*
X72438703Y-105955021D01*
X72372740Y-105854057D01*
X72319553Y-105772648D01*
X79571903Y-105772648D01*
X79577819Y-105781966D01*
X80641757Y-106845904D01*
X80653300Y-106852568D01*
X80664842Y-106845904D01*
X81728777Y-105781968D01*
X81734694Y-105772648D01*
X81727146Y-105764589D01*
X81559660Y-105650398D01*
X81551640Y-105645768D01*
X81316937Y-105532741D01*
X81308327Y-105529362D01*
X81059391Y-105452575D01*
X81050375Y-105450517D01*
X80792776Y-105411691D01*
X80783554Y-105411000D01*
X80523046Y-105411000D01*
X80513823Y-105411691D01*
X80256224Y-105450517D01*
X80247208Y-105452575D01*
X79998273Y-105529361D01*
X79989662Y-105532741D01*
X79754960Y-105645768D01*
X79746939Y-105650399D01*
X79579451Y-105764590D01*
X79571903Y-105772648D01*
X72319553Y-105772648D01*
X72308164Y-105755215D01*
X72236144Y-105676980D01*
X72143215Y-105576032D01*
X72143211Y-105576029D01*
X72139744Y-105572262D01*
X71983326Y-105450517D01*
X71947559Y-105422678D01*
X71947557Y-105422676D01*
X71943509Y-105419526D01*
X71938997Y-105417084D01*
X71729316Y-105303610D01*
X71729310Y-105303607D01*
X71724810Y-105301172D01*
X71719969Y-105299510D01*
X71719962Y-105299507D01*
X71494465Y-105222094D01*
X71494461Y-105222093D01*
X71489614Y-105220429D01*
X71480768Y-105218952D01*
X71249398Y-105180344D01*
X71249387Y-105180343D01*
X71244335Y-105179500D01*
X70995665Y-105179500D01*
X70990613Y-105180343D01*
X70990601Y-105180344D01*
X70755443Y-105219585D01*
X70755441Y-105219585D01*
X70750386Y-105220429D01*
X70745541Y-105222092D01*
X70745534Y-105222094D01*
X70520037Y-105299507D01*
X70520026Y-105299511D01*
X70515190Y-105301172D01*
X70510693Y-105303605D01*
X70510683Y-105303610D01*
X70301002Y-105417084D01*
X70300995Y-105417088D01*
X70296491Y-105419526D01*
X70292448Y-105422672D01*
X70292440Y-105422678D01*
X70104304Y-105569111D01*
X70100256Y-105572262D01*
X70096793Y-105576023D01*
X70096784Y-105576032D01*
X69935311Y-105751439D01*
X69935305Y-105751446D01*
X69931836Y-105755215D01*
X69929031Y-105759506D01*
X69929028Y-105759512D01*
X69798631Y-105959099D01*
X69798624Y-105959111D01*
X69795827Y-105963393D01*
X69793772Y-105968077D01*
X69793766Y-105968089D01*
X69713662Y-106150709D01*
X69695937Y-106191119D01*
X69694679Y-106196084D01*
X69694678Y-106196089D01*
X69636151Y-106427204D01*
X69636149Y-106427213D01*
X69634892Y-106432179D01*
X69634468Y-106437288D01*
X69634467Y-106437298D01*
X69614885Y-106673624D01*
X69614357Y-106680000D01*
X66040500Y-106680000D01*
X66040500Y-101839421D01*
X66057113Y-101777421D01*
X66102500Y-101732034D01*
X66164500Y-101715421D01*
X126711203Y-101715421D01*
X126773203Y-101732034D01*
G37*
%TD.AperFunction*%
%TD*%
M02*
