%TF.GenerationSoftware,KiCad,Pcbnew,(7.0.0)*%
%TF.CreationDate,2023-03-15T19:38:10+01:00*%
%TF.ProjectId,QuinLED-ESP32-Breakout,5175696e-4c45-4442-9d45-535033322d42,rev?*%
%TF.SameCoordinates,Original*%
%TF.FileFunction,Soldermask,Top*%
%TF.FilePolarity,Negative*%
%FSLAX46Y46*%
G04 Gerber Fmt 4.6, Leading zero omitted, Abs format (unit mm)*
G04 Created by KiCad (PCBNEW (7.0.0)) date 2023-03-15 19:38:10*
%MOMM*%
%LPD*%
G01*
G04 APERTURE LIST*
%ADD10C,1.600000*%
%ADD11O,1.600000X1.600000*%
%ADD12R,2.600000X2.600000*%
%ADD13C,2.600000*%
%ADD14R,1.500000X1.050000*%
%ADD15O,1.500000X1.050000*%
%ADD16C,1.700000*%
%ADD17R,2.000000X2.000000*%
%ADD18C,2.000000*%
G04 APERTURE END LIST*
D10*
%TO.C,R8*%
X106680000Y-134620000D03*
D11*
X106679999Y-119379999D03*
%TD*%
D12*
%TO.C,Reed switch 3*%
X111759099Y-107209999D03*
D13*
X106679100Y-107210000D03*
%TD*%
D12*
%TO.C,LED 3 (GPIO13)*%
X121540999Y-143744999D03*
D13*
X121541000Y-138665000D03*
%TD*%
D12*
%TO.C,LED 2 (GPIO12)*%
X121540999Y-158984999D03*
D13*
X121541000Y-153905000D03*
%TD*%
D12*
%TO.C,PIR*%
X71119999Y-134619999D03*
D13*
X71120000Y-139700000D03*
X71120000Y-144780000D03*
X71120000Y-149860000D03*
%TD*%
D10*
%TO.C,R2*%
X96520000Y-139700000D03*
D11*
X96519999Y-154939999D03*
%TD*%
D14*
%TO.C,Q1*%
X84702999Y-149184499D03*
D15*
X84702999Y-150454499D03*
X84702999Y-151724499D03*
%TD*%
D10*
%TO.C,R4*%
X106680000Y-139700000D03*
D11*
X106679999Y-154939999D03*
%TD*%
D12*
%TO.C,TEMP BME280*%
X71119999Y-160019999D03*
D13*
X71120000Y-165100000D03*
X71120000Y-170180000D03*
X71120000Y-175260000D03*
%TD*%
D10*
%TO.C,R7*%
X101600000Y-134620000D03*
D11*
X101599999Y-119379999D03*
%TD*%
D10*
%TO.C,R1*%
X91440000Y-139700000D03*
D11*
X91439999Y-154939999D03*
%TD*%
D12*
%TO.C,LED 1 (GPIO4)*%
X121540999Y-174224999D03*
D13*
X121541000Y-169145000D03*
%TD*%
D12*
%TO.C,Reed switch 1*%
X85733299Y-107210999D03*
D13*
X80653300Y-107211000D03*
%TD*%
D12*
%TO.C,LED 4 (GPIO14)*%
X121540999Y-128504999D03*
D13*
X121541000Y-123425000D03*
%TD*%
D16*
%TO.C,U1*%
X83820000Y-160020000D03*
X83820000Y-162560000D03*
X83820000Y-165100000D03*
X83820000Y-167640000D03*
X83820000Y-170180000D03*
X83820000Y-172720000D03*
X83820000Y-175260000D03*
X83820000Y-177800000D03*
X83820000Y-180340000D03*
X86360000Y-160020000D03*
X86360000Y-162560000D03*
X86360000Y-165100000D03*
X86360000Y-167640000D03*
X86360000Y-170180000D03*
X86360000Y-172720000D03*
X86360000Y-175260000D03*
X86360000Y-177800000D03*
X86360000Y-180340000D03*
X109220000Y-160020000D03*
X109220000Y-162560000D03*
X109220000Y-165100000D03*
X109220000Y-167640000D03*
X109220000Y-170180000D03*
X109220000Y-172720000D03*
X109220000Y-175260000D03*
X109220000Y-177800000D03*
X109220000Y-180340000D03*
X111760000Y-160020000D03*
X111760000Y-162560000D03*
X111760000Y-165100000D03*
X111760000Y-167640000D03*
X111760000Y-170180000D03*
X111760000Y-172720000D03*
X111760000Y-175260000D03*
X111760000Y-177800000D03*
X111760000Y-180340000D03*
%TD*%
D10*
%TO.C,R9*%
X111760000Y-134620000D03*
D11*
X111759999Y-119379999D03*
%TD*%
D12*
%TO.C,12V INPUT*%
X71119999Y-119379999D03*
D13*
X71120000Y-124460000D03*
%TD*%
D10*
%TO.C,R3*%
X101600000Y-139700000D03*
D11*
X101599999Y-154939999D03*
%TD*%
D17*
%TO.C,Buzzer*%
X83059999Y-126921389D03*
D18*
X89660000Y-126921390D03*
%TD*%
D10*
%TO.C,R6*%
X96520000Y-119380000D03*
D11*
X96519999Y-134619999D03*
%TD*%
D12*
%TO.C,Reed switch 2*%
X99059099Y-107210499D03*
D13*
X93979100Y-107210500D03*
%TD*%
D10*
%TO.C,R5*%
X111760000Y-154940000D03*
D11*
X111759999Y-139699999D03*
%TD*%
M02*
