M48
; DRILL file {KiCad (7.0.0)} date Wed Mar 15 19:38:27 2023
; FORMAT={-:-/ absolute / inch / decimal}
; #@! TF.CreationDate,2023-03-15T19:38:27+01:00
; #@! TF.GenerationSoftware,Kicad,Pcbnew,(7.0.0)
; #@! TF.FileFunction,Plated,1,2,PTH
FMAT,2
INCH
; #@! TA.AperFunction,Plated,PTH,ComponentDrill
T1C0.0295
; #@! TA.AperFunction,Plated,PTH,ComponentDrill
T2C0.0315
; #@! TA.AperFunction,Plated,PTH,ComponentDrill
T3C0.0394
; #@! TA.AperFunction,Plated,PTH,ComponentDrill
T4C0.0512
%
G90
G05
T1
X3.3348Y-5.8734
X3.3348Y-5.9234
X3.3348Y-5.9734
T2
X3.6Y-5.5
X3.6Y-6.1
X3.8Y-4.7
X3.8Y-5.3
X3.8Y-5.5
X3.8Y-6.1
X4.0Y-4.7
X4.0Y-5.3
X4.0Y-5.5
X4.0Y-6.1
X4.2Y-4.7
X4.2Y-5.3
X4.2Y-5.5
X4.2Y-6.1
X4.4Y-4.7
X4.4Y-5.3
X4.4Y-5.5
X4.4Y-6.1
T3
X3.2701Y-4.9969
X3.3Y-6.3
X3.3Y-6.4
X3.3Y-6.5
X3.3Y-6.6
X3.3Y-6.7
X3.3Y-6.8
X3.3Y-6.9
X3.3Y-7.0
X3.3Y-7.1
X3.4Y-6.3
X3.4Y-6.4
X3.4Y-6.5
X3.4Y-6.6
X3.4Y-6.7
X3.4Y-6.8
X3.4Y-6.9
X3.4Y-7.0
X3.4Y-7.1
X3.5299Y-4.9969
X4.3Y-6.3
X4.3Y-6.4
X4.3Y-6.5
X4.3Y-6.6
X4.3Y-6.7
X4.3Y-6.8
X4.3Y-6.9
X4.3Y-7.0
X4.3Y-7.1
X4.4Y-6.3
X4.4Y-6.4
X4.4Y-6.5
X4.4Y-6.6
X4.4Y-6.7
X4.4Y-6.8
X4.4Y-6.9
X4.4Y-7.0
X4.4Y-7.1
T4
X2.8Y-4.7
X2.8Y-4.9
X2.8Y-5.3
X2.8Y-5.5
X2.8Y-5.7
X2.8Y-5.9
X2.8Y-6.3
X2.8Y-6.5
X2.8Y-6.7
X2.8Y-6.9
X3.1753Y-4.2209
X3.3753Y-4.2209
X3.7Y-4.2209
X3.9Y-4.2209
X4.2Y-4.2209
X4.4Y-4.2209
X4.7851Y-4.8593
X4.7851Y-5.0593
X4.7851Y-5.4593
X4.7851Y-5.6593
X4.7851Y-6.0593
X4.7851Y-6.2593
X4.7851Y-6.6593
X4.7851Y-6.8593
T0
M30
