%TF.GenerationSoftware,KiCad,Pcbnew,(7.0.0)*%
%TF.CreationDate,2023-03-15T19:38:20+01:00*%
%TF.ProjectId,QuinLED-ESP32-Breakout,5175696e-4c45-4442-9d45-535033322d42,rev?*%
%TF.SameCoordinates,Original*%
%TF.FileFunction,Drillmap*%
%TF.FilePolarity,Positive*%
%FSLAX45Y45*%
G04 Gerber Fmt 4.5, Leading zero omitted, Abs format (unit mm)*
G04 Created by KiCad (PCBNEW (7.0.0)) date 2023-03-15 19:38:20*
%MOMM*%
%LPD*%
G01*
G04 APERTURE LIST*
%ADD10C,0.100000*%
%ADD11C,0.200000*%
%ADD12C,0.075000*%
%ADD13C,0.080000*%
%ADD14C,0.130000*%
G04 APERTURE END LIST*
D10*
X12342000Y-10668000D02*
G75*
G03*
X12342000Y-10668000I-150000J0D01*
G01*
X6604000Y-10171492D02*
X12683570Y-10171492D01*
X12683570Y-10171492D02*
X12683570Y-18542000D01*
X12683570Y-18542000D02*
X6604000Y-18542000D01*
X6604000Y-18542000D02*
X6604000Y-10171492D01*
X12342000Y-18134014D02*
G75*
G03*
X12342000Y-18134014I-150000J0D01*
G01*
X7262000Y-18153518D02*
G75*
G03*
X7262000Y-18153518I-150000J0D01*
G01*
X7262000Y-10668000D02*
G75*
G03*
X7262000Y-10668000I-150000J0D01*
G01*
D11*
D12*
X8432800Y-14880950D02*
X8507800Y-14955950D01*
X8507800Y-14880950D02*
X8432800Y-14955950D01*
X8432800Y-15007950D02*
X8507800Y-15082950D01*
X8507800Y-15007950D02*
X8432800Y-15082950D01*
X8432800Y-15134950D02*
X8507800Y-15209950D01*
X8507800Y-15134950D02*
X8432800Y-15209950D01*
D13*
X9184000Y-13970000D02*
G75*
G03*
X9184000Y-13970000I-40000J0D01*
G01*
X9184000Y-15494000D02*
G75*
G03*
X9184000Y-15494000I-40000J0D01*
G01*
X9692000Y-11938000D02*
G75*
G03*
X9692000Y-11938000I-40000J0D01*
G01*
X9692000Y-13462000D02*
G75*
G03*
X9692000Y-13462000I-40000J0D01*
G01*
X9692000Y-13970000D02*
G75*
G03*
X9692000Y-13970000I-40000J0D01*
G01*
X9692000Y-15494000D02*
G75*
G03*
X9692000Y-15494000I-40000J0D01*
G01*
X10200000Y-11938000D02*
G75*
G03*
X10200000Y-11938000I-40000J0D01*
G01*
X10200000Y-13462000D02*
G75*
G03*
X10200000Y-13462000I-40000J0D01*
G01*
X10200000Y-13970000D02*
G75*
G03*
X10200000Y-13970000I-40000J0D01*
G01*
X10200000Y-15494000D02*
G75*
G03*
X10200000Y-15494000I-40000J0D01*
G01*
X10708000Y-11938000D02*
G75*
G03*
X10708000Y-11938000I-40000J0D01*
G01*
X10708000Y-13462000D02*
G75*
G03*
X10708000Y-13462000I-40000J0D01*
G01*
X10708000Y-13970000D02*
G75*
G03*
X10708000Y-13970000I-40000J0D01*
G01*
X10708000Y-15494000D02*
G75*
G03*
X10708000Y-15494000I-40000J0D01*
G01*
X11216000Y-11938000D02*
G75*
G03*
X11216000Y-11938000I-40000J0D01*
G01*
X11216000Y-13462000D02*
G75*
G03*
X11216000Y-13462000I-40000J0D01*
G01*
X11216000Y-13970000D02*
G75*
G03*
X11216000Y-13970000I-40000J0D01*
G01*
X11216000Y-15494000D02*
G75*
G03*
X11216000Y-15494000I-40000J0D01*
G01*
D10*
X8306000Y-12642139D02*
X8306000Y-12742139D01*
X8256000Y-12692139D02*
X8356000Y-12692139D01*
X8382000Y-15952000D02*
X8382000Y-16052000D01*
X8332000Y-16002000D02*
X8432000Y-16002000D01*
X8382000Y-16206000D02*
X8382000Y-16306000D01*
X8332000Y-16256000D02*
X8432000Y-16256000D01*
X8382000Y-16460000D02*
X8382000Y-16560000D01*
X8332000Y-16510000D02*
X8432000Y-16510000D01*
X8382000Y-16714000D02*
X8382000Y-16814000D01*
X8332000Y-16764000D02*
X8432000Y-16764000D01*
X8382000Y-16968000D02*
X8382000Y-17068000D01*
X8332000Y-17018000D02*
X8432000Y-17018000D01*
X8382000Y-17222000D02*
X8382000Y-17322000D01*
X8332000Y-17272000D02*
X8432000Y-17272000D01*
X8382000Y-17476000D02*
X8382000Y-17576000D01*
X8332000Y-17526000D02*
X8432000Y-17526000D01*
X8382000Y-17730000D02*
X8382000Y-17830000D01*
X8332000Y-17780000D02*
X8432000Y-17780000D01*
X8382000Y-17984000D02*
X8382000Y-18084000D01*
X8332000Y-18034000D02*
X8432000Y-18034000D01*
X8636000Y-15952000D02*
X8636000Y-16052000D01*
X8586000Y-16002000D02*
X8686000Y-16002000D01*
X8636000Y-16206000D02*
X8636000Y-16306000D01*
X8586000Y-16256000D02*
X8686000Y-16256000D01*
X8636000Y-16460000D02*
X8636000Y-16560000D01*
X8586000Y-16510000D02*
X8686000Y-16510000D01*
X8636000Y-16714000D02*
X8636000Y-16814000D01*
X8586000Y-16764000D02*
X8686000Y-16764000D01*
X8636000Y-16968000D02*
X8636000Y-17068000D01*
X8586000Y-17018000D02*
X8686000Y-17018000D01*
X8636000Y-17222000D02*
X8636000Y-17322000D01*
X8586000Y-17272000D02*
X8686000Y-17272000D01*
X8636000Y-17476000D02*
X8636000Y-17576000D01*
X8586000Y-17526000D02*
X8686000Y-17526000D01*
X8636000Y-17730000D02*
X8636000Y-17830000D01*
X8586000Y-17780000D02*
X8686000Y-17780000D01*
X8636000Y-17984000D02*
X8636000Y-18084000D01*
X8586000Y-18034000D02*
X8686000Y-18034000D01*
X8966000Y-12642139D02*
X8966000Y-12742139D01*
X8916000Y-12692139D02*
X9016000Y-12692139D01*
X10922000Y-15952000D02*
X10922000Y-16052000D01*
X10872000Y-16002000D02*
X10972000Y-16002000D01*
X10922000Y-16206000D02*
X10922000Y-16306000D01*
X10872000Y-16256000D02*
X10972000Y-16256000D01*
X10922000Y-16460000D02*
X10922000Y-16560000D01*
X10872000Y-16510000D02*
X10972000Y-16510000D01*
X10922000Y-16714000D02*
X10922000Y-16814000D01*
X10872000Y-16764000D02*
X10972000Y-16764000D01*
X10922000Y-16968000D02*
X10922000Y-17068000D01*
X10872000Y-17018000D02*
X10972000Y-17018000D01*
X10922000Y-17222000D02*
X10922000Y-17322000D01*
X10872000Y-17272000D02*
X10972000Y-17272000D01*
X10922000Y-17476000D02*
X10922000Y-17576000D01*
X10872000Y-17526000D02*
X10972000Y-17526000D01*
X10922000Y-17730000D02*
X10922000Y-17830000D01*
X10872000Y-17780000D02*
X10972000Y-17780000D01*
X10922000Y-17984000D02*
X10922000Y-18084000D01*
X10872000Y-18034000D02*
X10972000Y-18034000D01*
X11176000Y-15952000D02*
X11176000Y-16052000D01*
X11126000Y-16002000D02*
X11226000Y-16002000D01*
X11176000Y-16206000D02*
X11176000Y-16306000D01*
X11126000Y-16256000D02*
X11226000Y-16256000D01*
X11176000Y-16460000D02*
X11176000Y-16560000D01*
X11126000Y-16510000D02*
X11226000Y-16510000D01*
X11176000Y-16714000D02*
X11176000Y-16814000D01*
X11126000Y-16764000D02*
X11226000Y-16764000D01*
X11176000Y-16968000D02*
X11176000Y-17068000D01*
X11126000Y-17018000D02*
X11226000Y-17018000D01*
X11176000Y-17222000D02*
X11176000Y-17322000D01*
X11126000Y-17272000D02*
X11226000Y-17272000D01*
X11176000Y-17476000D02*
X11176000Y-17576000D01*
X11126000Y-17526000D02*
X11226000Y-17526000D01*
X11176000Y-17730000D02*
X11176000Y-17830000D01*
X11126000Y-17780000D02*
X11226000Y-17780000D01*
X11176000Y-17984000D02*
X11176000Y-18084000D01*
X11126000Y-18034000D02*
X11226000Y-18034000D01*
D14*
X7157962Y-11983962D02*
X7157962Y-11892038D01*
X7066038Y-11892038D01*
X7066038Y-11983962D01*
X7157962Y-11983962D01*
X7157962Y-12491962D02*
X7157962Y-12400038D01*
X7066038Y-12400038D01*
X7066038Y-12491962D01*
X7157962Y-12491962D01*
X7157962Y-13507962D02*
X7157962Y-13416038D01*
X7066038Y-13416038D01*
X7066038Y-13507962D01*
X7157962Y-13507962D01*
X7157962Y-14015962D02*
X7157962Y-13924038D01*
X7066038Y-13924038D01*
X7066038Y-14015962D01*
X7157962Y-14015962D01*
X7157962Y-14523962D02*
X7157962Y-14432038D01*
X7066038Y-14432038D01*
X7066038Y-14523962D01*
X7157962Y-14523962D01*
X7157962Y-15031962D02*
X7157962Y-14940038D01*
X7066038Y-14940038D01*
X7066038Y-15031962D01*
X7157962Y-15031962D01*
X7157962Y-16047962D02*
X7157962Y-15956038D01*
X7066038Y-15956038D01*
X7066038Y-16047962D01*
X7157962Y-16047962D01*
X7157962Y-16555962D02*
X7157962Y-16464038D01*
X7066038Y-16464038D01*
X7066038Y-16555962D01*
X7157962Y-16555962D01*
X7157962Y-17063962D02*
X7157962Y-16972038D01*
X7066038Y-16972038D01*
X7066038Y-17063962D01*
X7157962Y-17063962D01*
X7157962Y-17571962D02*
X7157962Y-17480038D01*
X7066038Y-17480038D01*
X7066038Y-17571962D01*
X7157962Y-17571962D01*
X8111292Y-10767062D02*
X8111292Y-10675138D01*
X8019368Y-10675138D01*
X8019368Y-10767062D01*
X8111292Y-10767062D01*
X8619292Y-10767062D02*
X8619292Y-10675138D01*
X8527368Y-10675138D01*
X8527368Y-10767062D01*
X8619292Y-10767062D01*
X9443872Y-10767012D02*
X9443872Y-10675088D01*
X9351948Y-10675088D01*
X9351948Y-10767012D01*
X9443872Y-10767012D01*
X9951872Y-10767012D02*
X9951872Y-10675088D01*
X9859948Y-10675088D01*
X9859948Y-10767012D01*
X9951872Y-10767012D01*
X10713872Y-10766962D02*
X10713872Y-10675038D01*
X10621948Y-10675038D01*
X10621948Y-10766962D01*
X10713872Y-10766962D01*
X11221872Y-10766962D02*
X11221872Y-10675038D01*
X11129948Y-10675038D01*
X11129948Y-10766962D01*
X11221872Y-10766962D01*
X12200062Y-12388462D02*
X12200062Y-12296538D01*
X12108138Y-12296538D01*
X12108138Y-12388462D01*
X12200062Y-12388462D01*
X12200062Y-12896462D02*
X12200062Y-12804538D01*
X12108138Y-12804538D01*
X12108138Y-12896462D01*
X12200062Y-12896462D01*
X12200062Y-13912462D02*
X12200062Y-13820538D01*
X12108138Y-13820538D01*
X12108138Y-13912462D01*
X12200062Y-13912462D01*
X12200062Y-14420462D02*
X12200062Y-14328538D01*
X12108138Y-14328538D01*
X12108138Y-14420462D01*
X12200062Y-14420462D01*
X12200062Y-15436462D02*
X12200062Y-15344538D01*
X12108138Y-15344538D01*
X12108138Y-15436462D01*
X12200062Y-15436462D01*
X12200062Y-15944462D02*
X12200062Y-15852538D01*
X12108138Y-15852538D01*
X12108138Y-15944462D01*
X12200062Y-15944462D01*
X12200062Y-16960462D02*
X12200062Y-16868538D01*
X12108138Y-16868538D01*
X12108138Y-16960462D01*
X12200062Y-16960462D01*
X12200062Y-17468462D02*
X12200062Y-17376538D01*
X12108138Y-17376538D01*
X12108138Y-17468462D01*
X12200062Y-17468462D01*
D11*
X6846619Y-18840476D02*
X6846619Y-18640476D01*
X6846619Y-18640476D02*
X6894238Y-18640476D01*
X6894238Y-18640476D02*
X6922809Y-18650000D01*
X6922809Y-18650000D02*
X6941857Y-18669048D01*
X6941857Y-18669048D02*
X6951381Y-18688095D01*
X6951381Y-18688095D02*
X6960905Y-18726190D01*
X6960905Y-18726190D02*
X6960905Y-18754762D01*
X6960905Y-18754762D02*
X6951381Y-18792857D01*
X6951381Y-18792857D02*
X6941857Y-18811905D01*
X6941857Y-18811905D02*
X6922809Y-18830952D01*
X6922809Y-18830952D02*
X6894238Y-18840476D01*
X6894238Y-18840476D02*
X6846619Y-18840476D01*
X7046619Y-18840476D02*
X7046619Y-18707143D01*
X7046619Y-18745238D02*
X7056143Y-18726190D01*
X7056143Y-18726190D02*
X7065667Y-18716667D01*
X7065667Y-18716667D02*
X7084714Y-18707143D01*
X7084714Y-18707143D02*
X7103762Y-18707143D01*
X7170428Y-18840476D02*
X7170428Y-18707143D01*
X7170428Y-18640476D02*
X7160905Y-18650000D01*
X7160905Y-18650000D02*
X7170428Y-18659524D01*
X7170428Y-18659524D02*
X7179952Y-18650000D01*
X7179952Y-18650000D02*
X7170428Y-18640476D01*
X7170428Y-18640476D02*
X7170428Y-18659524D01*
X7294238Y-18840476D02*
X7275190Y-18830952D01*
X7275190Y-18830952D02*
X7265667Y-18811905D01*
X7265667Y-18811905D02*
X7265667Y-18640476D01*
X7399000Y-18840476D02*
X7379952Y-18830952D01*
X7379952Y-18830952D02*
X7370428Y-18811905D01*
X7370428Y-18811905D02*
X7370428Y-18640476D01*
X7595190Y-18840476D02*
X7595190Y-18640476D01*
X7595190Y-18640476D02*
X7661857Y-18783333D01*
X7661857Y-18783333D02*
X7728524Y-18640476D01*
X7728524Y-18640476D02*
X7728524Y-18840476D01*
X7909476Y-18840476D02*
X7909476Y-18735714D01*
X7909476Y-18735714D02*
X7899952Y-18716667D01*
X7899952Y-18716667D02*
X7880905Y-18707143D01*
X7880905Y-18707143D02*
X7842809Y-18707143D01*
X7842809Y-18707143D02*
X7823762Y-18716667D01*
X7909476Y-18830952D02*
X7890428Y-18840476D01*
X7890428Y-18840476D02*
X7842809Y-18840476D01*
X7842809Y-18840476D02*
X7823762Y-18830952D01*
X7823762Y-18830952D02*
X7814238Y-18811905D01*
X7814238Y-18811905D02*
X7814238Y-18792857D01*
X7814238Y-18792857D02*
X7823762Y-18773810D01*
X7823762Y-18773810D02*
X7842809Y-18764286D01*
X7842809Y-18764286D02*
X7890428Y-18764286D01*
X7890428Y-18764286D02*
X7909476Y-18754762D01*
X8004714Y-18707143D02*
X8004714Y-18907143D01*
X8004714Y-18716667D02*
X8023762Y-18707143D01*
X8023762Y-18707143D02*
X8061857Y-18707143D01*
X8061857Y-18707143D02*
X8080905Y-18716667D01*
X8080905Y-18716667D02*
X8090428Y-18726190D01*
X8090428Y-18726190D02*
X8099952Y-18745238D01*
X8099952Y-18745238D02*
X8099952Y-18802381D01*
X8099952Y-18802381D02*
X8090428Y-18821429D01*
X8090428Y-18821429D02*
X8080905Y-18830952D01*
X8080905Y-18830952D02*
X8061857Y-18840476D01*
X8061857Y-18840476D02*
X8023762Y-18840476D01*
X8023762Y-18840476D02*
X8004714Y-18830952D01*
X8185667Y-18821429D02*
X8195190Y-18830952D01*
X8195190Y-18830952D02*
X8185667Y-18840476D01*
X8185667Y-18840476D02*
X8176143Y-18830952D01*
X8176143Y-18830952D02*
X8185667Y-18821429D01*
X8185667Y-18821429D02*
X8185667Y-18840476D01*
X8185667Y-18716667D02*
X8195190Y-18726190D01*
X8195190Y-18726190D02*
X8185667Y-18735714D01*
X8185667Y-18735714D02*
X8176143Y-18726190D01*
X8176143Y-18726190D02*
X8185667Y-18716667D01*
X8185667Y-18716667D02*
X8185667Y-18735714D01*
D12*
X6524000Y-19149500D02*
X6599000Y-19224500D01*
X6599000Y-19149500D02*
X6524000Y-19224500D01*
D11*
X6884714Y-19060476D02*
X6903762Y-19060476D01*
X6903762Y-19060476D02*
X6922809Y-19070000D01*
X6922809Y-19070000D02*
X6932333Y-19079524D01*
X6932333Y-19079524D02*
X6941857Y-19098571D01*
X6941857Y-19098571D02*
X6951381Y-19136667D01*
X6951381Y-19136667D02*
X6951381Y-19184286D01*
X6951381Y-19184286D02*
X6941857Y-19222381D01*
X6941857Y-19222381D02*
X6932333Y-19241429D01*
X6932333Y-19241429D02*
X6922809Y-19250952D01*
X6922809Y-19250952D02*
X6903762Y-19260476D01*
X6903762Y-19260476D02*
X6884714Y-19260476D01*
X6884714Y-19260476D02*
X6865667Y-19250952D01*
X6865667Y-19250952D02*
X6856143Y-19241429D01*
X6856143Y-19241429D02*
X6846619Y-19222381D01*
X6846619Y-19222381D02*
X6837095Y-19184286D01*
X6837095Y-19184286D02*
X6837095Y-19136667D01*
X6837095Y-19136667D02*
X6846619Y-19098571D01*
X6846619Y-19098571D02*
X6856143Y-19079524D01*
X6856143Y-19079524D02*
X6865667Y-19070000D01*
X6865667Y-19070000D02*
X6884714Y-19060476D01*
X7037095Y-19241429D02*
X7046619Y-19250952D01*
X7046619Y-19250952D02*
X7037095Y-19260476D01*
X7037095Y-19260476D02*
X7027571Y-19250952D01*
X7027571Y-19250952D02*
X7037095Y-19241429D01*
X7037095Y-19241429D02*
X7037095Y-19260476D01*
X7113286Y-19060476D02*
X7246619Y-19060476D01*
X7246619Y-19060476D02*
X7160905Y-19260476D01*
X7418048Y-19060476D02*
X7322809Y-19060476D01*
X7322809Y-19060476D02*
X7313286Y-19155714D01*
X7313286Y-19155714D02*
X7322809Y-19146190D01*
X7322809Y-19146190D02*
X7341857Y-19136667D01*
X7341857Y-19136667D02*
X7389476Y-19136667D01*
X7389476Y-19136667D02*
X7408524Y-19146190D01*
X7408524Y-19146190D02*
X7418048Y-19155714D01*
X7418048Y-19155714D02*
X7427571Y-19174762D01*
X7427571Y-19174762D02*
X7427571Y-19222381D01*
X7427571Y-19222381D02*
X7418048Y-19241429D01*
X7418048Y-19241429D02*
X7408524Y-19250952D01*
X7408524Y-19250952D02*
X7389476Y-19260476D01*
X7389476Y-19260476D02*
X7341857Y-19260476D01*
X7341857Y-19260476D02*
X7322809Y-19250952D01*
X7322809Y-19250952D02*
X7313286Y-19241429D01*
X7551381Y-19060476D02*
X7570429Y-19060476D01*
X7570429Y-19060476D02*
X7589476Y-19070000D01*
X7589476Y-19070000D02*
X7599000Y-19079524D01*
X7599000Y-19079524D02*
X7608524Y-19098571D01*
X7608524Y-19098571D02*
X7618048Y-19136667D01*
X7618048Y-19136667D02*
X7618048Y-19184286D01*
X7618048Y-19184286D02*
X7608524Y-19222381D01*
X7608524Y-19222381D02*
X7599000Y-19241429D01*
X7599000Y-19241429D02*
X7589476Y-19250952D01*
X7589476Y-19250952D02*
X7570429Y-19260476D01*
X7570429Y-19260476D02*
X7551381Y-19260476D01*
X7551381Y-19260476D02*
X7532333Y-19250952D01*
X7532333Y-19250952D02*
X7522809Y-19241429D01*
X7522809Y-19241429D02*
X7513286Y-19222381D01*
X7513286Y-19222381D02*
X7503762Y-19184286D01*
X7503762Y-19184286D02*
X7503762Y-19136667D01*
X7503762Y-19136667D02*
X7513286Y-19098571D01*
X7513286Y-19098571D02*
X7522809Y-19079524D01*
X7522809Y-19079524D02*
X7532333Y-19070000D01*
X7532333Y-19070000D02*
X7551381Y-19060476D01*
X7703762Y-19260476D02*
X7703762Y-19127143D01*
X7703762Y-19146190D02*
X7713286Y-19136667D01*
X7713286Y-19136667D02*
X7732333Y-19127143D01*
X7732333Y-19127143D02*
X7760905Y-19127143D01*
X7760905Y-19127143D02*
X7779952Y-19136667D01*
X7779952Y-19136667D02*
X7789476Y-19155714D01*
X7789476Y-19155714D02*
X7789476Y-19260476D01*
X7789476Y-19155714D02*
X7799000Y-19136667D01*
X7799000Y-19136667D02*
X7818048Y-19127143D01*
X7818048Y-19127143D02*
X7846619Y-19127143D01*
X7846619Y-19127143D02*
X7865667Y-19136667D01*
X7865667Y-19136667D02*
X7875190Y-19155714D01*
X7875190Y-19155714D02*
X7875190Y-19260476D01*
X7970429Y-19260476D02*
X7970429Y-19127143D01*
X7970429Y-19146190D02*
X7979952Y-19136667D01*
X7979952Y-19136667D02*
X7999000Y-19127143D01*
X7999000Y-19127143D02*
X8027571Y-19127143D01*
X8027571Y-19127143D02*
X8046619Y-19136667D01*
X8046619Y-19136667D02*
X8056143Y-19155714D01*
X8056143Y-19155714D02*
X8056143Y-19260476D01*
X8056143Y-19155714D02*
X8065667Y-19136667D01*
X8065667Y-19136667D02*
X8084714Y-19127143D01*
X8084714Y-19127143D02*
X8113286Y-19127143D01*
X8113286Y-19127143D02*
X8132333Y-19136667D01*
X8132333Y-19136667D02*
X8141857Y-19155714D01*
X8141857Y-19155714D02*
X8141857Y-19260476D01*
X8499952Y-19050952D02*
X8328524Y-19308095D01*
X8724714Y-19060476D02*
X8743762Y-19060476D01*
X8743762Y-19060476D02*
X8762810Y-19070000D01*
X8762810Y-19070000D02*
X8772333Y-19079524D01*
X8772333Y-19079524D02*
X8781857Y-19098571D01*
X8781857Y-19098571D02*
X8791381Y-19136667D01*
X8791381Y-19136667D02*
X8791381Y-19184286D01*
X8791381Y-19184286D02*
X8781857Y-19222381D01*
X8781857Y-19222381D02*
X8772333Y-19241429D01*
X8772333Y-19241429D02*
X8762810Y-19250952D01*
X8762810Y-19250952D02*
X8743762Y-19260476D01*
X8743762Y-19260476D02*
X8724714Y-19260476D01*
X8724714Y-19260476D02*
X8705667Y-19250952D01*
X8705667Y-19250952D02*
X8696143Y-19241429D01*
X8696143Y-19241429D02*
X8686619Y-19222381D01*
X8686619Y-19222381D02*
X8677095Y-19184286D01*
X8677095Y-19184286D02*
X8677095Y-19136667D01*
X8677095Y-19136667D02*
X8686619Y-19098571D01*
X8686619Y-19098571D02*
X8696143Y-19079524D01*
X8696143Y-19079524D02*
X8705667Y-19070000D01*
X8705667Y-19070000D02*
X8724714Y-19060476D01*
X8877095Y-19241429D02*
X8886619Y-19250952D01*
X8886619Y-19250952D02*
X8877095Y-19260476D01*
X8877095Y-19260476D02*
X8867572Y-19250952D01*
X8867572Y-19250952D02*
X8877095Y-19241429D01*
X8877095Y-19241429D02*
X8877095Y-19260476D01*
X9010429Y-19060476D02*
X9029476Y-19060476D01*
X9029476Y-19060476D02*
X9048524Y-19070000D01*
X9048524Y-19070000D02*
X9058048Y-19079524D01*
X9058048Y-19079524D02*
X9067572Y-19098571D01*
X9067572Y-19098571D02*
X9077095Y-19136667D01*
X9077095Y-19136667D02*
X9077095Y-19184286D01*
X9077095Y-19184286D02*
X9067572Y-19222381D01*
X9067572Y-19222381D02*
X9058048Y-19241429D01*
X9058048Y-19241429D02*
X9048524Y-19250952D01*
X9048524Y-19250952D02*
X9029476Y-19260476D01*
X9029476Y-19260476D02*
X9010429Y-19260476D01*
X9010429Y-19260476D02*
X8991381Y-19250952D01*
X8991381Y-19250952D02*
X8981857Y-19241429D01*
X8981857Y-19241429D02*
X8972333Y-19222381D01*
X8972333Y-19222381D02*
X8962810Y-19184286D01*
X8962810Y-19184286D02*
X8962810Y-19136667D01*
X8962810Y-19136667D02*
X8972333Y-19098571D01*
X8972333Y-19098571D02*
X8981857Y-19079524D01*
X8981857Y-19079524D02*
X8991381Y-19070000D01*
X8991381Y-19070000D02*
X9010429Y-19060476D01*
X9153286Y-19079524D02*
X9162810Y-19070000D01*
X9162810Y-19070000D02*
X9181857Y-19060476D01*
X9181857Y-19060476D02*
X9229476Y-19060476D01*
X9229476Y-19060476D02*
X9248524Y-19070000D01*
X9248524Y-19070000D02*
X9258048Y-19079524D01*
X9258048Y-19079524D02*
X9267572Y-19098571D01*
X9267572Y-19098571D02*
X9267572Y-19117619D01*
X9267572Y-19117619D02*
X9258048Y-19146190D01*
X9258048Y-19146190D02*
X9143762Y-19260476D01*
X9143762Y-19260476D02*
X9267572Y-19260476D01*
X9362810Y-19260476D02*
X9400905Y-19260476D01*
X9400905Y-19260476D02*
X9419953Y-19250952D01*
X9419953Y-19250952D02*
X9429476Y-19241429D01*
X9429476Y-19241429D02*
X9448524Y-19212857D01*
X9448524Y-19212857D02*
X9458048Y-19174762D01*
X9458048Y-19174762D02*
X9458048Y-19098571D01*
X9458048Y-19098571D02*
X9448524Y-19079524D01*
X9448524Y-19079524D02*
X9439000Y-19070000D01*
X9439000Y-19070000D02*
X9419953Y-19060476D01*
X9419953Y-19060476D02*
X9381857Y-19060476D01*
X9381857Y-19060476D02*
X9362810Y-19070000D01*
X9362810Y-19070000D02*
X9353286Y-19079524D01*
X9353286Y-19079524D02*
X9343762Y-19098571D01*
X9343762Y-19098571D02*
X9343762Y-19146190D01*
X9343762Y-19146190D02*
X9353286Y-19165238D01*
X9353286Y-19165238D02*
X9362810Y-19174762D01*
X9362810Y-19174762D02*
X9381857Y-19184286D01*
X9381857Y-19184286D02*
X9419953Y-19184286D01*
X9419953Y-19184286D02*
X9439000Y-19174762D01*
X9439000Y-19174762D02*
X9448524Y-19165238D01*
X9448524Y-19165238D02*
X9458048Y-19146190D01*
X9639000Y-19060476D02*
X9543762Y-19060476D01*
X9543762Y-19060476D02*
X9534238Y-19155714D01*
X9534238Y-19155714D02*
X9543762Y-19146190D01*
X9543762Y-19146190D02*
X9562810Y-19136667D01*
X9562810Y-19136667D02*
X9610429Y-19136667D01*
X9610429Y-19136667D02*
X9629476Y-19146190D01*
X9629476Y-19146190D02*
X9639000Y-19155714D01*
X9639000Y-19155714D02*
X9648524Y-19174762D01*
X9648524Y-19174762D02*
X9648524Y-19222381D01*
X9648524Y-19222381D02*
X9639000Y-19241429D01*
X9639000Y-19241429D02*
X9629476Y-19250952D01*
X9629476Y-19250952D02*
X9610429Y-19260476D01*
X9610429Y-19260476D02*
X9562810Y-19260476D01*
X9562810Y-19260476D02*
X9543762Y-19250952D01*
X9543762Y-19250952D02*
X9534238Y-19241429D01*
X9724714Y-19060476D02*
X9724714Y-19098571D01*
X9800905Y-19060476D02*
X9800905Y-19098571D01*
X10063762Y-19336667D02*
X10054238Y-19327143D01*
X10054238Y-19327143D02*
X10035191Y-19298571D01*
X10035191Y-19298571D02*
X10025667Y-19279524D01*
X10025667Y-19279524D02*
X10016143Y-19250952D01*
X10016143Y-19250952D02*
X10006619Y-19203333D01*
X10006619Y-19203333D02*
X10006619Y-19165238D01*
X10006619Y-19165238D02*
X10016143Y-19117619D01*
X10016143Y-19117619D02*
X10025667Y-19089048D01*
X10025667Y-19089048D02*
X10035191Y-19070000D01*
X10035191Y-19070000D02*
X10054238Y-19041429D01*
X10054238Y-19041429D02*
X10063762Y-19031905D01*
X10120905Y-19060476D02*
X10244714Y-19060476D01*
X10244714Y-19060476D02*
X10178048Y-19136667D01*
X10178048Y-19136667D02*
X10206619Y-19136667D01*
X10206619Y-19136667D02*
X10225667Y-19146190D01*
X10225667Y-19146190D02*
X10235191Y-19155714D01*
X10235191Y-19155714D02*
X10244714Y-19174762D01*
X10244714Y-19174762D02*
X10244714Y-19222381D01*
X10244714Y-19222381D02*
X10235191Y-19241429D01*
X10235191Y-19241429D02*
X10225667Y-19250952D01*
X10225667Y-19250952D02*
X10206619Y-19260476D01*
X10206619Y-19260476D02*
X10149476Y-19260476D01*
X10149476Y-19260476D02*
X10130429Y-19250952D01*
X10130429Y-19250952D02*
X10120905Y-19241429D01*
X10450429Y-19260476D02*
X10450429Y-19060476D01*
X10536143Y-19260476D02*
X10536143Y-19155714D01*
X10536143Y-19155714D02*
X10526619Y-19136667D01*
X10526619Y-19136667D02*
X10507572Y-19127143D01*
X10507572Y-19127143D02*
X10479000Y-19127143D01*
X10479000Y-19127143D02*
X10459953Y-19136667D01*
X10459953Y-19136667D02*
X10450429Y-19146190D01*
X10659953Y-19260476D02*
X10640905Y-19250952D01*
X10640905Y-19250952D02*
X10631381Y-19241429D01*
X10631381Y-19241429D02*
X10621857Y-19222381D01*
X10621857Y-19222381D02*
X10621857Y-19165238D01*
X10621857Y-19165238D02*
X10631381Y-19146190D01*
X10631381Y-19146190D02*
X10640905Y-19136667D01*
X10640905Y-19136667D02*
X10659953Y-19127143D01*
X10659953Y-19127143D02*
X10688524Y-19127143D01*
X10688524Y-19127143D02*
X10707572Y-19136667D01*
X10707572Y-19136667D02*
X10717095Y-19146190D01*
X10717095Y-19146190D02*
X10726619Y-19165238D01*
X10726619Y-19165238D02*
X10726619Y-19222381D01*
X10726619Y-19222381D02*
X10717095Y-19241429D01*
X10717095Y-19241429D02*
X10707572Y-19250952D01*
X10707572Y-19250952D02*
X10688524Y-19260476D01*
X10688524Y-19260476D02*
X10659953Y-19260476D01*
X10840905Y-19260476D02*
X10821857Y-19250952D01*
X10821857Y-19250952D02*
X10812334Y-19231905D01*
X10812334Y-19231905D02*
X10812334Y-19060476D01*
X10993286Y-19250952D02*
X10974238Y-19260476D01*
X10974238Y-19260476D02*
X10936143Y-19260476D01*
X10936143Y-19260476D02*
X10917095Y-19250952D01*
X10917095Y-19250952D02*
X10907572Y-19231905D01*
X10907572Y-19231905D02*
X10907572Y-19155714D01*
X10907572Y-19155714D02*
X10917095Y-19136667D01*
X10917095Y-19136667D02*
X10936143Y-19127143D01*
X10936143Y-19127143D02*
X10974238Y-19127143D01*
X10974238Y-19127143D02*
X10993286Y-19136667D01*
X10993286Y-19136667D02*
X11002810Y-19155714D01*
X11002810Y-19155714D02*
X11002810Y-19174762D01*
X11002810Y-19174762D02*
X10907572Y-19193810D01*
X11079000Y-19250952D02*
X11098048Y-19260476D01*
X11098048Y-19260476D02*
X11136143Y-19260476D01*
X11136143Y-19260476D02*
X11155191Y-19250952D01*
X11155191Y-19250952D02*
X11164715Y-19231905D01*
X11164715Y-19231905D02*
X11164715Y-19222381D01*
X11164715Y-19222381D02*
X11155191Y-19203333D01*
X11155191Y-19203333D02*
X11136143Y-19193810D01*
X11136143Y-19193810D02*
X11107572Y-19193810D01*
X11107572Y-19193810D02*
X11088524Y-19184286D01*
X11088524Y-19184286D02*
X11079000Y-19165238D01*
X11079000Y-19165238D02*
X11079000Y-19155714D01*
X11079000Y-19155714D02*
X11088524Y-19136667D01*
X11088524Y-19136667D02*
X11107572Y-19127143D01*
X11107572Y-19127143D02*
X11136143Y-19127143D01*
X11136143Y-19127143D02*
X11155191Y-19136667D01*
X11231381Y-19336667D02*
X11240905Y-19327143D01*
X11240905Y-19327143D02*
X11259953Y-19298571D01*
X11259953Y-19298571D02*
X11269476Y-19279524D01*
X11269476Y-19279524D02*
X11279000Y-19250952D01*
X11279000Y-19250952D02*
X11288524Y-19203333D01*
X11288524Y-19203333D02*
X11288524Y-19165238D01*
X11288524Y-19165238D02*
X11279000Y-19117619D01*
X11279000Y-19117619D02*
X11269476Y-19089048D01*
X11269476Y-19089048D02*
X11259953Y-19070000D01*
X11259953Y-19070000D02*
X11240905Y-19041429D01*
X11240905Y-19041429D02*
X11231381Y-19031905D01*
D13*
X6599000Y-19451000D02*
G75*
G03*
X6599000Y-19451000I-40000J0D01*
G01*
D11*
X6884714Y-19324476D02*
X6903762Y-19324476D01*
X6903762Y-19324476D02*
X6922809Y-19334000D01*
X6922809Y-19334000D02*
X6932333Y-19343524D01*
X6932333Y-19343524D02*
X6941857Y-19362571D01*
X6941857Y-19362571D02*
X6951381Y-19400667D01*
X6951381Y-19400667D02*
X6951381Y-19448286D01*
X6951381Y-19448286D02*
X6941857Y-19486381D01*
X6941857Y-19486381D02*
X6932333Y-19505429D01*
X6932333Y-19505429D02*
X6922809Y-19514952D01*
X6922809Y-19514952D02*
X6903762Y-19524476D01*
X6903762Y-19524476D02*
X6884714Y-19524476D01*
X6884714Y-19524476D02*
X6865667Y-19514952D01*
X6865667Y-19514952D02*
X6856143Y-19505429D01*
X6856143Y-19505429D02*
X6846619Y-19486381D01*
X6846619Y-19486381D02*
X6837095Y-19448286D01*
X6837095Y-19448286D02*
X6837095Y-19400667D01*
X6837095Y-19400667D02*
X6846619Y-19362571D01*
X6846619Y-19362571D02*
X6856143Y-19343524D01*
X6856143Y-19343524D02*
X6865667Y-19334000D01*
X6865667Y-19334000D02*
X6884714Y-19324476D01*
X7037095Y-19505429D02*
X7046619Y-19514952D01*
X7046619Y-19514952D02*
X7037095Y-19524476D01*
X7037095Y-19524476D02*
X7027571Y-19514952D01*
X7027571Y-19514952D02*
X7037095Y-19505429D01*
X7037095Y-19505429D02*
X7037095Y-19524476D01*
X7160905Y-19410190D02*
X7141857Y-19400667D01*
X7141857Y-19400667D02*
X7132333Y-19391143D01*
X7132333Y-19391143D02*
X7122809Y-19372095D01*
X7122809Y-19372095D02*
X7122809Y-19362571D01*
X7122809Y-19362571D02*
X7132333Y-19343524D01*
X7132333Y-19343524D02*
X7141857Y-19334000D01*
X7141857Y-19334000D02*
X7160905Y-19324476D01*
X7160905Y-19324476D02*
X7199000Y-19324476D01*
X7199000Y-19324476D02*
X7218048Y-19334000D01*
X7218048Y-19334000D02*
X7227571Y-19343524D01*
X7227571Y-19343524D02*
X7237095Y-19362571D01*
X7237095Y-19362571D02*
X7237095Y-19372095D01*
X7237095Y-19372095D02*
X7227571Y-19391143D01*
X7227571Y-19391143D02*
X7218048Y-19400667D01*
X7218048Y-19400667D02*
X7199000Y-19410190D01*
X7199000Y-19410190D02*
X7160905Y-19410190D01*
X7160905Y-19410190D02*
X7141857Y-19419714D01*
X7141857Y-19419714D02*
X7132333Y-19429238D01*
X7132333Y-19429238D02*
X7122809Y-19448286D01*
X7122809Y-19448286D02*
X7122809Y-19486381D01*
X7122809Y-19486381D02*
X7132333Y-19505429D01*
X7132333Y-19505429D02*
X7141857Y-19514952D01*
X7141857Y-19514952D02*
X7160905Y-19524476D01*
X7160905Y-19524476D02*
X7199000Y-19524476D01*
X7199000Y-19524476D02*
X7218048Y-19514952D01*
X7218048Y-19514952D02*
X7227571Y-19505429D01*
X7227571Y-19505429D02*
X7237095Y-19486381D01*
X7237095Y-19486381D02*
X7237095Y-19448286D01*
X7237095Y-19448286D02*
X7227571Y-19429238D01*
X7227571Y-19429238D02*
X7218048Y-19419714D01*
X7218048Y-19419714D02*
X7199000Y-19410190D01*
X7360905Y-19324476D02*
X7379952Y-19324476D01*
X7379952Y-19324476D02*
X7399000Y-19334000D01*
X7399000Y-19334000D02*
X7408524Y-19343524D01*
X7408524Y-19343524D02*
X7418048Y-19362571D01*
X7418048Y-19362571D02*
X7427571Y-19400667D01*
X7427571Y-19400667D02*
X7427571Y-19448286D01*
X7427571Y-19448286D02*
X7418048Y-19486381D01*
X7418048Y-19486381D02*
X7408524Y-19505429D01*
X7408524Y-19505429D02*
X7399000Y-19514952D01*
X7399000Y-19514952D02*
X7379952Y-19524476D01*
X7379952Y-19524476D02*
X7360905Y-19524476D01*
X7360905Y-19524476D02*
X7341857Y-19514952D01*
X7341857Y-19514952D02*
X7332333Y-19505429D01*
X7332333Y-19505429D02*
X7322809Y-19486381D01*
X7322809Y-19486381D02*
X7313286Y-19448286D01*
X7313286Y-19448286D02*
X7313286Y-19400667D01*
X7313286Y-19400667D02*
X7322809Y-19362571D01*
X7322809Y-19362571D02*
X7332333Y-19343524D01*
X7332333Y-19343524D02*
X7341857Y-19334000D01*
X7341857Y-19334000D02*
X7360905Y-19324476D01*
X7551381Y-19324476D02*
X7570429Y-19324476D01*
X7570429Y-19324476D02*
X7589476Y-19334000D01*
X7589476Y-19334000D02*
X7599000Y-19343524D01*
X7599000Y-19343524D02*
X7608524Y-19362571D01*
X7608524Y-19362571D02*
X7618048Y-19400667D01*
X7618048Y-19400667D02*
X7618048Y-19448286D01*
X7618048Y-19448286D02*
X7608524Y-19486381D01*
X7608524Y-19486381D02*
X7599000Y-19505429D01*
X7599000Y-19505429D02*
X7589476Y-19514952D01*
X7589476Y-19514952D02*
X7570429Y-19524476D01*
X7570429Y-19524476D02*
X7551381Y-19524476D01*
X7551381Y-19524476D02*
X7532333Y-19514952D01*
X7532333Y-19514952D02*
X7522809Y-19505429D01*
X7522809Y-19505429D02*
X7513286Y-19486381D01*
X7513286Y-19486381D02*
X7503762Y-19448286D01*
X7503762Y-19448286D02*
X7503762Y-19400667D01*
X7503762Y-19400667D02*
X7513286Y-19362571D01*
X7513286Y-19362571D02*
X7522809Y-19343524D01*
X7522809Y-19343524D02*
X7532333Y-19334000D01*
X7532333Y-19334000D02*
X7551381Y-19324476D01*
X7703762Y-19524476D02*
X7703762Y-19391143D01*
X7703762Y-19410190D02*
X7713286Y-19400667D01*
X7713286Y-19400667D02*
X7732333Y-19391143D01*
X7732333Y-19391143D02*
X7760905Y-19391143D01*
X7760905Y-19391143D02*
X7779952Y-19400667D01*
X7779952Y-19400667D02*
X7789476Y-19419714D01*
X7789476Y-19419714D02*
X7789476Y-19524476D01*
X7789476Y-19419714D02*
X7799000Y-19400667D01*
X7799000Y-19400667D02*
X7818048Y-19391143D01*
X7818048Y-19391143D02*
X7846619Y-19391143D01*
X7846619Y-19391143D02*
X7865667Y-19400667D01*
X7865667Y-19400667D02*
X7875190Y-19419714D01*
X7875190Y-19419714D02*
X7875190Y-19524476D01*
X7970429Y-19524476D02*
X7970429Y-19391143D01*
X7970429Y-19410190D02*
X7979952Y-19400667D01*
X7979952Y-19400667D02*
X7999000Y-19391143D01*
X7999000Y-19391143D02*
X8027571Y-19391143D01*
X8027571Y-19391143D02*
X8046619Y-19400667D01*
X8046619Y-19400667D02*
X8056143Y-19419714D01*
X8056143Y-19419714D02*
X8056143Y-19524476D01*
X8056143Y-19419714D02*
X8065667Y-19400667D01*
X8065667Y-19400667D02*
X8084714Y-19391143D01*
X8084714Y-19391143D02*
X8113286Y-19391143D01*
X8113286Y-19391143D02*
X8132333Y-19400667D01*
X8132333Y-19400667D02*
X8141857Y-19419714D01*
X8141857Y-19419714D02*
X8141857Y-19524476D01*
X8499952Y-19314952D02*
X8328524Y-19572095D01*
X8724714Y-19324476D02*
X8743762Y-19324476D01*
X8743762Y-19324476D02*
X8762810Y-19334000D01*
X8762810Y-19334000D02*
X8772333Y-19343524D01*
X8772333Y-19343524D02*
X8781857Y-19362571D01*
X8781857Y-19362571D02*
X8791381Y-19400667D01*
X8791381Y-19400667D02*
X8791381Y-19448286D01*
X8791381Y-19448286D02*
X8781857Y-19486381D01*
X8781857Y-19486381D02*
X8772333Y-19505429D01*
X8772333Y-19505429D02*
X8762810Y-19514952D01*
X8762810Y-19514952D02*
X8743762Y-19524476D01*
X8743762Y-19524476D02*
X8724714Y-19524476D01*
X8724714Y-19524476D02*
X8705667Y-19514952D01*
X8705667Y-19514952D02*
X8696143Y-19505429D01*
X8696143Y-19505429D02*
X8686619Y-19486381D01*
X8686619Y-19486381D02*
X8677095Y-19448286D01*
X8677095Y-19448286D02*
X8677095Y-19400667D01*
X8677095Y-19400667D02*
X8686619Y-19362571D01*
X8686619Y-19362571D02*
X8696143Y-19343524D01*
X8696143Y-19343524D02*
X8705667Y-19334000D01*
X8705667Y-19334000D02*
X8724714Y-19324476D01*
X8877095Y-19505429D02*
X8886619Y-19514952D01*
X8886619Y-19514952D02*
X8877095Y-19524476D01*
X8877095Y-19524476D02*
X8867572Y-19514952D01*
X8867572Y-19514952D02*
X8877095Y-19505429D01*
X8877095Y-19505429D02*
X8877095Y-19524476D01*
X9010429Y-19324476D02*
X9029476Y-19324476D01*
X9029476Y-19324476D02*
X9048524Y-19334000D01*
X9048524Y-19334000D02*
X9058048Y-19343524D01*
X9058048Y-19343524D02*
X9067572Y-19362571D01*
X9067572Y-19362571D02*
X9077095Y-19400667D01*
X9077095Y-19400667D02*
X9077095Y-19448286D01*
X9077095Y-19448286D02*
X9067572Y-19486381D01*
X9067572Y-19486381D02*
X9058048Y-19505429D01*
X9058048Y-19505429D02*
X9048524Y-19514952D01*
X9048524Y-19514952D02*
X9029476Y-19524476D01*
X9029476Y-19524476D02*
X9010429Y-19524476D01*
X9010429Y-19524476D02*
X8991381Y-19514952D01*
X8991381Y-19514952D02*
X8981857Y-19505429D01*
X8981857Y-19505429D02*
X8972333Y-19486381D01*
X8972333Y-19486381D02*
X8962810Y-19448286D01*
X8962810Y-19448286D02*
X8962810Y-19400667D01*
X8962810Y-19400667D02*
X8972333Y-19362571D01*
X8972333Y-19362571D02*
X8981857Y-19343524D01*
X8981857Y-19343524D02*
X8991381Y-19334000D01*
X8991381Y-19334000D02*
X9010429Y-19324476D01*
X9143762Y-19324476D02*
X9267572Y-19324476D01*
X9267572Y-19324476D02*
X9200905Y-19400667D01*
X9200905Y-19400667D02*
X9229476Y-19400667D01*
X9229476Y-19400667D02*
X9248524Y-19410190D01*
X9248524Y-19410190D02*
X9258048Y-19419714D01*
X9258048Y-19419714D02*
X9267572Y-19438762D01*
X9267572Y-19438762D02*
X9267572Y-19486381D01*
X9267572Y-19486381D02*
X9258048Y-19505429D01*
X9258048Y-19505429D02*
X9248524Y-19514952D01*
X9248524Y-19514952D02*
X9229476Y-19524476D01*
X9229476Y-19524476D02*
X9172333Y-19524476D01*
X9172333Y-19524476D02*
X9153286Y-19514952D01*
X9153286Y-19514952D02*
X9143762Y-19505429D01*
X9458048Y-19524476D02*
X9343762Y-19524476D01*
X9400905Y-19524476D02*
X9400905Y-19324476D01*
X9400905Y-19324476D02*
X9381857Y-19353048D01*
X9381857Y-19353048D02*
X9362810Y-19372095D01*
X9362810Y-19372095D02*
X9343762Y-19381619D01*
X9639000Y-19324476D02*
X9543762Y-19324476D01*
X9543762Y-19324476D02*
X9534238Y-19419714D01*
X9534238Y-19419714D02*
X9543762Y-19410190D01*
X9543762Y-19410190D02*
X9562810Y-19400667D01*
X9562810Y-19400667D02*
X9610429Y-19400667D01*
X9610429Y-19400667D02*
X9629476Y-19410190D01*
X9629476Y-19410190D02*
X9639000Y-19419714D01*
X9639000Y-19419714D02*
X9648524Y-19438762D01*
X9648524Y-19438762D02*
X9648524Y-19486381D01*
X9648524Y-19486381D02*
X9639000Y-19505429D01*
X9639000Y-19505429D02*
X9629476Y-19514952D01*
X9629476Y-19514952D02*
X9610429Y-19524476D01*
X9610429Y-19524476D02*
X9562810Y-19524476D01*
X9562810Y-19524476D02*
X9543762Y-19514952D01*
X9543762Y-19514952D02*
X9534238Y-19505429D01*
X9724714Y-19324476D02*
X9724714Y-19362571D01*
X9800905Y-19324476D02*
X9800905Y-19362571D01*
X10063762Y-19600667D02*
X10054238Y-19591143D01*
X10054238Y-19591143D02*
X10035191Y-19562571D01*
X10035191Y-19562571D02*
X10025667Y-19543524D01*
X10025667Y-19543524D02*
X10016143Y-19514952D01*
X10016143Y-19514952D02*
X10006619Y-19467333D01*
X10006619Y-19467333D02*
X10006619Y-19429238D01*
X10006619Y-19429238D02*
X10016143Y-19381619D01*
X10016143Y-19381619D02*
X10025667Y-19353048D01*
X10025667Y-19353048D02*
X10035191Y-19334000D01*
X10035191Y-19334000D02*
X10054238Y-19305429D01*
X10054238Y-19305429D02*
X10063762Y-19295905D01*
X10244714Y-19524476D02*
X10130429Y-19524476D01*
X10187572Y-19524476D02*
X10187572Y-19324476D01*
X10187572Y-19324476D02*
X10168524Y-19353048D01*
X10168524Y-19353048D02*
X10149476Y-19372095D01*
X10149476Y-19372095D02*
X10130429Y-19381619D01*
X10359000Y-19410190D02*
X10339953Y-19400667D01*
X10339953Y-19400667D02*
X10330429Y-19391143D01*
X10330429Y-19391143D02*
X10320905Y-19372095D01*
X10320905Y-19372095D02*
X10320905Y-19362571D01*
X10320905Y-19362571D02*
X10330429Y-19343524D01*
X10330429Y-19343524D02*
X10339953Y-19334000D01*
X10339953Y-19334000D02*
X10359000Y-19324476D01*
X10359000Y-19324476D02*
X10397095Y-19324476D01*
X10397095Y-19324476D02*
X10416143Y-19334000D01*
X10416143Y-19334000D02*
X10425667Y-19343524D01*
X10425667Y-19343524D02*
X10435191Y-19362571D01*
X10435191Y-19362571D02*
X10435191Y-19372095D01*
X10435191Y-19372095D02*
X10425667Y-19391143D01*
X10425667Y-19391143D02*
X10416143Y-19400667D01*
X10416143Y-19400667D02*
X10397095Y-19410190D01*
X10397095Y-19410190D02*
X10359000Y-19410190D01*
X10359000Y-19410190D02*
X10339953Y-19419714D01*
X10339953Y-19419714D02*
X10330429Y-19429238D01*
X10330429Y-19429238D02*
X10320905Y-19448286D01*
X10320905Y-19448286D02*
X10320905Y-19486381D01*
X10320905Y-19486381D02*
X10330429Y-19505429D01*
X10330429Y-19505429D02*
X10339953Y-19514952D01*
X10339953Y-19514952D02*
X10359000Y-19524476D01*
X10359000Y-19524476D02*
X10397095Y-19524476D01*
X10397095Y-19524476D02*
X10416143Y-19514952D01*
X10416143Y-19514952D02*
X10425667Y-19505429D01*
X10425667Y-19505429D02*
X10435191Y-19486381D01*
X10435191Y-19486381D02*
X10435191Y-19448286D01*
X10435191Y-19448286D02*
X10425667Y-19429238D01*
X10425667Y-19429238D02*
X10416143Y-19419714D01*
X10416143Y-19419714D02*
X10397095Y-19410190D01*
X10640905Y-19524476D02*
X10640905Y-19324476D01*
X10726619Y-19524476D02*
X10726619Y-19419714D01*
X10726619Y-19419714D02*
X10717095Y-19400667D01*
X10717095Y-19400667D02*
X10698048Y-19391143D01*
X10698048Y-19391143D02*
X10669476Y-19391143D01*
X10669476Y-19391143D02*
X10650429Y-19400667D01*
X10650429Y-19400667D02*
X10640905Y-19410190D01*
X10850429Y-19524476D02*
X10831381Y-19514952D01*
X10831381Y-19514952D02*
X10821857Y-19505429D01*
X10821857Y-19505429D02*
X10812334Y-19486381D01*
X10812334Y-19486381D02*
X10812334Y-19429238D01*
X10812334Y-19429238D02*
X10821857Y-19410190D01*
X10821857Y-19410190D02*
X10831381Y-19400667D01*
X10831381Y-19400667D02*
X10850429Y-19391143D01*
X10850429Y-19391143D02*
X10879000Y-19391143D01*
X10879000Y-19391143D02*
X10898048Y-19400667D01*
X10898048Y-19400667D02*
X10907572Y-19410190D01*
X10907572Y-19410190D02*
X10917095Y-19429238D01*
X10917095Y-19429238D02*
X10917095Y-19486381D01*
X10917095Y-19486381D02*
X10907572Y-19505429D01*
X10907572Y-19505429D02*
X10898048Y-19514952D01*
X10898048Y-19514952D02*
X10879000Y-19524476D01*
X10879000Y-19524476D02*
X10850429Y-19524476D01*
X11031381Y-19524476D02*
X11012334Y-19514952D01*
X11012334Y-19514952D02*
X11002810Y-19495905D01*
X11002810Y-19495905D02*
X11002810Y-19324476D01*
X11183762Y-19514952D02*
X11164715Y-19524476D01*
X11164715Y-19524476D02*
X11126619Y-19524476D01*
X11126619Y-19524476D02*
X11107572Y-19514952D01*
X11107572Y-19514952D02*
X11098048Y-19495905D01*
X11098048Y-19495905D02*
X11098048Y-19419714D01*
X11098048Y-19419714D02*
X11107572Y-19400667D01*
X11107572Y-19400667D02*
X11126619Y-19391143D01*
X11126619Y-19391143D02*
X11164715Y-19391143D01*
X11164715Y-19391143D02*
X11183762Y-19400667D01*
X11183762Y-19400667D02*
X11193286Y-19419714D01*
X11193286Y-19419714D02*
X11193286Y-19438762D01*
X11193286Y-19438762D02*
X11098048Y-19457810D01*
X11269476Y-19514952D02*
X11288524Y-19524476D01*
X11288524Y-19524476D02*
X11326619Y-19524476D01*
X11326619Y-19524476D02*
X11345667Y-19514952D01*
X11345667Y-19514952D02*
X11355191Y-19495905D01*
X11355191Y-19495905D02*
X11355191Y-19486381D01*
X11355191Y-19486381D02*
X11345667Y-19467333D01*
X11345667Y-19467333D02*
X11326619Y-19457810D01*
X11326619Y-19457810D02*
X11298048Y-19457810D01*
X11298048Y-19457810D02*
X11279000Y-19448286D01*
X11279000Y-19448286D02*
X11269476Y-19429238D01*
X11269476Y-19429238D02*
X11269476Y-19419714D01*
X11269476Y-19419714D02*
X11279000Y-19400667D01*
X11279000Y-19400667D02*
X11298048Y-19391143D01*
X11298048Y-19391143D02*
X11326619Y-19391143D01*
X11326619Y-19391143D02*
X11345667Y-19400667D01*
X11421857Y-19600667D02*
X11431381Y-19591143D01*
X11431381Y-19591143D02*
X11450429Y-19562571D01*
X11450429Y-19562571D02*
X11459953Y-19543524D01*
X11459953Y-19543524D02*
X11469476Y-19514952D01*
X11469476Y-19514952D02*
X11479000Y-19467333D01*
X11479000Y-19467333D02*
X11479000Y-19429238D01*
X11479000Y-19429238D02*
X11469476Y-19381619D01*
X11469476Y-19381619D02*
X11459953Y-19353048D01*
X11459953Y-19353048D02*
X11450429Y-19334000D01*
X11450429Y-19334000D02*
X11431381Y-19305429D01*
X11431381Y-19305429D02*
X11421857Y-19295905D01*
D10*
X6549000Y-19665000D02*
X6549000Y-19765000D01*
X6499000Y-19715000D02*
X6599000Y-19715000D01*
D11*
X6951381Y-19788476D02*
X6837095Y-19788476D01*
X6894238Y-19788476D02*
X6894238Y-19588476D01*
X6894238Y-19588476D02*
X6875190Y-19617048D01*
X6875190Y-19617048D02*
X6856143Y-19636095D01*
X6856143Y-19636095D02*
X6837095Y-19645619D01*
X7037095Y-19769429D02*
X7046619Y-19778952D01*
X7046619Y-19778952D02*
X7037095Y-19788476D01*
X7037095Y-19788476D02*
X7027571Y-19778952D01*
X7027571Y-19778952D02*
X7037095Y-19769429D01*
X7037095Y-19769429D02*
X7037095Y-19788476D01*
X7170428Y-19588476D02*
X7189476Y-19588476D01*
X7189476Y-19588476D02*
X7208524Y-19598000D01*
X7208524Y-19598000D02*
X7218048Y-19607524D01*
X7218048Y-19607524D02*
X7227571Y-19626571D01*
X7227571Y-19626571D02*
X7237095Y-19664667D01*
X7237095Y-19664667D02*
X7237095Y-19712286D01*
X7237095Y-19712286D02*
X7227571Y-19750381D01*
X7227571Y-19750381D02*
X7218048Y-19769429D01*
X7218048Y-19769429D02*
X7208524Y-19778952D01*
X7208524Y-19778952D02*
X7189476Y-19788476D01*
X7189476Y-19788476D02*
X7170428Y-19788476D01*
X7170428Y-19788476D02*
X7151381Y-19778952D01*
X7151381Y-19778952D02*
X7141857Y-19769429D01*
X7141857Y-19769429D02*
X7132333Y-19750381D01*
X7132333Y-19750381D02*
X7122809Y-19712286D01*
X7122809Y-19712286D02*
X7122809Y-19664667D01*
X7122809Y-19664667D02*
X7132333Y-19626571D01*
X7132333Y-19626571D02*
X7141857Y-19607524D01*
X7141857Y-19607524D02*
X7151381Y-19598000D01*
X7151381Y-19598000D02*
X7170428Y-19588476D01*
X7360905Y-19588476D02*
X7379952Y-19588476D01*
X7379952Y-19588476D02*
X7399000Y-19598000D01*
X7399000Y-19598000D02*
X7408524Y-19607524D01*
X7408524Y-19607524D02*
X7418048Y-19626571D01*
X7418048Y-19626571D02*
X7427571Y-19664667D01*
X7427571Y-19664667D02*
X7427571Y-19712286D01*
X7427571Y-19712286D02*
X7418048Y-19750381D01*
X7418048Y-19750381D02*
X7408524Y-19769429D01*
X7408524Y-19769429D02*
X7399000Y-19778952D01*
X7399000Y-19778952D02*
X7379952Y-19788476D01*
X7379952Y-19788476D02*
X7360905Y-19788476D01*
X7360905Y-19788476D02*
X7341857Y-19778952D01*
X7341857Y-19778952D02*
X7332333Y-19769429D01*
X7332333Y-19769429D02*
X7322809Y-19750381D01*
X7322809Y-19750381D02*
X7313286Y-19712286D01*
X7313286Y-19712286D02*
X7313286Y-19664667D01*
X7313286Y-19664667D02*
X7322809Y-19626571D01*
X7322809Y-19626571D02*
X7332333Y-19607524D01*
X7332333Y-19607524D02*
X7341857Y-19598000D01*
X7341857Y-19598000D02*
X7360905Y-19588476D01*
X7551381Y-19588476D02*
X7570429Y-19588476D01*
X7570429Y-19588476D02*
X7589476Y-19598000D01*
X7589476Y-19598000D02*
X7599000Y-19607524D01*
X7599000Y-19607524D02*
X7608524Y-19626571D01*
X7608524Y-19626571D02*
X7618048Y-19664667D01*
X7618048Y-19664667D02*
X7618048Y-19712286D01*
X7618048Y-19712286D02*
X7608524Y-19750381D01*
X7608524Y-19750381D02*
X7599000Y-19769429D01*
X7599000Y-19769429D02*
X7589476Y-19778952D01*
X7589476Y-19778952D02*
X7570429Y-19788476D01*
X7570429Y-19788476D02*
X7551381Y-19788476D01*
X7551381Y-19788476D02*
X7532333Y-19778952D01*
X7532333Y-19778952D02*
X7522809Y-19769429D01*
X7522809Y-19769429D02*
X7513286Y-19750381D01*
X7513286Y-19750381D02*
X7503762Y-19712286D01*
X7503762Y-19712286D02*
X7503762Y-19664667D01*
X7503762Y-19664667D02*
X7513286Y-19626571D01*
X7513286Y-19626571D02*
X7522809Y-19607524D01*
X7522809Y-19607524D02*
X7532333Y-19598000D01*
X7532333Y-19598000D02*
X7551381Y-19588476D01*
X7703762Y-19788476D02*
X7703762Y-19655143D01*
X7703762Y-19674190D02*
X7713286Y-19664667D01*
X7713286Y-19664667D02*
X7732333Y-19655143D01*
X7732333Y-19655143D02*
X7760905Y-19655143D01*
X7760905Y-19655143D02*
X7779952Y-19664667D01*
X7779952Y-19664667D02*
X7789476Y-19683714D01*
X7789476Y-19683714D02*
X7789476Y-19788476D01*
X7789476Y-19683714D02*
X7799000Y-19664667D01*
X7799000Y-19664667D02*
X7818048Y-19655143D01*
X7818048Y-19655143D02*
X7846619Y-19655143D01*
X7846619Y-19655143D02*
X7865667Y-19664667D01*
X7865667Y-19664667D02*
X7875190Y-19683714D01*
X7875190Y-19683714D02*
X7875190Y-19788476D01*
X7970429Y-19788476D02*
X7970429Y-19655143D01*
X7970429Y-19674190D02*
X7979952Y-19664667D01*
X7979952Y-19664667D02*
X7999000Y-19655143D01*
X7999000Y-19655143D02*
X8027571Y-19655143D01*
X8027571Y-19655143D02*
X8046619Y-19664667D01*
X8046619Y-19664667D02*
X8056143Y-19683714D01*
X8056143Y-19683714D02*
X8056143Y-19788476D01*
X8056143Y-19683714D02*
X8065667Y-19664667D01*
X8065667Y-19664667D02*
X8084714Y-19655143D01*
X8084714Y-19655143D02*
X8113286Y-19655143D01*
X8113286Y-19655143D02*
X8132333Y-19664667D01*
X8132333Y-19664667D02*
X8141857Y-19683714D01*
X8141857Y-19683714D02*
X8141857Y-19788476D01*
X8499952Y-19578952D02*
X8328524Y-19836095D01*
X8724714Y-19588476D02*
X8743762Y-19588476D01*
X8743762Y-19588476D02*
X8762810Y-19598000D01*
X8762810Y-19598000D02*
X8772333Y-19607524D01*
X8772333Y-19607524D02*
X8781857Y-19626571D01*
X8781857Y-19626571D02*
X8791381Y-19664667D01*
X8791381Y-19664667D02*
X8791381Y-19712286D01*
X8791381Y-19712286D02*
X8781857Y-19750381D01*
X8781857Y-19750381D02*
X8772333Y-19769429D01*
X8772333Y-19769429D02*
X8762810Y-19778952D01*
X8762810Y-19778952D02*
X8743762Y-19788476D01*
X8743762Y-19788476D02*
X8724714Y-19788476D01*
X8724714Y-19788476D02*
X8705667Y-19778952D01*
X8705667Y-19778952D02*
X8696143Y-19769429D01*
X8696143Y-19769429D02*
X8686619Y-19750381D01*
X8686619Y-19750381D02*
X8677095Y-19712286D01*
X8677095Y-19712286D02*
X8677095Y-19664667D01*
X8677095Y-19664667D02*
X8686619Y-19626571D01*
X8686619Y-19626571D02*
X8696143Y-19607524D01*
X8696143Y-19607524D02*
X8705667Y-19598000D01*
X8705667Y-19598000D02*
X8724714Y-19588476D01*
X8877095Y-19769429D02*
X8886619Y-19778952D01*
X8886619Y-19778952D02*
X8877095Y-19788476D01*
X8877095Y-19788476D02*
X8867572Y-19778952D01*
X8867572Y-19778952D02*
X8877095Y-19769429D01*
X8877095Y-19769429D02*
X8877095Y-19788476D01*
X9010429Y-19588476D02*
X9029476Y-19588476D01*
X9029476Y-19588476D02*
X9048524Y-19598000D01*
X9048524Y-19598000D02*
X9058048Y-19607524D01*
X9058048Y-19607524D02*
X9067572Y-19626571D01*
X9067572Y-19626571D02*
X9077095Y-19664667D01*
X9077095Y-19664667D02*
X9077095Y-19712286D01*
X9077095Y-19712286D02*
X9067572Y-19750381D01*
X9067572Y-19750381D02*
X9058048Y-19769429D01*
X9058048Y-19769429D02*
X9048524Y-19778952D01*
X9048524Y-19778952D02*
X9029476Y-19788476D01*
X9029476Y-19788476D02*
X9010429Y-19788476D01*
X9010429Y-19788476D02*
X8991381Y-19778952D01*
X8991381Y-19778952D02*
X8981857Y-19769429D01*
X8981857Y-19769429D02*
X8972333Y-19750381D01*
X8972333Y-19750381D02*
X8962810Y-19712286D01*
X8962810Y-19712286D02*
X8962810Y-19664667D01*
X8962810Y-19664667D02*
X8972333Y-19626571D01*
X8972333Y-19626571D02*
X8981857Y-19607524D01*
X8981857Y-19607524D02*
X8991381Y-19598000D01*
X8991381Y-19598000D02*
X9010429Y-19588476D01*
X9143762Y-19588476D02*
X9267572Y-19588476D01*
X9267572Y-19588476D02*
X9200905Y-19664667D01*
X9200905Y-19664667D02*
X9229476Y-19664667D01*
X9229476Y-19664667D02*
X9248524Y-19674190D01*
X9248524Y-19674190D02*
X9258048Y-19683714D01*
X9258048Y-19683714D02*
X9267572Y-19702762D01*
X9267572Y-19702762D02*
X9267572Y-19750381D01*
X9267572Y-19750381D02*
X9258048Y-19769429D01*
X9258048Y-19769429D02*
X9248524Y-19778952D01*
X9248524Y-19778952D02*
X9229476Y-19788476D01*
X9229476Y-19788476D02*
X9172333Y-19788476D01*
X9172333Y-19788476D02*
X9153286Y-19778952D01*
X9153286Y-19778952D02*
X9143762Y-19769429D01*
X9362810Y-19788476D02*
X9400905Y-19788476D01*
X9400905Y-19788476D02*
X9419953Y-19778952D01*
X9419953Y-19778952D02*
X9429476Y-19769429D01*
X9429476Y-19769429D02*
X9448524Y-19740857D01*
X9448524Y-19740857D02*
X9458048Y-19702762D01*
X9458048Y-19702762D02*
X9458048Y-19626571D01*
X9458048Y-19626571D02*
X9448524Y-19607524D01*
X9448524Y-19607524D02*
X9439000Y-19598000D01*
X9439000Y-19598000D02*
X9419953Y-19588476D01*
X9419953Y-19588476D02*
X9381857Y-19588476D01*
X9381857Y-19588476D02*
X9362810Y-19598000D01*
X9362810Y-19598000D02*
X9353286Y-19607524D01*
X9353286Y-19607524D02*
X9343762Y-19626571D01*
X9343762Y-19626571D02*
X9343762Y-19674190D01*
X9343762Y-19674190D02*
X9353286Y-19693238D01*
X9353286Y-19693238D02*
X9362810Y-19702762D01*
X9362810Y-19702762D02*
X9381857Y-19712286D01*
X9381857Y-19712286D02*
X9419953Y-19712286D01*
X9419953Y-19712286D02*
X9439000Y-19702762D01*
X9439000Y-19702762D02*
X9448524Y-19693238D01*
X9448524Y-19693238D02*
X9458048Y-19674190D01*
X9629476Y-19655143D02*
X9629476Y-19788476D01*
X9581857Y-19578952D02*
X9534238Y-19721810D01*
X9534238Y-19721810D02*
X9658048Y-19721810D01*
X9724714Y-19588476D02*
X9724714Y-19626571D01*
X9800905Y-19588476D02*
X9800905Y-19626571D01*
X10063762Y-19864667D02*
X10054238Y-19855143D01*
X10054238Y-19855143D02*
X10035191Y-19826571D01*
X10035191Y-19826571D02*
X10025667Y-19807524D01*
X10025667Y-19807524D02*
X10016143Y-19778952D01*
X10016143Y-19778952D02*
X10006619Y-19731333D01*
X10006619Y-19731333D02*
X10006619Y-19693238D01*
X10006619Y-19693238D02*
X10016143Y-19645619D01*
X10016143Y-19645619D02*
X10025667Y-19617048D01*
X10025667Y-19617048D02*
X10035191Y-19598000D01*
X10035191Y-19598000D02*
X10054238Y-19569429D01*
X10054238Y-19569429D02*
X10063762Y-19559905D01*
X10120905Y-19588476D02*
X10244714Y-19588476D01*
X10244714Y-19588476D02*
X10178048Y-19664667D01*
X10178048Y-19664667D02*
X10206619Y-19664667D01*
X10206619Y-19664667D02*
X10225667Y-19674190D01*
X10225667Y-19674190D02*
X10235191Y-19683714D01*
X10235191Y-19683714D02*
X10244714Y-19702762D01*
X10244714Y-19702762D02*
X10244714Y-19750381D01*
X10244714Y-19750381D02*
X10235191Y-19769429D01*
X10235191Y-19769429D02*
X10225667Y-19778952D01*
X10225667Y-19778952D02*
X10206619Y-19788476D01*
X10206619Y-19788476D02*
X10149476Y-19788476D01*
X10149476Y-19788476D02*
X10130429Y-19778952D01*
X10130429Y-19778952D02*
X10120905Y-19769429D01*
X10359000Y-19674190D02*
X10339953Y-19664667D01*
X10339953Y-19664667D02*
X10330429Y-19655143D01*
X10330429Y-19655143D02*
X10320905Y-19636095D01*
X10320905Y-19636095D02*
X10320905Y-19626571D01*
X10320905Y-19626571D02*
X10330429Y-19607524D01*
X10330429Y-19607524D02*
X10339953Y-19598000D01*
X10339953Y-19598000D02*
X10359000Y-19588476D01*
X10359000Y-19588476D02*
X10397095Y-19588476D01*
X10397095Y-19588476D02*
X10416143Y-19598000D01*
X10416143Y-19598000D02*
X10425667Y-19607524D01*
X10425667Y-19607524D02*
X10435191Y-19626571D01*
X10435191Y-19626571D02*
X10435191Y-19636095D01*
X10435191Y-19636095D02*
X10425667Y-19655143D01*
X10425667Y-19655143D02*
X10416143Y-19664667D01*
X10416143Y-19664667D02*
X10397095Y-19674190D01*
X10397095Y-19674190D02*
X10359000Y-19674190D01*
X10359000Y-19674190D02*
X10339953Y-19683714D01*
X10339953Y-19683714D02*
X10330429Y-19693238D01*
X10330429Y-19693238D02*
X10320905Y-19712286D01*
X10320905Y-19712286D02*
X10320905Y-19750381D01*
X10320905Y-19750381D02*
X10330429Y-19769429D01*
X10330429Y-19769429D02*
X10339953Y-19778952D01*
X10339953Y-19778952D02*
X10359000Y-19788476D01*
X10359000Y-19788476D02*
X10397095Y-19788476D01*
X10397095Y-19788476D02*
X10416143Y-19778952D01*
X10416143Y-19778952D02*
X10425667Y-19769429D01*
X10425667Y-19769429D02*
X10435191Y-19750381D01*
X10435191Y-19750381D02*
X10435191Y-19712286D01*
X10435191Y-19712286D02*
X10425667Y-19693238D01*
X10425667Y-19693238D02*
X10416143Y-19683714D01*
X10416143Y-19683714D02*
X10397095Y-19674190D01*
X10640905Y-19788476D02*
X10640905Y-19588476D01*
X10726619Y-19788476D02*
X10726619Y-19683714D01*
X10726619Y-19683714D02*
X10717095Y-19664667D01*
X10717095Y-19664667D02*
X10698048Y-19655143D01*
X10698048Y-19655143D02*
X10669476Y-19655143D01*
X10669476Y-19655143D02*
X10650429Y-19664667D01*
X10650429Y-19664667D02*
X10640905Y-19674190D01*
X10850429Y-19788476D02*
X10831381Y-19778952D01*
X10831381Y-19778952D02*
X10821857Y-19769429D01*
X10821857Y-19769429D02*
X10812334Y-19750381D01*
X10812334Y-19750381D02*
X10812334Y-19693238D01*
X10812334Y-19693238D02*
X10821857Y-19674190D01*
X10821857Y-19674190D02*
X10831381Y-19664667D01*
X10831381Y-19664667D02*
X10850429Y-19655143D01*
X10850429Y-19655143D02*
X10879000Y-19655143D01*
X10879000Y-19655143D02*
X10898048Y-19664667D01*
X10898048Y-19664667D02*
X10907572Y-19674190D01*
X10907572Y-19674190D02*
X10917095Y-19693238D01*
X10917095Y-19693238D02*
X10917095Y-19750381D01*
X10917095Y-19750381D02*
X10907572Y-19769429D01*
X10907572Y-19769429D02*
X10898048Y-19778952D01*
X10898048Y-19778952D02*
X10879000Y-19788476D01*
X10879000Y-19788476D02*
X10850429Y-19788476D01*
X11031381Y-19788476D02*
X11012334Y-19778952D01*
X11012334Y-19778952D02*
X11002810Y-19759905D01*
X11002810Y-19759905D02*
X11002810Y-19588476D01*
X11183762Y-19778952D02*
X11164715Y-19788476D01*
X11164715Y-19788476D02*
X11126619Y-19788476D01*
X11126619Y-19788476D02*
X11107572Y-19778952D01*
X11107572Y-19778952D02*
X11098048Y-19759905D01*
X11098048Y-19759905D02*
X11098048Y-19683714D01*
X11098048Y-19683714D02*
X11107572Y-19664667D01*
X11107572Y-19664667D02*
X11126619Y-19655143D01*
X11126619Y-19655143D02*
X11164715Y-19655143D01*
X11164715Y-19655143D02*
X11183762Y-19664667D01*
X11183762Y-19664667D02*
X11193286Y-19683714D01*
X11193286Y-19683714D02*
X11193286Y-19702762D01*
X11193286Y-19702762D02*
X11098048Y-19721810D01*
X11269476Y-19778952D02*
X11288524Y-19788476D01*
X11288524Y-19788476D02*
X11326619Y-19788476D01*
X11326619Y-19788476D02*
X11345667Y-19778952D01*
X11345667Y-19778952D02*
X11355191Y-19759905D01*
X11355191Y-19759905D02*
X11355191Y-19750381D01*
X11355191Y-19750381D02*
X11345667Y-19731333D01*
X11345667Y-19731333D02*
X11326619Y-19721810D01*
X11326619Y-19721810D02*
X11298048Y-19721810D01*
X11298048Y-19721810D02*
X11279000Y-19712286D01*
X11279000Y-19712286D02*
X11269476Y-19693238D01*
X11269476Y-19693238D02*
X11269476Y-19683714D01*
X11269476Y-19683714D02*
X11279000Y-19664667D01*
X11279000Y-19664667D02*
X11298048Y-19655143D01*
X11298048Y-19655143D02*
X11326619Y-19655143D01*
X11326619Y-19655143D02*
X11345667Y-19664667D01*
X11421857Y-19864667D02*
X11431381Y-19855143D01*
X11431381Y-19855143D02*
X11450429Y-19826571D01*
X11450429Y-19826571D02*
X11459953Y-19807524D01*
X11459953Y-19807524D02*
X11469476Y-19778952D01*
X11469476Y-19778952D02*
X11479000Y-19731333D01*
X11479000Y-19731333D02*
X11479000Y-19693238D01*
X11479000Y-19693238D02*
X11469476Y-19645619D01*
X11469476Y-19645619D02*
X11459953Y-19617048D01*
X11459953Y-19617048D02*
X11450429Y-19598000D01*
X11450429Y-19598000D02*
X11431381Y-19569429D01*
X11431381Y-19569429D02*
X11421857Y-19559905D01*
D14*
X6579962Y-20024962D02*
X6579962Y-19933038D01*
X6488038Y-19933038D01*
X6488038Y-20024962D01*
X6579962Y-20024962D01*
D11*
X6951381Y-20052476D02*
X6837095Y-20052476D01*
X6894238Y-20052476D02*
X6894238Y-19852476D01*
X6894238Y-19852476D02*
X6875190Y-19881048D01*
X6875190Y-19881048D02*
X6856143Y-19900095D01*
X6856143Y-19900095D02*
X6837095Y-19909619D01*
X7037095Y-20033429D02*
X7046619Y-20042952D01*
X7046619Y-20042952D02*
X7037095Y-20052476D01*
X7037095Y-20052476D02*
X7027571Y-20042952D01*
X7027571Y-20042952D02*
X7037095Y-20033429D01*
X7037095Y-20033429D02*
X7037095Y-20052476D01*
X7113286Y-19852476D02*
X7237095Y-19852476D01*
X7237095Y-19852476D02*
X7170428Y-19928667D01*
X7170428Y-19928667D02*
X7199000Y-19928667D01*
X7199000Y-19928667D02*
X7218048Y-19938190D01*
X7218048Y-19938190D02*
X7227571Y-19947714D01*
X7227571Y-19947714D02*
X7237095Y-19966762D01*
X7237095Y-19966762D02*
X7237095Y-20014381D01*
X7237095Y-20014381D02*
X7227571Y-20033429D01*
X7227571Y-20033429D02*
X7218048Y-20042952D01*
X7218048Y-20042952D02*
X7199000Y-20052476D01*
X7199000Y-20052476D02*
X7141857Y-20052476D01*
X7141857Y-20052476D02*
X7122809Y-20042952D01*
X7122809Y-20042952D02*
X7113286Y-20033429D01*
X7360905Y-19852476D02*
X7379952Y-19852476D01*
X7379952Y-19852476D02*
X7399000Y-19862000D01*
X7399000Y-19862000D02*
X7408524Y-19871524D01*
X7408524Y-19871524D02*
X7418048Y-19890571D01*
X7418048Y-19890571D02*
X7427571Y-19928667D01*
X7427571Y-19928667D02*
X7427571Y-19976286D01*
X7427571Y-19976286D02*
X7418048Y-20014381D01*
X7418048Y-20014381D02*
X7408524Y-20033429D01*
X7408524Y-20033429D02*
X7399000Y-20042952D01*
X7399000Y-20042952D02*
X7379952Y-20052476D01*
X7379952Y-20052476D02*
X7360905Y-20052476D01*
X7360905Y-20052476D02*
X7341857Y-20042952D01*
X7341857Y-20042952D02*
X7332333Y-20033429D01*
X7332333Y-20033429D02*
X7322809Y-20014381D01*
X7322809Y-20014381D02*
X7313286Y-19976286D01*
X7313286Y-19976286D02*
X7313286Y-19928667D01*
X7313286Y-19928667D02*
X7322809Y-19890571D01*
X7322809Y-19890571D02*
X7332333Y-19871524D01*
X7332333Y-19871524D02*
X7341857Y-19862000D01*
X7341857Y-19862000D02*
X7360905Y-19852476D01*
X7551381Y-19852476D02*
X7570429Y-19852476D01*
X7570429Y-19852476D02*
X7589476Y-19862000D01*
X7589476Y-19862000D02*
X7599000Y-19871524D01*
X7599000Y-19871524D02*
X7608524Y-19890571D01*
X7608524Y-19890571D02*
X7618048Y-19928667D01*
X7618048Y-19928667D02*
X7618048Y-19976286D01*
X7618048Y-19976286D02*
X7608524Y-20014381D01*
X7608524Y-20014381D02*
X7599000Y-20033429D01*
X7599000Y-20033429D02*
X7589476Y-20042952D01*
X7589476Y-20042952D02*
X7570429Y-20052476D01*
X7570429Y-20052476D02*
X7551381Y-20052476D01*
X7551381Y-20052476D02*
X7532333Y-20042952D01*
X7532333Y-20042952D02*
X7522809Y-20033429D01*
X7522809Y-20033429D02*
X7513286Y-20014381D01*
X7513286Y-20014381D02*
X7503762Y-19976286D01*
X7503762Y-19976286D02*
X7503762Y-19928667D01*
X7503762Y-19928667D02*
X7513286Y-19890571D01*
X7513286Y-19890571D02*
X7522809Y-19871524D01*
X7522809Y-19871524D02*
X7532333Y-19862000D01*
X7532333Y-19862000D02*
X7551381Y-19852476D01*
X7703762Y-20052476D02*
X7703762Y-19919143D01*
X7703762Y-19938190D02*
X7713286Y-19928667D01*
X7713286Y-19928667D02*
X7732333Y-19919143D01*
X7732333Y-19919143D02*
X7760905Y-19919143D01*
X7760905Y-19919143D02*
X7779952Y-19928667D01*
X7779952Y-19928667D02*
X7789476Y-19947714D01*
X7789476Y-19947714D02*
X7789476Y-20052476D01*
X7789476Y-19947714D02*
X7799000Y-19928667D01*
X7799000Y-19928667D02*
X7818048Y-19919143D01*
X7818048Y-19919143D02*
X7846619Y-19919143D01*
X7846619Y-19919143D02*
X7865667Y-19928667D01*
X7865667Y-19928667D02*
X7875190Y-19947714D01*
X7875190Y-19947714D02*
X7875190Y-20052476D01*
X7970429Y-20052476D02*
X7970429Y-19919143D01*
X7970429Y-19938190D02*
X7979952Y-19928667D01*
X7979952Y-19928667D02*
X7999000Y-19919143D01*
X7999000Y-19919143D02*
X8027571Y-19919143D01*
X8027571Y-19919143D02*
X8046619Y-19928667D01*
X8046619Y-19928667D02*
X8056143Y-19947714D01*
X8056143Y-19947714D02*
X8056143Y-20052476D01*
X8056143Y-19947714D02*
X8065667Y-19928667D01*
X8065667Y-19928667D02*
X8084714Y-19919143D01*
X8084714Y-19919143D02*
X8113286Y-19919143D01*
X8113286Y-19919143D02*
X8132333Y-19928667D01*
X8132333Y-19928667D02*
X8141857Y-19947714D01*
X8141857Y-19947714D02*
X8141857Y-20052476D01*
X8499952Y-19842952D02*
X8328524Y-20100095D01*
X8724714Y-19852476D02*
X8743762Y-19852476D01*
X8743762Y-19852476D02*
X8762810Y-19862000D01*
X8762810Y-19862000D02*
X8772333Y-19871524D01*
X8772333Y-19871524D02*
X8781857Y-19890571D01*
X8781857Y-19890571D02*
X8791381Y-19928667D01*
X8791381Y-19928667D02*
X8791381Y-19976286D01*
X8791381Y-19976286D02*
X8781857Y-20014381D01*
X8781857Y-20014381D02*
X8772333Y-20033429D01*
X8772333Y-20033429D02*
X8762810Y-20042952D01*
X8762810Y-20042952D02*
X8743762Y-20052476D01*
X8743762Y-20052476D02*
X8724714Y-20052476D01*
X8724714Y-20052476D02*
X8705667Y-20042952D01*
X8705667Y-20042952D02*
X8696143Y-20033429D01*
X8696143Y-20033429D02*
X8686619Y-20014381D01*
X8686619Y-20014381D02*
X8677095Y-19976286D01*
X8677095Y-19976286D02*
X8677095Y-19928667D01*
X8677095Y-19928667D02*
X8686619Y-19890571D01*
X8686619Y-19890571D02*
X8696143Y-19871524D01*
X8696143Y-19871524D02*
X8705667Y-19862000D01*
X8705667Y-19862000D02*
X8724714Y-19852476D01*
X8877095Y-20033429D02*
X8886619Y-20042952D01*
X8886619Y-20042952D02*
X8877095Y-20052476D01*
X8877095Y-20052476D02*
X8867572Y-20042952D01*
X8867572Y-20042952D02*
X8877095Y-20033429D01*
X8877095Y-20033429D02*
X8877095Y-20052476D01*
X9010429Y-19852476D02*
X9029476Y-19852476D01*
X9029476Y-19852476D02*
X9048524Y-19862000D01*
X9048524Y-19862000D02*
X9058048Y-19871524D01*
X9058048Y-19871524D02*
X9067572Y-19890571D01*
X9067572Y-19890571D02*
X9077095Y-19928667D01*
X9077095Y-19928667D02*
X9077095Y-19976286D01*
X9077095Y-19976286D02*
X9067572Y-20014381D01*
X9067572Y-20014381D02*
X9058048Y-20033429D01*
X9058048Y-20033429D02*
X9048524Y-20042952D01*
X9048524Y-20042952D02*
X9029476Y-20052476D01*
X9029476Y-20052476D02*
X9010429Y-20052476D01*
X9010429Y-20052476D02*
X8991381Y-20042952D01*
X8991381Y-20042952D02*
X8981857Y-20033429D01*
X8981857Y-20033429D02*
X8972333Y-20014381D01*
X8972333Y-20014381D02*
X8962810Y-19976286D01*
X8962810Y-19976286D02*
X8962810Y-19928667D01*
X8962810Y-19928667D02*
X8972333Y-19890571D01*
X8972333Y-19890571D02*
X8981857Y-19871524D01*
X8981857Y-19871524D02*
X8991381Y-19862000D01*
X8991381Y-19862000D02*
X9010429Y-19852476D01*
X9258048Y-19852476D02*
X9162810Y-19852476D01*
X9162810Y-19852476D02*
X9153286Y-19947714D01*
X9153286Y-19947714D02*
X9162810Y-19938190D01*
X9162810Y-19938190D02*
X9181857Y-19928667D01*
X9181857Y-19928667D02*
X9229476Y-19928667D01*
X9229476Y-19928667D02*
X9248524Y-19938190D01*
X9248524Y-19938190D02*
X9258048Y-19947714D01*
X9258048Y-19947714D02*
X9267572Y-19966762D01*
X9267572Y-19966762D02*
X9267572Y-20014381D01*
X9267572Y-20014381D02*
X9258048Y-20033429D01*
X9258048Y-20033429D02*
X9248524Y-20042952D01*
X9248524Y-20042952D02*
X9229476Y-20052476D01*
X9229476Y-20052476D02*
X9181857Y-20052476D01*
X9181857Y-20052476D02*
X9162810Y-20042952D01*
X9162810Y-20042952D02*
X9153286Y-20033429D01*
X9458048Y-20052476D02*
X9343762Y-20052476D01*
X9400905Y-20052476D02*
X9400905Y-19852476D01*
X9400905Y-19852476D02*
X9381857Y-19881048D01*
X9381857Y-19881048D02*
X9362810Y-19900095D01*
X9362810Y-19900095D02*
X9343762Y-19909619D01*
X9534238Y-19871524D02*
X9543762Y-19862000D01*
X9543762Y-19862000D02*
X9562810Y-19852476D01*
X9562810Y-19852476D02*
X9610429Y-19852476D01*
X9610429Y-19852476D02*
X9629476Y-19862000D01*
X9629476Y-19862000D02*
X9639000Y-19871524D01*
X9639000Y-19871524D02*
X9648524Y-19890571D01*
X9648524Y-19890571D02*
X9648524Y-19909619D01*
X9648524Y-19909619D02*
X9639000Y-19938190D01*
X9639000Y-19938190D02*
X9524714Y-20052476D01*
X9524714Y-20052476D02*
X9648524Y-20052476D01*
X9724714Y-19852476D02*
X9724714Y-19890571D01*
X9800905Y-19852476D02*
X9800905Y-19890571D01*
X10063762Y-20128667D02*
X10054238Y-20119143D01*
X10054238Y-20119143D02*
X10035191Y-20090571D01*
X10035191Y-20090571D02*
X10025667Y-20071524D01*
X10025667Y-20071524D02*
X10016143Y-20042952D01*
X10016143Y-20042952D02*
X10006619Y-19995333D01*
X10006619Y-19995333D02*
X10006619Y-19957238D01*
X10006619Y-19957238D02*
X10016143Y-19909619D01*
X10016143Y-19909619D02*
X10025667Y-19881048D01*
X10025667Y-19881048D02*
X10035191Y-19862000D01*
X10035191Y-19862000D02*
X10054238Y-19833429D01*
X10054238Y-19833429D02*
X10063762Y-19823905D01*
X10130429Y-19871524D02*
X10139953Y-19862000D01*
X10139953Y-19862000D02*
X10159000Y-19852476D01*
X10159000Y-19852476D02*
X10206619Y-19852476D01*
X10206619Y-19852476D02*
X10225667Y-19862000D01*
X10225667Y-19862000D02*
X10235191Y-19871524D01*
X10235191Y-19871524D02*
X10244714Y-19890571D01*
X10244714Y-19890571D02*
X10244714Y-19909619D01*
X10244714Y-19909619D02*
X10235191Y-19938190D01*
X10235191Y-19938190D02*
X10120905Y-20052476D01*
X10120905Y-20052476D02*
X10244714Y-20052476D01*
X10416143Y-19919143D02*
X10416143Y-20052476D01*
X10368524Y-19842952D02*
X10320905Y-19985810D01*
X10320905Y-19985810D02*
X10444714Y-19985810D01*
X10640905Y-20052476D02*
X10640905Y-19852476D01*
X10726619Y-20052476D02*
X10726619Y-19947714D01*
X10726619Y-19947714D02*
X10717095Y-19928667D01*
X10717095Y-19928667D02*
X10698048Y-19919143D01*
X10698048Y-19919143D02*
X10669476Y-19919143D01*
X10669476Y-19919143D02*
X10650429Y-19928667D01*
X10650429Y-19928667D02*
X10640905Y-19938190D01*
X10850429Y-20052476D02*
X10831381Y-20042952D01*
X10831381Y-20042952D02*
X10821857Y-20033429D01*
X10821857Y-20033429D02*
X10812334Y-20014381D01*
X10812334Y-20014381D02*
X10812334Y-19957238D01*
X10812334Y-19957238D02*
X10821857Y-19938190D01*
X10821857Y-19938190D02*
X10831381Y-19928667D01*
X10831381Y-19928667D02*
X10850429Y-19919143D01*
X10850429Y-19919143D02*
X10879000Y-19919143D01*
X10879000Y-19919143D02*
X10898048Y-19928667D01*
X10898048Y-19928667D02*
X10907572Y-19938190D01*
X10907572Y-19938190D02*
X10917095Y-19957238D01*
X10917095Y-19957238D02*
X10917095Y-20014381D01*
X10917095Y-20014381D02*
X10907572Y-20033429D01*
X10907572Y-20033429D02*
X10898048Y-20042952D01*
X10898048Y-20042952D02*
X10879000Y-20052476D01*
X10879000Y-20052476D02*
X10850429Y-20052476D01*
X11031381Y-20052476D02*
X11012334Y-20042952D01*
X11012334Y-20042952D02*
X11002810Y-20023905D01*
X11002810Y-20023905D02*
X11002810Y-19852476D01*
X11183762Y-20042952D02*
X11164715Y-20052476D01*
X11164715Y-20052476D02*
X11126619Y-20052476D01*
X11126619Y-20052476D02*
X11107572Y-20042952D01*
X11107572Y-20042952D02*
X11098048Y-20023905D01*
X11098048Y-20023905D02*
X11098048Y-19947714D01*
X11098048Y-19947714D02*
X11107572Y-19928667D01*
X11107572Y-19928667D02*
X11126619Y-19919143D01*
X11126619Y-19919143D02*
X11164715Y-19919143D01*
X11164715Y-19919143D02*
X11183762Y-19928667D01*
X11183762Y-19928667D02*
X11193286Y-19947714D01*
X11193286Y-19947714D02*
X11193286Y-19966762D01*
X11193286Y-19966762D02*
X11098048Y-19985810D01*
X11269476Y-20042952D02*
X11288524Y-20052476D01*
X11288524Y-20052476D02*
X11326619Y-20052476D01*
X11326619Y-20052476D02*
X11345667Y-20042952D01*
X11345667Y-20042952D02*
X11355191Y-20023905D01*
X11355191Y-20023905D02*
X11355191Y-20014381D01*
X11355191Y-20014381D02*
X11345667Y-19995333D01*
X11345667Y-19995333D02*
X11326619Y-19985810D01*
X11326619Y-19985810D02*
X11298048Y-19985810D01*
X11298048Y-19985810D02*
X11279000Y-19976286D01*
X11279000Y-19976286D02*
X11269476Y-19957238D01*
X11269476Y-19957238D02*
X11269476Y-19947714D01*
X11269476Y-19947714D02*
X11279000Y-19928667D01*
X11279000Y-19928667D02*
X11298048Y-19919143D01*
X11298048Y-19919143D02*
X11326619Y-19919143D01*
X11326619Y-19919143D02*
X11345667Y-19928667D01*
X11421857Y-20128667D02*
X11431381Y-20119143D01*
X11431381Y-20119143D02*
X11450429Y-20090571D01*
X11450429Y-20090571D02*
X11459953Y-20071524D01*
X11459953Y-20071524D02*
X11469476Y-20042952D01*
X11469476Y-20042952D02*
X11479000Y-19995333D01*
X11479000Y-19995333D02*
X11479000Y-19957238D01*
X11479000Y-19957238D02*
X11469476Y-19909619D01*
X11469476Y-19909619D02*
X11459953Y-19881048D01*
X11459953Y-19881048D02*
X11450429Y-19862000D01*
X11450429Y-19862000D02*
X11431381Y-19833429D01*
X11431381Y-19833429D02*
X11421857Y-19823905D01*
M02*
