%TF.GenerationSoftware,KiCad,Pcbnew,(7.0.0)*%
%TF.CreationDate,2023-03-15T19:38:20+01:00*%
%TF.ProjectId,QuinLED-ESP32-Breakout,5175696e-4c45-4442-9d45-535033322d42,rev?*%
%TF.SameCoordinates,Original*%
%TF.FileFunction,Drillmap*%
%TF.FilePolarity,Positive*%
%FSLAX45Y45*%
G04 Gerber Fmt 4.5, Leading zero omitted, Abs format (unit mm)*
G04 Created by KiCad (PCBNEW (7.0.0)) date 2023-03-15 19:38:20*
%MOMM*%
%LPD*%
G01*
G04 APERTURE LIST*
%ADD10C,0.100000*%
%ADD11C,0.200000*%
G04 APERTURE END LIST*
D10*
X12342000Y-10668000D02*
G75*
G03*
X12342000Y-10668000I-150000J0D01*
G01*
X6604000Y-10171492D02*
X12683570Y-10171492D01*
X12683570Y-10171492D02*
X12683570Y-18542000D01*
X12683570Y-18542000D02*
X6604000Y-18542000D01*
X6604000Y-18542000D02*
X6604000Y-10171492D01*
X12342000Y-18134014D02*
G75*
G03*
X12342000Y-18134014I-150000J0D01*
G01*
X7262000Y-18153518D02*
G75*
G03*
X7262000Y-18153518I-150000J0D01*
G01*
X7262000Y-10668000D02*
G75*
G03*
X7262000Y-10668000I-150000J0D01*
G01*
D11*
X6846619Y-18840476D02*
X6846619Y-18640476D01*
X6846619Y-18640476D02*
X6894238Y-18640476D01*
X6894238Y-18640476D02*
X6922809Y-18650000D01*
X6922809Y-18650000D02*
X6941857Y-18669048D01*
X6941857Y-18669048D02*
X6951381Y-18688095D01*
X6951381Y-18688095D02*
X6960905Y-18726190D01*
X6960905Y-18726190D02*
X6960905Y-18754762D01*
X6960905Y-18754762D02*
X6951381Y-18792857D01*
X6951381Y-18792857D02*
X6941857Y-18811905D01*
X6941857Y-18811905D02*
X6922809Y-18830952D01*
X6922809Y-18830952D02*
X6894238Y-18840476D01*
X6894238Y-18840476D02*
X6846619Y-18840476D01*
X7046619Y-18840476D02*
X7046619Y-18707143D01*
X7046619Y-18745238D02*
X7056143Y-18726190D01*
X7056143Y-18726190D02*
X7065667Y-18716667D01*
X7065667Y-18716667D02*
X7084714Y-18707143D01*
X7084714Y-18707143D02*
X7103762Y-18707143D01*
X7170428Y-18840476D02*
X7170428Y-18707143D01*
X7170428Y-18640476D02*
X7160905Y-18650000D01*
X7160905Y-18650000D02*
X7170428Y-18659524D01*
X7170428Y-18659524D02*
X7179952Y-18650000D01*
X7179952Y-18650000D02*
X7170428Y-18640476D01*
X7170428Y-18640476D02*
X7170428Y-18659524D01*
X7294238Y-18840476D02*
X7275190Y-18830952D01*
X7275190Y-18830952D02*
X7265667Y-18811905D01*
X7265667Y-18811905D02*
X7265667Y-18640476D01*
X7399000Y-18840476D02*
X7379952Y-18830952D01*
X7379952Y-18830952D02*
X7370428Y-18811905D01*
X7370428Y-18811905D02*
X7370428Y-18640476D01*
X7595190Y-18840476D02*
X7595190Y-18640476D01*
X7595190Y-18640476D02*
X7661857Y-18783333D01*
X7661857Y-18783333D02*
X7728524Y-18640476D01*
X7728524Y-18640476D02*
X7728524Y-18840476D01*
X7909476Y-18840476D02*
X7909476Y-18735714D01*
X7909476Y-18735714D02*
X7899952Y-18716667D01*
X7899952Y-18716667D02*
X7880905Y-18707143D01*
X7880905Y-18707143D02*
X7842809Y-18707143D01*
X7842809Y-18707143D02*
X7823762Y-18716667D01*
X7909476Y-18830952D02*
X7890428Y-18840476D01*
X7890428Y-18840476D02*
X7842809Y-18840476D01*
X7842809Y-18840476D02*
X7823762Y-18830952D01*
X7823762Y-18830952D02*
X7814238Y-18811905D01*
X7814238Y-18811905D02*
X7814238Y-18792857D01*
X7814238Y-18792857D02*
X7823762Y-18773810D01*
X7823762Y-18773810D02*
X7842809Y-18764286D01*
X7842809Y-18764286D02*
X7890428Y-18764286D01*
X7890428Y-18764286D02*
X7909476Y-18754762D01*
X8004714Y-18707143D02*
X8004714Y-18907143D01*
X8004714Y-18716667D02*
X8023762Y-18707143D01*
X8023762Y-18707143D02*
X8061857Y-18707143D01*
X8061857Y-18707143D02*
X8080905Y-18716667D01*
X8080905Y-18716667D02*
X8090428Y-18726190D01*
X8090428Y-18726190D02*
X8099952Y-18745238D01*
X8099952Y-18745238D02*
X8099952Y-18802381D01*
X8099952Y-18802381D02*
X8090428Y-18821429D01*
X8090428Y-18821429D02*
X8080905Y-18830952D01*
X8080905Y-18830952D02*
X8061857Y-18840476D01*
X8061857Y-18840476D02*
X8023762Y-18840476D01*
X8023762Y-18840476D02*
X8004714Y-18830952D01*
X8185667Y-18821429D02*
X8195190Y-18830952D01*
X8195190Y-18830952D02*
X8185667Y-18840476D01*
X8185667Y-18840476D02*
X8176143Y-18830952D01*
X8176143Y-18830952D02*
X8185667Y-18821429D01*
X8185667Y-18821429D02*
X8185667Y-18840476D01*
X8185667Y-18716667D02*
X8195190Y-18726190D01*
X8195190Y-18726190D02*
X8185667Y-18735714D01*
X8185667Y-18735714D02*
X8176143Y-18726190D01*
X8176143Y-18726190D02*
X8185667Y-18716667D01*
X8185667Y-18716667D02*
X8185667Y-18735714D01*
M02*
