%TF.GenerationSoftware,KiCad,Pcbnew,(7.0.0)*%
%TF.CreationDate,2023-04-02T16:15:30+02:00*%
%TF.ProjectId,QuinLED-ESP32-Breakout,5175696e-4c45-4442-9d45-535033322d42,rev?*%
%TF.SameCoordinates,Original*%
%TF.FileFunction,Legend,Top*%
%TF.FilePolarity,Positive*%
%FSLAX46Y46*%
G04 Gerber Fmt 4.6, Leading zero omitted, Abs format (unit mm)*
G04 Created by KiCad (PCBNEW (7.0.0)) date 2023-04-02 16:15:30*
%MOMM*%
%LPD*%
G01*
G04 APERTURE LIST*
%ADD10C,0.150000*%
%ADD11C,0.120000*%
%ADD12C,0.050000*%
G04 APERTURE END LIST*
D10*
X140843546Y-115792827D02*
X151003546Y-115792827D01*
X151003546Y-115792827D02*
X151003546Y-120872827D01*
X151003546Y-120872827D02*
X140843546Y-120872827D01*
X140843546Y-120872827D02*
X140843546Y-115792827D01*
X162750476Y-83316666D02*
X163226666Y-83316666D01*
X162655238Y-83602380D02*
X162988571Y-82602380D01*
X162988571Y-82602380D02*
X163321904Y-83602380D01*
X125092826Y-110526299D02*
X125711873Y-110526299D01*
X125711873Y-110526299D02*
X125378540Y-110907252D01*
X125378540Y-110907252D02*
X125521397Y-110907252D01*
X125521397Y-110907252D02*
X125616635Y-110954871D01*
X125616635Y-110954871D02*
X125664254Y-111002490D01*
X125664254Y-111002490D02*
X125711873Y-111097728D01*
X125711873Y-111097728D02*
X125711873Y-111335823D01*
X125711873Y-111335823D02*
X125664254Y-111431061D01*
X125664254Y-111431061D02*
X125616635Y-111478680D01*
X125616635Y-111478680D02*
X125521397Y-111526299D01*
X125521397Y-111526299D02*
X125235683Y-111526299D01*
X125235683Y-111526299D02*
X125140445Y-111478680D01*
X125140445Y-111478680D02*
X125092826Y-111431061D01*
X126140445Y-111431061D02*
X126188064Y-111478680D01*
X126188064Y-111478680D02*
X126140445Y-111526299D01*
X126140445Y-111526299D02*
X126092826Y-111478680D01*
X126092826Y-111478680D02*
X126140445Y-111431061D01*
X126140445Y-111431061D02*
X126140445Y-111526299D01*
X126521397Y-110526299D02*
X127140444Y-110526299D01*
X127140444Y-110526299D02*
X126807111Y-110907252D01*
X126807111Y-110907252D02*
X126949968Y-110907252D01*
X126949968Y-110907252D02*
X127045206Y-110954871D01*
X127045206Y-110954871D02*
X127092825Y-111002490D01*
X127092825Y-111002490D02*
X127140444Y-111097728D01*
X127140444Y-111097728D02*
X127140444Y-111335823D01*
X127140444Y-111335823D02*
X127092825Y-111431061D01*
X127092825Y-111431061D02*
X127045206Y-111478680D01*
X127045206Y-111478680D02*
X126949968Y-111526299D01*
X126949968Y-111526299D02*
X126664254Y-111526299D01*
X126664254Y-111526299D02*
X126569016Y-111478680D01*
X126569016Y-111478680D02*
X126521397Y-111431061D01*
X127426159Y-110526299D02*
X127759492Y-111526299D01*
X127759492Y-111526299D02*
X128092825Y-110526299D01*
X128426159Y-111145347D02*
X129188064Y-111145347D01*
X128807111Y-111526299D02*
X128807111Y-110764395D01*
X125711873Y-61293156D02*
X125140445Y-61293156D01*
X125426159Y-61293156D02*
X125426159Y-60293156D01*
X125426159Y-60293156D02*
X125330921Y-60436014D01*
X125330921Y-60436014D02*
X125235683Y-60531252D01*
X125235683Y-60531252D02*
X125140445Y-60578871D01*
X126092826Y-60388395D02*
X126140445Y-60340776D01*
X126140445Y-60340776D02*
X126235683Y-60293156D01*
X126235683Y-60293156D02*
X126473778Y-60293156D01*
X126473778Y-60293156D02*
X126569016Y-60340776D01*
X126569016Y-60340776D02*
X126616635Y-60388395D01*
X126616635Y-60388395D02*
X126664254Y-60483633D01*
X126664254Y-60483633D02*
X126664254Y-60578871D01*
X126664254Y-60578871D02*
X126616635Y-60721728D01*
X126616635Y-60721728D02*
X126045207Y-61293156D01*
X126045207Y-61293156D02*
X126664254Y-61293156D01*
X126949969Y-60293156D02*
X127283302Y-61293156D01*
X127283302Y-61293156D02*
X127616635Y-60293156D01*
X127949969Y-60912204D02*
X128711874Y-60912204D01*
X128330921Y-61293156D02*
X128330921Y-60531252D01*
X162750476Y-69084947D02*
X163226666Y-69084947D01*
X162655238Y-69370661D02*
X162988571Y-68370661D01*
X162988571Y-68370661D02*
X163321904Y-69370661D01*
X162205204Y-88423990D02*
X161729014Y-88423990D01*
X161729014Y-88423990D02*
X161729014Y-87423990D01*
X162538538Y-87900181D02*
X162871871Y-87900181D01*
X163014728Y-88423990D02*
X162538538Y-88423990D01*
X162538538Y-88423990D02*
X162538538Y-87423990D01*
X162538538Y-87423990D02*
X163014728Y-87423990D01*
X163443300Y-88423990D02*
X163443300Y-87423990D01*
X163443300Y-87423990D02*
X163681395Y-87423990D01*
X163681395Y-87423990D02*
X163824252Y-87471610D01*
X163824252Y-87471610D02*
X163919490Y-87566848D01*
X163919490Y-87566848D02*
X163967109Y-87662086D01*
X163967109Y-87662086D02*
X164014728Y-87852562D01*
X164014728Y-87852562D02*
X164014728Y-87995419D01*
X164014728Y-87995419D02*
X163967109Y-88185895D01*
X163967109Y-88185895D02*
X163919490Y-88281133D01*
X163919490Y-88281133D02*
X163824252Y-88376371D01*
X163824252Y-88376371D02*
X163681395Y-88423990D01*
X163681395Y-88423990D02*
X163443300Y-88423990D01*
X164995681Y-87519229D02*
X165043300Y-87471610D01*
X165043300Y-87471610D02*
X165138538Y-87423990D01*
X165138538Y-87423990D02*
X165376633Y-87423990D01*
X165376633Y-87423990D02*
X165471871Y-87471610D01*
X165471871Y-87471610D02*
X165519490Y-87519229D01*
X165519490Y-87519229D02*
X165567109Y-87614467D01*
X165567109Y-87614467D02*
X165567109Y-87709705D01*
X165567109Y-87709705D02*
X165519490Y-87852562D01*
X165519490Y-87852562D02*
X164948062Y-88423990D01*
X164948062Y-88423990D02*
X165567109Y-88423990D01*
X166881395Y-88804943D02*
X166833776Y-88757324D01*
X166833776Y-88757324D02*
X166738538Y-88614467D01*
X166738538Y-88614467D02*
X166690919Y-88519229D01*
X166690919Y-88519229D02*
X166643300Y-88376371D01*
X166643300Y-88376371D02*
X166595681Y-88138276D01*
X166595681Y-88138276D02*
X166595681Y-87947800D01*
X166595681Y-87947800D02*
X166643300Y-87709705D01*
X166643300Y-87709705D02*
X166690919Y-87566848D01*
X166690919Y-87566848D02*
X166738538Y-87471610D01*
X166738538Y-87471610D02*
X166833776Y-87328752D01*
X166833776Y-87328752D02*
X166881395Y-87281133D01*
X167786157Y-87471610D02*
X167690919Y-87423990D01*
X167690919Y-87423990D02*
X167548062Y-87423990D01*
X167548062Y-87423990D02*
X167405205Y-87471610D01*
X167405205Y-87471610D02*
X167309967Y-87566848D01*
X167309967Y-87566848D02*
X167262348Y-87662086D01*
X167262348Y-87662086D02*
X167214729Y-87852562D01*
X167214729Y-87852562D02*
X167214729Y-87995419D01*
X167214729Y-87995419D02*
X167262348Y-88185895D01*
X167262348Y-88185895D02*
X167309967Y-88281133D01*
X167309967Y-88281133D02*
X167405205Y-88376371D01*
X167405205Y-88376371D02*
X167548062Y-88423990D01*
X167548062Y-88423990D02*
X167643300Y-88423990D01*
X167643300Y-88423990D02*
X167786157Y-88376371D01*
X167786157Y-88376371D02*
X167833776Y-88328752D01*
X167833776Y-88328752D02*
X167833776Y-87995419D01*
X167833776Y-87995419D02*
X167643300Y-87995419D01*
X168262348Y-88423990D02*
X168262348Y-87423990D01*
X168262348Y-87423990D02*
X168643300Y-87423990D01*
X168643300Y-87423990D02*
X168738538Y-87471610D01*
X168738538Y-87471610D02*
X168786157Y-87519229D01*
X168786157Y-87519229D02*
X168833776Y-87614467D01*
X168833776Y-87614467D02*
X168833776Y-87757324D01*
X168833776Y-87757324D02*
X168786157Y-87852562D01*
X168786157Y-87852562D02*
X168738538Y-87900181D01*
X168738538Y-87900181D02*
X168643300Y-87947800D01*
X168643300Y-87947800D02*
X168262348Y-87947800D01*
X169262348Y-88423990D02*
X169262348Y-87423990D01*
X169929014Y-87423990D02*
X170119490Y-87423990D01*
X170119490Y-87423990D02*
X170214728Y-87471610D01*
X170214728Y-87471610D02*
X170309966Y-87566848D01*
X170309966Y-87566848D02*
X170357585Y-87757324D01*
X170357585Y-87757324D02*
X170357585Y-88090657D01*
X170357585Y-88090657D02*
X170309966Y-88281133D01*
X170309966Y-88281133D02*
X170214728Y-88376371D01*
X170214728Y-88376371D02*
X170119490Y-88423990D01*
X170119490Y-88423990D02*
X169929014Y-88423990D01*
X169929014Y-88423990D02*
X169833776Y-88376371D01*
X169833776Y-88376371D02*
X169738538Y-88281133D01*
X169738538Y-88281133D02*
X169690919Y-88090657D01*
X169690919Y-88090657D02*
X169690919Y-87757324D01*
X169690919Y-87757324D02*
X169738538Y-87566848D01*
X169738538Y-87566848D02*
X169833776Y-87471610D01*
X169833776Y-87471610D02*
X169929014Y-87423990D01*
X171309966Y-88423990D02*
X170738538Y-88423990D01*
X171024252Y-88423990D02*
X171024252Y-87423990D01*
X171024252Y-87423990D02*
X170929014Y-87566848D01*
X170929014Y-87566848D02*
X170833776Y-87662086D01*
X170833776Y-87662086D02*
X170738538Y-87709705D01*
X171690919Y-87519229D02*
X171738538Y-87471610D01*
X171738538Y-87471610D02*
X171833776Y-87423990D01*
X171833776Y-87423990D02*
X172071871Y-87423990D01*
X172071871Y-87423990D02*
X172167109Y-87471610D01*
X172167109Y-87471610D02*
X172214728Y-87519229D01*
X172214728Y-87519229D02*
X172262347Y-87614467D01*
X172262347Y-87614467D02*
X172262347Y-87709705D01*
X172262347Y-87709705D02*
X172214728Y-87852562D01*
X172214728Y-87852562D02*
X171643300Y-88423990D01*
X171643300Y-88423990D02*
X172262347Y-88423990D01*
X172595681Y-88804943D02*
X172643300Y-88757324D01*
X172643300Y-88757324D02*
X172738538Y-88614467D01*
X172738538Y-88614467D02*
X172786157Y-88519229D01*
X172786157Y-88519229D02*
X172833776Y-88376371D01*
X172833776Y-88376371D02*
X172881395Y-88138276D01*
X172881395Y-88138276D02*
X172881395Y-87947800D01*
X172881395Y-87947800D02*
X172833776Y-87709705D01*
X172833776Y-87709705D02*
X172786157Y-87566848D01*
X172786157Y-87566848D02*
X172738538Y-87471610D01*
X172738538Y-87471610D02*
X172643300Y-87328752D01*
X172643300Y-87328752D02*
X172595681Y-87281133D01*
X162750476Y-111719799D02*
X163226666Y-111719799D01*
X162655238Y-112005513D02*
X162988571Y-111005513D01*
X162988571Y-111005513D02*
X163321904Y-112005513D01*
X125711873Y-105689303D02*
X125616635Y-105641683D01*
X125616635Y-105641683D02*
X125473778Y-105641683D01*
X125473778Y-105641683D02*
X125330921Y-105689303D01*
X125330921Y-105689303D02*
X125235683Y-105784541D01*
X125235683Y-105784541D02*
X125188064Y-105879779D01*
X125188064Y-105879779D02*
X125140445Y-106070255D01*
X125140445Y-106070255D02*
X125140445Y-106213112D01*
X125140445Y-106213112D02*
X125188064Y-106403588D01*
X125188064Y-106403588D02*
X125235683Y-106498826D01*
X125235683Y-106498826D02*
X125330921Y-106594064D01*
X125330921Y-106594064D02*
X125473778Y-106641683D01*
X125473778Y-106641683D02*
X125569016Y-106641683D01*
X125569016Y-106641683D02*
X125711873Y-106594064D01*
X125711873Y-106594064D02*
X125759492Y-106546445D01*
X125759492Y-106546445D02*
X125759492Y-106213112D01*
X125759492Y-106213112D02*
X125569016Y-106213112D01*
X126188064Y-106641683D02*
X126188064Y-105641683D01*
X126188064Y-105641683D02*
X126759492Y-106641683D01*
X126759492Y-106641683D02*
X126759492Y-105641683D01*
X127235683Y-106641683D02*
X127235683Y-105641683D01*
X127235683Y-105641683D02*
X127473778Y-105641683D01*
X127473778Y-105641683D02*
X127616635Y-105689303D01*
X127616635Y-105689303D02*
X127711873Y-105784541D01*
X127711873Y-105784541D02*
X127759492Y-105879779D01*
X127759492Y-105879779D02*
X127807111Y-106070255D01*
X127807111Y-106070255D02*
X127807111Y-106213112D01*
X127807111Y-106213112D02*
X127759492Y-106403588D01*
X127759492Y-106403588D02*
X127711873Y-106498826D01*
X127711873Y-106498826D02*
X127616635Y-106594064D01*
X127616635Y-106594064D02*
X127473778Y-106641683D01*
X127473778Y-106641683D02*
X127235683Y-106641683D01*
X126685988Y-53212648D02*
X126352655Y-52736458D01*
X126114560Y-53212648D02*
X126114560Y-52212648D01*
X126114560Y-52212648D02*
X126495512Y-52212648D01*
X126495512Y-52212648D02*
X126590750Y-52260268D01*
X126590750Y-52260268D02*
X126638369Y-52307887D01*
X126638369Y-52307887D02*
X126685988Y-52403125D01*
X126685988Y-52403125D02*
X126685988Y-52545982D01*
X126685988Y-52545982D02*
X126638369Y-52641220D01*
X126638369Y-52641220D02*
X126590750Y-52688839D01*
X126590750Y-52688839D02*
X126495512Y-52736458D01*
X126495512Y-52736458D02*
X126114560Y-52736458D01*
X127114560Y-52688839D02*
X127447893Y-52688839D01*
X127590750Y-53212648D02*
X127114560Y-53212648D01*
X127114560Y-53212648D02*
X127114560Y-52212648D01*
X127114560Y-52212648D02*
X127590750Y-52212648D01*
X128019322Y-52688839D02*
X128352655Y-52688839D01*
X128495512Y-53212648D02*
X128019322Y-53212648D01*
X128019322Y-53212648D02*
X128019322Y-52212648D01*
X128019322Y-52212648D02*
X128495512Y-52212648D01*
X128924084Y-53212648D02*
X128924084Y-52212648D01*
X128924084Y-52212648D02*
X129162179Y-52212648D01*
X129162179Y-52212648D02*
X129305036Y-52260268D01*
X129305036Y-52260268D02*
X129400274Y-52355506D01*
X129400274Y-52355506D02*
X129447893Y-52450744D01*
X129447893Y-52450744D02*
X129495512Y-52641220D01*
X129495512Y-52641220D02*
X129495512Y-52784077D01*
X129495512Y-52784077D02*
X129447893Y-52974553D01*
X129447893Y-52974553D02*
X129400274Y-53069791D01*
X129400274Y-53069791D02*
X129305036Y-53165029D01*
X129305036Y-53165029D02*
X129162179Y-53212648D01*
X129162179Y-53212648D02*
X128924084Y-53212648D01*
X130476465Y-53165029D02*
X130619322Y-53212648D01*
X130619322Y-53212648D02*
X130857417Y-53212648D01*
X130857417Y-53212648D02*
X130952655Y-53165029D01*
X130952655Y-53165029D02*
X131000274Y-53117410D01*
X131000274Y-53117410D02*
X131047893Y-53022172D01*
X131047893Y-53022172D02*
X131047893Y-52926934D01*
X131047893Y-52926934D02*
X131000274Y-52831696D01*
X131000274Y-52831696D02*
X130952655Y-52784077D01*
X130952655Y-52784077D02*
X130857417Y-52736458D01*
X130857417Y-52736458D02*
X130666941Y-52688839D01*
X130666941Y-52688839D02*
X130571703Y-52641220D01*
X130571703Y-52641220D02*
X130524084Y-52593601D01*
X130524084Y-52593601D02*
X130476465Y-52498363D01*
X130476465Y-52498363D02*
X130476465Y-52403125D01*
X130476465Y-52403125D02*
X130524084Y-52307887D01*
X130524084Y-52307887D02*
X130571703Y-52260268D01*
X130571703Y-52260268D02*
X130666941Y-52212648D01*
X130666941Y-52212648D02*
X130905036Y-52212648D01*
X130905036Y-52212648D02*
X131047893Y-52260268D01*
X131381227Y-52212648D02*
X131619322Y-53212648D01*
X131619322Y-53212648D02*
X131809798Y-52498363D01*
X131809798Y-52498363D02*
X132000274Y-53212648D01*
X132000274Y-53212648D02*
X132238370Y-52212648D01*
X132619322Y-53212648D02*
X132619322Y-52212648D01*
X132952655Y-52212648D02*
X133524083Y-52212648D01*
X133238369Y-53212648D02*
X133238369Y-52212648D01*
X134428845Y-53117410D02*
X134381226Y-53165029D01*
X134381226Y-53165029D02*
X134238369Y-53212648D01*
X134238369Y-53212648D02*
X134143131Y-53212648D01*
X134143131Y-53212648D02*
X134000274Y-53165029D01*
X134000274Y-53165029D02*
X133905036Y-53069791D01*
X133905036Y-53069791D02*
X133857417Y-52974553D01*
X133857417Y-52974553D02*
X133809798Y-52784077D01*
X133809798Y-52784077D02*
X133809798Y-52641220D01*
X133809798Y-52641220D02*
X133857417Y-52450744D01*
X133857417Y-52450744D02*
X133905036Y-52355506D01*
X133905036Y-52355506D02*
X134000274Y-52260268D01*
X134000274Y-52260268D02*
X134143131Y-52212648D01*
X134143131Y-52212648D02*
X134238369Y-52212648D01*
X134238369Y-52212648D02*
X134381226Y-52260268D01*
X134381226Y-52260268D02*
X134428845Y-52307887D01*
X134857417Y-53212648D02*
X134857417Y-52212648D01*
X134857417Y-52688839D02*
X135428845Y-52688839D01*
X135428845Y-53212648D02*
X135428845Y-52212648D01*
X137028845Y-53212648D02*
X136457417Y-53212648D01*
X136743131Y-53212648D02*
X136743131Y-52212648D01*
X136743131Y-52212648D02*
X136647893Y-52355506D01*
X136647893Y-52355506D02*
X136552655Y-52450744D01*
X136552655Y-52450744D02*
X136457417Y-52498363D01*
X131823528Y-56607381D02*
X131966385Y-56655000D01*
X131966385Y-56655000D02*
X132014004Y-56702619D01*
X132014004Y-56702619D02*
X132061623Y-56797857D01*
X132061623Y-56797857D02*
X132061623Y-56940714D01*
X132061623Y-56940714D02*
X132014004Y-57035952D01*
X132014004Y-57035952D02*
X131966385Y-57083571D01*
X131966385Y-57083571D02*
X131871147Y-57131190D01*
X131871147Y-57131190D02*
X131490195Y-57131190D01*
X131490195Y-57131190D02*
X131490195Y-56131190D01*
X131490195Y-56131190D02*
X131823528Y-56131190D01*
X131823528Y-56131190D02*
X131918766Y-56178810D01*
X131918766Y-56178810D02*
X131966385Y-56226429D01*
X131966385Y-56226429D02*
X132014004Y-56321667D01*
X132014004Y-56321667D02*
X132014004Y-56416905D01*
X132014004Y-56416905D02*
X131966385Y-56512143D01*
X131966385Y-56512143D02*
X131918766Y-56559762D01*
X131918766Y-56559762D02*
X131823528Y-56607381D01*
X131823528Y-56607381D02*
X131490195Y-56607381D01*
X132490195Y-56131190D02*
X132490195Y-56940714D01*
X132490195Y-56940714D02*
X132537814Y-57035952D01*
X132537814Y-57035952D02*
X132585433Y-57083571D01*
X132585433Y-57083571D02*
X132680671Y-57131190D01*
X132680671Y-57131190D02*
X132871147Y-57131190D01*
X132871147Y-57131190D02*
X132966385Y-57083571D01*
X132966385Y-57083571D02*
X133014004Y-57035952D01*
X133014004Y-57035952D02*
X133061623Y-56940714D01*
X133061623Y-56940714D02*
X133061623Y-56131190D01*
X133442576Y-56131190D02*
X134109242Y-56131190D01*
X134109242Y-56131190D02*
X133442576Y-57131190D01*
X133442576Y-57131190D02*
X134109242Y-57131190D01*
X134394957Y-56131190D02*
X135061623Y-56131190D01*
X135061623Y-56131190D02*
X134394957Y-57131190D01*
X134394957Y-57131190D02*
X135061623Y-57131190D01*
X135442576Y-56607381D02*
X135775909Y-56607381D01*
X135918766Y-57131190D02*
X135442576Y-57131190D01*
X135442576Y-57131190D02*
X135442576Y-56131190D01*
X135442576Y-56131190D02*
X135918766Y-56131190D01*
X136918766Y-57131190D02*
X136585433Y-56655000D01*
X136347338Y-57131190D02*
X136347338Y-56131190D01*
X136347338Y-56131190D02*
X136728290Y-56131190D01*
X136728290Y-56131190D02*
X136823528Y-56178810D01*
X136823528Y-56178810D02*
X136871147Y-56226429D01*
X136871147Y-56226429D02*
X136918766Y-56321667D01*
X136918766Y-56321667D02*
X136918766Y-56464524D01*
X136918766Y-56464524D02*
X136871147Y-56559762D01*
X136871147Y-56559762D02*
X136823528Y-56607381D01*
X136823528Y-56607381D02*
X136728290Y-56655000D01*
X136728290Y-56655000D02*
X136347338Y-56655000D01*
X131884836Y-59295886D02*
X131837217Y-59248267D01*
X131837217Y-59248267D02*
X131741979Y-59105410D01*
X131741979Y-59105410D02*
X131694360Y-59010172D01*
X131694360Y-59010172D02*
X131646741Y-58867314D01*
X131646741Y-58867314D02*
X131599122Y-58629219D01*
X131599122Y-58629219D02*
X131599122Y-58438743D01*
X131599122Y-58438743D02*
X131646741Y-58200648D01*
X131646741Y-58200648D02*
X131694360Y-58057791D01*
X131694360Y-58057791D02*
X131741979Y-57962553D01*
X131741979Y-57962553D02*
X131837217Y-57819695D01*
X131837217Y-57819695D02*
X131884836Y-57772076D01*
X132789598Y-57962553D02*
X132694360Y-57914933D01*
X132694360Y-57914933D02*
X132551503Y-57914933D01*
X132551503Y-57914933D02*
X132408646Y-57962553D01*
X132408646Y-57962553D02*
X132313408Y-58057791D01*
X132313408Y-58057791D02*
X132265789Y-58153029D01*
X132265789Y-58153029D02*
X132218170Y-58343505D01*
X132218170Y-58343505D02*
X132218170Y-58486362D01*
X132218170Y-58486362D02*
X132265789Y-58676838D01*
X132265789Y-58676838D02*
X132313408Y-58772076D01*
X132313408Y-58772076D02*
X132408646Y-58867314D01*
X132408646Y-58867314D02*
X132551503Y-58914933D01*
X132551503Y-58914933D02*
X132646741Y-58914933D01*
X132646741Y-58914933D02*
X132789598Y-58867314D01*
X132789598Y-58867314D02*
X132837217Y-58819695D01*
X132837217Y-58819695D02*
X132837217Y-58486362D01*
X132837217Y-58486362D02*
X132646741Y-58486362D01*
X133265789Y-58914933D02*
X133265789Y-57914933D01*
X133265789Y-57914933D02*
X133646741Y-57914933D01*
X133646741Y-57914933D02*
X133741979Y-57962553D01*
X133741979Y-57962553D02*
X133789598Y-58010172D01*
X133789598Y-58010172D02*
X133837217Y-58105410D01*
X133837217Y-58105410D02*
X133837217Y-58248267D01*
X133837217Y-58248267D02*
X133789598Y-58343505D01*
X133789598Y-58343505D02*
X133741979Y-58391124D01*
X133741979Y-58391124D02*
X133646741Y-58438743D01*
X133646741Y-58438743D02*
X133265789Y-58438743D01*
X134265789Y-58914933D02*
X134265789Y-57914933D01*
X134932455Y-57914933D02*
X135122931Y-57914933D01*
X135122931Y-57914933D02*
X135218169Y-57962553D01*
X135218169Y-57962553D02*
X135313407Y-58057791D01*
X135313407Y-58057791D02*
X135361026Y-58248267D01*
X135361026Y-58248267D02*
X135361026Y-58581600D01*
X135361026Y-58581600D02*
X135313407Y-58772076D01*
X135313407Y-58772076D02*
X135218169Y-58867314D01*
X135218169Y-58867314D02*
X135122931Y-58914933D01*
X135122931Y-58914933D02*
X134932455Y-58914933D01*
X134932455Y-58914933D02*
X134837217Y-58867314D01*
X134837217Y-58867314D02*
X134741979Y-58772076D01*
X134741979Y-58772076D02*
X134694360Y-58581600D01*
X134694360Y-58581600D02*
X134694360Y-58248267D01*
X134694360Y-58248267D02*
X134741979Y-58057791D01*
X134741979Y-58057791D02*
X134837217Y-57962553D01*
X134837217Y-57962553D02*
X134932455Y-57914933D01*
X135741979Y-58010172D02*
X135789598Y-57962553D01*
X135789598Y-57962553D02*
X135884836Y-57914933D01*
X135884836Y-57914933D02*
X136122931Y-57914933D01*
X136122931Y-57914933D02*
X136218169Y-57962553D01*
X136218169Y-57962553D02*
X136265788Y-58010172D01*
X136265788Y-58010172D02*
X136313407Y-58105410D01*
X136313407Y-58105410D02*
X136313407Y-58200648D01*
X136313407Y-58200648D02*
X136265788Y-58343505D01*
X136265788Y-58343505D02*
X135694360Y-58914933D01*
X135694360Y-58914933D02*
X136313407Y-58914933D01*
X136646741Y-59295886D02*
X136694360Y-59248267D01*
X136694360Y-59248267D02*
X136789598Y-59105410D01*
X136789598Y-59105410D02*
X136837217Y-59010172D01*
X136837217Y-59010172D02*
X136884836Y-58867314D01*
X136884836Y-58867314D02*
X136932455Y-58629219D01*
X136932455Y-58629219D02*
X136932455Y-58438743D01*
X136932455Y-58438743D02*
X136884836Y-58200648D01*
X136884836Y-58200648D02*
X136837217Y-58057791D01*
X136837217Y-58057791D02*
X136789598Y-57962553D01*
X136789598Y-57962553D02*
X136694360Y-57819695D01*
X136694360Y-57819695D02*
X136646741Y-57772076D01*
X125140445Y-75212467D02*
X125616635Y-75212467D01*
X125045207Y-75498181D02*
X125378540Y-74498181D01*
X125378540Y-74498181D02*
X125711873Y-75498181D01*
X126521397Y-75498181D02*
X126045207Y-75498181D01*
X126045207Y-75498181D02*
X126045207Y-74498181D01*
X126807112Y-75212467D02*
X127283302Y-75212467D01*
X126711874Y-75498181D02*
X127045207Y-74498181D01*
X127045207Y-74498181D02*
X127378540Y-75498181D01*
X128283302Y-75498181D02*
X127949969Y-75021991D01*
X127711874Y-75498181D02*
X127711874Y-74498181D01*
X127711874Y-74498181D02*
X128092826Y-74498181D01*
X128092826Y-74498181D02*
X128188064Y-74545801D01*
X128188064Y-74545801D02*
X128235683Y-74593420D01*
X128235683Y-74593420D02*
X128283302Y-74688658D01*
X128283302Y-74688658D02*
X128283302Y-74831515D01*
X128283302Y-74831515D02*
X128235683Y-74926753D01*
X128235683Y-74926753D02*
X128188064Y-74974372D01*
X128188064Y-74974372D02*
X128092826Y-75021991D01*
X128092826Y-75021991D02*
X127711874Y-75021991D01*
X128711874Y-75498181D02*
X128711874Y-74498181D01*
X128711874Y-74498181D02*
X129045207Y-75212467D01*
X129045207Y-75212467D02*
X129378540Y-74498181D01*
X129378540Y-74498181D02*
X129378540Y-75498181D01*
X125473778Y-77499134D02*
X125426159Y-77451515D01*
X125426159Y-77451515D02*
X125330921Y-77308658D01*
X125330921Y-77308658D02*
X125283302Y-77213420D01*
X125283302Y-77213420D02*
X125235683Y-77070562D01*
X125235683Y-77070562D02*
X125188064Y-76832467D01*
X125188064Y-76832467D02*
X125188064Y-76641991D01*
X125188064Y-76641991D02*
X125235683Y-76403896D01*
X125235683Y-76403896D02*
X125283302Y-76261039D01*
X125283302Y-76261039D02*
X125330921Y-76165801D01*
X125330921Y-76165801D02*
X125426159Y-76022943D01*
X125426159Y-76022943D02*
X125473778Y-75975324D01*
X126378540Y-76165801D02*
X126283302Y-76118181D01*
X126283302Y-76118181D02*
X126140445Y-76118181D01*
X126140445Y-76118181D02*
X125997588Y-76165801D01*
X125997588Y-76165801D02*
X125902350Y-76261039D01*
X125902350Y-76261039D02*
X125854731Y-76356277D01*
X125854731Y-76356277D02*
X125807112Y-76546753D01*
X125807112Y-76546753D02*
X125807112Y-76689610D01*
X125807112Y-76689610D02*
X125854731Y-76880086D01*
X125854731Y-76880086D02*
X125902350Y-76975324D01*
X125902350Y-76975324D02*
X125997588Y-77070562D01*
X125997588Y-77070562D02*
X126140445Y-77118181D01*
X126140445Y-77118181D02*
X126235683Y-77118181D01*
X126235683Y-77118181D02*
X126378540Y-77070562D01*
X126378540Y-77070562D02*
X126426159Y-77022943D01*
X126426159Y-77022943D02*
X126426159Y-76689610D01*
X126426159Y-76689610D02*
X126235683Y-76689610D01*
X126854731Y-77118181D02*
X126854731Y-76118181D01*
X126854731Y-76118181D02*
X127235683Y-76118181D01*
X127235683Y-76118181D02*
X127330921Y-76165801D01*
X127330921Y-76165801D02*
X127378540Y-76213420D01*
X127378540Y-76213420D02*
X127426159Y-76308658D01*
X127426159Y-76308658D02*
X127426159Y-76451515D01*
X127426159Y-76451515D02*
X127378540Y-76546753D01*
X127378540Y-76546753D02*
X127330921Y-76594372D01*
X127330921Y-76594372D02*
X127235683Y-76641991D01*
X127235683Y-76641991D02*
X126854731Y-76641991D01*
X127854731Y-77118181D02*
X127854731Y-76118181D01*
X128521397Y-76118181D02*
X128711873Y-76118181D01*
X128711873Y-76118181D02*
X128807111Y-76165801D01*
X128807111Y-76165801D02*
X128902349Y-76261039D01*
X128902349Y-76261039D02*
X128949968Y-76451515D01*
X128949968Y-76451515D02*
X128949968Y-76784848D01*
X128949968Y-76784848D02*
X128902349Y-76975324D01*
X128902349Y-76975324D02*
X128807111Y-77070562D01*
X128807111Y-77070562D02*
X128711873Y-77118181D01*
X128711873Y-77118181D02*
X128521397Y-77118181D01*
X128521397Y-77118181D02*
X128426159Y-77070562D01*
X128426159Y-77070562D02*
X128330921Y-76975324D01*
X128330921Y-76975324D02*
X128283302Y-76784848D01*
X128283302Y-76784848D02*
X128283302Y-76451515D01*
X128283302Y-76451515D02*
X128330921Y-76261039D01*
X128330921Y-76261039D02*
X128426159Y-76165801D01*
X128426159Y-76165801D02*
X128521397Y-76118181D01*
X129902349Y-77118181D02*
X129330921Y-77118181D01*
X129616635Y-77118181D02*
X129616635Y-76118181D01*
X129616635Y-76118181D02*
X129521397Y-76261039D01*
X129521397Y-76261039D02*
X129426159Y-76356277D01*
X129426159Y-76356277D02*
X129330921Y-76403896D01*
X130807111Y-76118181D02*
X130330921Y-76118181D01*
X130330921Y-76118181D02*
X130283302Y-76594372D01*
X130283302Y-76594372D02*
X130330921Y-76546753D01*
X130330921Y-76546753D02*
X130426159Y-76499134D01*
X130426159Y-76499134D02*
X130664254Y-76499134D01*
X130664254Y-76499134D02*
X130759492Y-76546753D01*
X130759492Y-76546753D02*
X130807111Y-76594372D01*
X130807111Y-76594372D02*
X130854730Y-76689610D01*
X130854730Y-76689610D02*
X130854730Y-76927705D01*
X130854730Y-76927705D02*
X130807111Y-77022943D01*
X130807111Y-77022943D02*
X130759492Y-77070562D01*
X130759492Y-77070562D02*
X130664254Y-77118181D01*
X130664254Y-77118181D02*
X130426159Y-77118181D01*
X130426159Y-77118181D02*
X130330921Y-77070562D01*
X130330921Y-77070562D02*
X130283302Y-77022943D01*
X131188064Y-77499134D02*
X131235683Y-77451515D01*
X131235683Y-77451515D02*
X131330921Y-77308658D01*
X131330921Y-77308658D02*
X131378540Y-77213420D01*
X131378540Y-77213420D02*
X131426159Y-77070562D01*
X131426159Y-77070562D02*
X131473778Y-76832467D01*
X131473778Y-76832467D02*
X131473778Y-76641991D01*
X131473778Y-76641991D02*
X131426159Y-76403896D01*
X131426159Y-76403896D02*
X131378540Y-76261039D01*
X131378540Y-76261039D02*
X131330921Y-76165801D01*
X131330921Y-76165801D02*
X131235683Y-76022943D01*
X131235683Y-76022943D02*
X131188064Y-75975324D01*
X163157585Y-102546390D02*
X162681395Y-102546390D01*
X162681395Y-102546390D02*
X162681395Y-101546390D01*
X163490919Y-102022581D02*
X163824252Y-102022581D01*
X163967109Y-102546390D02*
X163490919Y-102546390D01*
X163490919Y-102546390D02*
X163490919Y-101546390D01*
X163490919Y-101546390D02*
X163967109Y-101546390D01*
X164395681Y-102546390D02*
X164395681Y-101546390D01*
X164395681Y-101546390D02*
X164633776Y-101546390D01*
X164633776Y-101546390D02*
X164776633Y-101594010D01*
X164776633Y-101594010D02*
X164871871Y-101689248D01*
X164871871Y-101689248D02*
X164919490Y-101784486D01*
X164919490Y-101784486D02*
X164967109Y-101974962D01*
X164967109Y-101974962D02*
X164967109Y-102117819D01*
X164967109Y-102117819D02*
X164919490Y-102308295D01*
X164919490Y-102308295D02*
X164871871Y-102403533D01*
X164871871Y-102403533D02*
X164776633Y-102498771D01*
X164776633Y-102498771D02*
X164633776Y-102546390D01*
X164633776Y-102546390D02*
X164395681Y-102546390D01*
X166519490Y-102546390D02*
X165948062Y-102546390D01*
X166233776Y-102546390D02*
X166233776Y-101546390D01*
X166233776Y-101546390D02*
X166138538Y-101689248D01*
X166138538Y-101689248D02*
X166043300Y-101784486D01*
X166043300Y-101784486D02*
X165948062Y-101832105D01*
X167833776Y-102927343D02*
X167786157Y-102879724D01*
X167786157Y-102879724D02*
X167690919Y-102736867D01*
X167690919Y-102736867D02*
X167643300Y-102641629D01*
X167643300Y-102641629D02*
X167595681Y-102498771D01*
X167595681Y-102498771D02*
X167548062Y-102260676D01*
X167548062Y-102260676D02*
X167548062Y-102070200D01*
X167548062Y-102070200D02*
X167595681Y-101832105D01*
X167595681Y-101832105D02*
X167643300Y-101689248D01*
X167643300Y-101689248D02*
X167690919Y-101594010D01*
X167690919Y-101594010D02*
X167786157Y-101451152D01*
X167786157Y-101451152D02*
X167833776Y-101403533D01*
X168738538Y-101594010D02*
X168643300Y-101546390D01*
X168643300Y-101546390D02*
X168500443Y-101546390D01*
X168500443Y-101546390D02*
X168357586Y-101594010D01*
X168357586Y-101594010D02*
X168262348Y-101689248D01*
X168262348Y-101689248D02*
X168214729Y-101784486D01*
X168214729Y-101784486D02*
X168167110Y-101974962D01*
X168167110Y-101974962D02*
X168167110Y-102117819D01*
X168167110Y-102117819D02*
X168214729Y-102308295D01*
X168214729Y-102308295D02*
X168262348Y-102403533D01*
X168262348Y-102403533D02*
X168357586Y-102498771D01*
X168357586Y-102498771D02*
X168500443Y-102546390D01*
X168500443Y-102546390D02*
X168595681Y-102546390D01*
X168595681Y-102546390D02*
X168738538Y-102498771D01*
X168738538Y-102498771D02*
X168786157Y-102451152D01*
X168786157Y-102451152D02*
X168786157Y-102117819D01*
X168786157Y-102117819D02*
X168595681Y-102117819D01*
X169214729Y-102546390D02*
X169214729Y-101546390D01*
X169214729Y-101546390D02*
X169595681Y-101546390D01*
X169595681Y-101546390D02*
X169690919Y-101594010D01*
X169690919Y-101594010D02*
X169738538Y-101641629D01*
X169738538Y-101641629D02*
X169786157Y-101736867D01*
X169786157Y-101736867D02*
X169786157Y-101879724D01*
X169786157Y-101879724D02*
X169738538Y-101974962D01*
X169738538Y-101974962D02*
X169690919Y-102022581D01*
X169690919Y-102022581D02*
X169595681Y-102070200D01*
X169595681Y-102070200D02*
X169214729Y-102070200D01*
X170214729Y-102546390D02*
X170214729Y-101546390D01*
X170881395Y-101546390D02*
X171071871Y-101546390D01*
X171071871Y-101546390D02*
X171167109Y-101594010D01*
X171167109Y-101594010D02*
X171262347Y-101689248D01*
X171262347Y-101689248D02*
X171309966Y-101879724D01*
X171309966Y-101879724D02*
X171309966Y-102213057D01*
X171309966Y-102213057D02*
X171262347Y-102403533D01*
X171262347Y-102403533D02*
X171167109Y-102498771D01*
X171167109Y-102498771D02*
X171071871Y-102546390D01*
X171071871Y-102546390D02*
X170881395Y-102546390D01*
X170881395Y-102546390D02*
X170786157Y-102498771D01*
X170786157Y-102498771D02*
X170690919Y-102403533D01*
X170690919Y-102403533D02*
X170643300Y-102213057D01*
X170643300Y-102213057D02*
X170643300Y-101879724D01*
X170643300Y-101879724D02*
X170690919Y-101689248D01*
X170690919Y-101689248D02*
X170786157Y-101594010D01*
X170786157Y-101594010D02*
X170881395Y-101546390D01*
X172167109Y-101879724D02*
X172167109Y-102546390D01*
X171929014Y-101498771D02*
X171690919Y-102213057D01*
X171690919Y-102213057D02*
X172309966Y-102213057D01*
X172595681Y-102927343D02*
X172643300Y-102879724D01*
X172643300Y-102879724D02*
X172738538Y-102736867D01*
X172738538Y-102736867D02*
X172786157Y-102641629D01*
X172786157Y-102641629D02*
X172833776Y-102498771D01*
X172833776Y-102498771D02*
X172881395Y-102260676D01*
X172881395Y-102260676D02*
X172881395Y-102070200D01*
X172881395Y-102070200D02*
X172833776Y-101832105D01*
X172833776Y-101832105D02*
X172786157Y-101689248D01*
X172786157Y-101689248D02*
X172738538Y-101594010D01*
X172738538Y-101594010D02*
X172643300Y-101451152D01*
X172643300Y-101451152D02*
X172595681Y-101403533D01*
X142259795Y-118005590D02*
X142259795Y-118815114D01*
X142259795Y-118815114D02*
X142307414Y-118910352D01*
X142307414Y-118910352D02*
X142355033Y-118957971D01*
X142355033Y-118957971D02*
X142450271Y-119005590D01*
X142450271Y-119005590D02*
X142640747Y-119005590D01*
X142640747Y-119005590D02*
X142735985Y-118957971D01*
X142735985Y-118957971D02*
X142783604Y-118910352D01*
X142783604Y-118910352D02*
X142831223Y-118815114D01*
X142831223Y-118815114D02*
X142831223Y-118005590D01*
X143259795Y-118957971D02*
X143402652Y-119005590D01*
X143402652Y-119005590D02*
X143640747Y-119005590D01*
X143640747Y-119005590D02*
X143735985Y-118957971D01*
X143735985Y-118957971D02*
X143783604Y-118910352D01*
X143783604Y-118910352D02*
X143831223Y-118815114D01*
X143831223Y-118815114D02*
X143831223Y-118719876D01*
X143831223Y-118719876D02*
X143783604Y-118624638D01*
X143783604Y-118624638D02*
X143735985Y-118577019D01*
X143735985Y-118577019D02*
X143640747Y-118529400D01*
X143640747Y-118529400D02*
X143450271Y-118481781D01*
X143450271Y-118481781D02*
X143355033Y-118434162D01*
X143355033Y-118434162D02*
X143307414Y-118386543D01*
X143307414Y-118386543D02*
X143259795Y-118291305D01*
X143259795Y-118291305D02*
X143259795Y-118196067D01*
X143259795Y-118196067D02*
X143307414Y-118100829D01*
X143307414Y-118100829D02*
X143355033Y-118053210D01*
X143355033Y-118053210D02*
X143450271Y-118005590D01*
X143450271Y-118005590D02*
X143688366Y-118005590D01*
X143688366Y-118005590D02*
X143831223Y-118053210D01*
X144593128Y-118481781D02*
X144735985Y-118529400D01*
X144735985Y-118529400D02*
X144783604Y-118577019D01*
X144783604Y-118577019D02*
X144831223Y-118672257D01*
X144831223Y-118672257D02*
X144831223Y-118815114D01*
X144831223Y-118815114D02*
X144783604Y-118910352D01*
X144783604Y-118910352D02*
X144735985Y-118957971D01*
X144735985Y-118957971D02*
X144640747Y-119005590D01*
X144640747Y-119005590D02*
X144259795Y-119005590D01*
X144259795Y-119005590D02*
X144259795Y-118005590D01*
X144259795Y-118005590D02*
X144593128Y-118005590D01*
X144593128Y-118005590D02*
X144688366Y-118053210D01*
X144688366Y-118053210D02*
X144735985Y-118100829D01*
X144735985Y-118100829D02*
X144783604Y-118196067D01*
X144783604Y-118196067D02*
X144783604Y-118291305D01*
X144783604Y-118291305D02*
X144735985Y-118386543D01*
X144735985Y-118386543D02*
X144688366Y-118434162D01*
X144688366Y-118434162D02*
X144593128Y-118481781D01*
X144593128Y-118481781D02*
X144259795Y-118481781D01*
X146574080Y-117957971D02*
X145716938Y-119243686D01*
X147507414Y-118481781D02*
X147840747Y-118481781D01*
X147983604Y-119005590D02*
X147507414Y-119005590D01*
X147507414Y-119005590D02*
X147507414Y-118005590D01*
X147507414Y-118005590D02*
X147983604Y-118005590D01*
X148269319Y-118005590D02*
X148840747Y-118005590D01*
X148555033Y-119005590D02*
X148555033Y-118005590D01*
X149174081Y-119005590D02*
X149174081Y-118005590D01*
X149174081Y-118481781D02*
X149745509Y-118481781D01*
X149745509Y-119005590D02*
X149745509Y-118005590D01*
X125140445Y-100545748D02*
X125283302Y-100593367D01*
X125283302Y-100593367D02*
X125521397Y-100593367D01*
X125521397Y-100593367D02*
X125616635Y-100545748D01*
X125616635Y-100545748D02*
X125664254Y-100498129D01*
X125664254Y-100498129D02*
X125711873Y-100402891D01*
X125711873Y-100402891D02*
X125711873Y-100307653D01*
X125711873Y-100307653D02*
X125664254Y-100212415D01*
X125664254Y-100212415D02*
X125616635Y-100164796D01*
X125616635Y-100164796D02*
X125521397Y-100117177D01*
X125521397Y-100117177D02*
X125330921Y-100069558D01*
X125330921Y-100069558D02*
X125235683Y-100021939D01*
X125235683Y-100021939D02*
X125188064Y-99974320D01*
X125188064Y-99974320D02*
X125140445Y-99879082D01*
X125140445Y-99879082D02*
X125140445Y-99783844D01*
X125140445Y-99783844D02*
X125188064Y-99688606D01*
X125188064Y-99688606D02*
X125235683Y-99640987D01*
X125235683Y-99640987D02*
X125330921Y-99593367D01*
X125330921Y-99593367D02*
X125569016Y-99593367D01*
X125569016Y-99593367D02*
X125711873Y-99640987D01*
X126140445Y-100593367D02*
X126140445Y-99593367D01*
X126140445Y-99593367D02*
X126378540Y-99593367D01*
X126378540Y-99593367D02*
X126521397Y-99640987D01*
X126521397Y-99640987D02*
X126616635Y-99736225D01*
X126616635Y-99736225D02*
X126664254Y-99831463D01*
X126664254Y-99831463D02*
X126711873Y-100021939D01*
X126711873Y-100021939D02*
X126711873Y-100164796D01*
X126711873Y-100164796D02*
X126664254Y-100355272D01*
X126664254Y-100355272D02*
X126616635Y-100450510D01*
X126616635Y-100450510D02*
X126521397Y-100545748D01*
X126521397Y-100545748D02*
X126378540Y-100593367D01*
X126378540Y-100593367D02*
X126140445Y-100593367D01*
X127092826Y-100307653D02*
X127569016Y-100307653D01*
X126997588Y-100593367D02*
X127330921Y-99593367D01*
X127330921Y-99593367D02*
X127664254Y-100593367D01*
X125473778Y-102594320D02*
X125426159Y-102546701D01*
X125426159Y-102546701D02*
X125330921Y-102403844D01*
X125330921Y-102403844D02*
X125283302Y-102308606D01*
X125283302Y-102308606D02*
X125235683Y-102165748D01*
X125235683Y-102165748D02*
X125188064Y-101927653D01*
X125188064Y-101927653D02*
X125188064Y-101737177D01*
X125188064Y-101737177D02*
X125235683Y-101499082D01*
X125235683Y-101499082D02*
X125283302Y-101356225D01*
X125283302Y-101356225D02*
X125330921Y-101260987D01*
X125330921Y-101260987D02*
X125426159Y-101118129D01*
X125426159Y-101118129D02*
X125473778Y-101070510D01*
X125854731Y-102213367D02*
X125854731Y-101213367D01*
X126521397Y-101213367D02*
X126711873Y-101213367D01*
X126711873Y-101213367D02*
X126807111Y-101260987D01*
X126807111Y-101260987D02*
X126902349Y-101356225D01*
X126902349Y-101356225D02*
X126949968Y-101546701D01*
X126949968Y-101546701D02*
X126949968Y-101880034D01*
X126949968Y-101880034D02*
X126902349Y-102070510D01*
X126902349Y-102070510D02*
X126807111Y-102165748D01*
X126807111Y-102165748D02*
X126711873Y-102213367D01*
X126711873Y-102213367D02*
X126521397Y-102213367D01*
X126521397Y-102213367D02*
X126426159Y-102165748D01*
X126426159Y-102165748D02*
X126330921Y-102070510D01*
X126330921Y-102070510D02*
X126283302Y-101880034D01*
X126283302Y-101880034D02*
X126283302Y-101546701D01*
X126283302Y-101546701D02*
X126330921Y-101356225D01*
X126330921Y-101356225D02*
X126426159Y-101260987D01*
X126426159Y-101260987D02*
X126521397Y-101213367D01*
X127283302Y-101213367D02*
X127902349Y-101213367D01*
X127902349Y-101213367D02*
X127569016Y-101594320D01*
X127569016Y-101594320D02*
X127711873Y-101594320D01*
X127711873Y-101594320D02*
X127807111Y-101641939D01*
X127807111Y-101641939D02*
X127854730Y-101689558D01*
X127854730Y-101689558D02*
X127902349Y-101784796D01*
X127902349Y-101784796D02*
X127902349Y-102022891D01*
X127902349Y-102022891D02*
X127854730Y-102118129D01*
X127854730Y-102118129D02*
X127807111Y-102165748D01*
X127807111Y-102165748D02*
X127711873Y-102213367D01*
X127711873Y-102213367D02*
X127426159Y-102213367D01*
X127426159Y-102213367D02*
X127330921Y-102165748D01*
X127330921Y-102165748D02*
X127283302Y-102118129D01*
X128283302Y-101308606D02*
X128330921Y-101260987D01*
X128330921Y-101260987D02*
X128426159Y-101213367D01*
X128426159Y-101213367D02*
X128664254Y-101213367D01*
X128664254Y-101213367D02*
X128759492Y-101260987D01*
X128759492Y-101260987D02*
X128807111Y-101308606D01*
X128807111Y-101308606D02*
X128854730Y-101403844D01*
X128854730Y-101403844D02*
X128854730Y-101499082D01*
X128854730Y-101499082D02*
X128807111Y-101641939D01*
X128807111Y-101641939D02*
X128235683Y-102213367D01*
X128235683Y-102213367D02*
X128854730Y-102213367D01*
X129188064Y-102594320D02*
X129235683Y-102546701D01*
X129235683Y-102546701D02*
X129330921Y-102403844D01*
X129330921Y-102403844D02*
X129378540Y-102308606D01*
X129378540Y-102308606D02*
X129426159Y-102165748D01*
X129426159Y-102165748D02*
X129473778Y-101927653D01*
X129473778Y-101927653D02*
X129473778Y-101737177D01*
X129473778Y-101737177D02*
X129426159Y-101499082D01*
X129426159Y-101499082D02*
X129378540Y-101356225D01*
X129378540Y-101356225D02*
X129330921Y-101260987D01*
X129330921Y-101260987D02*
X129235683Y-101118129D01*
X129235683Y-101118129D02*
X129188064Y-101070510D01*
X116785292Y-51712523D02*
X116213864Y-51712523D01*
X116499578Y-51712523D02*
X116499578Y-50712523D01*
X116499578Y-50712523D02*
X116404340Y-50855381D01*
X116404340Y-50855381D02*
X116309102Y-50950619D01*
X116309102Y-50950619D02*
X116213864Y-50998238D01*
X117166245Y-50807762D02*
X117213864Y-50760143D01*
X117213864Y-50760143D02*
X117309102Y-50712523D01*
X117309102Y-50712523D02*
X117547197Y-50712523D01*
X117547197Y-50712523D02*
X117642435Y-50760143D01*
X117642435Y-50760143D02*
X117690054Y-50807762D01*
X117690054Y-50807762D02*
X117737673Y-50903000D01*
X117737673Y-50903000D02*
X117737673Y-50998238D01*
X117737673Y-50998238D02*
X117690054Y-51141095D01*
X117690054Y-51141095D02*
X117118626Y-51712523D01*
X117118626Y-51712523D02*
X117737673Y-51712523D01*
X118023388Y-50712523D02*
X118356721Y-51712523D01*
X118356721Y-51712523D02*
X118690054Y-50712523D01*
X119623388Y-51712523D02*
X119623388Y-50712523D01*
X120099578Y-51712523D02*
X120099578Y-50712523D01*
X120099578Y-50712523D02*
X120671006Y-51712523D01*
X120671006Y-51712523D02*
X120671006Y-50712523D01*
X121147197Y-51712523D02*
X121147197Y-50712523D01*
X121147197Y-50712523D02*
X121528149Y-50712523D01*
X121528149Y-50712523D02*
X121623387Y-50760143D01*
X121623387Y-50760143D02*
X121671006Y-50807762D01*
X121671006Y-50807762D02*
X121718625Y-50903000D01*
X121718625Y-50903000D02*
X121718625Y-51045857D01*
X121718625Y-51045857D02*
X121671006Y-51141095D01*
X121671006Y-51141095D02*
X121623387Y-51188714D01*
X121623387Y-51188714D02*
X121528149Y-51236333D01*
X121528149Y-51236333D02*
X121147197Y-51236333D01*
X122147197Y-50712523D02*
X122147197Y-51522047D01*
X122147197Y-51522047D02*
X122194816Y-51617285D01*
X122194816Y-51617285D02*
X122242435Y-51664904D01*
X122242435Y-51664904D02*
X122337673Y-51712523D01*
X122337673Y-51712523D02*
X122528149Y-51712523D01*
X122528149Y-51712523D02*
X122623387Y-51664904D01*
X122623387Y-51664904D02*
X122671006Y-51617285D01*
X122671006Y-51617285D02*
X122718625Y-51522047D01*
X122718625Y-51522047D02*
X122718625Y-50712523D01*
X123051959Y-50712523D02*
X123623387Y-50712523D01*
X123337673Y-51712523D02*
X123337673Y-50712523D01*
X152999190Y-53212648D02*
X152665857Y-52736458D01*
X152427762Y-53212648D02*
X152427762Y-52212648D01*
X152427762Y-52212648D02*
X152808714Y-52212648D01*
X152808714Y-52212648D02*
X152903952Y-52260268D01*
X152903952Y-52260268D02*
X152951571Y-52307887D01*
X152951571Y-52307887D02*
X152999190Y-52403125D01*
X152999190Y-52403125D02*
X152999190Y-52545982D01*
X152999190Y-52545982D02*
X152951571Y-52641220D01*
X152951571Y-52641220D02*
X152903952Y-52688839D01*
X152903952Y-52688839D02*
X152808714Y-52736458D01*
X152808714Y-52736458D02*
X152427762Y-52736458D01*
X153427762Y-52688839D02*
X153761095Y-52688839D01*
X153903952Y-53212648D02*
X153427762Y-53212648D01*
X153427762Y-53212648D02*
X153427762Y-52212648D01*
X153427762Y-52212648D02*
X153903952Y-52212648D01*
X154332524Y-52688839D02*
X154665857Y-52688839D01*
X154808714Y-53212648D02*
X154332524Y-53212648D01*
X154332524Y-53212648D02*
X154332524Y-52212648D01*
X154332524Y-52212648D02*
X154808714Y-52212648D01*
X155237286Y-53212648D02*
X155237286Y-52212648D01*
X155237286Y-52212648D02*
X155475381Y-52212648D01*
X155475381Y-52212648D02*
X155618238Y-52260268D01*
X155618238Y-52260268D02*
X155713476Y-52355506D01*
X155713476Y-52355506D02*
X155761095Y-52450744D01*
X155761095Y-52450744D02*
X155808714Y-52641220D01*
X155808714Y-52641220D02*
X155808714Y-52784077D01*
X155808714Y-52784077D02*
X155761095Y-52974553D01*
X155761095Y-52974553D02*
X155713476Y-53069791D01*
X155713476Y-53069791D02*
X155618238Y-53165029D01*
X155618238Y-53165029D02*
X155475381Y-53212648D01*
X155475381Y-53212648D02*
X155237286Y-53212648D01*
X156789667Y-53165029D02*
X156932524Y-53212648D01*
X156932524Y-53212648D02*
X157170619Y-53212648D01*
X157170619Y-53212648D02*
X157265857Y-53165029D01*
X157265857Y-53165029D02*
X157313476Y-53117410D01*
X157313476Y-53117410D02*
X157361095Y-53022172D01*
X157361095Y-53022172D02*
X157361095Y-52926934D01*
X157361095Y-52926934D02*
X157313476Y-52831696D01*
X157313476Y-52831696D02*
X157265857Y-52784077D01*
X157265857Y-52784077D02*
X157170619Y-52736458D01*
X157170619Y-52736458D02*
X156980143Y-52688839D01*
X156980143Y-52688839D02*
X156884905Y-52641220D01*
X156884905Y-52641220D02*
X156837286Y-52593601D01*
X156837286Y-52593601D02*
X156789667Y-52498363D01*
X156789667Y-52498363D02*
X156789667Y-52403125D01*
X156789667Y-52403125D02*
X156837286Y-52307887D01*
X156837286Y-52307887D02*
X156884905Y-52260268D01*
X156884905Y-52260268D02*
X156980143Y-52212648D01*
X156980143Y-52212648D02*
X157218238Y-52212648D01*
X157218238Y-52212648D02*
X157361095Y-52260268D01*
X157694429Y-52212648D02*
X157932524Y-53212648D01*
X157932524Y-53212648D02*
X158123000Y-52498363D01*
X158123000Y-52498363D02*
X158313476Y-53212648D01*
X158313476Y-53212648D02*
X158551572Y-52212648D01*
X158932524Y-53212648D02*
X158932524Y-52212648D01*
X159265857Y-52212648D02*
X159837285Y-52212648D01*
X159551571Y-53212648D02*
X159551571Y-52212648D01*
X160742047Y-53117410D02*
X160694428Y-53165029D01*
X160694428Y-53165029D02*
X160551571Y-53212648D01*
X160551571Y-53212648D02*
X160456333Y-53212648D01*
X160456333Y-53212648D02*
X160313476Y-53165029D01*
X160313476Y-53165029D02*
X160218238Y-53069791D01*
X160218238Y-53069791D02*
X160170619Y-52974553D01*
X160170619Y-52974553D02*
X160123000Y-52784077D01*
X160123000Y-52784077D02*
X160123000Y-52641220D01*
X160123000Y-52641220D02*
X160170619Y-52450744D01*
X160170619Y-52450744D02*
X160218238Y-52355506D01*
X160218238Y-52355506D02*
X160313476Y-52260268D01*
X160313476Y-52260268D02*
X160456333Y-52212648D01*
X160456333Y-52212648D02*
X160551571Y-52212648D01*
X160551571Y-52212648D02*
X160694428Y-52260268D01*
X160694428Y-52260268D02*
X160742047Y-52307887D01*
X161170619Y-53212648D02*
X161170619Y-52212648D01*
X161170619Y-52688839D02*
X161742047Y-52688839D01*
X161742047Y-53212648D02*
X161742047Y-52212648D01*
X162723000Y-52212648D02*
X163342047Y-52212648D01*
X163342047Y-52212648D02*
X163008714Y-52593601D01*
X163008714Y-52593601D02*
X163151571Y-52593601D01*
X163151571Y-52593601D02*
X163246809Y-52641220D01*
X163246809Y-52641220D02*
X163294428Y-52688839D01*
X163294428Y-52688839D02*
X163342047Y-52784077D01*
X163342047Y-52784077D02*
X163342047Y-53022172D01*
X163342047Y-53022172D02*
X163294428Y-53117410D01*
X163294428Y-53117410D02*
X163246809Y-53165029D01*
X163246809Y-53165029D02*
X163151571Y-53212648D01*
X163151571Y-53212648D02*
X162865857Y-53212648D01*
X162865857Y-53212648D02*
X162770619Y-53165029D01*
X162770619Y-53165029D02*
X162723000Y-53117410D01*
X162798095Y-106970138D02*
X162798095Y-105970138D01*
X163369523Y-106970138D02*
X162940952Y-106398710D01*
X163369523Y-105970138D02*
X162798095Y-106541567D01*
X162205204Y-74301590D02*
X161729014Y-74301590D01*
X161729014Y-74301590D02*
X161729014Y-73301590D01*
X162538538Y-73777781D02*
X162871871Y-73777781D01*
X163014728Y-74301590D02*
X162538538Y-74301590D01*
X162538538Y-74301590D02*
X162538538Y-73301590D01*
X162538538Y-73301590D02*
X163014728Y-73301590D01*
X163443300Y-74301590D02*
X163443300Y-73301590D01*
X163443300Y-73301590D02*
X163681395Y-73301590D01*
X163681395Y-73301590D02*
X163824252Y-73349210D01*
X163824252Y-73349210D02*
X163919490Y-73444448D01*
X163919490Y-73444448D02*
X163967109Y-73539686D01*
X163967109Y-73539686D02*
X164014728Y-73730162D01*
X164014728Y-73730162D02*
X164014728Y-73873019D01*
X164014728Y-73873019D02*
X163967109Y-74063495D01*
X163967109Y-74063495D02*
X163919490Y-74158733D01*
X163919490Y-74158733D02*
X163824252Y-74253971D01*
X163824252Y-74253971D02*
X163681395Y-74301590D01*
X163681395Y-74301590D02*
X163443300Y-74301590D01*
X164948062Y-73301590D02*
X165567109Y-73301590D01*
X165567109Y-73301590D02*
X165233776Y-73682543D01*
X165233776Y-73682543D02*
X165376633Y-73682543D01*
X165376633Y-73682543D02*
X165471871Y-73730162D01*
X165471871Y-73730162D02*
X165519490Y-73777781D01*
X165519490Y-73777781D02*
X165567109Y-73873019D01*
X165567109Y-73873019D02*
X165567109Y-74111114D01*
X165567109Y-74111114D02*
X165519490Y-74206352D01*
X165519490Y-74206352D02*
X165471871Y-74253971D01*
X165471871Y-74253971D02*
X165376633Y-74301590D01*
X165376633Y-74301590D02*
X165090919Y-74301590D01*
X165090919Y-74301590D02*
X164995681Y-74253971D01*
X164995681Y-74253971D02*
X164948062Y-74206352D01*
X166881395Y-74682543D02*
X166833776Y-74634924D01*
X166833776Y-74634924D02*
X166738538Y-74492067D01*
X166738538Y-74492067D02*
X166690919Y-74396829D01*
X166690919Y-74396829D02*
X166643300Y-74253971D01*
X166643300Y-74253971D02*
X166595681Y-74015876D01*
X166595681Y-74015876D02*
X166595681Y-73825400D01*
X166595681Y-73825400D02*
X166643300Y-73587305D01*
X166643300Y-73587305D02*
X166690919Y-73444448D01*
X166690919Y-73444448D02*
X166738538Y-73349210D01*
X166738538Y-73349210D02*
X166833776Y-73206352D01*
X166833776Y-73206352D02*
X166881395Y-73158733D01*
X167786157Y-73349210D02*
X167690919Y-73301590D01*
X167690919Y-73301590D02*
X167548062Y-73301590D01*
X167548062Y-73301590D02*
X167405205Y-73349210D01*
X167405205Y-73349210D02*
X167309967Y-73444448D01*
X167309967Y-73444448D02*
X167262348Y-73539686D01*
X167262348Y-73539686D02*
X167214729Y-73730162D01*
X167214729Y-73730162D02*
X167214729Y-73873019D01*
X167214729Y-73873019D02*
X167262348Y-74063495D01*
X167262348Y-74063495D02*
X167309967Y-74158733D01*
X167309967Y-74158733D02*
X167405205Y-74253971D01*
X167405205Y-74253971D02*
X167548062Y-74301590D01*
X167548062Y-74301590D02*
X167643300Y-74301590D01*
X167643300Y-74301590D02*
X167786157Y-74253971D01*
X167786157Y-74253971D02*
X167833776Y-74206352D01*
X167833776Y-74206352D02*
X167833776Y-73873019D01*
X167833776Y-73873019D02*
X167643300Y-73873019D01*
X168262348Y-74301590D02*
X168262348Y-73301590D01*
X168262348Y-73301590D02*
X168643300Y-73301590D01*
X168643300Y-73301590D02*
X168738538Y-73349210D01*
X168738538Y-73349210D02*
X168786157Y-73396829D01*
X168786157Y-73396829D02*
X168833776Y-73492067D01*
X168833776Y-73492067D02*
X168833776Y-73634924D01*
X168833776Y-73634924D02*
X168786157Y-73730162D01*
X168786157Y-73730162D02*
X168738538Y-73777781D01*
X168738538Y-73777781D02*
X168643300Y-73825400D01*
X168643300Y-73825400D02*
X168262348Y-73825400D01*
X169262348Y-74301590D02*
X169262348Y-73301590D01*
X169929014Y-73301590D02*
X170119490Y-73301590D01*
X170119490Y-73301590D02*
X170214728Y-73349210D01*
X170214728Y-73349210D02*
X170309966Y-73444448D01*
X170309966Y-73444448D02*
X170357585Y-73634924D01*
X170357585Y-73634924D02*
X170357585Y-73968257D01*
X170357585Y-73968257D02*
X170309966Y-74158733D01*
X170309966Y-74158733D02*
X170214728Y-74253971D01*
X170214728Y-74253971D02*
X170119490Y-74301590D01*
X170119490Y-74301590D02*
X169929014Y-74301590D01*
X169929014Y-74301590D02*
X169833776Y-74253971D01*
X169833776Y-74253971D02*
X169738538Y-74158733D01*
X169738538Y-74158733D02*
X169690919Y-73968257D01*
X169690919Y-73968257D02*
X169690919Y-73634924D01*
X169690919Y-73634924D02*
X169738538Y-73444448D01*
X169738538Y-73444448D02*
X169833776Y-73349210D01*
X169833776Y-73349210D02*
X169929014Y-73301590D01*
X171309966Y-74301590D02*
X170738538Y-74301590D01*
X171024252Y-74301590D02*
X171024252Y-73301590D01*
X171024252Y-73301590D02*
X170929014Y-73444448D01*
X170929014Y-73444448D02*
X170833776Y-73539686D01*
X170833776Y-73539686D02*
X170738538Y-73587305D01*
X171643300Y-73301590D02*
X172262347Y-73301590D01*
X172262347Y-73301590D02*
X171929014Y-73682543D01*
X171929014Y-73682543D02*
X172071871Y-73682543D01*
X172071871Y-73682543D02*
X172167109Y-73730162D01*
X172167109Y-73730162D02*
X172214728Y-73777781D01*
X172214728Y-73777781D02*
X172262347Y-73873019D01*
X172262347Y-73873019D02*
X172262347Y-74111114D01*
X172262347Y-74111114D02*
X172214728Y-74206352D01*
X172214728Y-74206352D02*
X172167109Y-74253971D01*
X172167109Y-74253971D02*
X172071871Y-74301590D01*
X172071871Y-74301590D02*
X171786157Y-74301590D01*
X171786157Y-74301590D02*
X171690919Y-74253971D01*
X171690919Y-74253971D02*
X171643300Y-74206352D01*
X172595681Y-74682543D02*
X172643300Y-74634924D01*
X172643300Y-74634924D02*
X172738538Y-74492067D01*
X172738538Y-74492067D02*
X172786157Y-74396829D01*
X172786157Y-74396829D02*
X172833776Y-74253971D01*
X172833776Y-74253971D02*
X172881395Y-74015876D01*
X172881395Y-74015876D02*
X172881395Y-73825400D01*
X172881395Y-73825400D02*
X172833776Y-73587305D01*
X172833776Y-73587305D02*
X172786157Y-73444448D01*
X172786157Y-73444448D02*
X172738538Y-73349210D01*
X172738538Y-73349210D02*
X172643300Y-73206352D01*
X172643300Y-73206352D02*
X172595681Y-73158733D01*
X140135961Y-53212648D02*
X139802628Y-52736458D01*
X139564533Y-53212648D02*
X139564533Y-52212648D01*
X139564533Y-52212648D02*
X139945485Y-52212648D01*
X139945485Y-52212648D02*
X140040723Y-52260268D01*
X140040723Y-52260268D02*
X140088342Y-52307887D01*
X140088342Y-52307887D02*
X140135961Y-52403125D01*
X140135961Y-52403125D02*
X140135961Y-52545982D01*
X140135961Y-52545982D02*
X140088342Y-52641220D01*
X140088342Y-52641220D02*
X140040723Y-52688839D01*
X140040723Y-52688839D02*
X139945485Y-52736458D01*
X139945485Y-52736458D02*
X139564533Y-52736458D01*
X140564533Y-52688839D02*
X140897866Y-52688839D01*
X141040723Y-53212648D02*
X140564533Y-53212648D01*
X140564533Y-53212648D02*
X140564533Y-52212648D01*
X140564533Y-52212648D02*
X141040723Y-52212648D01*
X141469295Y-52688839D02*
X141802628Y-52688839D01*
X141945485Y-53212648D02*
X141469295Y-53212648D01*
X141469295Y-53212648D02*
X141469295Y-52212648D01*
X141469295Y-52212648D02*
X141945485Y-52212648D01*
X142374057Y-53212648D02*
X142374057Y-52212648D01*
X142374057Y-52212648D02*
X142612152Y-52212648D01*
X142612152Y-52212648D02*
X142755009Y-52260268D01*
X142755009Y-52260268D02*
X142850247Y-52355506D01*
X142850247Y-52355506D02*
X142897866Y-52450744D01*
X142897866Y-52450744D02*
X142945485Y-52641220D01*
X142945485Y-52641220D02*
X142945485Y-52784077D01*
X142945485Y-52784077D02*
X142897866Y-52974553D01*
X142897866Y-52974553D02*
X142850247Y-53069791D01*
X142850247Y-53069791D02*
X142755009Y-53165029D01*
X142755009Y-53165029D02*
X142612152Y-53212648D01*
X142612152Y-53212648D02*
X142374057Y-53212648D01*
X143926438Y-53165029D02*
X144069295Y-53212648D01*
X144069295Y-53212648D02*
X144307390Y-53212648D01*
X144307390Y-53212648D02*
X144402628Y-53165029D01*
X144402628Y-53165029D02*
X144450247Y-53117410D01*
X144450247Y-53117410D02*
X144497866Y-53022172D01*
X144497866Y-53022172D02*
X144497866Y-52926934D01*
X144497866Y-52926934D02*
X144450247Y-52831696D01*
X144450247Y-52831696D02*
X144402628Y-52784077D01*
X144402628Y-52784077D02*
X144307390Y-52736458D01*
X144307390Y-52736458D02*
X144116914Y-52688839D01*
X144116914Y-52688839D02*
X144021676Y-52641220D01*
X144021676Y-52641220D02*
X143974057Y-52593601D01*
X143974057Y-52593601D02*
X143926438Y-52498363D01*
X143926438Y-52498363D02*
X143926438Y-52403125D01*
X143926438Y-52403125D02*
X143974057Y-52307887D01*
X143974057Y-52307887D02*
X144021676Y-52260268D01*
X144021676Y-52260268D02*
X144116914Y-52212648D01*
X144116914Y-52212648D02*
X144355009Y-52212648D01*
X144355009Y-52212648D02*
X144497866Y-52260268D01*
X144831200Y-52212648D02*
X145069295Y-53212648D01*
X145069295Y-53212648D02*
X145259771Y-52498363D01*
X145259771Y-52498363D02*
X145450247Y-53212648D01*
X145450247Y-53212648D02*
X145688343Y-52212648D01*
X146069295Y-53212648D02*
X146069295Y-52212648D01*
X146402628Y-52212648D02*
X146974056Y-52212648D01*
X146688342Y-53212648D02*
X146688342Y-52212648D01*
X147878818Y-53117410D02*
X147831199Y-53165029D01*
X147831199Y-53165029D02*
X147688342Y-53212648D01*
X147688342Y-53212648D02*
X147593104Y-53212648D01*
X147593104Y-53212648D02*
X147450247Y-53165029D01*
X147450247Y-53165029D02*
X147355009Y-53069791D01*
X147355009Y-53069791D02*
X147307390Y-52974553D01*
X147307390Y-52974553D02*
X147259771Y-52784077D01*
X147259771Y-52784077D02*
X147259771Y-52641220D01*
X147259771Y-52641220D02*
X147307390Y-52450744D01*
X147307390Y-52450744D02*
X147355009Y-52355506D01*
X147355009Y-52355506D02*
X147450247Y-52260268D01*
X147450247Y-52260268D02*
X147593104Y-52212648D01*
X147593104Y-52212648D02*
X147688342Y-52212648D01*
X147688342Y-52212648D02*
X147831199Y-52260268D01*
X147831199Y-52260268D02*
X147878818Y-52307887D01*
X148307390Y-53212648D02*
X148307390Y-52212648D01*
X148307390Y-52688839D02*
X148878818Y-52688839D01*
X148878818Y-53212648D02*
X148878818Y-52212648D01*
X149907390Y-52307887D02*
X149955009Y-52260268D01*
X149955009Y-52260268D02*
X150050247Y-52212648D01*
X150050247Y-52212648D02*
X150288342Y-52212648D01*
X150288342Y-52212648D02*
X150383580Y-52260268D01*
X150383580Y-52260268D02*
X150431199Y-52307887D01*
X150431199Y-52307887D02*
X150478818Y-52403125D01*
X150478818Y-52403125D02*
X150478818Y-52498363D01*
X150478818Y-52498363D02*
X150431199Y-52641220D01*
X150431199Y-52641220D02*
X149859771Y-53212648D01*
X149859771Y-53212648D02*
X150478818Y-53212648D01*
X162205204Y-59874390D02*
X161729014Y-59874390D01*
X161729014Y-59874390D02*
X161729014Y-58874390D01*
X162538538Y-59350581D02*
X162871871Y-59350581D01*
X163014728Y-59874390D02*
X162538538Y-59874390D01*
X162538538Y-59874390D02*
X162538538Y-58874390D01*
X162538538Y-58874390D02*
X163014728Y-58874390D01*
X163443300Y-59874390D02*
X163443300Y-58874390D01*
X163443300Y-58874390D02*
X163681395Y-58874390D01*
X163681395Y-58874390D02*
X163824252Y-58922010D01*
X163824252Y-58922010D02*
X163919490Y-59017248D01*
X163919490Y-59017248D02*
X163967109Y-59112486D01*
X163967109Y-59112486D02*
X164014728Y-59302962D01*
X164014728Y-59302962D02*
X164014728Y-59445819D01*
X164014728Y-59445819D02*
X163967109Y-59636295D01*
X163967109Y-59636295D02*
X163919490Y-59731533D01*
X163919490Y-59731533D02*
X163824252Y-59826771D01*
X163824252Y-59826771D02*
X163681395Y-59874390D01*
X163681395Y-59874390D02*
X163443300Y-59874390D01*
X165471871Y-59207724D02*
X165471871Y-59874390D01*
X165233776Y-58826771D02*
X164995681Y-59541057D01*
X164995681Y-59541057D02*
X165614728Y-59541057D01*
X166881395Y-60255343D02*
X166833776Y-60207724D01*
X166833776Y-60207724D02*
X166738538Y-60064867D01*
X166738538Y-60064867D02*
X166690919Y-59969629D01*
X166690919Y-59969629D02*
X166643300Y-59826771D01*
X166643300Y-59826771D02*
X166595681Y-59588676D01*
X166595681Y-59588676D02*
X166595681Y-59398200D01*
X166595681Y-59398200D02*
X166643300Y-59160105D01*
X166643300Y-59160105D02*
X166690919Y-59017248D01*
X166690919Y-59017248D02*
X166738538Y-58922010D01*
X166738538Y-58922010D02*
X166833776Y-58779152D01*
X166833776Y-58779152D02*
X166881395Y-58731533D01*
X167786157Y-58922010D02*
X167690919Y-58874390D01*
X167690919Y-58874390D02*
X167548062Y-58874390D01*
X167548062Y-58874390D02*
X167405205Y-58922010D01*
X167405205Y-58922010D02*
X167309967Y-59017248D01*
X167309967Y-59017248D02*
X167262348Y-59112486D01*
X167262348Y-59112486D02*
X167214729Y-59302962D01*
X167214729Y-59302962D02*
X167214729Y-59445819D01*
X167214729Y-59445819D02*
X167262348Y-59636295D01*
X167262348Y-59636295D02*
X167309967Y-59731533D01*
X167309967Y-59731533D02*
X167405205Y-59826771D01*
X167405205Y-59826771D02*
X167548062Y-59874390D01*
X167548062Y-59874390D02*
X167643300Y-59874390D01*
X167643300Y-59874390D02*
X167786157Y-59826771D01*
X167786157Y-59826771D02*
X167833776Y-59779152D01*
X167833776Y-59779152D02*
X167833776Y-59445819D01*
X167833776Y-59445819D02*
X167643300Y-59445819D01*
X168262348Y-59874390D02*
X168262348Y-58874390D01*
X168262348Y-58874390D02*
X168643300Y-58874390D01*
X168643300Y-58874390D02*
X168738538Y-58922010D01*
X168738538Y-58922010D02*
X168786157Y-58969629D01*
X168786157Y-58969629D02*
X168833776Y-59064867D01*
X168833776Y-59064867D02*
X168833776Y-59207724D01*
X168833776Y-59207724D02*
X168786157Y-59302962D01*
X168786157Y-59302962D02*
X168738538Y-59350581D01*
X168738538Y-59350581D02*
X168643300Y-59398200D01*
X168643300Y-59398200D02*
X168262348Y-59398200D01*
X169262348Y-59874390D02*
X169262348Y-58874390D01*
X169929014Y-58874390D02*
X170119490Y-58874390D01*
X170119490Y-58874390D02*
X170214728Y-58922010D01*
X170214728Y-58922010D02*
X170309966Y-59017248D01*
X170309966Y-59017248D02*
X170357585Y-59207724D01*
X170357585Y-59207724D02*
X170357585Y-59541057D01*
X170357585Y-59541057D02*
X170309966Y-59731533D01*
X170309966Y-59731533D02*
X170214728Y-59826771D01*
X170214728Y-59826771D02*
X170119490Y-59874390D01*
X170119490Y-59874390D02*
X169929014Y-59874390D01*
X169929014Y-59874390D02*
X169833776Y-59826771D01*
X169833776Y-59826771D02*
X169738538Y-59731533D01*
X169738538Y-59731533D02*
X169690919Y-59541057D01*
X169690919Y-59541057D02*
X169690919Y-59207724D01*
X169690919Y-59207724D02*
X169738538Y-59017248D01*
X169738538Y-59017248D02*
X169833776Y-58922010D01*
X169833776Y-58922010D02*
X169929014Y-58874390D01*
X171309966Y-59874390D02*
X170738538Y-59874390D01*
X171024252Y-59874390D02*
X171024252Y-58874390D01*
X171024252Y-58874390D02*
X170929014Y-59017248D01*
X170929014Y-59017248D02*
X170833776Y-59112486D01*
X170833776Y-59112486D02*
X170738538Y-59160105D01*
X172167109Y-59207724D02*
X172167109Y-59874390D01*
X171929014Y-58826771D02*
X171690919Y-59541057D01*
X171690919Y-59541057D02*
X172309966Y-59541057D01*
X172595681Y-60255343D02*
X172643300Y-60207724D01*
X172643300Y-60207724D02*
X172738538Y-60064867D01*
X172738538Y-60064867D02*
X172786157Y-59969629D01*
X172786157Y-59969629D02*
X172833776Y-59826771D01*
X172833776Y-59826771D02*
X172881395Y-59588676D01*
X172881395Y-59588676D02*
X172881395Y-59398200D01*
X172881395Y-59398200D02*
X172833776Y-59160105D01*
X172833776Y-59160105D02*
X172786157Y-59017248D01*
X172786157Y-59017248D02*
X172738538Y-58922010D01*
X172738538Y-58922010D02*
X172643300Y-58779152D01*
X172643300Y-58779152D02*
X172595681Y-58731533D01*
X125711873Y-86439879D02*
X125140445Y-86439879D01*
X125426159Y-86439879D02*
X125426159Y-85439879D01*
X125426159Y-85439879D02*
X125330921Y-85582737D01*
X125330921Y-85582737D02*
X125235683Y-85677975D01*
X125235683Y-85677975D02*
X125140445Y-85725594D01*
X126092826Y-85535118D02*
X126140445Y-85487499D01*
X126140445Y-85487499D02*
X126235683Y-85439879D01*
X126235683Y-85439879D02*
X126473778Y-85439879D01*
X126473778Y-85439879D02*
X126569016Y-85487499D01*
X126569016Y-85487499D02*
X126616635Y-85535118D01*
X126616635Y-85535118D02*
X126664254Y-85630356D01*
X126664254Y-85630356D02*
X126664254Y-85725594D01*
X126664254Y-85725594D02*
X126616635Y-85868451D01*
X126616635Y-85868451D02*
X126045207Y-86439879D01*
X126045207Y-86439879D02*
X126664254Y-86439879D01*
X126949969Y-85439879D02*
X127283302Y-86439879D01*
X127283302Y-86439879D02*
X127616635Y-85439879D01*
X127949969Y-86058927D02*
X128711874Y-86058927D01*
X128330921Y-86439879D02*
X128330921Y-85677975D01*
X125140445Y-95610880D02*
X125283302Y-95658499D01*
X125283302Y-95658499D02*
X125521397Y-95658499D01*
X125521397Y-95658499D02*
X125616635Y-95610880D01*
X125616635Y-95610880D02*
X125664254Y-95563261D01*
X125664254Y-95563261D02*
X125711873Y-95468023D01*
X125711873Y-95468023D02*
X125711873Y-95372785D01*
X125711873Y-95372785D02*
X125664254Y-95277547D01*
X125664254Y-95277547D02*
X125616635Y-95229928D01*
X125616635Y-95229928D02*
X125521397Y-95182309D01*
X125521397Y-95182309D02*
X125330921Y-95134690D01*
X125330921Y-95134690D02*
X125235683Y-95087071D01*
X125235683Y-95087071D02*
X125188064Y-95039452D01*
X125188064Y-95039452D02*
X125140445Y-94944214D01*
X125140445Y-94944214D02*
X125140445Y-94848976D01*
X125140445Y-94848976D02*
X125188064Y-94753738D01*
X125188064Y-94753738D02*
X125235683Y-94706119D01*
X125235683Y-94706119D02*
X125330921Y-94658499D01*
X125330921Y-94658499D02*
X125569016Y-94658499D01*
X125569016Y-94658499D02*
X125711873Y-94706119D01*
X126711873Y-95563261D02*
X126664254Y-95610880D01*
X126664254Y-95610880D02*
X126521397Y-95658499D01*
X126521397Y-95658499D02*
X126426159Y-95658499D01*
X126426159Y-95658499D02*
X126283302Y-95610880D01*
X126283302Y-95610880D02*
X126188064Y-95515642D01*
X126188064Y-95515642D02*
X126140445Y-95420404D01*
X126140445Y-95420404D02*
X126092826Y-95229928D01*
X126092826Y-95229928D02*
X126092826Y-95087071D01*
X126092826Y-95087071D02*
X126140445Y-94896595D01*
X126140445Y-94896595D02*
X126188064Y-94801357D01*
X126188064Y-94801357D02*
X126283302Y-94706119D01*
X126283302Y-94706119D02*
X126426159Y-94658499D01*
X126426159Y-94658499D02*
X126521397Y-94658499D01*
X126521397Y-94658499D02*
X126664254Y-94706119D01*
X126664254Y-94706119D02*
X126711873Y-94753738D01*
X127616635Y-95658499D02*
X127140445Y-95658499D01*
X127140445Y-95658499D02*
X127140445Y-94658499D01*
X125473778Y-97659452D02*
X125426159Y-97611833D01*
X125426159Y-97611833D02*
X125330921Y-97468976D01*
X125330921Y-97468976D02*
X125283302Y-97373738D01*
X125283302Y-97373738D02*
X125235683Y-97230880D01*
X125235683Y-97230880D02*
X125188064Y-96992785D01*
X125188064Y-96992785D02*
X125188064Y-96802309D01*
X125188064Y-96802309D02*
X125235683Y-96564214D01*
X125235683Y-96564214D02*
X125283302Y-96421357D01*
X125283302Y-96421357D02*
X125330921Y-96326119D01*
X125330921Y-96326119D02*
X125426159Y-96183261D01*
X125426159Y-96183261D02*
X125473778Y-96135642D01*
X125854731Y-97278499D02*
X125854731Y-96278499D01*
X126521397Y-96278499D02*
X126711873Y-96278499D01*
X126711873Y-96278499D02*
X126807111Y-96326119D01*
X126807111Y-96326119D02*
X126902349Y-96421357D01*
X126902349Y-96421357D02*
X126949968Y-96611833D01*
X126949968Y-96611833D02*
X126949968Y-96945166D01*
X126949968Y-96945166D02*
X126902349Y-97135642D01*
X126902349Y-97135642D02*
X126807111Y-97230880D01*
X126807111Y-97230880D02*
X126711873Y-97278499D01*
X126711873Y-97278499D02*
X126521397Y-97278499D01*
X126521397Y-97278499D02*
X126426159Y-97230880D01*
X126426159Y-97230880D02*
X126330921Y-97135642D01*
X126330921Y-97135642D02*
X126283302Y-96945166D01*
X126283302Y-96945166D02*
X126283302Y-96611833D01*
X126283302Y-96611833D02*
X126330921Y-96421357D01*
X126330921Y-96421357D02*
X126426159Y-96326119D01*
X126426159Y-96326119D02*
X126521397Y-96278499D01*
X127283302Y-96278499D02*
X127902349Y-96278499D01*
X127902349Y-96278499D02*
X127569016Y-96659452D01*
X127569016Y-96659452D02*
X127711873Y-96659452D01*
X127711873Y-96659452D02*
X127807111Y-96707071D01*
X127807111Y-96707071D02*
X127854730Y-96754690D01*
X127854730Y-96754690D02*
X127902349Y-96849928D01*
X127902349Y-96849928D02*
X127902349Y-97088023D01*
X127902349Y-97088023D02*
X127854730Y-97183261D01*
X127854730Y-97183261D02*
X127807111Y-97230880D01*
X127807111Y-97230880D02*
X127711873Y-97278499D01*
X127711873Y-97278499D02*
X127426159Y-97278499D01*
X127426159Y-97278499D02*
X127330921Y-97230880D01*
X127330921Y-97230880D02*
X127283302Y-97183261D01*
X128235683Y-96278499D02*
X128854730Y-96278499D01*
X128854730Y-96278499D02*
X128521397Y-96659452D01*
X128521397Y-96659452D02*
X128664254Y-96659452D01*
X128664254Y-96659452D02*
X128759492Y-96707071D01*
X128759492Y-96707071D02*
X128807111Y-96754690D01*
X128807111Y-96754690D02*
X128854730Y-96849928D01*
X128854730Y-96849928D02*
X128854730Y-97088023D01*
X128854730Y-97088023D02*
X128807111Y-97183261D01*
X128807111Y-97183261D02*
X128759492Y-97230880D01*
X128759492Y-97230880D02*
X128664254Y-97278499D01*
X128664254Y-97278499D02*
X128378540Y-97278499D01*
X128378540Y-97278499D02*
X128283302Y-97230880D01*
X128283302Y-97230880D02*
X128235683Y-97183261D01*
X129188064Y-97659452D02*
X129235683Y-97611833D01*
X129235683Y-97611833D02*
X129330921Y-97468976D01*
X129330921Y-97468976D02*
X129378540Y-97373738D01*
X129378540Y-97373738D02*
X129426159Y-97230880D01*
X129426159Y-97230880D02*
X129473778Y-96992785D01*
X129473778Y-96992785D02*
X129473778Y-96802309D01*
X129473778Y-96802309D02*
X129426159Y-96564214D01*
X129426159Y-96564214D02*
X129378540Y-96421357D01*
X129378540Y-96421357D02*
X129330921Y-96326119D01*
X129330921Y-96326119D02*
X129235683Y-96183261D01*
X129235683Y-96183261D02*
X129188064Y-96135642D01*
X162798095Y-64425742D02*
X162798095Y-63425742D01*
X163369523Y-64425742D02*
X162940952Y-63854314D01*
X163369523Y-63425742D02*
X162798095Y-63997171D01*
X125711873Y-55194844D02*
X125616635Y-55147224D01*
X125616635Y-55147224D02*
X125473778Y-55147224D01*
X125473778Y-55147224D02*
X125330921Y-55194844D01*
X125330921Y-55194844D02*
X125235683Y-55290082D01*
X125235683Y-55290082D02*
X125188064Y-55385320D01*
X125188064Y-55385320D02*
X125140445Y-55575796D01*
X125140445Y-55575796D02*
X125140445Y-55718653D01*
X125140445Y-55718653D02*
X125188064Y-55909129D01*
X125188064Y-55909129D02*
X125235683Y-56004367D01*
X125235683Y-56004367D02*
X125330921Y-56099605D01*
X125330921Y-56099605D02*
X125473778Y-56147224D01*
X125473778Y-56147224D02*
X125569016Y-56147224D01*
X125569016Y-56147224D02*
X125711873Y-56099605D01*
X125711873Y-56099605D02*
X125759492Y-56051986D01*
X125759492Y-56051986D02*
X125759492Y-55718653D01*
X125759492Y-55718653D02*
X125569016Y-55718653D01*
X126188064Y-56147224D02*
X126188064Y-55147224D01*
X126188064Y-55147224D02*
X126759492Y-56147224D01*
X126759492Y-56147224D02*
X126759492Y-55147224D01*
X127235683Y-56147224D02*
X127235683Y-55147224D01*
X127235683Y-55147224D02*
X127473778Y-55147224D01*
X127473778Y-55147224D02*
X127616635Y-55194844D01*
X127616635Y-55194844D02*
X127711873Y-55290082D01*
X127711873Y-55290082D02*
X127759492Y-55385320D01*
X127759492Y-55385320D02*
X127807111Y-55575796D01*
X127807111Y-55575796D02*
X127807111Y-55718653D01*
X127807111Y-55718653D02*
X127759492Y-55909129D01*
X127759492Y-55909129D02*
X127711873Y-56004367D01*
X127711873Y-56004367D02*
X127616635Y-56099605D01*
X127616635Y-56099605D02*
X127473778Y-56147224D01*
X127473778Y-56147224D02*
X127235683Y-56147224D01*
X165112023Y-56801246D02*
X165112023Y-56467913D01*
X165635832Y-56325056D02*
X165635832Y-56801246D01*
X165635832Y-56801246D02*
X164635832Y-56801246D01*
X164635832Y-56801246D02*
X164635832Y-56325056D01*
X165588213Y-55944103D02*
X165635832Y-55801246D01*
X165635832Y-55801246D02*
X165635832Y-55563151D01*
X165635832Y-55563151D02*
X165588213Y-55467913D01*
X165588213Y-55467913D02*
X165540594Y-55420294D01*
X165540594Y-55420294D02*
X165445356Y-55372675D01*
X165445356Y-55372675D02*
X165350118Y-55372675D01*
X165350118Y-55372675D02*
X165254880Y-55420294D01*
X165254880Y-55420294D02*
X165207261Y-55467913D01*
X165207261Y-55467913D02*
X165159642Y-55563151D01*
X165159642Y-55563151D02*
X165112023Y-55753627D01*
X165112023Y-55753627D02*
X165064404Y-55848865D01*
X165064404Y-55848865D02*
X165016785Y-55896484D01*
X165016785Y-55896484D02*
X164921547Y-55944103D01*
X164921547Y-55944103D02*
X164826309Y-55944103D01*
X164826309Y-55944103D02*
X164731071Y-55896484D01*
X164731071Y-55896484D02*
X164683452Y-55848865D01*
X164683452Y-55848865D02*
X164635832Y-55753627D01*
X164635832Y-55753627D02*
X164635832Y-55515532D01*
X164635832Y-55515532D02*
X164683452Y-55372675D01*
X165635832Y-54944103D02*
X164635832Y-54944103D01*
X164635832Y-54944103D02*
X164635832Y-54563151D01*
X164635832Y-54563151D02*
X164683452Y-54467913D01*
X164683452Y-54467913D02*
X164731071Y-54420294D01*
X164731071Y-54420294D02*
X164826309Y-54372675D01*
X164826309Y-54372675D02*
X164969166Y-54372675D01*
X164969166Y-54372675D02*
X165064404Y-54420294D01*
X165064404Y-54420294D02*
X165112023Y-54467913D01*
X165112023Y-54467913D02*
X165159642Y-54563151D01*
X165159642Y-54563151D02*
X165159642Y-54944103D01*
X164635832Y-54039341D02*
X164635832Y-53420294D01*
X164635832Y-53420294D02*
X165016785Y-53753627D01*
X165016785Y-53753627D02*
X165016785Y-53610770D01*
X165016785Y-53610770D02*
X165064404Y-53515532D01*
X165064404Y-53515532D02*
X165112023Y-53467913D01*
X165112023Y-53467913D02*
X165207261Y-53420294D01*
X165207261Y-53420294D02*
X165445356Y-53420294D01*
X165445356Y-53420294D02*
X165540594Y-53467913D01*
X165540594Y-53467913D02*
X165588213Y-53515532D01*
X165588213Y-53515532D02*
X165635832Y-53610770D01*
X165635832Y-53610770D02*
X165635832Y-53896484D01*
X165635832Y-53896484D02*
X165588213Y-53991722D01*
X165588213Y-53991722D02*
X165540594Y-54039341D01*
X164731071Y-53039341D02*
X164683452Y-52991722D01*
X164683452Y-52991722D02*
X164635832Y-52896484D01*
X164635832Y-52896484D02*
X164635832Y-52658389D01*
X164635832Y-52658389D02*
X164683452Y-52563151D01*
X164683452Y-52563151D02*
X164731071Y-52515532D01*
X164731071Y-52515532D02*
X164826309Y-52467913D01*
X164826309Y-52467913D02*
X164921547Y-52467913D01*
X164921547Y-52467913D02*
X165064404Y-52515532D01*
X165064404Y-52515532D02*
X165635832Y-53086960D01*
X165635832Y-53086960D02*
X165635832Y-52467913D01*
X165254880Y-52039341D02*
X165254880Y-51277437D01*
X165350118Y-50848865D02*
X165350118Y-50372675D01*
X165635832Y-50944103D02*
X164635832Y-50610770D01*
X164635832Y-50610770D02*
X165635832Y-50277437D01*
X165112023Y-49610770D02*
X165159642Y-49467913D01*
X165159642Y-49467913D02*
X165207261Y-49420294D01*
X165207261Y-49420294D02*
X165302499Y-49372675D01*
X165302499Y-49372675D02*
X165445356Y-49372675D01*
X165445356Y-49372675D02*
X165540594Y-49420294D01*
X165540594Y-49420294D02*
X165588213Y-49467913D01*
X165588213Y-49467913D02*
X165635832Y-49563151D01*
X165635832Y-49563151D02*
X165635832Y-49944103D01*
X165635832Y-49944103D02*
X164635832Y-49944103D01*
X164635832Y-49944103D02*
X164635832Y-49610770D01*
X164635832Y-49610770D02*
X164683452Y-49515532D01*
X164683452Y-49515532D02*
X164731071Y-49467913D01*
X164731071Y-49467913D02*
X164826309Y-49420294D01*
X164826309Y-49420294D02*
X164921547Y-49420294D01*
X164921547Y-49420294D02*
X165016785Y-49467913D01*
X165016785Y-49467913D02*
X165064404Y-49515532D01*
X165064404Y-49515532D02*
X165112023Y-49610770D01*
X165112023Y-49610770D02*
X165112023Y-49944103D01*
X165112023Y-48944103D02*
X165112023Y-48610770D01*
X165635832Y-48467913D02*
X165635832Y-48944103D01*
X165635832Y-48944103D02*
X164635832Y-48944103D01*
X164635832Y-48944103D02*
X164635832Y-48467913D01*
X166732023Y-56467913D02*
X166779642Y-56325056D01*
X166779642Y-56325056D02*
X166827261Y-56277437D01*
X166827261Y-56277437D02*
X166922499Y-56229818D01*
X166922499Y-56229818D02*
X167065356Y-56229818D01*
X167065356Y-56229818D02*
X167160594Y-56277437D01*
X167160594Y-56277437D02*
X167208213Y-56325056D01*
X167208213Y-56325056D02*
X167255832Y-56420294D01*
X167255832Y-56420294D02*
X167255832Y-56801246D01*
X167255832Y-56801246D02*
X166255832Y-56801246D01*
X166255832Y-56801246D02*
X166255832Y-56467913D01*
X166255832Y-56467913D02*
X166303452Y-56372675D01*
X166303452Y-56372675D02*
X166351071Y-56325056D01*
X166351071Y-56325056D02*
X166446309Y-56277437D01*
X166446309Y-56277437D02*
X166541547Y-56277437D01*
X166541547Y-56277437D02*
X166636785Y-56325056D01*
X166636785Y-56325056D02*
X166684404Y-56372675D01*
X166684404Y-56372675D02*
X166732023Y-56467913D01*
X166732023Y-56467913D02*
X166732023Y-56801246D01*
X167255832Y-55229818D02*
X166779642Y-55563151D01*
X167255832Y-55801246D02*
X166255832Y-55801246D01*
X166255832Y-55801246D02*
X166255832Y-55420294D01*
X166255832Y-55420294D02*
X166303452Y-55325056D01*
X166303452Y-55325056D02*
X166351071Y-55277437D01*
X166351071Y-55277437D02*
X166446309Y-55229818D01*
X166446309Y-55229818D02*
X166589166Y-55229818D01*
X166589166Y-55229818D02*
X166684404Y-55277437D01*
X166684404Y-55277437D02*
X166732023Y-55325056D01*
X166732023Y-55325056D02*
X166779642Y-55420294D01*
X166779642Y-55420294D02*
X166779642Y-55801246D01*
X166732023Y-54801246D02*
X166732023Y-54467913D01*
X167255832Y-54325056D02*
X167255832Y-54801246D01*
X167255832Y-54801246D02*
X166255832Y-54801246D01*
X166255832Y-54801246D02*
X166255832Y-54325056D01*
X166970118Y-53944103D02*
X166970118Y-53467913D01*
X167255832Y-54039341D02*
X166255832Y-53706008D01*
X166255832Y-53706008D02*
X167255832Y-53372675D01*
X167255832Y-53039341D02*
X166255832Y-53039341D01*
X167255832Y-52467913D02*
X166684404Y-52896484D01*
X166255832Y-52467913D02*
X166827261Y-53039341D01*
X166255832Y-51848865D02*
X166255832Y-51658389D01*
X166255832Y-51658389D02*
X166303452Y-51563151D01*
X166303452Y-51563151D02*
X166398690Y-51467913D01*
X166398690Y-51467913D02*
X166589166Y-51420294D01*
X166589166Y-51420294D02*
X166922499Y-51420294D01*
X166922499Y-51420294D02*
X167112975Y-51467913D01*
X167112975Y-51467913D02*
X167208213Y-51563151D01*
X167208213Y-51563151D02*
X167255832Y-51658389D01*
X167255832Y-51658389D02*
X167255832Y-51848865D01*
X167255832Y-51848865D02*
X167208213Y-51944103D01*
X167208213Y-51944103D02*
X167112975Y-52039341D01*
X167112975Y-52039341D02*
X166922499Y-52086960D01*
X166922499Y-52086960D02*
X166589166Y-52086960D01*
X166589166Y-52086960D02*
X166398690Y-52039341D01*
X166398690Y-52039341D02*
X166303452Y-51944103D01*
X166303452Y-51944103D02*
X166255832Y-51848865D01*
X166255832Y-50991722D02*
X167065356Y-50991722D01*
X167065356Y-50991722D02*
X167160594Y-50944103D01*
X167160594Y-50944103D02*
X167208213Y-50896484D01*
X167208213Y-50896484D02*
X167255832Y-50801246D01*
X167255832Y-50801246D02*
X167255832Y-50610770D01*
X167255832Y-50610770D02*
X167208213Y-50515532D01*
X167208213Y-50515532D02*
X167160594Y-50467913D01*
X167160594Y-50467913D02*
X167065356Y-50420294D01*
X167065356Y-50420294D02*
X166255832Y-50420294D01*
X166255832Y-50086960D02*
X166255832Y-49515532D01*
X167255832Y-49801246D02*
X166255832Y-49801246D01*
X168875832Y-56801246D02*
X167875832Y-56801246D01*
X167875832Y-56801246D02*
X168590118Y-56467913D01*
X168590118Y-56467913D02*
X167875832Y-56134580D01*
X167875832Y-56134580D02*
X168875832Y-56134580D01*
X167875832Y-55467913D02*
X167875832Y-55277437D01*
X167875832Y-55277437D02*
X167923452Y-55182199D01*
X167923452Y-55182199D02*
X168018690Y-55086961D01*
X168018690Y-55086961D02*
X168209166Y-55039342D01*
X168209166Y-55039342D02*
X168542499Y-55039342D01*
X168542499Y-55039342D02*
X168732975Y-55086961D01*
X168732975Y-55086961D02*
X168828213Y-55182199D01*
X168828213Y-55182199D02*
X168875832Y-55277437D01*
X168875832Y-55277437D02*
X168875832Y-55467913D01*
X168875832Y-55467913D02*
X168828213Y-55563151D01*
X168828213Y-55563151D02*
X168732975Y-55658389D01*
X168732975Y-55658389D02*
X168542499Y-55706008D01*
X168542499Y-55706008D02*
X168209166Y-55706008D01*
X168209166Y-55706008D02*
X168018690Y-55658389D01*
X168018690Y-55658389D02*
X167923452Y-55563151D01*
X167923452Y-55563151D02*
X167875832Y-55467913D01*
X168875832Y-54610770D02*
X167875832Y-54610770D01*
X167875832Y-54610770D02*
X167875832Y-54372675D01*
X167875832Y-54372675D02*
X167923452Y-54229818D01*
X167923452Y-54229818D02*
X168018690Y-54134580D01*
X168018690Y-54134580D02*
X168113928Y-54086961D01*
X168113928Y-54086961D02*
X168304404Y-54039342D01*
X168304404Y-54039342D02*
X168447261Y-54039342D01*
X168447261Y-54039342D02*
X168637737Y-54086961D01*
X168637737Y-54086961D02*
X168732975Y-54134580D01*
X168732975Y-54134580D02*
X168828213Y-54229818D01*
X168828213Y-54229818D02*
X168875832Y-54372675D01*
X168875832Y-54372675D02*
X168875832Y-54610770D01*
X167875832Y-53610770D02*
X168685356Y-53610770D01*
X168685356Y-53610770D02*
X168780594Y-53563151D01*
X168780594Y-53563151D02*
X168828213Y-53515532D01*
X168828213Y-53515532D02*
X168875832Y-53420294D01*
X168875832Y-53420294D02*
X168875832Y-53229818D01*
X168875832Y-53229818D02*
X168828213Y-53134580D01*
X168828213Y-53134580D02*
X168780594Y-53086961D01*
X168780594Y-53086961D02*
X168685356Y-53039342D01*
X168685356Y-53039342D02*
X167875832Y-53039342D01*
X168875832Y-52086961D02*
X168875832Y-52563151D01*
X168875832Y-52563151D02*
X167875832Y-52563151D01*
X168352023Y-51753627D02*
X168352023Y-51420294D01*
X168875832Y-51277437D02*
X168875832Y-51753627D01*
X168875832Y-51753627D02*
X167875832Y-51753627D01*
X167875832Y-51753627D02*
X167875832Y-51277437D01*
X169495832Y-56944103D02*
X169495832Y-56372675D01*
X170495832Y-56658389D02*
X169495832Y-56658389D01*
X170019642Y-55848865D02*
X170495832Y-55848865D01*
X169495832Y-56182198D02*
X170019642Y-55848865D01*
X170019642Y-55848865D02*
X169495832Y-55515532D01*
X170495832Y-55182198D02*
X169495832Y-55182198D01*
X169495832Y-55182198D02*
X169495832Y-54801246D01*
X169495832Y-54801246D02*
X169543452Y-54706008D01*
X169543452Y-54706008D02*
X169591071Y-54658389D01*
X169591071Y-54658389D02*
X169686309Y-54610770D01*
X169686309Y-54610770D02*
X169829166Y-54610770D01*
X169829166Y-54610770D02*
X169924404Y-54658389D01*
X169924404Y-54658389D02*
X169972023Y-54706008D01*
X169972023Y-54706008D02*
X170019642Y-54801246D01*
X170019642Y-54801246D02*
X170019642Y-55182198D01*
X169972023Y-54182198D02*
X169972023Y-53848865D01*
X170495832Y-53706008D02*
X170495832Y-54182198D01*
X170495832Y-54182198D02*
X169495832Y-54182198D01*
X169495832Y-54182198D02*
X169495832Y-53706008D01*
X170400594Y-53277436D02*
X170448213Y-53229817D01*
X170448213Y-53229817D02*
X170495832Y-53277436D01*
X170495832Y-53277436D02*
X170448213Y-53325055D01*
X170448213Y-53325055D02*
X170400594Y-53277436D01*
X170400594Y-53277436D02*
X170495832Y-53277436D01*
X169876785Y-53277436D02*
X169924404Y-53229817D01*
X169924404Y-53229817D02*
X169972023Y-53277436D01*
X169972023Y-53277436D02*
X169924404Y-53325055D01*
X169924404Y-53325055D02*
X169876785Y-53277436D01*
X169876785Y-53277436D02*
X169972023Y-53277436D01*
X170210118Y-52248865D02*
X170210118Y-51772675D01*
X170495832Y-52344103D02*
X169495832Y-52010770D01*
X169495832Y-52010770D02*
X170495832Y-51677437D01*
X172115832Y-56229818D02*
X171639642Y-56563151D01*
X172115832Y-56801246D02*
X171115832Y-56801246D01*
X171115832Y-56801246D02*
X171115832Y-56420294D01*
X171115832Y-56420294D02*
X171163452Y-56325056D01*
X171163452Y-56325056D02*
X171211071Y-56277437D01*
X171211071Y-56277437D02*
X171306309Y-56229818D01*
X171306309Y-56229818D02*
X171449166Y-56229818D01*
X171449166Y-56229818D02*
X171544404Y-56277437D01*
X171544404Y-56277437D02*
X171592023Y-56325056D01*
X171592023Y-56325056D02*
X171639642Y-56420294D01*
X171639642Y-56420294D02*
X171639642Y-56801246D01*
X171592023Y-55801246D02*
X171592023Y-55467913D01*
X172115832Y-55325056D02*
X172115832Y-55801246D01*
X172115832Y-55801246D02*
X171115832Y-55801246D01*
X171115832Y-55801246D02*
X171115832Y-55325056D01*
X171115832Y-55039341D02*
X172115832Y-54706008D01*
X172115832Y-54706008D02*
X171115832Y-54372675D01*
X172020594Y-54039341D02*
X172068213Y-53991722D01*
X172068213Y-53991722D02*
X172115832Y-54039341D01*
X172115832Y-54039341D02*
X172068213Y-54086960D01*
X172068213Y-54086960D02*
X172020594Y-54039341D01*
X172020594Y-54039341D02*
X172115832Y-54039341D01*
X171496785Y-54039341D02*
X171544404Y-53991722D01*
X171544404Y-53991722D02*
X171592023Y-54039341D01*
X171592023Y-54039341D02*
X171544404Y-54086960D01*
X171544404Y-54086960D02*
X171496785Y-54039341D01*
X171496785Y-54039341D02*
X171592023Y-54039341D01*
X171115832Y-52772675D02*
X171115832Y-52677437D01*
X171115832Y-52677437D02*
X171163452Y-52582199D01*
X171163452Y-52582199D02*
X171211071Y-52534580D01*
X171211071Y-52534580D02*
X171306309Y-52486961D01*
X171306309Y-52486961D02*
X171496785Y-52439342D01*
X171496785Y-52439342D02*
X171734880Y-52439342D01*
X171734880Y-52439342D02*
X171925356Y-52486961D01*
X171925356Y-52486961D02*
X172020594Y-52534580D01*
X172020594Y-52534580D02*
X172068213Y-52582199D01*
X172068213Y-52582199D02*
X172115832Y-52677437D01*
X172115832Y-52677437D02*
X172115832Y-52772675D01*
X172115832Y-52772675D02*
X172068213Y-52867913D01*
X172068213Y-52867913D02*
X172020594Y-52915532D01*
X172020594Y-52915532D02*
X171925356Y-52963151D01*
X171925356Y-52963151D02*
X171734880Y-53010770D01*
X171734880Y-53010770D02*
X171496785Y-53010770D01*
X171496785Y-53010770D02*
X171306309Y-52963151D01*
X171306309Y-52963151D02*
X171211071Y-52915532D01*
X171211071Y-52915532D02*
X171163452Y-52867913D01*
X171163452Y-52867913D02*
X171115832Y-52772675D01*
X172020594Y-52010770D02*
X172068213Y-51963151D01*
X172068213Y-51963151D02*
X172115832Y-52010770D01*
X172115832Y-52010770D02*
X172068213Y-52058389D01*
X172068213Y-52058389D02*
X172020594Y-52010770D01*
X172020594Y-52010770D02*
X172115832Y-52010770D01*
X171211071Y-51582199D02*
X171163452Y-51534580D01*
X171163452Y-51534580D02*
X171115832Y-51439342D01*
X171115832Y-51439342D02*
X171115832Y-51201247D01*
X171115832Y-51201247D02*
X171163452Y-51106009D01*
X171163452Y-51106009D02*
X171211071Y-51058390D01*
X171211071Y-51058390D02*
X171306309Y-51010771D01*
X171306309Y-51010771D02*
X171401547Y-51010771D01*
X171401547Y-51010771D02*
X171544404Y-51058390D01*
X171544404Y-51058390D02*
X172115832Y-51629818D01*
X172115832Y-51629818D02*
X172115832Y-51010771D01*
X162798095Y-78657461D02*
X162798095Y-77657461D01*
X163369523Y-78657461D02*
X162940952Y-78086033D01*
X163369523Y-77657461D02*
X162798095Y-78228890D01*
X116118626Y-91217056D02*
X116690054Y-91217056D01*
X116404340Y-92217056D02*
X116404340Y-91217056D01*
X117023388Y-91693247D02*
X117356721Y-91693247D01*
X117499578Y-92217056D02*
X117023388Y-92217056D01*
X117023388Y-92217056D02*
X117023388Y-91217056D01*
X117023388Y-91217056D02*
X117499578Y-91217056D01*
X117928150Y-92217056D02*
X117928150Y-91217056D01*
X117928150Y-91217056D02*
X118261483Y-91931342D01*
X118261483Y-91931342D02*
X118594816Y-91217056D01*
X118594816Y-91217056D02*
X118594816Y-92217056D01*
X119071007Y-92217056D02*
X119071007Y-91217056D01*
X119071007Y-91217056D02*
X119451959Y-91217056D01*
X119451959Y-91217056D02*
X119547197Y-91264676D01*
X119547197Y-91264676D02*
X119594816Y-91312295D01*
X119594816Y-91312295D02*
X119642435Y-91407533D01*
X119642435Y-91407533D02*
X119642435Y-91550390D01*
X119642435Y-91550390D02*
X119594816Y-91645628D01*
X119594816Y-91645628D02*
X119547197Y-91693247D01*
X119547197Y-91693247D02*
X119451959Y-91740866D01*
X119451959Y-91740866D02*
X119071007Y-91740866D01*
X121004340Y-91693247D02*
X121147197Y-91740866D01*
X121147197Y-91740866D02*
X121194816Y-91788485D01*
X121194816Y-91788485D02*
X121242435Y-91883723D01*
X121242435Y-91883723D02*
X121242435Y-92026580D01*
X121242435Y-92026580D02*
X121194816Y-92121818D01*
X121194816Y-92121818D02*
X121147197Y-92169437D01*
X121147197Y-92169437D02*
X121051959Y-92217056D01*
X121051959Y-92217056D02*
X120671007Y-92217056D01*
X120671007Y-92217056D02*
X120671007Y-91217056D01*
X120671007Y-91217056D02*
X121004340Y-91217056D01*
X121004340Y-91217056D02*
X121099578Y-91264676D01*
X121099578Y-91264676D02*
X121147197Y-91312295D01*
X121147197Y-91312295D02*
X121194816Y-91407533D01*
X121194816Y-91407533D02*
X121194816Y-91502771D01*
X121194816Y-91502771D02*
X121147197Y-91598009D01*
X121147197Y-91598009D02*
X121099578Y-91645628D01*
X121099578Y-91645628D02*
X121004340Y-91693247D01*
X121004340Y-91693247D02*
X120671007Y-91693247D01*
X121671007Y-92217056D02*
X121671007Y-91217056D01*
X121671007Y-91217056D02*
X122004340Y-91931342D01*
X122004340Y-91931342D02*
X122337673Y-91217056D01*
X122337673Y-91217056D02*
X122337673Y-92217056D01*
X122813864Y-91693247D02*
X123147197Y-91693247D01*
X123290054Y-92217056D02*
X122813864Y-92217056D01*
X122813864Y-92217056D02*
X122813864Y-91217056D01*
X122813864Y-91217056D02*
X123290054Y-91217056D01*
X123671007Y-91312295D02*
X123718626Y-91264676D01*
X123718626Y-91264676D02*
X123813864Y-91217056D01*
X123813864Y-91217056D02*
X124051959Y-91217056D01*
X124051959Y-91217056D02*
X124147197Y-91264676D01*
X124147197Y-91264676D02*
X124194816Y-91312295D01*
X124194816Y-91312295D02*
X124242435Y-91407533D01*
X124242435Y-91407533D02*
X124242435Y-91502771D01*
X124242435Y-91502771D02*
X124194816Y-91645628D01*
X124194816Y-91645628D02*
X123623388Y-92217056D01*
X123623388Y-92217056D02*
X124242435Y-92217056D01*
X124813864Y-91645628D02*
X124718626Y-91598009D01*
X124718626Y-91598009D02*
X124671007Y-91550390D01*
X124671007Y-91550390D02*
X124623388Y-91455152D01*
X124623388Y-91455152D02*
X124623388Y-91407533D01*
X124623388Y-91407533D02*
X124671007Y-91312295D01*
X124671007Y-91312295D02*
X124718626Y-91264676D01*
X124718626Y-91264676D02*
X124813864Y-91217056D01*
X124813864Y-91217056D02*
X125004340Y-91217056D01*
X125004340Y-91217056D02*
X125099578Y-91264676D01*
X125099578Y-91264676D02*
X125147197Y-91312295D01*
X125147197Y-91312295D02*
X125194816Y-91407533D01*
X125194816Y-91407533D02*
X125194816Y-91455152D01*
X125194816Y-91455152D02*
X125147197Y-91550390D01*
X125147197Y-91550390D02*
X125099578Y-91598009D01*
X125099578Y-91598009D02*
X125004340Y-91645628D01*
X125004340Y-91645628D02*
X124813864Y-91645628D01*
X124813864Y-91645628D02*
X124718626Y-91693247D01*
X124718626Y-91693247D02*
X124671007Y-91740866D01*
X124671007Y-91740866D02*
X124623388Y-91836104D01*
X124623388Y-91836104D02*
X124623388Y-92026580D01*
X124623388Y-92026580D02*
X124671007Y-92121818D01*
X124671007Y-92121818D02*
X124718626Y-92169437D01*
X124718626Y-92169437D02*
X124813864Y-92217056D01*
X124813864Y-92217056D02*
X125004340Y-92217056D01*
X125004340Y-92217056D02*
X125099578Y-92169437D01*
X125099578Y-92169437D02*
X125147197Y-92121818D01*
X125147197Y-92121818D02*
X125194816Y-92026580D01*
X125194816Y-92026580D02*
X125194816Y-91836104D01*
X125194816Y-91836104D02*
X125147197Y-91740866D01*
X125147197Y-91740866D02*
X125099578Y-91693247D01*
X125099578Y-91693247D02*
X125004340Y-91645628D01*
X125813864Y-91217056D02*
X125909102Y-91217056D01*
X125909102Y-91217056D02*
X126004340Y-91264676D01*
X126004340Y-91264676D02*
X126051959Y-91312295D01*
X126051959Y-91312295D02*
X126099578Y-91407533D01*
X126099578Y-91407533D02*
X126147197Y-91598009D01*
X126147197Y-91598009D02*
X126147197Y-91836104D01*
X126147197Y-91836104D02*
X126099578Y-92026580D01*
X126099578Y-92026580D02*
X126051959Y-92121818D01*
X126051959Y-92121818D02*
X126004340Y-92169437D01*
X126004340Y-92169437D02*
X125909102Y-92217056D01*
X125909102Y-92217056D02*
X125813864Y-92217056D01*
X125813864Y-92217056D02*
X125718626Y-92169437D01*
X125718626Y-92169437D02*
X125671007Y-92121818D01*
X125671007Y-92121818D02*
X125623388Y-92026580D01*
X125623388Y-92026580D02*
X125575769Y-91836104D01*
X125575769Y-91836104D02*
X125575769Y-91598009D01*
X125575769Y-91598009D02*
X125623388Y-91407533D01*
X125623388Y-91407533D02*
X125671007Y-91312295D01*
X125671007Y-91312295D02*
X125718626Y-91264676D01*
X125718626Y-91264676D02*
X125813864Y-91217056D01*
X125664254Y-70606732D02*
X125188064Y-70606732D01*
X125188064Y-70606732D02*
X125188064Y-69606732D01*
X125997588Y-70082923D02*
X126330921Y-70082923D01*
X126473778Y-70606732D02*
X125997588Y-70606732D01*
X125997588Y-70606732D02*
X125997588Y-69606732D01*
X125997588Y-69606732D02*
X126473778Y-69606732D01*
X126902350Y-70606732D02*
X126902350Y-69606732D01*
X126902350Y-69606732D02*
X127140445Y-69606732D01*
X127140445Y-69606732D02*
X127283302Y-69654352D01*
X127283302Y-69654352D02*
X127378540Y-69749590D01*
X127378540Y-69749590D02*
X127426159Y-69844828D01*
X127426159Y-69844828D02*
X127473778Y-70035304D01*
X127473778Y-70035304D02*
X127473778Y-70178161D01*
X127473778Y-70178161D02*
X127426159Y-70368637D01*
X127426159Y-70368637D02*
X127378540Y-70463875D01*
X127378540Y-70463875D02*
X127283302Y-70559113D01*
X127283302Y-70559113D02*
X127140445Y-70606732D01*
X127140445Y-70606732D02*
X126902350Y-70606732D01*
X125473778Y-72607685D02*
X125426159Y-72560066D01*
X125426159Y-72560066D02*
X125330921Y-72417209D01*
X125330921Y-72417209D02*
X125283302Y-72321971D01*
X125283302Y-72321971D02*
X125235683Y-72179113D01*
X125235683Y-72179113D02*
X125188064Y-71941018D01*
X125188064Y-71941018D02*
X125188064Y-71750542D01*
X125188064Y-71750542D02*
X125235683Y-71512447D01*
X125235683Y-71512447D02*
X125283302Y-71369590D01*
X125283302Y-71369590D02*
X125330921Y-71274352D01*
X125330921Y-71274352D02*
X125426159Y-71131494D01*
X125426159Y-71131494D02*
X125473778Y-71083875D01*
X125854731Y-72226732D02*
X125854731Y-71226732D01*
X126521397Y-71226732D02*
X126711873Y-71226732D01*
X126711873Y-71226732D02*
X126807111Y-71274352D01*
X126807111Y-71274352D02*
X126902349Y-71369590D01*
X126902349Y-71369590D02*
X126949968Y-71560066D01*
X126949968Y-71560066D02*
X126949968Y-71893399D01*
X126949968Y-71893399D02*
X126902349Y-72083875D01*
X126902349Y-72083875D02*
X126807111Y-72179113D01*
X126807111Y-72179113D02*
X126711873Y-72226732D01*
X126711873Y-72226732D02*
X126521397Y-72226732D01*
X126521397Y-72226732D02*
X126426159Y-72179113D01*
X126426159Y-72179113D02*
X126330921Y-72083875D01*
X126330921Y-72083875D02*
X126283302Y-71893399D01*
X126283302Y-71893399D02*
X126283302Y-71560066D01*
X126283302Y-71560066D02*
X126330921Y-71369590D01*
X126330921Y-71369590D02*
X126426159Y-71274352D01*
X126426159Y-71274352D02*
X126521397Y-71226732D01*
X127902349Y-72226732D02*
X127330921Y-72226732D01*
X127616635Y-72226732D02*
X127616635Y-71226732D01*
X127616635Y-71226732D02*
X127521397Y-71369590D01*
X127521397Y-71369590D02*
X127426159Y-71464828D01*
X127426159Y-71464828D02*
X127330921Y-71512447D01*
X128759492Y-71226732D02*
X128569016Y-71226732D01*
X128569016Y-71226732D02*
X128473778Y-71274352D01*
X128473778Y-71274352D02*
X128426159Y-71321971D01*
X128426159Y-71321971D02*
X128330921Y-71464828D01*
X128330921Y-71464828D02*
X128283302Y-71655304D01*
X128283302Y-71655304D02*
X128283302Y-72036256D01*
X128283302Y-72036256D02*
X128330921Y-72131494D01*
X128330921Y-72131494D02*
X128378540Y-72179113D01*
X128378540Y-72179113D02*
X128473778Y-72226732D01*
X128473778Y-72226732D02*
X128664254Y-72226732D01*
X128664254Y-72226732D02*
X128759492Y-72179113D01*
X128759492Y-72179113D02*
X128807111Y-72131494D01*
X128807111Y-72131494D02*
X128854730Y-72036256D01*
X128854730Y-72036256D02*
X128854730Y-71798161D01*
X128854730Y-71798161D02*
X128807111Y-71702923D01*
X128807111Y-71702923D02*
X128759492Y-71655304D01*
X128759492Y-71655304D02*
X128664254Y-71607685D01*
X128664254Y-71607685D02*
X128473778Y-71607685D01*
X128473778Y-71607685D02*
X128378540Y-71655304D01*
X128378540Y-71655304D02*
X128330921Y-71702923D01*
X128330921Y-71702923D02*
X128283302Y-71798161D01*
X129188064Y-72607685D02*
X129235683Y-72560066D01*
X129235683Y-72560066D02*
X129330921Y-72417209D01*
X129330921Y-72417209D02*
X129378540Y-72321971D01*
X129378540Y-72321971D02*
X129426159Y-72179113D01*
X129426159Y-72179113D02*
X129473778Y-71941018D01*
X129473778Y-71941018D02*
X129473778Y-71750542D01*
X129473778Y-71750542D02*
X129426159Y-71512447D01*
X129426159Y-71512447D02*
X129378540Y-71369590D01*
X129378540Y-71369590D02*
X129330921Y-71274352D01*
X129330921Y-71274352D02*
X129235683Y-71131494D01*
X129235683Y-71131494D02*
X129188064Y-71083875D01*
X142827731Y-55209209D02*
X142780112Y-55161590D01*
X142780112Y-55161590D02*
X142684874Y-55018733D01*
X142684874Y-55018733D02*
X142637255Y-54923495D01*
X142637255Y-54923495D02*
X142589636Y-54780637D01*
X142589636Y-54780637D02*
X142542017Y-54542542D01*
X142542017Y-54542542D02*
X142542017Y-54352066D01*
X142542017Y-54352066D02*
X142589636Y-54113971D01*
X142589636Y-54113971D02*
X142637255Y-53971114D01*
X142637255Y-53971114D02*
X142684874Y-53875876D01*
X142684874Y-53875876D02*
X142780112Y-53733018D01*
X142780112Y-53733018D02*
X142827731Y-53685399D01*
X143732493Y-53875876D02*
X143637255Y-53828256D01*
X143637255Y-53828256D02*
X143494398Y-53828256D01*
X143494398Y-53828256D02*
X143351541Y-53875876D01*
X143351541Y-53875876D02*
X143256303Y-53971114D01*
X143256303Y-53971114D02*
X143208684Y-54066352D01*
X143208684Y-54066352D02*
X143161065Y-54256828D01*
X143161065Y-54256828D02*
X143161065Y-54399685D01*
X143161065Y-54399685D02*
X143208684Y-54590161D01*
X143208684Y-54590161D02*
X143256303Y-54685399D01*
X143256303Y-54685399D02*
X143351541Y-54780637D01*
X143351541Y-54780637D02*
X143494398Y-54828256D01*
X143494398Y-54828256D02*
X143589636Y-54828256D01*
X143589636Y-54828256D02*
X143732493Y-54780637D01*
X143732493Y-54780637D02*
X143780112Y-54733018D01*
X143780112Y-54733018D02*
X143780112Y-54399685D01*
X143780112Y-54399685D02*
X143589636Y-54399685D01*
X144208684Y-54828256D02*
X144208684Y-53828256D01*
X144208684Y-53828256D02*
X144589636Y-53828256D01*
X144589636Y-53828256D02*
X144684874Y-53875876D01*
X144684874Y-53875876D02*
X144732493Y-53923495D01*
X144732493Y-53923495D02*
X144780112Y-54018733D01*
X144780112Y-54018733D02*
X144780112Y-54161590D01*
X144780112Y-54161590D02*
X144732493Y-54256828D01*
X144732493Y-54256828D02*
X144684874Y-54304447D01*
X144684874Y-54304447D02*
X144589636Y-54352066D01*
X144589636Y-54352066D02*
X144208684Y-54352066D01*
X145208684Y-54828256D02*
X145208684Y-53828256D01*
X145875350Y-53828256D02*
X146065826Y-53828256D01*
X146065826Y-53828256D02*
X146161064Y-53875876D01*
X146161064Y-53875876D02*
X146256302Y-53971114D01*
X146256302Y-53971114D02*
X146303921Y-54161590D01*
X146303921Y-54161590D02*
X146303921Y-54494923D01*
X146303921Y-54494923D02*
X146256302Y-54685399D01*
X146256302Y-54685399D02*
X146161064Y-54780637D01*
X146161064Y-54780637D02*
X146065826Y-54828256D01*
X146065826Y-54828256D02*
X145875350Y-54828256D01*
X145875350Y-54828256D02*
X145780112Y-54780637D01*
X145780112Y-54780637D02*
X145684874Y-54685399D01*
X145684874Y-54685399D02*
X145637255Y-54494923D01*
X145637255Y-54494923D02*
X145637255Y-54161590D01*
X145637255Y-54161590D02*
X145684874Y-53971114D01*
X145684874Y-53971114D02*
X145780112Y-53875876D01*
X145780112Y-53875876D02*
X145875350Y-53828256D01*
X146637255Y-53828256D02*
X147256302Y-53828256D01*
X147256302Y-53828256D02*
X146922969Y-54209209D01*
X146922969Y-54209209D02*
X147065826Y-54209209D01*
X147065826Y-54209209D02*
X147161064Y-54256828D01*
X147161064Y-54256828D02*
X147208683Y-54304447D01*
X147208683Y-54304447D02*
X147256302Y-54399685D01*
X147256302Y-54399685D02*
X147256302Y-54637780D01*
X147256302Y-54637780D02*
X147208683Y-54733018D01*
X147208683Y-54733018D02*
X147161064Y-54780637D01*
X147161064Y-54780637D02*
X147065826Y-54828256D01*
X147065826Y-54828256D02*
X146780112Y-54828256D01*
X146780112Y-54828256D02*
X146684874Y-54780637D01*
X146684874Y-54780637D02*
X146637255Y-54733018D01*
X148161064Y-53828256D02*
X147684874Y-53828256D01*
X147684874Y-53828256D02*
X147637255Y-54304447D01*
X147637255Y-54304447D02*
X147684874Y-54256828D01*
X147684874Y-54256828D02*
X147780112Y-54209209D01*
X147780112Y-54209209D02*
X148018207Y-54209209D01*
X148018207Y-54209209D02*
X148113445Y-54256828D01*
X148113445Y-54256828D02*
X148161064Y-54304447D01*
X148161064Y-54304447D02*
X148208683Y-54399685D01*
X148208683Y-54399685D02*
X148208683Y-54637780D01*
X148208683Y-54637780D02*
X148161064Y-54733018D01*
X148161064Y-54733018D02*
X148113445Y-54780637D01*
X148113445Y-54780637D02*
X148018207Y-54828256D01*
X148018207Y-54828256D02*
X147780112Y-54828256D01*
X147780112Y-54828256D02*
X147684874Y-54780637D01*
X147684874Y-54780637D02*
X147637255Y-54733018D01*
X148542017Y-55209209D02*
X148589636Y-55161590D01*
X148589636Y-55161590D02*
X148684874Y-55018733D01*
X148684874Y-55018733D02*
X148732493Y-54923495D01*
X148732493Y-54923495D02*
X148780112Y-54780637D01*
X148780112Y-54780637D02*
X148827731Y-54542542D01*
X148827731Y-54542542D02*
X148827731Y-54352066D01*
X148827731Y-54352066D02*
X148780112Y-54113971D01*
X148780112Y-54113971D02*
X148732493Y-53971114D01*
X148732493Y-53971114D02*
X148684874Y-53875876D01*
X148684874Y-53875876D02*
X148589636Y-53733018D01*
X148589636Y-53733018D02*
X148542017Y-53685399D01*
X125711873Y-80427750D02*
X125616635Y-80380130D01*
X125616635Y-80380130D02*
X125473778Y-80380130D01*
X125473778Y-80380130D02*
X125330921Y-80427750D01*
X125330921Y-80427750D02*
X125235683Y-80522988D01*
X125235683Y-80522988D02*
X125188064Y-80618226D01*
X125188064Y-80618226D02*
X125140445Y-80808702D01*
X125140445Y-80808702D02*
X125140445Y-80951559D01*
X125140445Y-80951559D02*
X125188064Y-81142035D01*
X125188064Y-81142035D02*
X125235683Y-81237273D01*
X125235683Y-81237273D02*
X125330921Y-81332511D01*
X125330921Y-81332511D02*
X125473778Y-81380130D01*
X125473778Y-81380130D02*
X125569016Y-81380130D01*
X125569016Y-81380130D02*
X125711873Y-81332511D01*
X125711873Y-81332511D02*
X125759492Y-81284892D01*
X125759492Y-81284892D02*
X125759492Y-80951559D01*
X125759492Y-80951559D02*
X125569016Y-80951559D01*
X126188064Y-81380130D02*
X126188064Y-80380130D01*
X126188064Y-80380130D02*
X126759492Y-81380130D01*
X126759492Y-81380130D02*
X126759492Y-80380130D01*
X127235683Y-81380130D02*
X127235683Y-80380130D01*
X127235683Y-80380130D02*
X127473778Y-80380130D01*
X127473778Y-80380130D02*
X127616635Y-80427750D01*
X127616635Y-80427750D02*
X127711873Y-80522988D01*
X127711873Y-80522988D02*
X127759492Y-80618226D01*
X127759492Y-80618226D02*
X127807111Y-80808702D01*
X127807111Y-80808702D02*
X127807111Y-80951559D01*
X127807111Y-80951559D02*
X127759492Y-81142035D01*
X127759492Y-81142035D02*
X127711873Y-81237273D01*
X127711873Y-81237273D02*
X127616635Y-81332511D01*
X127616635Y-81332511D02*
X127473778Y-81380130D01*
X127473778Y-81380130D02*
X127235683Y-81380130D01*
X162750476Y-97488081D02*
X163226666Y-97488081D01*
X162655238Y-97773795D02*
X162988571Y-96773795D01*
X162988571Y-96773795D02*
X163321904Y-97773795D01*
X116261483Y-67155723D02*
X116261483Y-66155723D01*
X116261483Y-66155723D02*
X116642435Y-66155723D01*
X116642435Y-66155723D02*
X116737673Y-66203343D01*
X116737673Y-66203343D02*
X116785292Y-66250962D01*
X116785292Y-66250962D02*
X116832911Y-66346200D01*
X116832911Y-66346200D02*
X116832911Y-66489057D01*
X116832911Y-66489057D02*
X116785292Y-66584295D01*
X116785292Y-66584295D02*
X116737673Y-66631914D01*
X116737673Y-66631914D02*
X116642435Y-66679533D01*
X116642435Y-66679533D02*
X116261483Y-66679533D01*
X117261483Y-67155723D02*
X117261483Y-66155723D01*
X118309101Y-67155723D02*
X117975768Y-66679533D01*
X117737673Y-67155723D02*
X117737673Y-66155723D01*
X117737673Y-66155723D02*
X118118625Y-66155723D01*
X118118625Y-66155723D02*
X118213863Y-66203343D01*
X118213863Y-66203343D02*
X118261482Y-66250962D01*
X118261482Y-66250962D02*
X118309101Y-66346200D01*
X118309101Y-66346200D02*
X118309101Y-66489057D01*
X118309101Y-66489057D02*
X118261482Y-66584295D01*
X118261482Y-66584295D02*
X118213863Y-66631914D01*
X118213863Y-66631914D02*
X118118625Y-66679533D01*
X118118625Y-66679533D02*
X117737673Y-66679533D01*
X144839795Y-102240829D02*
X144744557Y-102193210D01*
X144744557Y-102193210D02*
X144649319Y-102097971D01*
X144649319Y-102097971D02*
X144506462Y-101955114D01*
X144506462Y-101955114D02*
X144411224Y-101907495D01*
X144411224Y-101907495D02*
X144315986Y-101907495D01*
X144363605Y-102145590D02*
X144268367Y-102097971D01*
X144268367Y-102097971D02*
X144173129Y-102002733D01*
X144173129Y-102002733D02*
X144125510Y-101812257D01*
X144125510Y-101812257D02*
X144125510Y-101478924D01*
X144125510Y-101478924D02*
X144173129Y-101288448D01*
X144173129Y-101288448D02*
X144268367Y-101193210D01*
X144268367Y-101193210D02*
X144363605Y-101145590D01*
X144363605Y-101145590D02*
X144554081Y-101145590D01*
X144554081Y-101145590D02*
X144649319Y-101193210D01*
X144649319Y-101193210D02*
X144744557Y-101288448D01*
X144744557Y-101288448D02*
X144792176Y-101478924D01*
X144792176Y-101478924D02*
X144792176Y-101812257D01*
X144792176Y-101812257D02*
X144744557Y-102002733D01*
X144744557Y-102002733D02*
X144649319Y-102097971D01*
X144649319Y-102097971D02*
X144554081Y-102145590D01*
X144554081Y-102145590D02*
X144363605Y-102145590D01*
X145220748Y-101145590D02*
X145220748Y-101955114D01*
X145220748Y-101955114D02*
X145268367Y-102050352D01*
X145268367Y-102050352D02*
X145315986Y-102097971D01*
X145315986Y-102097971D02*
X145411224Y-102145590D01*
X145411224Y-102145590D02*
X145601700Y-102145590D01*
X145601700Y-102145590D02*
X145696938Y-102097971D01*
X145696938Y-102097971D02*
X145744557Y-102050352D01*
X145744557Y-102050352D02*
X145792176Y-101955114D01*
X145792176Y-101955114D02*
X145792176Y-101145590D01*
X146268367Y-102145590D02*
X146268367Y-101145590D01*
X146744557Y-102145590D02*
X146744557Y-101145590D01*
X146744557Y-101145590D02*
X147315985Y-102145590D01*
X147315985Y-102145590D02*
X147315985Y-101145590D01*
X148268366Y-102145590D02*
X147792176Y-102145590D01*
X147792176Y-102145590D02*
X147792176Y-101145590D01*
X148601700Y-101621781D02*
X148935033Y-101621781D01*
X149077890Y-102145590D02*
X148601700Y-102145590D01*
X148601700Y-102145590D02*
X148601700Y-101145590D01*
X148601700Y-101145590D02*
X149077890Y-101145590D01*
X149506462Y-102145590D02*
X149506462Y-101145590D01*
X149506462Y-101145590D02*
X149744557Y-101145590D01*
X149744557Y-101145590D02*
X149887414Y-101193210D01*
X149887414Y-101193210D02*
X149982652Y-101288448D01*
X149982652Y-101288448D02*
X150030271Y-101383686D01*
X150030271Y-101383686D02*
X150077890Y-101574162D01*
X150077890Y-101574162D02*
X150077890Y-101717019D01*
X150077890Y-101717019D02*
X150030271Y-101907495D01*
X150030271Y-101907495D02*
X149982652Y-102002733D01*
X149982652Y-102002733D02*
X149887414Y-102097971D01*
X149887414Y-102097971D02*
X149744557Y-102145590D01*
X149744557Y-102145590D02*
X149506462Y-102145590D01*
X142958843Y-103241781D02*
X143292176Y-103241781D01*
X143435033Y-103765590D02*
X142958843Y-103765590D01*
X142958843Y-103765590D02*
X142958843Y-102765590D01*
X142958843Y-102765590D02*
X143435033Y-102765590D01*
X143815986Y-103717971D02*
X143958843Y-103765590D01*
X143958843Y-103765590D02*
X144196938Y-103765590D01*
X144196938Y-103765590D02*
X144292176Y-103717971D01*
X144292176Y-103717971D02*
X144339795Y-103670352D01*
X144339795Y-103670352D02*
X144387414Y-103575114D01*
X144387414Y-103575114D02*
X144387414Y-103479876D01*
X144387414Y-103479876D02*
X144339795Y-103384638D01*
X144339795Y-103384638D02*
X144292176Y-103337019D01*
X144292176Y-103337019D02*
X144196938Y-103289400D01*
X144196938Y-103289400D02*
X144006462Y-103241781D01*
X144006462Y-103241781D02*
X143911224Y-103194162D01*
X143911224Y-103194162D02*
X143863605Y-103146543D01*
X143863605Y-103146543D02*
X143815986Y-103051305D01*
X143815986Y-103051305D02*
X143815986Y-102956067D01*
X143815986Y-102956067D02*
X143863605Y-102860829D01*
X143863605Y-102860829D02*
X143911224Y-102813210D01*
X143911224Y-102813210D02*
X144006462Y-102765590D01*
X144006462Y-102765590D02*
X144244557Y-102765590D01*
X144244557Y-102765590D02*
X144387414Y-102813210D01*
X144815986Y-103765590D02*
X144815986Y-102765590D01*
X144815986Y-102765590D02*
X145196938Y-102765590D01*
X145196938Y-102765590D02*
X145292176Y-102813210D01*
X145292176Y-102813210D02*
X145339795Y-102860829D01*
X145339795Y-102860829D02*
X145387414Y-102956067D01*
X145387414Y-102956067D02*
X145387414Y-103098924D01*
X145387414Y-103098924D02*
X145339795Y-103194162D01*
X145339795Y-103194162D02*
X145292176Y-103241781D01*
X145292176Y-103241781D02*
X145196938Y-103289400D01*
X145196938Y-103289400D02*
X144815986Y-103289400D01*
X145720748Y-102765590D02*
X146339795Y-102765590D01*
X146339795Y-102765590D02*
X146006462Y-103146543D01*
X146006462Y-103146543D02*
X146149319Y-103146543D01*
X146149319Y-103146543D02*
X146244557Y-103194162D01*
X146244557Y-103194162D02*
X146292176Y-103241781D01*
X146292176Y-103241781D02*
X146339795Y-103337019D01*
X146339795Y-103337019D02*
X146339795Y-103575114D01*
X146339795Y-103575114D02*
X146292176Y-103670352D01*
X146292176Y-103670352D02*
X146244557Y-103717971D01*
X146244557Y-103717971D02*
X146149319Y-103765590D01*
X146149319Y-103765590D02*
X145863605Y-103765590D01*
X145863605Y-103765590D02*
X145768367Y-103717971D01*
X145768367Y-103717971D02*
X145720748Y-103670352D01*
X146720748Y-102860829D02*
X146768367Y-102813210D01*
X146768367Y-102813210D02*
X146863605Y-102765590D01*
X146863605Y-102765590D02*
X147101700Y-102765590D01*
X147101700Y-102765590D02*
X147196938Y-102813210D01*
X147196938Y-102813210D02*
X147244557Y-102860829D01*
X147244557Y-102860829D02*
X147292176Y-102956067D01*
X147292176Y-102956067D02*
X147292176Y-103051305D01*
X147292176Y-103051305D02*
X147244557Y-103194162D01*
X147244557Y-103194162D02*
X146673129Y-103765590D01*
X146673129Y-103765590D02*
X147292176Y-103765590D01*
X147720748Y-103384638D02*
X148482653Y-103384638D01*
X148911224Y-103479876D02*
X149387414Y-103479876D01*
X148815986Y-103765590D02*
X149149319Y-102765590D01*
X149149319Y-102765590D02*
X149482652Y-103765590D01*
X150149319Y-103241781D02*
X150292176Y-103289400D01*
X150292176Y-103289400D02*
X150339795Y-103337019D01*
X150339795Y-103337019D02*
X150387414Y-103432257D01*
X150387414Y-103432257D02*
X150387414Y-103575114D01*
X150387414Y-103575114D02*
X150339795Y-103670352D01*
X150339795Y-103670352D02*
X150292176Y-103717971D01*
X150292176Y-103717971D02*
X150196938Y-103765590D01*
X150196938Y-103765590D02*
X149815986Y-103765590D01*
X149815986Y-103765590D02*
X149815986Y-102765590D01*
X149815986Y-102765590D02*
X150149319Y-102765590D01*
X150149319Y-102765590D02*
X150244557Y-102813210D01*
X150244557Y-102813210D02*
X150292176Y-102860829D01*
X150292176Y-102860829D02*
X150339795Y-102956067D01*
X150339795Y-102956067D02*
X150339795Y-103051305D01*
X150339795Y-103051305D02*
X150292176Y-103146543D01*
X150292176Y-103146543D02*
X150244557Y-103194162D01*
X150244557Y-103194162D02*
X150149319Y-103241781D01*
X150149319Y-103241781D02*
X149815986Y-103241781D01*
X150815986Y-103241781D02*
X151149319Y-103241781D01*
X151292176Y-103765590D02*
X150815986Y-103765590D01*
X150815986Y-103765590D02*
X150815986Y-102765590D01*
X150815986Y-102765590D02*
X151292176Y-102765590D01*
X155426131Y-55209209D02*
X155378512Y-55161590D01*
X155378512Y-55161590D02*
X155283274Y-55018733D01*
X155283274Y-55018733D02*
X155235655Y-54923495D01*
X155235655Y-54923495D02*
X155188036Y-54780637D01*
X155188036Y-54780637D02*
X155140417Y-54542542D01*
X155140417Y-54542542D02*
X155140417Y-54352066D01*
X155140417Y-54352066D02*
X155188036Y-54113971D01*
X155188036Y-54113971D02*
X155235655Y-53971114D01*
X155235655Y-53971114D02*
X155283274Y-53875876D01*
X155283274Y-53875876D02*
X155378512Y-53733018D01*
X155378512Y-53733018D02*
X155426131Y-53685399D01*
X156330893Y-53875876D02*
X156235655Y-53828256D01*
X156235655Y-53828256D02*
X156092798Y-53828256D01*
X156092798Y-53828256D02*
X155949941Y-53875876D01*
X155949941Y-53875876D02*
X155854703Y-53971114D01*
X155854703Y-53971114D02*
X155807084Y-54066352D01*
X155807084Y-54066352D02*
X155759465Y-54256828D01*
X155759465Y-54256828D02*
X155759465Y-54399685D01*
X155759465Y-54399685D02*
X155807084Y-54590161D01*
X155807084Y-54590161D02*
X155854703Y-54685399D01*
X155854703Y-54685399D02*
X155949941Y-54780637D01*
X155949941Y-54780637D02*
X156092798Y-54828256D01*
X156092798Y-54828256D02*
X156188036Y-54828256D01*
X156188036Y-54828256D02*
X156330893Y-54780637D01*
X156330893Y-54780637D02*
X156378512Y-54733018D01*
X156378512Y-54733018D02*
X156378512Y-54399685D01*
X156378512Y-54399685D02*
X156188036Y-54399685D01*
X156807084Y-54828256D02*
X156807084Y-53828256D01*
X156807084Y-53828256D02*
X157188036Y-53828256D01*
X157188036Y-53828256D02*
X157283274Y-53875876D01*
X157283274Y-53875876D02*
X157330893Y-53923495D01*
X157330893Y-53923495D02*
X157378512Y-54018733D01*
X157378512Y-54018733D02*
X157378512Y-54161590D01*
X157378512Y-54161590D02*
X157330893Y-54256828D01*
X157330893Y-54256828D02*
X157283274Y-54304447D01*
X157283274Y-54304447D02*
X157188036Y-54352066D01*
X157188036Y-54352066D02*
X156807084Y-54352066D01*
X157807084Y-54828256D02*
X157807084Y-53828256D01*
X158473750Y-53828256D02*
X158664226Y-53828256D01*
X158664226Y-53828256D02*
X158759464Y-53875876D01*
X158759464Y-53875876D02*
X158854702Y-53971114D01*
X158854702Y-53971114D02*
X158902321Y-54161590D01*
X158902321Y-54161590D02*
X158902321Y-54494923D01*
X158902321Y-54494923D02*
X158854702Y-54685399D01*
X158854702Y-54685399D02*
X158759464Y-54780637D01*
X158759464Y-54780637D02*
X158664226Y-54828256D01*
X158664226Y-54828256D02*
X158473750Y-54828256D01*
X158473750Y-54828256D02*
X158378512Y-54780637D01*
X158378512Y-54780637D02*
X158283274Y-54685399D01*
X158283274Y-54685399D02*
X158235655Y-54494923D01*
X158235655Y-54494923D02*
X158235655Y-54161590D01*
X158235655Y-54161590D02*
X158283274Y-53971114D01*
X158283274Y-53971114D02*
X158378512Y-53875876D01*
X158378512Y-53875876D02*
X158473750Y-53828256D01*
X159235655Y-53828256D02*
X159854702Y-53828256D01*
X159854702Y-53828256D02*
X159521369Y-54209209D01*
X159521369Y-54209209D02*
X159664226Y-54209209D01*
X159664226Y-54209209D02*
X159759464Y-54256828D01*
X159759464Y-54256828D02*
X159807083Y-54304447D01*
X159807083Y-54304447D02*
X159854702Y-54399685D01*
X159854702Y-54399685D02*
X159854702Y-54637780D01*
X159854702Y-54637780D02*
X159807083Y-54733018D01*
X159807083Y-54733018D02*
X159759464Y-54780637D01*
X159759464Y-54780637D02*
X159664226Y-54828256D01*
X159664226Y-54828256D02*
X159378512Y-54828256D01*
X159378512Y-54828256D02*
X159283274Y-54780637D01*
X159283274Y-54780637D02*
X159235655Y-54733018D01*
X160711845Y-53828256D02*
X160521369Y-53828256D01*
X160521369Y-53828256D02*
X160426131Y-53875876D01*
X160426131Y-53875876D02*
X160378512Y-53923495D01*
X160378512Y-53923495D02*
X160283274Y-54066352D01*
X160283274Y-54066352D02*
X160235655Y-54256828D01*
X160235655Y-54256828D02*
X160235655Y-54637780D01*
X160235655Y-54637780D02*
X160283274Y-54733018D01*
X160283274Y-54733018D02*
X160330893Y-54780637D01*
X160330893Y-54780637D02*
X160426131Y-54828256D01*
X160426131Y-54828256D02*
X160616607Y-54828256D01*
X160616607Y-54828256D02*
X160711845Y-54780637D01*
X160711845Y-54780637D02*
X160759464Y-54733018D01*
X160759464Y-54733018D02*
X160807083Y-54637780D01*
X160807083Y-54637780D02*
X160807083Y-54399685D01*
X160807083Y-54399685D02*
X160759464Y-54304447D01*
X160759464Y-54304447D02*
X160711845Y-54256828D01*
X160711845Y-54256828D02*
X160616607Y-54209209D01*
X160616607Y-54209209D02*
X160426131Y-54209209D01*
X160426131Y-54209209D02*
X160330893Y-54256828D01*
X160330893Y-54256828D02*
X160283274Y-54304447D01*
X160283274Y-54304447D02*
X160235655Y-54399685D01*
X161140417Y-55209209D02*
X161188036Y-55161590D01*
X161188036Y-55161590D02*
X161283274Y-55018733D01*
X161283274Y-55018733D02*
X161330893Y-54923495D01*
X161330893Y-54923495D02*
X161378512Y-54780637D01*
X161378512Y-54780637D02*
X161426131Y-54542542D01*
X161426131Y-54542542D02*
X161426131Y-54352066D01*
X161426131Y-54352066D02*
X161378512Y-54113971D01*
X161378512Y-54113971D02*
X161330893Y-53971114D01*
X161330893Y-53971114D02*
X161283274Y-53875876D01*
X161283274Y-53875876D02*
X161188036Y-53733018D01*
X161188036Y-53733018D02*
X161140417Y-53685399D01*
X130771197Y-55209209D02*
X130723578Y-55161590D01*
X130723578Y-55161590D02*
X130628340Y-55018733D01*
X130628340Y-55018733D02*
X130580721Y-54923495D01*
X130580721Y-54923495D02*
X130533102Y-54780637D01*
X130533102Y-54780637D02*
X130485483Y-54542542D01*
X130485483Y-54542542D02*
X130485483Y-54352066D01*
X130485483Y-54352066D02*
X130533102Y-54113971D01*
X130533102Y-54113971D02*
X130580721Y-53971114D01*
X130580721Y-53971114D02*
X130628340Y-53875876D01*
X130628340Y-53875876D02*
X130723578Y-53733018D01*
X130723578Y-53733018D02*
X130771197Y-53685399D01*
X131675959Y-53875876D02*
X131580721Y-53828256D01*
X131580721Y-53828256D02*
X131437864Y-53828256D01*
X131437864Y-53828256D02*
X131295007Y-53875876D01*
X131295007Y-53875876D02*
X131199769Y-53971114D01*
X131199769Y-53971114D02*
X131152150Y-54066352D01*
X131152150Y-54066352D02*
X131104531Y-54256828D01*
X131104531Y-54256828D02*
X131104531Y-54399685D01*
X131104531Y-54399685D02*
X131152150Y-54590161D01*
X131152150Y-54590161D02*
X131199769Y-54685399D01*
X131199769Y-54685399D02*
X131295007Y-54780637D01*
X131295007Y-54780637D02*
X131437864Y-54828256D01*
X131437864Y-54828256D02*
X131533102Y-54828256D01*
X131533102Y-54828256D02*
X131675959Y-54780637D01*
X131675959Y-54780637D02*
X131723578Y-54733018D01*
X131723578Y-54733018D02*
X131723578Y-54399685D01*
X131723578Y-54399685D02*
X131533102Y-54399685D01*
X132152150Y-54828256D02*
X132152150Y-53828256D01*
X132152150Y-53828256D02*
X132533102Y-53828256D01*
X132533102Y-53828256D02*
X132628340Y-53875876D01*
X132628340Y-53875876D02*
X132675959Y-53923495D01*
X132675959Y-53923495D02*
X132723578Y-54018733D01*
X132723578Y-54018733D02*
X132723578Y-54161590D01*
X132723578Y-54161590D02*
X132675959Y-54256828D01*
X132675959Y-54256828D02*
X132628340Y-54304447D01*
X132628340Y-54304447D02*
X132533102Y-54352066D01*
X132533102Y-54352066D02*
X132152150Y-54352066D01*
X133152150Y-54828256D02*
X133152150Y-53828256D01*
X133818816Y-53828256D02*
X134009292Y-53828256D01*
X134009292Y-53828256D02*
X134104530Y-53875876D01*
X134104530Y-53875876D02*
X134199768Y-53971114D01*
X134199768Y-53971114D02*
X134247387Y-54161590D01*
X134247387Y-54161590D02*
X134247387Y-54494923D01*
X134247387Y-54494923D02*
X134199768Y-54685399D01*
X134199768Y-54685399D02*
X134104530Y-54780637D01*
X134104530Y-54780637D02*
X134009292Y-54828256D01*
X134009292Y-54828256D02*
X133818816Y-54828256D01*
X133818816Y-54828256D02*
X133723578Y-54780637D01*
X133723578Y-54780637D02*
X133628340Y-54685399D01*
X133628340Y-54685399D02*
X133580721Y-54494923D01*
X133580721Y-54494923D02*
X133580721Y-54161590D01*
X133580721Y-54161590D02*
X133628340Y-53971114D01*
X133628340Y-53971114D02*
X133723578Y-53875876D01*
X133723578Y-53875876D02*
X133818816Y-53828256D01*
X134580721Y-53828256D02*
X135199768Y-53828256D01*
X135199768Y-53828256D02*
X134866435Y-54209209D01*
X134866435Y-54209209D02*
X135009292Y-54209209D01*
X135009292Y-54209209D02*
X135104530Y-54256828D01*
X135104530Y-54256828D02*
X135152149Y-54304447D01*
X135152149Y-54304447D02*
X135199768Y-54399685D01*
X135199768Y-54399685D02*
X135199768Y-54637780D01*
X135199768Y-54637780D02*
X135152149Y-54733018D01*
X135152149Y-54733018D02*
X135104530Y-54780637D01*
X135104530Y-54780637D02*
X135009292Y-54828256D01*
X135009292Y-54828256D02*
X134723578Y-54828256D01*
X134723578Y-54828256D02*
X134628340Y-54780637D01*
X134628340Y-54780637D02*
X134580721Y-54733018D01*
X136056911Y-54161590D02*
X136056911Y-54828256D01*
X135818816Y-53780637D02*
X135580721Y-54494923D01*
X135580721Y-54494923D02*
X136199768Y-54494923D01*
X136485483Y-55209209D02*
X136533102Y-55161590D01*
X136533102Y-55161590D02*
X136628340Y-55018733D01*
X136628340Y-55018733D02*
X136675959Y-54923495D01*
X136675959Y-54923495D02*
X136723578Y-54780637D01*
X136723578Y-54780637D02*
X136771197Y-54542542D01*
X136771197Y-54542542D02*
X136771197Y-54352066D01*
X136771197Y-54352066D02*
X136723578Y-54113971D01*
X136723578Y-54113971D02*
X136675959Y-53971114D01*
X136675959Y-53971114D02*
X136628340Y-53875876D01*
X136628340Y-53875876D02*
X136533102Y-53733018D01*
X136533102Y-53733018D02*
X136485483Y-53685399D01*
X162798095Y-92828875D02*
X162798095Y-91828875D01*
X163369523Y-92828875D02*
X162940952Y-92257447D01*
X163369523Y-91828875D02*
X162798095Y-92400304D01*
%TO.C,R8*%
X152437780Y-65333466D02*
X151961590Y-65666799D01*
X152437780Y-65904894D02*
X151437780Y-65904894D01*
X151437780Y-65904894D02*
X151437780Y-65523942D01*
X151437780Y-65523942D02*
X151485400Y-65428704D01*
X151485400Y-65428704D02*
X151533019Y-65381085D01*
X151533019Y-65381085D02*
X151628257Y-65333466D01*
X151628257Y-65333466D02*
X151771114Y-65333466D01*
X151771114Y-65333466D02*
X151866352Y-65381085D01*
X151866352Y-65381085D02*
X151913971Y-65428704D01*
X151913971Y-65428704D02*
X151961590Y-65523942D01*
X151961590Y-65523942D02*
X151961590Y-65904894D01*
X151866352Y-64762037D02*
X151818733Y-64857275D01*
X151818733Y-64857275D02*
X151771114Y-64904894D01*
X151771114Y-64904894D02*
X151675876Y-64952513D01*
X151675876Y-64952513D02*
X151628257Y-64952513D01*
X151628257Y-64952513D02*
X151533019Y-64904894D01*
X151533019Y-64904894D02*
X151485400Y-64857275D01*
X151485400Y-64857275D02*
X151437780Y-64762037D01*
X151437780Y-64762037D02*
X151437780Y-64571561D01*
X151437780Y-64571561D02*
X151485400Y-64476323D01*
X151485400Y-64476323D02*
X151533019Y-64428704D01*
X151533019Y-64428704D02*
X151628257Y-64381085D01*
X151628257Y-64381085D02*
X151675876Y-64381085D01*
X151675876Y-64381085D02*
X151771114Y-64428704D01*
X151771114Y-64428704D02*
X151818733Y-64476323D01*
X151818733Y-64476323D02*
X151866352Y-64571561D01*
X151866352Y-64571561D02*
X151866352Y-64762037D01*
X151866352Y-64762037D02*
X151913971Y-64857275D01*
X151913971Y-64857275D02*
X151961590Y-64904894D01*
X151961590Y-64904894D02*
X152056828Y-64952513D01*
X152056828Y-64952513D02*
X152247304Y-64952513D01*
X152247304Y-64952513D02*
X152342542Y-64904894D01*
X152342542Y-64904894D02*
X152390161Y-64857275D01*
X152390161Y-64857275D02*
X152437780Y-64762037D01*
X152437780Y-64762037D02*
X152437780Y-64571561D01*
X152437780Y-64571561D02*
X152390161Y-64476323D01*
X152390161Y-64476323D02*
X152342542Y-64428704D01*
X152342542Y-64428704D02*
X152247304Y-64381085D01*
X152247304Y-64381085D02*
X152056828Y-64381085D01*
X152056828Y-64381085D02*
X151961590Y-64428704D01*
X151961590Y-64428704D02*
X151913971Y-64476323D01*
X151913971Y-64476323D02*
X151866352Y-64571561D01*
X154311114Y-66190609D02*
X154977780Y-66190609D01*
X153930161Y-66428704D02*
X154644447Y-66666799D01*
X154644447Y-66666799D02*
X154644447Y-66047752D01*
X154882542Y-65666799D02*
X154930161Y-65619180D01*
X154930161Y-65619180D02*
X154977780Y-65666799D01*
X154977780Y-65666799D02*
X154930161Y-65714418D01*
X154930161Y-65714418D02*
X154882542Y-65666799D01*
X154882542Y-65666799D02*
X154977780Y-65666799D01*
X153977780Y-65285847D02*
X153977780Y-64619181D01*
X153977780Y-64619181D02*
X154977780Y-65047752D01*
X154977780Y-64238228D02*
X153977780Y-64238228D01*
X154977780Y-63666800D02*
X154406352Y-64095371D01*
X153977780Y-63666800D02*
X154549209Y-64238228D01*
%TO.C,R2*%
X142389080Y-83829866D02*
X141912890Y-84163199D01*
X142389080Y-84401294D02*
X141389080Y-84401294D01*
X141389080Y-84401294D02*
X141389080Y-84020342D01*
X141389080Y-84020342D02*
X141436700Y-83925104D01*
X141436700Y-83925104D02*
X141484319Y-83877485D01*
X141484319Y-83877485D02*
X141579557Y-83829866D01*
X141579557Y-83829866D02*
X141722414Y-83829866D01*
X141722414Y-83829866D02*
X141817652Y-83877485D01*
X141817652Y-83877485D02*
X141865271Y-83925104D01*
X141865271Y-83925104D02*
X141912890Y-84020342D01*
X141912890Y-84020342D02*
X141912890Y-84401294D01*
X141484319Y-83448913D02*
X141436700Y-83401294D01*
X141436700Y-83401294D02*
X141389080Y-83306056D01*
X141389080Y-83306056D02*
X141389080Y-83067961D01*
X141389080Y-83067961D02*
X141436700Y-82972723D01*
X141436700Y-82972723D02*
X141484319Y-82925104D01*
X141484319Y-82925104D02*
X141579557Y-82877485D01*
X141579557Y-82877485D02*
X141674795Y-82877485D01*
X141674795Y-82877485D02*
X141817652Y-82925104D01*
X141817652Y-82925104D02*
X142389080Y-83496532D01*
X142389080Y-83496532D02*
X142389080Y-82877485D01*
X144929080Y-84353676D02*
X144929080Y-84925104D01*
X144929080Y-84639390D02*
X143929080Y-84639390D01*
X143929080Y-84639390D02*
X144071938Y-84734628D01*
X144071938Y-84734628D02*
X144167176Y-84829866D01*
X144167176Y-84829866D02*
X144214795Y-84925104D01*
X143929080Y-83734628D02*
X143929080Y-83639390D01*
X143929080Y-83639390D02*
X143976700Y-83544152D01*
X143976700Y-83544152D02*
X144024319Y-83496533D01*
X144024319Y-83496533D02*
X144119557Y-83448914D01*
X144119557Y-83448914D02*
X144310033Y-83401295D01*
X144310033Y-83401295D02*
X144548128Y-83401295D01*
X144548128Y-83401295D02*
X144738604Y-83448914D01*
X144738604Y-83448914D02*
X144833842Y-83496533D01*
X144833842Y-83496533D02*
X144881461Y-83544152D01*
X144881461Y-83544152D02*
X144929080Y-83639390D01*
X144929080Y-83639390D02*
X144929080Y-83734628D01*
X144929080Y-83734628D02*
X144881461Y-83829866D01*
X144881461Y-83829866D02*
X144833842Y-83877485D01*
X144833842Y-83877485D02*
X144738604Y-83925104D01*
X144738604Y-83925104D02*
X144548128Y-83972723D01*
X144548128Y-83972723D02*
X144310033Y-83972723D01*
X144310033Y-83972723D02*
X144119557Y-83925104D01*
X144119557Y-83925104D02*
X144024319Y-83877485D01*
X144024319Y-83877485D02*
X143976700Y-83829866D01*
X143976700Y-83829866D02*
X143929080Y-83734628D01*
X144929080Y-82972723D02*
X143929080Y-82972723D01*
X144929080Y-82401295D02*
X144357652Y-82829866D01*
X143929080Y-82401295D02*
X144500509Y-82972723D01*
%TO.C,Q1*%
X136767319Y-88162938D02*
X136719700Y-88258176D01*
X136719700Y-88258176D02*
X136624461Y-88353414D01*
X136624461Y-88353414D02*
X136481604Y-88496271D01*
X136481604Y-88496271D02*
X136433985Y-88591509D01*
X136433985Y-88591509D02*
X136433985Y-88686747D01*
X136672080Y-88639128D02*
X136624461Y-88734366D01*
X136624461Y-88734366D02*
X136529223Y-88829604D01*
X136529223Y-88829604D02*
X136338747Y-88877223D01*
X136338747Y-88877223D02*
X136005414Y-88877223D01*
X136005414Y-88877223D02*
X135814938Y-88829604D01*
X135814938Y-88829604D02*
X135719700Y-88734366D01*
X135719700Y-88734366D02*
X135672080Y-88639128D01*
X135672080Y-88639128D02*
X135672080Y-88448652D01*
X135672080Y-88448652D02*
X135719700Y-88353414D01*
X135719700Y-88353414D02*
X135814938Y-88258176D01*
X135814938Y-88258176D02*
X136005414Y-88210557D01*
X136005414Y-88210557D02*
X136338747Y-88210557D01*
X136338747Y-88210557D02*
X136529223Y-88258176D01*
X136529223Y-88258176D02*
X136624461Y-88353414D01*
X136624461Y-88353414D02*
X136672080Y-88448652D01*
X136672080Y-88448652D02*
X136672080Y-88639128D01*
X136672080Y-87258176D02*
X136672080Y-87829604D01*
X136672080Y-87543890D02*
X135672080Y-87543890D01*
X135672080Y-87543890D02*
X135814938Y-87639128D01*
X135814938Y-87639128D02*
X135910176Y-87734366D01*
X135910176Y-87734366D02*
X135957795Y-87829604D01*
%TO.C,R4*%
X152549080Y-83829866D02*
X152072890Y-84163199D01*
X152549080Y-84401294D02*
X151549080Y-84401294D01*
X151549080Y-84401294D02*
X151549080Y-84020342D01*
X151549080Y-84020342D02*
X151596700Y-83925104D01*
X151596700Y-83925104D02*
X151644319Y-83877485D01*
X151644319Y-83877485D02*
X151739557Y-83829866D01*
X151739557Y-83829866D02*
X151882414Y-83829866D01*
X151882414Y-83829866D02*
X151977652Y-83877485D01*
X151977652Y-83877485D02*
X152025271Y-83925104D01*
X152025271Y-83925104D02*
X152072890Y-84020342D01*
X152072890Y-84020342D02*
X152072890Y-84401294D01*
X151882414Y-82972723D02*
X152549080Y-82972723D01*
X151501461Y-83210818D02*
X152215747Y-83448913D01*
X152215747Y-83448913D02*
X152215747Y-82829866D01*
X154184319Y-84901294D02*
X154136700Y-84853675D01*
X154136700Y-84853675D02*
X154089080Y-84758437D01*
X154089080Y-84758437D02*
X154089080Y-84520342D01*
X154089080Y-84520342D02*
X154136700Y-84425104D01*
X154136700Y-84425104D02*
X154184319Y-84377485D01*
X154184319Y-84377485D02*
X154279557Y-84329866D01*
X154279557Y-84329866D02*
X154374795Y-84329866D01*
X154374795Y-84329866D02*
X154517652Y-84377485D01*
X154517652Y-84377485D02*
X155089080Y-84948913D01*
X155089080Y-84948913D02*
X155089080Y-84329866D01*
X154184319Y-83948913D02*
X154136700Y-83901294D01*
X154136700Y-83901294D02*
X154089080Y-83806056D01*
X154089080Y-83806056D02*
X154089080Y-83567961D01*
X154089080Y-83567961D02*
X154136700Y-83472723D01*
X154136700Y-83472723D02*
X154184319Y-83425104D01*
X154184319Y-83425104D02*
X154279557Y-83377485D01*
X154279557Y-83377485D02*
X154374795Y-83377485D01*
X154374795Y-83377485D02*
X154517652Y-83425104D01*
X154517652Y-83425104D02*
X155089080Y-83996532D01*
X155089080Y-83996532D02*
X155089080Y-83377485D01*
X154089080Y-82758437D02*
X154089080Y-82663199D01*
X154089080Y-82663199D02*
X154136700Y-82567961D01*
X154136700Y-82567961D02*
X154184319Y-82520342D01*
X154184319Y-82520342D02*
X154279557Y-82472723D01*
X154279557Y-82472723D02*
X154470033Y-82425104D01*
X154470033Y-82425104D02*
X154708128Y-82425104D01*
X154708128Y-82425104D02*
X154898604Y-82472723D01*
X154898604Y-82472723D02*
X154993842Y-82520342D01*
X154993842Y-82520342D02*
X155041461Y-82567961D01*
X155041461Y-82567961D02*
X155089080Y-82663199D01*
X155089080Y-82663199D02*
X155089080Y-82758437D01*
X155089080Y-82758437D02*
X155041461Y-82853675D01*
X155041461Y-82853675D02*
X154993842Y-82901294D01*
X154993842Y-82901294D02*
X154898604Y-82948913D01*
X154898604Y-82948913D02*
X154708128Y-82996532D01*
X154708128Y-82996532D02*
X154470033Y-82996532D01*
X154470033Y-82996532D02*
X154279557Y-82948913D01*
X154279557Y-82948913D02*
X154184319Y-82901294D01*
X154184319Y-82901294D02*
X154136700Y-82853675D01*
X154136700Y-82853675D02*
X154089080Y-82758437D01*
%TO.C,R7*%
X147357780Y-65333466D02*
X146881590Y-65666799D01*
X147357780Y-65904894D02*
X146357780Y-65904894D01*
X146357780Y-65904894D02*
X146357780Y-65523942D01*
X146357780Y-65523942D02*
X146405400Y-65428704D01*
X146405400Y-65428704D02*
X146453019Y-65381085D01*
X146453019Y-65381085D02*
X146548257Y-65333466D01*
X146548257Y-65333466D02*
X146691114Y-65333466D01*
X146691114Y-65333466D02*
X146786352Y-65381085D01*
X146786352Y-65381085D02*
X146833971Y-65428704D01*
X146833971Y-65428704D02*
X146881590Y-65523942D01*
X146881590Y-65523942D02*
X146881590Y-65904894D01*
X146357780Y-65000132D02*
X146357780Y-64333466D01*
X146357780Y-64333466D02*
X147357780Y-64762037D01*
X148993019Y-66404894D02*
X148945400Y-66357275D01*
X148945400Y-66357275D02*
X148897780Y-66262037D01*
X148897780Y-66262037D02*
X148897780Y-66023942D01*
X148897780Y-66023942D02*
X148945400Y-65928704D01*
X148945400Y-65928704D02*
X148993019Y-65881085D01*
X148993019Y-65881085D02*
X149088257Y-65833466D01*
X149088257Y-65833466D02*
X149183495Y-65833466D01*
X149183495Y-65833466D02*
X149326352Y-65881085D01*
X149326352Y-65881085D02*
X149897780Y-66452513D01*
X149897780Y-66452513D02*
X149897780Y-65833466D01*
X148993019Y-65452513D02*
X148945400Y-65404894D01*
X148945400Y-65404894D02*
X148897780Y-65309656D01*
X148897780Y-65309656D02*
X148897780Y-65071561D01*
X148897780Y-65071561D02*
X148945400Y-64976323D01*
X148945400Y-64976323D02*
X148993019Y-64928704D01*
X148993019Y-64928704D02*
X149088257Y-64881085D01*
X149088257Y-64881085D02*
X149183495Y-64881085D01*
X149183495Y-64881085D02*
X149326352Y-64928704D01*
X149326352Y-64928704D02*
X149897780Y-65500132D01*
X149897780Y-65500132D02*
X149897780Y-64881085D01*
X148897780Y-64262037D02*
X148897780Y-64166799D01*
X148897780Y-64166799D02*
X148945400Y-64071561D01*
X148945400Y-64071561D02*
X148993019Y-64023942D01*
X148993019Y-64023942D02*
X149088257Y-63976323D01*
X149088257Y-63976323D02*
X149278733Y-63928704D01*
X149278733Y-63928704D02*
X149516828Y-63928704D01*
X149516828Y-63928704D02*
X149707304Y-63976323D01*
X149707304Y-63976323D02*
X149802542Y-64023942D01*
X149802542Y-64023942D02*
X149850161Y-64071561D01*
X149850161Y-64071561D02*
X149897780Y-64166799D01*
X149897780Y-64166799D02*
X149897780Y-64262037D01*
X149897780Y-64262037D02*
X149850161Y-64357275D01*
X149850161Y-64357275D02*
X149802542Y-64404894D01*
X149802542Y-64404894D02*
X149707304Y-64452513D01*
X149707304Y-64452513D02*
X149516828Y-64500132D01*
X149516828Y-64500132D02*
X149278733Y-64500132D01*
X149278733Y-64500132D02*
X149088257Y-64452513D01*
X149088257Y-64452513D02*
X148993019Y-64404894D01*
X148993019Y-64404894D02*
X148945400Y-64357275D01*
X148945400Y-64357275D02*
X148897780Y-64262037D01*
%TO.C,R1*%
X137309080Y-83829866D02*
X136832890Y-84163199D01*
X137309080Y-84401294D02*
X136309080Y-84401294D01*
X136309080Y-84401294D02*
X136309080Y-84020342D01*
X136309080Y-84020342D02*
X136356700Y-83925104D01*
X136356700Y-83925104D02*
X136404319Y-83877485D01*
X136404319Y-83877485D02*
X136499557Y-83829866D01*
X136499557Y-83829866D02*
X136642414Y-83829866D01*
X136642414Y-83829866D02*
X136737652Y-83877485D01*
X136737652Y-83877485D02*
X136785271Y-83925104D01*
X136785271Y-83925104D02*
X136832890Y-84020342D01*
X136832890Y-84020342D02*
X136832890Y-84401294D01*
X137309080Y-82877485D02*
X137309080Y-83448913D01*
X137309080Y-83163199D02*
X136309080Y-83163199D01*
X136309080Y-83163199D02*
X136451938Y-83258437D01*
X136451938Y-83258437D02*
X136547176Y-83353675D01*
X136547176Y-83353675D02*
X136594795Y-83448913D01*
X139849080Y-84353676D02*
X139849080Y-84925104D01*
X139849080Y-84639390D02*
X138849080Y-84639390D01*
X138849080Y-84639390D02*
X138991938Y-84734628D01*
X138991938Y-84734628D02*
X139087176Y-84829866D01*
X139087176Y-84829866D02*
X139134795Y-84925104D01*
X138849080Y-83734628D02*
X138849080Y-83639390D01*
X138849080Y-83639390D02*
X138896700Y-83544152D01*
X138896700Y-83544152D02*
X138944319Y-83496533D01*
X138944319Y-83496533D02*
X139039557Y-83448914D01*
X139039557Y-83448914D02*
X139230033Y-83401295D01*
X139230033Y-83401295D02*
X139468128Y-83401295D01*
X139468128Y-83401295D02*
X139658604Y-83448914D01*
X139658604Y-83448914D02*
X139753842Y-83496533D01*
X139753842Y-83496533D02*
X139801461Y-83544152D01*
X139801461Y-83544152D02*
X139849080Y-83639390D01*
X139849080Y-83639390D02*
X139849080Y-83734628D01*
X139849080Y-83734628D02*
X139801461Y-83829866D01*
X139801461Y-83829866D02*
X139753842Y-83877485D01*
X139753842Y-83877485D02*
X139658604Y-83925104D01*
X139658604Y-83925104D02*
X139468128Y-83972723D01*
X139468128Y-83972723D02*
X139230033Y-83972723D01*
X139230033Y-83972723D02*
X139039557Y-83925104D01*
X139039557Y-83925104D02*
X138944319Y-83877485D01*
X138944319Y-83877485D02*
X138896700Y-83829866D01*
X138896700Y-83829866D02*
X138849080Y-83734628D01*
X139849080Y-82972723D02*
X138849080Y-82972723D01*
X139849080Y-82401295D02*
X139277652Y-82829866D01*
X138849080Y-82401295D02*
X139420509Y-82972723D01*
%TO.C,U1*%
X144999506Y-94426569D02*
X144999506Y-95236093D01*
X144999506Y-95236093D02*
X145047125Y-95331331D01*
X145047125Y-95331331D02*
X145094744Y-95378950D01*
X145094744Y-95378950D02*
X145189982Y-95426569D01*
X145189982Y-95426569D02*
X145380458Y-95426569D01*
X145380458Y-95426569D02*
X145475696Y-95378950D01*
X145475696Y-95378950D02*
X145523315Y-95331331D01*
X145523315Y-95331331D02*
X145570934Y-95236093D01*
X145570934Y-95236093D02*
X145570934Y-94426569D01*
X146570934Y-95426569D02*
X145999506Y-95426569D01*
X146285220Y-95426569D02*
X146285220Y-94426569D01*
X146285220Y-94426569D02*
X146189982Y-94569427D01*
X146189982Y-94569427D02*
X146094744Y-94664665D01*
X146094744Y-94664665D02*
X145999506Y-94712284D01*
%TO.C,R9*%
X157517780Y-65333466D02*
X157041590Y-65666799D01*
X157517780Y-65904894D02*
X156517780Y-65904894D01*
X156517780Y-65904894D02*
X156517780Y-65523942D01*
X156517780Y-65523942D02*
X156565400Y-65428704D01*
X156565400Y-65428704D02*
X156613019Y-65381085D01*
X156613019Y-65381085D02*
X156708257Y-65333466D01*
X156708257Y-65333466D02*
X156851114Y-65333466D01*
X156851114Y-65333466D02*
X156946352Y-65381085D01*
X156946352Y-65381085D02*
X156993971Y-65428704D01*
X156993971Y-65428704D02*
X157041590Y-65523942D01*
X157041590Y-65523942D02*
X157041590Y-65904894D01*
X157517780Y-64857275D02*
X157517780Y-64666799D01*
X157517780Y-64666799D02*
X157470161Y-64571561D01*
X157470161Y-64571561D02*
X157422542Y-64523942D01*
X157422542Y-64523942D02*
X157279685Y-64428704D01*
X157279685Y-64428704D02*
X157089209Y-64381085D01*
X157089209Y-64381085D02*
X156708257Y-64381085D01*
X156708257Y-64381085D02*
X156613019Y-64428704D01*
X156613019Y-64428704D02*
X156565400Y-64476323D01*
X156565400Y-64476323D02*
X156517780Y-64571561D01*
X156517780Y-64571561D02*
X156517780Y-64762037D01*
X156517780Y-64762037D02*
X156565400Y-64857275D01*
X156565400Y-64857275D02*
X156613019Y-64904894D01*
X156613019Y-64904894D02*
X156708257Y-64952513D01*
X156708257Y-64952513D02*
X156946352Y-64952513D01*
X156946352Y-64952513D02*
X157041590Y-64904894D01*
X157041590Y-64904894D02*
X157089209Y-64857275D01*
X157089209Y-64857275D02*
X157136828Y-64762037D01*
X157136828Y-64762037D02*
X157136828Y-64571561D01*
X157136828Y-64571561D02*
X157089209Y-64476323D01*
X157089209Y-64476323D02*
X157041590Y-64428704D01*
X157041590Y-64428704D02*
X156946352Y-64381085D01*
X160057780Y-65381085D02*
X160057780Y-65952513D01*
X160057780Y-65666799D02*
X159057780Y-65666799D01*
X159057780Y-65666799D02*
X159200638Y-65762037D01*
X159200638Y-65762037D02*
X159295876Y-65857275D01*
X159295876Y-65857275D02*
X159343495Y-65952513D01*
X160057780Y-64952513D02*
X159057780Y-64952513D01*
X160057780Y-64381085D02*
X159486352Y-64809656D01*
X159057780Y-64381085D02*
X159629209Y-64952513D01*
%TO.C,R3*%
X147469080Y-83829866D02*
X146992890Y-84163199D01*
X147469080Y-84401294D02*
X146469080Y-84401294D01*
X146469080Y-84401294D02*
X146469080Y-84020342D01*
X146469080Y-84020342D02*
X146516700Y-83925104D01*
X146516700Y-83925104D02*
X146564319Y-83877485D01*
X146564319Y-83877485D02*
X146659557Y-83829866D01*
X146659557Y-83829866D02*
X146802414Y-83829866D01*
X146802414Y-83829866D02*
X146897652Y-83877485D01*
X146897652Y-83877485D02*
X146945271Y-83925104D01*
X146945271Y-83925104D02*
X146992890Y-84020342D01*
X146992890Y-84020342D02*
X146992890Y-84401294D01*
X146469080Y-83496532D02*
X146469080Y-82877485D01*
X146469080Y-82877485D02*
X146850033Y-83210818D01*
X146850033Y-83210818D02*
X146850033Y-83067961D01*
X146850033Y-83067961D02*
X146897652Y-82972723D01*
X146897652Y-82972723D02*
X146945271Y-82925104D01*
X146945271Y-82925104D02*
X147040509Y-82877485D01*
X147040509Y-82877485D02*
X147278604Y-82877485D01*
X147278604Y-82877485D02*
X147373842Y-82925104D01*
X147373842Y-82925104D02*
X147421461Y-82972723D01*
X147421461Y-82972723D02*
X147469080Y-83067961D01*
X147469080Y-83067961D02*
X147469080Y-83353675D01*
X147469080Y-83353675D02*
X147421461Y-83448913D01*
X147421461Y-83448913D02*
X147373842Y-83496532D01*
X150009080Y-84353676D02*
X150009080Y-84925104D01*
X150009080Y-84639390D02*
X149009080Y-84639390D01*
X149009080Y-84639390D02*
X149151938Y-84734628D01*
X149151938Y-84734628D02*
X149247176Y-84829866D01*
X149247176Y-84829866D02*
X149294795Y-84925104D01*
X149009080Y-83734628D02*
X149009080Y-83639390D01*
X149009080Y-83639390D02*
X149056700Y-83544152D01*
X149056700Y-83544152D02*
X149104319Y-83496533D01*
X149104319Y-83496533D02*
X149199557Y-83448914D01*
X149199557Y-83448914D02*
X149390033Y-83401295D01*
X149390033Y-83401295D02*
X149628128Y-83401295D01*
X149628128Y-83401295D02*
X149818604Y-83448914D01*
X149818604Y-83448914D02*
X149913842Y-83496533D01*
X149913842Y-83496533D02*
X149961461Y-83544152D01*
X149961461Y-83544152D02*
X150009080Y-83639390D01*
X150009080Y-83639390D02*
X150009080Y-83734628D01*
X150009080Y-83734628D02*
X149961461Y-83829866D01*
X149961461Y-83829866D02*
X149913842Y-83877485D01*
X149913842Y-83877485D02*
X149818604Y-83925104D01*
X149818604Y-83925104D02*
X149628128Y-83972723D01*
X149628128Y-83972723D02*
X149390033Y-83972723D01*
X149390033Y-83972723D02*
X149199557Y-83925104D01*
X149199557Y-83925104D02*
X149104319Y-83877485D01*
X149104319Y-83877485D02*
X149056700Y-83829866D01*
X149056700Y-83829866D02*
X149009080Y-83734628D01*
X150009080Y-82972723D02*
X149009080Y-82972723D01*
X150009080Y-82401295D02*
X149437652Y-82829866D01*
X149009080Y-82401295D02*
X149580509Y-82972723D01*
%TO.C,Passieve_buzzer1*%
X130210748Y-63251018D02*
X130972653Y-63251018D01*
X130591700Y-63631970D02*
X130591700Y-62870066D01*
%TO.C,R6*%
X142277780Y-65333466D02*
X141801590Y-65666799D01*
X142277780Y-65904894D02*
X141277780Y-65904894D01*
X141277780Y-65904894D02*
X141277780Y-65523942D01*
X141277780Y-65523942D02*
X141325400Y-65428704D01*
X141325400Y-65428704D02*
X141373019Y-65381085D01*
X141373019Y-65381085D02*
X141468257Y-65333466D01*
X141468257Y-65333466D02*
X141611114Y-65333466D01*
X141611114Y-65333466D02*
X141706352Y-65381085D01*
X141706352Y-65381085D02*
X141753971Y-65428704D01*
X141753971Y-65428704D02*
X141801590Y-65523942D01*
X141801590Y-65523942D02*
X141801590Y-65904894D01*
X141277780Y-64476323D02*
X141277780Y-64666799D01*
X141277780Y-64666799D02*
X141325400Y-64762037D01*
X141325400Y-64762037D02*
X141373019Y-64809656D01*
X141373019Y-64809656D02*
X141515876Y-64904894D01*
X141515876Y-64904894D02*
X141706352Y-64952513D01*
X141706352Y-64952513D02*
X142087304Y-64952513D01*
X142087304Y-64952513D02*
X142182542Y-64904894D01*
X142182542Y-64904894D02*
X142230161Y-64857275D01*
X142230161Y-64857275D02*
X142277780Y-64762037D01*
X142277780Y-64762037D02*
X142277780Y-64571561D01*
X142277780Y-64571561D02*
X142230161Y-64476323D01*
X142230161Y-64476323D02*
X142182542Y-64428704D01*
X142182542Y-64428704D02*
X142087304Y-64381085D01*
X142087304Y-64381085D02*
X141849209Y-64381085D01*
X141849209Y-64381085D02*
X141753971Y-64428704D01*
X141753971Y-64428704D02*
X141706352Y-64476323D01*
X141706352Y-64476323D02*
X141658733Y-64571561D01*
X141658733Y-64571561D02*
X141658733Y-64762037D01*
X141658733Y-64762037D02*
X141706352Y-64857275D01*
X141706352Y-64857275D02*
X141753971Y-64904894D01*
X141753971Y-64904894D02*
X141849209Y-64952513D01*
X143913019Y-66404894D02*
X143865400Y-66357275D01*
X143865400Y-66357275D02*
X143817780Y-66262037D01*
X143817780Y-66262037D02*
X143817780Y-66023942D01*
X143817780Y-66023942D02*
X143865400Y-65928704D01*
X143865400Y-65928704D02*
X143913019Y-65881085D01*
X143913019Y-65881085D02*
X144008257Y-65833466D01*
X144008257Y-65833466D02*
X144103495Y-65833466D01*
X144103495Y-65833466D02*
X144246352Y-65881085D01*
X144246352Y-65881085D02*
X144817780Y-66452513D01*
X144817780Y-66452513D02*
X144817780Y-65833466D01*
X143913019Y-65452513D02*
X143865400Y-65404894D01*
X143865400Y-65404894D02*
X143817780Y-65309656D01*
X143817780Y-65309656D02*
X143817780Y-65071561D01*
X143817780Y-65071561D02*
X143865400Y-64976323D01*
X143865400Y-64976323D02*
X143913019Y-64928704D01*
X143913019Y-64928704D02*
X144008257Y-64881085D01*
X144008257Y-64881085D02*
X144103495Y-64881085D01*
X144103495Y-64881085D02*
X144246352Y-64928704D01*
X144246352Y-64928704D02*
X144817780Y-65500132D01*
X144817780Y-65500132D02*
X144817780Y-64881085D01*
X143817780Y-64262037D02*
X143817780Y-64166799D01*
X143817780Y-64166799D02*
X143865400Y-64071561D01*
X143865400Y-64071561D02*
X143913019Y-64023942D01*
X143913019Y-64023942D02*
X144008257Y-63976323D01*
X144008257Y-63976323D02*
X144198733Y-63928704D01*
X144198733Y-63928704D02*
X144436828Y-63928704D01*
X144436828Y-63928704D02*
X144627304Y-63976323D01*
X144627304Y-63976323D02*
X144722542Y-64023942D01*
X144722542Y-64023942D02*
X144770161Y-64071561D01*
X144770161Y-64071561D02*
X144817780Y-64166799D01*
X144817780Y-64166799D02*
X144817780Y-64262037D01*
X144817780Y-64262037D02*
X144770161Y-64357275D01*
X144770161Y-64357275D02*
X144722542Y-64404894D01*
X144722542Y-64404894D02*
X144627304Y-64452513D01*
X144627304Y-64452513D02*
X144436828Y-64500132D01*
X144436828Y-64500132D02*
X144198733Y-64500132D01*
X144198733Y-64500132D02*
X144008257Y-64452513D01*
X144008257Y-64452513D02*
X143913019Y-64404894D01*
X143913019Y-64404894D02*
X143865400Y-64357275D01*
X143865400Y-64357275D02*
X143817780Y-64262037D01*
%TO.C,R5*%
X157629080Y-83829866D02*
X157152890Y-84163199D01*
X157629080Y-84401294D02*
X156629080Y-84401294D01*
X156629080Y-84401294D02*
X156629080Y-84020342D01*
X156629080Y-84020342D02*
X156676700Y-83925104D01*
X156676700Y-83925104D02*
X156724319Y-83877485D01*
X156724319Y-83877485D02*
X156819557Y-83829866D01*
X156819557Y-83829866D02*
X156962414Y-83829866D01*
X156962414Y-83829866D02*
X157057652Y-83877485D01*
X157057652Y-83877485D02*
X157105271Y-83925104D01*
X157105271Y-83925104D02*
X157152890Y-84020342D01*
X157152890Y-84020342D02*
X157152890Y-84401294D01*
X156629080Y-82925104D02*
X156629080Y-83401294D01*
X156629080Y-83401294D02*
X157105271Y-83448913D01*
X157105271Y-83448913D02*
X157057652Y-83401294D01*
X157057652Y-83401294D02*
X157010033Y-83306056D01*
X157010033Y-83306056D02*
X157010033Y-83067961D01*
X157010033Y-83067961D02*
X157057652Y-82972723D01*
X157057652Y-82972723D02*
X157105271Y-82925104D01*
X157105271Y-82925104D02*
X157200509Y-82877485D01*
X157200509Y-82877485D02*
X157438604Y-82877485D01*
X157438604Y-82877485D02*
X157533842Y-82925104D01*
X157533842Y-82925104D02*
X157581461Y-82972723D01*
X157581461Y-82972723D02*
X157629080Y-83067961D01*
X157629080Y-83067961D02*
X157629080Y-83306056D01*
X157629080Y-83306056D02*
X157581461Y-83401294D01*
X157581461Y-83401294D02*
X157533842Y-83448913D01*
X159264319Y-84901294D02*
X159216700Y-84853675D01*
X159216700Y-84853675D02*
X159169080Y-84758437D01*
X159169080Y-84758437D02*
X159169080Y-84520342D01*
X159169080Y-84520342D02*
X159216700Y-84425104D01*
X159216700Y-84425104D02*
X159264319Y-84377485D01*
X159264319Y-84377485D02*
X159359557Y-84329866D01*
X159359557Y-84329866D02*
X159454795Y-84329866D01*
X159454795Y-84329866D02*
X159597652Y-84377485D01*
X159597652Y-84377485D02*
X160169080Y-84948913D01*
X160169080Y-84948913D02*
X160169080Y-84329866D01*
X159264319Y-83948913D02*
X159216700Y-83901294D01*
X159216700Y-83901294D02*
X159169080Y-83806056D01*
X159169080Y-83806056D02*
X159169080Y-83567961D01*
X159169080Y-83567961D02*
X159216700Y-83472723D01*
X159216700Y-83472723D02*
X159264319Y-83425104D01*
X159264319Y-83425104D02*
X159359557Y-83377485D01*
X159359557Y-83377485D02*
X159454795Y-83377485D01*
X159454795Y-83377485D02*
X159597652Y-83425104D01*
X159597652Y-83425104D02*
X160169080Y-83996532D01*
X160169080Y-83996532D02*
X160169080Y-83377485D01*
X159169080Y-82758437D02*
X159169080Y-82663199D01*
X159169080Y-82663199D02*
X159216700Y-82567961D01*
X159216700Y-82567961D02*
X159264319Y-82520342D01*
X159264319Y-82520342D02*
X159359557Y-82472723D01*
X159359557Y-82472723D02*
X159550033Y-82425104D01*
X159550033Y-82425104D02*
X159788128Y-82425104D01*
X159788128Y-82425104D02*
X159978604Y-82472723D01*
X159978604Y-82472723D02*
X160073842Y-82520342D01*
X160073842Y-82520342D02*
X160121461Y-82567961D01*
X160121461Y-82567961D02*
X160169080Y-82663199D01*
X160169080Y-82663199D02*
X160169080Y-82758437D01*
X160169080Y-82758437D02*
X160121461Y-82853675D01*
X160121461Y-82853675D02*
X160073842Y-82901294D01*
X160073842Y-82901294D02*
X159978604Y-82948913D01*
X159978604Y-82948913D02*
X159788128Y-82996532D01*
X159788128Y-82996532D02*
X159550033Y-82996532D01*
X159550033Y-82996532D02*
X159359557Y-82948913D01*
X159359557Y-82948913D02*
X159264319Y-82901294D01*
X159264319Y-82901294D02*
X159216700Y-82853675D01*
X159216700Y-82853675D02*
X159169080Y-82758437D01*
D11*
%TO.C,R8*%
X154610400Y-71746800D02*
X154610400Y-68436800D01*
X153240400Y-68436800D02*
X155980400Y-68436800D01*
X155980400Y-68436800D02*
X155980400Y-61896800D01*
X153240400Y-61896800D02*
X153240400Y-68436800D01*
X155980400Y-61896800D02*
X153240400Y-61896800D01*
X154610400Y-58586800D02*
X154610400Y-61896800D01*
%TO.C,Reedswitch3*%
X162795400Y-43863800D02*
X162795400Y-43123800D01*
X162795400Y-43123800D02*
X162295400Y-43123800D01*
X162555400Y-51783800D02*
X162555400Y-43363800D01*
X162555400Y-51783800D02*
X152435400Y-51783800D01*
X162555400Y-49724800D02*
X152435400Y-49724800D01*
X162555400Y-45423800D02*
X152435400Y-45423800D01*
X162555400Y-43923800D02*
X152435400Y-43923800D01*
X162555400Y-43363800D02*
X152435400Y-43363800D01*
X160995400Y-51723800D02*
X160995400Y-50723800D01*
X160995400Y-51723800D02*
X158995400Y-51723800D01*
X160995400Y-50723800D02*
X158995400Y-50723800D01*
X158995400Y-51723800D02*
X158995400Y-50723800D01*
X156222400Y-46400800D02*
X156269400Y-46354800D01*
X156029400Y-46184800D02*
X156064400Y-46149800D01*
X155995400Y-51723800D02*
X155995400Y-50723800D01*
X155995400Y-51723800D02*
X153995400Y-51723800D01*
X155995400Y-50723800D02*
X153995400Y-50723800D01*
X153995400Y-51723800D02*
X153995400Y-50723800D01*
X153925400Y-48698800D02*
X153960400Y-48662800D01*
X153720400Y-48492800D02*
X153767400Y-48446800D01*
X152435400Y-51783800D02*
X152435400Y-43363800D01*
X161530399Y-48107799D02*
G75*
G03*
X161530826Y-46740758I-1534992J684000D01*
G01*
X159311401Y-48958799D02*
G75*
G03*
X160678442Y-48959226I684000J1534992D01*
G01*
X160679400Y-45888801D02*
G75*
G03*
X159966595Y-45743548I-683999J-1535000D01*
G01*
X159995400Y-45743801D02*
G75*
G03*
X159312082Y-45889045I0J-1679999D01*
G01*
X158460400Y-46739800D02*
G75*
G03*
X158459974Y-48106842I1535000J-684000D01*
G01*
X156675400Y-47423800D02*
G75*
G03*
X156675400Y-47423800I-1680000J0D01*
G01*
%TO.C,Led3*%
X172288300Y-85889300D02*
X173028300Y-85889300D01*
X173028300Y-85889300D02*
X173028300Y-85389300D01*
X164368300Y-85649300D02*
X172788300Y-85649300D01*
X164368300Y-85649300D02*
X164368300Y-75529300D01*
X166427300Y-85649300D02*
X166427300Y-75529300D01*
X170728300Y-85649300D02*
X170728300Y-75529300D01*
X172228300Y-85649300D02*
X172228300Y-75529300D01*
X172788300Y-85649300D02*
X172788300Y-75529300D01*
X164428300Y-84089300D02*
X165428300Y-84089300D01*
X164428300Y-84089300D02*
X164428300Y-82089300D01*
X165428300Y-84089300D02*
X165428300Y-82089300D01*
X164428300Y-82089300D02*
X165428300Y-82089300D01*
X169751300Y-79316300D02*
X169797300Y-79363300D01*
X169967300Y-79123300D02*
X170002300Y-79158300D01*
X164428300Y-79089300D02*
X165428300Y-79089300D01*
X164428300Y-79089300D02*
X164428300Y-77089300D01*
X165428300Y-79089300D02*
X165428300Y-77089300D01*
X164428300Y-77089300D02*
X165428300Y-77089300D01*
X167453300Y-77019300D02*
X167489300Y-77054300D01*
X167659300Y-76814300D02*
X167705300Y-76861300D01*
X164368300Y-75529300D02*
X172788300Y-75529300D01*
X168044301Y-84624299D02*
G75*
G03*
X169411342Y-84624726I684000J1534992D01*
G01*
X167193301Y-82405301D02*
G75*
G03*
X167192874Y-83772342I1534992J-684000D01*
G01*
X170263299Y-83773300D02*
G75*
G03*
X170408552Y-83060495I-1535000J683999D01*
G01*
X170408299Y-83089300D02*
G75*
G03*
X170263055Y-82405982I-1679999J0D01*
G01*
X169412300Y-81554300D02*
G75*
G03*
X168045258Y-81553874I-684000J-1535000D01*
G01*
X170408300Y-78089300D02*
G75*
G03*
X170408300Y-78089300I-1680000J0D01*
G01*
%TO.C,Led2*%
X172288300Y-100106300D02*
X173028300Y-100106300D01*
X173028300Y-100106300D02*
X173028300Y-99606300D01*
X164368300Y-99866300D02*
X172788300Y-99866300D01*
X164368300Y-99866300D02*
X164368300Y-89746300D01*
X166427300Y-99866300D02*
X166427300Y-89746300D01*
X170728300Y-99866300D02*
X170728300Y-89746300D01*
X172228300Y-99866300D02*
X172228300Y-89746300D01*
X172788300Y-99866300D02*
X172788300Y-89746300D01*
X164428300Y-98306300D02*
X165428300Y-98306300D01*
X164428300Y-98306300D02*
X164428300Y-96306300D01*
X165428300Y-98306300D02*
X165428300Y-96306300D01*
X164428300Y-96306300D02*
X165428300Y-96306300D01*
X169751300Y-93533300D02*
X169797300Y-93580300D01*
X169967300Y-93340300D02*
X170002300Y-93375300D01*
X164428300Y-93306300D02*
X165428300Y-93306300D01*
X164428300Y-93306300D02*
X164428300Y-91306300D01*
X165428300Y-93306300D02*
X165428300Y-91306300D01*
X164428300Y-91306300D02*
X165428300Y-91306300D01*
X167453300Y-91236300D02*
X167489300Y-91271300D01*
X167659300Y-91031300D02*
X167705300Y-91078300D01*
X164368300Y-89746300D02*
X172788300Y-89746300D01*
X168044301Y-98841299D02*
G75*
G03*
X169411342Y-98841726I684000J1534992D01*
G01*
X167193301Y-96622301D02*
G75*
G03*
X167192874Y-97989342I1534992J-684000D01*
G01*
X170263299Y-97990300D02*
G75*
G03*
X170408552Y-97277495I-1535000J683999D01*
G01*
X170408299Y-97306300D02*
G75*
G03*
X170263055Y-96622982I-1679999J0D01*
G01*
X169412300Y-95771300D02*
G75*
G03*
X168045258Y-95770874I-684000J-1535000D01*
G01*
X170408300Y-92306300D02*
G75*
G03*
X170408300Y-92306300I-1680000J0D01*
G01*
%TO.C,PIR1*%
X116677300Y-68163200D02*
X115937300Y-68163200D01*
X115937300Y-68163200D02*
X115937300Y-68663200D01*
X124597300Y-68403200D02*
X116177300Y-68403200D01*
X124597300Y-68403200D02*
X124597300Y-88524200D01*
X122538300Y-68403200D02*
X122538300Y-88524200D01*
X118237300Y-68403200D02*
X118237300Y-88524200D01*
X116737300Y-68403200D02*
X116737300Y-88524200D01*
X116177300Y-68403200D02*
X116177300Y-88524200D01*
X124537300Y-69963200D02*
X123537300Y-69963200D01*
X124537300Y-69963200D02*
X124537300Y-71963200D01*
X123537300Y-69963200D02*
X123537300Y-71963200D01*
X124537300Y-71963200D02*
X123537300Y-71963200D01*
X119214300Y-74736200D02*
X119168300Y-74689200D01*
X118998300Y-74929200D02*
X118963300Y-74894200D01*
X124537300Y-74963200D02*
X123537300Y-74963200D01*
X124537300Y-74963200D02*
X124537300Y-76963200D01*
X123537300Y-74963200D02*
X123537300Y-76963200D01*
X124537300Y-76963200D02*
X123537300Y-76963200D01*
X121512300Y-77033200D02*
X121476300Y-76998200D01*
X121306300Y-77238200D02*
X121260300Y-77191200D01*
X119214300Y-79736200D02*
X119168300Y-79689200D01*
X118998300Y-79929200D02*
X118963300Y-79894200D01*
X124537300Y-79963200D02*
X123537300Y-79963200D01*
X124537300Y-79963200D02*
X124537300Y-81963200D01*
X123537300Y-79963200D02*
X123537300Y-81963200D01*
X124537300Y-81963200D02*
X123537300Y-81963200D01*
X121512300Y-82033200D02*
X121476300Y-81998200D01*
X121306300Y-82238200D02*
X121260300Y-82191200D01*
X119214300Y-84736200D02*
X119168300Y-84689200D01*
X118998300Y-84929200D02*
X118963300Y-84894200D01*
X124537300Y-84963200D02*
X123537300Y-84963200D01*
X124537300Y-84963200D02*
X124537300Y-86963200D01*
X123537300Y-84963200D02*
X123537300Y-86963200D01*
X124537300Y-86963200D02*
X123537300Y-86963200D01*
X121512300Y-87033200D02*
X121476300Y-86998200D01*
X121306300Y-87238200D02*
X121260300Y-87191200D01*
X124597300Y-88524200D02*
X116177300Y-88524200D01*
X120921299Y-69428201D02*
G75*
G03*
X119554258Y-69427774I-684000J-1534992D01*
G01*
X121772299Y-71647199D02*
G75*
G03*
X121772726Y-70280158I-1534992J684000D01*
G01*
X118702301Y-70279200D02*
G75*
G03*
X118557048Y-70992005I1535000J-683999D01*
G01*
X118557301Y-70963200D02*
G75*
G03*
X118702545Y-71646518I1679999J0D01*
G01*
X119553300Y-72498200D02*
G75*
G03*
X120920342Y-72498626I684000J1535000D01*
G01*
X121917300Y-75963200D02*
G75*
G03*
X121917300Y-75963200I-1680000J0D01*
G01*
X121917300Y-80963200D02*
G75*
G03*
X121917300Y-80963200I-1680000J0D01*
G01*
X121917300Y-85963200D02*
G75*
G03*
X121917300Y-85963200I-1680000J0D01*
G01*
%TO.C,R2*%
X144561700Y-77083200D02*
X144561700Y-80393200D01*
X145931700Y-80393200D02*
X143191700Y-80393200D01*
X143191700Y-80393200D02*
X143191700Y-86933200D01*
X145931700Y-86933200D02*
X145931700Y-80393200D01*
X143191700Y-86933200D02*
X145931700Y-86933200D01*
X144561700Y-90243200D02*
X144561700Y-86933200D01*
%TO.C,Q1*%
X130894700Y-86267700D02*
X130894700Y-89867700D01*
X135344699Y-88067700D02*
G75*
G03*
X133843507Y-85711301I-2599999J0D01*
G01*
X131621905Y-85743517D02*
G75*
G03*
X130894701Y-86267701I1122795J-2324183D01*
G01*
X133843507Y-90424100D02*
G75*
G03*
X135344700Y-88067700I-1098807J2356400D01*
G01*
X130894701Y-89867699D02*
G75*
G03*
X131621905Y-90391883I1849999J1799999D01*
G01*
%TO.C,R4*%
X154721700Y-77083200D02*
X154721700Y-80393200D01*
X156091700Y-80393200D02*
X153351700Y-80393200D01*
X153351700Y-80393200D02*
X153351700Y-86933200D01*
X156091700Y-86933200D02*
X156091700Y-80393200D01*
X153351700Y-86933200D02*
X156091700Y-86933200D01*
X154721700Y-90243200D02*
X154721700Y-86933200D01*
%TO.C,Temperatuur_BME280*%
X116592500Y-93268900D02*
X115852500Y-93268900D01*
X115852500Y-93268900D02*
X115852500Y-93768900D01*
X124512500Y-93508900D02*
X116092500Y-93508900D01*
X124512500Y-93508900D02*
X124512500Y-113629900D01*
X122453500Y-93508900D02*
X122453500Y-113629900D01*
X118152500Y-93508900D02*
X118152500Y-113629900D01*
X116652500Y-93508900D02*
X116652500Y-113629900D01*
X116092500Y-93508900D02*
X116092500Y-113629900D01*
X124452500Y-95068900D02*
X123452500Y-95068900D01*
X124452500Y-95068900D02*
X124452500Y-97068900D01*
X123452500Y-95068900D02*
X123452500Y-97068900D01*
X124452500Y-97068900D02*
X123452500Y-97068900D01*
X119129500Y-99841900D02*
X119083500Y-99794900D01*
X118913500Y-100034900D02*
X118878500Y-99999900D01*
X124452500Y-100068900D02*
X123452500Y-100068900D01*
X124452500Y-100068900D02*
X124452500Y-102068900D01*
X123452500Y-100068900D02*
X123452500Y-102068900D01*
X124452500Y-102068900D02*
X123452500Y-102068900D01*
X121427500Y-102138900D02*
X121391500Y-102103900D01*
X121221500Y-102343900D02*
X121175500Y-102296900D01*
X119129500Y-104841900D02*
X119083500Y-104794900D01*
X118913500Y-105034900D02*
X118878500Y-104999900D01*
X124452500Y-105068900D02*
X123452500Y-105068900D01*
X124452500Y-105068900D02*
X124452500Y-107068900D01*
X123452500Y-105068900D02*
X123452500Y-107068900D01*
X124452500Y-107068900D02*
X123452500Y-107068900D01*
X121427500Y-107138900D02*
X121391500Y-107103900D01*
X121221500Y-107343900D02*
X121175500Y-107296900D01*
X119129500Y-109841900D02*
X119083500Y-109794900D01*
X118913500Y-110034900D02*
X118878500Y-109999900D01*
X124452500Y-110068900D02*
X123452500Y-110068900D01*
X124452500Y-110068900D02*
X124452500Y-112068900D01*
X123452500Y-110068900D02*
X123452500Y-112068900D01*
X124452500Y-112068900D02*
X123452500Y-112068900D01*
X121427500Y-112138900D02*
X121391500Y-112103900D01*
X121221500Y-112343900D02*
X121175500Y-112296900D01*
X124512500Y-113629900D02*
X116092500Y-113629900D01*
X120836499Y-94533901D02*
G75*
G03*
X119469458Y-94533474I-684000J-1534992D01*
G01*
X121687499Y-96752899D02*
G75*
G03*
X121687926Y-95385858I-1534992J684000D01*
G01*
X118617501Y-95384900D02*
G75*
G03*
X118472248Y-96097705I1535000J-683999D01*
G01*
X118472501Y-96068900D02*
G75*
G03*
X118617745Y-96752218I1679999J0D01*
G01*
X119468500Y-97603900D02*
G75*
G03*
X120835542Y-97604326I684000J1535000D01*
G01*
X121832500Y-101068900D02*
G75*
G03*
X121832500Y-101068900I-1680000J0D01*
G01*
X121832500Y-106068900D02*
G75*
G03*
X121832500Y-106068900I-1680000J0D01*
G01*
X121832500Y-111068900D02*
G75*
G03*
X121832500Y-111068900I-1680000J0D01*
G01*
%TO.C,R7*%
X149530400Y-71746800D02*
X149530400Y-68436800D01*
X148160400Y-68436800D02*
X150900400Y-68436800D01*
X150900400Y-68436800D02*
X150900400Y-61896800D01*
X148160400Y-61896800D02*
X148160400Y-68436800D01*
X150900400Y-61896800D02*
X148160400Y-61896800D01*
X149530400Y-58586800D02*
X149530400Y-61896800D01*
%TO.C,R1*%
X139481700Y-77083200D02*
X139481700Y-80393200D01*
X140851700Y-80393200D02*
X138111700Y-80393200D01*
X138111700Y-80393200D02*
X138111700Y-86933200D01*
X140851700Y-86933200D02*
X140851700Y-80393200D01*
X138111700Y-86933200D02*
X140851700Y-86933200D01*
X139481700Y-90243200D02*
X139481700Y-86933200D01*
%TO.C,Led1*%
X172288300Y-114323200D02*
X173028300Y-114323200D01*
X173028300Y-114323200D02*
X173028300Y-113823200D01*
X164368300Y-114083200D02*
X172788300Y-114083200D01*
X164368300Y-114083200D02*
X164368300Y-103963200D01*
X166427300Y-114083200D02*
X166427300Y-103963200D01*
X170728300Y-114083200D02*
X170728300Y-103963200D01*
X172228300Y-114083200D02*
X172228300Y-103963200D01*
X172788300Y-114083200D02*
X172788300Y-103963200D01*
X164428300Y-112523200D02*
X165428300Y-112523200D01*
X164428300Y-112523200D02*
X164428300Y-110523200D01*
X165428300Y-112523200D02*
X165428300Y-110523200D01*
X164428300Y-110523200D02*
X165428300Y-110523200D01*
X169751300Y-107750200D02*
X169797300Y-107797200D01*
X169967300Y-107557200D02*
X170002300Y-107592200D01*
X164428300Y-107523200D02*
X165428300Y-107523200D01*
X164428300Y-107523200D02*
X164428300Y-105523200D01*
X165428300Y-107523200D02*
X165428300Y-105523200D01*
X164428300Y-105523200D02*
X165428300Y-105523200D01*
X167453300Y-105453200D02*
X167489300Y-105488200D01*
X167659300Y-105248200D02*
X167705300Y-105295200D01*
X164368300Y-103963200D02*
X172788300Y-103963200D01*
X168044301Y-113058199D02*
G75*
G03*
X169411342Y-113058626I684000J1534992D01*
G01*
X167193301Y-110839201D02*
G75*
G03*
X167192874Y-112206242I1534992J-684000D01*
G01*
X170263299Y-112207200D02*
G75*
G03*
X170408552Y-111494395I-1535000J683999D01*
G01*
X170408299Y-111523200D02*
G75*
G03*
X170263055Y-110839882I-1679999J0D01*
G01*
X169412300Y-109988200D02*
G75*
G03*
X168045258Y-109987774I-684000J-1535000D01*
G01*
X170408300Y-106523200D02*
G75*
G03*
X170408300Y-106523200I-1680000J0D01*
G01*
%TO.C,Reedswitch1*%
X136769600Y-43864800D02*
X136769600Y-43124800D01*
X136769600Y-43124800D02*
X136269600Y-43124800D01*
X136529600Y-51784800D02*
X136529600Y-43364800D01*
X136529600Y-51784800D02*
X126409600Y-51784800D01*
X136529600Y-49725800D02*
X126409600Y-49725800D01*
X136529600Y-45424800D02*
X126409600Y-45424800D01*
X136529600Y-43924800D02*
X126409600Y-43924800D01*
X136529600Y-43364800D02*
X126409600Y-43364800D01*
X134969600Y-51724800D02*
X134969600Y-50724800D01*
X134969600Y-51724800D02*
X132969600Y-51724800D01*
X134969600Y-50724800D02*
X132969600Y-50724800D01*
X132969600Y-51724800D02*
X132969600Y-50724800D01*
X130196600Y-46401800D02*
X130243600Y-46355800D01*
X130003600Y-46185800D02*
X130038600Y-46150800D01*
X129969600Y-51724800D02*
X129969600Y-50724800D01*
X129969600Y-51724800D02*
X127969600Y-51724800D01*
X129969600Y-50724800D02*
X127969600Y-50724800D01*
X127969600Y-51724800D02*
X127969600Y-50724800D01*
X127899600Y-48699800D02*
X127934600Y-48663800D01*
X127694600Y-48493800D02*
X127741600Y-48447800D01*
X126409600Y-51784800D02*
X126409600Y-43364800D01*
X135504599Y-48108799D02*
G75*
G03*
X135505026Y-46741758I-1534992J684000D01*
G01*
X133285601Y-48959799D02*
G75*
G03*
X134652642Y-48960226I684000J1534992D01*
G01*
X134653600Y-45889801D02*
G75*
G03*
X133940795Y-45744548I-683999J-1535000D01*
G01*
X133969600Y-45744801D02*
G75*
G03*
X133286282Y-45890045I0J-1679999D01*
G01*
X132434600Y-46740800D02*
G75*
G03*
X132434174Y-48107842I1535000J-684000D01*
G01*
X130649600Y-47424800D02*
G75*
G03*
X130649600Y-47424800I-1680000J0D01*
G01*
%TO.C,Led4*%
X172288300Y-71672400D02*
X173028300Y-71672400D01*
X173028300Y-71672400D02*
X173028300Y-71172400D01*
X164368300Y-71432400D02*
X172788300Y-71432400D01*
X164368300Y-71432400D02*
X164368300Y-61312400D01*
X166427300Y-71432400D02*
X166427300Y-61312400D01*
X170728300Y-71432400D02*
X170728300Y-61312400D01*
X172228300Y-71432400D02*
X172228300Y-61312400D01*
X172788300Y-71432400D02*
X172788300Y-61312400D01*
X164428300Y-69872400D02*
X165428300Y-69872400D01*
X164428300Y-69872400D02*
X164428300Y-67872400D01*
X165428300Y-69872400D02*
X165428300Y-67872400D01*
X164428300Y-67872400D02*
X165428300Y-67872400D01*
X169751300Y-65099400D02*
X169797300Y-65146400D01*
X169967300Y-64906400D02*
X170002300Y-64941400D01*
X164428300Y-64872400D02*
X165428300Y-64872400D01*
X164428300Y-64872400D02*
X164428300Y-62872400D01*
X165428300Y-64872400D02*
X165428300Y-62872400D01*
X164428300Y-62872400D02*
X165428300Y-62872400D01*
X167453300Y-62802400D02*
X167489300Y-62837400D01*
X167659300Y-62597400D02*
X167705300Y-62644400D01*
X164368300Y-61312400D02*
X172788300Y-61312400D01*
X168044301Y-70407399D02*
G75*
G03*
X169411342Y-70407826I684000J1534992D01*
G01*
X167193301Y-68188401D02*
G75*
G03*
X167192874Y-69555442I1534992J-684000D01*
G01*
X170263299Y-69556400D02*
G75*
G03*
X170408552Y-68843595I-1535000J683999D01*
G01*
X170408299Y-68872400D02*
G75*
G03*
X170263055Y-68189082I-1679999J0D01*
G01*
X169412300Y-67337400D02*
G75*
G03*
X168045258Y-67336974I-684000J-1535000D01*
G01*
X170408300Y-63872400D02*
G75*
G03*
X170408300Y-63872400I-1680000J0D01*
G01*
D12*
%TO.C,U1*%
X130337700Y-95296400D02*
X130337700Y-127203880D01*
X130820300Y-94813800D02*
X136179700Y-94813800D01*
X130820300Y-127686480D02*
X139697600Y-127706800D01*
X136179700Y-94813800D02*
X137729100Y-96464800D01*
X137729100Y-96464800D02*
X153820000Y-96464800D01*
X140612000Y-128621200D02*
X139697600Y-127706800D01*
X140612000Y-128621200D02*
X149667100Y-128621200D01*
X149667100Y-128621200D02*
X150581500Y-127706800D01*
X150581500Y-127706800D02*
X160868500Y-127706800D01*
X153820000Y-96464800D02*
X155496400Y-94813800D01*
X155496400Y-94813800D02*
X160868500Y-94813800D01*
X161351100Y-95296400D02*
X161351100Y-127224200D01*
X130820300Y-94813800D02*
G75*
G03*
X130337700Y-95296400I-1J-482599D01*
G01*
X130337700Y-127203880D02*
G75*
G03*
X130820300Y-127686480I482599J-1D01*
G01*
X161351100Y-95296400D02*
G75*
G03*
X160868500Y-94813800I-482600J0D01*
G01*
X160868500Y-127706800D02*
G75*
G03*
X161351100Y-127224200I0J482600D01*
G01*
D11*
%TO.C,R9*%
X159690400Y-71746800D02*
X159690400Y-68436800D01*
X158320400Y-68436800D02*
X161060400Y-68436800D01*
X161060400Y-68436800D02*
X161060400Y-61896800D01*
X158320400Y-61896800D02*
X158320400Y-68436800D01*
X161060400Y-61896800D02*
X158320400Y-61896800D01*
X159690400Y-58586800D02*
X159690400Y-61896800D01*
%TO.C,12V_voeding_in1*%
X116634900Y-52923200D02*
X115894900Y-52923200D01*
X115894900Y-52923200D02*
X115894900Y-53423200D01*
X124554900Y-53163200D02*
X116134900Y-53163200D01*
X124554900Y-53163200D02*
X124554900Y-63283200D01*
X122495900Y-53163200D02*
X122495900Y-63283200D01*
X118194900Y-53163200D02*
X118194900Y-63283200D01*
X116694900Y-53163200D02*
X116694900Y-63283200D01*
X116134900Y-53163200D02*
X116134900Y-63283200D01*
X124494900Y-54723200D02*
X123494900Y-54723200D01*
X124494900Y-54723200D02*
X124494900Y-56723200D01*
X123494900Y-54723200D02*
X123494900Y-56723200D01*
X124494900Y-56723200D02*
X123494900Y-56723200D01*
X119171900Y-59496200D02*
X119125900Y-59449200D01*
X118955900Y-59689200D02*
X118920900Y-59654200D01*
X124494900Y-59723200D02*
X123494900Y-59723200D01*
X124494900Y-59723200D02*
X124494900Y-61723200D01*
X123494900Y-59723200D02*
X123494900Y-61723200D01*
X124494900Y-61723200D02*
X123494900Y-61723200D01*
X121469900Y-61793200D02*
X121433900Y-61758200D01*
X121263900Y-61998200D02*
X121217900Y-61951200D01*
X124554900Y-63283200D02*
X116134900Y-63283200D01*
X120878899Y-54188201D02*
G75*
G03*
X119511858Y-54187774I-684000J-1534992D01*
G01*
X121729899Y-56407199D02*
G75*
G03*
X121730326Y-55040158I-1534992J684000D01*
G01*
X118659901Y-55039200D02*
G75*
G03*
X118514648Y-55752005I1535000J-683999D01*
G01*
X118514901Y-55723200D02*
G75*
G03*
X118660145Y-56406518I1679999J0D01*
G01*
X119510900Y-57258200D02*
G75*
G03*
X120877942Y-57258626I684000J1535000D01*
G01*
X121874900Y-60723200D02*
G75*
G03*
X121874900Y-60723200I-1680000J0D01*
G01*
%TO.C,R3*%
X149641700Y-77083200D02*
X149641700Y-80393200D01*
X151011700Y-80393200D02*
X148271700Y-80393200D01*
X148271700Y-80393200D02*
X148271700Y-86933200D01*
X151011700Y-86933200D02*
X151011700Y-80393200D01*
X148271700Y-86933200D02*
X151011700Y-86933200D01*
X149641700Y-90243200D02*
X149641700Y-86933200D01*
%TO.C,Passieve_buzzer1*%
X140501700Y-65804590D02*
G75*
G03*
X140501700Y-65804590I-6100000J0D01*
G01*
%TO.C,R6*%
X144450400Y-58586800D02*
X144450400Y-61896800D01*
X145820400Y-61896800D02*
X143080400Y-61896800D01*
X143080400Y-61896800D02*
X143080400Y-68436800D01*
X145820400Y-68436800D02*
X145820400Y-61896800D01*
X143080400Y-68436800D02*
X145820400Y-68436800D01*
X144450400Y-71746800D02*
X144450400Y-68436800D01*
%TO.C,Reedswitch2*%
X150095400Y-43864300D02*
X150095400Y-43124300D01*
X150095400Y-43124300D02*
X149595400Y-43124300D01*
X149855400Y-51784300D02*
X149855400Y-43364300D01*
X149855400Y-51784300D02*
X139735400Y-51784300D01*
X149855400Y-49725300D02*
X139735400Y-49725300D01*
X149855400Y-45424300D02*
X139735400Y-45424300D01*
X149855400Y-43924300D02*
X139735400Y-43924300D01*
X149855400Y-43364300D02*
X139735400Y-43364300D01*
X148295400Y-51724300D02*
X148295400Y-50724300D01*
X148295400Y-51724300D02*
X146295400Y-51724300D01*
X148295400Y-50724300D02*
X146295400Y-50724300D01*
X146295400Y-51724300D02*
X146295400Y-50724300D01*
X143522400Y-46401300D02*
X143569400Y-46355300D01*
X143329400Y-46185300D02*
X143364400Y-46150300D01*
X143295400Y-51724300D02*
X143295400Y-50724300D01*
X143295400Y-51724300D02*
X141295400Y-51724300D01*
X143295400Y-50724300D02*
X141295400Y-50724300D01*
X141295400Y-51724300D02*
X141295400Y-50724300D01*
X141225400Y-48699300D02*
X141260400Y-48663300D01*
X141020400Y-48493300D02*
X141067400Y-48447300D01*
X139735400Y-51784300D02*
X139735400Y-43364300D01*
X148830399Y-48108299D02*
G75*
G03*
X148830826Y-46741258I-1534992J684000D01*
G01*
X146611401Y-48959299D02*
G75*
G03*
X147978442Y-48959726I684000J1534992D01*
G01*
X147979400Y-45889301D02*
G75*
G03*
X147266595Y-45744048I-683999J-1535000D01*
G01*
X147295400Y-45744301D02*
G75*
G03*
X146612082Y-45889545I0J-1679999D01*
G01*
X145760400Y-46740300D02*
G75*
G03*
X145759974Y-48107342I1535000J-684000D01*
G01*
X143975400Y-47424300D02*
G75*
G03*
X143975400Y-47424300I-1680000J0D01*
G01*
%TO.C,R5*%
X159801700Y-90243200D02*
X159801700Y-86933200D01*
X158431700Y-86933200D02*
X161171700Y-86933200D01*
X161171700Y-86933200D02*
X161171700Y-80393200D01*
X158431700Y-80393200D02*
X158431700Y-86933200D01*
X161171700Y-80393200D02*
X158431700Y-80393200D01*
X159801700Y-77083200D02*
X159801700Y-80393200D01*
%TD*%
M02*
