%TF.GenerationSoftware,KiCad,Pcbnew,(7.0.0)*%
%TF.CreationDate,2023-04-02T16:15:30+02:00*%
%TF.ProjectId,QuinLED-ESP32-Breakout,5175696e-4c45-4442-9d45-535033322d42,rev?*%
%TF.SameCoordinates,Original*%
%TF.FileFunction,Soldermask,Bot*%
%TF.FilePolarity,Negative*%
%FSLAX46Y46*%
G04 Gerber Fmt 4.6, Leading zero omitted, Abs format (unit mm)*
G04 Created by KiCad (PCBNEW (7.0.0)) date 2023-04-02 16:15:30*
%MOMM*%
%LPD*%
G01*
G04 APERTURE LIST*
%ADD10C,1.600000*%
%ADD11O,1.600000X1.600000*%
%ADD12R,2.600000X2.600000*%
%ADD13C,2.600000*%
%ADD14R,1.500000X1.500000*%
%ADD15C,1.500000*%
%ADD16C,1.700000*%
%ADD17R,2.000000X2.000000*%
%ADD18C,2.000000*%
G04 APERTURE END LIST*
D10*
%TO.C,R8*%
X154610400Y-72786800D03*
D11*
X154610399Y-57546799D03*
%TD*%
D12*
%TO.C,Reedswitch3*%
X159995399Y-47423799D03*
D13*
X154995400Y-47423800D03*
%TD*%
D12*
%TO.C,Led3*%
X168728299Y-83089299D03*
D13*
X168728300Y-78089300D03*
%TD*%
D12*
%TO.C,Led2*%
X168728299Y-97306299D03*
D13*
X168728300Y-92306300D03*
%TD*%
D12*
%TO.C,PIR1*%
X120237299Y-70963199D03*
D13*
X120237300Y-75963200D03*
X120237300Y-80963200D03*
X120237300Y-85963200D03*
%TD*%
D10*
%TO.C,R2*%
X144561700Y-76043200D03*
D11*
X144561699Y-91283199D03*
%TD*%
D14*
%TO.C,Q1*%
X132744699Y-85527699D03*
D15*
X132744700Y-88067700D03*
X132744700Y-90607700D03*
%TD*%
D10*
%TO.C,R4*%
X154721700Y-76043200D03*
D11*
X154721699Y-91283199D03*
%TD*%
D12*
%TO.C,Temperatuur_BME280*%
X120152499Y-96068899D03*
D13*
X120152500Y-101068900D03*
X120152500Y-106068900D03*
X120152500Y-111068900D03*
%TD*%
D10*
%TO.C,R7*%
X149530400Y-72786800D03*
D11*
X149530399Y-57546799D03*
%TD*%
D10*
%TO.C,R1*%
X139481700Y-76043200D03*
D11*
X139481699Y-91283199D03*
%TD*%
D12*
%TO.C,Led1*%
X168728299Y-111523199D03*
D13*
X168728300Y-106523200D03*
%TD*%
D12*
%TO.C,Reedswitch1*%
X133969599Y-47424799D03*
D13*
X128969600Y-47424800D03*
%TD*%
D12*
%TO.C,Led4*%
X168728299Y-68872399D03*
D13*
X168728300Y-63872400D03*
%TD*%
D16*
%TO.C,U1*%
X131861700Y-96363200D03*
X131861700Y-98903200D03*
X131861700Y-101443200D03*
X131861700Y-103983200D03*
X131861700Y-106523200D03*
X131861700Y-109063200D03*
X131861700Y-111603200D03*
X131861700Y-114143200D03*
X131861700Y-116683200D03*
X134401700Y-96363200D03*
X134401700Y-98903200D03*
X134401700Y-101443200D03*
X134401700Y-103983200D03*
X134401700Y-106523200D03*
X134401700Y-109063200D03*
X134401700Y-111603200D03*
X134401700Y-114143200D03*
X134401700Y-116683200D03*
X157261700Y-96363200D03*
X157261700Y-98903200D03*
X157261700Y-101443200D03*
X157261700Y-103983200D03*
X157261700Y-106523200D03*
X157261700Y-109063200D03*
X157261700Y-111603200D03*
X157261700Y-114143200D03*
X157261700Y-116683200D03*
X159801700Y-96363200D03*
X159801700Y-98903200D03*
X159801700Y-101443200D03*
X159801700Y-103983200D03*
X159801700Y-106523200D03*
X159801700Y-109063200D03*
X159801700Y-111603200D03*
X159801700Y-114143200D03*
X159801700Y-116683200D03*
%TD*%
D10*
%TO.C,R9*%
X159690400Y-72786800D03*
D11*
X159690399Y-57546799D03*
%TD*%
D12*
%TO.C,12V_voeding_in1*%
X120194899Y-55723199D03*
D13*
X120194900Y-60723200D03*
%TD*%
D10*
%TO.C,R3*%
X149641700Y-76043200D03*
D11*
X149641699Y-91283199D03*
%TD*%
D17*
%TO.C,Passieve_buzzer1*%
X131101699Y-65804589D03*
D18*
X137701700Y-65804590D03*
%TD*%
D10*
%TO.C,R6*%
X144450400Y-57546800D03*
D11*
X144450399Y-72786799D03*
%TD*%
D12*
%TO.C,Reedswitch2*%
X147295399Y-47424299D03*
D13*
X142295400Y-47424300D03*
%TD*%
D10*
%TO.C,R5*%
X159801700Y-91283200D03*
D11*
X159801699Y-76043199D03*
%TD*%
M02*
