%TF.GenerationSoftware,KiCad,Pcbnew,(7.0.0)*%
%TF.CreationDate,2023-04-02T16:15:30+02:00*%
%TF.ProjectId,QuinLED-ESP32-Breakout,5175696e-4c45-4442-9d45-535033322d42,rev?*%
%TF.SameCoordinates,Original*%
%TF.FileFunction,Copper,L1,Top*%
%TF.FilePolarity,Positive*%
%FSLAX46Y46*%
G04 Gerber Fmt 4.6, Leading zero omitted, Abs format (unit mm)*
G04 Created by KiCad (PCBNEW (7.0.0)) date 2023-04-02 16:15:30*
%MOMM*%
%LPD*%
G01*
G04 APERTURE LIST*
%TA.AperFunction,ComponentPad*%
%ADD10C,1.600000*%
%TD*%
%TA.AperFunction,ComponentPad*%
%ADD11O,1.600000X1.600000*%
%TD*%
%TA.AperFunction,ComponentPad*%
%ADD12R,2.600000X2.600000*%
%TD*%
%TA.AperFunction,ComponentPad*%
%ADD13C,2.600000*%
%TD*%
%TA.AperFunction,ComponentPad*%
%ADD14R,1.500000X1.500000*%
%TD*%
%TA.AperFunction,ComponentPad*%
%ADD15C,1.500000*%
%TD*%
%TA.AperFunction,ComponentPad*%
%ADD16C,1.700000*%
%TD*%
%TA.AperFunction,ComponentPad*%
%ADD17R,2.000000X2.000000*%
%TD*%
%TA.AperFunction,ComponentPad*%
%ADD18C,2.000000*%
%TD*%
%TA.AperFunction,Conductor*%
%ADD19C,0.250000*%
%TD*%
G04 APERTURE END LIST*
D10*
%TO.P,R8,1*%
%TO.N,+3.3V*%
X154610400Y-72786800D03*
D11*
%TO.P,R8,2*%
%TO.N,GPIO15*%
X154610399Y-57546799D03*
%TD*%
D12*
%TO.P,Reedswitch3,1,Pin_1*%
%TO.N,GPIO36*%
X159995399Y-47423799D03*
D13*
%TO.P,Reedswitch3,2,Pin_2*%
%TO.N,GND*%
X154995400Y-47423800D03*
%TD*%
D12*
%TO.P,Led3,1,Pin_1*%
%TO.N,GPIO13*%
X168728299Y-83089299D03*
D13*
%TO.P,Led3,2,Pin_2*%
%TO.N,Net-(Led3-Pin_2)*%
X168728300Y-78089300D03*
%TD*%
D12*
%TO.P,Led2,1,Pin_1*%
%TO.N,GPIO12*%
X168728299Y-97306299D03*
D13*
%TO.P,Led2,2,Pin_2*%
%TO.N,Net-(Led2-Pin_2)*%
X168728300Y-92306300D03*
%TD*%
D12*
%TO.P,PIR1,1,Pin_1*%
%TO.N,Net-(PIR1-Pin_1)*%
X120237299Y-70963199D03*
D13*
%TO.P,PIR1,2,Pin_2*%
%TO.N,GPIO15*%
X120237300Y-75963200D03*
%TO.P,PIR1,3,Pin_3*%
%TO.N,GND*%
X120237300Y-80963200D03*
%TO.P,PIR1,4,Pin_4*%
%TO.N,+12V*%
X120237300Y-85963200D03*
%TD*%
D10*
%TO.P,R2,1*%
%TO.N,GPIO35*%
X144561700Y-76043200D03*
D11*
%TO.P,R2,2*%
%TO.N,+3.3V*%
X144561699Y-91283199D03*
%TD*%
D14*
%TO.P,Q1,1,C*%
%TO.N,Net-(PIR1-Pin_1)*%
X132744699Y-85527699D03*
D15*
%TO.P,Q1,2,B*%
%TO.N,Net-(Q1-B)*%
X132744700Y-88067700D03*
%TO.P,Q1,3,E*%
%TO.N,GND*%
X132744700Y-90607700D03*
%TD*%
D10*
%TO.P,R4,1*%
%TO.N,Net-(Led1-Pin_2)*%
X154721700Y-76043200D03*
D11*
%TO.P,R4,2*%
%TO.N,GND*%
X154721699Y-91283199D03*
%TD*%
D12*
%TO.P,Temperatuur_BME280,1,Pin_1*%
%TO.N,GPIO33*%
X120152499Y-96068899D03*
D13*
%TO.P,Temperatuur_BME280,2,Pin_2*%
%TO.N,GPIO32*%
X120152500Y-101068900D03*
%TO.P,Temperatuur_BME280,3,Pin_3*%
%TO.N,GND*%
X120152500Y-106068900D03*
%TO.P,Temperatuur_BME280,4,Pin_4*%
%TO.N,+3.3V*%
X120152500Y-111068900D03*
%TD*%
D10*
%TO.P,R7,1*%
%TO.N,Net-(Led4-Pin_2)*%
X149530400Y-72786800D03*
D11*
%TO.P,R7,2*%
%TO.N,GND*%
X149530399Y-57546799D03*
%TD*%
D10*
%TO.P,R1,1*%
%TO.N,GPIO34*%
X139481700Y-76043200D03*
D11*
%TO.P,R1,2*%
%TO.N,+3.3V*%
X139481699Y-91283199D03*
%TD*%
D12*
%TO.P,Led1,1,Pin_1*%
%TO.N,GPIO4*%
X168728299Y-111523199D03*
D13*
%TO.P,Led1,2,Pin_2*%
%TO.N,Net-(Led1-Pin_2)*%
X168728300Y-106523200D03*
%TD*%
D12*
%TO.P,Reedswitch1,1,Pin_1*%
%TO.N,GPIO34*%
X133969599Y-47424799D03*
D13*
%TO.P,Reedswitch1,2,Pin_2*%
%TO.N,GND*%
X128969600Y-47424800D03*
%TD*%
D12*
%TO.P,Led4,1,Pin_1*%
%TO.N,GPIO14*%
X168728299Y-68872399D03*
D13*
%TO.P,Led4,2,Pin_2*%
%TO.N,Net-(Led4-Pin_2)*%
X168728300Y-63872400D03*
%TD*%
D16*
%TO.P,U1,1,GND*%
%TO.N,GND*%
X131861700Y-96363200D03*
%TO.P,U1,2,GND\u002A*%
%TO.N,unconnected-(U1-GND\u002A-Pad2)*%
X131861700Y-98903200D03*
%TO.P,U1,3,S_VN*%
%TO.N,unconnected-(U1-S_VN-Pad3)*%
X131861700Y-101443200D03*
%TO.P,U1,4,IO35*%
%TO.N,GPIO35*%
X131861700Y-103983200D03*
%TO.P,U1,5,IO33*%
%TO.N,GPIO33*%
X131861700Y-106523200D03*
%TO.P,U1,6,IO34*%
%TO.N,GPIO34*%
X131861700Y-109063200D03*
%TO.P,U1,7,IO14*%
%TO.N,GPIO14*%
X131861700Y-111603200D03*
%TO.P,U1,8,3v3\u002A*%
%TO.N,+3.3V*%
X131861700Y-114143200D03*
%TO.P,U1,9,5vF\u002A*%
%TO.N,unconnected-(U1-5vF\u002A-Pad9)*%
X131861700Y-116683200D03*
%TO.P,U1,10,EN*%
%TO.N,unconnected-(U1-EN-Pad10)*%
X134401700Y-96363200D03*
%TO.P,U1,11,S_VP*%
%TO.N,GPIO36*%
X134401700Y-98903200D03*
%TO.P,U1,12,IO26*%
%TO.N,unconnected-(U1-IO26-Pad12)*%
X134401700Y-101443200D03*
%TO.P,U1,13,IO18*%
%TO.N,unconnected-(U1-IO18-Pad13)*%
X134401700Y-103983200D03*
%TO.P,U1,14,IO19*%
%TO.N,unconnected-(U1-IO19-Pad14)*%
X134401700Y-106523200D03*
%TO.P,U1,15,IO23*%
%TO.N,unconnected-(U1-IO23-Pad15)*%
X134401700Y-109063200D03*
%TO.P,U1,16,IO5*%
%TO.N,unconnected-(U1-IO5-Pad16)*%
X134401700Y-111603200D03*
%TO.P,U1,17,3v3*%
%TO.N,unconnected-(U1-3v3-Pad17)*%
X134401700Y-114143200D03*
%TO.P,U1,18,IO13*%
%TO.N,GPIO13*%
X134401700Y-116683200D03*
%TO.P,U1,19,TXD*%
%TO.N,unconnected-(U1-TXD-Pad19)*%
X157261700Y-96363200D03*
%TO.P,U1,20,RXD*%
%TO.N,unconnected-(U1-RXD-Pad20)*%
X157261700Y-98903200D03*
%TO.P,U1,21,IO22*%
%TO.N,unconnected-(U1-IO22-Pad21)*%
X157261700Y-101443200D03*
%TO.P,U1,22,IO21*%
%TO.N,unconnected-(U1-IO21-Pad22)*%
X157261700Y-103983200D03*
%TO.P,U1,23,IO17*%
%TO.N,unconnected-(U1-IO17-Pad23)*%
X157261700Y-106523200D03*
%TO.P,U1,24,IO16*%
%TO.N,GPIO16*%
X157261700Y-109063200D03*
%TO.P,U1,25,GND*%
%TO.N,unconnected-(U1-GND-Pad25)*%
X157261700Y-111603200D03*
%TO.P,U1,26,5v0*%
%TO.N,unconnected-(U1-5v0-Pad26)*%
X157261700Y-114143200D03*
%TO.P,U1,27,IO15*%
%TO.N,GPIO15*%
X157261700Y-116683200D03*
%TO.P,U1,28,GND*%
%TO.N,unconnected-(U1-GND-Pad28)*%
X159801700Y-96363200D03*
%TO.P,U1,29,IO27*%
%TO.N,unconnected-(U1-IO27-Pad29)*%
X159801700Y-98903200D03*
%TO.P,U1,30,IO25*%
%TO.N,unconnected-(U1-IO25-Pad30)*%
X159801700Y-101443200D03*
%TO.P,U1,31,IO32*%
%TO.N,GPIO32*%
X159801700Y-103983200D03*
%TO.P,U1,32,IO12*%
%TO.N,GPIO12*%
X159801700Y-106523200D03*
%TO.P,U1,33,IO_4*%
%TO.N,GPIO4*%
X159801700Y-109063200D03*
%TO.P,U1,34,IO_0*%
%TO.N,unconnected-(U1-IO_0-Pad34)*%
X159801700Y-111603200D03*
%TO.P,U1,35,IO_2*%
%TO.N,GPIO2*%
X159801700Y-114143200D03*
%TO.P,U1,36,NC*%
%TO.N,unconnected-(U1-NC-Pad36)*%
X159801700Y-116683200D03*
%TD*%
D10*
%TO.P,R9,1*%
%TO.N,GPIO16*%
X159690400Y-72786800D03*
D11*
%TO.P,R9,2*%
%TO.N,Net-(Q1-B)*%
X159690399Y-57546799D03*
%TD*%
D12*
%TO.P,12V_voeding_in1,1,Pin_1*%
%TO.N,GND*%
X120194899Y-55723199D03*
D13*
%TO.P,12V_voeding_in1,2,Pin_2*%
%TO.N,+12V*%
X120194900Y-60723200D03*
%TD*%
D10*
%TO.P,R3,1*%
%TO.N,GPIO36*%
X149641700Y-76043200D03*
D11*
%TO.P,R3,2*%
%TO.N,+3.3V*%
X149641699Y-91283199D03*
%TD*%
D17*
%TO.P,Passieve_buzzer1,1,-*%
%TO.N,GPIO2*%
X131101699Y-65804589D03*
D18*
%TO.P,Passieve_buzzer1,2,+*%
%TO.N,GND*%
X137701700Y-65804590D03*
%TD*%
D10*
%TO.P,R6,1*%
%TO.N,Net-(Led3-Pin_2)*%
X144450400Y-57546800D03*
D11*
%TO.P,R6,2*%
%TO.N,GND*%
X144450399Y-72786799D03*
%TD*%
D12*
%TO.P,Reedswitch2,1,Pin_1*%
%TO.N,GPIO35*%
X147295399Y-47424299D03*
D13*
%TO.P,Reedswitch2,2,Pin_2*%
%TO.N,GND*%
X142295400Y-47424300D03*
%TD*%
D10*
%TO.P,R5,1*%
%TO.N,Net-(Led2-Pin_2)*%
X159801700Y-91283200D03*
D11*
%TO.P,R5,2*%
%TO.N,GND*%
X159801699Y-76043199D03*
%TD*%
D19*
%TO.N,+12V*%
X118598600Y-62319500D02*
X118598600Y-84324500D01*
X120194900Y-60723200D02*
X118598600Y-62319500D01*
X118598600Y-84324500D02*
X120237300Y-85963200D01*
%TO.N,GPIO4*%
X164643000Y-109063200D02*
X167103000Y-111523200D01*
X168728300Y-111523200D02*
X167103000Y-111523200D01*
X159801700Y-109063200D02*
X164643000Y-109063200D01*
%TO.N,GPIO13*%
X134401700Y-116683200D02*
X135582100Y-117863600D01*
X135582100Y-117863600D02*
X157771700Y-117863600D01*
X158437100Y-108758500D02*
X159402400Y-107793200D01*
X157771700Y-117863600D02*
X158437100Y-117198200D01*
X167103000Y-86339900D02*
X168728300Y-84714600D01*
X159402400Y-107793200D02*
X160270000Y-107793200D01*
X160270000Y-107793200D02*
X167103000Y-100960200D01*
X168728300Y-83089300D02*
X168728300Y-84714600D01*
X167103000Y-100960200D02*
X167103000Y-86339900D01*
X158437100Y-117198200D02*
X158437100Y-108758500D01*
%TO.N,GPIO15*%
X156024000Y-60085700D02*
X154610400Y-58672100D01*
X154610400Y-57546800D02*
X154610400Y-58672100D01*
X157261700Y-116683200D02*
X156024000Y-115445500D01*
X156024000Y-115445500D02*
X156024000Y-60085700D01*
%TO.N,GPIO34*%
X139481700Y-54562200D02*
X133969600Y-49050100D01*
X139481700Y-76043200D02*
X139481700Y-54562200D01*
X130680700Y-84844200D02*
X139481700Y-76043200D01*
X132292700Y-105253200D02*
X131361600Y-105253200D01*
X130680700Y-104572300D02*
X130680700Y-84844200D01*
X133037100Y-105997600D02*
X132292700Y-105253200D01*
X131861700Y-109063200D02*
X133037100Y-107887800D01*
X133037100Y-107887800D02*
X133037100Y-105997600D01*
X131361600Y-105253200D02*
X130680700Y-104572300D01*
X133969600Y-47424800D02*
X133969600Y-49050100D01*
%TO.N,+3.3V*%
X139481700Y-91283200D02*
X139481700Y-105663000D01*
X134716900Y-110427800D02*
X133876100Y-110427800D01*
X133131700Y-112574100D02*
X131861700Y-113844100D01*
X139481700Y-105663000D02*
X134716900Y-110427800D01*
X151386400Y-76010800D02*
X154610400Y-72786800D01*
X131861700Y-113844100D02*
X122927700Y-113844100D01*
X149641700Y-90157900D02*
X151386400Y-88413200D01*
X131861700Y-113844100D02*
X131861700Y-114143200D01*
X149641700Y-91283200D02*
X148516400Y-91283200D01*
X133876100Y-110427800D02*
X133131700Y-111172200D01*
X144561700Y-91283200D02*
X143436400Y-91283200D01*
X144561700Y-91283200D02*
X148516400Y-91283200D01*
X122927700Y-113844100D02*
X120152500Y-111068900D01*
X149641700Y-91283200D02*
X149641700Y-90157900D01*
X139481700Y-91283200D02*
X143436400Y-91283200D01*
X133131700Y-111172200D02*
X133131700Y-112574100D01*
X151386400Y-88413200D02*
X151386400Y-76010800D01*
%TO.N,GPIO35*%
X144561700Y-82717900D02*
X144561700Y-76043200D01*
X131861700Y-103983200D02*
X133037100Y-102807800D01*
X133037100Y-102807800D02*
X133037100Y-94242500D01*
X147295400Y-73309500D02*
X147295400Y-47424300D01*
X144561700Y-76043200D02*
X147295400Y-73309500D01*
X133037100Y-94242500D02*
X144561700Y-82717900D01*
%TO.N,GPIO36*%
X150717100Y-74967800D02*
X150717100Y-58327400D01*
X159995400Y-47423800D02*
X159995400Y-49049100D01*
X149641700Y-79478300D02*
X149641700Y-76043200D01*
X149641700Y-76043200D02*
X150717100Y-74967800D01*
X137898200Y-91221800D02*
X149641700Y-79478300D01*
X134401700Y-98903200D02*
X137898200Y-95406700D01*
X150717100Y-58327400D02*
X159995400Y-49049100D01*
X137898200Y-95406700D02*
X137898200Y-91221800D01*
%TO.N,GPIO16*%
X160207600Y-105253200D02*
X161001300Y-104459500D01*
X159370700Y-105253200D02*
X160207600Y-105253200D01*
X157261700Y-109063200D02*
X158626300Y-107698600D01*
X161001300Y-104459500D02*
X161001300Y-74097700D01*
X161001300Y-74097700D02*
X159690400Y-72786800D01*
X158626300Y-105997600D02*
X159370700Y-105253200D01*
X158626300Y-107698600D02*
X158626300Y-105997600D01*
%TO.N,GPIO33*%
X120152500Y-96068900D02*
X121777800Y-96068900D01*
X131861700Y-106523200D02*
X121777800Y-96439300D01*
X121777800Y-96439300D02*
X121777800Y-96068900D01*
%TD*%
%TA.AperFunction,Conductor*%
%TO.N,GND*%
G36*
X155341125Y-73944306D02*
G01*
X155383214Y-73989244D01*
X155398500Y-74048887D01*
X155398500Y-74729213D01*
X155383214Y-74788856D01*
X155341125Y-74833794D01*
X155282609Y-74852948D01*
X155222096Y-74841595D01*
X155168196Y-74816461D01*
X155162971Y-74815061D01*
X155162963Y-74815058D01*
X154953616Y-74758964D01*
X154953607Y-74758962D01*
X154948392Y-74757565D01*
X154943004Y-74757093D01*
X154943001Y-74757093D01*
X154727095Y-74738204D01*
X154721700Y-74737732D01*
X154716305Y-74738204D01*
X154500398Y-74757093D01*
X154500393Y-74757093D01*
X154495008Y-74757565D01*
X154489794Y-74758962D01*
X154489783Y-74758964D01*
X154280436Y-74815058D01*
X154280424Y-74815062D01*
X154275204Y-74816461D01*
X154270299Y-74818747D01*
X154270294Y-74818750D01*
X154073876Y-74910342D01*
X154073872Y-74910344D01*
X154068966Y-74912632D01*
X154064533Y-74915735D01*
X154064526Y-74915740D01*
X153886996Y-75040047D01*
X153886991Y-75040050D01*
X153882561Y-75043153D01*
X153878737Y-75046976D01*
X153878731Y-75046982D01*
X153725482Y-75200231D01*
X153725476Y-75200237D01*
X153721653Y-75204061D01*
X153718550Y-75208491D01*
X153718547Y-75208496D01*
X153594240Y-75386026D01*
X153594235Y-75386033D01*
X153591132Y-75390466D01*
X153588844Y-75395372D01*
X153588842Y-75395376D01*
X153497250Y-75591794D01*
X153497247Y-75591799D01*
X153494961Y-75596704D01*
X153493562Y-75601924D01*
X153493558Y-75601936D01*
X153437464Y-75811283D01*
X153437462Y-75811294D01*
X153436065Y-75816508D01*
X153416232Y-76043200D01*
X153416704Y-76048595D01*
X153433171Y-76236822D01*
X153436065Y-76269892D01*
X153437462Y-76275107D01*
X153437464Y-76275116D01*
X153493558Y-76484463D01*
X153493561Y-76484471D01*
X153494961Y-76489696D01*
X153497249Y-76494603D01*
X153497250Y-76494605D01*
X153499635Y-76499719D01*
X153591132Y-76695934D01*
X153721653Y-76882339D01*
X153882561Y-77043247D01*
X154068966Y-77173768D01*
X154275204Y-77269939D01*
X154280434Y-77271340D01*
X154280436Y-77271341D01*
X154455985Y-77318379D01*
X154495008Y-77328835D01*
X154721700Y-77348668D01*
X154948392Y-77328835D01*
X155168196Y-77269939D01*
X155222096Y-77244804D01*
X155282609Y-77233452D01*
X155341125Y-77252606D01*
X155383214Y-77297544D01*
X155398500Y-77357187D01*
X155398500Y-89969764D01*
X155383214Y-90029407D01*
X155341125Y-90074344D01*
X155282610Y-90093498D01*
X155222096Y-90082146D01*
X155172939Y-90059224D01*
X155162792Y-90055530D01*
X154985480Y-90008020D01*
X154974251Y-90007652D01*
X154971700Y-90018595D01*
X154971700Y-92547805D01*
X154974251Y-92558747D01*
X154985480Y-92558379D01*
X155162792Y-92510869D01*
X155172939Y-92507175D01*
X155222096Y-92484254D01*
X155282610Y-92472902D01*
X155341125Y-92492056D01*
X155383214Y-92536993D01*
X155398500Y-92596636D01*
X155398500Y-115367725D01*
X155397978Y-115378780D01*
X155396327Y-115386167D01*
X155396571Y-115393953D01*
X155396571Y-115393961D01*
X155398439Y-115453373D01*
X155398500Y-115457268D01*
X155398500Y-115484850D01*
X155398988Y-115488719D01*
X155398989Y-115488725D01*
X155399004Y-115488843D01*
X155399918Y-115500466D01*
X155401045Y-115536330D01*
X155401046Y-115536337D01*
X155401291Y-115544127D01*
X155403467Y-115551619D01*
X155403468Y-115551621D01*
X155406879Y-115563362D01*
X155410825Y-115582415D01*
X155413336Y-115602292D01*
X155416206Y-115609542D01*
X155416208Y-115609548D01*
X155429414Y-115642904D01*
X155433197Y-115653951D01*
X155445382Y-115695890D01*
X155449353Y-115702605D01*
X155449354Y-115702607D01*
X155455581Y-115713137D01*
X155464136Y-115730599D01*
X155468642Y-115741980D01*
X155468643Y-115741983D01*
X155471514Y-115749232D01*
X155493440Y-115779412D01*
X155497181Y-115784560D01*
X155503593Y-115794322D01*
X155521856Y-115825202D01*
X155521859Y-115825207D01*
X155525830Y-115831920D01*
X155531345Y-115837435D01*
X155539990Y-115846080D01*
X155552626Y-115860874D01*
X155559819Y-115870775D01*
X155559823Y-115870779D01*
X155564406Y-115877087D01*
X155570415Y-115882058D01*
X155570416Y-115882059D01*
X155598058Y-115904926D01*
X155606699Y-115912789D01*
X155921462Y-116227552D01*
X155953556Y-116283139D01*
X155953556Y-116347326D01*
X155928037Y-116442565D01*
X155928035Y-116442570D01*
X155926637Y-116447792D01*
X155926165Y-116453177D01*
X155926165Y-116453182D01*
X155913568Y-116597169D01*
X155906041Y-116683200D01*
X155906513Y-116688595D01*
X155926165Y-116913217D01*
X155926165Y-116913220D01*
X155926637Y-116918608D01*
X155928036Y-116923830D01*
X155928037Y-116923834D01*
X155970419Y-117082007D01*
X155972261Y-117138292D01*
X155949020Y-117189587D01*
X155905488Y-117225312D01*
X155850644Y-117238100D01*
X135892552Y-117238100D01*
X135845099Y-117228661D01*
X135804871Y-117201781D01*
X135741937Y-117138847D01*
X135709843Y-117083259D01*
X135709843Y-117019072D01*
X135736763Y-116918608D01*
X135757359Y-116683200D01*
X135736763Y-116447792D01*
X135675603Y-116219537D01*
X135575735Y-116005371D01*
X135440195Y-115811799D01*
X135273101Y-115644705D01*
X135268668Y-115641601D01*
X135268661Y-115641595D01*
X135087542Y-115514775D01*
X135048676Y-115470457D01*
X135034665Y-115413200D01*
X135048676Y-115355943D01*
X135087542Y-115311625D01*
X135268661Y-115184804D01*
X135268661Y-115184803D01*
X135273101Y-115181695D01*
X135440195Y-115014601D01*
X135575735Y-114821030D01*
X135675603Y-114606863D01*
X135736763Y-114378608D01*
X135757359Y-114143200D01*
X135736763Y-113907792D01*
X135675603Y-113679537D01*
X135575735Y-113465371D01*
X135440195Y-113271799D01*
X135273101Y-113104705D01*
X135268668Y-113101601D01*
X135268661Y-113101595D01*
X135087542Y-112974775D01*
X135048676Y-112930457D01*
X135034665Y-112873200D01*
X135048676Y-112815943D01*
X135087542Y-112771625D01*
X135268661Y-112644804D01*
X135268661Y-112644803D01*
X135273101Y-112641695D01*
X135440195Y-112474601D01*
X135575735Y-112281030D01*
X135675603Y-112066863D01*
X135736763Y-111838608D01*
X135757359Y-111603200D01*
X135736763Y-111367792D01*
X135675603Y-111139537D01*
X135575735Y-110925371D01*
X135441102Y-110733095D01*
X135419987Y-110679944D01*
X135424972Y-110622969D01*
X135454995Y-110574294D01*
X139869006Y-106160282D01*
X139877182Y-106152843D01*
X139883577Y-106148786D01*
X139929633Y-106099740D01*
X139932250Y-106097038D01*
X139951820Y-106077470D01*
X139954265Y-106074316D01*
X139961855Y-106065428D01*
X139991762Y-106033582D01*
X140001413Y-106016023D01*
X140012090Y-105999770D01*
X140024373Y-105983936D01*
X140041722Y-105943841D01*
X140046857Y-105933362D01*
X140049429Y-105928683D01*
X140067897Y-105895092D01*
X140072878Y-105875687D01*
X140079183Y-105857277D01*
X140084039Y-105846056D01*
X140084039Y-105846055D01*
X140087138Y-105838895D01*
X140093969Y-105795756D01*
X140096339Y-105784315D01*
X140105260Y-105749574D01*
X140105259Y-105749574D01*
X140107200Y-105742019D01*
X140107200Y-105721983D01*
X140108725Y-105702597D01*
X140111860Y-105682804D01*
X140107750Y-105639324D01*
X140107200Y-105627655D01*
X140107200Y-92497388D01*
X140121211Y-92440131D01*
X140160077Y-92395813D01*
X140191382Y-92373893D01*
X140320839Y-92283247D01*
X140481747Y-92122339D01*
X140594312Y-91961577D01*
X140638631Y-91922711D01*
X140695888Y-91908700D01*
X143347512Y-91908700D01*
X143404769Y-91922711D01*
X143449087Y-91961577D01*
X143502036Y-92037197D01*
X143561653Y-92122339D01*
X143722561Y-92283247D01*
X143908966Y-92413768D01*
X144115204Y-92509939D01*
X144120434Y-92511340D01*
X144120436Y-92511341D01*
X144295985Y-92558379D01*
X144335008Y-92568835D01*
X144561700Y-92588668D01*
X144788392Y-92568835D01*
X145008196Y-92509939D01*
X145214434Y-92413768D01*
X145400839Y-92283247D01*
X145561747Y-92122339D01*
X145674312Y-91961577D01*
X145718631Y-91922711D01*
X145775888Y-91908700D01*
X148427512Y-91908700D01*
X148484769Y-91922711D01*
X148529087Y-91961577D01*
X148582036Y-92037197D01*
X148641653Y-92122339D01*
X148802561Y-92283247D01*
X148988966Y-92413768D01*
X149195204Y-92509939D01*
X149200434Y-92511340D01*
X149200436Y-92511341D01*
X149375985Y-92558379D01*
X149415008Y-92568835D01*
X149641700Y-92588668D01*
X149868392Y-92568835D01*
X150088196Y-92509939D01*
X150294434Y-92413768D01*
X150480839Y-92283247D01*
X150641747Y-92122339D01*
X150772268Y-91935934D01*
X150868439Y-91729696D01*
X150920406Y-91535751D01*
X153446152Y-91535751D01*
X153446520Y-91546980D01*
X153494030Y-91724292D01*
X153497722Y-91734434D01*
X153589279Y-91930780D01*
X153594667Y-91940112D01*
X153718932Y-92117581D01*
X153725869Y-92125847D01*
X153879052Y-92279030D01*
X153887318Y-92285967D01*
X154064787Y-92410232D01*
X154074119Y-92415620D01*
X154270465Y-92507177D01*
X154280607Y-92510869D01*
X154457919Y-92558379D01*
X154469148Y-92558747D01*
X154471700Y-92547805D01*
X154471700Y-91549526D01*
X154468249Y-91536650D01*
X154455374Y-91533200D01*
X153457095Y-91533200D01*
X153446152Y-91535751D01*
X150920406Y-91535751D01*
X150927335Y-91509892D01*
X150947168Y-91283200D01*
X150927335Y-91056508D01*
X150920406Y-91030648D01*
X153446152Y-91030648D01*
X153457095Y-91033200D01*
X154455374Y-91033200D01*
X154468249Y-91029749D01*
X154471700Y-91016874D01*
X154471700Y-90018595D01*
X154469148Y-90007652D01*
X154457919Y-90008020D01*
X154280607Y-90055530D01*
X154270465Y-90059222D01*
X154074119Y-90150779D01*
X154064787Y-90156167D01*
X153887318Y-90280432D01*
X153879052Y-90287369D01*
X153725869Y-90440552D01*
X153718932Y-90448818D01*
X153594667Y-90626287D01*
X153589279Y-90635619D01*
X153497722Y-90831965D01*
X153494030Y-90842107D01*
X153446520Y-91019419D01*
X153446152Y-91030648D01*
X150920406Y-91030648D01*
X150868439Y-90836704D01*
X150772268Y-90630466D01*
X150641747Y-90444061D01*
X150528618Y-90330932D01*
X150496524Y-90275345D01*
X150496524Y-90211157D01*
X150528616Y-90155572D01*
X151773711Y-88910478D01*
X151781881Y-88903044D01*
X151788277Y-88898986D01*
X151834318Y-88849956D01*
X151836935Y-88847254D01*
X151856520Y-88827671D01*
X151858985Y-88824492D01*
X151866567Y-88815616D01*
X151896462Y-88783782D01*
X151906113Y-88766223D01*
X151916790Y-88749970D01*
X151929073Y-88734136D01*
X151946418Y-88694052D01*
X151951551Y-88683571D01*
X151972597Y-88645292D01*
X151977579Y-88625884D01*
X151983882Y-88607476D01*
X151991837Y-88589096D01*
X151998671Y-88545944D01*
X152001033Y-88534538D01*
X152011900Y-88492219D01*
X152011900Y-88472183D01*
X152013427Y-88452785D01*
X152015339Y-88440713D01*
X152015338Y-88440713D01*
X152016560Y-88433004D01*
X152012450Y-88389524D01*
X152011900Y-88377855D01*
X152011900Y-76321252D01*
X152021339Y-76273799D01*
X152048219Y-76233571D01*
X152583068Y-75698722D01*
X154195578Y-74086210D01*
X154251164Y-74054118D01*
X154315347Y-74054118D01*
X154383708Y-74072435D01*
X154610400Y-74092268D01*
X154837092Y-74072435D01*
X155056896Y-74013539D01*
X155222094Y-73936505D01*
X155282610Y-73925152D01*
X155341125Y-73944306D01*
G37*
%TD.AperFunction*%
%TA.AperFunction,Conductor*%
G36*
X173348428Y-42829259D02*
G01*
X173393815Y-42874646D01*
X173410428Y-42936646D01*
X173410428Y-121761915D01*
X173393815Y-121823915D01*
X173348428Y-121869302D01*
X173286428Y-121885915D01*
X115638394Y-121885915D01*
X115576394Y-121869302D01*
X115531007Y-121823915D01*
X115514394Y-121761915D01*
X115514394Y-117704907D01*
X118641121Y-117704907D01*
X118641545Y-117710024D01*
X118661231Y-117947608D01*
X118661232Y-117947616D01*
X118661656Y-117952728D01*
X118662913Y-117957695D01*
X118662915Y-117957702D01*
X118683467Y-118038859D01*
X118722701Y-118193788D01*
X118724761Y-118198484D01*
X118820530Y-118416817D01*
X118820533Y-118416823D01*
X118822591Y-118421514D01*
X118825391Y-118425800D01*
X118825395Y-118425807D01*
X118953439Y-118621792D01*
X118958600Y-118629692D01*
X118962074Y-118633466D01*
X118962075Y-118633467D01*
X119123548Y-118808874D01*
X119123551Y-118808877D01*
X119127020Y-118812645D01*
X119323255Y-118965381D01*
X119541954Y-119083735D01*
X119777150Y-119164478D01*
X120022429Y-119205407D01*
X120265965Y-119205407D01*
X120271099Y-119205407D01*
X120516378Y-119164478D01*
X120751574Y-119083735D01*
X120970273Y-118965381D01*
X121166508Y-118812645D01*
X121334928Y-118629692D01*
X121470937Y-118421514D01*
X121570827Y-118193788D01*
X121631872Y-117952728D01*
X121652407Y-117704907D01*
X121631872Y-117457086D01*
X121570827Y-117216026D01*
X121470937Y-116988300D01*
X121428819Y-116923834D01*
X121337735Y-116784419D01*
X121334928Y-116780122D01*
X121166508Y-116597169D01*
X120970273Y-116444433D01*
X120965761Y-116441991D01*
X120756080Y-116328517D01*
X120756074Y-116328514D01*
X120751574Y-116326079D01*
X120746733Y-116324417D01*
X120746726Y-116324414D01*
X120521229Y-116247001D01*
X120521225Y-116247000D01*
X120516378Y-116245336D01*
X120507532Y-116243859D01*
X120276162Y-116205251D01*
X120276151Y-116205250D01*
X120271099Y-116204407D01*
X120022429Y-116204407D01*
X120017377Y-116205250D01*
X120017365Y-116205251D01*
X119782207Y-116244492D01*
X119782205Y-116244492D01*
X119777150Y-116245336D01*
X119772305Y-116246999D01*
X119772298Y-116247001D01*
X119546801Y-116324414D01*
X119546790Y-116324418D01*
X119541954Y-116326079D01*
X119537457Y-116328512D01*
X119537447Y-116328517D01*
X119327766Y-116441991D01*
X119327759Y-116441995D01*
X119323255Y-116444433D01*
X119319212Y-116447579D01*
X119319204Y-116447585D01*
X119131068Y-116594018D01*
X119127020Y-116597169D01*
X119123557Y-116600930D01*
X119123548Y-116600939D01*
X118962075Y-116776346D01*
X118962069Y-116776353D01*
X118958600Y-116780122D01*
X118955795Y-116784413D01*
X118955792Y-116784419D01*
X118825395Y-116984006D01*
X118825388Y-116984018D01*
X118822591Y-116988300D01*
X118820536Y-116992984D01*
X118820530Y-116992996D01*
X118734298Y-117189587D01*
X118722701Y-117216026D01*
X118721443Y-117220991D01*
X118721442Y-117220996D01*
X118662915Y-117452111D01*
X118662913Y-117452120D01*
X118661656Y-117457086D01*
X118661232Y-117462195D01*
X118661231Y-117462205D01*
X118642412Y-117689323D01*
X118641121Y-117704907D01*
X115514394Y-117704907D01*
X115514394Y-111068900D01*
X118346951Y-111068900D01*
X118367117Y-111338003D01*
X118427166Y-111601095D01*
X118525757Y-111852298D01*
X118660685Y-112086002D01*
X118828939Y-112296985D01*
X118832343Y-112300143D01*
X119020363Y-112474601D01*
X119026759Y-112480535D01*
X119249726Y-112632551D01*
X119492859Y-112749638D01*
X119497287Y-112751003D01*
X119497290Y-112751005D01*
X119550701Y-112767480D01*
X119750728Y-112829180D01*
X120017571Y-112869400D01*
X120282792Y-112869400D01*
X120287429Y-112869400D01*
X120554272Y-112829180D01*
X120812141Y-112749638D01*
X120825005Y-112743442D01*
X120874167Y-112731248D01*
X120924109Y-112739732D01*
X120966490Y-112767480D01*
X122430407Y-114231398D01*
X122437859Y-114239587D01*
X122441914Y-114245977D01*
X122490923Y-114292000D01*
X122493719Y-114294710D01*
X122513229Y-114314220D01*
X122516409Y-114316687D01*
X122525271Y-114324255D01*
X122538720Y-114336885D01*
X122551432Y-114348823D01*
X122551434Y-114348824D01*
X122557118Y-114354162D01*
X122563951Y-114357918D01*
X122563952Y-114357919D01*
X122574673Y-114363813D01*
X122590934Y-114374494D01*
X122606764Y-114386773D01*
X122646855Y-114404121D01*
X122657335Y-114409255D01*
X122695608Y-114430297D01*
X122715016Y-114435280D01*
X122733419Y-114441581D01*
X122744644Y-114446439D01*
X122744646Y-114446439D01*
X122751804Y-114449537D01*
X122794958Y-114456371D01*
X122806344Y-114458729D01*
X122848681Y-114469600D01*
X122868717Y-114469600D01*
X122888115Y-114471127D01*
X122900186Y-114473039D01*
X122900187Y-114473039D01*
X122907896Y-114474260D01*
X122945976Y-114470660D01*
X122951376Y-114470150D01*
X122963045Y-114469600D01*
X130455869Y-114469600D01*
X130508274Y-114481218D01*
X130550859Y-114513894D01*
X130575644Y-114561507D01*
X130586394Y-114601630D01*
X130586397Y-114601638D01*
X130587797Y-114606863D01*
X130590085Y-114611770D01*
X130590086Y-114611772D01*
X130685378Y-114816127D01*
X130685381Y-114816133D01*
X130687665Y-114821030D01*
X130690764Y-114825457D01*
X130690766Y-114825459D01*
X130820099Y-115010166D01*
X130820102Y-115010170D01*
X130823205Y-115014601D01*
X130990299Y-115181695D01*
X130994732Y-115184799D01*
X130994738Y-115184804D01*
X131175858Y-115311625D01*
X131214724Y-115355943D01*
X131228735Y-115413200D01*
X131214724Y-115470457D01*
X131175859Y-115514775D01*
X130994741Y-115641595D01*
X130990299Y-115644705D01*
X130986475Y-115648528D01*
X130986469Y-115648534D01*
X130827034Y-115807969D01*
X130827028Y-115807975D01*
X130823205Y-115811799D01*
X130820102Y-115816229D01*
X130820099Y-115816234D01*
X130690773Y-116000931D01*
X130690768Y-116000938D01*
X130687665Y-116005371D01*
X130685377Y-116010277D01*
X130685375Y-116010281D01*
X130590086Y-116214627D01*
X130590083Y-116214632D01*
X130587797Y-116219537D01*
X130586398Y-116224757D01*
X130586394Y-116224769D01*
X130528037Y-116442565D01*
X130528035Y-116442571D01*
X130526637Y-116447792D01*
X130526165Y-116453177D01*
X130526165Y-116453182D01*
X130513568Y-116597169D01*
X130506041Y-116683200D01*
X130506513Y-116688595D01*
X130526165Y-116913217D01*
X130526165Y-116913220D01*
X130526637Y-116918608D01*
X130528036Y-116923830D01*
X130528037Y-116923834D01*
X130586394Y-117141630D01*
X130586397Y-117141638D01*
X130587797Y-117146863D01*
X130590085Y-117151770D01*
X130590086Y-117151772D01*
X130685378Y-117356127D01*
X130685381Y-117356133D01*
X130687665Y-117361030D01*
X130690764Y-117365457D01*
X130690766Y-117365459D01*
X130820099Y-117550166D01*
X130820102Y-117550170D01*
X130823205Y-117554601D01*
X130990299Y-117721695D01*
X130994731Y-117724798D01*
X130994733Y-117724800D01*
X131017672Y-117740862D01*
X131183870Y-117857235D01*
X131398037Y-117957103D01*
X131626292Y-118018263D01*
X131861700Y-118038859D01*
X132097108Y-118018263D01*
X132325363Y-117957103D01*
X132539530Y-117857235D01*
X132733101Y-117721695D01*
X132900195Y-117554601D01*
X133030126Y-117369039D01*
X133074442Y-117330176D01*
X133131699Y-117316165D01*
X133188956Y-117330176D01*
X133233274Y-117369041D01*
X133360099Y-117550166D01*
X133360102Y-117550170D01*
X133363205Y-117554601D01*
X133530299Y-117721695D01*
X133534731Y-117724798D01*
X133534733Y-117724800D01*
X133557672Y-117740862D01*
X133723870Y-117857235D01*
X133938037Y-117957103D01*
X134166292Y-118018263D01*
X134401700Y-118038859D01*
X134637108Y-118018263D01*
X134737574Y-117991343D01*
X134801759Y-117991343D01*
X134857347Y-118023437D01*
X135084807Y-118250897D01*
X135092256Y-118259083D01*
X135096314Y-118265477D01*
X135101999Y-118270815D01*
X135102001Y-118270818D01*
X135145339Y-118311515D01*
X135148135Y-118314225D01*
X135167630Y-118333720D01*
X135170715Y-118336113D01*
X135170801Y-118336180D01*
X135179673Y-118343758D01*
X135192980Y-118356254D01*
X135211518Y-118373662D01*
X135218348Y-118377417D01*
X135218351Y-118377419D01*
X135229071Y-118383312D01*
X135245322Y-118393986D01*
X135261164Y-118406274D01*
X135268321Y-118409371D01*
X135268323Y-118409372D01*
X135301255Y-118423622D01*
X135311750Y-118428764D01*
X135350008Y-118449797D01*
X135369412Y-118454779D01*
X135387814Y-118461080D01*
X135399041Y-118465938D01*
X135406205Y-118469038D01*
X135443797Y-118474991D01*
X135449339Y-118475869D01*
X135460782Y-118478239D01*
X135495525Y-118487160D01*
X135495526Y-118487160D01*
X135503081Y-118489100D01*
X135523117Y-118489100D01*
X135542502Y-118490625D01*
X135562296Y-118493760D01*
X135600376Y-118490160D01*
X135605776Y-118489650D01*
X135617445Y-118489100D01*
X157693925Y-118489100D01*
X157704980Y-118489621D01*
X157712367Y-118491273D01*
X157779572Y-118489161D01*
X157783468Y-118489100D01*
X157807148Y-118489100D01*
X157811050Y-118489100D01*
X157815013Y-118488599D01*
X157826663Y-118487680D01*
X157870327Y-118486309D01*
X157889561Y-118480719D01*
X157908617Y-118476774D01*
X157928492Y-118474264D01*
X157969095Y-118458187D01*
X157980150Y-118454402D01*
X158022090Y-118442218D01*
X158039329Y-118432022D01*
X158056803Y-118423462D01*
X158068174Y-118418960D01*
X158068176Y-118418958D01*
X158075432Y-118416086D01*
X158110769Y-118390411D01*
X158120524Y-118384003D01*
X158158120Y-118361770D01*
X158172284Y-118347605D01*
X158187079Y-118334968D01*
X158203287Y-118323194D01*
X158231128Y-118289538D01*
X158238979Y-118280909D01*
X158779028Y-117740860D01*
X158827704Y-117710837D01*
X158884679Y-117705852D01*
X158937827Y-117726966D01*
X159123870Y-117857235D01*
X159338037Y-117957103D01*
X159566292Y-118018263D01*
X159801700Y-118038859D01*
X160037108Y-118018263D01*
X160265363Y-117957103D01*
X160479530Y-117857235D01*
X160673101Y-117721695D01*
X160689889Y-117704907D01*
X167426217Y-117704907D01*
X167426641Y-117710024D01*
X167446327Y-117947608D01*
X167446328Y-117947616D01*
X167446752Y-117952728D01*
X167448009Y-117957695D01*
X167448011Y-117957702D01*
X167468563Y-118038859D01*
X167507797Y-118193788D01*
X167509857Y-118198484D01*
X167605626Y-118416817D01*
X167605629Y-118416823D01*
X167607687Y-118421514D01*
X167610487Y-118425800D01*
X167610491Y-118425807D01*
X167738535Y-118621792D01*
X167743696Y-118629692D01*
X167747170Y-118633466D01*
X167747171Y-118633467D01*
X167908644Y-118808874D01*
X167908647Y-118808877D01*
X167912116Y-118812645D01*
X168108351Y-118965381D01*
X168327050Y-119083735D01*
X168562246Y-119164478D01*
X168807525Y-119205407D01*
X169051061Y-119205407D01*
X169056195Y-119205407D01*
X169301474Y-119164478D01*
X169536670Y-119083735D01*
X169755369Y-118965381D01*
X169951604Y-118812645D01*
X170120024Y-118629692D01*
X170256033Y-118421514D01*
X170355923Y-118193788D01*
X170416968Y-117952728D01*
X170437503Y-117704907D01*
X170416968Y-117457086D01*
X170355923Y-117216026D01*
X170256033Y-116988300D01*
X170213915Y-116923834D01*
X170122831Y-116784419D01*
X170120024Y-116780122D01*
X169951604Y-116597169D01*
X169755369Y-116444433D01*
X169750857Y-116441991D01*
X169541176Y-116328517D01*
X169541170Y-116328514D01*
X169536670Y-116326079D01*
X169531829Y-116324417D01*
X169531822Y-116324414D01*
X169306325Y-116247001D01*
X169306321Y-116247000D01*
X169301474Y-116245336D01*
X169292628Y-116243859D01*
X169061258Y-116205251D01*
X169061247Y-116205250D01*
X169056195Y-116204407D01*
X168807525Y-116204407D01*
X168802473Y-116205250D01*
X168802461Y-116205251D01*
X168567303Y-116244492D01*
X168567301Y-116244492D01*
X168562246Y-116245336D01*
X168557401Y-116246999D01*
X168557394Y-116247001D01*
X168331897Y-116324414D01*
X168331886Y-116324418D01*
X168327050Y-116326079D01*
X168322553Y-116328512D01*
X168322543Y-116328517D01*
X168112862Y-116441991D01*
X168112855Y-116441995D01*
X168108351Y-116444433D01*
X168104308Y-116447579D01*
X168104300Y-116447585D01*
X167916164Y-116594018D01*
X167912116Y-116597169D01*
X167908653Y-116600930D01*
X167908644Y-116600939D01*
X167747171Y-116776346D01*
X167747165Y-116776353D01*
X167743696Y-116780122D01*
X167740891Y-116784413D01*
X167740888Y-116784419D01*
X167610491Y-116984006D01*
X167610484Y-116984018D01*
X167607687Y-116988300D01*
X167605632Y-116992984D01*
X167605626Y-116992996D01*
X167519394Y-117189587D01*
X167507797Y-117216026D01*
X167506539Y-117220991D01*
X167506538Y-117220996D01*
X167448011Y-117452111D01*
X167448009Y-117452120D01*
X167446752Y-117457086D01*
X167446328Y-117462195D01*
X167446327Y-117462205D01*
X167427508Y-117689323D01*
X167426217Y-117704907D01*
X160689889Y-117704907D01*
X160840195Y-117554601D01*
X160975735Y-117361030D01*
X161075603Y-117146863D01*
X161136763Y-116918608D01*
X161157359Y-116683200D01*
X161136763Y-116447792D01*
X161075603Y-116219537D01*
X160975735Y-116005371D01*
X160840195Y-115811799D01*
X160673101Y-115644705D01*
X160668668Y-115641601D01*
X160668661Y-115641595D01*
X160487542Y-115514775D01*
X160448676Y-115470457D01*
X160434665Y-115413200D01*
X160448676Y-115355943D01*
X160487542Y-115311625D01*
X160668661Y-115184804D01*
X160668661Y-115184803D01*
X160673101Y-115181695D01*
X160840195Y-115014601D01*
X160975735Y-114821030D01*
X161075603Y-114606863D01*
X161136763Y-114378608D01*
X161157359Y-114143200D01*
X161136763Y-113907792D01*
X161075603Y-113679537D01*
X160975735Y-113465371D01*
X160840195Y-113271799D01*
X160673101Y-113104705D01*
X160668668Y-113101601D01*
X160668661Y-113101595D01*
X160487542Y-112974775D01*
X160448676Y-112930457D01*
X160434665Y-112873200D01*
X160448676Y-112815943D01*
X160487542Y-112771625D01*
X160668661Y-112644804D01*
X160668661Y-112644803D01*
X160673101Y-112641695D01*
X160840195Y-112474601D01*
X160975735Y-112281030D01*
X161075603Y-112066863D01*
X161136763Y-111838608D01*
X161157359Y-111603200D01*
X161136763Y-111367792D01*
X161075603Y-111139537D01*
X160975735Y-110925371D01*
X160840195Y-110731799D01*
X160673101Y-110564705D01*
X160668668Y-110561601D01*
X160668661Y-110561595D01*
X160487542Y-110434775D01*
X160448676Y-110390457D01*
X160434665Y-110333200D01*
X160448676Y-110275943D01*
X160487542Y-110231625D01*
X160668661Y-110104804D01*
X160668661Y-110104803D01*
X160673101Y-110101695D01*
X160840195Y-109934601D01*
X160975352Y-109741576D01*
X161019671Y-109702711D01*
X161076928Y-109688700D01*
X164332548Y-109688700D01*
X164380001Y-109698139D01*
X164420228Y-109725018D01*
X165616140Y-110920931D01*
X166605707Y-111910498D01*
X166613159Y-111918687D01*
X166617214Y-111925077D01*
X166666223Y-111971100D01*
X166669020Y-111973810D01*
X166688529Y-111993320D01*
X166691709Y-111995787D01*
X166700571Y-112003355D01*
X166714020Y-112015985D01*
X166726732Y-112027923D01*
X166726734Y-112027924D01*
X166732418Y-112033262D01*
X166739251Y-112037018D01*
X166739252Y-112037019D01*
X166749973Y-112042913D01*
X166766234Y-112053594D01*
X166782064Y-112065873D01*
X166822155Y-112083221D01*
X166832626Y-112088351D01*
X166834949Y-112089628D01*
X166863538Y-112105345D01*
X166910532Y-112150886D01*
X166927800Y-112214007D01*
X166927800Y-112867760D01*
X166927800Y-112867778D01*
X166927801Y-112871072D01*
X166928153Y-112874350D01*
X166928154Y-112874361D01*
X166933379Y-112922968D01*
X166933380Y-112922973D01*
X166934209Y-112930683D01*
X166936919Y-112937949D01*
X166936920Y-112937953D01*
X166950654Y-112974775D01*
X166984504Y-113065531D01*
X166989818Y-113072630D01*
X166989819Y-113072631D01*
X167016697Y-113108536D01*
X167070754Y-113180746D01*
X167185969Y-113266996D01*
X167320817Y-113317291D01*
X167380427Y-113323700D01*
X170076172Y-113323699D01*
X170135783Y-113317291D01*
X170270631Y-113266996D01*
X170385846Y-113180746D01*
X170472096Y-113065531D01*
X170522391Y-112930683D01*
X170528800Y-112871073D01*
X170528799Y-110175328D01*
X170522391Y-110115717D01*
X170472096Y-109980869D01*
X170385846Y-109865654D01*
X170357510Y-109844442D01*
X170277731Y-109784719D01*
X170277730Y-109784718D01*
X170270631Y-109779404D01*
X170167745Y-109741030D01*
X170143052Y-109731820D01*
X170143050Y-109731819D01*
X170135783Y-109729109D01*
X170128070Y-109728279D01*
X170128067Y-109728279D01*
X170079480Y-109723055D01*
X170079469Y-109723054D01*
X170076173Y-109722700D01*
X170072850Y-109722700D01*
X167383739Y-109722700D01*
X167383720Y-109722700D01*
X167380428Y-109722701D01*
X167377150Y-109723053D01*
X167377138Y-109723054D01*
X167328531Y-109728279D01*
X167328525Y-109728280D01*
X167320817Y-109729109D01*
X167313552Y-109731818D01*
X167313546Y-109731820D01*
X167194280Y-109776304D01*
X167194278Y-109776304D01*
X167185969Y-109779404D01*
X167178872Y-109784716D01*
X167178868Y-109784719D01*
X167077850Y-109860341D01*
X167077846Y-109860344D01*
X167070754Y-109865654D01*
X167065444Y-109872746D01*
X167065441Y-109872750D01*
X166989819Y-109973768D01*
X166989816Y-109973772D01*
X166984504Y-109980869D01*
X166981404Y-109989178D01*
X166981404Y-109989180D01*
X166936920Y-110108447D01*
X166936919Y-110108450D01*
X166934209Y-110115717D01*
X166933379Y-110123427D01*
X166933379Y-110123432D01*
X166927800Y-110175327D01*
X166927035Y-110175244D01*
X166912340Y-110225607D01*
X166873991Y-110267234D01*
X166821138Y-110287483D01*
X166764792Y-110282134D01*
X166716693Y-110252302D01*
X165140286Y-108675895D01*
X165132842Y-108667714D01*
X165128786Y-108661323D01*
X165079775Y-108615298D01*
X165076978Y-108612587D01*
X165060227Y-108595836D01*
X165057471Y-108593080D01*
X165054290Y-108590612D01*
X165045414Y-108583030D01*
X165019269Y-108558478D01*
X165019267Y-108558476D01*
X165013582Y-108553138D01*
X165006749Y-108549382D01*
X165006743Y-108549377D01*
X164996025Y-108543485D01*
X164979766Y-108532806D01*
X164970095Y-108525304D01*
X164970092Y-108525302D01*
X164963936Y-108520527D01*
X164956779Y-108517429D01*
X164956776Y-108517428D01*
X164923849Y-108503178D01*
X164913363Y-108498041D01*
X164881932Y-108480762D01*
X164881923Y-108480758D01*
X164875092Y-108477003D01*
X164867535Y-108475062D01*
X164867531Y-108475061D01*
X164855688Y-108472020D01*
X164837284Y-108465719D01*
X164826057Y-108460860D01*
X164826050Y-108460858D01*
X164818896Y-108457762D01*
X164811192Y-108456541D01*
X164811190Y-108456541D01*
X164775759Y-108450929D01*
X164764324Y-108448561D01*
X164729571Y-108439638D01*
X164729563Y-108439637D01*
X164722019Y-108437700D01*
X164714223Y-108437700D01*
X164701983Y-108437700D01*
X164682597Y-108436174D01*
X164662804Y-108433040D01*
X164655038Y-108433774D01*
X164655035Y-108433774D01*
X164619324Y-108437150D01*
X164607655Y-108437700D01*
X161076926Y-108437700D01*
X161019669Y-108423689D01*
X160975351Y-108384823D01*
X160972626Y-108380931D01*
X160865193Y-108227501D01*
X160844079Y-108174353D01*
X160849064Y-108117377D01*
X160879087Y-108068702D01*
X162424589Y-106523200D01*
X166922751Y-106523200D01*
X166923098Y-106527831D01*
X166940783Y-106763834D01*
X166942917Y-106792303D01*
X166943947Y-106796816D01*
X166943948Y-106796822D01*
X166987324Y-106986863D01*
X167002966Y-107055395D01*
X167004662Y-107059718D01*
X167004663Y-107059719D01*
X167039050Y-107147336D01*
X167101557Y-107306598D01*
X167236485Y-107540302D01*
X167404739Y-107751285D01*
X167408143Y-107754443D01*
X167598908Y-107931448D01*
X167602559Y-107934835D01*
X167825526Y-108086851D01*
X168068659Y-108203938D01*
X168073087Y-108205303D01*
X168073090Y-108205305D01*
X168145058Y-108227504D01*
X168326528Y-108283480D01*
X168593371Y-108323700D01*
X168858592Y-108323700D01*
X168863229Y-108323700D01*
X169130072Y-108283480D01*
X169387941Y-108203938D01*
X169631075Y-108086851D01*
X169854041Y-107934835D01*
X170051861Y-107751285D01*
X170220115Y-107540302D01*
X170355043Y-107306598D01*
X170453634Y-107055395D01*
X170513683Y-106792303D01*
X170533849Y-106523200D01*
X170513683Y-106254097D01*
X170453634Y-105991005D01*
X170355043Y-105739802D01*
X170220115Y-105506098D01*
X170051861Y-105295115D01*
X169903262Y-105157235D01*
X169857446Y-105114724D01*
X169857443Y-105114721D01*
X169854041Y-105111565D01*
X169850212Y-105108954D01*
X169850209Y-105108952D01*
X169716606Y-105017863D01*
X169631075Y-104959549D01*
X169539299Y-104915352D01*
X169392120Y-104844474D01*
X169392114Y-104844471D01*
X169387941Y-104842462D01*
X169383519Y-104841098D01*
X169383509Y-104841094D01*
X169134502Y-104764286D01*
X169134496Y-104764284D01*
X169130072Y-104762920D01*
X169125495Y-104762230D01*
X169125486Y-104762228D01*
X168867814Y-104723391D01*
X168867813Y-104723390D01*
X168863229Y-104722700D01*
X168593371Y-104722700D01*
X168588787Y-104723390D01*
X168588785Y-104723391D01*
X168331113Y-104762228D01*
X168331101Y-104762230D01*
X168326528Y-104762920D01*
X168322106Y-104764283D01*
X168322097Y-104764286D01*
X168073090Y-104841094D01*
X168073075Y-104841099D01*
X168068659Y-104842462D01*
X168064485Y-104844471D01*
X168064480Y-104844474D01*
X167829711Y-104957533D01*
X167829704Y-104957536D01*
X167825526Y-104959549D01*
X167821693Y-104962162D01*
X167821690Y-104962164D01*
X167606390Y-105108952D01*
X167606380Y-105108959D01*
X167602559Y-105111565D01*
X167599163Y-105114716D01*
X167599153Y-105114724D01*
X167408143Y-105291956D01*
X167408139Y-105291959D01*
X167404739Y-105295115D01*
X167401849Y-105298737D01*
X167401846Y-105298742D01*
X167239377Y-105502471D01*
X167236485Y-105506098D01*
X167234166Y-105510113D01*
X167234165Y-105510116D01*
X167103878Y-105735781D01*
X167103875Y-105735786D01*
X167101557Y-105739802D01*
X167099863Y-105744116D01*
X167099861Y-105744122D01*
X167013580Y-105963960D01*
X167002966Y-105991005D01*
X167001933Y-105995526D01*
X167001932Y-105995533D01*
X166943948Y-106249577D01*
X166943946Y-106249585D01*
X166942917Y-106254097D01*
X166942570Y-106258716D01*
X166942570Y-106258722D01*
X166936296Y-106342452D01*
X166922751Y-106523200D01*
X162424589Y-106523200D01*
X167490311Y-101457478D01*
X167498481Y-101450044D01*
X167504877Y-101445986D01*
X167550918Y-101396956D01*
X167553535Y-101394254D01*
X167573120Y-101374671D01*
X167575585Y-101371492D01*
X167583167Y-101362616D01*
X167613062Y-101330782D01*
X167622713Y-101313223D01*
X167633390Y-101296970D01*
X167645673Y-101281136D01*
X167663018Y-101241052D01*
X167668151Y-101230571D01*
X167689197Y-101192292D01*
X167694179Y-101172884D01*
X167700482Y-101154476D01*
X167708437Y-101136096D01*
X167715271Y-101092944D01*
X167717633Y-101081538D01*
X167728500Y-101039219D01*
X167728500Y-101019183D01*
X167730027Y-100999785D01*
X167731939Y-100987713D01*
X167731938Y-100987713D01*
X167733160Y-100980004D01*
X167729050Y-100936524D01*
X167728500Y-100924855D01*
X167728500Y-99230800D01*
X167745113Y-99168800D01*
X167790500Y-99123413D01*
X167852500Y-99106800D01*
X170015097Y-99106799D01*
X170076172Y-99106799D01*
X170135783Y-99100391D01*
X170270631Y-99050096D01*
X170385846Y-98963846D01*
X170472096Y-98848631D01*
X170522391Y-98713783D01*
X170528800Y-98654173D01*
X170528799Y-95958428D01*
X170522391Y-95898817D01*
X170472096Y-95763969D01*
X170385846Y-95648754D01*
X170363918Y-95632339D01*
X170277731Y-95567819D01*
X170277730Y-95567818D01*
X170270631Y-95562504D01*
X170135783Y-95512209D01*
X170128070Y-95511379D01*
X170128067Y-95511379D01*
X170079480Y-95506155D01*
X170079469Y-95506154D01*
X170076173Y-95505800D01*
X170072850Y-95505800D01*
X170014901Y-95505800D01*
X167852499Y-95505800D01*
X167790500Y-95489188D01*
X167745113Y-95443801D01*
X167728500Y-95381801D01*
X167728500Y-94020571D01*
X167743972Y-93960590D01*
X167786528Y-93915577D01*
X167845547Y-93896766D01*
X167906302Y-93908851D01*
X168013739Y-93960590D01*
X168068659Y-93987038D01*
X168073087Y-93988403D01*
X168073090Y-93988405D01*
X168168909Y-94017961D01*
X168326528Y-94066580D01*
X168593371Y-94106800D01*
X168858592Y-94106800D01*
X168863229Y-94106800D01*
X169130072Y-94066580D01*
X169387941Y-93987038D01*
X169631075Y-93869951D01*
X169854041Y-93717935D01*
X170051861Y-93534385D01*
X170220115Y-93323402D01*
X170355043Y-93089698D01*
X170453634Y-92838495D01*
X170513683Y-92575403D01*
X170533849Y-92306300D01*
X170513683Y-92037197D01*
X170453634Y-91774105D01*
X170355043Y-91522902D01*
X170220115Y-91289198D01*
X170051861Y-91078215D01*
X169917334Y-90953392D01*
X169857446Y-90897824D01*
X169857443Y-90897821D01*
X169854041Y-90894665D01*
X169850212Y-90892054D01*
X169850209Y-90892052D01*
X169634910Y-90745264D01*
X169631075Y-90742649D01*
X169626889Y-90740633D01*
X169392120Y-90627574D01*
X169392114Y-90627571D01*
X169387941Y-90625562D01*
X169383519Y-90624198D01*
X169383509Y-90624194D01*
X169134502Y-90547386D01*
X169134496Y-90547384D01*
X169130072Y-90546020D01*
X169125495Y-90545330D01*
X169125486Y-90545328D01*
X168867814Y-90506491D01*
X168867813Y-90506490D01*
X168863229Y-90505800D01*
X168593371Y-90505800D01*
X168588787Y-90506490D01*
X168588785Y-90506491D01*
X168331113Y-90545328D01*
X168331101Y-90545330D01*
X168326528Y-90546020D01*
X168322106Y-90547383D01*
X168322097Y-90547386D01*
X168073090Y-90624194D01*
X168073075Y-90624199D01*
X168068659Y-90625562D01*
X168064490Y-90627569D01*
X168064479Y-90627574D01*
X167906302Y-90703749D01*
X167845547Y-90715834D01*
X167786528Y-90697023D01*
X167743972Y-90652010D01*
X167728500Y-90592029D01*
X167728500Y-86650352D01*
X167737939Y-86602899D01*
X167764819Y-86562671D01*
X168424365Y-85903125D01*
X169115611Y-85211878D01*
X169123781Y-85204444D01*
X169130177Y-85200386D01*
X169176218Y-85151356D01*
X169178835Y-85148654D01*
X169198420Y-85129071D01*
X169200885Y-85125892D01*
X169208467Y-85117016D01*
X169238362Y-85085182D01*
X169248013Y-85067623D01*
X169258690Y-85051370D01*
X169270973Y-85035536D01*
X169288318Y-84995452D01*
X169293451Y-84984971D01*
X169310447Y-84954057D01*
X169355987Y-84907066D01*
X169419107Y-84889799D01*
X170072861Y-84889799D01*
X170076172Y-84889799D01*
X170135783Y-84883391D01*
X170270631Y-84833096D01*
X170385846Y-84746846D01*
X170472096Y-84631631D01*
X170522391Y-84496783D01*
X170528800Y-84437173D01*
X170528799Y-81741428D01*
X170522391Y-81681817D01*
X170472096Y-81546969D01*
X170385846Y-81431754D01*
X170270631Y-81345504D01*
X170135783Y-81295209D01*
X170128070Y-81294379D01*
X170128067Y-81294379D01*
X170079480Y-81289155D01*
X170079469Y-81289154D01*
X170076173Y-81288800D01*
X170072850Y-81288800D01*
X167383739Y-81288800D01*
X167383720Y-81288800D01*
X167380428Y-81288801D01*
X167377150Y-81289153D01*
X167377138Y-81289154D01*
X167328531Y-81294379D01*
X167328525Y-81294380D01*
X167320817Y-81295209D01*
X167313552Y-81297918D01*
X167313546Y-81297920D01*
X167194280Y-81342404D01*
X167194278Y-81342404D01*
X167185969Y-81345504D01*
X167178872Y-81350816D01*
X167178868Y-81350819D01*
X167077850Y-81426441D01*
X167077846Y-81426444D01*
X167070754Y-81431754D01*
X167065444Y-81438846D01*
X167065441Y-81438850D01*
X166989819Y-81539868D01*
X166989816Y-81539872D01*
X166984504Y-81546969D01*
X166981404Y-81555278D01*
X166981404Y-81555280D01*
X166936920Y-81674547D01*
X166936919Y-81674550D01*
X166934209Y-81681817D01*
X166933379Y-81689527D01*
X166933379Y-81689532D01*
X166928155Y-81738119D01*
X166928154Y-81738131D01*
X166927800Y-81741427D01*
X166927800Y-81744748D01*
X166927800Y-81744749D01*
X166927800Y-84433860D01*
X166927800Y-84433878D01*
X166927801Y-84437172D01*
X166928153Y-84440450D01*
X166928154Y-84440461D01*
X166933379Y-84489068D01*
X166933380Y-84489073D01*
X166934209Y-84496783D01*
X166936919Y-84504049D01*
X166936920Y-84504053D01*
X166962950Y-84573843D01*
X166984504Y-84631631D01*
X167070754Y-84746846D01*
X167185969Y-84833096D01*
X167320817Y-84883391D01*
X167380427Y-84889800D01*
X167380344Y-84890571D01*
X167430674Y-84905240D01*
X167472317Y-84943585D01*
X167492579Y-84996443D01*
X167487236Y-85052798D01*
X167457401Y-85100906D01*
X166715696Y-85842611D01*
X166707511Y-85850059D01*
X166701123Y-85854114D01*
X166695788Y-85859794D01*
X166695783Y-85859799D01*
X166655096Y-85903125D01*
X166652392Y-85905916D01*
X166635628Y-85922680D01*
X166635621Y-85922687D01*
X166632880Y-85925429D01*
X166630500Y-85928496D01*
X166630489Y-85928509D01*
X166630400Y-85928625D01*
X166622842Y-85937470D01*
X166598280Y-85963627D01*
X166598273Y-85963636D01*
X166592938Y-85969318D01*
X166589182Y-85976149D01*
X166589179Y-85976154D01*
X166583285Y-85986875D01*
X166572609Y-86003127D01*
X166565109Y-86012796D01*
X166565101Y-86012807D01*
X166560327Y-86018964D01*
X166557234Y-86026108D01*
X166557229Y-86026119D01*
X166542974Y-86059060D01*
X166537838Y-86069543D01*
X166516803Y-86107808D01*
X166514864Y-86115356D01*
X166514863Y-86115361D01*
X166511822Y-86127207D01*
X166505521Y-86145611D01*
X166500658Y-86156848D01*
X166500656Y-86156852D01*
X166497562Y-86164004D01*
X166496342Y-86171703D01*
X166496342Y-86171705D01*
X166490729Y-86207141D01*
X166488361Y-86218576D01*
X166479438Y-86253328D01*
X166479436Y-86253336D01*
X166477500Y-86260881D01*
X166477500Y-86268677D01*
X166477500Y-86280917D01*
X166475974Y-86300302D01*
X166472840Y-86320096D01*
X166473574Y-86327861D01*
X166473574Y-86327864D01*
X166476950Y-86363576D01*
X166477500Y-86375245D01*
X166477500Y-100649747D01*
X166468061Y-100697200D01*
X166441181Y-100737428D01*
X161214647Y-105963960D01*
X161164253Y-105994540D01*
X161105433Y-105998395D01*
X161051479Y-105974655D01*
X161014584Y-105928683D01*
X160978027Y-105850285D01*
X160978024Y-105850280D01*
X160975735Y-105845371D01*
X160840195Y-105651799D01*
X160841758Y-105650703D01*
X160819552Y-105604795D01*
X160822211Y-105544174D01*
X160853314Y-105492075D01*
X161388611Y-104956778D01*
X161396781Y-104949344D01*
X161403177Y-104945286D01*
X161449218Y-104896256D01*
X161451835Y-104893554D01*
X161471420Y-104873971D01*
X161473885Y-104870792D01*
X161481467Y-104861916D01*
X161484739Y-104858432D01*
X161511362Y-104830082D01*
X161521013Y-104812523D01*
X161531690Y-104796270D01*
X161543973Y-104780436D01*
X161561318Y-104740352D01*
X161566451Y-104729871D01*
X161587497Y-104691592D01*
X161592479Y-104672184D01*
X161598782Y-104653776D01*
X161606737Y-104635396D01*
X161613571Y-104592244D01*
X161615933Y-104580838D01*
X161626800Y-104538519D01*
X161626800Y-104518483D01*
X161628327Y-104499085D01*
X161630239Y-104487013D01*
X161630238Y-104487013D01*
X161631460Y-104479304D01*
X161627350Y-104435824D01*
X161626800Y-104424155D01*
X161626800Y-78089300D01*
X166922751Y-78089300D01*
X166942917Y-78358403D01*
X167002966Y-78621495D01*
X167101557Y-78872698D01*
X167236485Y-79106402D01*
X167404739Y-79317385D01*
X167471944Y-79379742D01*
X167552647Y-79454624D01*
X167602559Y-79500935D01*
X167825526Y-79652951D01*
X168068659Y-79770038D01*
X168073087Y-79771403D01*
X168073090Y-79771405D01*
X168183274Y-79805392D01*
X168326528Y-79849580D01*
X168593371Y-79889800D01*
X168858592Y-79889800D01*
X168863229Y-79889800D01*
X169130072Y-79849580D01*
X169387941Y-79770038D01*
X169631075Y-79652951D01*
X169854041Y-79500935D01*
X170051861Y-79317385D01*
X170220115Y-79106402D01*
X170355043Y-78872698D01*
X170453634Y-78621495D01*
X170513683Y-78358403D01*
X170533849Y-78089300D01*
X170513683Y-77820197D01*
X170453634Y-77557105D01*
X170355043Y-77305902D01*
X170220115Y-77072198D01*
X170051861Y-76861215D01*
X169923676Y-76742277D01*
X169857446Y-76680824D01*
X169857443Y-76680821D01*
X169854041Y-76677665D01*
X169850212Y-76675054D01*
X169850209Y-76675052D01*
X169634910Y-76528264D01*
X169631075Y-76525649D01*
X169568252Y-76495395D01*
X169392120Y-76410574D01*
X169392114Y-76410571D01*
X169387941Y-76408562D01*
X169383519Y-76407198D01*
X169383509Y-76407194D01*
X169134502Y-76330386D01*
X169134496Y-76330384D01*
X169130072Y-76329020D01*
X169125495Y-76328330D01*
X169125486Y-76328328D01*
X168867814Y-76289491D01*
X168867813Y-76289490D01*
X168863229Y-76288800D01*
X168593371Y-76288800D01*
X168588787Y-76289490D01*
X168588785Y-76289491D01*
X168331113Y-76328328D01*
X168331101Y-76328330D01*
X168326528Y-76329020D01*
X168322106Y-76330383D01*
X168322097Y-76330386D01*
X168073090Y-76407194D01*
X168073075Y-76407199D01*
X168068659Y-76408562D01*
X168064485Y-76410571D01*
X168064480Y-76410574D01*
X167829711Y-76523633D01*
X167829704Y-76523636D01*
X167825526Y-76525649D01*
X167821693Y-76528262D01*
X167821690Y-76528264D01*
X167606390Y-76675052D01*
X167606380Y-76675059D01*
X167602559Y-76677665D01*
X167599163Y-76680816D01*
X167599153Y-76680824D01*
X167408143Y-76858056D01*
X167408139Y-76858059D01*
X167404739Y-76861215D01*
X167401849Y-76864837D01*
X167401846Y-76864842D01*
X167239377Y-77068571D01*
X167236485Y-77072198D01*
X167234166Y-77076213D01*
X167234165Y-77076216D01*
X167103878Y-77301881D01*
X167103875Y-77301886D01*
X167101557Y-77305902D01*
X167099863Y-77310216D01*
X167099861Y-77310222D01*
X167014049Y-77528866D01*
X167002966Y-77557105D01*
X167001933Y-77561626D01*
X167001932Y-77561633D01*
X166943948Y-77815677D01*
X166943946Y-77815685D01*
X166942917Y-77820197D01*
X166922751Y-78089300D01*
X161626800Y-78089300D01*
X161626800Y-74175475D01*
X161627321Y-74164419D01*
X161628973Y-74157033D01*
X161626861Y-74089813D01*
X161626800Y-74085919D01*
X161626800Y-74062242D01*
X161626800Y-74058350D01*
X161626298Y-74054383D01*
X161625381Y-74042726D01*
X161625157Y-74035590D01*
X161624010Y-73999073D01*
X161618418Y-73979828D01*
X161614474Y-73960783D01*
X161611964Y-73940908D01*
X161595879Y-73900283D01*
X161592106Y-73889262D01*
X161579918Y-73847310D01*
X161569717Y-73830060D01*
X161561163Y-73812601D01*
X161553786Y-73793968D01*
X161528108Y-73758625D01*
X161521701Y-73748871D01*
X161503442Y-73717996D01*
X161503441Y-73717994D01*
X161499470Y-73711280D01*
X161485305Y-73697115D01*
X161472670Y-73682322D01*
X161460894Y-73666113D01*
X161454883Y-73661140D01*
X161454881Y-73661138D01*
X161427241Y-73638273D01*
X161418600Y-73630410D01*
X160989813Y-73201622D01*
X160957719Y-73146034D01*
X160957719Y-73081847D01*
X160969790Y-73036800D01*
X160976035Y-73013492D01*
X160995868Y-72786800D01*
X160976035Y-72560108D01*
X160917139Y-72340304D01*
X160820968Y-72134066D01*
X160690447Y-71947661D01*
X160529539Y-71786753D01*
X160343134Y-71656232D01*
X160251601Y-71613549D01*
X160141805Y-71562350D01*
X160141803Y-71562349D01*
X160136896Y-71560061D01*
X160131671Y-71558661D01*
X160131663Y-71558658D01*
X159922316Y-71502564D01*
X159922307Y-71502562D01*
X159917092Y-71501165D01*
X159911704Y-71500693D01*
X159911701Y-71500693D01*
X159695795Y-71481804D01*
X159690400Y-71481332D01*
X159685005Y-71481804D01*
X159469098Y-71500693D01*
X159469093Y-71500693D01*
X159463708Y-71501165D01*
X159458494Y-71502562D01*
X159458483Y-71502564D01*
X159249136Y-71558658D01*
X159249124Y-71558662D01*
X159243904Y-71560061D01*
X159238999Y-71562347D01*
X159238994Y-71562350D01*
X159042576Y-71653942D01*
X159042572Y-71653944D01*
X159037666Y-71656232D01*
X159033233Y-71659335D01*
X159033226Y-71659340D01*
X158855696Y-71783647D01*
X158855691Y-71783650D01*
X158851261Y-71786753D01*
X158847437Y-71790576D01*
X158847431Y-71790582D01*
X158694182Y-71943831D01*
X158694176Y-71943837D01*
X158690353Y-71947661D01*
X158687250Y-71952091D01*
X158687247Y-71952096D01*
X158562940Y-72129626D01*
X158562935Y-72129633D01*
X158559832Y-72134066D01*
X158557544Y-72138972D01*
X158557542Y-72138976D01*
X158465950Y-72335394D01*
X158465947Y-72335399D01*
X158463661Y-72340304D01*
X158462262Y-72345524D01*
X158462258Y-72345536D01*
X158406164Y-72554883D01*
X158406162Y-72554894D01*
X158404765Y-72560108D01*
X158404293Y-72565493D01*
X158404293Y-72565498D01*
X158399460Y-72620746D01*
X158384932Y-72786800D01*
X158385404Y-72792195D01*
X158404292Y-73008093D01*
X158404765Y-73013492D01*
X158406162Y-73018707D01*
X158406164Y-73018716D01*
X158462258Y-73228063D01*
X158462261Y-73228071D01*
X158463661Y-73233296D01*
X158559832Y-73439534D01*
X158690353Y-73625939D01*
X158851261Y-73786847D01*
X159037666Y-73917368D01*
X159243904Y-74013539D01*
X159249134Y-74014940D01*
X159249136Y-74014941D01*
X159395351Y-74054119D01*
X159463708Y-74072435D01*
X159690400Y-74092268D01*
X159917092Y-74072435D01*
X159985448Y-74054118D01*
X160049634Y-74054118D01*
X160105222Y-74086212D01*
X160339481Y-74320471D01*
X160366361Y-74360699D01*
X160375800Y-74408152D01*
X160375800Y-74689570D01*
X160363012Y-74744414D01*
X160327287Y-74787946D01*
X160275991Y-74811187D01*
X160219707Y-74809345D01*
X160065480Y-74768020D01*
X160054251Y-74767652D01*
X160051700Y-74778595D01*
X160051700Y-77307805D01*
X160054251Y-77318747D01*
X160065480Y-77318379D01*
X160219707Y-77277055D01*
X160275991Y-77275213D01*
X160327287Y-77298454D01*
X160363012Y-77341986D01*
X160375800Y-77396830D01*
X160375800Y-89929052D01*
X160363012Y-89983896D01*
X160327287Y-90027428D01*
X160275992Y-90050669D01*
X160219707Y-90048827D01*
X160033617Y-89998965D01*
X160033616Y-89998964D01*
X160028392Y-89997565D01*
X160023004Y-89997093D01*
X160023001Y-89997093D01*
X159807095Y-89978204D01*
X159801700Y-89977732D01*
X159796305Y-89978204D01*
X159580398Y-89997093D01*
X159580393Y-89997093D01*
X159575008Y-89997565D01*
X159569794Y-89998962D01*
X159569783Y-89998964D01*
X159360436Y-90055058D01*
X159360424Y-90055062D01*
X159355204Y-90056461D01*
X159350299Y-90058747D01*
X159350294Y-90058750D01*
X159153876Y-90150342D01*
X159153872Y-90150344D01*
X159148966Y-90152632D01*
X159144533Y-90155735D01*
X159144526Y-90155740D01*
X158966996Y-90280047D01*
X158966991Y-90280050D01*
X158962561Y-90283153D01*
X158958737Y-90286976D01*
X158958731Y-90286982D01*
X158805482Y-90440231D01*
X158805476Y-90440237D01*
X158801653Y-90444061D01*
X158798550Y-90448491D01*
X158798547Y-90448496D01*
X158674240Y-90626026D01*
X158674235Y-90626033D01*
X158671132Y-90630466D01*
X158668844Y-90635372D01*
X158668842Y-90635376D01*
X158577250Y-90831794D01*
X158577247Y-90831799D01*
X158574961Y-90836704D01*
X158573562Y-90841924D01*
X158573558Y-90841936D01*
X158517464Y-91051283D01*
X158517462Y-91051294D01*
X158516065Y-91056508D01*
X158515593Y-91061893D01*
X158515593Y-91061898D01*
X158496704Y-91277805D01*
X158496232Y-91283200D01*
X158516065Y-91509892D01*
X158517462Y-91515107D01*
X158517464Y-91515116D01*
X158573558Y-91724463D01*
X158573561Y-91724471D01*
X158574961Y-91729696D01*
X158671132Y-91935934D01*
X158801653Y-92122339D01*
X158962561Y-92283247D01*
X159148966Y-92413768D01*
X159355204Y-92509939D01*
X159360434Y-92511340D01*
X159360436Y-92511341D01*
X159535985Y-92558379D01*
X159575008Y-92568835D01*
X159801700Y-92588668D01*
X160028392Y-92568835D01*
X160162212Y-92532978D01*
X160219707Y-92517573D01*
X160275992Y-92515731D01*
X160327287Y-92538972D01*
X160363012Y-92582504D01*
X160375800Y-92637348D01*
X160375800Y-94957289D01*
X160363012Y-95012133D01*
X160327286Y-95055665D01*
X160275991Y-95078906D01*
X160219708Y-95077064D01*
X160117576Y-95049698D01*
X160042334Y-95029537D01*
X160042330Y-95029536D01*
X160037108Y-95028137D01*
X160031720Y-95027665D01*
X160031717Y-95027665D01*
X159807095Y-95008013D01*
X159801700Y-95007541D01*
X159796305Y-95008013D01*
X159571682Y-95027665D01*
X159571677Y-95027665D01*
X159566292Y-95028137D01*
X159561071Y-95029535D01*
X159561065Y-95029537D01*
X159343269Y-95087894D01*
X159343257Y-95087898D01*
X159338037Y-95089297D01*
X159333132Y-95091583D01*
X159333127Y-95091586D01*
X159128781Y-95186875D01*
X159128777Y-95186877D01*
X159123871Y-95189165D01*
X159119438Y-95192268D01*
X159119431Y-95192273D01*
X158934734Y-95321599D01*
X158934729Y-95321602D01*
X158930299Y-95324705D01*
X158926475Y-95328528D01*
X158926469Y-95328534D01*
X158767034Y-95487969D01*
X158767028Y-95487975D01*
X158763205Y-95491799D01*
X158760102Y-95496229D01*
X158760099Y-95496234D01*
X158633275Y-95677359D01*
X158588957Y-95716225D01*
X158531700Y-95730236D01*
X158474443Y-95716225D01*
X158430125Y-95677359D01*
X158407907Y-95645628D01*
X158300195Y-95491799D01*
X158133101Y-95324705D01*
X158128670Y-95321602D01*
X158128666Y-95321599D01*
X157943959Y-95192266D01*
X157943957Y-95192264D01*
X157939530Y-95189165D01*
X157934633Y-95186881D01*
X157934627Y-95186878D01*
X157730272Y-95091586D01*
X157730270Y-95091585D01*
X157725363Y-95089297D01*
X157720138Y-95087897D01*
X157720130Y-95087894D01*
X157502334Y-95029537D01*
X157502330Y-95029536D01*
X157497108Y-95028137D01*
X157491720Y-95027665D01*
X157491717Y-95027665D01*
X157267095Y-95008013D01*
X157261700Y-95007541D01*
X157256305Y-95008013D01*
X157031682Y-95027665D01*
X157031677Y-95027665D01*
X157026292Y-95028137D01*
X157021071Y-95029535D01*
X157021065Y-95029537D01*
X156805593Y-95087272D01*
X156749308Y-95089114D01*
X156698013Y-95065873D01*
X156662288Y-95022341D01*
X156649500Y-94967497D01*
X156649500Y-76295751D01*
X158526152Y-76295751D01*
X158526520Y-76306980D01*
X158574030Y-76484292D01*
X158577722Y-76494434D01*
X158669279Y-76690780D01*
X158674667Y-76700112D01*
X158798932Y-76877581D01*
X158805869Y-76885847D01*
X158959052Y-77039030D01*
X158967318Y-77045967D01*
X159144787Y-77170232D01*
X159154119Y-77175620D01*
X159350465Y-77267177D01*
X159360607Y-77270869D01*
X159537919Y-77318379D01*
X159549148Y-77318747D01*
X159551700Y-77307805D01*
X159551700Y-76309526D01*
X159548249Y-76296650D01*
X159535374Y-76293200D01*
X158537095Y-76293200D01*
X158526152Y-76295751D01*
X156649500Y-76295751D01*
X156649500Y-75790648D01*
X158526152Y-75790648D01*
X158537095Y-75793200D01*
X159535374Y-75793200D01*
X159548249Y-75789749D01*
X159551700Y-75776874D01*
X159551700Y-74778595D01*
X159549148Y-74767652D01*
X159537919Y-74768020D01*
X159360607Y-74815530D01*
X159350465Y-74819222D01*
X159154119Y-74910779D01*
X159144787Y-74916167D01*
X158967318Y-75040432D01*
X158959052Y-75047369D01*
X158805869Y-75200552D01*
X158798932Y-75208818D01*
X158674667Y-75386287D01*
X158669279Y-75395619D01*
X158577722Y-75591965D01*
X158574030Y-75602107D01*
X158526520Y-75779419D01*
X158526152Y-75790648D01*
X156649500Y-75790648D01*
X156649500Y-70216978D01*
X166927800Y-70216978D01*
X166927801Y-70220272D01*
X166928153Y-70223550D01*
X166928154Y-70223561D01*
X166933379Y-70272168D01*
X166933380Y-70272173D01*
X166934209Y-70279883D01*
X166936919Y-70287149D01*
X166936920Y-70287153D01*
X166970517Y-70377231D01*
X166984504Y-70414731D01*
X167070754Y-70529946D01*
X167185969Y-70616196D01*
X167320817Y-70666491D01*
X167380427Y-70672900D01*
X170076172Y-70672899D01*
X170135783Y-70666491D01*
X170270631Y-70616196D01*
X170385846Y-70529946D01*
X170472096Y-70414731D01*
X170522391Y-70279883D01*
X170528800Y-70220273D01*
X170528799Y-67524528D01*
X170522391Y-67464917D01*
X170472096Y-67330069D01*
X170385846Y-67214854D01*
X170339980Y-67180519D01*
X170277731Y-67133919D01*
X170277730Y-67133918D01*
X170270631Y-67128604D01*
X170135783Y-67078309D01*
X170128070Y-67077479D01*
X170128067Y-67077479D01*
X170079480Y-67072255D01*
X170079469Y-67072254D01*
X170076173Y-67071900D01*
X170072850Y-67071900D01*
X167383739Y-67071900D01*
X167383720Y-67071900D01*
X167380428Y-67071901D01*
X167377150Y-67072253D01*
X167377138Y-67072254D01*
X167328531Y-67077479D01*
X167328525Y-67077480D01*
X167320817Y-67078309D01*
X167313552Y-67081018D01*
X167313546Y-67081020D01*
X167194280Y-67125504D01*
X167194278Y-67125504D01*
X167185969Y-67128604D01*
X167178872Y-67133916D01*
X167178868Y-67133919D01*
X167077850Y-67209541D01*
X167077846Y-67209544D01*
X167070754Y-67214854D01*
X167065444Y-67221946D01*
X167065441Y-67221950D01*
X166989819Y-67322968D01*
X166989816Y-67322972D01*
X166984504Y-67330069D01*
X166981404Y-67338378D01*
X166981404Y-67338380D01*
X166936920Y-67457647D01*
X166936919Y-67457650D01*
X166934209Y-67464917D01*
X166933379Y-67472627D01*
X166933379Y-67472632D01*
X166928155Y-67521219D01*
X166928154Y-67521231D01*
X166927800Y-67524527D01*
X166927800Y-67527848D01*
X166927800Y-67527849D01*
X166927800Y-70216960D01*
X166927800Y-70216978D01*
X156649500Y-70216978D01*
X156649500Y-63872400D01*
X166922751Y-63872400D01*
X166942917Y-64141503D01*
X166943947Y-64146016D01*
X166943948Y-64146022D01*
X166994182Y-64366109D01*
X167002966Y-64404595D01*
X167101557Y-64655798D01*
X167236485Y-64889502D01*
X167404739Y-65100485D01*
X167602559Y-65284035D01*
X167825526Y-65436051D01*
X168068659Y-65553138D01*
X168073087Y-65554503D01*
X168073090Y-65554505D01*
X168197593Y-65592909D01*
X168326528Y-65632680D01*
X168593371Y-65672900D01*
X168858592Y-65672900D01*
X168863229Y-65672900D01*
X169130072Y-65632680D01*
X169387941Y-65553138D01*
X169631075Y-65436051D01*
X169854041Y-65284035D01*
X170051861Y-65100485D01*
X170220115Y-64889502D01*
X170355043Y-64655798D01*
X170453634Y-64404595D01*
X170513683Y-64141503D01*
X170533849Y-63872400D01*
X170513683Y-63603297D01*
X170453634Y-63340205D01*
X170355043Y-63089002D01*
X170220115Y-62855298D01*
X170051861Y-62644315D01*
X169854041Y-62460765D01*
X169850212Y-62458154D01*
X169850209Y-62458152D01*
X169634910Y-62311364D01*
X169631075Y-62308749D01*
X169626889Y-62306733D01*
X169392120Y-62193674D01*
X169392114Y-62193671D01*
X169387941Y-62191662D01*
X169383519Y-62190298D01*
X169383509Y-62190294D01*
X169134502Y-62113486D01*
X169134496Y-62113484D01*
X169130072Y-62112120D01*
X169125495Y-62111430D01*
X169125486Y-62111428D01*
X168867814Y-62072591D01*
X168867813Y-62072590D01*
X168863229Y-62071900D01*
X168593371Y-62071900D01*
X168588787Y-62072590D01*
X168588785Y-62072591D01*
X168331113Y-62111428D01*
X168331101Y-62111430D01*
X168326528Y-62112120D01*
X168322106Y-62113483D01*
X168322097Y-62113486D01*
X168073090Y-62190294D01*
X168073075Y-62190299D01*
X168068659Y-62191662D01*
X168064485Y-62193671D01*
X168064480Y-62193674D01*
X167829711Y-62306733D01*
X167829704Y-62306736D01*
X167825526Y-62308749D01*
X167821693Y-62311362D01*
X167821690Y-62311364D01*
X167606390Y-62458152D01*
X167606380Y-62458159D01*
X167602559Y-62460765D01*
X167599163Y-62463916D01*
X167599153Y-62463924D01*
X167408143Y-62641156D01*
X167408139Y-62641159D01*
X167404739Y-62644315D01*
X167401849Y-62647937D01*
X167401846Y-62647942D01*
X167239377Y-62851671D01*
X167236485Y-62855298D01*
X167234166Y-62859313D01*
X167234165Y-62859316D01*
X167103878Y-63084981D01*
X167103875Y-63084986D01*
X167101557Y-63089002D01*
X167099863Y-63093316D01*
X167099861Y-63093322D01*
X167004663Y-63335880D01*
X167002966Y-63340205D01*
X167001933Y-63344726D01*
X167001932Y-63344733D01*
X166943948Y-63598777D01*
X166943946Y-63598785D01*
X166942917Y-63603297D01*
X166922751Y-63872400D01*
X156649500Y-63872400D01*
X156649500Y-60163471D01*
X156650020Y-60152418D01*
X156651672Y-60145032D01*
X156649561Y-60077844D01*
X156649500Y-60073950D01*
X156649500Y-60050245D01*
X156649500Y-60046350D01*
X156648998Y-60042381D01*
X156648080Y-60030724D01*
X156646709Y-59987073D01*
X156641119Y-59967835D01*
X156637175Y-59948791D01*
X156634664Y-59928908D01*
X156618582Y-59888291D01*
X156614798Y-59877239D01*
X156604793Y-59842801D01*
X156602617Y-59835310D01*
X156598645Y-59828594D01*
X156598643Y-59828589D01*
X156592422Y-59818070D01*
X156583860Y-59800592D01*
X156579360Y-59789227D01*
X156579359Y-59789226D01*
X156576486Y-59781968D01*
X156550812Y-59746631D01*
X156544409Y-59736884D01*
X156522170Y-59699279D01*
X156508005Y-59685114D01*
X156495368Y-59670318D01*
X156488184Y-59660429D01*
X156488178Y-59660423D01*
X156483594Y-59654113D01*
X156449946Y-59626277D01*
X156441305Y-59618414D01*
X155497319Y-58674428D01*
X155465225Y-58618840D01*
X155465225Y-58554653D01*
X155497316Y-58499069D01*
X155610447Y-58385939D01*
X155740968Y-58199534D01*
X155837139Y-57993296D01*
X155896035Y-57773492D01*
X155915868Y-57546800D01*
X158384932Y-57546800D01*
X158404765Y-57773492D01*
X158406162Y-57778707D01*
X158406164Y-57778716D01*
X158462258Y-57988063D01*
X158462261Y-57988071D01*
X158463661Y-57993296D01*
X158559832Y-58199534D01*
X158690353Y-58385939D01*
X158851261Y-58546847D01*
X159037666Y-58677368D01*
X159243904Y-58773539D01*
X159249134Y-58774940D01*
X159249136Y-58774941D01*
X159421595Y-58821151D01*
X159463708Y-58832435D01*
X159690400Y-58852268D01*
X159917092Y-58832435D01*
X160136896Y-58773539D01*
X160343134Y-58677368D01*
X160529539Y-58546847D01*
X160690447Y-58385939D01*
X160820968Y-58199534D01*
X160917139Y-57993296D01*
X160976035Y-57773492D01*
X160995868Y-57546800D01*
X160976035Y-57320108D01*
X160917139Y-57100304D01*
X160820968Y-56894066D01*
X160690447Y-56707661D01*
X160529539Y-56546753D01*
X160343134Y-56416232D01*
X160136896Y-56320061D01*
X160131671Y-56318661D01*
X160131663Y-56318658D01*
X159922316Y-56262564D01*
X159922307Y-56262562D01*
X159917092Y-56261165D01*
X159911704Y-56260693D01*
X159911701Y-56260693D01*
X159695795Y-56241804D01*
X159690400Y-56241332D01*
X159685005Y-56241804D01*
X159469098Y-56260693D01*
X159469093Y-56260693D01*
X159463708Y-56261165D01*
X159458494Y-56262562D01*
X159458483Y-56262564D01*
X159249136Y-56318658D01*
X159249124Y-56318662D01*
X159243904Y-56320061D01*
X159238999Y-56322347D01*
X159238994Y-56322350D01*
X159042576Y-56413942D01*
X159042572Y-56413944D01*
X159037666Y-56416232D01*
X159033233Y-56419335D01*
X159033226Y-56419340D01*
X158855696Y-56543647D01*
X158855691Y-56543650D01*
X158851261Y-56546753D01*
X158847437Y-56550576D01*
X158847431Y-56550582D01*
X158694182Y-56703831D01*
X158694176Y-56703837D01*
X158690353Y-56707661D01*
X158687250Y-56712091D01*
X158687247Y-56712096D01*
X158562940Y-56889626D01*
X158562935Y-56889633D01*
X158559832Y-56894066D01*
X158557544Y-56898972D01*
X158557542Y-56898976D01*
X158465950Y-57095394D01*
X158465947Y-57095399D01*
X158463661Y-57100304D01*
X158462262Y-57105524D01*
X158462258Y-57105536D01*
X158406164Y-57314883D01*
X158406162Y-57314894D01*
X158404765Y-57320108D01*
X158404293Y-57325493D01*
X158404293Y-57325498D01*
X158388425Y-57506874D01*
X158384932Y-57546800D01*
X155915868Y-57546800D01*
X155896035Y-57320108D01*
X155837139Y-57100304D01*
X155740968Y-56894066D01*
X155610447Y-56707661D01*
X155449539Y-56546753D01*
X155263134Y-56416232D01*
X155056896Y-56320061D01*
X155051671Y-56318661D01*
X155051663Y-56318658D01*
X154842316Y-56262564D01*
X154842307Y-56262562D01*
X154837092Y-56261165D01*
X154831704Y-56260693D01*
X154831701Y-56260693D01*
X154615795Y-56241804D01*
X154610400Y-56241332D01*
X154605005Y-56241804D01*
X154389098Y-56260693D01*
X154389093Y-56260693D01*
X154383708Y-56261165D01*
X154378494Y-56262562D01*
X154378483Y-56262564D01*
X154169136Y-56318658D01*
X154169124Y-56318662D01*
X154163904Y-56320061D01*
X154158999Y-56322347D01*
X154158994Y-56322350D01*
X153962576Y-56413942D01*
X153962572Y-56413944D01*
X153957666Y-56416232D01*
X153953233Y-56419335D01*
X153953226Y-56419340D01*
X153775696Y-56543647D01*
X153775691Y-56543650D01*
X153771261Y-56546753D01*
X153767437Y-56550576D01*
X153767431Y-56550582D01*
X153614182Y-56703831D01*
X153614176Y-56703837D01*
X153610353Y-56707661D01*
X153607250Y-56712091D01*
X153607247Y-56712096D01*
X153482940Y-56889626D01*
X153482935Y-56889633D01*
X153479832Y-56894066D01*
X153477544Y-56898972D01*
X153477542Y-56898976D01*
X153385950Y-57095394D01*
X153385947Y-57095399D01*
X153383661Y-57100304D01*
X153382262Y-57105524D01*
X153382258Y-57105536D01*
X153326164Y-57314883D01*
X153326162Y-57314894D01*
X153324765Y-57320108D01*
X153324293Y-57325493D01*
X153324293Y-57325498D01*
X153308425Y-57506874D01*
X153304932Y-57546800D01*
X153324765Y-57773492D01*
X153326162Y-57778707D01*
X153326164Y-57778716D01*
X153382258Y-57988063D01*
X153382261Y-57988071D01*
X153383661Y-57993296D01*
X153479832Y-58199534D01*
X153610353Y-58385939D01*
X153771261Y-58546847D01*
X153874079Y-58618840D01*
X153934500Y-58661147D01*
X153972451Y-58703740D01*
X153987315Y-58758817D01*
X153987444Y-58762920D01*
X153987445Y-58762932D01*
X153987691Y-58770727D01*
X153989867Y-58778219D01*
X153989868Y-58778221D01*
X153993279Y-58789962D01*
X153997225Y-58809015D01*
X153999736Y-58828892D01*
X154002606Y-58836142D01*
X154002608Y-58836148D01*
X154015814Y-58869504D01*
X154019597Y-58880551D01*
X154031782Y-58922490D01*
X154035753Y-58929205D01*
X154035754Y-58929207D01*
X154041981Y-58939737D01*
X154050536Y-58957199D01*
X154055042Y-58968580D01*
X154055043Y-58968583D01*
X154057914Y-58975832D01*
X154079840Y-59006012D01*
X154083581Y-59011160D01*
X154089993Y-59020922D01*
X154108256Y-59051802D01*
X154108259Y-59051807D01*
X154112230Y-59058520D01*
X154117744Y-59064034D01*
X154117745Y-59064035D01*
X154126390Y-59072680D01*
X154139026Y-59087474D01*
X154146219Y-59097375D01*
X154146223Y-59097379D01*
X154150806Y-59103687D01*
X154156815Y-59108658D01*
X154156816Y-59108659D01*
X154184458Y-59131526D01*
X154193099Y-59139389D01*
X155362181Y-60308472D01*
X155389061Y-60348700D01*
X155398500Y-60396153D01*
X155398500Y-71524713D01*
X155383214Y-71584356D01*
X155341125Y-71629294D01*
X155282610Y-71648448D01*
X155222095Y-71637095D01*
X155061805Y-71562350D01*
X155061803Y-71562349D01*
X155056896Y-71560061D01*
X155051671Y-71558661D01*
X155051663Y-71558658D01*
X154842316Y-71502564D01*
X154842307Y-71502562D01*
X154837092Y-71501165D01*
X154831704Y-71500693D01*
X154831701Y-71500693D01*
X154615795Y-71481804D01*
X154610400Y-71481332D01*
X154605005Y-71481804D01*
X154389098Y-71500693D01*
X154389093Y-71500693D01*
X154383708Y-71501165D01*
X154378494Y-71502562D01*
X154378483Y-71502564D01*
X154169136Y-71558658D01*
X154169124Y-71558662D01*
X154163904Y-71560061D01*
X154158999Y-71562347D01*
X154158994Y-71562350D01*
X153962576Y-71653942D01*
X153962572Y-71653944D01*
X153957666Y-71656232D01*
X153953233Y-71659335D01*
X153953226Y-71659340D01*
X153775696Y-71783647D01*
X153775691Y-71783650D01*
X153771261Y-71786753D01*
X153767437Y-71790576D01*
X153767431Y-71790582D01*
X153614182Y-71943831D01*
X153614176Y-71943837D01*
X153610353Y-71947661D01*
X153607250Y-71952091D01*
X153607247Y-71952096D01*
X153482940Y-72129626D01*
X153482935Y-72129633D01*
X153479832Y-72134066D01*
X153477544Y-72138972D01*
X153477542Y-72138976D01*
X153385950Y-72335394D01*
X153385947Y-72335399D01*
X153383661Y-72340304D01*
X153382262Y-72345524D01*
X153382258Y-72345536D01*
X153326164Y-72554883D01*
X153326162Y-72554894D01*
X153324765Y-72560108D01*
X153324293Y-72565493D01*
X153324293Y-72565498D01*
X153319460Y-72620746D01*
X153304932Y-72786800D01*
X153305404Y-72792195D01*
X153324292Y-73008093D01*
X153324765Y-73013492D01*
X153326163Y-73018711D01*
X153326165Y-73018720D01*
X153343080Y-73081848D01*
X153343080Y-73146034D01*
X153310986Y-73201621D01*
X151554281Y-74958328D01*
X151504918Y-74988578D01*
X151447202Y-74993120D01*
X151393715Y-74970965D01*
X151356115Y-74926942D01*
X151342600Y-74870647D01*
X151342600Y-58637852D01*
X151352039Y-58590399D01*
X151378919Y-58550171D01*
X153610432Y-56318658D01*
X160382706Y-49546382D01*
X160390882Y-49538943D01*
X160397277Y-49534886D01*
X160443333Y-49485840D01*
X160445950Y-49483138D01*
X160465520Y-49463570D01*
X160467965Y-49460416D01*
X160475555Y-49451528D01*
X160505462Y-49419682D01*
X160515109Y-49402132D01*
X160525793Y-49385866D01*
X160538074Y-49370036D01*
X160555418Y-49329951D01*
X160560561Y-49319455D01*
X160577548Y-49288558D01*
X160623088Y-49241566D01*
X160686208Y-49224299D01*
X161339961Y-49224299D01*
X161343272Y-49224299D01*
X161402883Y-49217891D01*
X161537731Y-49167596D01*
X161652946Y-49081346D01*
X161739196Y-48966131D01*
X161789491Y-48831283D01*
X161795900Y-48771673D01*
X161795900Y-48070646D01*
X167426217Y-48070646D01*
X167426641Y-48075763D01*
X167446327Y-48313347D01*
X167446328Y-48313355D01*
X167446752Y-48318467D01*
X167448009Y-48323434D01*
X167448011Y-48323441D01*
X167493289Y-48502236D01*
X167507797Y-48559527D01*
X167509857Y-48564223D01*
X167605626Y-48782556D01*
X167605629Y-48782562D01*
X167607687Y-48787253D01*
X167610487Y-48791539D01*
X167610491Y-48791546D01*
X167719776Y-48958819D01*
X167743696Y-48995431D01*
X167747170Y-48999205D01*
X167747171Y-48999206D01*
X167908644Y-49174613D01*
X167908647Y-49174616D01*
X167912116Y-49178384D01*
X168108351Y-49331120D01*
X168327050Y-49449474D01*
X168562246Y-49530217D01*
X168807525Y-49571146D01*
X169051061Y-49571146D01*
X169056195Y-49571146D01*
X169301474Y-49530217D01*
X169536670Y-49449474D01*
X169755369Y-49331120D01*
X169951604Y-49178384D01*
X170120024Y-48995431D01*
X170256033Y-48787253D01*
X170355923Y-48559527D01*
X170416968Y-48318467D01*
X170437503Y-48070646D01*
X170416968Y-47822825D01*
X170355923Y-47581765D01*
X170256033Y-47354039D01*
X170120024Y-47145861D01*
X170046846Y-47066368D01*
X169955075Y-46966678D01*
X169955071Y-46966675D01*
X169951604Y-46962908D01*
X169755369Y-46810172D01*
X169750857Y-46807730D01*
X169541176Y-46694256D01*
X169541170Y-46694253D01*
X169536670Y-46691818D01*
X169531829Y-46690156D01*
X169531822Y-46690153D01*
X169306325Y-46612740D01*
X169306321Y-46612739D01*
X169301474Y-46611075D01*
X169292628Y-46609598D01*
X169061258Y-46570990D01*
X169061247Y-46570989D01*
X169056195Y-46570146D01*
X168807525Y-46570146D01*
X168802473Y-46570989D01*
X168802461Y-46570990D01*
X168567303Y-46610231D01*
X168567301Y-46610231D01*
X168562246Y-46611075D01*
X168557401Y-46612738D01*
X168557394Y-46612740D01*
X168331897Y-46690153D01*
X168331886Y-46690157D01*
X168327050Y-46691818D01*
X168322553Y-46694251D01*
X168322543Y-46694256D01*
X168112862Y-46807730D01*
X168112855Y-46807734D01*
X168108351Y-46810172D01*
X168104308Y-46813318D01*
X168104300Y-46813324D01*
X167916164Y-46959757D01*
X167912116Y-46962908D01*
X167908653Y-46966669D01*
X167908644Y-46966678D01*
X167747171Y-47142085D01*
X167747165Y-47142092D01*
X167743696Y-47145861D01*
X167740891Y-47150152D01*
X167740888Y-47150158D01*
X167610491Y-47349745D01*
X167610484Y-47349757D01*
X167607687Y-47354039D01*
X167605632Y-47358723D01*
X167605626Y-47358735D01*
X167509857Y-47577068D01*
X167507797Y-47581765D01*
X167506539Y-47586730D01*
X167506538Y-47586735D01*
X167448011Y-47817850D01*
X167448009Y-47817859D01*
X167446752Y-47822825D01*
X167446328Y-47827934D01*
X167446327Y-47827944D01*
X167436022Y-47952315D01*
X167426217Y-48070646D01*
X161795900Y-48070646D01*
X161795899Y-46075928D01*
X161789491Y-46016317D01*
X161739196Y-45881469D01*
X161652946Y-45766254D01*
X161537731Y-45680004D01*
X161412833Y-45633420D01*
X161410152Y-45632420D01*
X161410150Y-45632419D01*
X161402883Y-45629709D01*
X161395170Y-45628879D01*
X161395167Y-45628879D01*
X161346580Y-45623655D01*
X161346569Y-45623654D01*
X161343273Y-45623300D01*
X161339950Y-45623300D01*
X158650839Y-45623300D01*
X158650820Y-45623300D01*
X158647528Y-45623301D01*
X158644250Y-45623653D01*
X158644238Y-45623654D01*
X158595631Y-45628879D01*
X158595625Y-45628880D01*
X158587917Y-45629709D01*
X158580652Y-45632418D01*
X158580646Y-45632420D01*
X158461380Y-45676904D01*
X158461378Y-45676904D01*
X158453069Y-45680004D01*
X158445972Y-45685316D01*
X158445968Y-45685319D01*
X158344950Y-45760941D01*
X158344946Y-45760944D01*
X158337854Y-45766254D01*
X158332544Y-45773346D01*
X158332541Y-45773350D01*
X158256919Y-45874368D01*
X158256916Y-45874372D01*
X158251604Y-45881469D01*
X158248504Y-45889778D01*
X158248504Y-45889780D01*
X158204020Y-46009047D01*
X158204019Y-46009050D01*
X158201309Y-46016317D01*
X158200479Y-46024027D01*
X158200479Y-46024032D01*
X158195255Y-46072619D01*
X158195254Y-46072631D01*
X158194900Y-46075927D01*
X158194900Y-46079248D01*
X158194900Y-46079249D01*
X158194900Y-48768360D01*
X158194900Y-48768378D01*
X158194901Y-48771672D01*
X158195253Y-48774950D01*
X158195254Y-48774961D01*
X158200479Y-48823568D01*
X158200480Y-48823573D01*
X158201309Y-48831283D01*
X158204019Y-48838549D01*
X158204020Y-48838553D01*
X158216014Y-48870709D01*
X158251604Y-48966131D01*
X158256918Y-48973230D01*
X158256919Y-48973231D01*
X158270713Y-48991658D01*
X158337854Y-49081346D01*
X158453069Y-49167596D01*
X158587917Y-49217891D01*
X158647527Y-49224300D01*
X158647443Y-49225072D01*
X158697773Y-49239739D01*
X158739418Y-49278083D01*
X158759680Y-49330942D01*
X158754337Y-49387298D01*
X158724502Y-49435406D01*
X150972517Y-57187389D01*
X150916930Y-57219483D01*
X150852742Y-57219483D01*
X150797155Y-57187389D01*
X150765061Y-57131801D01*
X150758068Y-57105704D01*
X150754379Y-57095568D01*
X150662820Y-56899219D01*
X150657432Y-56889887D01*
X150533167Y-56712418D01*
X150526230Y-56704152D01*
X150373047Y-56550969D01*
X150364781Y-56544032D01*
X150187312Y-56419767D01*
X150177980Y-56414379D01*
X149981634Y-56322822D01*
X149971492Y-56319130D01*
X149794180Y-56271620D01*
X149782951Y-56271252D01*
X149780400Y-56282195D01*
X149780400Y-58811405D01*
X149782951Y-58822347D01*
X149794179Y-58821979D01*
X149935506Y-58784111D01*
X149991791Y-58782269D01*
X150043086Y-58805510D01*
X150078812Y-58849042D01*
X150091600Y-58903886D01*
X150091600Y-71429196D01*
X150078812Y-71484040D01*
X150043086Y-71527572D01*
X149991791Y-71550813D01*
X149935507Y-71548971D01*
X149762316Y-71502564D01*
X149762307Y-71502562D01*
X149757092Y-71501165D01*
X149751704Y-71500693D01*
X149751701Y-71500693D01*
X149535795Y-71481804D01*
X149530400Y-71481332D01*
X149525005Y-71481804D01*
X149309098Y-71500693D01*
X149309093Y-71500693D01*
X149303708Y-71501165D01*
X149298494Y-71502562D01*
X149298483Y-71502564D01*
X149089136Y-71558658D01*
X149089124Y-71558662D01*
X149083904Y-71560061D01*
X149078999Y-71562347D01*
X149078994Y-71562350D01*
X148882576Y-71653942D01*
X148882572Y-71653944D01*
X148877666Y-71656232D01*
X148873233Y-71659335D01*
X148873226Y-71659340D01*
X148695696Y-71783647D01*
X148695691Y-71783650D01*
X148691261Y-71786753D01*
X148687437Y-71790576D01*
X148687431Y-71790582D01*
X148534182Y-71943831D01*
X148534176Y-71943837D01*
X148530353Y-71947661D01*
X148527250Y-71952091D01*
X148527247Y-71952096D01*
X148402940Y-72129626D01*
X148402935Y-72129633D01*
X148399832Y-72134066D01*
X148397544Y-72138972D01*
X148397542Y-72138976D01*
X148305950Y-72335394D01*
X148305947Y-72335399D01*
X148303661Y-72340304D01*
X148302262Y-72345524D01*
X148302258Y-72345536D01*
X148246164Y-72554883D01*
X148246162Y-72554894D01*
X148244765Y-72560108D01*
X148244293Y-72565493D01*
X148244293Y-72565498D01*
X148239460Y-72620746D01*
X148224932Y-72786800D01*
X148225404Y-72792195D01*
X148244292Y-73008093D01*
X148244765Y-73013492D01*
X148246162Y-73018707D01*
X148246164Y-73018716D01*
X148302258Y-73228063D01*
X148302261Y-73228071D01*
X148303661Y-73233296D01*
X148399832Y-73439534D01*
X148530353Y-73625939D01*
X148691261Y-73786847D01*
X148877666Y-73917368D01*
X149083904Y-74013539D01*
X149089134Y-74014940D01*
X149089136Y-74014941D01*
X149235351Y-74054119D01*
X149303708Y-74072435D01*
X149530400Y-74092268D01*
X149757092Y-74072435D01*
X149935507Y-74024628D01*
X149991791Y-74022787D01*
X150043086Y-74046028D01*
X150078812Y-74089560D01*
X150091600Y-74144404D01*
X150091600Y-74655773D01*
X150078812Y-74710617D01*
X150043087Y-74754149D01*
X149991792Y-74777390D01*
X149935507Y-74775548D01*
X149907411Y-74768020D01*
X149868392Y-74757565D01*
X149863004Y-74757093D01*
X149863001Y-74757093D01*
X149647095Y-74738204D01*
X149641700Y-74737732D01*
X149636305Y-74738204D01*
X149420398Y-74757093D01*
X149420393Y-74757093D01*
X149415008Y-74757565D01*
X149409794Y-74758962D01*
X149409783Y-74758964D01*
X149200436Y-74815058D01*
X149200424Y-74815062D01*
X149195204Y-74816461D01*
X149190299Y-74818747D01*
X149190294Y-74818750D01*
X148993876Y-74910342D01*
X148993872Y-74910344D01*
X148988966Y-74912632D01*
X148984533Y-74915735D01*
X148984526Y-74915740D01*
X148806996Y-75040047D01*
X148806991Y-75040050D01*
X148802561Y-75043153D01*
X148798737Y-75046976D01*
X148798731Y-75046982D01*
X148645482Y-75200231D01*
X148645476Y-75200237D01*
X148641653Y-75204061D01*
X148638550Y-75208491D01*
X148638547Y-75208496D01*
X148514240Y-75386026D01*
X148514235Y-75386033D01*
X148511132Y-75390466D01*
X148508844Y-75395372D01*
X148508842Y-75395376D01*
X148417250Y-75591794D01*
X148417247Y-75591799D01*
X148414961Y-75596704D01*
X148413562Y-75601924D01*
X148413558Y-75601936D01*
X148357464Y-75811283D01*
X148357462Y-75811294D01*
X148356065Y-75816508D01*
X148336232Y-76043200D01*
X148336704Y-76048595D01*
X148353171Y-76236822D01*
X148356065Y-76269892D01*
X148357462Y-76275107D01*
X148357464Y-76275116D01*
X148413558Y-76484463D01*
X148413561Y-76484471D01*
X148414961Y-76489696D01*
X148417249Y-76494603D01*
X148417250Y-76494605D01*
X148419635Y-76499719D01*
X148511132Y-76695934D01*
X148641653Y-76882339D01*
X148802561Y-77043247D01*
X148830126Y-77062548D01*
X148963323Y-77155813D01*
X149002189Y-77200131D01*
X149016200Y-77257388D01*
X149016200Y-79167848D01*
X149006761Y-79215301D01*
X148979881Y-79255529D01*
X145402383Y-82833025D01*
X145352277Y-82863514D01*
X145293764Y-82867563D01*
X145239935Y-82844268D01*
X145202835Y-82798839D01*
X145191051Y-82742811D01*
X145191860Y-82737704D01*
X145187750Y-82694224D01*
X145187200Y-82682555D01*
X145187200Y-77257388D01*
X145201211Y-77200131D01*
X145240077Y-77155813D01*
X145270011Y-77134852D01*
X145400839Y-77043247D01*
X145561747Y-76882339D01*
X145692268Y-76695934D01*
X145788439Y-76489696D01*
X145847335Y-76269892D01*
X145867168Y-76043200D01*
X145847335Y-75816508D01*
X145829018Y-75748147D01*
X145829018Y-75683964D01*
X145861110Y-75628378D01*
X147682706Y-73806782D01*
X147690882Y-73799343D01*
X147697277Y-73795286D01*
X147743333Y-73746240D01*
X147745950Y-73743538D01*
X147765520Y-73723970D01*
X147767965Y-73720816D01*
X147775555Y-73711928D01*
X147805462Y-73680082D01*
X147815109Y-73662532D01*
X147825793Y-73646266D01*
X147838074Y-73630436D01*
X147855418Y-73590351D01*
X147860560Y-73579856D01*
X147881597Y-73541592D01*
X147886579Y-73522189D01*
X147892880Y-73503783D01*
X147900838Y-73485395D01*
X147907669Y-73442256D01*
X147910039Y-73430815D01*
X147918960Y-73396074D01*
X147918959Y-73396074D01*
X147920900Y-73388519D01*
X147920900Y-73368483D01*
X147922425Y-73349097D01*
X147925560Y-73329304D01*
X147921450Y-73285824D01*
X147920900Y-73274155D01*
X147920900Y-57799351D01*
X148254852Y-57799351D01*
X148255220Y-57810580D01*
X148302730Y-57987892D01*
X148306422Y-57998034D01*
X148397979Y-58194380D01*
X148403367Y-58203712D01*
X148527632Y-58381181D01*
X148534569Y-58389447D01*
X148687752Y-58542630D01*
X148696018Y-58549567D01*
X148873487Y-58673832D01*
X148882819Y-58679220D01*
X149079165Y-58770777D01*
X149089307Y-58774469D01*
X149266619Y-58821979D01*
X149277848Y-58822347D01*
X149280400Y-58811405D01*
X149280400Y-57813126D01*
X149276949Y-57800250D01*
X149264074Y-57796800D01*
X148265795Y-57796800D01*
X148254852Y-57799351D01*
X147920900Y-57799351D01*
X147920900Y-57294248D01*
X148254852Y-57294248D01*
X148265795Y-57296800D01*
X149264074Y-57296800D01*
X149276949Y-57293349D01*
X149280400Y-57280474D01*
X149280400Y-56282195D01*
X149277848Y-56271252D01*
X149266619Y-56271620D01*
X149089307Y-56319130D01*
X149079165Y-56322822D01*
X148882819Y-56414379D01*
X148873487Y-56419767D01*
X148696018Y-56544032D01*
X148687752Y-56550969D01*
X148534569Y-56704152D01*
X148527632Y-56712418D01*
X148403367Y-56889887D01*
X148397979Y-56899219D01*
X148306422Y-57095565D01*
X148302730Y-57105707D01*
X148255220Y-57283019D01*
X148254852Y-57294248D01*
X147920900Y-57294248D01*
X147920900Y-49348799D01*
X147937513Y-49286799D01*
X147982900Y-49241412D01*
X148044900Y-49224799D01*
X148639961Y-49224799D01*
X148643272Y-49224799D01*
X148702883Y-49218391D01*
X148837731Y-49168096D01*
X148952946Y-49081846D01*
X149039196Y-48966631D01*
X149078165Y-48862150D01*
X153914004Y-48862150D01*
X153921550Y-48870208D01*
X154089041Y-48984401D01*
X154097062Y-48989032D01*
X154331762Y-49102058D01*
X154340373Y-49105438D01*
X154589308Y-49182224D01*
X154598324Y-49184282D01*
X154855923Y-49223108D01*
X154865146Y-49223800D01*
X155125654Y-49223800D01*
X155134876Y-49223108D01*
X155392475Y-49184282D01*
X155401491Y-49182224D01*
X155650427Y-49105437D01*
X155659037Y-49102058D01*
X155893740Y-48989031D01*
X155901759Y-48984401D01*
X156069246Y-48870209D01*
X156076794Y-48862150D01*
X156070877Y-48852830D01*
X155006942Y-47788895D01*
X154995400Y-47782231D01*
X154983857Y-47788895D01*
X153919921Y-48852830D01*
X153914004Y-48862150D01*
X149078165Y-48862150D01*
X149089491Y-48831783D01*
X149095900Y-48772173D01*
X149095900Y-47428430D01*
X153190700Y-47428430D01*
X153210167Y-47688199D01*
X153211546Y-47697352D01*
X153269511Y-47951315D01*
X153272244Y-47960175D01*
X153367411Y-48202656D01*
X153371430Y-48211002D01*
X153501678Y-48436598D01*
X153506896Y-48444250D01*
X153546779Y-48494262D01*
X153558015Y-48502235D01*
X153570074Y-48495571D01*
X154630304Y-47435342D01*
X154636967Y-47423800D01*
X155353831Y-47423800D01*
X155360495Y-47435342D01*
X156420725Y-48495572D01*
X156432782Y-48502236D01*
X156444019Y-48494263D01*
X156483907Y-48444245D01*
X156489119Y-48436600D01*
X156619369Y-48211002D01*
X156623388Y-48202656D01*
X156718555Y-47960175D01*
X156721288Y-47951315D01*
X156779253Y-47697352D01*
X156780632Y-47688199D01*
X156800100Y-47428430D01*
X156800100Y-47419170D01*
X156780632Y-47159400D01*
X156779253Y-47150247D01*
X156721288Y-46896284D01*
X156718555Y-46887424D01*
X156623388Y-46644943D01*
X156619369Y-46636597D01*
X156489121Y-46411001D01*
X156483903Y-46403349D01*
X156444019Y-46353336D01*
X156432782Y-46345362D01*
X156420725Y-46352026D01*
X155360495Y-47412257D01*
X155353831Y-47423800D01*
X154636967Y-47423800D01*
X154636968Y-47423799D01*
X154630304Y-47412257D01*
X153570074Y-46352027D01*
X153558015Y-46345362D01*
X153546780Y-46353334D01*
X153506888Y-46403358D01*
X153501682Y-46410995D01*
X153371430Y-46636597D01*
X153367411Y-46644943D01*
X153272244Y-46887424D01*
X153269511Y-46896284D01*
X153211546Y-47150247D01*
X153210167Y-47159400D01*
X153190700Y-47419170D01*
X153190700Y-47428430D01*
X149095900Y-47428430D01*
X149095899Y-46076428D01*
X149089491Y-46016817D01*
X149077791Y-45985448D01*
X153914003Y-45985448D01*
X153919919Y-45994766D01*
X154983857Y-47058704D01*
X154995400Y-47065368D01*
X155006942Y-47058704D01*
X156070877Y-45994768D01*
X156076794Y-45985448D01*
X156069246Y-45977389D01*
X155901760Y-45863198D01*
X155893740Y-45858568D01*
X155659037Y-45745541D01*
X155650427Y-45742162D01*
X155401491Y-45665375D01*
X155392475Y-45663317D01*
X155134876Y-45624491D01*
X155125654Y-45623800D01*
X154865146Y-45623800D01*
X154855923Y-45624491D01*
X154598324Y-45663317D01*
X154589308Y-45665375D01*
X154340373Y-45742161D01*
X154331762Y-45745541D01*
X154097060Y-45858568D01*
X154089039Y-45863199D01*
X153921551Y-45977390D01*
X153914003Y-45985448D01*
X149077791Y-45985448D01*
X149039196Y-45881969D01*
X148952946Y-45766754D01*
X148920095Y-45742162D01*
X148844831Y-45685819D01*
X148844830Y-45685818D01*
X148837731Y-45680504D01*
X148767365Y-45654259D01*
X148710152Y-45632920D01*
X148710150Y-45632919D01*
X148702883Y-45630209D01*
X148695170Y-45629379D01*
X148695167Y-45629379D01*
X148646580Y-45624155D01*
X148646569Y-45624154D01*
X148643273Y-45623800D01*
X148639950Y-45623800D01*
X145950839Y-45623800D01*
X145950820Y-45623800D01*
X145947528Y-45623801D01*
X145944250Y-45624153D01*
X145944238Y-45624154D01*
X145895631Y-45629379D01*
X145895625Y-45629380D01*
X145887917Y-45630209D01*
X145880652Y-45632918D01*
X145880646Y-45632920D01*
X145761380Y-45677404D01*
X145761378Y-45677404D01*
X145753069Y-45680504D01*
X145745972Y-45685816D01*
X145745968Y-45685819D01*
X145644950Y-45761441D01*
X145644946Y-45761444D01*
X145637854Y-45766754D01*
X145632544Y-45773846D01*
X145632541Y-45773850D01*
X145556919Y-45874868D01*
X145556916Y-45874872D01*
X145551604Y-45881969D01*
X145548504Y-45890278D01*
X145548504Y-45890280D01*
X145504020Y-46009547D01*
X145504019Y-46009550D01*
X145501309Y-46016817D01*
X145500479Y-46024527D01*
X145500479Y-46024532D01*
X145495255Y-46073119D01*
X145495254Y-46073131D01*
X145494900Y-46076427D01*
X145494900Y-46079748D01*
X145494900Y-46079749D01*
X145494900Y-48768860D01*
X145494900Y-48768878D01*
X145494901Y-48772172D01*
X145495253Y-48775450D01*
X145495254Y-48775461D01*
X145500479Y-48824068D01*
X145500480Y-48824073D01*
X145501309Y-48831783D01*
X145504019Y-48839049D01*
X145504020Y-48839053D01*
X145516014Y-48871209D01*
X145551604Y-48966631D01*
X145637854Y-49081846D01*
X145753069Y-49168096D01*
X145887917Y-49218391D01*
X145947527Y-49224800D01*
X146545900Y-49224800D01*
X146607900Y-49241413D01*
X146653287Y-49286800D01*
X146669900Y-49348800D01*
X146669900Y-72999048D01*
X146660461Y-73046501D01*
X146633581Y-73086729D01*
X144976521Y-74743786D01*
X144920934Y-74775880D01*
X144856748Y-74775880D01*
X144793620Y-74758965D01*
X144793611Y-74758963D01*
X144788392Y-74757565D01*
X144783004Y-74757093D01*
X144783001Y-74757093D01*
X144567095Y-74738204D01*
X144561700Y-74737732D01*
X144556305Y-74738204D01*
X144340398Y-74757093D01*
X144340393Y-74757093D01*
X144335008Y-74757565D01*
X144329794Y-74758962D01*
X144329783Y-74758964D01*
X144120436Y-74815058D01*
X144120424Y-74815062D01*
X144115204Y-74816461D01*
X144110299Y-74818747D01*
X144110294Y-74818750D01*
X143913876Y-74910342D01*
X143913872Y-74910344D01*
X143908966Y-74912632D01*
X143904533Y-74915735D01*
X143904526Y-74915740D01*
X143726996Y-75040047D01*
X143726991Y-75040050D01*
X143722561Y-75043153D01*
X143718737Y-75046976D01*
X143718731Y-75046982D01*
X143565482Y-75200231D01*
X143565476Y-75200237D01*
X143561653Y-75204061D01*
X143558550Y-75208491D01*
X143558547Y-75208496D01*
X143434240Y-75386026D01*
X143434235Y-75386033D01*
X143431132Y-75390466D01*
X143428844Y-75395372D01*
X143428842Y-75395376D01*
X143337250Y-75591794D01*
X143337247Y-75591799D01*
X143334961Y-75596704D01*
X143333562Y-75601924D01*
X143333558Y-75601936D01*
X143277464Y-75811283D01*
X143277462Y-75811294D01*
X143276065Y-75816508D01*
X143256232Y-76043200D01*
X143256704Y-76048595D01*
X143273171Y-76236822D01*
X143276065Y-76269892D01*
X143277462Y-76275107D01*
X143277464Y-76275116D01*
X143333558Y-76484463D01*
X143333561Y-76484471D01*
X143334961Y-76489696D01*
X143337249Y-76494603D01*
X143337250Y-76494605D01*
X143339635Y-76499719D01*
X143431132Y-76695934D01*
X143561653Y-76882339D01*
X143722561Y-77043247D01*
X143750126Y-77062548D01*
X143883323Y-77155813D01*
X143922189Y-77200131D01*
X143936200Y-77257388D01*
X143936200Y-82407448D01*
X143926761Y-82454901D01*
X143899881Y-82495129D01*
X132649796Y-93745211D01*
X132641611Y-93752659D01*
X132635223Y-93756714D01*
X132629888Y-93762394D01*
X132629883Y-93762399D01*
X132589196Y-93805725D01*
X132586492Y-93808516D01*
X132569728Y-93825280D01*
X132569721Y-93825287D01*
X132566980Y-93828029D01*
X132564600Y-93831096D01*
X132564589Y-93831109D01*
X132564500Y-93831225D01*
X132556942Y-93840070D01*
X132532380Y-93866227D01*
X132532373Y-93866236D01*
X132527038Y-93871918D01*
X132523282Y-93878749D01*
X132523279Y-93878754D01*
X132517385Y-93889475D01*
X132506709Y-93905727D01*
X132499209Y-93915396D01*
X132499201Y-93915407D01*
X132494427Y-93921564D01*
X132491334Y-93928708D01*
X132491329Y-93928719D01*
X132477074Y-93961660D01*
X132471938Y-93972143D01*
X132454660Y-94003573D01*
X132450903Y-94010408D01*
X132448964Y-94017956D01*
X132448963Y-94017961D01*
X132445922Y-94029807D01*
X132439621Y-94048211D01*
X132434758Y-94059448D01*
X132434756Y-94059452D01*
X132431662Y-94066604D01*
X132430442Y-94074303D01*
X132430442Y-94074305D01*
X132424829Y-94109741D01*
X132422461Y-94121176D01*
X132413538Y-94155928D01*
X132413536Y-94155936D01*
X132411600Y-94163481D01*
X132411600Y-94171277D01*
X132411600Y-94183517D01*
X132410074Y-94202902D01*
X132406940Y-94222696D01*
X132407674Y-94230461D01*
X132407674Y-94230464D01*
X132411050Y-94266176D01*
X132411600Y-94277845D01*
X132411600Y-94951322D01*
X132398812Y-95006166D01*
X132363086Y-95049698D01*
X132311791Y-95072939D01*
X132255506Y-95071097D01*
X132102253Y-95030033D01*
X132091622Y-95028158D01*
X131867095Y-95008515D01*
X131856305Y-95008515D01*
X131631777Y-95028158D01*
X131621143Y-95030033D01*
X131462293Y-95072597D01*
X131406009Y-95074439D01*
X131354713Y-95051198D01*
X131318988Y-95007666D01*
X131306200Y-94952822D01*
X131306200Y-91650502D01*
X132058817Y-91650502D01*
X132066250Y-91658613D01*
X132112872Y-91691258D01*
X132122222Y-91696656D01*
X132310632Y-91784513D01*
X132320774Y-91788205D01*
X132521586Y-91842011D01*
X132532201Y-91843883D01*
X132739305Y-91862003D01*
X132750095Y-91862003D01*
X132957198Y-91843883D01*
X132967813Y-91842011D01*
X133168625Y-91788205D01*
X133178767Y-91784513D01*
X133367185Y-91696653D01*
X133376517Y-91691265D01*
X133423150Y-91658612D01*
X133430581Y-91650503D01*
X133424667Y-91641220D01*
X132756242Y-90972795D01*
X132744700Y-90966131D01*
X132733157Y-90972795D01*
X132064728Y-91641223D01*
X132058817Y-91650502D01*
X131306200Y-91650502D01*
X131306200Y-91010649D01*
X131320211Y-90953392D01*
X131359077Y-90909074D01*
X131414015Y-90887710D01*
X131472610Y-90894127D01*
X131521622Y-90926876D01*
X131549975Y-90978555D01*
X131564195Y-91031628D01*
X131567886Y-91041767D01*
X131655743Y-91230177D01*
X131661141Y-91239527D01*
X131693784Y-91286147D01*
X131701897Y-91293581D01*
X131711175Y-91287670D01*
X132379604Y-90619242D01*
X132386268Y-90607700D01*
X133103131Y-90607700D01*
X133109795Y-90619242D01*
X133778220Y-91287667D01*
X133787503Y-91293581D01*
X133795612Y-91286150D01*
X133828265Y-91239517D01*
X133833653Y-91230185D01*
X133921513Y-91041767D01*
X133925205Y-91031625D01*
X133979011Y-90830813D01*
X133980883Y-90820198D01*
X133999003Y-90613095D01*
X133999003Y-90602305D01*
X133980883Y-90395201D01*
X133979011Y-90384586D01*
X133925205Y-90183774D01*
X133921513Y-90173632D01*
X133833655Y-89985220D01*
X133828259Y-89975875D01*
X133795613Y-89929252D01*
X133787501Y-89921819D01*
X133778219Y-89927732D01*
X133109795Y-90596157D01*
X133103131Y-90607700D01*
X132386268Y-90607700D01*
X132379604Y-90596157D01*
X131711176Y-89927729D01*
X131701897Y-89921818D01*
X131693786Y-89929251D01*
X131661141Y-89975873D01*
X131655743Y-89985223D01*
X131567886Y-90173632D01*
X131564195Y-90183771D01*
X131549975Y-90236845D01*
X131521622Y-90288524D01*
X131472610Y-90321273D01*
X131414015Y-90327690D01*
X131359077Y-90306326D01*
X131320211Y-90262008D01*
X131306200Y-90204751D01*
X131306200Y-88472584D01*
X131320211Y-88415327D01*
X131359076Y-88371009D01*
X131414015Y-88349645D01*
X131472610Y-88356062D01*
X131521622Y-88388811D01*
X131549975Y-88440490D01*
X131561745Y-88484418D01*
X131565125Y-88497030D01*
X131567409Y-88501929D01*
X131567412Y-88501936D01*
X131655311Y-88690436D01*
X131655314Y-88690442D01*
X131657598Y-88695339D01*
X131660697Y-88699766D01*
X131660699Y-88699768D01*
X131779996Y-88870142D01*
X131779999Y-88870146D01*
X131783102Y-88874577D01*
X131937823Y-89029298D01*
X132117061Y-89154802D01*
X132121961Y-89157087D01*
X132121963Y-89157088D01*
X132268875Y-89225594D01*
X132321050Y-89271351D01*
X132340470Y-89337976D01*
X132321051Y-89404601D01*
X132268875Y-89450358D01*
X132122223Y-89518743D01*
X132112873Y-89524141D01*
X132066251Y-89556786D01*
X132058818Y-89564897D01*
X132064729Y-89574176D01*
X132733157Y-90242604D01*
X132744699Y-90249268D01*
X132756242Y-90242604D01*
X133424670Y-89574175D01*
X133430581Y-89564897D01*
X133423147Y-89556784D01*
X133376527Y-89524141D01*
X133367173Y-89518740D01*
X133220525Y-89450358D01*
X133168349Y-89404601D01*
X133148929Y-89337976D01*
X133168349Y-89271351D01*
X133220525Y-89225594D01*
X133367432Y-89157090D01*
X133367430Y-89157090D01*
X133372339Y-89154802D01*
X133551577Y-89029298D01*
X133706298Y-88874577D01*
X133831802Y-88695339D01*
X133924275Y-88497030D01*
X133980907Y-88285677D01*
X133999977Y-88067700D01*
X133980907Y-87849723D01*
X133924275Y-87638370D01*
X133831802Y-87440062D01*
X133706298Y-87260823D01*
X133551577Y-87106102D01*
X133547144Y-87102998D01*
X133547137Y-87102992D01*
X133405438Y-87003774D01*
X133365111Y-86956557D01*
X133352731Y-86895709D01*
X133371403Y-86836489D01*
X133416445Y-86793746D01*
X133476560Y-86778199D01*
X133542572Y-86778199D01*
X133602183Y-86771791D01*
X133737031Y-86721496D01*
X133852246Y-86635246D01*
X133938496Y-86520031D01*
X133988791Y-86385183D01*
X133995200Y-86325573D01*
X133995199Y-84729828D01*
X133988791Y-84670217D01*
X133938496Y-84535369D01*
X133852246Y-84420154D01*
X133828214Y-84402164D01*
X133744131Y-84339219D01*
X133744130Y-84339218D01*
X133737031Y-84333904D01*
X133625662Y-84292366D01*
X133609452Y-84286320D01*
X133609450Y-84286319D01*
X133602183Y-84283609D01*
X133594470Y-84282779D01*
X133594467Y-84282779D01*
X133545880Y-84277555D01*
X133545869Y-84277554D01*
X133542573Y-84277200D01*
X133539251Y-84277200D01*
X132431651Y-84277200D01*
X132375356Y-84263685D01*
X132331333Y-84226085D01*
X132309178Y-84172598D01*
X132313720Y-84114882D01*
X132343970Y-84065519D01*
X135533970Y-80875519D01*
X139066878Y-77342610D01*
X139122464Y-77310518D01*
X139186647Y-77310518D01*
X139255008Y-77328835D01*
X139481700Y-77348668D01*
X139708392Y-77328835D01*
X139928196Y-77269939D01*
X140134434Y-77173768D01*
X140320839Y-77043247D01*
X140481747Y-76882339D01*
X140612268Y-76695934D01*
X140708439Y-76489696D01*
X140767335Y-76269892D01*
X140787168Y-76043200D01*
X140767335Y-75816508D01*
X140749019Y-75748151D01*
X140709841Y-75601936D01*
X140709840Y-75601934D01*
X140708439Y-75596704D01*
X140612268Y-75390466D01*
X140481747Y-75204061D01*
X140320839Y-75043153D01*
X140160077Y-74930587D01*
X140121211Y-74886269D01*
X140107200Y-74829012D01*
X140107200Y-73039351D01*
X143174852Y-73039351D01*
X143175220Y-73050580D01*
X143222730Y-73227892D01*
X143226422Y-73238034D01*
X143317979Y-73434380D01*
X143323367Y-73443712D01*
X143447632Y-73621181D01*
X143454569Y-73629447D01*
X143607752Y-73782630D01*
X143616018Y-73789567D01*
X143793487Y-73913832D01*
X143802819Y-73919220D01*
X143999165Y-74010777D01*
X144009307Y-74014469D01*
X144186619Y-74061979D01*
X144197848Y-74062347D01*
X144200400Y-74051405D01*
X144700400Y-74051405D01*
X144702951Y-74062347D01*
X144714180Y-74061979D01*
X144891492Y-74014469D01*
X144901634Y-74010777D01*
X145097980Y-73919220D01*
X145107312Y-73913832D01*
X145284781Y-73789567D01*
X145293047Y-73782630D01*
X145446230Y-73629447D01*
X145453167Y-73621181D01*
X145577432Y-73443712D01*
X145582820Y-73434380D01*
X145674377Y-73238034D01*
X145678069Y-73227892D01*
X145725579Y-73050580D01*
X145725947Y-73039351D01*
X145715005Y-73036800D01*
X144716726Y-73036800D01*
X144703850Y-73040250D01*
X144700400Y-73053126D01*
X144700400Y-74051405D01*
X144200400Y-74051405D01*
X144200400Y-73053126D01*
X144196949Y-73040250D01*
X144184074Y-73036800D01*
X143185795Y-73036800D01*
X143174852Y-73039351D01*
X140107200Y-73039351D01*
X140107200Y-72534248D01*
X143174852Y-72534248D01*
X143185795Y-72536800D01*
X144184074Y-72536800D01*
X144196949Y-72533349D01*
X144200400Y-72520474D01*
X144700400Y-72520474D01*
X144703850Y-72533349D01*
X144716726Y-72536800D01*
X145715005Y-72536800D01*
X145725947Y-72534248D01*
X145725579Y-72523019D01*
X145678069Y-72345707D01*
X145674377Y-72335565D01*
X145582820Y-72139219D01*
X145577432Y-72129887D01*
X145453167Y-71952418D01*
X145446230Y-71944152D01*
X145293047Y-71790969D01*
X145284781Y-71784032D01*
X145107312Y-71659767D01*
X145097980Y-71654379D01*
X144901634Y-71562822D01*
X144891492Y-71559130D01*
X144714180Y-71511620D01*
X144702951Y-71511252D01*
X144700400Y-71522195D01*
X144700400Y-72520474D01*
X144200400Y-72520474D01*
X144200400Y-71522195D01*
X144197848Y-71511252D01*
X144186619Y-71511620D01*
X144009307Y-71559130D01*
X143999165Y-71562822D01*
X143802819Y-71654379D01*
X143793487Y-71659767D01*
X143616018Y-71784032D01*
X143607752Y-71790969D01*
X143454569Y-71944152D01*
X143447632Y-71952418D01*
X143323367Y-72129887D01*
X143317979Y-72139219D01*
X143226422Y-72335565D01*
X143222730Y-72345707D01*
X143175220Y-72523019D01*
X143174852Y-72534248D01*
X140107200Y-72534248D01*
X140107200Y-57546800D01*
X143144932Y-57546800D01*
X143164765Y-57773492D01*
X143166162Y-57778707D01*
X143166164Y-57778716D01*
X143222258Y-57988063D01*
X143222261Y-57988071D01*
X143223661Y-57993296D01*
X143319832Y-58199534D01*
X143450353Y-58385939D01*
X143611261Y-58546847D01*
X143797666Y-58677368D01*
X144003904Y-58773539D01*
X144009134Y-58774940D01*
X144009136Y-58774941D01*
X144181595Y-58821151D01*
X144223708Y-58832435D01*
X144450400Y-58852268D01*
X144677092Y-58832435D01*
X144896896Y-58773539D01*
X145103134Y-58677368D01*
X145289539Y-58546847D01*
X145450447Y-58385939D01*
X145580968Y-58199534D01*
X145677139Y-57993296D01*
X145736035Y-57773492D01*
X145755868Y-57546800D01*
X145736035Y-57320108D01*
X145677139Y-57100304D01*
X145580968Y-56894066D01*
X145450447Y-56707661D01*
X145289539Y-56546753D01*
X145103134Y-56416232D01*
X144896896Y-56320061D01*
X144891671Y-56318661D01*
X144891663Y-56318658D01*
X144682316Y-56262564D01*
X144682307Y-56262562D01*
X144677092Y-56261165D01*
X144671704Y-56260693D01*
X144671701Y-56260693D01*
X144455795Y-56241804D01*
X144450400Y-56241332D01*
X144445005Y-56241804D01*
X144229098Y-56260693D01*
X144229093Y-56260693D01*
X144223708Y-56261165D01*
X144218494Y-56262562D01*
X144218483Y-56262564D01*
X144009136Y-56318658D01*
X144009124Y-56318662D01*
X144003904Y-56320061D01*
X143998999Y-56322347D01*
X143998994Y-56322350D01*
X143802576Y-56413942D01*
X143802572Y-56413944D01*
X143797666Y-56416232D01*
X143793233Y-56419335D01*
X143793226Y-56419340D01*
X143615696Y-56543647D01*
X143615691Y-56543650D01*
X143611261Y-56546753D01*
X143607437Y-56550576D01*
X143607431Y-56550582D01*
X143454182Y-56703831D01*
X143454176Y-56703837D01*
X143450353Y-56707661D01*
X143447250Y-56712091D01*
X143447247Y-56712096D01*
X143322940Y-56889626D01*
X143322935Y-56889633D01*
X143319832Y-56894066D01*
X143317544Y-56898972D01*
X143317542Y-56898976D01*
X143225950Y-57095394D01*
X143225947Y-57095399D01*
X143223661Y-57100304D01*
X143222262Y-57105524D01*
X143222258Y-57105536D01*
X143166164Y-57314883D01*
X143166162Y-57314894D01*
X143164765Y-57320108D01*
X143164293Y-57325493D01*
X143164293Y-57325498D01*
X143148425Y-57506874D01*
X143144932Y-57546800D01*
X140107200Y-57546800D01*
X140107200Y-54639975D01*
X140107721Y-54628919D01*
X140109373Y-54621533D01*
X140107261Y-54554313D01*
X140107200Y-54550419D01*
X140107200Y-54526742D01*
X140107200Y-54522850D01*
X140106698Y-54518883D01*
X140105781Y-54507226D01*
X140104410Y-54463573D01*
X140098818Y-54444328D01*
X140094874Y-54425283D01*
X140092364Y-54405408D01*
X140076279Y-54364783D01*
X140072506Y-54353762D01*
X140060318Y-54311810D01*
X140050117Y-54294560D01*
X140041563Y-54277101D01*
X140034186Y-54258468D01*
X140008508Y-54223125D01*
X140002101Y-54213371D01*
X139983842Y-54182496D01*
X139983841Y-54182494D01*
X139979870Y-54175780D01*
X139965705Y-54161615D01*
X139953070Y-54146822D01*
X139941294Y-54130613D01*
X139935283Y-54125640D01*
X139935281Y-54125638D01*
X139907641Y-54102773D01*
X139899000Y-54094910D01*
X135240496Y-49436406D01*
X135210661Y-49388299D01*
X135205318Y-49331944D01*
X135225579Y-49279086D01*
X135267222Y-49240741D01*
X135317554Y-49226070D01*
X135317472Y-49225299D01*
X135377083Y-49218891D01*
X135511931Y-49168596D01*
X135627146Y-49082346D01*
X135713396Y-48967131D01*
X135752365Y-48862650D01*
X141214004Y-48862650D01*
X141221550Y-48870708D01*
X141389041Y-48984901D01*
X141397062Y-48989532D01*
X141631762Y-49102558D01*
X141640373Y-49105938D01*
X141889308Y-49182724D01*
X141898324Y-49184782D01*
X142155923Y-49223608D01*
X142165146Y-49224300D01*
X142425654Y-49224300D01*
X142434876Y-49223608D01*
X142692475Y-49184782D01*
X142701491Y-49182724D01*
X142950427Y-49105937D01*
X142959037Y-49102558D01*
X143193740Y-48989531D01*
X143201759Y-48984901D01*
X143369246Y-48870709D01*
X143376794Y-48862650D01*
X143370877Y-48853330D01*
X142306942Y-47789395D01*
X142295400Y-47782731D01*
X142283857Y-47789395D01*
X141219921Y-48853330D01*
X141214004Y-48862650D01*
X135752365Y-48862650D01*
X135763691Y-48832283D01*
X135770100Y-48772673D01*
X135770100Y-47428930D01*
X140490700Y-47428930D01*
X140510167Y-47688699D01*
X140511546Y-47697852D01*
X140569511Y-47951815D01*
X140572244Y-47960675D01*
X140667411Y-48203156D01*
X140671430Y-48211502D01*
X140801678Y-48437098D01*
X140806896Y-48444750D01*
X140846779Y-48494762D01*
X140858015Y-48502735D01*
X140870074Y-48496071D01*
X141930304Y-47435842D01*
X141936968Y-47424300D01*
X141936967Y-47424299D01*
X142653831Y-47424299D01*
X142660495Y-47435842D01*
X143720725Y-48496072D01*
X143732782Y-48502736D01*
X143744019Y-48494763D01*
X143783907Y-48444745D01*
X143789119Y-48437100D01*
X143919369Y-48211502D01*
X143923388Y-48203156D01*
X144018555Y-47960675D01*
X144021288Y-47951815D01*
X144079253Y-47697852D01*
X144080632Y-47688699D01*
X144100100Y-47428930D01*
X144100100Y-47419670D01*
X144080632Y-47159900D01*
X144079253Y-47150747D01*
X144021288Y-46896784D01*
X144018555Y-46887924D01*
X143923388Y-46645443D01*
X143919369Y-46637097D01*
X143789121Y-46411501D01*
X143783903Y-46403849D01*
X143744019Y-46353836D01*
X143732782Y-46345862D01*
X143720725Y-46352526D01*
X142660495Y-47412757D01*
X142653831Y-47424299D01*
X141936967Y-47424299D01*
X141930304Y-47412757D01*
X140870074Y-46352527D01*
X140858015Y-46345862D01*
X140846780Y-46353834D01*
X140806888Y-46403858D01*
X140801682Y-46411495D01*
X140671430Y-46637097D01*
X140667411Y-46645443D01*
X140572244Y-46887924D01*
X140569511Y-46896784D01*
X140511546Y-47150747D01*
X140510167Y-47159900D01*
X140490700Y-47419670D01*
X140490700Y-47428930D01*
X135770100Y-47428930D01*
X135770099Y-46076928D01*
X135763691Y-46017317D01*
X135751991Y-45985948D01*
X141214003Y-45985948D01*
X141219919Y-45995266D01*
X142283857Y-47059204D01*
X142295400Y-47065868D01*
X142306942Y-47059204D01*
X143370877Y-45995268D01*
X143376794Y-45985948D01*
X143369246Y-45977889D01*
X143201760Y-45863698D01*
X143193740Y-45859068D01*
X142959037Y-45746041D01*
X142950427Y-45742662D01*
X142701491Y-45665875D01*
X142692475Y-45663817D01*
X142434876Y-45624991D01*
X142425654Y-45624300D01*
X142165146Y-45624300D01*
X142155923Y-45624991D01*
X141898324Y-45663817D01*
X141889308Y-45665875D01*
X141640373Y-45742661D01*
X141631762Y-45746041D01*
X141397060Y-45859068D01*
X141389039Y-45863699D01*
X141221551Y-45977890D01*
X141214003Y-45985948D01*
X135751991Y-45985948D01*
X135713396Y-45882469D01*
X135627146Y-45767254D01*
X135594295Y-45742662D01*
X135519031Y-45686319D01*
X135519030Y-45686318D01*
X135511931Y-45681004D01*
X135377083Y-45630709D01*
X135369370Y-45629879D01*
X135369367Y-45629879D01*
X135320780Y-45624655D01*
X135320769Y-45624654D01*
X135317473Y-45624300D01*
X135314150Y-45624300D01*
X132625039Y-45624300D01*
X132625020Y-45624300D01*
X132621728Y-45624301D01*
X132618450Y-45624653D01*
X132618438Y-45624654D01*
X132569831Y-45629879D01*
X132569825Y-45629880D01*
X132562117Y-45630709D01*
X132554852Y-45633418D01*
X132554846Y-45633420D01*
X132435580Y-45677904D01*
X132435578Y-45677904D01*
X132427269Y-45681004D01*
X132420172Y-45686316D01*
X132420168Y-45686319D01*
X132319150Y-45761941D01*
X132319146Y-45761944D01*
X132312054Y-45767254D01*
X132306744Y-45774346D01*
X132306741Y-45774350D01*
X132231119Y-45875368D01*
X132231116Y-45875372D01*
X132225804Y-45882469D01*
X132222704Y-45890778D01*
X132222704Y-45890780D01*
X132178220Y-46010047D01*
X132178219Y-46010050D01*
X132175509Y-46017317D01*
X132174679Y-46025027D01*
X132174679Y-46025032D01*
X132169455Y-46073619D01*
X132169454Y-46073631D01*
X132169100Y-46076927D01*
X132169100Y-46080248D01*
X132169100Y-46080249D01*
X132169100Y-48769360D01*
X132169100Y-48769378D01*
X132169101Y-48772672D01*
X132169453Y-48775950D01*
X132169454Y-48775961D01*
X132174679Y-48824568D01*
X132174680Y-48824573D01*
X132175509Y-48832283D01*
X132178219Y-48839549D01*
X132178220Y-48839553D01*
X132189841Y-48870709D01*
X132225804Y-48967131D01*
X132231118Y-48974230D01*
X132231119Y-48974231D01*
X132305992Y-49074249D01*
X132312054Y-49082346D01*
X132427269Y-49168596D01*
X132562117Y-49218891D01*
X132621727Y-49225300D01*
X133278056Y-49225299D01*
X133324907Y-49234491D01*
X133364812Y-49260703D01*
X133390120Y-49297523D01*
X133390982Y-49300490D01*
X133394950Y-49307200D01*
X133394952Y-49307204D01*
X133401181Y-49317737D01*
X133409736Y-49335199D01*
X133414242Y-49346580D01*
X133414243Y-49346583D01*
X133417114Y-49353832D01*
X133423687Y-49362879D01*
X133442781Y-49389160D01*
X133449193Y-49398922D01*
X133467456Y-49429802D01*
X133467459Y-49429807D01*
X133471430Y-49436520D01*
X133476944Y-49442034D01*
X133476945Y-49442035D01*
X133485590Y-49450680D01*
X133498226Y-49465474D01*
X133505419Y-49475375D01*
X133505423Y-49475379D01*
X133510006Y-49481687D01*
X133516015Y-49486658D01*
X133516016Y-49486659D01*
X133543658Y-49509526D01*
X133552299Y-49517389D01*
X138819881Y-54784971D01*
X138846761Y-54825199D01*
X138856200Y-54872652D01*
X138856200Y-64548725D01*
X138837388Y-64614387D01*
X138786660Y-64660126D01*
X138719408Y-64672063D01*
X138656037Y-64646578D01*
X138528981Y-64547686D01*
X138520423Y-64542094D01*
X138310814Y-64428660D01*
X138301460Y-64424557D01*
X138076043Y-64347172D01*
X138066131Y-64344661D01*
X137831056Y-64305434D01*
X137820861Y-64304590D01*
X137582539Y-64304590D01*
X137572343Y-64305434D01*
X137337268Y-64344661D01*
X137327356Y-64347172D01*
X137101939Y-64424557D01*
X137092585Y-64428660D01*
X136882976Y-64542094D01*
X136874417Y-64547686D01*
X136845554Y-64570150D01*
X136837448Y-64581339D01*
X136844108Y-64593445D01*
X137967571Y-65716908D01*
X137999665Y-65772495D01*
X137999665Y-65836683D01*
X137967571Y-65892270D01*
X136844108Y-67015733D01*
X136837449Y-67027838D01*
X136845555Y-67039029D01*
X136874417Y-67061493D01*
X136882979Y-67067086D01*
X137092585Y-67180519D01*
X137101939Y-67184622D01*
X137327356Y-67262007D01*
X137337268Y-67264518D01*
X137572343Y-67303745D01*
X137582539Y-67304590D01*
X137820861Y-67304590D01*
X137831056Y-67303745D01*
X138066131Y-67264518D01*
X138076043Y-67262007D01*
X138301460Y-67184622D01*
X138310814Y-67180519D01*
X138520423Y-67067085D01*
X138528981Y-67061493D01*
X138656037Y-66962602D01*
X138719408Y-66937117D01*
X138786660Y-66949054D01*
X138837388Y-66994793D01*
X138856200Y-67060455D01*
X138856200Y-74829012D01*
X138842189Y-74886269D01*
X138803323Y-74930587D01*
X138646996Y-75040047D01*
X138646991Y-75040050D01*
X138642561Y-75043153D01*
X138638737Y-75046976D01*
X138638731Y-75046982D01*
X138485482Y-75200231D01*
X138485476Y-75200237D01*
X138481653Y-75204061D01*
X138478550Y-75208491D01*
X138478547Y-75208496D01*
X138354240Y-75386026D01*
X138354235Y-75386033D01*
X138351132Y-75390466D01*
X138348844Y-75395372D01*
X138348842Y-75395376D01*
X138257250Y-75591794D01*
X138257247Y-75591799D01*
X138254961Y-75596704D01*
X138253562Y-75601924D01*
X138253558Y-75601936D01*
X138197464Y-75811283D01*
X138197462Y-75811294D01*
X138196065Y-75816508D01*
X138176232Y-76043200D01*
X138176704Y-76048595D01*
X138193171Y-76236822D01*
X138196065Y-76269892D01*
X138197463Y-76275111D01*
X138197465Y-76275120D01*
X138214380Y-76338248D01*
X138214380Y-76402434D01*
X138182286Y-76458021D01*
X130293396Y-84346911D01*
X130285211Y-84354359D01*
X130278823Y-84358414D01*
X130273488Y-84364094D01*
X130273483Y-84364099D01*
X130232796Y-84407425D01*
X130230092Y-84410216D01*
X130213328Y-84426980D01*
X130213321Y-84426987D01*
X130210580Y-84429729D01*
X130208200Y-84432796D01*
X130208189Y-84432809D01*
X130208100Y-84432925D01*
X130200542Y-84441770D01*
X130175980Y-84467927D01*
X130175973Y-84467936D01*
X130170638Y-84473618D01*
X130166882Y-84480449D01*
X130166879Y-84480454D01*
X130160985Y-84491175D01*
X130150309Y-84507427D01*
X130142809Y-84517096D01*
X130142801Y-84517107D01*
X130138027Y-84523264D01*
X130134934Y-84530408D01*
X130134929Y-84530419D01*
X130120674Y-84563360D01*
X130115538Y-84573843D01*
X130098260Y-84605273D01*
X130094503Y-84612108D01*
X130092564Y-84619656D01*
X130092563Y-84619661D01*
X130089522Y-84631507D01*
X130083221Y-84649911D01*
X130078358Y-84661148D01*
X130078356Y-84661152D01*
X130075262Y-84668304D01*
X130074042Y-84676003D01*
X130074042Y-84676005D01*
X130068429Y-84711441D01*
X130066061Y-84722876D01*
X130057138Y-84757628D01*
X130057136Y-84757636D01*
X130055200Y-84765181D01*
X130055200Y-84772977D01*
X130055200Y-84785217D01*
X130053674Y-84804602D01*
X130050540Y-84824396D01*
X130051274Y-84832161D01*
X130051274Y-84832164D01*
X130054650Y-84867876D01*
X130055200Y-84879545D01*
X130055200Y-103532747D01*
X130041685Y-103589042D01*
X130004085Y-103633065D01*
X129950598Y-103655220D01*
X129892882Y-103650678D01*
X129843519Y-103620428D01*
X122441229Y-96218138D01*
X122412915Y-96174288D01*
X122405155Y-96122671D01*
X122405565Y-96116151D01*
X122407027Y-96108488D01*
X122403545Y-96053141D01*
X122403300Y-96045355D01*
X122403300Y-96033443D01*
X122403300Y-96029550D01*
X122401317Y-96013857D01*
X122400587Y-96006131D01*
X122397104Y-95950762D01*
X122394580Y-95942994D01*
X122389487Y-95920210D01*
X122388464Y-95912108D01*
X122368033Y-95860506D01*
X122365403Y-95853199D01*
X122353975Y-95818027D01*
X122348267Y-95800459D01*
X122343891Y-95793563D01*
X122333297Y-95772773D01*
X122330286Y-95765168D01*
X122297681Y-95720291D01*
X122293302Y-95713848D01*
X122278346Y-95690281D01*
X122263586Y-95667023D01*
X122257899Y-95661683D01*
X122257896Y-95661679D01*
X122257635Y-95661434D01*
X122242195Y-95643921D01*
X122241980Y-95643626D01*
X122237394Y-95637313D01*
X122194660Y-95601960D01*
X122188818Y-95596810D01*
X122181302Y-95589752D01*
X122148382Y-95558838D01*
X122141550Y-95555082D01*
X122141546Y-95555079D01*
X122141211Y-95554895D01*
X122121917Y-95541782D01*
X122121638Y-95541551D01*
X122121632Y-95541547D01*
X122115623Y-95536576D01*
X122065433Y-95512957D01*
X122058503Y-95509427D01*
X122017261Y-95486754D01*
X121970268Y-95441215D01*
X121952999Y-95378093D01*
X121952999Y-94724339D01*
X121952999Y-94721028D01*
X121946591Y-94661417D01*
X121896296Y-94526569D01*
X121810046Y-94411354D01*
X121694831Y-94325104D01*
X121559983Y-94274809D01*
X121552270Y-94273979D01*
X121552267Y-94273979D01*
X121503680Y-94268755D01*
X121503669Y-94268754D01*
X121500373Y-94268400D01*
X121497050Y-94268400D01*
X118807939Y-94268400D01*
X118807920Y-94268400D01*
X118804628Y-94268401D01*
X118801350Y-94268753D01*
X118801338Y-94268754D01*
X118752731Y-94273979D01*
X118752725Y-94273980D01*
X118745017Y-94274809D01*
X118737752Y-94277518D01*
X118737746Y-94277520D01*
X118618480Y-94322004D01*
X118618478Y-94322004D01*
X118610169Y-94325104D01*
X118603072Y-94330416D01*
X118603068Y-94330419D01*
X118502050Y-94406041D01*
X118502046Y-94406044D01*
X118494954Y-94411354D01*
X118489644Y-94418446D01*
X118489641Y-94418450D01*
X118414019Y-94519468D01*
X118414016Y-94519472D01*
X118408704Y-94526569D01*
X118405604Y-94534878D01*
X118405604Y-94534880D01*
X118361120Y-94654147D01*
X118361119Y-94654150D01*
X118358409Y-94661417D01*
X118357579Y-94669127D01*
X118357579Y-94669132D01*
X118352355Y-94717719D01*
X118352354Y-94717731D01*
X118352000Y-94721027D01*
X118352000Y-94724348D01*
X118352000Y-94724349D01*
X118352000Y-97413460D01*
X118352000Y-97413478D01*
X118352001Y-97416772D01*
X118352353Y-97420050D01*
X118352354Y-97420061D01*
X118357579Y-97468668D01*
X118357580Y-97468673D01*
X118358409Y-97476383D01*
X118361119Y-97483649D01*
X118361120Y-97483653D01*
X118379013Y-97531625D01*
X118408704Y-97611231D01*
X118414018Y-97618330D01*
X118414019Y-97618331D01*
X118468012Y-97690457D01*
X118494954Y-97726446D01*
X118610169Y-97812696D01*
X118745017Y-97862991D01*
X118804627Y-97869400D01*
X121500372Y-97869399D01*
X121559983Y-97862991D01*
X121694831Y-97812696D01*
X121810046Y-97726446D01*
X121882823Y-97629227D01*
X121922661Y-97594708D01*
X121973242Y-97579856D01*
X122025421Y-97587358D01*
X122069769Y-97615859D01*
X130521461Y-106067552D01*
X130553554Y-106123138D01*
X130553555Y-106187324D01*
X130528038Y-106282558D01*
X130528035Y-106282573D01*
X130526637Y-106287792D01*
X130526165Y-106293183D01*
X130526165Y-106293185D01*
X130521855Y-106342452D01*
X130506041Y-106523200D01*
X130526637Y-106758608D01*
X130528036Y-106763830D01*
X130528037Y-106763834D01*
X130586394Y-106981630D01*
X130586397Y-106981638D01*
X130587797Y-106986863D01*
X130590085Y-106991770D01*
X130590086Y-106991772D01*
X130685378Y-107196127D01*
X130685381Y-107196133D01*
X130687665Y-107201030D01*
X130690764Y-107205457D01*
X130690766Y-107205459D01*
X130820099Y-107390166D01*
X130820102Y-107390170D01*
X130823205Y-107394601D01*
X130990299Y-107561695D01*
X130994732Y-107564799D01*
X130994738Y-107564804D01*
X131175858Y-107691625D01*
X131214724Y-107735943D01*
X131228735Y-107793200D01*
X131214724Y-107850457D01*
X131175859Y-107894775D01*
X130994741Y-108021595D01*
X130990299Y-108024705D01*
X130986475Y-108028528D01*
X130986469Y-108028534D01*
X130827034Y-108187969D01*
X130827028Y-108187975D01*
X130823205Y-108191799D01*
X130820102Y-108196229D01*
X130820099Y-108196234D01*
X130690773Y-108380931D01*
X130690768Y-108380938D01*
X130687665Y-108385371D01*
X130685377Y-108390277D01*
X130685375Y-108390281D01*
X130590086Y-108594627D01*
X130590083Y-108594632D01*
X130587797Y-108599537D01*
X130586398Y-108604757D01*
X130586394Y-108604769D01*
X130528037Y-108822565D01*
X130528035Y-108822571D01*
X130526637Y-108827792D01*
X130506041Y-109063200D01*
X130506513Y-109068595D01*
X130524054Y-109269091D01*
X130526637Y-109298608D01*
X130528036Y-109303830D01*
X130528037Y-109303834D01*
X130586394Y-109521630D01*
X130586397Y-109521638D01*
X130587797Y-109526863D01*
X130590085Y-109531770D01*
X130590086Y-109531772D01*
X130685378Y-109736127D01*
X130685381Y-109736133D01*
X130687665Y-109741030D01*
X130690764Y-109745457D01*
X130690766Y-109745459D01*
X130820099Y-109930166D01*
X130820102Y-109930170D01*
X130823205Y-109934601D01*
X130990299Y-110101695D01*
X130994732Y-110104799D01*
X130994738Y-110104804D01*
X131175858Y-110231625D01*
X131214724Y-110275943D01*
X131228735Y-110333200D01*
X131214724Y-110390457D01*
X131175859Y-110434775D01*
X130994741Y-110561595D01*
X130990299Y-110564705D01*
X130986475Y-110568528D01*
X130986469Y-110568534D01*
X130827034Y-110727969D01*
X130827028Y-110727975D01*
X130823205Y-110731799D01*
X130820102Y-110736229D01*
X130820099Y-110736234D01*
X130690773Y-110920931D01*
X130690768Y-110920938D01*
X130687665Y-110925371D01*
X130685377Y-110930277D01*
X130685375Y-110930281D01*
X130590086Y-111134627D01*
X130590083Y-111134632D01*
X130587797Y-111139537D01*
X130586398Y-111144757D01*
X130586394Y-111144769D01*
X130528037Y-111362565D01*
X130528035Y-111362571D01*
X130526637Y-111367792D01*
X130506041Y-111603200D01*
X130506513Y-111608595D01*
X130522729Y-111793949D01*
X130526637Y-111838608D01*
X130528036Y-111843830D01*
X130528037Y-111843834D01*
X130586394Y-112061630D01*
X130586397Y-112061638D01*
X130587797Y-112066863D01*
X130590085Y-112071770D01*
X130590086Y-112071772D01*
X130685378Y-112276127D01*
X130685381Y-112276133D01*
X130687665Y-112281030D01*
X130690764Y-112285457D01*
X130690766Y-112285459D01*
X130820099Y-112470166D01*
X130820102Y-112470170D01*
X130823205Y-112474601D01*
X130990299Y-112641695D01*
X130994732Y-112644799D01*
X130994738Y-112644804D01*
X131175858Y-112771625D01*
X131214724Y-112815943D01*
X131228735Y-112873200D01*
X131214724Y-112930457D01*
X131175859Y-112974775D01*
X130994741Y-113101595D01*
X130990299Y-113104705D01*
X130986475Y-113108528D01*
X130986469Y-113108534D01*
X130912723Y-113182281D01*
X130872495Y-113209161D01*
X130825042Y-113218600D01*
X123238153Y-113218600D01*
X123190700Y-113209161D01*
X123150472Y-113182281D01*
X121848276Y-111880085D01*
X121821694Y-111840569D01*
X121811967Y-111793949D01*
X121820527Y-111747106D01*
X121877834Y-111601095D01*
X121937883Y-111338003D01*
X121958049Y-111068900D01*
X121937883Y-110799797D01*
X121877834Y-110536705D01*
X121779243Y-110285502D01*
X121644315Y-110051798D01*
X121476061Y-109840815D01*
X121358592Y-109731820D01*
X121281646Y-109660424D01*
X121281643Y-109660421D01*
X121278241Y-109657265D01*
X121274412Y-109654654D01*
X121274409Y-109654652D01*
X121094177Y-109531772D01*
X121055275Y-109505249D01*
X121051089Y-109503233D01*
X120816320Y-109390174D01*
X120816314Y-109390171D01*
X120812141Y-109388162D01*
X120807719Y-109386798D01*
X120807709Y-109386794D01*
X120558702Y-109309986D01*
X120558696Y-109309984D01*
X120554272Y-109308620D01*
X120549695Y-109307930D01*
X120549686Y-109307928D01*
X120292014Y-109269091D01*
X120292013Y-109269090D01*
X120287429Y-109268400D01*
X120017571Y-109268400D01*
X120012987Y-109269090D01*
X120012985Y-109269091D01*
X119755313Y-109307928D01*
X119755301Y-109307930D01*
X119750728Y-109308620D01*
X119746306Y-109309983D01*
X119746297Y-109309986D01*
X119497290Y-109386794D01*
X119497275Y-109386799D01*
X119492859Y-109388162D01*
X119488685Y-109390171D01*
X119488680Y-109390174D01*
X119253911Y-109503233D01*
X119253904Y-109503236D01*
X119249726Y-109505249D01*
X119245893Y-109507862D01*
X119245890Y-109507864D01*
X119030590Y-109654652D01*
X119030580Y-109654659D01*
X119026759Y-109657265D01*
X119023363Y-109660416D01*
X119023353Y-109660424D01*
X118832343Y-109837656D01*
X118832339Y-109837659D01*
X118828939Y-109840815D01*
X118826049Y-109844437D01*
X118826046Y-109844442D01*
X118696919Y-110006362D01*
X118660685Y-110051798D01*
X118658366Y-110055813D01*
X118658365Y-110055816D01*
X118528078Y-110281481D01*
X118528075Y-110281486D01*
X118525757Y-110285502D01*
X118524063Y-110289816D01*
X118524061Y-110289822D01*
X118428863Y-110532380D01*
X118427166Y-110536705D01*
X118426133Y-110541226D01*
X118426132Y-110541233D01*
X118368148Y-110795277D01*
X118368146Y-110795285D01*
X118367117Y-110799797D01*
X118346951Y-111068900D01*
X115514394Y-111068900D01*
X115514394Y-107507250D01*
X119071104Y-107507250D01*
X119078650Y-107515308D01*
X119246141Y-107629501D01*
X119254162Y-107634132D01*
X119488862Y-107747158D01*
X119497473Y-107750538D01*
X119746408Y-107827324D01*
X119755424Y-107829382D01*
X120013023Y-107868208D01*
X120022246Y-107868900D01*
X120282754Y-107868900D01*
X120291976Y-107868208D01*
X120549575Y-107829382D01*
X120558591Y-107827324D01*
X120807527Y-107750537D01*
X120816137Y-107747158D01*
X121050840Y-107634131D01*
X121058859Y-107629501D01*
X121226346Y-107515309D01*
X121233894Y-107507250D01*
X121227977Y-107497930D01*
X120164042Y-106433995D01*
X120152499Y-106427331D01*
X120140957Y-106433995D01*
X119077021Y-107497930D01*
X119071104Y-107507250D01*
X115514394Y-107507250D01*
X115514394Y-106073530D01*
X118347800Y-106073530D01*
X118367267Y-106333299D01*
X118368646Y-106342452D01*
X118426611Y-106596415D01*
X118429344Y-106605275D01*
X118524511Y-106847756D01*
X118528530Y-106856102D01*
X118658778Y-107081698D01*
X118663996Y-107089350D01*
X118703879Y-107139362D01*
X118715115Y-107147335D01*
X118727174Y-107140671D01*
X119787404Y-106080442D01*
X119794068Y-106068900D01*
X120510931Y-106068900D01*
X120517595Y-106080442D01*
X121577825Y-107140672D01*
X121589882Y-107147336D01*
X121601119Y-107139363D01*
X121641007Y-107089345D01*
X121646219Y-107081700D01*
X121776469Y-106856102D01*
X121780488Y-106847756D01*
X121875655Y-106605275D01*
X121878388Y-106596415D01*
X121936353Y-106342452D01*
X121937732Y-106333299D01*
X121957200Y-106073530D01*
X121957200Y-106064270D01*
X121937732Y-105804500D01*
X121936353Y-105795347D01*
X121878388Y-105541384D01*
X121875655Y-105532524D01*
X121780488Y-105290043D01*
X121776469Y-105281697D01*
X121646221Y-105056101D01*
X121641003Y-105048449D01*
X121601119Y-104998436D01*
X121589882Y-104990462D01*
X121577825Y-104997126D01*
X120517595Y-106057357D01*
X120510931Y-106068900D01*
X119794068Y-106068900D01*
X119787404Y-106057357D01*
X118727174Y-104997127D01*
X118715115Y-104990462D01*
X118703880Y-104998434D01*
X118663988Y-105048458D01*
X118658782Y-105056095D01*
X118528530Y-105281697D01*
X118524511Y-105290043D01*
X118429344Y-105532524D01*
X118426611Y-105541384D01*
X118368646Y-105795347D01*
X118367267Y-105804500D01*
X118347800Y-106064270D01*
X118347800Y-106073530D01*
X115514394Y-106073530D01*
X115514394Y-104630548D01*
X119071103Y-104630548D01*
X119077019Y-104639866D01*
X120140957Y-105703804D01*
X120152500Y-105710468D01*
X120164042Y-105703804D01*
X121227977Y-104639868D01*
X121233894Y-104630548D01*
X121226346Y-104622489D01*
X121058860Y-104508298D01*
X121050840Y-104503668D01*
X120816137Y-104390641D01*
X120807527Y-104387262D01*
X120558591Y-104310475D01*
X120549575Y-104308417D01*
X120291976Y-104269591D01*
X120282754Y-104268900D01*
X120022246Y-104268900D01*
X120013023Y-104269591D01*
X119755424Y-104308417D01*
X119746408Y-104310475D01*
X119497473Y-104387261D01*
X119488862Y-104390641D01*
X119254160Y-104503668D01*
X119246139Y-104508299D01*
X119078651Y-104622490D01*
X119071103Y-104630548D01*
X115514394Y-104630548D01*
X115514394Y-101068900D01*
X118346951Y-101068900D01*
X118347298Y-101073531D01*
X118365260Y-101313233D01*
X118367117Y-101338003D01*
X118368147Y-101342516D01*
X118368148Y-101342522D01*
X118392981Y-101451321D01*
X118427166Y-101601095D01*
X118525757Y-101852298D01*
X118660685Y-102086002D01*
X118828939Y-102296985D01*
X119026759Y-102480535D01*
X119249726Y-102632551D01*
X119492859Y-102749638D01*
X119497287Y-102751003D01*
X119497290Y-102751005D01*
X119586625Y-102778561D01*
X119750728Y-102829180D01*
X120017571Y-102869400D01*
X120282792Y-102869400D01*
X120287429Y-102869400D01*
X120554272Y-102829180D01*
X120812141Y-102749638D01*
X121055275Y-102632551D01*
X121278241Y-102480535D01*
X121476061Y-102296985D01*
X121644315Y-102086002D01*
X121779243Y-101852298D01*
X121877834Y-101601095D01*
X121937883Y-101338003D01*
X121958049Y-101068900D01*
X121937883Y-100799797D01*
X121877834Y-100536705D01*
X121779243Y-100285502D01*
X121644315Y-100051798D01*
X121476061Y-99840815D01*
X121278241Y-99657265D01*
X121274412Y-99654654D01*
X121274409Y-99654652D01*
X121159234Y-99576127D01*
X121055275Y-99505249D01*
X121051089Y-99503233D01*
X120816320Y-99390174D01*
X120816314Y-99390171D01*
X120812141Y-99388162D01*
X120807719Y-99386798D01*
X120807709Y-99386794D01*
X120558702Y-99309986D01*
X120558696Y-99309984D01*
X120554272Y-99308620D01*
X120549695Y-99307930D01*
X120549686Y-99307928D01*
X120292014Y-99269091D01*
X120292013Y-99269090D01*
X120287429Y-99268400D01*
X120017571Y-99268400D01*
X120012987Y-99269090D01*
X120012985Y-99269091D01*
X119755313Y-99307928D01*
X119755301Y-99307930D01*
X119750728Y-99308620D01*
X119746306Y-99309983D01*
X119746297Y-99309986D01*
X119497290Y-99386794D01*
X119497275Y-99386799D01*
X119492859Y-99388162D01*
X119488685Y-99390171D01*
X119488680Y-99390174D01*
X119253911Y-99503233D01*
X119253904Y-99503236D01*
X119249726Y-99505249D01*
X119245893Y-99507862D01*
X119245890Y-99507864D01*
X119030590Y-99654652D01*
X119030580Y-99654659D01*
X119026759Y-99657265D01*
X119023363Y-99660416D01*
X119023353Y-99660424D01*
X118832343Y-99837656D01*
X118832339Y-99837659D01*
X118828939Y-99840815D01*
X118826049Y-99844437D01*
X118826046Y-99844442D01*
X118663577Y-100048171D01*
X118660685Y-100051798D01*
X118658366Y-100055813D01*
X118658365Y-100055816D01*
X118528078Y-100281481D01*
X118528075Y-100281486D01*
X118525757Y-100285502D01*
X118524063Y-100289816D01*
X118524061Y-100289822D01*
X118477469Y-100408536D01*
X118427166Y-100536705D01*
X118426133Y-100541226D01*
X118426132Y-100541233D01*
X118368148Y-100795277D01*
X118368146Y-100795285D01*
X118367117Y-100799797D01*
X118366770Y-100804416D01*
X118366770Y-100804422D01*
X118353035Y-100987713D01*
X118346951Y-101068900D01*
X115514394Y-101068900D01*
X115514394Y-62299696D01*
X117968440Y-62299696D01*
X117969174Y-62307461D01*
X117969174Y-62307464D01*
X117972550Y-62343176D01*
X117973100Y-62354845D01*
X117973100Y-84246725D01*
X117972578Y-84257780D01*
X117970927Y-84265167D01*
X117971171Y-84272953D01*
X117971171Y-84272961D01*
X117973039Y-84332373D01*
X117973100Y-84336268D01*
X117973100Y-84363850D01*
X117973588Y-84367719D01*
X117973589Y-84367725D01*
X117973604Y-84367843D01*
X117974518Y-84379466D01*
X117975645Y-84415330D01*
X117975646Y-84415337D01*
X117975891Y-84423127D01*
X117978067Y-84430619D01*
X117978068Y-84430621D01*
X117981479Y-84442362D01*
X117985425Y-84461415D01*
X117987936Y-84481292D01*
X117990806Y-84488542D01*
X117990808Y-84488548D01*
X118004014Y-84521904D01*
X118007797Y-84532951D01*
X118019982Y-84574890D01*
X118023953Y-84581605D01*
X118023954Y-84581607D01*
X118030181Y-84592137D01*
X118038736Y-84609599D01*
X118043242Y-84620980D01*
X118043243Y-84620983D01*
X118046114Y-84628232D01*
X118053742Y-84638731D01*
X118071781Y-84663560D01*
X118078193Y-84673322D01*
X118096456Y-84704202D01*
X118096459Y-84704207D01*
X118100430Y-84710920D01*
X118105945Y-84716435D01*
X118114590Y-84725080D01*
X118127226Y-84739874D01*
X118134419Y-84749775D01*
X118134423Y-84749779D01*
X118139006Y-84756087D01*
X118145015Y-84761058D01*
X118145016Y-84761059D01*
X118172658Y-84783926D01*
X118181299Y-84791789D01*
X118541523Y-85152013D01*
X118568105Y-85191528D01*
X118577832Y-85238148D01*
X118569270Y-85284996D01*
X118513662Y-85426682D01*
X118513659Y-85426689D01*
X118511966Y-85431005D01*
X118510934Y-85435523D01*
X118510933Y-85435529D01*
X118452948Y-85689577D01*
X118452946Y-85689585D01*
X118451917Y-85694097D01*
X118451570Y-85698716D01*
X118451570Y-85698722D01*
X118436253Y-85903125D01*
X118431751Y-85963200D01*
X118432098Y-85967831D01*
X118446262Y-86156848D01*
X118451917Y-86232303D01*
X118452947Y-86236816D01*
X118452948Y-86236822D01*
X118509752Y-86485697D01*
X118511966Y-86495395D01*
X118610557Y-86746598D01*
X118745485Y-86980302D01*
X118913739Y-87191285D01*
X119111559Y-87374835D01*
X119334526Y-87526851D01*
X119577659Y-87643938D01*
X119582087Y-87645303D01*
X119582090Y-87645305D01*
X119638860Y-87662816D01*
X119835528Y-87723480D01*
X120102371Y-87763700D01*
X120367592Y-87763700D01*
X120372229Y-87763700D01*
X120639072Y-87723480D01*
X120896941Y-87643938D01*
X121140075Y-87526851D01*
X121363041Y-87374835D01*
X121560861Y-87191285D01*
X121729115Y-86980302D01*
X121864043Y-86746598D01*
X121962634Y-86495395D01*
X122022683Y-86232303D01*
X122042849Y-85963200D01*
X122022683Y-85694097D01*
X121962634Y-85431005D01*
X121864043Y-85179802D01*
X121729115Y-84946098D01*
X121560861Y-84735115D01*
X121449198Y-84631507D01*
X121366446Y-84554724D01*
X121366443Y-84554721D01*
X121363041Y-84551565D01*
X121359212Y-84548954D01*
X121359209Y-84548952D01*
X121240367Y-84467927D01*
X121140075Y-84399549D01*
X121135889Y-84397533D01*
X120901120Y-84284474D01*
X120901114Y-84284471D01*
X120896941Y-84282462D01*
X120892519Y-84281098D01*
X120892509Y-84281094D01*
X120643502Y-84204286D01*
X120643496Y-84204284D01*
X120639072Y-84202920D01*
X120634495Y-84202230D01*
X120634486Y-84202228D01*
X120376814Y-84163391D01*
X120376813Y-84163390D01*
X120372229Y-84162700D01*
X120102371Y-84162700D01*
X120097787Y-84163390D01*
X120097785Y-84163391D01*
X119840113Y-84202228D01*
X119840101Y-84202230D01*
X119835528Y-84202920D01*
X119831106Y-84204283D01*
X119831097Y-84204286D01*
X119582089Y-84281095D01*
X119582082Y-84281097D01*
X119577659Y-84282462D01*
X119564787Y-84288660D01*
X119515625Y-84300851D01*
X119465688Y-84292366D01*
X119423310Y-84264619D01*
X119260419Y-84101728D01*
X119233539Y-84061500D01*
X119224100Y-84014047D01*
X119224100Y-82670463D01*
X119239572Y-82610482D01*
X119282128Y-82565469D01*
X119341147Y-82546658D01*
X119401901Y-82558743D01*
X119573657Y-82641456D01*
X119582273Y-82644838D01*
X119831208Y-82721624D01*
X119840224Y-82723682D01*
X120097823Y-82762508D01*
X120107046Y-82763200D01*
X120367554Y-82763200D01*
X120376776Y-82762508D01*
X120634375Y-82723682D01*
X120643391Y-82721624D01*
X120892327Y-82644837D01*
X120900937Y-82641458D01*
X121135640Y-82528431D01*
X121143659Y-82523801D01*
X121311146Y-82409609D01*
X121318694Y-82401550D01*
X121312777Y-82392230D01*
X119971428Y-81050881D01*
X119939334Y-80995294D01*
X119939334Y-80963199D01*
X120595731Y-80963199D01*
X120602395Y-80974742D01*
X121662625Y-82034972D01*
X121674682Y-82041636D01*
X121685919Y-82033663D01*
X121725807Y-81983645D01*
X121731019Y-81976000D01*
X121861269Y-81750402D01*
X121865288Y-81742056D01*
X121960455Y-81499575D01*
X121963188Y-81490715D01*
X122021153Y-81236752D01*
X122022532Y-81227599D01*
X122042000Y-80967830D01*
X122042000Y-80958570D01*
X122022532Y-80698800D01*
X122021153Y-80689647D01*
X121963188Y-80435684D01*
X121960455Y-80426824D01*
X121865288Y-80184343D01*
X121861269Y-80175997D01*
X121731021Y-79950401D01*
X121725803Y-79942749D01*
X121685919Y-79892736D01*
X121674682Y-79884762D01*
X121662625Y-79891426D01*
X120602395Y-80951657D01*
X120595731Y-80963199D01*
X119939334Y-80963199D01*
X119939334Y-80931106D01*
X119971428Y-80875519D01*
X120237300Y-80609647D01*
X121312777Y-79534168D01*
X121318694Y-79524848D01*
X121311146Y-79516789D01*
X121143660Y-79402598D01*
X121135640Y-79397968D01*
X120900937Y-79284941D01*
X120892327Y-79281562D01*
X120643391Y-79204775D01*
X120634375Y-79202717D01*
X120376776Y-79163891D01*
X120367554Y-79163200D01*
X120107046Y-79163200D01*
X120097823Y-79163891D01*
X119840224Y-79202717D01*
X119831208Y-79204775D01*
X119582273Y-79281561D01*
X119573657Y-79284943D01*
X119401901Y-79367657D01*
X119341147Y-79379742D01*
X119282128Y-79360931D01*
X119239572Y-79315918D01*
X119224100Y-79255937D01*
X119224100Y-77671018D01*
X119239572Y-77611037D01*
X119282128Y-77566024D01*
X119341147Y-77547213D01*
X119401902Y-77559298D01*
X119567342Y-77638969D01*
X119577659Y-77643938D01*
X119582087Y-77645303D01*
X119582090Y-77645305D01*
X119665450Y-77671018D01*
X119835528Y-77723480D01*
X120102371Y-77763700D01*
X120367592Y-77763700D01*
X120372229Y-77763700D01*
X120639072Y-77723480D01*
X120896941Y-77643938D01*
X121140075Y-77526851D01*
X121363041Y-77374835D01*
X121560861Y-77191285D01*
X121729115Y-76980302D01*
X121864043Y-76746598D01*
X121962634Y-76495395D01*
X122022683Y-76232303D01*
X122042849Y-75963200D01*
X122022683Y-75694097D01*
X121962634Y-75431005D01*
X121864043Y-75179802D01*
X121729115Y-74946098D01*
X121560861Y-74735115D01*
X121363041Y-74551565D01*
X121359212Y-74548954D01*
X121359209Y-74548952D01*
X121143910Y-74402164D01*
X121140075Y-74399549D01*
X121072698Y-74367102D01*
X120901120Y-74284474D01*
X120901114Y-74284471D01*
X120896941Y-74282462D01*
X120892519Y-74281098D01*
X120892509Y-74281094D01*
X120643502Y-74204286D01*
X120643496Y-74204284D01*
X120639072Y-74202920D01*
X120634495Y-74202230D01*
X120634486Y-74202228D01*
X120376814Y-74163391D01*
X120376813Y-74163390D01*
X120372229Y-74162700D01*
X120102371Y-74162700D01*
X120097787Y-74163390D01*
X120097785Y-74163391D01*
X119840113Y-74202228D01*
X119840101Y-74202230D01*
X119835528Y-74202920D01*
X119831106Y-74204283D01*
X119831097Y-74204286D01*
X119582090Y-74281094D01*
X119582075Y-74281099D01*
X119577659Y-74282462D01*
X119573490Y-74284469D01*
X119573479Y-74284474D01*
X119401902Y-74367102D01*
X119341147Y-74379187D01*
X119282128Y-74360376D01*
X119239572Y-74315363D01*
X119224100Y-74255382D01*
X119224100Y-72887700D01*
X119240713Y-72825700D01*
X119286100Y-72780313D01*
X119348100Y-72763700D01*
X121523749Y-72763699D01*
X121585172Y-72763699D01*
X121644783Y-72757291D01*
X121779631Y-72706996D01*
X121894846Y-72620746D01*
X121981096Y-72505531D01*
X122031391Y-72370683D01*
X122037800Y-72311073D01*
X122037799Y-69615328D01*
X122031391Y-69555717D01*
X121981096Y-69420869D01*
X121894846Y-69305654D01*
X121779631Y-69219404D01*
X121644783Y-69169109D01*
X121637070Y-69168279D01*
X121637067Y-69168279D01*
X121588480Y-69163055D01*
X121588469Y-69163054D01*
X121585173Y-69162700D01*
X121581850Y-69162700D01*
X121523551Y-69162700D01*
X119348099Y-69162700D01*
X119286100Y-69146088D01*
X119240713Y-69100701D01*
X119224100Y-69038701D01*
X119224100Y-66849168D01*
X129601200Y-66849168D01*
X129601201Y-66852462D01*
X129601553Y-66855740D01*
X129601554Y-66855751D01*
X129606779Y-66904358D01*
X129606780Y-66904363D01*
X129607609Y-66912073D01*
X129610319Y-66919339D01*
X129610320Y-66919343D01*
X129643917Y-67009421D01*
X129657904Y-67046921D01*
X129663218Y-67054020D01*
X129663219Y-67054021D01*
X129683430Y-67081020D01*
X129744154Y-67162136D01*
X129859369Y-67248386D01*
X129994217Y-67298681D01*
X130053827Y-67305090D01*
X132149572Y-67305089D01*
X132209183Y-67298681D01*
X132344031Y-67248386D01*
X132459246Y-67162136D01*
X132545496Y-67046921D01*
X132595791Y-66912073D01*
X132602200Y-66852463D01*
X132602200Y-65809707D01*
X136196983Y-65809707D01*
X136216662Y-66047208D01*
X136218346Y-66057302D01*
X136276853Y-66288337D01*
X136280172Y-66298004D01*
X136375908Y-66516263D01*
X136380770Y-66525246D01*
X136470699Y-66662894D01*
X136478663Y-66670614D01*
X136488045Y-66664690D01*
X137336604Y-65816132D01*
X137343268Y-65804589D01*
X137336604Y-65793047D01*
X136488045Y-64944488D01*
X136478664Y-64938564D01*
X136470697Y-64946289D01*
X136380772Y-65083928D01*
X136375907Y-65092918D01*
X136280172Y-65311175D01*
X136276853Y-65320842D01*
X136218346Y-65551877D01*
X136216662Y-65561971D01*
X136196983Y-65799473D01*
X136196983Y-65809707D01*
X132602200Y-65809707D01*
X132602199Y-64756718D01*
X132595791Y-64697107D01*
X132545496Y-64562259D01*
X132459246Y-64447044D01*
X132344031Y-64360794D01*
X132209183Y-64310499D01*
X132201470Y-64309669D01*
X132201467Y-64309669D01*
X132152880Y-64304445D01*
X132152869Y-64304444D01*
X132149573Y-64304090D01*
X132146250Y-64304090D01*
X130057139Y-64304090D01*
X130057120Y-64304090D01*
X130053828Y-64304091D01*
X130050550Y-64304443D01*
X130050538Y-64304444D01*
X130001931Y-64309669D01*
X130001925Y-64309670D01*
X129994217Y-64310499D01*
X129986952Y-64313208D01*
X129986946Y-64313210D01*
X129867680Y-64357694D01*
X129867678Y-64357694D01*
X129859369Y-64360794D01*
X129852272Y-64366106D01*
X129852268Y-64366109D01*
X129751250Y-64441731D01*
X129751246Y-64441734D01*
X129744154Y-64447044D01*
X129738844Y-64454136D01*
X129738841Y-64454140D01*
X129663219Y-64555158D01*
X129663216Y-64555162D01*
X129657904Y-64562259D01*
X129654804Y-64570568D01*
X129654804Y-64570570D01*
X129610320Y-64689837D01*
X129610319Y-64689840D01*
X129607609Y-64697107D01*
X129606779Y-64704817D01*
X129606779Y-64704822D01*
X129601555Y-64753409D01*
X129601554Y-64753421D01*
X129601200Y-64756717D01*
X129601200Y-64760038D01*
X129601200Y-64760039D01*
X129601200Y-66849150D01*
X129601200Y-66849168D01*
X119224100Y-66849168D01*
X119224100Y-62629952D01*
X119233539Y-62582500D01*
X119260416Y-62542273D01*
X119380913Y-62421775D01*
X119423286Y-62394033D01*
X119473226Y-62385548D01*
X119522390Y-62397740D01*
X119535259Y-62403938D01*
X119539687Y-62405303D01*
X119539690Y-62405305D01*
X119593101Y-62421780D01*
X119793128Y-62483480D01*
X120059971Y-62523700D01*
X120325192Y-62523700D01*
X120329829Y-62523700D01*
X120596672Y-62483480D01*
X120854541Y-62403938D01*
X121097675Y-62286851D01*
X121320641Y-62134835D01*
X121518461Y-61951285D01*
X121686715Y-61740302D01*
X121821643Y-61506598D01*
X121920234Y-61255395D01*
X121980283Y-60992303D01*
X122000449Y-60723200D01*
X121980283Y-60454097D01*
X121920234Y-60191005D01*
X121821643Y-59939802D01*
X121686715Y-59706098D01*
X121518461Y-59495115D01*
X121320641Y-59311565D01*
X121316812Y-59308954D01*
X121316809Y-59308952D01*
X121101510Y-59162164D01*
X121097675Y-59159549D01*
X121093489Y-59157533D01*
X120858720Y-59044474D01*
X120858714Y-59044471D01*
X120854541Y-59042462D01*
X120850119Y-59041098D01*
X120850109Y-59041094D01*
X120601102Y-58964286D01*
X120601096Y-58964284D01*
X120596672Y-58962920D01*
X120592095Y-58962230D01*
X120592086Y-58962228D01*
X120334414Y-58923391D01*
X120334413Y-58923390D01*
X120329829Y-58922700D01*
X120059971Y-58922700D01*
X120055387Y-58923390D01*
X120055385Y-58923391D01*
X119797713Y-58962228D01*
X119797701Y-58962230D01*
X119793128Y-58962920D01*
X119788706Y-58964283D01*
X119788697Y-58964286D01*
X119539690Y-59041094D01*
X119539675Y-59041099D01*
X119535259Y-59042462D01*
X119531085Y-59044471D01*
X119531080Y-59044474D01*
X119296311Y-59157533D01*
X119296304Y-59157536D01*
X119292126Y-59159549D01*
X119288293Y-59162162D01*
X119288290Y-59162164D01*
X119072990Y-59308952D01*
X119072980Y-59308959D01*
X119069159Y-59311565D01*
X119065763Y-59314716D01*
X119065753Y-59314724D01*
X118874743Y-59491956D01*
X118874739Y-59491959D01*
X118871339Y-59495115D01*
X118868449Y-59498737D01*
X118868446Y-59498742D01*
X118725324Y-59678211D01*
X118703085Y-59706098D01*
X118700766Y-59710113D01*
X118700765Y-59710116D01*
X118570478Y-59935781D01*
X118570475Y-59935786D01*
X118568157Y-59939802D01*
X118566463Y-59944116D01*
X118566461Y-59944122D01*
X118480372Y-60163471D01*
X118469566Y-60191005D01*
X118468533Y-60195526D01*
X118468532Y-60195533D01*
X118410548Y-60449577D01*
X118410546Y-60449585D01*
X118409517Y-60454097D01*
X118389351Y-60723200D01*
X118409517Y-60992303D01*
X118469566Y-61255395D01*
X118471260Y-61259711D01*
X118471264Y-61259724D01*
X118526869Y-61401402D01*
X118535431Y-61448250D01*
X118525704Y-61494870D01*
X118499122Y-61534385D01*
X118211296Y-61822211D01*
X118203111Y-61829659D01*
X118196723Y-61833714D01*
X118191388Y-61839394D01*
X118191383Y-61839399D01*
X118150696Y-61882725D01*
X118147992Y-61885516D01*
X118131228Y-61902280D01*
X118131221Y-61902287D01*
X118128480Y-61905029D01*
X118126100Y-61908096D01*
X118126089Y-61908109D01*
X118126000Y-61908225D01*
X118118442Y-61917070D01*
X118093880Y-61943227D01*
X118093873Y-61943236D01*
X118088538Y-61948918D01*
X118084782Y-61955749D01*
X118084779Y-61955754D01*
X118078885Y-61966475D01*
X118068209Y-61982727D01*
X118060709Y-61992396D01*
X118060701Y-61992407D01*
X118055927Y-61998564D01*
X118052834Y-62005708D01*
X118052829Y-62005719D01*
X118038574Y-62038660D01*
X118033438Y-62049143D01*
X118012403Y-62087408D01*
X118010464Y-62094956D01*
X118010463Y-62094961D01*
X118007422Y-62106807D01*
X118001121Y-62125211D01*
X117996258Y-62136448D01*
X117996256Y-62136452D01*
X117993162Y-62143604D01*
X117991942Y-62151303D01*
X117991942Y-62151305D01*
X117986329Y-62186741D01*
X117983961Y-62198176D01*
X117975038Y-62232928D01*
X117975036Y-62232936D01*
X117973100Y-62240481D01*
X117973100Y-62248277D01*
X117973100Y-62260517D01*
X117971574Y-62279902D01*
X117968440Y-62299696D01*
X115514394Y-62299696D01*
X115514394Y-57067718D01*
X118394900Y-57067718D01*
X118395253Y-57074314D01*
X118400473Y-57122867D01*
X118404011Y-57137841D01*
X118448447Y-57256977D01*
X118456862Y-57272389D01*
X118532398Y-57373292D01*
X118544807Y-57385701D01*
X118645710Y-57461237D01*
X118661122Y-57469652D01*
X118780258Y-57514088D01*
X118795232Y-57517626D01*
X118843785Y-57522846D01*
X118850382Y-57523200D01*
X119928574Y-57523200D01*
X119941449Y-57519749D01*
X119944900Y-57506874D01*
X120444900Y-57506874D01*
X120448350Y-57519749D01*
X120461226Y-57523200D01*
X121539418Y-57523200D01*
X121546014Y-57522846D01*
X121594567Y-57517626D01*
X121609541Y-57514088D01*
X121728677Y-57469652D01*
X121744089Y-57461237D01*
X121844992Y-57385701D01*
X121857401Y-57373292D01*
X121932937Y-57272389D01*
X121941352Y-57256977D01*
X121985788Y-57137841D01*
X121989326Y-57122867D01*
X121994546Y-57074314D01*
X121994900Y-57067718D01*
X121994900Y-55989526D01*
X121991449Y-55976650D01*
X121978574Y-55973200D01*
X120461226Y-55973200D01*
X120448350Y-55976650D01*
X120444900Y-55989526D01*
X120444900Y-57506874D01*
X119944900Y-57506874D01*
X119944900Y-55989526D01*
X119941449Y-55976650D01*
X119928574Y-55973200D01*
X118411226Y-55973200D01*
X118398350Y-55976650D01*
X118394900Y-55989526D01*
X118394900Y-57067718D01*
X115514394Y-57067718D01*
X115514394Y-55456874D01*
X118394900Y-55456874D01*
X118398350Y-55469749D01*
X118411226Y-55473200D01*
X119928574Y-55473200D01*
X119941449Y-55469749D01*
X119944900Y-55456874D01*
X120444900Y-55456874D01*
X120448350Y-55469749D01*
X120461226Y-55473200D01*
X121978574Y-55473200D01*
X121991449Y-55469749D01*
X121994900Y-55456874D01*
X121994900Y-54378682D01*
X121994546Y-54372085D01*
X121989326Y-54323532D01*
X121985788Y-54308558D01*
X121941352Y-54189422D01*
X121932937Y-54174010D01*
X121857401Y-54073107D01*
X121844992Y-54060698D01*
X121744089Y-53985162D01*
X121728677Y-53976747D01*
X121609541Y-53932311D01*
X121594567Y-53928773D01*
X121546014Y-53923553D01*
X121539418Y-53923200D01*
X120461226Y-53923200D01*
X120448350Y-53926650D01*
X120444900Y-53939526D01*
X120444900Y-55456874D01*
X119944900Y-55456874D01*
X119944900Y-53939526D01*
X119941449Y-53926650D01*
X119928574Y-53923200D01*
X118850382Y-53923200D01*
X118843785Y-53923553D01*
X118795232Y-53928773D01*
X118780258Y-53932311D01*
X118661122Y-53976747D01*
X118645710Y-53985162D01*
X118544807Y-54060698D01*
X118532398Y-54073107D01*
X118456862Y-54174010D01*
X118448447Y-54189422D01*
X118404011Y-54308558D01*
X118400473Y-54323532D01*
X118395253Y-54372085D01*
X118394900Y-54378682D01*
X118394900Y-55456874D01*
X115514394Y-55456874D01*
X115514394Y-48070646D01*
X118641121Y-48070646D01*
X118641545Y-48075763D01*
X118661231Y-48313347D01*
X118661232Y-48313355D01*
X118661656Y-48318467D01*
X118662913Y-48323434D01*
X118662915Y-48323441D01*
X118708193Y-48502236D01*
X118722701Y-48559527D01*
X118724761Y-48564223D01*
X118820530Y-48782556D01*
X118820533Y-48782562D01*
X118822591Y-48787253D01*
X118825391Y-48791539D01*
X118825395Y-48791546D01*
X118934680Y-48958819D01*
X118958600Y-48995431D01*
X118962074Y-48999205D01*
X118962075Y-48999206D01*
X119123548Y-49174613D01*
X119123551Y-49174616D01*
X119127020Y-49178384D01*
X119323255Y-49331120D01*
X119541954Y-49449474D01*
X119777150Y-49530217D01*
X120022429Y-49571146D01*
X120265965Y-49571146D01*
X120271099Y-49571146D01*
X120516378Y-49530217D01*
X120751574Y-49449474D01*
X120970273Y-49331120D01*
X121166508Y-49178384D01*
X121334928Y-48995431D01*
X121421351Y-48863150D01*
X127888204Y-48863150D01*
X127895750Y-48871208D01*
X128063241Y-48985401D01*
X128071262Y-48990032D01*
X128305962Y-49103058D01*
X128314573Y-49106438D01*
X128563508Y-49183224D01*
X128572524Y-49185282D01*
X128830123Y-49224108D01*
X128839346Y-49224800D01*
X129099854Y-49224800D01*
X129109076Y-49224108D01*
X129366675Y-49185282D01*
X129375691Y-49183224D01*
X129624627Y-49106437D01*
X129633237Y-49103058D01*
X129867940Y-48990031D01*
X129875959Y-48985401D01*
X130043446Y-48871209D01*
X130050994Y-48863150D01*
X130045077Y-48853830D01*
X128981142Y-47789895D01*
X128969600Y-47783231D01*
X128958057Y-47789895D01*
X127894121Y-48853830D01*
X127888204Y-48863150D01*
X121421351Y-48863150D01*
X121470937Y-48787253D01*
X121570827Y-48559527D01*
X121631872Y-48318467D01*
X121652407Y-48070646D01*
X121631872Y-47822825D01*
X121570827Y-47581765D01*
X121504007Y-47429430D01*
X127164900Y-47429430D01*
X127184367Y-47689199D01*
X127185746Y-47698352D01*
X127243711Y-47952315D01*
X127246444Y-47961175D01*
X127341611Y-48203656D01*
X127345630Y-48212002D01*
X127475878Y-48437598D01*
X127481096Y-48445250D01*
X127520979Y-48495262D01*
X127532215Y-48503235D01*
X127544274Y-48496571D01*
X128604504Y-47436342D01*
X128611168Y-47424800D01*
X129328031Y-47424800D01*
X129334695Y-47436342D01*
X130394925Y-48496572D01*
X130406982Y-48503236D01*
X130418219Y-48495263D01*
X130458107Y-48445245D01*
X130463319Y-48437600D01*
X130593569Y-48212002D01*
X130597588Y-48203656D01*
X130692755Y-47961175D01*
X130695488Y-47952315D01*
X130753453Y-47698352D01*
X130754832Y-47689199D01*
X130774300Y-47429430D01*
X130774300Y-47420170D01*
X130754832Y-47160400D01*
X130753453Y-47151247D01*
X130695488Y-46897284D01*
X130692755Y-46888424D01*
X130597588Y-46645943D01*
X130593569Y-46637597D01*
X130463321Y-46412001D01*
X130458103Y-46404349D01*
X130418219Y-46354336D01*
X130406982Y-46346362D01*
X130394925Y-46353026D01*
X129334695Y-47413257D01*
X129328031Y-47424800D01*
X128611168Y-47424800D01*
X128604504Y-47413257D01*
X127544274Y-46353027D01*
X127532215Y-46346362D01*
X127520980Y-46354334D01*
X127481088Y-46404358D01*
X127475882Y-46411995D01*
X127345630Y-46637597D01*
X127341611Y-46645943D01*
X127246444Y-46888424D01*
X127243711Y-46897284D01*
X127185746Y-47151247D01*
X127184367Y-47160400D01*
X127164900Y-47420170D01*
X127164900Y-47429430D01*
X121504007Y-47429430D01*
X121470937Y-47354039D01*
X121334928Y-47145861D01*
X121261750Y-47066368D01*
X121169979Y-46966678D01*
X121169975Y-46966675D01*
X121166508Y-46962908D01*
X120970273Y-46810172D01*
X120965761Y-46807730D01*
X120756080Y-46694256D01*
X120756074Y-46694253D01*
X120751574Y-46691818D01*
X120746733Y-46690156D01*
X120746726Y-46690153D01*
X120521229Y-46612740D01*
X120521225Y-46612739D01*
X120516378Y-46611075D01*
X120507532Y-46609598D01*
X120276162Y-46570990D01*
X120276151Y-46570989D01*
X120271099Y-46570146D01*
X120022429Y-46570146D01*
X120017377Y-46570989D01*
X120017365Y-46570990D01*
X119782207Y-46610231D01*
X119782205Y-46610231D01*
X119777150Y-46611075D01*
X119772305Y-46612738D01*
X119772298Y-46612740D01*
X119546801Y-46690153D01*
X119546790Y-46690157D01*
X119541954Y-46691818D01*
X119537457Y-46694251D01*
X119537447Y-46694256D01*
X119327766Y-46807730D01*
X119327759Y-46807734D01*
X119323255Y-46810172D01*
X119319212Y-46813318D01*
X119319204Y-46813324D01*
X119131068Y-46959757D01*
X119127020Y-46962908D01*
X119123557Y-46966669D01*
X119123548Y-46966678D01*
X118962075Y-47142085D01*
X118962069Y-47142092D01*
X118958600Y-47145861D01*
X118955795Y-47150152D01*
X118955792Y-47150158D01*
X118825395Y-47349745D01*
X118825388Y-47349757D01*
X118822591Y-47354039D01*
X118820536Y-47358723D01*
X118820530Y-47358735D01*
X118724761Y-47577068D01*
X118722701Y-47581765D01*
X118721443Y-47586730D01*
X118721442Y-47586735D01*
X118662915Y-47817850D01*
X118662913Y-47817859D01*
X118661656Y-47822825D01*
X118661232Y-47827934D01*
X118661231Y-47827944D01*
X118650926Y-47952315D01*
X118641121Y-48070646D01*
X115514394Y-48070646D01*
X115514394Y-45986448D01*
X127888203Y-45986448D01*
X127894119Y-45995766D01*
X128958057Y-47059704D01*
X128969600Y-47066368D01*
X128981142Y-47059704D01*
X130045077Y-45995768D01*
X130050994Y-45986448D01*
X130043446Y-45978389D01*
X129875960Y-45864198D01*
X129867940Y-45859568D01*
X129633237Y-45746541D01*
X129624627Y-45743162D01*
X129375691Y-45666375D01*
X129366675Y-45664317D01*
X129109076Y-45625491D01*
X129099854Y-45624800D01*
X128839346Y-45624800D01*
X128830123Y-45625491D01*
X128572524Y-45664317D01*
X128563508Y-45666375D01*
X128314573Y-45743161D01*
X128305962Y-45746541D01*
X128071260Y-45859568D01*
X128063239Y-45864199D01*
X127895751Y-45978390D01*
X127888203Y-45986448D01*
X115514394Y-45986448D01*
X115514394Y-42936646D01*
X115531007Y-42874646D01*
X115576394Y-42829259D01*
X115638394Y-42812646D01*
X173286428Y-42812646D01*
X173348428Y-42829259D01*
G37*
%TD.AperFunction*%
%TD*%
M02*
