M48
; DRILL file {KiCad (7.0.0)} date Sun Apr  2 16:15:45 2023
; FORMAT={-:-/ absolute / inch / decimal}
; #@! TF.CreationDate,2023-04-02T16:15:45+02:00
; #@! TF.GenerationSoftware,Kicad,Pcbnew,(7.0.0)
; #@! TF.FileFunction,Plated,1,2,PTH
FMAT,2
INCH
; #@! TA.AperFunction,Plated,PTH,ComponentDrill
T1C0.0315
; #@! TA.AperFunction,Plated,PTH,ComponentDrill
T2C0.0394
; #@! TA.AperFunction,Plated,PTH,ComponentDrill
T3C0.0512
%
G90
G05
T1
X5.2262Y-3.3672
X5.2262Y-3.4672
X5.2262Y-3.5672
X5.4914Y-2.9938
X5.4914Y-3.5938
X5.687Y-2.2656
X5.687Y-2.8656
X5.6914Y-2.9938
X5.6914Y-3.5938
X5.887Y-2.2656
X5.887Y-2.8656
X5.8914Y-2.9938
X5.8914Y-3.5938
X6.087Y-2.2656
X6.087Y-2.8656
X6.0914Y-2.9938
X6.0914Y-3.5938
X6.287Y-2.2656
X6.287Y-2.8656
X6.2914Y-2.9938
X6.2914Y-3.5938
T2
X5.1615Y-2.5907
X5.1914Y-3.7938
X5.1914Y-3.8938
X5.1914Y-3.9938
X5.1914Y-4.0938
X5.1914Y-4.1938
X5.1914Y-4.2938
X5.1914Y-4.3938
X5.1914Y-4.4938
X5.1914Y-4.5938
X5.2914Y-3.7938
X5.2914Y-3.8938
X5.2914Y-3.9938
X5.2914Y-4.0938
X5.2914Y-4.1938
X5.2914Y-4.2938
X5.2914Y-4.3938
X5.2914Y-4.4938
X5.2914Y-4.5938
X5.4213Y-2.5907
X6.1914Y-3.7938
X6.1914Y-3.8938
X6.1914Y-3.9938
X6.1914Y-4.0938
X6.1914Y-4.1938
X6.1914Y-4.2938
X6.1914Y-4.3938
X6.1914Y-4.4938
X6.1914Y-4.5938
X6.2914Y-3.7938
X6.2914Y-3.8938
X6.2914Y-3.9938
X6.2914Y-4.0938
X6.2914Y-4.1938
X6.2914Y-4.2938
X6.2914Y-4.3938
X6.2914Y-4.4938
X6.2914Y-4.5938
T3
X4.7304Y-3.7822
X4.7304Y-3.9791
X4.7304Y-4.1759
X4.7304Y-4.3728
X4.7321Y-2.1938
X4.7321Y-2.3907
X4.7338Y-2.7938
X4.7338Y-2.9907
X4.7338Y-3.1875
X4.7338Y-3.3844
X5.0775Y-1.8671
X5.2744Y-1.8671
X5.6022Y-1.8671
X5.799Y-1.8671
X6.1022Y-1.8671
X6.299Y-1.8671
X6.6428Y-2.5147
X6.6428Y-2.7115
X6.6428Y-3.0744
X6.6428Y-3.2712
X6.6428Y-3.6341
X6.6428Y-3.831
X6.6428Y-4.1938
X6.6428Y-4.3907
T0
M30
