%TF.GenerationSoftware,KiCad,Pcbnew,(7.0.0)*%
%TF.CreationDate,2023-04-02T16:15:30+02:00*%
%TF.ProjectId,QuinLED-ESP32-Breakout,5175696e-4c45-4442-9d45-535033322d42,rev?*%
%TF.SameCoordinates,Original*%
%TF.FileFunction,Legend,Bot*%
%TF.FilePolarity,Positive*%
%FSLAX46Y46*%
G04 Gerber Fmt 4.6, Leading zero omitted, Abs format (unit mm)*
G04 Created by KiCad (PCBNEW (7.0.0)) date 2023-04-02 16:15:30*
%MOMM*%
%LPD*%
G01*
G04 APERTURE LIST*
%ADD10C,0.150000*%
G04 APERTURE END LIST*
D10*
X171181876Y-119668790D02*
X171181876Y-120383076D01*
X171181876Y-120383076D02*
X171229495Y-120525933D01*
X171229495Y-120525933D02*
X171324733Y-120621171D01*
X171324733Y-120621171D02*
X171467590Y-120668790D01*
X171467590Y-120668790D02*
X171562828Y-120668790D01*
X170229495Y-120668790D02*
X170705685Y-120668790D01*
X170705685Y-120668790D02*
X170705685Y-119668790D01*
X169324733Y-120573552D02*
X169372352Y-120621171D01*
X169372352Y-120621171D02*
X169515209Y-120668790D01*
X169515209Y-120668790D02*
X169610447Y-120668790D01*
X169610447Y-120668790D02*
X169753304Y-120621171D01*
X169753304Y-120621171D02*
X169848542Y-120525933D01*
X169848542Y-120525933D02*
X169896161Y-120430695D01*
X169896161Y-120430695D02*
X169943780Y-120240219D01*
X169943780Y-120240219D02*
X169943780Y-120097362D01*
X169943780Y-120097362D02*
X169896161Y-119906886D01*
X169896161Y-119906886D02*
X169848542Y-119811648D01*
X169848542Y-119811648D02*
X169753304Y-119716410D01*
X169753304Y-119716410D02*
X169610447Y-119668790D01*
X169610447Y-119668790D02*
X169515209Y-119668790D01*
X169515209Y-119668790D02*
X169372352Y-119716410D01*
X169372352Y-119716410D02*
X169324733Y-119764029D01*
X168610447Y-119668790D02*
X168610447Y-120383076D01*
X168610447Y-120383076D02*
X168658066Y-120525933D01*
X168658066Y-120525933D02*
X168753304Y-120621171D01*
X168753304Y-120621171D02*
X168896161Y-120668790D01*
X168896161Y-120668790D02*
X168991399Y-120668790D01*
X167658066Y-120668790D02*
X168134256Y-120668790D01*
X168134256Y-120668790D02*
X168134256Y-119668790D01*
X166753304Y-120573552D02*
X166800923Y-120621171D01*
X166800923Y-120621171D02*
X166943780Y-120668790D01*
X166943780Y-120668790D02*
X167039018Y-120668790D01*
X167039018Y-120668790D02*
X167181875Y-120621171D01*
X167181875Y-120621171D02*
X167277113Y-120525933D01*
X167277113Y-120525933D02*
X167324732Y-120430695D01*
X167324732Y-120430695D02*
X167372351Y-120240219D01*
X167372351Y-120240219D02*
X167372351Y-120097362D01*
X167372351Y-120097362D02*
X167324732Y-119906886D01*
X167324732Y-119906886D02*
X167277113Y-119811648D01*
X167277113Y-119811648D02*
X167181875Y-119716410D01*
X167181875Y-119716410D02*
X167039018Y-119668790D01*
X167039018Y-119668790D02*
X166943780Y-119668790D01*
X166943780Y-119668790D02*
X166800923Y-119716410D01*
X166800923Y-119716410D02*
X166753304Y-119764029D01*
X166039018Y-119668790D02*
X166039018Y-120383076D01*
X166039018Y-120383076D02*
X166086637Y-120525933D01*
X166086637Y-120525933D02*
X166181875Y-120621171D01*
X166181875Y-120621171D02*
X166324732Y-120668790D01*
X166324732Y-120668790D02*
X166419970Y-120668790D01*
X165086637Y-120668790D02*
X165562827Y-120668790D01*
X165562827Y-120668790D02*
X165562827Y-119668790D01*
X164181875Y-120573552D02*
X164229494Y-120621171D01*
X164229494Y-120621171D02*
X164372351Y-120668790D01*
X164372351Y-120668790D02*
X164467589Y-120668790D01*
X164467589Y-120668790D02*
X164610446Y-120621171D01*
X164610446Y-120621171D02*
X164705684Y-120525933D01*
X164705684Y-120525933D02*
X164753303Y-120430695D01*
X164753303Y-120430695D02*
X164800922Y-120240219D01*
X164800922Y-120240219D02*
X164800922Y-120097362D01*
X164800922Y-120097362D02*
X164753303Y-119906886D01*
X164753303Y-119906886D02*
X164705684Y-119811648D01*
X164705684Y-119811648D02*
X164610446Y-119716410D01*
X164610446Y-119716410D02*
X164467589Y-119668790D01*
X164467589Y-119668790D02*
X164372351Y-119668790D01*
X164372351Y-119668790D02*
X164229494Y-119716410D01*
X164229494Y-119716410D02*
X164181875Y-119764029D01*
X163467589Y-119668790D02*
X163467589Y-120383076D01*
X163467589Y-120383076D02*
X163515208Y-120525933D01*
X163515208Y-120525933D02*
X163610446Y-120621171D01*
X163610446Y-120621171D02*
X163753303Y-120668790D01*
X163753303Y-120668790D02*
X163848541Y-120668790D01*
X162515208Y-120668790D02*
X162991398Y-120668790D01*
X162991398Y-120668790D02*
X162991398Y-119668790D01*
X161610446Y-120573552D02*
X161658065Y-120621171D01*
X161658065Y-120621171D02*
X161800922Y-120668790D01*
X161800922Y-120668790D02*
X161896160Y-120668790D01*
X161896160Y-120668790D02*
X162039017Y-120621171D01*
X162039017Y-120621171D02*
X162134255Y-120525933D01*
X162134255Y-120525933D02*
X162181874Y-120430695D01*
X162181874Y-120430695D02*
X162229493Y-120240219D01*
X162229493Y-120240219D02*
X162229493Y-120097362D01*
X162229493Y-120097362D02*
X162181874Y-119906886D01*
X162181874Y-119906886D02*
X162134255Y-119811648D01*
X162134255Y-119811648D02*
X162039017Y-119716410D01*
X162039017Y-119716410D02*
X161896160Y-119668790D01*
X161896160Y-119668790D02*
X161800922Y-119668790D01*
X161800922Y-119668790D02*
X161658065Y-119716410D01*
X161658065Y-119716410D02*
X161610446Y-119764029D01*
X151685714Y-97182380D02*
X152161904Y-97182380D01*
X152161904Y-97182380D02*
X152161904Y-96182380D01*
X151352380Y-96658571D02*
X151019047Y-96658571D01*
X150876190Y-97182380D02*
X151352380Y-97182380D01*
X151352380Y-97182380D02*
X151352380Y-96182380D01*
X151352380Y-96182380D02*
X150876190Y-96182380D01*
X150447618Y-97182380D02*
X150447618Y-96182380D01*
X150447618Y-96182380D02*
X150209523Y-96182380D01*
X150209523Y-96182380D02*
X150066666Y-96230000D01*
X150066666Y-96230000D02*
X149971428Y-96325238D01*
X149971428Y-96325238D02*
X149923809Y-96420476D01*
X149923809Y-96420476D02*
X149876190Y-96610952D01*
X149876190Y-96610952D02*
X149876190Y-96753809D01*
X149876190Y-96753809D02*
X149923809Y-96944285D01*
X149923809Y-96944285D02*
X149971428Y-97039523D01*
X149971428Y-97039523D02*
X150066666Y-97134761D01*
X150066666Y-97134761D02*
X150209523Y-97182380D01*
X150209523Y-97182380D02*
X150447618Y-97182380D01*
X148923809Y-97182380D02*
X149495237Y-97182380D01*
X149209523Y-97182380D02*
X149209523Y-96182380D01*
X149209523Y-96182380D02*
X149304761Y-96325238D01*
X149304761Y-96325238D02*
X149399999Y-96420476D01*
X149399999Y-96420476D02*
X149495237Y-96468095D01*
X148495237Y-97087142D02*
X148447618Y-97134761D01*
X148447618Y-97134761D02*
X148495237Y-97182380D01*
X148495237Y-97182380D02*
X148542856Y-97134761D01*
X148542856Y-97134761D02*
X148495237Y-97087142D01*
X148495237Y-97087142D02*
X148495237Y-97182380D01*
X148495237Y-96563333D02*
X148447618Y-96610952D01*
X148447618Y-96610952D02*
X148495237Y-96658571D01*
X148495237Y-96658571D02*
X148542856Y-96610952D01*
X148542856Y-96610952D02*
X148495237Y-96563333D01*
X148495237Y-96563333D02*
X148495237Y-96658571D01*
X146895238Y-96230000D02*
X146990476Y-96182380D01*
X146990476Y-96182380D02*
X147133333Y-96182380D01*
X147133333Y-96182380D02*
X147276190Y-96230000D01*
X147276190Y-96230000D02*
X147371428Y-96325238D01*
X147371428Y-96325238D02*
X147419047Y-96420476D01*
X147419047Y-96420476D02*
X147466666Y-96610952D01*
X147466666Y-96610952D02*
X147466666Y-96753809D01*
X147466666Y-96753809D02*
X147419047Y-96944285D01*
X147419047Y-96944285D02*
X147371428Y-97039523D01*
X147371428Y-97039523D02*
X147276190Y-97134761D01*
X147276190Y-97134761D02*
X147133333Y-97182380D01*
X147133333Y-97182380D02*
X147038095Y-97182380D01*
X147038095Y-97182380D02*
X146895238Y-97134761D01*
X146895238Y-97134761D02*
X146847619Y-97087142D01*
X146847619Y-97087142D02*
X146847619Y-96753809D01*
X146847619Y-96753809D02*
X147038095Y-96753809D01*
X146419047Y-97182380D02*
X146419047Y-96182380D01*
X146419047Y-96182380D02*
X146038095Y-96182380D01*
X146038095Y-96182380D02*
X145942857Y-96230000D01*
X145942857Y-96230000D02*
X145895238Y-96277619D01*
X145895238Y-96277619D02*
X145847619Y-96372857D01*
X145847619Y-96372857D02*
X145847619Y-96515714D01*
X145847619Y-96515714D02*
X145895238Y-96610952D01*
X145895238Y-96610952D02*
X145942857Y-96658571D01*
X145942857Y-96658571D02*
X146038095Y-96706190D01*
X146038095Y-96706190D02*
X146419047Y-96706190D01*
X145419047Y-97182380D02*
X145419047Y-96182380D01*
X144752381Y-96182380D02*
X144561905Y-96182380D01*
X144561905Y-96182380D02*
X144466667Y-96230000D01*
X144466667Y-96230000D02*
X144371429Y-96325238D01*
X144371429Y-96325238D02*
X144323810Y-96515714D01*
X144323810Y-96515714D02*
X144323810Y-96849047D01*
X144323810Y-96849047D02*
X144371429Y-97039523D01*
X144371429Y-97039523D02*
X144466667Y-97134761D01*
X144466667Y-97134761D02*
X144561905Y-97182380D01*
X144561905Y-97182380D02*
X144752381Y-97182380D01*
X144752381Y-97182380D02*
X144847619Y-97134761D01*
X144847619Y-97134761D02*
X144942857Y-97039523D01*
X144942857Y-97039523D02*
X144990476Y-96849047D01*
X144990476Y-96849047D02*
X144990476Y-96515714D01*
X144990476Y-96515714D02*
X144942857Y-96325238D01*
X144942857Y-96325238D02*
X144847619Y-96230000D01*
X144847619Y-96230000D02*
X144752381Y-96182380D01*
X143466667Y-96515714D02*
X143466667Y-97182380D01*
X143704762Y-96134761D02*
X143942857Y-96849047D01*
X143942857Y-96849047D02*
X143323810Y-96849047D01*
X151685714Y-98802380D02*
X152161904Y-98802380D01*
X152161904Y-98802380D02*
X152161904Y-97802380D01*
X151352380Y-98278571D02*
X151019047Y-98278571D01*
X150876190Y-98802380D02*
X151352380Y-98802380D01*
X151352380Y-98802380D02*
X151352380Y-97802380D01*
X151352380Y-97802380D02*
X150876190Y-97802380D01*
X150447618Y-98802380D02*
X150447618Y-97802380D01*
X150447618Y-97802380D02*
X150209523Y-97802380D01*
X150209523Y-97802380D02*
X150066666Y-97850000D01*
X150066666Y-97850000D02*
X149971428Y-97945238D01*
X149971428Y-97945238D02*
X149923809Y-98040476D01*
X149923809Y-98040476D02*
X149876190Y-98230952D01*
X149876190Y-98230952D02*
X149876190Y-98373809D01*
X149876190Y-98373809D02*
X149923809Y-98564285D01*
X149923809Y-98564285D02*
X149971428Y-98659523D01*
X149971428Y-98659523D02*
X150066666Y-98754761D01*
X150066666Y-98754761D02*
X150209523Y-98802380D01*
X150209523Y-98802380D02*
X150447618Y-98802380D01*
X149495237Y-97897619D02*
X149447618Y-97850000D01*
X149447618Y-97850000D02*
X149352380Y-97802380D01*
X149352380Y-97802380D02*
X149114285Y-97802380D01*
X149114285Y-97802380D02*
X149019047Y-97850000D01*
X149019047Y-97850000D02*
X148971428Y-97897619D01*
X148971428Y-97897619D02*
X148923809Y-97992857D01*
X148923809Y-97992857D02*
X148923809Y-98088095D01*
X148923809Y-98088095D02*
X148971428Y-98230952D01*
X148971428Y-98230952D02*
X149542856Y-98802380D01*
X149542856Y-98802380D02*
X148923809Y-98802380D01*
X148495237Y-98707142D02*
X148447618Y-98754761D01*
X148447618Y-98754761D02*
X148495237Y-98802380D01*
X148495237Y-98802380D02*
X148542856Y-98754761D01*
X148542856Y-98754761D02*
X148495237Y-98707142D01*
X148495237Y-98707142D02*
X148495237Y-98802380D01*
X148495237Y-98183333D02*
X148447618Y-98230952D01*
X148447618Y-98230952D02*
X148495237Y-98278571D01*
X148495237Y-98278571D02*
X148542856Y-98230952D01*
X148542856Y-98230952D02*
X148495237Y-98183333D01*
X148495237Y-98183333D02*
X148495237Y-98278571D01*
X146895238Y-97850000D02*
X146990476Y-97802380D01*
X146990476Y-97802380D02*
X147133333Y-97802380D01*
X147133333Y-97802380D02*
X147276190Y-97850000D01*
X147276190Y-97850000D02*
X147371428Y-97945238D01*
X147371428Y-97945238D02*
X147419047Y-98040476D01*
X147419047Y-98040476D02*
X147466666Y-98230952D01*
X147466666Y-98230952D02*
X147466666Y-98373809D01*
X147466666Y-98373809D02*
X147419047Y-98564285D01*
X147419047Y-98564285D02*
X147371428Y-98659523D01*
X147371428Y-98659523D02*
X147276190Y-98754761D01*
X147276190Y-98754761D02*
X147133333Y-98802380D01*
X147133333Y-98802380D02*
X147038095Y-98802380D01*
X147038095Y-98802380D02*
X146895238Y-98754761D01*
X146895238Y-98754761D02*
X146847619Y-98707142D01*
X146847619Y-98707142D02*
X146847619Y-98373809D01*
X146847619Y-98373809D02*
X147038095Y-98373809D01*
X146419047Y-98802380D02*
X146419047Y-97802380D01*
X146419047Y-97802380D02*
X146038095Y-97802380D01*
X146038095Y-97802380D02*
X145942857Y-97850000D01*
X145942857Y-97850000D02*
X145895238Y-97897619D01*
X145895238Y-97897619D02*
X145847619Y-97992857D01*
X145847619Y-97992857D02*
X145847619Y-98135714D01*
X145847619Y-98135714D02*
X145895238Y-98230952D01*
X145895238Y-98230952D02*
X145942857Y-98278571D01*
X145942857Y-98278571D02*
X146038095Y-98326190D01*
X146038095Y-98326190D02*
X146419047Y-98326190D01*
X145419047Y-98802380D02*
X145419047Y-97802380D01*
X144752381Y-97802380D02*
X144561905Y-97802380D01*
X144561905Y-97802380D02*
X144466667Y-97850000D01*
X144466667Y-97850000D02*
X144371429Y-97945238D01*
X144371429Y-97945238D02*
X144323810Y-98135714D01*
X144323810Y-98135714D02*
X144323810Y-98469047D01*
X144323810Y-98469047D02*
X144371429Y-98659523D01*
X144371429Y-98659523D02*
X144466667Y-98754761D01*
X144466667Y-98754761D02*
X144561905Y-98802380D01*
X144561905Y-98802380D02*
X144752381Y-98802380D01*
X144752381Y-98802380D02*
X144847619Y-98754761D01*
X144847619Y-98754761D02*
X144942857Y-98659523D01*
X144942857Y-98659523D02*
X144990476Y-98469047D01*
X144990476Y-98469047D02*
X144990476Y-98135714D01*
X144990476Y-98135714D02*
X144942857Y-97945238D01*
X144942857Y-97945238D02*
X144847619Y-97850000D01*
X144847619Y-97850000D02*
X144752381Y-97802380D01*
X143371429Y-98802380D02*
X143942857Y-98802380D01*
X143657143Y-98802380D02*
X143657143Y-97802380D01*
X143657143Y-97802380D02*
X143752381Y-97945238D01*
X143752381Y-97945238D02*
X143847619Y-98040476D01*
X143847619Y-98040476D02*
X143942857Y-98088095D01*
X142990476Y-97897619D02*
X142942857Y-97850000D01*
X142942857Y-97850000D02*
X142847619Y-97802380D01*
X142847619Y-97802380D02*
X142609524Y-97802380D01*
X142609524Y-97802380D02*
X142514286Y-97850000D01*
X142514286Y-97850000D02*
X142466667Y-97897619D01*
X142466667Y-97897619D02*
X142419048Y-97992857D01*
X142419048Y-97992857D02*
X142419048Y-98088095D01*
X142419048Y-98088095D02*
X142466667Y-98230952D01*
X142466667Y-98230952D02*
X143038095Y-98802380D01*
X143038095Y-98802380D02*
X142419048Y-98802380D01*
X151685714Y-100422380D02*
X152161904Y-100422380D01*
X152161904Y-100422380D02*
X152161904Y-99422380D01*
X151352380Y-99898571D02*
X151019047Y-99898571D01*
X150876190Y-100422380D02*
X151352380Y-100422380D01*
X151352380Y-100422380D02*
X151352380Y-99422380D01*
X151352380Y-99422380D02*
X150876190Y-99422380D01*
X150447618Y-100422380D02*
X150447618Y-99422380D01*
X150447618Y-99422380D02*
X150209523Y-99422380D01*
X150209523Y-99422380D02*
X150066666Y-99470000D01*
X150066666Y-99470000D02*
X149971428Y-99565238D01*
X149971428Y-99565238D02*
X149923809Y-99660476D01*
X149923809Y-99660476D02*
X149876190Y-99850952D01*
X149876190Y-99850952D02*
X149876190Y-99993809D01*
X149876190Y-99993809D02*
X149923809Y-100184285D01*
X149923809Y-100184285D02*
X149971428Y-100279523D01*
X149971428Y-100279523D02*
X150066666Y-100374761D01*
X150066666Y-100374761D02*
X150209523Y-100422380D01*
X150209523Y-100422380D02*
X150447618Y-100422380D01*
X149542856Y-99422380D02*
X148923809Y-99422380D01*
X148923809Y-99422380D02*
X149257142Y-99803333D01*
X149257142Y-99803333D02*
X149114285Y-99803333D01*
X149114285Y-99803333D02*
X149019047Y-99850952D01*
X149019047Y-99850952D02*
X148971428Y-99898571D01*
X148971428Y-99898571D02*
X148923809Y-99993809D01*
X148923809Y-99993809D02*
X148923809Y-100231904D01*
X148923809Y-100231904D02*
X148971428Y-100327142D01*
X148971428Y-100327142D02*
X149019047Y-100374761D01*
X149019047Y-100374761D02*
X149114285Y-100422380D01*
X149114285Y-100422380D02*
X149399999Y-100422380D01*
X149399999Y-100422380D02*
X149495237Y-100374761D01*
X149495237Y-100374761D02*
X149542856Y-100327142D01*
X148495237Y-100327142D02*
X148447618Y-100374761D01*
X148447618Y-100374761D02*
X148495237Y-100422380D01*
X148495237Y-100422380D02*
X148542856Y-100374761D01*
X148542856Y-100374761D02*
X148495237Y-100327142D01*
X148495237Y-100327142D02*
X148495237Y-100422380D01*
X148495237Y-99803333D02*
X148447618Y-99850952D01*
X148447618Y-99850952D02*
X148495237Y-99898571D01*
X148495237Y-99898571D02*
X148542856Y-99850952D01*
X148542856Y-99850952D02*
X148495237Y-99803333D01*
X148495237Y-99803333D02*
X148495237Y-99898571D01*
X146895238Y-99470000D02*
X146990476Y-99422380D01*
X146990476Y-99422380D02*
X147133333Y-99422380D01*
X147133333Y-99422380D02*
X147276190Y-99470000D01*
X147276190Y-99470000D02*
X147371428Y-99565238D01*
X147371428Y-99565238D02*
X147419047Y-99660476D01*
X147419047Y-99660476D02*
X147466666Y-99850952D01*
X147466666Y-99850952D02*
X147466666Y-99993809D01*
X147466666Y-99993809D02*
X147419047Y-100184285D01*
X147419047Y-100184285D02*
X147371428Y-100279523D01*
X147371428Y-100279523D02*
X147276190Y-100374761D01*
X147276190Y-100374761D02*
X147133333Y-100422380D01*
X147133333Y-100422380D02*
X147038095Y-100422380D01*
X147038095Y-100422380D02*
X146895238Y-100374761D01*
X146895238Y-100374761D02*
X146847619Y-100327142D01*
X146847619Y-100327142D02*
X146847619Y-99993809D01*
X146847619Y-99993809D02*
X147038095Y-99993809D01*
X146419047Y-100422380D02*
X146419047Y-99422380D01*
X146419047Y-99422380D02*
X146038095Y-99422380D01*
X146038095Y-99422380D02*
X145942857Y-99470000D01*
X145942857Y-99470000D02*
X145895238Y-99517619D01*
X145895238Y-99517619D02*
X145847619Y-99612857D01*
X145847619Y-99612857D02*
X145847619Y-99755714D01*
X145847619Y-99755714D02*
X145895238Y-99850952D01*
X145895238Y-99850952D02*
X145942857Y-99898571D01*
X145942857Y-99898571D02*
X146038095Y-99946190D01*
X146038095Y-99946190D02*
X146419047Y-99946190D01*
X145419047Y-100422380D02*
X145419047Y-99422380D01*
X144752381Y-99422380D02*
X144561905Y-99422380D01*
X144561905Y-99422380D02*
X144466667Y-99470000D01*
X144466667Y-99470000D02*
X144371429Y-99565238D01*
X144371429Y-99565238D02*
X144323810Y-99755714D01*
X144323810Y-99755714D02*
X144323810Y-100089047D01*
X144323810Y-100089047D02*
X144371429Y-100279523D01*
X144371429Y-100279523D02*
X144466667Y-100374761D01*
X144466667Y-100374761D02*
X144561905Y-100422380D01*
X144561905Y-100422380D02*
X144752381Y-100422380D01*
X144752381Y-100422380D02*
X144847619Y-100374761D01*
X144847619Y-100374761D02*
X144942857Y-100279523D01*
X144942857Y-100279523D02*
X144990476Y-100089047D01*
X144990476Y-100089047D02*
X144990476Y-99755714D01*
X144990476Y-99755714D02*
X144942857Y-99565238D01*
X144942857Y-99565238D02*
X144847619Y-99470000D01*
X144847619Y-99470000D02*
X144752381Y-99422380D01*
X143371429Y-100422380D02*
X143942857Y-100422380D01*
X143657143Y-100422380D02*
X143657143Y-99422380D01*
X143657143Y-99422380D02*
X143752381Y-99565238D01*
X143752381Y-99565238D02*
X143847619Y-99660476D01*
X143847619Y-99660476D02*
X143942857Y-99708095D01*
X143038095Y-99422380D02*
X142419048Y-99422380D01*
X142419048Y-99422380D02*
X142752381Y-99803333D01*
X142752381Y-99803333D02*
X142609524Y-99803333D01*
X142609524Y-99803333D02*
X142514286Y-99850952D01*
X142514286Y-99850952D02*
X142466667Y-99898571D01*
X142466667Y-99898571D02*
X142419048Y-99993809D01*
X142419048Y-99993809D02*
X142419048Y-100231904D01*
X142419048Y-100231904D02*
X142466667Y-100327142D01*
X142466667Y-100327142D02*
X142514286Y-100374761D01*
X142514286Y-100374761D02*
X142609524Y-100422380D01*
X142609524Y-100422380D02*
X142895238Y-100422380D01*
X142895238Y-100422380D02*
X142990476Y-100374761D01*
X142990476Y-100374761D02*
X143038095Y-100327142D01*
X151685714Y-102042380D02*
X152161904Y-102042380D01*
X152161904Y-102042380D02*
X152161904Y-101042380D01*
X151352380Y-101518571D02*
X151019047Y-101518571D01*
X150876190Y-102042380D02*
X151352380Y-102042380D01*
X151352380Y-102042380D02*
X151352380Y-101042380D01*
X151352380Y-101042380D02*
X150876190Y-101042380D01*
X150447618Y-102042380D02*
X150447618Y-101042380D01*
X150447618Y-101042380D02*
X150209523Y-101042380D01*
X150209523Y-101042380D02*
X150066666Y-101090000D01*
X150066666Y-101090000D02*
X149971428Y-101185238D01*
X149971428Y-101185238D02*
X149923809Y-101280476D01*
X149923809Y-101280476D02*
X149876190Y-101470952D01*
X149876190Y-101470952D02*
X149876190Y-101613809D01*
X149876190Y-101613809D02*
X149923809Y-101804285D01*
X149923809Y-101804285D02*
X149971428Y-101899523D01*
X149971428Y-101899523D02*
X150066666Y-101994761D01*
X150066666Y-101994761D02*
X150209523Y-102042380D01*
X150209523Y-102042380D02*
X150447618Y-102042380D01*
X149019047Y-101375714D02*
X149019047Y-102042380D01*
X149257142Y-100994761D02*
X149495237Y-101709047D01*
X149495237Y-101709047D02*
X148876190Y-101709047D01*
X148495237Y-101947142D02*
X148447618Y-101994761D01*
X148447618Y-101994761D02*
X148495237Y-102042380D01*
X148495237Y-102042380D02*
X148542856Y-101994761D01*
X148542856Y-101994761D02*
X148495237Y-101947142D01*
X148495237Y-101947142D02*
X148495237Y-102042380D01*
X148495237Y-101423333D02*
X148447618Y-101470952D01*
X148447618Y-101470952D02*
X148495237Y-101518571D01*
X148495237Y-101518571D02*
X148542856Y-101470952D01*
X148542856Y-101470952D02*
X148495237Y-101423333D01*
X148495237Y-101423333D02*
X148495237Y-101518571D01*
X146895238Y-101090000D02*
X146990476Y-101042380D01*
X146990476Y-101042380D02*
X147133333Y-101042380D01*
X147133333Y-101042380D02*
X147276190Y-101090000D01*
X147276190Y-101090000D02*
X147371428Y-101185238D01*
X147371428Y-101185238D02*
X147419047Y-101280476D01*
X147419047Y-101280476D02*
X147466666Y-101470952D01*
X147466666Y-101470952D02*
X147466666Y-101613809D01*
X147466666Y-101613809D02*
X147419047Y-101804285D01*
X147419047Y-101804285D02*
X147371428Y-101899523D01*
X147371428Y-101899523D02*
X147276190Y-101994761D01*
X147276190Y-101994761D02*
X147133333Y-102042380D01*
X147133333Y-102042380D02*
X147038095Y-102042380D01*
X147038095Y-102042380D02*
X146895238Y-101994761D01*
X146895238Y-101994761D02*
X146847619Y-101947142D01*
X146847619Y-101947142D02*
X146847619Y-101613809D01*
X146847619Y-101613809D02*
X147038095Y-101613809D01*
X146419047Y-102042380D02*
X146419047Y-101042380D01*
X146419047Y-101042380D02*
X146038095Y-101042380D01*
X146038095Y-101042380D02*
X145942857Y-101090000D01*
X145942857Y-101090000D02*
X145895238Y-101137619D01*
X145895238Y-101137619D02*
X145847619Y-101232857D01*
X145847619Y-101232857D02*
X145847619Y-101375714D01*
X145847619Y-101375714D02*
X145895238Y-101470952D01*
X145895238Y-101470952D02*
X145942857Y-101518571D01*
X145942857Y-101518571D02*
X146038095Y-101566190D01*
X146038095Y-101566190D02*
X146419047Y-101566190D01*
X145419047Y-102042380D02*
X145419047Y-101042380D01*
X144752381Y-101042380D02*
X144561905Y-101042380D01*
X144561905Y-101042380D02*
X144466667Y-101090000D01*
X144466667Y-101090000D02*
X144371429Y-101185238D01*
X144371429Y-101185238D02*
X144323810Y-101375714D01*
X144323810Y-101375714D02*
X144323810Y-101709047D01*
X144323810Y-101709047D02*
X144371429Y-101899523D01*
X144371429Y-101899523D02*
X144466667Y-101994761D01*
X144466667Y-101994761D02*
X144561905Y-102042380D01*
X144561905Y-102042380D02*
X144752381Y-102042380D01*
X144752381Y-102042380D02*
X144847619Y-101994761D01*
X144847619Y-101994761D02*
X144942857Y-101899523D01*
X144942857Y-101899523D02*
X144990476Y-101709047D01*
X144990476Y-101709047D02*
X144990476Y-101375714D01*
X144990476Y-101375714D02*
X144942857Y-101185238D01*
X144942857Y-101185238D02*
X144847619Y-101090000D01*
X144847619Y-101090000D02*
X144752381Y-101042380D01*
X143371429Y-102042380D02*
X143942857Y-102042380D01*
X143657143Y-102042380D02*
X143657143Y-101042380D01*
X143657143Y-101042380D02*
X143752381Y-101185238D01*
X143752381Y-101185238D02*
X143847619Y-101280476D01*
X143847619Y-101280476D02*
X143942857Y-101328095D01*
X142514286Y-101375714D02*
X142514286Y-102042380D01*
X142752381Y-100994761D02*
X142990476Y-101709047D01*
X142990476Y-101709047D02*
X142371429Y-101709047D01*
X151590476Y-105282380D02*
X151923809Y-104806190D01*
X152161904Y-105282380D02*
X152161904Y-104282380D01*
X152161904Y-104282380D02*
X151780952Y-104282380D01*
X151780952Y-104282380D02*
X151685714Y-104330000D01*
X151685714Y-104330000D02*
X151638095Y-104377619D01*
X151638095Y-104377619D02*
X151590476Y-104472857D01*
X151590476Y-104472857D02*
X151590476Y-104615714D01*
X151590476Y-104615714D02*
X151638095Y-104710952D01*
X151638095Y-104710952D02*
X151685714Y-104758571D01*
X151685714Y-104758571D02*
X151780952Y-104806190D01*
X151780952Y-104806190D02*
X152161904Y-104806190D01*
X151161904Y-104758571D02*
X150828571Y-104758571D01*
X150685714Y-105282380D02*
X151161904Y-105282380D01*
X151161904Y-105282380D02*
X151161904Y-104282380D01*
X151161904Y-104282380D02*
X150685714Y-104282380D01*
X150257142Y-104758571D02*
X149923809Y-104758571D01*
X149780952Y-105282380D02*
X150257142Y-105282380D01*
X150257142Y-105282380D02*
X150257142Y-104282380D01*
X150257142Y-104282380D02*
X149780952Y-104282380D01*
X149352380Y-105282380D02*
X149352380Y-104282380D01*
X149352380Y-104282380D02*
X149114285Y-104282380D01*
X149114285Y-104282380D02*
X148971428Y-104330000D01*
X148971428Y-104330000D02*
X148876190Y-104425238D01*
X148876190Y-104425238D02*
X148828571Y-104520476D01*
X148828571Y-104520476D02*
X148780952Y-104710952D01*
X148780952Y-104710952D02*
X148780952Y-104853809D01*
X148780952Y-104853809D02*
X148828571Y-105044285D01*
X148828571Y-105044285D02*
X148876190Y-105139523D01*
X148876190Y-105139523D02*
X148971428Y-105234761D01*
X148971428Y-105234761D02*
X149114285Y-105282380D01*
X149114285Y-105282380D02*
X149352380Y-105282380D01*
X148399999Y-105234761D02*
X148257142Y-105282380D01*
X148257142Y-105282380D02*
X148019047Y-105282380D01*
X148019047Y-105282380D02*
X147923809Y-105234761D01*
X147923809Y-105234761D02*
X147876190Y-105187142D01*
X147876190Y-105187142D02*
X147828571Y-105091904D01*
X147828571Y-105091904D02*
X147828571Y-104996666D01*
X147828571Y-104996666D02*
X147876190Y-104901428D01*
X147876190Y-104901428D02*
X147923809Y-104853809D01*
X147923809Y-104853809D02*
X148019047Y-104806190D01*
X148019047Y-104806190D02*
X148209523Y-104758571D01*
X148209523Y-104758571D02*
X148304761Y-104710952D01*
X148304761Y-104710952D02*
X148352380Y-104663333D01*
X148352380Y-104663333D02*
X148399999Y-104568095D01*
X148399999Y-104568095D02*
X148399999Y-104472857D01*
X148399999Y-104472857D02*
X148352380Y-104377619D01*
X148352380Y-104377619D02*
X148304761Y-104330000D01*
X148304761Y-104330000D02*
X148209523Y-104282380D01*
X148209523Y-104282380D02*
X147971428Y-104282380D01*
X147971428Y-104282380D02*
X147828571Y-104330000D01*
X147495237Y-104282380D02*
X147257142Y-105282380D01*
X147257142Y-105282380D02*
X147066666Y-104568095D01*
X147066666Y-104568095D02*
X146876190Y-105282380D01*
X146876190Y-105282380D02*
X146638095Y-104282380D01*
X146257142Y-105282380D02*
X146257142Y-104282380D01*
X145923809Y-104282380D02*
X145352381Y-104282380D01*
X145638095Y-105282380D02*
X145638095Y-104282380D01*
X144447619Y-105187142D02*
X144495238Y-105234761D01*
X144495238Y-105234761D02*
X144638095Y-105282380D01*
X144638095Y-105282380D02*
X144733333Y-105282380D01*
X144733333Y-105282380D02*
X144876190Y-105234761D01*
X144876190Y-105234761D02*
X144971428Y-105139523D01*
X144971428Y-105139523D02*
X145019047Y-105044285D01*
X145019047Y-105044285D02*
X145066666Y-104853809D01*
X145066666Y-104853809D02*
X145066666Y-104710952D01*
X145066666Y-104710952D02*
X145019047Y-104520476D01*
X145019047Y-104520476D02*
X144971428Y-104425238D01*
X144971428Y-104425238D02*
X144876190Y-104330000D01*
X144876190Y-104330000D02*
X144733333Y-104282380D01*
X144733333Y-104282380D02*
X144638095Y-104282380D01*
X144638095Y-104282380D02*
X144495238Y-104330000D01*
X144495238Y-104330000D02*
X144447619Y-104377619D01*
X144019047Y-105282380D02*
X144019047Y-104282380D01*
X144019047Y-104758571D02*
X143447619Y-104758571D01*
X143447619Y-105282380D02*
X143447619Y-104282380D01*
X152209523Y-106854761D02*
X152066666Y-106902380D01*
X152066666Y-106902380D02*
X151828571Y-106902380D01*
X151828571Y-106902380D02*
X151733333Y-106854761D01*
X151733333Y-106854761D02*
X151685714Y-106807142D01*
X151685714Y-106807142D02*
X151638095Y-106711904D01*
X151638095Y-106711904D02*
X151638095Y-106616666D01*
X151638095Y-106616666D02*
X151685714Y-106521428D01*
X151685714Y-106521428D02*
X151733333Y-106473809D01*
X151733333Y-106473809D02*
X151828571Y-106426190D01*
X151828571Y-106426190D02*
X152019047Y-106378571D01*
X152019047Y-106378571D02*
X152114285Y-106330952D01*
X152114285Y-106330952D02*
X152161904Y-106283333D01*
X152161904Y-106283333D02*
X152209523Y-106188095D01*
X152209523Y-106188095D02*
X152209523Y-106092857D01*
X152209523Y-106092857D02*
X152161904Y-105997619D01*
X152161904Y-105997619D02*
X152114285Y-105950000D01*
X152114285Y-105950000D02*
X152019047Y-105902380D01*
X152019047Y-105902380D02*
X151780952Y-105902380D01*
X151780952Y-105902380D02*
X151638095Y-105950000D01*
X151304761Y-105902380D02*
X151066666Y-106902380D01*
X151066666Y-106902380D02*
X150876190Y-106188095D01*
X150876190Y-106188095D02*
X150685714Y-106902380D01*
X150685714Y-106902380D02*
X150447619Y-105902380D01*
X149542857Y-106902380D02*
X150114285Y-106902380D01*
X149828571Y-106902380D02*
X149828571Y-105902380D01*
X149828571Y-105902380D02*
X149923809Y-106045238D01*
X149923809Y-106045238D02*
X150019047Y-106140476D01*
X150019047Y-106140476D02*
X150114285Y-106188095D01*
X149114285Y-106807142D02*
X149066666Y-106854761D01*
X149066666Y-106854761D02*
X149114285Y-106902380D01*
X149114285Y-106902380D02*
X149161904Y-106854761D01*
X149161904Y-106854761D02*
X149114285Y-106807142D01*
X149114285Y-106807142D02*
X149114285Y-106902380D01*
X149114285Y-106283333D02*
X149066666Y-106330952D01*
X149066666Y-106330952D02*
X149114285Y-106378571D01*
X149114285Y-106378571D02*
X149161904Y-106330952D01*
X149161904Y-106330952D02*
X149114285Y-106283333D01*
X149114285Y-106283333D02*
X149114285Y-106378571D01*
X147514286Y-105950000D02*
X147609524Y-105902380D01*
X147609524Y-105902380D02*
X147752381Y-105902380D01*
X147752381Y-105902380D02*
X147895238Y-105950000D01*
X147895238Y-105950000D02*
X147990476Y-106045238D01*
X147990476Y-106045238D02*
X148038095Y-106140476D01*
X148038095Y-106140476D02*
X148085714Y-106330952D01*
X148085714Y-106330952D02*
X148085714Y-106473809D01*
X148085714Y-106473809D02*
X148038095Y-106664285D01*
X148038095Y-106664285D02*
X147990476Y-106759523D01*
X147990476Y-106759523D02*
X147895238Y-106854761D01*
X147895238Y-106854761D02*
X147752381Y-106902380D01*
X147752381Y-106902380D02*
X147657143Y-106902380D01*
X147657143Y-106902380D02*
X147514286Y-106854761D01*
X147514286Y-106854761D02*
X147466667Y-106807142D01*
X147466667Y-106807142D02*
X147466667Y-106473809D01*
X147466667Y-106473809D02*
X147657143Y-106473809D01*
X147038095Y-106902380D02*
X147038095Y-105902380D01*
X147038095Y-105902380D02*
X146657143Y-105902380D01*
X146657143Y-105902380D02*
X146561905Y-105950000D01*
X146561905Y-105950000D02*
X146514286Y-105997619D01*
X146514286Y-105997619D02*
X146466667Y-106092857D01*
X146466667Y-106092857D02*
X146466667Y-106235714D01*
X146466667Y-106235714D02*
X146514286Y-106330952D01*
X146514286Y-106330952D02*
X146561905Y-106378571D01*
X146561905Y-106378571D02*
X146657143Y-106426190D01*
X146657143Y-106426190D02*
X147038095Y-106426190D01*
X146038095Y-106902380D02*
X146038095Y-105902380D01*
X145371429Y-105902380D02*
X145180953Y-105902380D01*
X145180953Y-105902380D02*
X145085715Y-105950000D01*
X145085715Y-105950000D02*
X144990477Y-106045238D01*
X144990477Y-106045238D02*
X144942858Y-106235714D01*
X144942858Y-106235714D02*
X144942858Y-106569047D01*
X144942858Y-106569047D02*
X144990477Y-106759523D01*
X144990477Y-106759523D02*
X145085715Y-106854761D01*
X145085715Y-106854761D02*
X145180953Y-106902380D01*
X145180953Y-106902380D02*
X145371429Y-106902380D01*
X145371429Y-106902380D02*
X145466667Y-106854761D01*
X145466667Y-106854761D02*
X145561905Y-106759523D01*
X145561905Y-106759523D02*
X145609524Y-106569047D01*
X145609524Y-106569047D02*
X145609524Y-106235714D01*
X145609524Y-106235714D02*
X145561905Y-106045238D01*
X145561905Y-106045238D02*
X145466667Y-105950000D01*
X145466667Y-105950000D02*
X145371429Y-105902380D01*
X144609524Y-105902380D02*
X143990477Y-105902380D01*
X143990477Y-105902380D02*
X144323810Y-106283333D01*
X144323810Y-106283333D02*
X144180953Y-106283333D01*
X144180953Y-106283333D02*
X144085715Y-106330952D01*
X144085715Y-106330952D02*
X144038096Y-106378571D01*
X144038096Y-106378571D02*
X143990477Y-106473809D01*
X143990477Y-106473809D02*
X143990477Y-106711904D01*
X143990477Y-106711904D02*
X144038096Y-106807142D01*
X144038096Y-106807142D02*
X144085715Y-106854761D01*
X144085715Y-106854761D02*
X144180953Y-106902380D01*
X144180953Y-106902380D02*
X144466667Y-106902380D01*
X144466667Y-106902380D02*
X144561905Y-106854761D01*
X144561905Y-106854761D02*
X144609524Y-106807142D01*
X143133334Y-106235714D02*
X143133334Y-106902380D01*
X143371429Y-105854761D02*
X143609524Y-106569047D01*
X143609524Y-106569047D02*
X142990477Y-106569047D01*
X152209523Y-108474761D02*
X152066666Y-108522380D01*
X152066666Y-108522380D02*
X151828571Y-108522380D01*
X151828571Y-108522380D02*
X151733333Y-108474761D01*
X151733333Y-108474761D02*
X151685714Y-108427142D01*
X151685714Y-108427142D02*
X151638095Y-108331904D01*
X151638095Y-108331904D02*
X151638095Y-108236666D01*
X151638095Y-108236666D02*
X151685714Y-108141428D01*
X151685714Y-108141428D02*
X151733333Y-108093809D01*
X151733333Y-108093809D02*
X151828571Y-108046190D01*
X151828571Y-108046190D02*
X152019047Y-107998571D01*
X152019047Y-107998571D02*
X152114285Y-107950952D01*
X152114285Y-107950952D02*
X152161904Y-107903333D01*
X152161904Y-107903333D02*
X152209523Y-107808095D01*
X152209523Y-107808095D02*
X152209523Y-107712857D01*
X152209523Y-107712857D02*
X152161904Y-107617619D01*
X152161904Y-107617619D02*
X152114285Y-107570000D01*
X152114285Y-107570000D02*
X152019047Y-107522380D01*
X152019047Y-107522380D02*
X151780952Y-107522380D01*
X151780952Y-107522380D02*
X151638095Y-107570000D01*
X151304761Y-107522380D02*
X151066666Y-108522380D01*
X151066666Y-108522380D02*
X150876190Y-107808095D01*
X150876190Y-107808095D02*
X150685714Y-108522380D01*
X150685714Y-108522380D02*
X150447619Y-107522380D01*
X150114285Y-107617619D02*
X150066666Y-107570000D01*
X150066666Y-107570000D02*
X149971428Y-107522380D01*
X149971428Y-107522380D02*
X149733333Y-107522380D01*
X149733333Y-107522380D02*
X149638095Y-107570000D01*
X149638095Y-107570000D02*
X149590476Y-107617619D01*
X149590476Y-107617619D02*
X149542857Y-107712857D01*
X149542857Y-107712857D02*
X149542857Y-107808095D01*
X149542857Y-107808095D02*
X149590476Y-107950952D01*
X149590476Y-107950952D02*
X150161904Y-108522380D01*
X150161904Y-108522380D02*
X149542857Y-108522380D01*
X149114285Y-108427142D02*
X149066666Y-108474761D01*
X149066666Y-108474761D02*
X149114285Y-108522380D01*
X149114285Y-108522380D02*
X149161904Y-108474761D01*
X149161904Y-108474761D02*
X149114285Y-108427142D01*
X149114285Y-108427142D02*
X149114285Y-108522380D01*
X149114285Y-107903333D02*
X149066666Y-107950952D01*
X149066666Y-107950952D02*
X149114285Y-107998571D01*
X149114285Y-107998571D02*
X149161904Y-107950952D01*
X149161904Y-107950952D02*
X149114285Y-107903333D01*
X149114285Y-107903333D02*
X149114285Y-107998571D01*
X147514286Y-107570000D02*
X147609524Y-107522380D01*
X147609524Y-107522380D02*
X147752381Y-107522380D01*
X147752381Y-107522380D02*
X147895238Y-107570000D01*
X147895238Y-107570000D02*
X147990476Y-107665238D01*
X147990476Y-107665238D02*
X148038095Y-107760476D01*
X148038095Y-107760476D02*
X148085714Y-107950952D01*
X148085714Y-107950952D02*
X148085714Y-108093809D01*
X148085714Y-108093809D02*
X148038095Y-108284285D01*
X148038095Y-108284285D02*
X147990476Y-108379523D01*
X147990476Y-108379523D02*
X147895238Y-108474761D01*
X147895238Y-108474761D02*
X147752381Y-108522380D01*
X147752381Y-108522380D02*
X147657143Y-108522380D01*
X147657143Y-108522380D02*
X147514286Y-108474761D01*
X147514286Y-108474761D02*
X147466667Y-108427142D01*
X147466667Y-108427142D02*
X147466667Y-108093809D01*
X147466667Y-108093809D02*
X147657143Y-108093809D01*
X147038095Y-108522380D02*
X147038095Y-107522380D01*
X147038095Y-107522380D02*
X146657143Y-107522380D01*
X146657143Y-107522380D02*
X146561905Y-107570000D01*
X146561905Y-107570000D02*
X146514286Y-107617619D01*
X146514286Y-107617619D02*
X146466667Y-107712857D01*
X146466667Y-107712857D02*
X146466667Y-107855714D01*
X146466667Y-107855714D02*
X146514286Y-107950952D01*
X146514286Y-107950952D02*
X146561905Y-107998571D01*
X146561905Y-107998571D02*
X146657143Y-108046190D01*
X146657143Y-108046190D02*
X147038095Y-108046190D01*
X146038095Y-108522380D02*
X146038095Y-107522380D01*
X145371429Y-107522380D02*
X145180953Y-107522380D01*
X145180953Y-107522380D02*
X145085715Y-107570000D01*
X145085715Y-107570000D02*
X144990477Y-107665238D01*
X144990477Y-107665238D02*
X144942858Y-107855714D01*
X144942858Y-107855714D02*
X144942858Y-108189047D01*
X144942858Y-108189047D02*
X144990477Y-108379523D01*
X144990477Y-108379523D02*
X145085715Y-108474761D01*
X145085715Y-108474761D02*
X145180953Y-108522380D01*
X145180953Y-108522380D02*
X145371429Y-108522380D01*
X145371429Y-108522380D02*
X145466667Y-108474761D01*
X145466667Y-108474761D02*
X145561905Y-108379523D01*
X145561905Y-108379523D02*
X145609524Y-108189047D01*
X145609524Y-108189047D02*
X145609524Y-107855714D01*
X145609524Y-107855714D02*
X145561905Y-107665238D01*
X145561905Y-107665238D02*
X145466667Y-107570000D01*
X145466667Y-107570000D02*
X145371429Y-107522380D01*
X144609524Y-107522380D02*
X143990477Y-107522380D01*
X143990477Y-107522380D02*
X144323810Y-107903333D01*
X144323810Y-107903333D02*
X144180953Y-107903333D01*
X144180953Y-107903333D02*
X144085715Y-107950952D01*
X144085715Y-107950952D02*
X144038096Y-107998571D01*
X144038096Y-107998571D02*
X143990477Y-108093809D01*
X143990477Y-108093809D02*
X143990477Y-108331904D01*
X143990477Y-108331904D02*
X144038096Y-108427142D01*
X144038096Y-108427142D02*
X144085715Y-108474761D01*
X144085715Y-108474761D02*
X144180953Y-108522380D01*
X144180953Y-108522380D02*
X144466667Y-108522380D01*
X144466667Y-108522380D02*
X144561905Y-108474761D01*
X144561905Y-108474761D02*
X144609524Y-108427142D01*
X143085715Y-107522380D02*
X143561905Y-107522380D01*
X143561905Y-107522380D02*
X143609524Y-107998571D01*
X143609524Y-107998571D02*
X143561905Y-107950952D01*
X143561905Y-107950952D02*
X143466667Y-107903333D01*
X143466667Y-107903333D02*
X143228572Y-107903333D01*
X143228572Y-107903333D02*
X143133334Y-107950952D01*
X143133334Y-107950952D02*
X143085715Y-107998571D01*
X143085715Y-107998571D02*
X143038096Y-108093809D01*
X143038096Y-108093809D02*
X143038096Y-108331904D01*
X143038096Y-108331904D02*
X143085715Y-108427142D01*
X143085715Y-108427142D02*
X143133334Y-108474761D01*
X143133334Y-108474761D02*
X143228572Y-108522380D01*
X143228572Y-108522380D02*
X143466667Y-108522380D01*
X143466667Y-108522380D02*
X143561905Y-108474761D01*
X143561905Y-108474761D02*
X143609524Y-108427142D01*
X152209523Y-110094761D02*
X152066666Y-110142380D01*
X152066666Y-110142380D02*
X151828571Y-110142380D01*
X151828571Y-110142380D02*
X151733333Y-110094761D01*
X151733333Y-110094761D02*
X151685714Y-110047142D01*
X151685714Y-110047142D02*
X151638095Y-109951904D01*
X151638095Y-109951904D02*
X151638095Y-109856666D01*
X151638095Y-109856666D02*
X151685714Y-109761428D01*
X151685714Y-109761428D02*
X151733333Y-109713809D01*
X151733333Y-109713809D02*
X151828571Y-109666190D01*
X151828571Y-109666190D02*
X152019047Y-109618571D01*
X152019047Y-109618571D02*
X152114285Y-109570952D01*
X152114285Y-109570952D02*
X152161904Y-109523333D01*
X152161904Y-109523333D02*
X152209523Y-109428095D01*
X152209523Y-109428095D02*
X152209523Y-109332857D01*
X152209523Y-109332857D02*
X152161904Y-109237619D01*
X152161904Y-109237619D02*
X152114285Y-109190000D01*
X152114285Y-109190000D02*
X152019047Y-109142380D01*
X152019047Y-109142380D02*
X151780952Y-109142380D01*
X151780952Y-109142380D02*
X151638095Y-109190000D01*
X151304761Y-109142380D02*
X151066666Y-110142380D01*
X151066666Y-110142380D02*
X150876190Y-109428095D01*
X150876190Y-109428095D02*
X150685714Y-110142380D01*
X150685714Y-110142380D02*
X150447619Y-109142380D01*
X150161904Y-109142380D02*
X149542857Y-109142380D01*
X149542857Y-109142380D02*
X149876190Y-109523333D01*
X149876190Y-109523333D02*
X149733333Y-109523333D01*
X149733333Y-109523333D02*
X149638095Y-109570952D01*
X149638095Y-109570952D02*
X149590476Y-109618571D01*
X149590476Y-109618571D02*
X149542857Y-109713809D01*
X149542857Y-109713809D02*
X149542857Y-109951904D01*
X149542857Y-109951904D02*
X149590476Y-110047142D01*
X149590476Y-110047142D02*
X149638095Y-110094761D01*
X149638095Y-110094761D02*
X149733333Y-110142380D01*
X149733333Y-110142380D02*
X150019047Y-110142380D01*
X150019047Y-110142380D02*
X150114285Y-110094761D01*
X150114285Y-110094761D02*
X150161904Y-110047142D01*
X149114285Y-110047142D02*
X149066666Y-110094761D01*
X149066666Y-110094761D02*
X149114285Y-110142380D01*
X149114285Y-110142380D02*
X149161904Y-110094761D01*
X149161904Y-110094761D02*
X149114285Y-110047142D01*
X149114285Y-110047142D02*
X149114285Y-110142380D01*
X149114285Y-109523333D02*
X149066666Y-109570952D01*
X149066666Y-109570952D02*
X149114285Y-109618571D01*
X149114285Y-109618571D02*
X149161904Y-109570952D01*
X149161904Y-109570952D02*
X149114285Y-109523333D01*
X149114285Y-109523333D02*
X149114285Y-109618571D01*
X147514286Y-109190000D02*
X147609524Y-109142380D01*
X147609524Y-109142380D02*
X147752381Y-109142380D01*
X147752381Y-109142380D02*
X147895238Y-109190000D01*
X147895238Y-109190000D02*
X147990476Y-109285238D01*
X147990476Y-109285238D02*
X148038095Y-109380476D01*
X148038095Y-109380476D02*
X148085714Y-109570952D01*
X148085714Y-109570952D02*
X148085714Y-109713809D01*
X148085714Y-109713809D02*
X148038095Y-109904285D01*
X148038095Y-109904285D02*
X147990476Y-109999523D01*
X147990476Y-109999523D02*
X147895238Y-110094761D01*
X147895238Y-110094761D02*
X147752381Y-110142380D01*
X147752381Y-110142380D02*
X147657143Y-110142380D01*
X147657143Y-110142380D02*
X147514286Y-110094761D01*
X147514286Y-110094761D02*
X147466667Y-110047142D01*
X147466667Y-110047142D02*
X147466667Y-109713809D01*
X147466667Y-109713809D02*
X147657143Y-109713809D01*
X147038095Y-110142380D02*
X147038095Y-109142380D01*
X147038095Y-109142380D02*
X146657143Y-109142380D01*
X146657143Y-109142380D02*
X146561905Y-109190000D01*
X146561905Y-109190000D02*
X146514286Y-109237619D01*
X146514286Y-109237619D02*
X146466667Y-109332857D01*
X146466667Y-109332857D02*
X146466667Y-109475714D01*
X146466667Y-109475714D02*
X146514286Y-109570952D01*
X146514286Y-109570952D02*
X146561905Y-109618571D01*
X146561905Y-109618571D02*
X146657143Y-109666190D01*
X146657143Y-109666190D02*
X147038095Y-109666190D01*
X146038095Y-110142380D02*
X146038095Y-109142380D01*
X145371429Y-109142380D02*
X145180953Y-109142380D01*
X145180953Y-109142380D02*
X145085715Y-109190000D01*
X145085715Y-109190000D02*
X144990477Y-109285238D01*
X144990477Y-109285238D02*
X144942858Y-109475714D01*
X144942858Y-109475714D02*
X144942858Y-109809047D01*
X144942858Y-109809047D02*
X144990477Y-109999523D01*
X144990477Y-109999523D02*
X145085715Y-110094761D01*
X145085715Y-110094761D02*
X145180953Y-110142380D01*
X145180953Y-110142380D02*
X145371429Y-110142380D01*
X145371429Y-110142380D02*
X145466667Y-110094761D01*
X145466667Y-110094761D02*
X145561905Y-109999523D01*
X145561905Y-109999523D02*
X145609524Y-109809047D01*
X145609524Y-109809047D02*
X145609524Y-109475714D01*
X145609524Y-109475714D02*
X145561905Y-109285238D01*
X145561905Y-109285238D02*
X145466667Y-109190000D01*
X145466667Y-109190000D02*
X145371429Y-109142380D01*
X144609524Y-109142380D02*
X143990477Y-109142380D01*
X143990477Y-109142380D02*
X144323810Y-109523333D01*
X144323810Y-109523333D02*
X144180953Y-109523333D01*
X144180953Y-109523333D02*
X144085715Y-109570952D01*
X144085715Y-109570952D02*
X144038096Y-109618571D01*
X144038096Y-109618571D02*
X143990477Y-109713809D01*
X143990477Y-109713809D02*
X143990477Y-109951904D01*
X143990477Y-109951904D02*
X144038096Y-110047142D01*
X144038096Y-110047142D02*
X144085715Y-110094761D01*
X144085715Y-110094761D02*
X144180953Y-110142380D01*
X144180953Y-110142380D02*
X144466667Y-110142380D01*
X144466667Y-110142380D02*
X144561905Y-110094761D01*
X144561905Y-110094761D02*
X144609524Y-110047142D01*
X143133334Y-109142380D02*
X143323810Y-109142380D01*
X143323810Y-109142380D02*
X143419048Y-109190000D01*
X143419048Y-109190000D02*
X143466667Y-109237619D01*
X143466667Y-109237619D02*
X143561905Y-109380476D01*
X143561905Y-109380476D02*
X143609524Y-109570952D01*
X143609524Y-109570952D02*
X143609524Y-109951904D01*
X143609524Y-109951904D02*
X143561905Y-110047142D01*
X143561905Y-110047142D02*
X143514286Y-110094761D01*
X143514286Y-110094761D02*
X143419048Y-110142380D01*
X143419048Y-110142380D02*
X143228572Y-110142380D01*
X143228572Y-110142380D02*
X143133334Y-110094761D01*
X143133334Y-110094761D02*
X143085715Y-110047142D01*
X143085715Y-110047142D02*
X143038096Y-109951904D01*
X143038096Y-109951904D02*
X143038096Y-109713809D01*
X143038096Y-109713809D02*
X143085715Y-109618571D01*
X143085715Y-109618571D02*
X143133334Y-109570952D01*
X143133334Y-109570952D02*
X143228572Y-109523333D01*
X143228572Y-109523333D02*
X143419048Y-109523333D01*
X143419048Y-109523333D02*
X143514286Y-109570952D01*
X143514286Y-109570952D02*
X143561905Y-109618571D01*
X143561905Y-109618571D02*
X143609524Y-109713809D01*
X152161904Y-113382380D02*
X152161904Y-112382380D01*
X152161904Y-112382380D02*
X151780952Y-112382380D01*
X151780952Y-112382380D02*
X151685714Y-112430000D01*
X151685714Y-112430000D02*
X151638095Y-112477619D01*
X151638095Y-112477619D02*
X151590476Y-112572857D01*
X151590476Y-112572857D02*
X151590476Y-112715714D01*
X151590476Y-112715714D02*
X151638095Y-112810952D01*
X151638095Y-112810952D02*
X151685714Y-112858571D01*
X151685714Y-112858571D02*
X151780952Y-112906190D01*
X151780952Y-112906190D02*
X152161904Y-112906190D01*
X151161904Y-113382380D02*
X151161904Y-112382380D01*
X150114286Y-113382380D02*
X150447619Y-112906190D01*
X150685714Y-113382380D02*
X150685714Y-112382380D01*
X150685714Y-112382380D02*
X150304762Y-112382380D01*
X150304762Y-112382380D02*
X150209524Y-112430000D01*
X150209524Y-112430000D02*
X150161905Y-112477619D01*
X150161905Y-112477619D02*
X150114286Y-112572857D01*
X150114286Y-112572857D02*
X150114286Y-112715714D01*
X150114286Y-112715714D02*
X150161905Y-112810952D01*
X150161905Y-112810952D02*
X150209524Y-112858571D01*
X150209524Y-112858571D02*
X150304762Y-112906190D01*
X150304762Y-112906190D02*
X150685714Y-112906190D01*
X149685714Y-113287142D02*
X149638095Y-113334761D01*
X149638095Y-113334761D02*
X149685714Y-113382380D01*
X149685714Y-113382380D02*
X149733333Y-113334761D01*
X149733333Y-113334761D02*
X149685714Y-113287142D01*
X149685714Y-113287142D02*
X149685714Y-113382380D01*
X149685714Y-112763333D02*
X149638095Y-112810952D01*
X149638095Y-112810952D02*
X149685714Y-112858571D01*
X149685714Y-112858571D02*
X149733333Y-112810952D01*
X149733333Y-112810952D02*
X149685714Y-112763333D01*
X149685714Y-112763333D02*
X149685714Y-112858571D01*
X151685714Y-115002380D02*
X152161904Y-115002380D01*
X152161904Y-115002380D02*
X152161904Y-114002380D01*
X151352380Y-114478571D02*
X151019047Y-114478571D01*
X150876190Y-115002380D02*
X151352380Y-115002380D01*
X151352380Y-115002380D02*
X151352380Y-114002380D01*
X151352380Y-114002380D02*
X150876190Y-114002380D01*
X150447618Y-115002380D02*
X150447618Y-114002380D01*
X150447618Y-114002380D02*
X150209523Y-114002380D01*
X150209523Y-114002380D02*
X150066666Y-114050000D01*
X150066666Y-114050000D02*
X149971428Y-114145238D01*
X149971428Y-114145238D02*
X149923809Y-114240476D01*
X149923809Y-114240476D02*
X149876190Y-114430952D01*
X149876190Y-114430952D02*
X149876190Y-114573809D01*
X149876190Y-114573809D02*
X149923809Y-114764285D01*
X149923809Y-114764285D02*
X149971428Y-114859523D01*
X149971428Y-114859523D02*
X150066666Y-114954761D01*
X150066666Y-114954761D02*
X150209523Y-115002380D01*
X150209523Y-115002380D02*
X150447618Y-115002380D01*
X149447618Y-114907142D02*
X149399999Y-114954761D01*
X149399999Y-114954761D02*
X149447618Y-115002380D01*
X149447618Y-115002380D02*
X149495237Y-114954761D01*
X149495237Y-114954761D02*
X149447618Y-114907142D01*
X149447618Y-114907142D02*
X149447618Y-115002380D01*
X149447618Y-114383333D02*
X149399999Y-114430952D01*
X149399999Y-114430952D02*
X149447618Y-114478571D01*
X149447618Y-114478571D02*
X149495237Y-114430952D01*
X149495237Y-114430952D02*
X149447618Y-114383333D01*
X149447618Y-114383333D02*
X149447618Y-114478571D01*
X147847619Y-114050000D02*
X147942857Y-114002380D01*
X147942857Y-114002380D02*
X148085714Y-114002380D01*
X148085714Y-114002380D02*
X148228571Y-114050000D01*
X148228571Y-114050000D02*
X148323809Y-114145238D01*
X148323809Y-114145238D02*
X148371428Y-114240476D01*
X148371428Y-114240476D02*
X148419047Y-114430952D01*
X148419047Y-114430952D02*
X148419047Y-114573809D01*
X148419047Y-114573809D02*
X148371428Y-114764285D01*
X148371428Y-114764285D02*
X148323809Y-114859523D01*
X148323809Y-114859523D02*
X148228571Y-114954761D01*
X148228571Y-114954761D02*
X148085714Y-115002380D01*
X148085714Y-115002380D02*
X147990476Y-115002380D01*
X147990476Y-115002380D02*
X147847619Y-114954761D01*
X147847619Y-114954761D02*
X147800000Y-114907142D01*
X147800000Y-114907142D02*
X147800000Y-114573809D01*
X147800000Y-114573809D02*
X147990476Y-114573809D01*
X147371428Y-115002380D02*
X147371428Y-114002380D01*
X147371428Y-114002380D02*
X146990476Y-114002380D01*
X146990476Y-114002380D02*
X146895238Y-114050000D01*
X146895238Y-114050000D02*
X146847619Y-114097619D01*
X146847619Y-114097619D02*
X146800000Y-114192857D01*
X146800000Y-114192857D02*
X146800000Y-114335714D01*
X146800000Y-114335714D02*
X146847619Y-114430952D01*
X146847619Y-114430952D02*
X146895238Y-114478571D01*
X146895238Y-114478571D02*
X146990476Y-114526190D01*
X146990476Y-114526190D02*
X147371428Y-114526190D01*
X146371428Y-115002380D02*
X146371428Y-114002380D01*
X145704762Y-114002380D02*
X145514286Y-114002380D01*
X145514286Y-114002380D02*
X145419048Y-114050000D01*
X145419048Y-114050000D02*
X145323810Y-114145238D01*
X145323810Y-114145238D02*
X145276191Y-114335714D01*
X145276191Y-114335714D02*
X145276191Y-114669047D01*
X145276191Y-114669047D02*
X145323810Y-114859523D01*
X145323810Y-114859523D02*
X145419048Y-114954761D01*
X145419048Y-114954761D02*
X145514286Y-115002380D01*
X145514286Y-115002380D02*
X145704762Y-115002380D01*
X145704762Y-115002380D02*
X145800000Y-114954761D01*
X145800000Y-114954761D02*
X145895238Y-114859523D01*
X145895238Y-114859523D02*
X145942857Y-114669047D01*
X145942857Y-114669047D02*
X145942857Y-114335714D01*
X145942857Y-114335714D02*
X145895238Y-114145238D01*
X145895238Y-114145238D02*
X145800000Y-114050000D01*
X145800000Y-114050000D02*
X145704762Y-114002380D01*
X144323810Y-115002380D02*
X144895238Y-115002380D01*
X144609524Y-115002380D02*
X144609524Y-114002380D01*
X144609524Y-114002380D02*
X144704762Y-114145238D01*
X144704762Y-114145238D02*
X144800000Y-114240476D01*
X144800000Y-114240476D02*
X144895238Y-114288095D01*
X143466667Y-114002380D02*
X143657143Y-114002380D01*
X143657143Y-114002380D02*
X143752381Y-114050000D01*
X143752381Y-114050000D02*
X143800000Y-114097619D01*
X143800000Y-114097619D02*
X143895238Y-114240476D01*
X143895238Y-114240476D02*
X143942857Y-114430952D01*
X143942857Y-114430952D02*
X143942857Y-114811904D01*
X143942857Y-114811904D02*
X143895238Y-114907142D01*
X143895238Y-114907142D02*
X143847619Y-114954761D01*
X143847619Y-114954761D02*
X143752381Y-115002380D01*
X143752381Y-115002380D02*
X143561905Y-115002380D01*
X143561905Y-115002380D02*
X143466667Y-114954761D01*
X143466667Y-114954761D02*
X143419048Y-114907142D01*
X143419048Y-114907142D02*
X143371429Y-114811904D01*
X143371429Y-114811904D02*
X143371429Y-114573809D01*
X143371429Y-114573809D02*
X143419048Y-114478571D01*
X143419048Y-114478571D02*
X143466667Y-114430952D01*
X143466667Y-114430952D02*
X143561905Y-114383333D01*
X143561905Y-114383333D02*
X143752381Y-114383333D01*
X143752381Y-114383333D02*
X143847619Y-114430952D01*
X143847619Y-114430952D02*
X143895238Y-114478571D01*
X143895238Y-114478571D02*
X143942857Y-114573809D01*
X152209523Y-116336666D02*
X151733333Y-116336666D01*
X152304761Y-116622380D02*
X151971428Y-115622380D01*
X151971428Y-115622380D02*
X151638095Y-116622380D01*
X150828571Y-116622380D02*
X151304761Y-116622380D01*
X151304761Y-116622380D02*
X151304761Y-115622380D01*
X150542856Y-116336666D02*
X150066666Y-116336666D01*
X150638094Y-116622380D02*
X150304761Y-115622380D01*
X150304761Y-115622380D02*
X149971428Y-116622380D01*
X149066666Y-116622380D02*
X149399999Y-116146190D01*
X149638094Y-116622380D02*
X149638094Y-115622380D01*
X149638094Y-115622380D02*
X149257142Y-115622380D01*
X149257142Y-115622380D02*
X149161904Y-115670000D01*
X149161904Y-115670000D02*
X149114285Y-115717619D01*
X149114285Y-115717619D02*
X149066666Y-115812857D01*
X149066666Y-115812857D02*
X149066666Y-115955714D01*
X149066666Y-115955714D02*
X149114285Y-116050952D01*
X149114285Y-116050952D02*
X149161904Y-116098571D01*
X149161904Y-116098571D02*
X149257142Y-116146190D01*
X149257142Y-116146190D02*
X149638094Y-116146190D01*
X148638094Y-116622380D02*
X148638094Y-115622380D01*
X148638094Y-115622380D02*
X148304761Y-116336666D01*
X148304761Y-116336666D02*
X147971428Y-115622380D01*
X147971428Y-115622380D02*
X147971428Y-116622380D01*
X147495237Y-116527142D02*
X147447618Y-116574761D01*
X147447618Y-116574761D02*
X147495237Y-116622380D01*
X147495237Y-116622380D02*
X147542856Y-116574761D01*
X147542856Y-116574761D02*
X147495237Y-116527142D01*
X147495237Y-116527142D02*
X147495237Y-116622380D01*
X147495237Y-116003333D02*
X147447618Y-116050952D01*
X147447618Y-116050952D02*
X147495237Y-116098571D01*
X147495237Y-116098571D02*
X147542856Y-116050952D01*
X147542856Y-116050952D02*
X147495237Y-116003333D01*
X147495237Y-116003333D02*
X147495237Y-116098571D01*
X145895238Y-115670000D02*
X145990476Y-115622380D01*
X145990476Y-115622380D02*
X146133333Y-115622380D01*
X146133333Y-115622380D02*
X146276190Y-115670000D01*
X146276190Y-115670000D02*
X146371428Y-115765238D01*
X146371428Y-115765238D02*
X146419047Y-115860476D01*
X146419047Y-115860476D02*
X146466666Y-116050952D01*
X146466666Y-116050952D02*
X146466666Y-116193809D01*
X146466666Y-116193809D02*
X146419047Y-116384285D01*
X146419047Y-116384285D02*
X146371428Y-116479523D01*
X146371428Y-116479523D02*
X146276190Y-116574761D01*
X146276190Y-116574761D02*
X146133333Y-116622380D01*
X146133333Y-116622380D02*
X146038095Y-116622380D01*
X146038095Y-116622380D02*
X145895238Y-116574761D01*
X145895238Y-116574761D02*
X145847619Y-116527142D01*
X145847619Y-116527142D02*
X145847619Y-116193809D01*
X145847619Y-116193809D02*
X146038095Y-116193809D01*
X145419047Y-116622380D02*
X145419047Y-115622380D01*
X145419047Y-115622380D02*
X145038095Y-115622380D01*
X145038095Y-115622380D02*
X144942857Y-115670000D01*
X144942857Y-115670000D02*
X144895238Y-115717619D01*
X144895238Y-115717619D02*
X144847619Y-115812857D01*
X144847619Y-115812857D02*
X144847619Y-115955714D01*
X144847619Y-115955714D02*
X144895238Y-116050952D01*
X144895238Y-116050952D02*
X144942857Y-116098571D01*
X144942857Y-116098571D02*
X145038095Y-116146190D01*
X145038095Y-116146190D02*
X145419047Y-116146190D01*
X144419047Y-116622380D02*
X144419047Y-115622380D01*
X143752381Y-115622380D02*
X143561905Y-115622380D01*
X143561905Y-115622380D02*
X143466667Y-115670000D01*
X143466667Y-115670000D02*
X143371429Y-115765238D01*
X143371429Y-115765238D02*
X143323810Y-115955714D01*
X143323810Y-115955714D02*
X143323810Y-116289047D01*
X143323810Y-116289047D02*
X143371429Y-116479523D01*
X143371429Y-116479523D02*
X143466667Y-116574761D01*
X143466667Y-116574761D02*
X143561905Y-116622380D01*
X143561905Y-116622380D02*
X143752381Y-116622380D01*
X143752381Y-116622380D02*
X143847619Y-116574761D01*
X143847619Y-116574761D02*
X143942857Y-116479523D01*
X143942857Y-116479523D02*
X143990476Y-116289047D01*
X143990476Y-116289047D02*
X143990476Y-115955714D01*
X143990476Y-115955714D02*
X143942857Y-115765238D01*
X143942857Y-115765238D02*
X143847619Y-115670000D01*
X143847619Y-115670000D02*
X143752381Y-115622380D01*
X142371429Y-116622380D02*
X142942857Y-116622380D01*
X142657143Y-116622380D02*
X142657143Y-115622380D01*
X142657143Y-115622380D02*
X142752381Y-115765238D01*
X142752381Y-115765238D02*
X142847619Y-115860476D01*
X142847619Y-115860476D02*
X142942857Y-115908095D01*
X141466667Y-115622380D02*
X141942857Y-115622380D01*
X141942857Y-115622380D02*
X141990476Y-116098571D01*
X141990476Y-116098571D02*
X141942857Y-116050952D01*
X141942857Y-116050952D02*
X141847619Y-116003333D01*
X141847619Y-116003333D02*
X141609524Y-116003333D01*
X141609524Y-116003333D02*
X141514286Y-116050952D01*
X141514286Y-116050952D02*
X141466667Y-116098571D01*
X141466667Y-116098571D02*
X141419048Y-116193809D01*
X141419048Y-116193809D02*
X141419048Y-116431904D01*
X141419048Y-116431904D02*
X141466667Y-116527142D01*
X141466667Y-116527142D02*
X141514286Y-116574761D01*
X141514286Y-116574761D02*
X141609524Y-116622380D01*
X141609524Y-116622380D02*
X141847619Y-116622380D01*
X141847619Y-116622380D02*
X141942857Y-116574761D01*
X141942857Y-116574761D02*
X141990476Y-116527142D01*
X152304761Y-79790733D02*
X151733333Y-79790733D01*
X152019047Y-80790733D02*
X152019047Y-79790733D01*
X151399999Y-80266924D02*
X151066666Y-80266924D01*
X150923809Y-80790733D02*
X151399999Y-80790733D01*
X151399999Y-80790733D02*
X151399999Y-79790733D01*
X151399999Y-79790733D02*
X150923809Y-79790733D01*
X150495237Y-80790733D02*
X150495237Y-79790733D01*
X150495237Y-79790733D02*
X150161904Y-80505019D01*
X150161904Y-80505019D02*
X149828571Y-79790733D01*
X149828571Y-79790733D02*
X149828571Y-80790733D01*
X149352380Y-80790733D02*
X149352380Y-79790733D01*
X149352380Y-79790733D02*
X148971428Y-79790733D01*
X148971428Y-79790733D02*
X148876190Y-79838353D01*
X148876190Y-79838353D02*
X148828571Y-79885972D01*
X148828571Y-79885972D02*
X148780952Y-79981210D01*
X148780952Y-79981210D02*
X148780952Y-80124067D01*
X148780952Y-80124067D02*
X148828571Y-80219305D01*
X148828571Y-80219305D02*
X148876190Y-80266924D01*
X148876190Y-80266924D02*
X148971428Y-80314543D01*
X148971428Y-80314543D02*
X149352380Y-80314543D01*
X148352380Y-80695495D02*
X148304761Y-80743114D01*
X148304761Y-80743114D02*
X148352380Y-80790733D01*
X148352380Y-80790733D02*
X148399999Y-80743114D01*
X148399999Y-80743114D02*
X148352380Y-80695495D01*
X148352380Y-80695495D02*
X148352380Y-80790733D01*
X148352380Y-80171686D02*
X148304761Y-80219305D01*
X148304761Y-80219305D02*
X148352380Y-80266924D01*
X148352380Y-80266924D02*
X148399999Y-80219305D01*
X148399999Y-80219305D02*
X148352380Y-80171686D01*
X148352380Y-80171686D02*
X148352380Y-80266924D01*
X152209523Y-82363114D02*
X152066666Y-82410733D01*
X152066666Y-82410733D02*
X151828571Y-82410733D01*
X151828571Y-82410733D02*
X151733333Y-82363114D01*
X151733333Y-82363114D02*
X151685714Y-82315495D01*
X151685714Y-82315495D02*
X151638095Y-82220257D01*
X151638095Y-82220257D02*
X151638095Y-82125019D01*
X151638095Y-82125019D02*
X151685714Y-82029781D01*
X151685714Y-82029781D02*
X151733333Y-81982162D01*
X151733333Y-81982162D02*
X151828571Y-81934543D01*
X151828571Y-81934543D02*
X152019047Y-81886924D01*
X152019047Y-81886924D02*
X152114285Y-81839305D01*
X152114285Y-81839305D02*
X152161904Y-81791686D01*
X152161904Y-81791686D02*
X152209523Y-81696448D01*
X152209523Y-81696448D02*
X152209523Y-81601210D01*
X152209523Y-81601210D02*
X152161904Y-81505972D01*
X152161904Y-81505972D02*
X152114285Y-81458353D01*
X152114285Y-81458353D02*
X152019047Y-81410733D01*
X152019047Y-81410733D02*
X151780952Y-81410733D01*
X151780952Y-81410733D02*
X151638095Y-81458353D01*
X151209523Y-82410733D02*
X151209523Y-81410733D01*
X151209523Y-81410733D02*
X150971428Y-81410733D01*
X150971428Y-81410733D02*
X150828571Y-81458353D01*
X150828571Y-81458353D02*
X150733333Y-81553591D01*
X150733333Y-81553591D02*
X150685714Y-81648829D01*
X150685714Y-81648829D02*
X150638095Y-81839305D01*
X150638095Y-81839305D02*
X150638095Y-81982162D01*
X150638095Y-81982162D02*
X150685714Y-82172638D01*
X150685714Y-82172638D02*
X150733333Y-82267876D01*
X150733333Y-82267876D02*
X150828571Y-82363114D01*
X150828571Y-82363114D02*
X150971428Y-82410733D01*
X150971428Y-82410733D02*
X151209523Y-82410733D01*
X150257142Y-82125019D02*
X149780952Y-82125019D01*
X150352380Y-82410733D02*
X150019047Y-81410733D01*
X150019047Y-81410733D02*
X149685714Y-82410733D01*
X149352380Y-82315495D02*
X149304761Y-82363114D01*
X149304761Y-82363114D02*
X149352380Y-82410733D01*
X149352380Y-82410733D02*
X149399999Y-82363114D01*
X149399999Y-82363114D02*
X149352380Y-82315495D01*
X149352380Y-82315495D02*
X149352380Y-82410733D01*
X149352380Y-81791686D02*
X149304761Y-81839305D01*
X149304761Y-81839305D02*
X149352380Y-81886924D01*
X149352380Y-81886924D02*
X149399999Y-81839305D01*
X149399999Y-81839305D02*
X149352380Y-81791686D01*
X149352380Y-81791686D02*
X149352380Y-81886924D01*
X147752381Y-81458353D02*
X147847619Y-81410733D01*
X147847619Y-81410733D02*
X147990476Y-81410733D01*
X147990476Y-81410733D02*
X148133333Y-81458353D01*
X148133333Y-81458353D02*
X148228571Y-81553591D01*
X148228571Y-81553591D02*
X148276190Y-81648829D01*
X148276190Y-81648829D02*
X148323809Y-81839305D01*
X148323809Y-81839305D02*
X148323809Y-81982162D01*
X148323809Y-81982162D02*
X148276190Y-82172638D01*
X148276190Y-82172638D02*
X148228571Y-82267876D01*
X148228571Y-82267876D02*
X148133333Y-82363114D01*
X148133333Y-82363114D02*
X147990476Y-82410733D01*
X147990476Y-82410733D02*
X147895238Y-82410733D01*
X147895238Y-82410733D02*
X147752381Y-82363114D01*
X147752381Y-82363114D02*
X147704762Y-82315495D01*
X147704762Y-82315495D02*
X147704762Y-81982162D01*
X147704762Y-81982162D02*
X147895238Y-81982162D01*
X147276190Y-82410733D02*
X147276190Y-81410733D01*
X147276190Y-81410733D02*
X146895238Y-81410733D01*
X146895238Y-81410733D02*
X146800000Y-81458353D01*
X146800000Y-81458353D02*
X146752381Y-81505972D01*
X146752381Y-81505972D02*
X146704762Y-81601210D01*
X146704762Y-81601210D02*
X146704762Y-81744067D01*
X146704762Y-81744067D02*
X146752381Y-81839305D01*
X146752381Y-81839305D02*
X146800000Y-81886924D01*
X146800000Y-81886924D02*
X146895238Y-81934543D01*
X146895238Y-81934543D02*
X147276190Y-81934543D01*
X146276190Y-82410733D02*
X146276190Y-81410733D01*
X145609524Y-81410733D02*
X145419048Y-81410733D01*
X145419048Y-81410733D02*
X145323810Y-81458353D01*
X145323810Y-81458353D02*
X145228572Y-81553591D01*
X145228572Y-81553591D02*
X145180953Y-81744067D01*
X145180953Y-81744067D02*
X145180953Y-82077400D01*
X145180953Y-82077400D02*
X145228572Y-82267876D01*
X145228572Y-82267876D02*
X145323810Y-82363114D01*
X145323810Y-82363114D02*
X145419048Y-82410733D01*
X145419048Y-82410733D02*
X145609524Y-82410733D01*
X145609524Y-82410733D02*
X145704762Y-82363114D01*
X145704762Y-82363114D02*
X145800000Y-82267876D01*
X145800000Y-82267876D02*
X145847619Y-82077400D01*
X145847619Y-82077400D02*
X145847619Y-81744067D01*
X145847619Y-81744067D02*
X145800000Y-81553591D01*
X145800000Y-81553591D02*
X145704762Y-81458353D01*
X145704762Y-81458353D02*
X145609524Y-81410733D01*
X144847619Y-81410733D02*
X144228572Y-81410733D01*
X144228572Y-81410733D02*
X144561905Y-81791686D01*
X144561905Y-81791686D02*
X144419048Y-81791686D01*
X144419048Y-81791686D02*
X144323810Y-81839305D01*
X144323810Y-81839305D02*
X144276191Y-81886924D01*
X144276191Y-81886924D02*
X144228572Y-81982162D01*
X144228572Y-81982162D02*
X144228572Y-82220257D01*
X144228572Y-82220257D02*
X144276191Y-82315495D01*
X144276191Y-82315495D02*
X144323810Y-82363114D01*
X144323810Y-82363114D02*
X144419048Y-82410733D01*
X144419048Y-82410733D02*
X144704762Y-82410733D01*
X144704762Y-82410733D02*
X144800000Y-82363114D01*
X144800000Y-82363114D02*
X144847619Y-82315495D01*
X143847619Y-81505972D02*
X143800000Y-81458353D01*
X143800000Y-81458353D02*
X143704762Y-81410733D01*
X143704762Y-81410733D02*
X143466667Y-81410733D01*
X143466667Y-81410733D02*
X143371429Y-81458353D01*
X143371429Y-81458353D02*
X143323810Y-81505972D01*
X143323810Y-81505972D02*
X143276191Y-81601210D01*
X143276191Y-81601210D02*
X143276191Y-81696448D01*
X143276191Y-81696448D02*
X143323810Y-81839305D01*
X143323810Y-81839305D02*
X143895238Y-82410733D01*
X143895238Y-82410733D02*
X143276191Y-82410733D01*
X152209523Y-83983114D02*
X152066666Y-84030733D01*
X152066666Y-84030733D02*
X151828571Y-84030733D01*
X151828571Y-84030733D02*
X151733333Y-83983114D01*
X151733333Y-83983114D02*
X151685714Y-83935495D01*
X151685714Y-83935495D02*
X151638095Y-83840257D01*
X151638095Y-83840257D02*
X151638095Y-83745019D01*
X151638095Y-83745019D02*
X151685714Y-83649781D01*
X151685714Y-83649781D02*
X151733333Y-83602162D01*
X151733333Y-83602162D02*
X151828571Y-83554543D01*
X151828571Y-83554543D02*
X152019047Y-83506924D01*
X152019047Y-83506924D02*
X152114285Y-83459305D01*
X152114285Y-83459305D02*
X152161904Y-83411686D01*
X152161904Y-83411686D02*
X152209523Y-83316448D01*
X152209523Y-83316448D02*
X152209523Y-83221210D01*
X152209523Y-83221210D02*
X152161904Y-83125972D01*
X152161904Y-83125972D02*
X152114285Y-83078353D01*
X152114285Y-83078353D02*
X152019047Y-83030733D01*
X152019047Y-83030733D02*
X151780952Y-83030733D01*
X151780952Y-83030733D02*
X151638095Y-83078353D01*
X150638095Y-83935495D02*
X150685714Y-83983114D01*
X150685714Y-83983114D02*
X150828571Y-84030733D01*
X150828571Y-84030733D02*
X150923809Y-84030733D01*
X150923809Y-84030733D02*
X151066666Y-83983114D01*
X151066666Y-83983114D02*
X151161904Y-83887876D01*
X151161904Y-83887876D02*
X151209523Y-83792638D01*
X151209523Y-83792638D02*
X151257142Y-83602162D01*
X151257142Y-83602162D02*
X151257142Y-83459305D01*
X151257142Y-83459305D02*
X151209523Y-83268829D01*
X151209523Y-83268829D02*
X151161904Y-83173591D01*
X151161904Y-83173591D02*
X151066666Y-83078353D01*
X151066666Y-83078353D02*
X150923809Y-83030733D01*
X150923809Y-83030733D02*
X150828571Y-83030733D01*
X150828571Y-83030733D02*
X150685714Y-83078353D01*
X150685714Y-83078353D02*
X150638095Y-83125972D01*
X149733333Y-84030733D02*
X150209523Y-84030733D01*
X150209523Y-84030733D02*
X150209523Y-83030733D01*
X149399999Y-83935495D02*
X149352380Y-83983114D01*
X149352380Y-83983114D02*
X149399999Y-84030733D01*
X149399999Y-84030733D02*
X149447618Y-83983114D01*
X149447618Y-83983114D02*
X149399999Y-83935495D01*
X149399999Y-83935495D02*
X149399999Y-84030733D01*
X149399999Y-83411686D02*
X149352380Y-83459305D01*
X149352380Y-83459305D02*
X149399999Y-83506924D01*
X149399999Y-83506924D02*
X149447618Y-83459305D01*
X149447618Y-83459305D02*
X149399999Y-83411686D01*
X149399999Y-83411686D02*
X149399999Y-83506924D01*
X147800000Y-83078353D02*
X147895238Y-83030733D01*
X147895238Y-83030733D02*
X148038095Y-83030733D01*
X148038095Y-83030733D02*
X148180952Y-83078353D01*
X148180952Y-83078353D02*
X148276190Y-83173591D01*
X148276190Y-83173591D02*
X148323809Y-83268829D01*
X148323809Y-83268829D02*
X148371428Y-83459305D01*
X148371428Y-83459305D02*
X148371428Y-83602162D01*
X148371428Y-83602162D02*
X148323809Y-83792638D01*
X148323809Y-83792638D02*
X148276190Y-83887876D01*
X148276190Y-83887876D02*
X148180952Y-83983114D01*
X148180952Y-83983114D02*
X148038095Y-84030733D01*
X148038095Y-84030733D02*
X147942857Y-84030733D01*
X147942857Y-84030733D02*
X147800000Y-83983114D01*
X147800000Y-83983114D02*
X147752381Y-83935495D01*
X147752381Y-83935495D02*
X147752381Y-83602162D01*
X147752381Y-83602162D02*
X147942857Y-83602162D01*
X147323809Y-84030733D02*
X147323809Y-83030733D01*
X147323809Y-83030733D02*
X146942857Y-83030733D01*
X146942857Y-83030733D02*
X146847619Y-83078353D01*
X146847619Y-83078353D02*
X146800000Y-83125972D01*
X146800000Y-83125972D02*
X146752381Y-83221210D01*
X146752381Y-83221210D02*
X146752381Y-83364067D01*
X146752381Y-83364067D02*
X146800000Y-83459305D01*
X146800000Y-83459305D02*
X146847619Y-83506924D01*
X146847619Y-83506924D02*
X146942857Y-83554543D01*
X146942857Y-83554543D02*
X147323809Y-83554543D01*
X146323809Y-84030733D02*
X146323809Y-83030733D01*
X145657143Y-83030733D02*
X145466667Y-83030733D01*
X145466667Y-83030733D02*
X145371429Y-83078353D01*
X145371429Y-83078353D02*
X145276191Y-83173591D01*
X145276191Y-83173591D02*
X145228572Y-83364067D01*
X145228572Y-83364067D02*
X145228572Y-83697400D01*
X145228572Y-83697400D02*
X145276191Y-83887876D01*
X145276191Y-83887876D02*
X145371429Y-83983114D01*
X145371429Y-83983114D02*
X145466667Y-84030733D01*
X145466667Y-84030733D02*
X145657143Y-84030733D01*
X145657143Y-84030733D02*
X145752381Y-83983114D01*
X145752381Y-83983114D02*
X145847619Y-83887876D01*
X145847619Y-83887876D02*
X145895238Y-83697400D01*
X145895238Y-83697400D02*
X145895238Y-83364067D01*
X145895238Y-83364067D02*
X145847619Y-83173591D01*
X145847619Y-83173591D02*
X145752381Y-83078353D01*
X145752381Y-83078353D02*
X145657143Y-83030733D01*
X144895238Y-83030733D02*
X144276191Y-83030733D01*
X144276191Y-83030733D02*
X144609524Y-83411686D01*
X144609524Y-83411686D02*
X144466667Y-83411686D01*
X144466667Y-83411686D02*
X144371429Y-83459305D01*
X144371429Y-83459305D02*
X144323810Y-83506924D01*
X144323810Y-83506924D02*
X144276191Y-83602162D01*
X144276191Y-83602162D02*
X144276191Y-83840257D01*
X144276191Y-83840257D02*
X144323810Y-83935495D01*
X144323810Y-83935495D02*
X144371429Y-83983114D01*
X144371429Y-83983114D02*
X144466667Y-84030733D01*
X144466667Y-84030733D02*
X144752381Y-84030733D01*
X144752381Y-84030733D02*
X144847619Y-83983114D01*
X144847619Y-83983114D02*
X144895238Y-83935495D01*
X143942857Y-83030733D02*
X143323810Y-83030733D01*
X143323810Y-83030733D02*
X143657143Y-83411686D01*
X143657143Y-83411686D02*
X143514286Y-83411686D01*
X143514286Y-83411686D02*
X143419048Y-83459305D01*
X143419048Y-83459305D02*
X143371429Y-83506924D01*
X143371429Y-83506924D02*
X143323810Y-83602162D01*
X143323810Y-83602162D02*
X143323810Y-83840257D01*
X143323810Y-83840257D02*
X143371429Y-83935495D01*
X143371429Y-83935495D02*
X143419048Y-83983114D01*
X143419048Y-83983114D02*
X143514286Y-84030733D01*
X143514286Y-84030733D02*
X143800000Y-84030733D01*
X143800000Y-84030733D02*
X143895238Y-83983114D01*
X143895238Y-83983114D02*
X143942857Y-83935495D01*
X151828571Y-86746924D02*
X151685714Y-86794543D01*
X151685714Y-86794543D02*
X151638095Y-86842162D01*
X151638095Y-86842162D02*
X151590476Y-86937400D01*
X151590476Y-86937400D02*
X151590476Y-87080257D01*
X151590476Y-87080257D02*
X151638095Y-87175495D01*
X151638095Y-87175495D02*
X151685714Y-87223114D01*
X151685714Y-87223114D02*
X151780952Y-87270733D01*
X151780952Y-87270733D02*
X152161904Y-87270733D01*
X152161904Y-87270733D02*
X152161904Y-86270733D01*
X152161904Y-86270733D02*
X151828571Y-86270733D01*
X151828571Y-86270733D02*
X151733333Y-86318353D01*
X151733333Y-86318353D02*
X151685714Y-86365972D01*
X151685714Y-86365972D02*
X151638095Y-86461210D01*
X151638095Y-86461210D02*
X151638095Y-86556448D01*
X151638095Y-86556448D02*
X151685714Y-86651686D01*
X151685714Y-86651686D02*
X151733333Y-86699305D01*
X151733333Y-86699305D02*
X151828571Y-86746924D01*
X151828571Y-86746924D02*
X152161904Y-86746924D01*
X151161904Y-86270733D02*
X151161904Y-87080257D01*
X151161904Y-87080257D02*
X151114285Y-87175495D01*
X151114285Y-87175495D02*
X151066666Y-87223114D01*
X151066666Y-87223114D02*
X150971428Y-87270733D01*
X150971428Y-87270733D02*
X150780952Y-87270733D01*
X150780952Y-87270733D02*
X150685714Y-87223114D01*
X150685714Y-87223114D02*
X150638095Y-87175495D01*
X150638095Y-87175495D02*
X150590476Y-87080257D01*
X150590476Y-87080257D02*
X150590476Y-86270733D01*
X150209523Y-86270733D02*
X149542857Y-86270733D01*
X149542857Y-86270733D02*
X150209523Y-87270733D01*
X150209523Y-87270733D02*
X149542857Y-87270733D01*
X149257142Y-86270733D02*
X148590476Y-86270733D01*
X148590476Y-86270733D02*
X149257142Y-87270733D01*
X149257142Y-87270733D02*
X148590476Y-87270733D01*
X148209523Y-86746924D02*
X147876190Y-86746924D01*
X147733333Y-87270733D02*
X148209523Y-87270733D01*
X148209523Y-87270733D02*
X148209523Y-86270733D01*
X148209523Y-86270733D02*
X147733333Y-86270733D01*
X146733333Y-87270733D02*
X147066666Y-86794543D01*
X147304761Y-87270733D02*
X147304761Y-86270733D01*
X147304761Y-86270733D02*
X146923809Y-86270733D01*
X146923809Y-86270733D02*
X146828571Y-86318353D01*
X146828571Y-86318353D02*
X146780952Y-86365972D01*
X146780952Y-86365972D02*
X146733333Y-86461210D01*
X146733333Y-86461210D02*
X146733333Y-86604067D01*
X146733333Y-86604067D02*
X146780952Y-86699305D01*
X146780952Y-86699305D02*
X146828571Y-86746924D01*
X146828571Y-86746924D02*
X146923809Y-86794543D01*
X146923809Y-86794543D02*
X147304761Y-86794543D01*
X146304761Y-87175495D02*
X146257142Y-87223114D01*
X146257142Y-87223114D02*
X146304761Y-87270733D01*
X146304761Y-87270733D02*
X146352380Y-87223114D01*
X146352380Y-87223114D02*
X146304761Y-87175495D01*
X146304761Y-87175495D02*
X146304761Y-87270733D01*
X146304761Y-86651686D02*
X146257142Y-86699305D01*
X146257142Y-86699305D02*
X146304761Y-86746924D01*
X146304761Y-86746924D02*
X146352380Y-86699305D01*
X146352380Y-86699305D02*
X146304761Y-86651686D01*
X146304761Y-86651686D02*
X146304761Y-86746924D01*
X144704762Y-86318353D02*
X144800000Y-86270733D01*
X144800000Y-86270733D02*
X144942857Y-86270733D01*
X144942857Y-86270733D02*
X145085714Y-86318353D01*
X145085714Y-86318353D02*
X145180952Y-86413591D01*
X145180952Y-86413591D02*
X145228571Y-86508829D01*
X145228571Y-86508829D02*
X145276190Y-86699305D01*
X145276190Y-86699305D02*
X145276190Y-86842162D01*
X145276190Y-86842162D02*
X145228571Y-87032638D01*
X145228571Y-87032638D02*
X145180952Y-87127876D01*
X145180952Y-87127876D02*
X145085714Y-87223114D01*
X145085714Y-87223114D02*
X144942857Y-87270733D01*
X144942857Y-87270733D02*
X144847619Y-87270733D01*
X144847619Y-87270733D02*
X144704762Y-87223114D01*
X144704762Y-87223114D02*
X144657143Y-87175495D01*
X144657143Y-87175495D02*
X144657143Y-86842162D01*
X144657143Y-86842162D02*
X144847619Y-86842162D01*
X144228571Y-87270733D02*
X144228571Y-86270733D01*
X144228571Y-86270733D02*
X143847619Y-86270733D01*
X143847619Y-86270733D02*
X143752381Y-86318353D01*
X143752381Y-86318353D02*
X143704762Y-86365972D01*
X143704762Y-86365972D02*
X143657143Y-86461210D01*
X143657143Y-86461210D02*
X143657143Y-86604067D01*
X143657143Y-86604067D02*
X143704762Y-86699305D01*
X143704762Y-86699305D02*
X143752381Y-86746924D01*
X143752381Y-86746924D02*
X143847619Y-86794543D01*
X143847619Y-86794543D02*
X144228571Y-86794543D01*
X143228571Y-87270733D02*
X143228571Y-86270733D01*
X142561905Y-86270733D02*
X142371429Y-86270733D01*
X142371429Y-86270733D02*
X142276191Y-86318353D01*
X142276191Y-86318353D02*
X142180953Y-86413591D01*
X142180953Y-86413591D02*
X142133334Y-86604067D01*
X142133334Y-86604067D02*
X142133334Y-86937400D01*
X142133334Y-86937400D02*
X142180953Y-87127876D01*
X142180953Y-87127876D02*
X142276191Y-87223114D01*
X142276191Y-87223114D02*
X142371429Y-87270733D01*
X142371429Y-87270733D02*
X142561905Y-87270733D01*
X142561905Y-87270733D02*
X142657143Y-87223114D01*
X142657143Y-87223114D02*
X142752381Y-87127876D01*
X142752381Y-87127876D02*
X142800000Y-86937400D01*
X142800000Y-86937400D02*
X142800000Y-86604067D01*
X142800000Y-86604067D02*
X142752381Y-86413591D01*
X142752381Y-86413591D02*
X142657143Y-86318353D01*
X142657143Y-86318353D02*
X142561905Y-86270733D01*
X141752381Y-86365972D02*
X141704762Y-86318353D01*
X141704762Y-86318353D02*
X141609524Y-86270733D01*
X141609524Y-86270733D02*
X141371429Y-86270733D01*
X141371429Y-86270733D02*
X141276191Y-86318353D01*
X141276191Y-86318353D02*
X141228572Y-86365972D01*
X141228572Y-86365972D02*
X141180953Y-86461210D01*
X141180953Y-86461210D02*
X141180953Y-86556448D01*
X141180953Y-86556448D02*
X141228572Y-86699305D01*
X141228572Y-86699305D02*
X141800000Y-87270733D01*
X141800000Y-87270733D02*
X141180953Y-87270733D01*
M02*
